<svg width="100" height="100" viewBox="0 0 100 100" fill="none" xmlns="http://www.w3.org/2000/svg"><g clip-path="url(#clip0)"><mask id="mask0" mask-type="alpha" maskUnits="userSpaceOnUse" x="5" y="23" width="90" height="56"><path fill-rule="evenodd" clip-rule="evenodd" d="M7.02185 71.2217L88.7083 24.06C90.5128 23.0182 92.8203 23.6364 93.8622 25.441C94.904 27.2456 94.2857 29.5531 92.4812 30.5949L10.7948 77.7566C8.99022 78.7985 6.68273 78.1802 5.64086 76.3756C4.59899 74.571 5.21728 72.2636 7.02185 71.2217Z" fill="white"/></mask><g mask="url(#mask0)"><path fill-rule="evenodd" clip-rule="evenodd" d="M5.79916 86.0854L102.189 30.4346L93.7 15.7311L-2.68994 71.3818L5.79916 86.0854Z" fill="#D8D8D8"/></g><mask id="mask1" mask-type="alpha" maskUnits="userSpaceOnUse" x="13" y="39" width="35" height="45"><path fill-rule="evenodd" clip-rule="evenodd" d="M15.0362 44.8106L23.4335 39.9624C24.9494 39.0872 26.8877 39.6066 27.7628 41.1224L46.7595 74.0257C47.6347 75.5416 47.1154 77.4799 45.5995 78.355L37.2022 83.2032C35.6863 84.0784 33.748 83.559 32.8729 82.0432L13.8761 49.1399C13.001 47.6241 13.5203 45.6858 15.0362 44.8106Z" fill="white"/></mask><g mask="url(#mask1)"><path fill-rule="evenodd" clip-rule="evenodd" d="M32.7293 91.2302L54.7846 78.4965L27.9025 31.9353L5.84717 44.6689L32.7293 91.2302Z" fill="#4B4B4B"/></g><mask id="mask2" mask-type="alpha" maskUnits="userSpaceOnUse" x="8" y="54" width="22" height="30"><path fill-rule="evenodd" clip-rule="evenodd" d="M9.82523 56.5333L13.3214 54.5148C14.8372 53.6396 16.7755 54.159 17.6507 55.6748L29.5732 76.3251C30.4483 77.841 29.929 79.7792 28.4131 80.6544L24.917 82.6729C23.4011 83.5481 21.4628 83.0287 20.5877 81.5129L8.6652 60.8626C7.79003 59.3467 8.30939 57.4085 9.82523 56.5333Z" fill="white"/></mask><g mask="url(#mask2)"><path fill-rule="evenodd" clip-rule="evenodd" d="M20.4441 90.6999L37.5983 80.7959L17.7904 46.4877L0.63623 56.3916L20.4441 90.6999Z" fill="#4B4B4B"/></g><mask id="mask3" mask-type="alpha" maskUnits="userSpaceOnUse" x="52" y="16" width="35" height="45"><path fill-rule="evenodd" clip-rule="evenodd" d="M62.6445 17.3247C64.1603 16.4495 66.0986 16.9689 66.9738 18.4847L85.9705 51.388C86.8457 52.9039 86.3263 54.8422 84.8105 55.7173L76.4131 60.5655C74.8973 61.4407 72.959 60.9214 72.0838 59.4055L53.0871 26.5022C52.2119 24.9864 52.7313 23.0481 54.2471 22.1729L62.6445 17.3247Z" fill="white"/></mask><g mask="url(#mask3)"><path fill-rule="evenodd" clip-rule="evenodd" d="M71.9403 68.5927L93.9956 55.8591L67.1134 9.29784L45.0581 22.0315L71.9403 68.5927Z" fill="#4B4B4B"/></g><mask id="mask4" mask-type="alpha" maskUnits="userSpaceOnUse" x="54" y="18" width="14" height="12"><path fill-rule="evenodd" clip-rule="evenodd" d="M55.4534 23.6559L63.328 19.1095C64.0859 18.672 65.055 18.9316 65.4926 19.6896L67.2093 22.6629C67.6469 23.4209 67.3872 24.39 66.6293 24.8276L58.7547 29.374C57.9968 29.8116 57.0276 29.5519 56.5901 28.794L54.8734 25.8206C54.4358 25.0627 54.6955 24.0935 55.4534 23.6559Z" fill="white"/></mask><g mask="url(#mask4)"><path fill-rule="evenodd" clip-rule="evenodd" d="M55.6542 36.6086L74.4421 25.7614L66.4246 11.8747L47.6367 22.7219L55.6542 36.6086Z" fill="#747474"/></g><mask id="mask5" mask-type="alpha" maskUnits="userSpaceOnUse" x="15" y="41" width="14" height="12"><path fill-rule="evenodd" clip-rule="evenodd" d="M16.2424 46.2934L24.117 41.747C24.8749 41.3094 25.8441 41.5691 26.2817 42.327L27.9984 45.3004C28.4359 46.0583 28.1763 47.0275 27.4183 47.465L19.5438 52.0114C18.7858 52.449 17.8167 52.1893 17.3791 51.4314L15.6624 48.458C15.2248 47.7001 15.4845 46.731 16.2424 46.2934Z" fill="white"/></mask><g mask="url(#mask5)"><path fill-rule="evenodd" clip-rule="evenodd" d="M16.4433 59.2463L35.2311 48.3991L27.2137 34.5124L8.42578 45.3596L16.4433 59.2463Z" fill="#747474"/></g><mask id="mask6" mask-type="alpha" maskUnits="userSpaceOnUse" x="10" y="56" width="9" height="8"><path fill-rule="evenodd" clip-rule="evenodd" d="M11.03 58.0163L14.0034 56.2996C14.7614 55.862 15.7305 56.1217 16.1681 56.8796L17.8848 59.853C18.3223 60.6109 18.0627 61.5801 17.3047 62.0176L14.3314 63.7343C13.5734 64.1719 12.6043 63.9122 12.1667 63.1543L10.45 60.1809C10.0124 59.423 10.2721 58.4539 11.03 58.0163Z" fill="white"/></mask><g mask="url(#mask6)"><path fill-rule="evenodd" clip-rule="evenodd" d="M11.2309 70.969L25.1176 62.9515L17.1001 49.0648L3.21338 57.0823L11.2309 70.969Z" fill="#747474"/></g><mask id="mask7" mask-type="alpha" maskUnits="userSpaceOnUse" x="70" y="18" width="23" height="30"><path fill-rule="evenodd" clip-rule="evenodd" d="M75.403 18.672C76.9188 17.7968 78.8571 18.3162 79.7322 19.832L91.6547 40.4823C92.5299 41.9982 92.0105 43.9365 90.4947 44.8116L86.9985 46.8302C85.4827 47.7053 83.5444 47.186 82.6692 45.6701L70.7467 25.0198C69.8716 23.504 70.3909 21.5657 71.9068 20.6905L75.403 18.672Z" fill="white"/></mask><g mask="url(#mask7)"><path fill-rule="evenodd" clip-rule="evenodd" d="M82.5257 54.8571L99.6798 44.9532L79.8719 10.6449L62.7178 20.5488L82.5257 54.8571Z" fill="#4B4B4B"/></g><mask id="mask8" mask-type="alpha" maskUnits="userSpaceOnUse" x="72" y="20" width="9" height="9"><path fill-rule="evenodd" clip-rule="evenodd" d="M76.0869 20.4566C76.8448 20.019 77.814 20.2787 78.2516 21.0366L79.9683 24.01C80.4058 24.7679 80.1461 25.7371 79.3882 26.1746L76.4149 27.8913C75.657 28.3289 74.6878 28.0692 74.2502 27.3113L72.5335 24.3379C72.0959 23.58 72.3557 22.6108 73.1135 22.1733L76.0869 20.4566Z" fill="white"/></mask><g mask="url(#mask8)"><path fill-rule="evenodd" clip-rule="evenodd" d="M73.3144 35.1262L87.201 27.1087L79.1836 13.222L65.2969 21.2395L73.3144 35.1262Z" fill="#747474"/></g></g><defs><clipPath id="clip0"><rect width="100" height="100" fill="white"/></clipPath></defs></svg>