<svg width="100" height="100" viewBox="0 0 100 100" fill="none" xmlns="http://www.w3.org/2000/svg"><mask id="mask0" mask-type="alpha" maskUnits="userSpaceOnUse" x="5" y="5" width="36" height="36"><path d="M23.3131 40.3004C13.682 40.3004 5.87402 32.5061 5.87402 22.8897C5.87402 13.276 13.682 5.48169 23.3131 5.48169C32.9442 5.48169 40.7522 13.276 40.7522 22.8906C40.7522 32.5061 32.9442 40.3004 23.3131 40.3004Z" fill="white"/></mask><g mask="url(#mask0)"><path fill-rule="evenodd" clip-rule="evenodd" d="M3.38232 42.7873H43.2434V2.99487H3.38232V42.7873Z" fill="#47D7FF" fill-opacity="0.842"/></g><mask id="mask1" mask-type="alpha" maskUnits="userSpaceOnUse" x="19" y="38" width="8" height="8"><path d="M24.65 38.9912L26.7163 43.1147C26.831 43.3424 26.8853 43.5957 26.8741 43.8504C26.8629 44.1051 26.7865 44.3526 26.6523 44.5694C26.5181 44.7861 26.3306 44.9648 26.1076 45.0884C25.8846 45.2119 25.6336 45.2762 25.3787 45.2751H21.2471C20.9927 45.275 20.7426 45.2099 20.5204 45.0861C20.2983 44.9622 20.1114 44.7837 19.9776 44.5675C19.8437 44.3512 19.7673 44.1043 19.7555 43.8502C19.7437 43.5962 19.7971 43.3433 19.9104 43.1156L21.9767 38.9912C22.1011 38.7434 22.292 38.5351 22.5281 38.3895C22.7641 38.2439 23.036 38.1667 23.3133 38.1667C23.5907 38.1667 23.8626 38.2439 24.0986 38.3895C24.3346 38.5351 24.5256 38.7434 24.65 38.9912Z" fill="white"/></mask><g mask="url(#mask1)"><path fill-rule="evenodd" clip-rule="evenodd" d="M17.2607 47.7611H29.3659V35.6797H17.2607V47.7611Z" fill="#64DDFF"/></g><path d="M17.1721 12.9431C14.6231 14.2688 13.2123 16.3205 12.939 19.0972" stroke="#C1F1FF" stroke-width="5.12" stroke-linecap="round" stroke-linejoin="round"/><path d="M25.8892 35.0752C30.9333 33.5008 34.2 30.1875 35.6903 25.1333" stroke="#39D1FC" stroke-width="5.12" stroke-linecap="round" stroke-linejoin="round"/><mask id="mask2" mask-type="alpha" maskUnits="userSpaceOnUse" x="46" y="11" width="36" height="36"><path d="M63.6725 46.2697C54.0414 46.2697 46.2334 38.4754 46.2334 28.8589C46.2334 19.2452 54.0414 11.4509 63.6725 11.4509C73.3036 11.4509 81.1116 19.2452 81.1116 28.8598C81.1116 38.4754 73.3036 46.2697 63.6725 46.2697Z" fill="white"/></mask><g mask="url(#mask2)"><path fill-rule="evenodd" clip-rule="evenodd" d="M43.7417 48.7566H83.6027V8.96411H43.7417V48.7566Z" fill="#FFD900" fill-opacity="0.842"/></g><path d="M65.751 41.0438C70.7933 39.4703 74.0609 36.156 75.5503 31.1028" stroke="#FFC800" stroke-width="5.12" stroke-linecap="round" stroke-linejoin="round"/><path d="M57.5315 20.4045C54.9815 21.7303 53.5708 23.7819 53.2983 26.5577" stroke="#FFF19E" stroke-width="5.12" stroke-linecap="round" stroke-linejoin="round"/><mask id="mask3" mask-type="alpha" maskUnits="userSpaceOnUse" x="60" y="44" width="8" height="8"><path d="M65.0095 44.9605L67.0758 49.0839C67.1904 49.3116 67.2447 49.5649 67.2335 49.8196C67.2223 50.0743 67.146 50.3218 67.0118 50.5386C66.8776 50.7553 66.69 50.934 66.467 51.0576C66.244 51.1812 65.9931 51.2455 65.7382 51.2444H61.6065C61.3521 51.2445 61.1018 51.1796 60.8795 51.0558C60.6572 50.932 60.4702 50.7535 60.3363 50.5371C60.2024 50.3208 60.126 50.0738 60.1144 49.8196C60.1027 49.5654 60.1562 49.3125 60.2698 49.0848L62.3361 44.9605C62.4606 44.7126 62.6515 44.5043 62.8875 44.3587C63.1236 44.2131 63.3955 44.136 63.6728 44.136C63.9501 44.136 64.222 44.2131 64.4581 44.3587C64.6941 44.5043 64.885 44.7126 65.0095 44.9605Z" fill="white"/></mask><g mask="url(#mask3)"><path fill-rule="evenodd" clip-rule="evenodd" d="M57.6201 53.7303H69.7253V41.6489H57.6201V53.7303Z" fill="#FFDF28"/></g><mask id="mask4" mask-type="alpha" maskUnits="userSpaceOnUse" x="58" y="2" width="36" height="35"><path d="M76.129 36.8187C66.4979 36.8187 58.6899 29.0245 58.6899 19.408C58.6899 9.79429 66.4979 2 76.129 2C85.7601 2 93.5681 9.79429 93.5681 19.4089C93.5681 29.0245 85.7601 36.8187 76.129 36.8187Z" fill="white"/></mask><g mask="url(#mask4)"><path fill-rule="evenodd" clip-rule="evenodd" d="M56.1982 39.3056H96.0593V-0.486816H56.1982V39.3056Z" fill="#FF4B4B" fill-opacity="0.842"/></g><mask id="mask5" mask-type="alpha" maskUnits="userSpaceOnUse" x="73" y="34" width="8" height="8"><path d="M78.4621 35.5093L80.5284 39.6327C80.643 39.8604 80.6974 40.1137 80.6862 40.3684C80.675 40.6231 80.5986 40.8707 80.4644 41.0874C80.3302 41.3042 80.1427 41.4829 79.9197 41.6064C79.6967 41.73 79.4457 41.7943 79.1908 41.7932H75.0591C74.8047 41.7933 74.5545 41.7284 74.3321 41.6046C74.1098 41.4809 73.9229 41.3023 73.7889 41.086C73.655 40.8696 73.5786 40.6226 73.567 40.3684C73.5554 40.1143 73.6089 39.8613 73.7225 39.6337L75.7887 35.5093C75.9132 35.2615 76.1041 35.0531 76.3402 34.9075C76.5762 34.7619 76.8481 34.6848 77.1254 34.6848C77.4028 34.6848 77.6746 34.7619 77.9107 34.9075C78.1467 35.0531 78.3377 35.2615 78.4621 35.5093Z" fill="white"/></mask><g mask="url(#mask5)"><path fill-rule="evenodd" clip-rule="evenodd" d="M71.0728 44.2791H83.1779V32.1978H71.0728V44.2791Z" fill="#FF6246"/></g><path d="M70.4861 9.46069C67.937 10.7873 66.5263 12.839 66.2529 15.6157" stroke="#FF9D9D" stroke-width="5.12" stroke-linecap="round" stroke-linejoin="round"/><mask id="mask6" mask-type="alpha" maskUnits="userSpaceOnUse" x="28" y="51" width="28" height="47"><path d="M41.9988 51.1602C49.5663 51.1602 55.7012 57.285 55.7012 64.8397V92.0013C55.7012 95.3138 53.0104 97.999 49.6916 97.999H34.3051C30.9862 97.999 28.2964 95.3138 28.2964 92.0013V64.8397C28.2964 57.285 34.4312 51.1602 41.9988 51.1602Z" fill="white"/></mask><g mask="url(#mask6)"><path fill-rule="evenodd" clip-rule="evenodd" d="M25.8047 100.487H58.1914V48.6743H25.8047V100.487Z" fill="#D2E4E8"/></g><mask id="mask7" mask-type="alpha" maskUnits="userSpaceOnUse" x="30" y="57" width="24" height="39"><path d="M51.3664 57.8518C52.8818 59.8684 53.6992 62.3236 53.6951 64.8461V90.6609C53.6945 91.3618 53.5559 92.0556 53.2871 92.7029C53.0184 93.3501 52.6248 93.9381 52.1288 94.4332C51.6328 94.9284 51.0442 95.3209 50.3965 95.5886C49.7488 95.8562 49.0547 95.9937 48.3539 95.9931H35.6425C34.9417 95.9937 34.2476 95.8562 33.5999 95.5886C32.9522 95.3209 32.3636 94.9284 31.8676 94.4332C31.3716 93.9381 30.978 93.3501 30.7093 92.7029C30.4405 92.0556 30.3019 91.3618 30.3013 90.6609V64.8452C30.2974 62.323 31.1148 59.8682 32.63 57.8518H51.3664Z" fill="white"/></mask><g mask="url(#mask7)"><path fill-rule="evenodd" clip-rule="evenodd" d="M27.8096 98.48H56.1863V55.365H27.8096V98.48Z" fill="#905331"/></g><mask id="mask8" mask-type="alpha" maskUnits="userSpaceOnUse" x="28" y="65" width="28" height="21"><path d="M28.2964 65.2119H55.7012V85.9552H28.2964V65.2119Z" fill="white"/></mask><g mask="url(#mask8)"><path fill-rule="evenodd" clip-rule="evenodd" d="M25.8047 88.4421H58.1914V62.7251H25.8047V88.4421Z" fill="#47D7FF"/></g><mask id="mask9" mask-type="alpha" maskUnits="userSpaceOnUse" x="31" y="65" width="12" height="21"><path d="M33.8709 65.2119H40.7637C44.366 70.0348 40.4263 73.5091 38.0026 77.2073C36.4967 79.504 37.4238 82.4206 40.7838 85.9552H32.9118C31.3822 81.9571 31.5349 78.9417 33.369 76.9075C36.3523 73.6005 38.531 70.6355 33.8709 65.2119Z" fill="white"/></mask><g mask="url(#mask9)"><path fill-rule="evenodd" clip-rule="evenodd" d="M29.377 91.109H46.1331V60.0498H29.377V91.109Z" fill="white"/></g><mask id="mask10" mask-type="alpha" maskUnits="userSpaceOnUse" x="36" y="43" width="12" height="12"><path d="M38.9881 43.1311H45.0078C46.1141 43.1311 47.011 44.0262 47.011 45.1306V52.5062C47.011 53.6106 46.115 54.5057 45.0087 54.5057H38.9881C37.8818 54.5057 36.9858 53.6106 36.9858 52.5062V45.1306C36.9858 44.0262 37.8818 43.1311 38.9881 43.1311Z" fill="white"/></mask><g mask="url(#mask10)"><path fill-rule="evenodd" clip-rule="evenodd" d="M34.4937 56.9935H49.5026V40.6433H34.4937V56.9935Z" fill="#D2E4E8"/></g><mask id="mask11" mask-type="alpha" maskUnits="userSpaceOnUse" x="36" y="41" width="12" height="7"><path d="M38.9881 41.7925H45.0078C46.1141 41.7925 47.011 42.6885 47.011 43.792V47.8149H36.9858V43.792C36.9858 42.6876 37.8818 41.7925 38.9881 41.7925Z" fill="white"/></mask><g mask="url(#mask11)"><path fill-rule="evenodd" clip-rule="evenodd" d="M34.4937 50.3018H49.5026V39.3057H34.4937V50.3018Z" fill="#47D7FF"/></g><mask id="mask12" mask-type="alpha" maskUnits="userSpaceOnUse" x="35" y="47" width="14" height="3"><path d="M36.9837 47.1465H47.0125C47.7494 47.1465 48.3474 47.7426 48.3474 48.4795V48.4896C48.3469 48.8433 48.206 49.1823 47.9558 49.4323C47.7055 49.6822 47.3662 49.8226 47.0125 49.8226H36.9828C36.6291 49.8226 36.2898 49.6822 36.0396 49.4323C35.7893 49.1823 35.6484 48.8433 35.6479 48.4896V48.4795C35.6484 48.1258 35.7893 47.7867 36.0396 47.5368C36.2898 47.2869 36.6291 47.1465 36.9828 47.1465H36.9837Z" fill="white"/></mask><g mask="url(#mask12)"><path fill-rule="evenodd" clip-rule="evenodd" d="M33.1562 52.3097H50.8385V44.6589H33.1562V52.3097Z" fill="#D2E4E8"/></g><path d="M38.1211 56.1111C36.2615 57.008 34.8736 58.6144 33.9565 60.9312" stroke="white" stroke-width="4.288" stroke-linecap="round" stroke-linejoin="round"/><mask id="mask13" mask-type="alpha" maskUnits="userSpaceOnUse" x="6" y="29" width="9" height="10"><path d="M12.4463 30.076L14.327 31.708C14.475 31.8364 14.5961 31.9928 14.6836 32.1682C14.7711 32.3436 14.8231 32.5345 14.8367 32.73C14.8502 32.9255 14.8251 33.1217 14.7628 33.3075C14.7004 33.4933 14.6021 33.6649 14.4733 33.8127L10.8792 37.9425C10.6187 38.2412 10.2503 38.4244 9.85484 38.4518C9.45941 38.4792 9.06924 38.3487 8.76996 38.0888L6.88927 36.4586C6.74123 36.3302 6.61997 36.1738 6.53243 35.9985C6.44489 35.8232 6.39279 35.6323 6.37912 35.4368C6.36545 35.2413 6.39047 35.045 6.45275 34.8592C6.51503 34.6734 6.61335 34.5017 6.74207 34.3539L10.338 30.2232C10.5983 29.9246 10.9665 29.7414 11.3617 29.7138C11.7569 29.6862 12.1469 29.8165 12.4463 30.076Z" fill="white"/></mask><g mask="url(#mask13)"><path fill-rule="evenodd" clip-rule="evenodd" d="M11.0722 25.5886L18.9698 32.4412L10.1433 42.5779L2.24658 35.7253L11.0722 25.5886Z" fill="#FF6767"/></g><mask id="mask14" mask-type="alpha" maskUnits="userSpaceOnUse" x="50" y="69" width="27" height="30"><path d="M53.154 69.1506H74.1917C74.5525 69.1506 74.9091 69.229 75.2366 69.3804C75.5642 69.5318 75.8549 69.7526 76.0887 70.0275C76.3224 70.3024 76.4936 70.6248 76.5904 70.9724C76.6872 71.32 76.7073 71.6845 76.6493 72.0407L72.7197 95.9164C72.6236 96.4988 72.3238 97.0281 71.8737 97.4099C71.4235 97.7917 70.8523 98.0012 70.2621 98.0009H57.0826C56.4922 98.0014 55.9208 97.7921 55.4705 97.4102C55.0202 97.0284 54.7202 96.4989 54.6241 95.9164L50.6945 72.0407C50.636 71.6843 50.6557 71.3195 50.7525 70.9715C50.8492 70.6235 51.0205 70.3008 51.2546 70.0258C51.4886 69.7507 51.7798 69.53 52.1078 69.3789C52.4358 69.2277 52.7928 69.1498 53.154 69.1506Z" fill="white"/></mask><g mask="url(#mask14)"><path fill-rule="evenodd" clip-rule="evenodd" d="M48.1699 100.488H79.1733V66.6638H48.1708L48.1699 100.488Z" fill="#FF4B4B"/></g><mask id="mask15" mask-type="alpha" maskUnits="userSpaceOnUse" x="49" y="69" width="30" height="3"><path d="M50.4683 69.1506H76.8765C77.0438 69.1442 77.2107 69.1716 77.3672 69.2312C77.5236 69.2908 77.6664 69.3813 77.7871 69.4974C77.9077 69.6135 78.0037 69.7528 78.0692 69.9068C78.1348 70.0609 78.1686 70.2266 78.1686 70.394C78.1686 70.5614 78.1348 70.7271 78.0692 70.8812C78.0037 71.0352 77.9077 71.1745 77.7871 71.2906C77.6664 71.4067 77.5236 71.4972 77.3672 71.5568C77.2107 71.6164 77.0438 71.6438 76.8765 71.6374H50.4683C50.301 71.6438 50.1341 71.6164 49.9777 71.5568C49.8212 71.4972 49.6784 71.4067 49.5578 71.2906C49.4371 71.1745 49.3412 71.0352 49.2756 70.8812C49.2101 70.7271 49.1763 70.5614 49.1763 70.394C49.1763 70.2266 49.2101 70.0609 49.2756 69.9068C49.3412 69.7528 49.4371 69.6135 49.5578 69.4974C49.6784 69.3813 49.8212 69.2908 49.9777 69.2312C50.1341 69.1716 50.301 69.1442 50.4683 69.1506Z" fill="white"/></mask><g mask="url(#mask15)"><path fill-rule="evenodd" clip-rule="evenodd" d="M46.7314 74.1244H80.613V66.6638H46.7314V74.1244Z" fill="#BCD2D7"/></g><mask id="mask16" mask-type="alpha" maskUnits="userSpaceOnUse" x="51" y="79" width="26" height="5"><path d="M52.5315 79.5955H74.8126C75.0242 79.5952 75.233 79.644 75.4225 79.7381C75.612 79.8322 75.777 79.9691 75.9047 80.1378C76.0323 80.3066 76.119 80.5026 76.158 80.7106C76.1969 80.9186 76.1871 81.1328 76.1292 81.3363L75.9921 81.8144C75.8876 82.1784 75.6675 82.4985 75.3649 82.7263C75.0624 82.9541 74.694 83.0773 74.3153 83.0771H53.0298C52.2508 83.0771 51.5669 82.5623 51.353 81.8153L51.2158 81.3363C51.1576 81.1328 51.1474 80.9186 51.1862 80.7105C51.2249 80.5025 51.3115 80.3063 51.4391 80.1374C51.5667 79.9686 51.7318 79.8318 51.9214 79.7377C52.111 79.6436 52.3199 79.5949 52.5315 79.5955Z" fill="white"/></mask><g mask="url(#mask16)"><path fill-rule="evenodd" clip-rule="evenodd" d="M48.6714 85.564H78.6728V77.1086H48.6714V85.564Z" fill="#EE4040"/></g><mask id="mask17" mask-type="alpha" maskUnits="userSpaceOnUse" x="52" y="85" width="24" height="5"><path d="M53.5281 85.5649H73.817C74.0285 85.5648 74.2371 85.6137 74.4265 85.7079C74.6159 85.8021 74.7809 85.9389 74.9084 86.1077C75.0359 86.2764 75.1225 86.4724 75.1615 86.6803C75.2004 86.8882 75.1905 87.1023 75.1326 87.3057L74.9955 87.7839C74.891 88.1479 74.6709 88.468 74.3684 88.6958C74.0659 88.9236 73.6974 89.0467 73.3187 89.0465H54.0264C53.2474 89.0465 52.5635 88.5318 52.3496 87.7848L52.2124 87.3057C52.1542 87.1023 52.144 86.8881 52.1827 86.68C52.2215 86.472 52.3081 86.2758 52.4357 86.1069C52.5633 85.9381 52.7284 85.8012 52.918 85.7072C53.1076 85.6131 53.3164 85.5644 53.5281 85.5649Z" fill="white"/></mask><g mask="url(#mask17)"><path fill-rule="evenodd" clip-rule="evenodd" d="M49.668 91.5334H77.6762V83.0781H49.668V91.5334Z" fill="#EE4040"/></g><mask id="mask18" mask-type="alpha" maskUnits="userSpaceOnUse" x="3" y="55" width="9" height="10"><path d="M5.3944 55.7043C5.69369 55.4444 6.08385 55.3138 6.47928 55.3412C6.87471 55.3687 7.24311 55.5518 7.50366 55.8505L11.0995 59.9804C11.2284 60.1282 11.3267 60.3 11.389 60.486C11.4513 60.6719 11.4763 60.8683 11.4625 61.0639C11.4488 61.2595 11.3965 61.4505 11.3088 61.6259C11.2211 61.8013 11.0997 61.9576 10.9514 62.086L9.07166 63.7161C8.77242 63.9758 8.38246 64.1061 7.98726 64.0787C7.59205 64.0513 7.22383 63.8683 6.96332 63.5699L3.36743 59.44C3.23851 59.2923 3.14001 59.1206 3.07757 58.9347C3.01514 58.7488 2.98999 58.5525 3.00358 58.3569C3.01717 58.1613 3.06923 57.9703 3.15677 57.7948C3.24431 57.6194 3.36561 57.4629 3.51372 57.3344L5.39532 55.7043H5.3944Z" fill="white"/></mask><g mask="url(#mask18)"><path fill-rule="evenodd" clip-rule="evenodd" d="M6.76827 51.2161L-1.12842 58.0696L7.69718 68.2053L15.5948 61.3518L6.76827 51.2161Z" fill="#FFDF28"/></g><mask id="mask19" mask-type="alpha" maskUnits="userSpaceOnUse" x="39" y="4" width="9" height="10"><path d="M41.7674 4.96867C42.0667 4.70877 42.4569 4.57822 42.8523 4.60564C43.2478 4.63307 43.6162 4.81623 43.8767 5.11495L47.4726 9.24478C47.6015 9.39257 47.6999 9.56434 47.7623 9.75024C47.8246 9.93614 47.8497 10.1325 47.836 10.3281C47.8223 10.5237 47.7702 10.7147 47.6826 10.8901C47.5949 11.0656 47.4736 11.222 47.3254 11.3504L45.4447 12.9806C45.1455 13.2402 44.7555 13.3705 44.3603 13.3431C43.9651 13.3157 43.5969 13.1327 43.3364 12.8343L39.7405 8.70444C39.6116 8.5567 39.5131 8.38498 39.4506 8.19911C39.3882 8.01324 39.363 7.81688 39.3766 7.62128C39.3902 7.42567 39.4423 7.23467 39.5298 7.05922C39.6174 6.88377 39.7387 6.72732 39.8868 6.59884L41.7684 4.96867H41.7674Z" fill="white"/></mask><g mask="url(#mask19)"><path fill-rule="evenodd" clip-rule="evenodd" d="M43.1418 0.480469L35.2451 7.33395L44.0707 17.4697L51.9683 10.6162L43.1418 0.480469Z" fill="#FF9600"/></g><mask id="mask20" mask-type="alpha" maskUnits="userSpaceOnUse" x="85" y="4" width="9" height="10"><path d="M91.2842 4.96876L93.1649 6.59893C93.313 6.72742 93.4343 6.88387 93.5219 7.05932C93.6094 7.23477 93.6614 7.42577 93.675 7.62137C93.6886 7.81698 93.6635 8.01334 93.601 8.19921C93.5386 8.38508 93.4401 8.5568 93.3112 8.70453L89.7171 12.8344C89.4567 13.1332 89.0884 13.3166 88.6929 13.3441C88.2975 13.3717 87.9073 13.2413 87.6079 12.9816L85.7281 11.3505C85.5799 11.2221 85.4586 11.0656 85.3709 10.8902C85.2833 10.7148 85.2312 10.5238 85.2175 10.3282C85.2038 10.1326 85.2289 9.93624 85.2912 9.75034C85.3536 9.56443 85.452 9.39266 85.5809 9.24487L89.175 5.11596C89.4354 4.81711 89.8037 4.63377 90.1992 4.60617C90.5946 4.57858 90.9848 4.70898 91.2842 4.96876Z" fill="white"/></mask><g mask="url(#mask20)"><path fill-rule="evenodd" clip-rule="evenodd" d="M89.9101 0.480469L97.8077 7.33395L88.9812 17.4697L81.0845 10.6162L89.9101 0.480469Z" fill="#FF9600"/></g><mask id="mask21" mask-type="alpha" maskUnits="userSpaceOnUse" x="88" y="38" width="9" height="10"><path d="M90.5966 38.7926C90.8958 38.5327 91.286 38.4022 91.6814 38.4296C92.0769 38.457 92.4453 38.6402 92.7058 38.9389L96.3017 43.0688C96.4306 43.2165 96.529 43.3883 96.5914 43.5742C96.6537 43.7601 96.6788 43.9565 96.6651 44.1521C96.6514 44.3477 96.5993 44.5387 96.5117 44.7141C96.424 44.8895 96.3027 45.0459 96.1545 45.1744L94.2738 46.8045C93.9745 47.0644 93.5844 47.195 93.1889 47.1676C92.7935 47.1401 92.4251 46.957 92.1646 46.6582L88.5696 42.5284C88.4407 42.3807 88.3422 42.209 88.2797 42.0231C88.2173 41.8372 88.1921 41.6409 88.2057 41.4453C88.2193 41.2496 88.2714 41.0586 88.3589 40.8832C88.4465 40.7077 88.5678 40.5513 88.7159 40.4228L90.5975 38.7926H90.5966Z" fill="white"/></mask><g mask="url(#mask21)"><path fill-rule="evenodd" clip-rule="evenodd" d="M91.9709 34.3044L84.0742 41.1579L92.8998 51.2937L100.797 44.4402L91.9709 34.3044Z" fill="#6DCE00"/></g><mask id="mask22" mask-type="alpha" maskUnits="userSpaceOnUse" x="77" y="48" width="10" height="10"><path d="M83.8106 48.741L85.6913 50.3711C85.8394 50.4996 85.9607 50.6561 86.0482 50.8315C86.1358 51.007 86.1878 51.198 86.2014 51.3936C86.215 51.5892 86.1898 51.7856 86.1274 51.9714C86.065 52.1573 85.9665 52.329 85.8376 52.4767L82.2435 56.6066C81.9831 56.9054 81.6147 57.0888 81.2193 57.1164C80.8239 57.144 80.4336 57.0136 80.1342 56.7538L78.2545 55.1227C78.1063 54.9943 77.9849 54.8379 77.8973 54.6624C77.8097 54.487 77.7575 54.296 77.7439 54.1004C77.7302 53.9048 77.7552 53.7085 77.8176 53.5226C77.88 53.3366 77.9784 53.1649 78.1073 53.0171L81.7013 48.8882C81.9617 48.5893 82.3301 48.406 82.7255 48.3784C83.121 48.3508 83.5112 48.4812 83.8106 48.741Z" fill="white"/></mask><g mask="url(#mask22)"><path fill-rule="evenodd" clip-rule="evenodd" d="M82.4364 44.2527L90.334 51.1062L81.5075 61.2419L73.6108 54.3885L82.4364 44.2527Z" fill="#CE82FF"/></g><mask id="mask23" mask-type="alpha" maskUnits="userSpaceOnUse" x="14" y="73" width="10" height="9"><path d="M21.0303 73.6113L22.9101 75.2415C23.0583 75.3699 23.1798 75.5262 23.2675 75.7016C23.3552 75.877 23.4074 76.068 23.4212 76.2636C23.4349 76.4592 23.4099 76.6556 23.3477 76.8415C23.2854 77.0274 23.187 77.1993 23.0582 77.3471L19.4623 81.4769C19.2019 81.7758 18.8336 81.9591 18.4381 81.9867C18.0427 82.0143 17.6525 81.8839 17.3531 81.6241L15.4742 79.9931C15.326 79.8646 15.2046 79.7082 15.117 79.5328C15.0294 79.3574 14.9773 79.1664 14.9636 78.9708C14.9499 78.7752 14.975 78.5788 15.0373 78.3929C15.0997 78.207 15.1981 78.0352 15.327 77.8875L18.9211 73.7585C19.1815 73.4597 19.5498 73.2763 19.9452 73.2488C20.3407 73.2212 20.7309 73.3516 21.0303 73.6113Z" fill="white"/></mask><g mask="url(#mask23)"><path fill-rule="evenodd" clip-rule="evenodd" d="M19.6562 69.123L27.5538 75.9765L18.7273 86.1123L10.8306 79.2588L19.6562 69.123Z" fill="#1CB0F6"/></g><path d="M78.7046 31.0953C83.7487 29.5218 87.0154 26.2076 88.5057 21.1543" stroke="#FF4848" stroke-width="5.12" stroke-linecap="round" stroke-linejoin="round"/></svg>