<svg width="100" height="100" viewBox="0 0 100 100" fill="none" xmlns="http://www.w3.org/2000/svg"><g clip-path="url(#clip0)"><mask id="mask0" mask-type="alpha" maskUnits="userSpaceOnUse" x="28" y="13" width="60" height="60"><path d="M62.6055 13.1796C72.2833 14.1196 80.7629 20.0571 84.9563 28.8297C89.1214 37.5433 88.1934 47.8361 82.537 55.6642L76.898 63.4681C71.7931 70.533 62.9222 73.8084 54.451 71.7564L44.9555 69.4563C42.0554 68.7538 39.5269 66.9834 37.8749 64.4984L32.4658 56.3623C27.6467 49.1134 27.7247 39.6613 32.663 32.493L38.1233 24.5669C43.6086 16.6045 52.9818 12.2447 62.6055 13.1796Z" fill="white"/></mask><g mask="url(#mask0)"><path d="M62.6055 13.1796C72.2833 14.1196 80.7629 20.0571 84.9563 28.8297C89.1214 37.5433 88.1934 47.8361 82.537 55.6642L76.898 63.4681C71.7931 70.533 62.9222 73.8084 54.451 71.7564L44.9555 69.4563C42.0554 68.7538 39.5269 66.9834 37.8749 64.4984L32.4658 56.3623C27.6467 49.1134 27.7247 39.6613 32.663 32.493L38.1233 24.5669C43.6086 16.6045 52.9818 12.2447 62.6055 13.1796Z" fill="#FFCE8E"/><path d="M47.3691 -11.9572L113.072 34.0482C113.876 34.6114 114.071 35.7201 113.508 36.5245L80.5394 83.6087C79.9762 84.4131 78.8675 84.6086 78.0631 84.0454L12.3607 38.04C11.5563 37.4767 11.3608 36.3681 11.924 35.5637L44.8928 -11.5206C45.456 -12.325 46.5647 -12.5205 47.3691 -11.9572Z" fill="#F34848"/></g><mask id="mask1" mask-type="alpha" maskUnits="userSpaceOnUse" x="22" y="58" width="28" height="33"><path d="M41.2324 58.2563L49.4469 64.0082L34.3443 89.4403C33.8429 90.2846 32.752 90.5627 31.9077 90.0613C31.8694 90.0386 31.8321 90.0144 31.7957 89.9889L22.8555 83.729C22.0511 83.1657 21.8556 82.057 22.4189 81.2527C22.4444 81.2162 22.4712 81.1808 22.4994 81.1464L41.2324 58.2563Z" fill="white"/></mask><g mask="url(#mask1)"><path d="M41.2324 58.2563L49.4469 64.0082L34.3443 89.4403C33.8429 90.2846 32.752 90.5627 31.9077 90.0613C31.8694 90.0386 31.8321 90.0144 31.7957 89.9889L22.8555 83.729C22.0511 83.1657 21.8556 82.057 22.4189 81.2527C22.4444 81.2162 22.4712 81.1808 22.4994 81.1464L41.2324 58.2563Z" fill="#F0B86F"/><path d="M48.2752 56.6772L48.7492 57.0091C49.2855 57.3846 49.4158 58.1238 49.0403 58.66L27.2878 89.7259C26.9123 90.2622 26.1732 90.3925 25.6369 90.017L25.1628 89.6851C24.6266 89.3096 24.4962 88.5704 24.8717 88.0342L46.6243 56.9683C46.9998 56.432 47.7389 56.3017 48.2752 56.6772Z" fill="#FFCE8E"/></g><mask id="mask2" mask-type="alpha" maskUnits="userSpaceOnUse" x="9" y="10" width="18" height="18"><path d="M17.9441 27.9857C22.8135 27.9857 26.7609 24.0383 26.7609 19.169C26.7609 14.2997 22.8135 10.3523 17.9441 10.3523C13.0748 10.3523 9.12744 14.2997 9.12744 19.169C9.12744 24.0383 13.0748 27.9857 17.9441 27.9857Z" fill="white"/></mask><g mask="url(#mask2)"><path d="M17.9441 27.9857C22.8135 27.9857 26.7609 24.0383 26.7609 19.169C26.7609 14.2997 22.8135 10.3523 17.9441 10.3523C13.0748 10.3523 9.12744 14.2997 9.12744 19.169C9.12744 24.0383 13.0748 27.9857 17.9441 27.9857Z" fill="#FFA100"/><path d="M15.8283 19.5216C17.5813 19.5216 19.0023 18.1006 19.0023 16.3476C19.0023 14.5946 17.5813 13.1736 15.8283 13.1736C14.0754 13.1736 12.6543 14.5946 12.6543 16.3476C12.6543 18.1006 14.0754 19.5216 15.8283 19.5216Z" fill="#FFC156"/></g></g><defs><clipPath id="clip0"><rect width="100" height="100" fill="white"/></clipPath></defs></svg>