<svg width="100" height="100" viewBox="0 0 100 100" fill="none" xmlns="http://www.w3.org/2000/svg"><path fill-rule="evenodd" clip-rule="evenodd" d="M50.4655 4C52.0461 4 58.472 13.5366 58.472 19.4528C58.472 25.3691 51.8563 35.1431 50.4655 35.1431C49.0748 35.1431 42.459 25.3691 42.459 19.4528C42.459 13.5366 48.8849 4 50.4655 4Z" fill="#78C800"/><path fill-rule="evenodd" clip-rule="evenodd" d="M36.3798 11.7302C37.6401 10.8472 48.3084 15.1853 51.7488 20.1042C55.1891 25.0236 55.5982 36.8487 54.4896 37.6257C53.3809 38.4028 42.4231 33.9735 38.9828 29.0541C35.5424 24.1352 35.1196 12.6137 36.3798 11.7302Z" fill="#58A700"/><path fill-rule="evenodd" clip-rule="evenodd" d="M65.024 11.7302C63.7638 10.8472 53.0954 15.1853 49.6551 20.1042C46.2148 25.0236 45.8056 36.8487 46.9143 37.6257C48.023 38.4028 58.9808 33.9735 62.4211 29.0541C65.8614 24.1352 66.2843 12.6137 65.024 11.7302Z" fill="#58A700"/><path fill-rule="evenodd" clip-rule="evenodd" d="M29.4075 26.097C30.1992 24.9653 40.1872 25.1105 44.3869 28.0549C48.5861 30.9992 52.2124 40.6006 51.5158 41.5964C50.8197 42.5923 40.5683 42.4647 36.3686 39.5204C32.1689 36.576 28.6162 27.2287 29.4075 26.097Z" fill="#78C800"/><path fill-rule="evenodd" clip-rule="evenodd" d="M71.2674 26.097C70.4761 24.9653 60.4886 25.1105 56.2884 28.0549C52.0892 30.9992 48.4629 40.6006 49.1595 41.5964C49.8556 42.5923 60.107 42.4647 64.3067 39.5204C68.5064 36.576 72.0591 27.2287 71.2678 26.097H71.2674Z" fill="#78C800"/><mask id="mask0" mask-type="alpha" maskUnits="userSpaceOnUse" x="29" y="40" width="42" height="48"><path d="M49.701 40.0669C60.9732 40.0669 70.1115 49.2047 70.1115 60.4769V74.8539C70.1115 82.08 64.2532 87.9373 57.0271 87.9373H42.3749C35.1489 87.9378 29.291 82.0804 29.291 74.8544V60.4769C29.291 49.2047 38.4288 40.0669 49.701 40.0669Z" fill="white"/></mask><g mask="url(#mask0)"><path d="M49.701 40.0669C60.9732 40.0669 70.1115 49.2047 70.1115 60.4769V74.8539C70.1115 82.08 64.2532 87.9373 57.0271 87.9373H42.3749C35.1489 87.9378 29.291 82.0804 29.291 74.8544V60.4769C29.291 49.2047 38.4288 40.0669 49.701 40.0669Z" fill="#D78E30"/><path fill-rule="evenodd" clip-rule="evenodd" d="M54.27 36.3283L58.0336 40.0958C60.2019 42.2671 60.2019 45.7844 58.0336 47.9552L54.3186 51.6747C52.1483 53.8479 48.6275 53.8498 46.4548 51.6796L46.4499 51.6747L42.6863 47.9071C40.518 45.7359 40.518 42.2185 42.6863 40.0477L46.4013 36.3283C48.5716 34.1551 52.0919 34.1531 54.2651 36.3234L54.27 36.3283Z" fill="#E5A259" stroke="#CD7900" stroke-width="3.27109"/><path fill-rule="evenodd" clip-rule="evenodd" d="M74.0214 36.3283L77.785 40.0958C79.9533 42.2671 79.9533 45.7844 77.785 47.9552L74.07 51.6747C71.8997 53.8479 68.3789 53.8498 66.2062 51.6796L66.2013 51.6747L62.4377 47.9071C60.2694 45.7359 60.2694 42.2185 62.4377 40.0478L66.1527 36.3283C68.323 34.1551 71.8438 34.1531 74.0165 36.3234L74.0214 36.3283ZM34.5181 35.0165L38.2812 38.7845C40.4495 40.9558 40.4495 44.4727 38.2812 46.6434L34.5666 50.3634C32.3964 52.5366 28.8756 52.5385 26.7029 50.3683L26.698 50.3634L22.9343 46.5953C20.766 44.4241 20.766 40.9072 22.9343 38.7365L26.6494 35.0165C28.8197 32.8433 32.34 32.8413 34.5132 35.0116L34.5181 35.0165Z" fill="#E8AE63" stroke="#D78E30" stroke-width="3.27109"/><path fill-rule="evenodd" clip-rule="evenodd" d="M44.3945 46.8205L48.1577 50.588C50.326 52.7593 50.326 56.2766 48.1577 58.4474L44.4426 62.1668C42.2723 64.34 38.752 64.342 36.5788 62.1717L36.5739 62.1668L32.8108 58.3993C30.6425 56.228 30.6425 52.7107 32.8108 50.5399L36.5254 46.8205C38.6956 44.6473 42.2164 44.6453 44.3891 46.8156L44.394 46.8205H44.3945Z" fill="#E5A259" stroke="#CD7900" stroke-width="3.27109"/><path fill-rule="evenodd" clip-rule="evenodd" d="M63.4878 46.8205L67.2509 50.588C69.4192 52.7593 69.4192 56.2766 67.2509 58.4474L63.5359 62.1668C61.3656 64.34 57.8453 64.342 55.6721 62.1717L55.6672 62.1668L51.9041 58.3993C49.7358 56.228 49.7358 52.7107 51.9041 50.5399L55.6186 46.8205C57.7889 44.6473 61.3097 44.6453 63.4824 46.8156L63.4873 46.8205H63.4878Z" fill="#E5A259" stroke="#CD7900" stroke-width="3.27109"/><path fill-rule="evenodd" clip-rule="evenodd" d="M54.2699 56.6569L58.0335 60.4244C60.2018 62.5962 60.2018 66.113 58.0335 68.2843L54.3184 72.0038C52.1482 74.1765 48.6274 74.1784 46.4547 72.0087L46.4498 72.0038L42.6861 68.2357C40.5178 66.0645 40.5178 62.5476 42.6861 60.3764L46.4012 56.6569C48.5714 54.4837 52.0918 54.4817 54.265 56.652L54.2699 56.6569ZM74.0215 56.6569L77.7851 60.4244C79.9534 62.5962 79.9534 66.113 77.7851 68.2843L74.0701 72.0038C71.8998 74.1765 68.379 74.1784 66.2063 72.0087L66.2014 72.0038L62.4378 68.2357C60.2695 66.0645 60.2695 62.5476 62.4378 60.3764L66.1528 56.6569C68.3231 54.4837 71.8439 54.4817 74.0166 56.652L74.0215 56.6569ZM33.8599 56.6569L37.623 60.4244C39.7913 62.5962 39.7913 66.113 37.623 68.2843L33.9084 72.0038C31.7382 74.1765 28.2174 74.1784 26.0447 72.0087L26.0398 72.0038L22.2761 68.2357C20.1078 66.0645 20.1078 62.5476 22.2761 60.3764L25.9907 56.6569C28.161 54.4837 31.6822 54.4817 33.855 56.652L33.8599 56.6569Z" fill="#E5A259" stroke="#CD7900" stroke-width="3.27109"/><path fill-rule="evenodd" clip-rule="evenodd" d="M44.3945 67.1491L48.1577 70.9166C50.326 73.0884 50.326 76.6052 48.1577 78.7765L44.4426 82.4959C42.2723 84.6687 38.752 84.6706 36.5788 82.5009L36.5739 82.4959L32.8108 78.7279C30.6425 76.5567 30.6425 73.0398 32.8108 70.8685L36.5254 67.1491C38.6956 64.9759 42.2164 64.9739 44.3891 67.1442L44.394 67.1491H44.3945Z" fill="#E5A259" stroke="#CD7900" stroke-width="3.27109"/><path fill-rule="evenodd" clip-rule="evenodd" d="M63.4875 67.1491L67.2506 70.9166C69.4189 73.0884 69.4189 76.6052 67.2506 78.7765L63.5355 82.4959C61.3653 84.6687 57.845 84.6706 55.6718 82.5009L55.6669 82.4959L51.9037 78.7279C49.7354 76.5567 49.7354 73.0398 51.9037 70.8685L55.6183 67.1491C57.7886 64.9759 61.3094 64.9739 63.4821 67.1442L63.487 67.1491H63.4875ZM34.5181 77.6413L38.2812 81.4093C40.4495 83.5806 40.4495 87.0975 38.2812 89.2682L34.5666 92.9882C32.3964 95.1609 28.8756 95.1629 26.7029 92.9931L26.698 92.9882L22.9343 89.2201C20.766 87.0489 20.766 83.532 22.9343 81.3608L26.6494 77.6413C28.8197 75.4681 32.34 75.4661 34.5132 77.6364L34.5181 77.6413Z" fill="#E5A259" stroke="#CD7900" stroke-width="3.27109"/><path fill-rule="evenodd" clip-rule="evenodd" d="M54.27 77.6413L58.0336 81.4093C60.2019 83.5805 60.2019 87.0974 58.0336 89.2682L54.3186 92.9881C52.1483 95.1608 48.6275 95.1628 46.4548 92.993L46.4499 92.9881L42.6863 89.2201C40.518 87.0488 40.518 83.532 42.6863 81.3607L46.4013 77.6413C48.5716 75.4681 52.0919 75.4661 54.2651 77.6364L54.27 77.6413Z" fill="#E5A259" stroke="#CD7900" stroke-width="3.27109"/><path fill-rule="evenodd" clip-rule="evenodd" d="M73.3638 77.6413L77.1264 81.4093C79.2947 83.5805 79.2947 87.0974 77.1264 89.2682L73.4119 92.9881C71.2416 95.1608 67.7208 95.1628 65.5481 92.993L65.5432 92.9881L61.7795 89.2201C59.6112 87.0488 59.6112 83.532 61.7795 81.3607L65.4946 77.6413C67.6649 75.4681 71.1852 75.4661 73.3584 77.6364L73.3633 77.6413H73.3638Z" fill="#E5A259" stroke="#CD7900" stroke-width="3.27109"/></g><path fill-rule="evenodd" clip-rule="evenodd" d="M37.8441 48.5345C38.3562 49.1678 44.4127 48.5193 46.8783 46.5203C49.3439 44.5212 51.2738 38.5682 50.8235 38.0114C50.3731 37.4541 44.1562 38.1071 41.6906 40.1061C39.225 42.1052 37.3319 47.9012 37.8445 48.5345H37.8441Z" fill="#58A700"/><path fill-rule="evenodd" clip-rule="evenodd" d="M63.3329 48.5345C62.8208 49.1678 56.7642 48.5193 54.2991 46.5203C51.8335 44.5212 49.9037 38.5682 50.3535 38.0114C50.8043 37.4541 57.0213 38.1071 59.4869 40.1061C61.9525 42.1052 63.8451 47.9012 63.3329 48.5345Z" fill="#58A700"/><path fill-rule="evenodd" clip-rule="evenodd" d="M10.9606 51.423L9.10381 47.6888C8.97368 47.427 8.91254 47.1364 8.92619 46.8444C8.93983 46.5524 9.02781 46.2687 9.18178 46.0202C9.33575 45.7717 9.55062 45.5666 9.80602 45.4244C10.0614 45.2822 10.3489 45.2075 10.6412 45.2075H14.3548C14.6472 45.2075 14.9346 45.2822 15.1901 45.4244C15.4455 45.5666 15.6603 45.7717 15.8143 46.0202C15.9683 46.2687 16.0562 46.5524 16.0699 46.8444C16.0835 47.1364 16.0224 47.427 15.8923 47.6888L14.0355 51.4235C13.8932 51.7096 13.674 51.9503 13.4023 52.1186C13.1307 52.2869 12.8176 52.3761 12.498 52.3761C12.1785 52.3761 11.8653 52.2869 11.5937 52.1186C11.3221 51.9503 11.1029 51.7096 10.9606 51.4235V51.423ZM57.9053 85.4035L61.6145 83.5389C61.816 83.4377 62.0354 83.3774 62.2603 83.3615C62.4852 83.3455 62.711 83.3741 62.9247 83.4458C63.1385 83.5174 63.3359 83.6306 63.5057 83.7788C63.6756 83.9271 63.8144 84.1074 63.9143 84.3096C64.0334 84.5492 64.0953 84.8131 64.0953 85.0807V88.8105C64.0965 89.2663 63.9165 89.7039 63.5951 90.0271C63.2737 90.3503 62.837 90.5326 62.3812 90.5339C62.115 90.534 61.8524 90.4718 61.6145 90.3523L57.9053 88.4872C57.6203 88.3429 57.3809 88.1224 57.2136 87.8502C57.0464 87.578 56.9578 87.2648 56.9578 86.9454C56.9578 86.6259 57.0464 86.3127 57.2136 86.0405C57.3809 85.7683 57.6203 85.5478 57.9053 85.4035Z" fill="#D5725D"/><mask id="mask1" mask-type="alpha" maskUnits="userSpaceOnUse" x="4" y="51" width="55" height="45"><path d="M48.4211 95.3993C53.7227 95.3993 58.0205 91.0774 58.0205 85.7469C58.0205 80.4164 53.7227 76.095 48.4211 76.095C36.7918 76.095 26.5409 68.7571 22.6198 57.9539C20.8027 52.9471 15.2912 50.3687 10.3115 52.1966C5.33078 54.0244 2.76659 59.5654 4.58462 64.5731C11.2495 82.935 28.6626 95.3997 48.4211 95.3997V95.3993Z" fill="white"/></mask><g mask="url(#mask1)"><path d="M48.4211 95.3993C53.7227 95.3993 58.0205 91.0774 58.0205 85.7469C58.0205 80.4164 53.7227 76.095 48.4211 76.095C36.7918 76.095 26.5409 68.7571 22.6198 57.9539C20.8027 52.9471 15.2912 50.3687 10.3115 52.1966C5.33078 54.0244 2.76659 59.5654 4.58462 64.5731C11.2495 82.935 28.6626 95.3997 48.4211 95.3997V95.3993Z" fill="#D5725D"/><path d="M24.4976 51.0942V75.5691" stroke="#BF614D" stroke-width="3.77736" stroke-linecap="round" stroke-linejoin="round"/><path d="M34.2689 59.7121C34.2689 58.6653 33.4246 57.8161 32.3832 57.8161C31.3417 57.8161 30.4974 58.6648 30.4974 59.7121V84.1875C30.4974 85.2348 31.3417 86.0835 32.3832 86.0835C33.4246 86.0835 34.2689 85.2348 34.2689 84.1875V59.7121ZM43.5254 56.2654C43.5254 55.2181 42.6811 54.3689 41.6397 54.3689C40.5982 54.3689 39.7539 55.2176 39.7539 56.2649V80.7403C39.7539 81.7876 40.5982 82.6363 41.6397 82.6363C42.6811 82.6363 43.5254 81.7876 43.5254 80.7403V56.2654Z" fill="#BF614D"/></g><path fill-rule="evenodd" clip-rule="evenodd" d="M60.0695 54.5283H92.5082C93.657 54.5283 94.7588 54.9847 95.5711 55.797C96.3835 56.6094 96.8399 57.7112 96.8399 58.86V90.9136C96.8399 92.0624 96.3835 93.1642 95.5711 93.9766C94.7588 94.7889 93.657 95.2453 92.5082 95.2453H60.0695C58.9207 95.2453 57.8189 94.7889 57.0065 93.9766C56.1942 93.1642 55.7378 92.0624 55.7378 90.9136V58.86C55.7378 57.7112 56.1942 56.6094 57.0065 55.797C57.8189 54.9847 58.9207 54.5283 60.0695 54.5283Z" fill="#FFC800"/><mask id="mask2" mask-type="alpha" maskUnits="userSpaceOnUse" x="43" y="54" width="42" height="42"><path d="M43.5049 77.4726C44.0505 77.6866 44.6314 77.7961 45.2174 77.7954C47.7846 77.7954 49.8661 75.7335 49.8661 73.1904C49.8661 70.6468 47.7846 68.5855 45.2174 68.5855C44.6314 68.5846 44.0505 68.694 43.5049 68.9078V58.86C43.5049 57.7112 43.9613 56.6094 44.7736 55.797C45.586 54.9847 46.6877 54.5283 47.8366 54.5283H80.2757C81.4246 54.5283 82.5264 54.9847 83.3387 55.797C84.1511 56.6094 84.6074 57.7112 84.6074 58.86V90.9136C84.6074 92.0624 84.1511 93.1642 83.3387 93.9766C82.5264 94.7889 81.4246 95.2453 80.2757 95.2453H47.8366C46.6877 95.2453 45.586 94.7889 44.7736 93.9766C43.9613 93.1642 43.5049 92.0624 43.5049 90.9136V77.4726Z" fill="white"/></mask><g mask="url(#mask2)"><path d="M43.5049 77.4726C44.0505 77.6866 44.6314 77.7961 45.2174 77.7954C47.7846 77.7954 49.8661 75.7335 49.8661 73.1904C49.8661 70.6468 47.7846 68.5855 45.2174 68.5855C44.6314 68.5846 44.0505 68.694 43.5049 68.9078V58.86C43.5049 57.7112 43.9613 56.6094 44.7736 55.797C45.586 54.9847 46.6877 54.5283 47.8366 54.5283H80.2757C81.4246 54.5283 82.5264 54.9847 83.3387 55.797C84.1511 56.6094 84.6074 57.7112 84.6074 58.86V90.9136C84.6074 92.0624 84.1511 93.1642 83.3387 93.9766C82.5264 94.7889 81.4246 95.2453 80.2757 95.2453H47.8366C46.6877 95.2453 45.586 94.7889 44.7736 93.9766C43.9613 93.1642 43.5049 92.0624 43.5049 90.9136V77.4726Z" fill="#FFD900"/><mask id="mask3" mask-type="alpha" maskUnits="userSpaceOnUse" x="56" y="90" width="11" height="12"><path d="M61.6091 101.547C64.5817 101.547 66.9915 99.1595 66.9915 96.2148C66.9915 93.27 64.5817 90.8828 61.6091 90.8828C58.6364 90.8828 56.2266 93.27 56.2266 96.2148C56.2266 99.1595 58.6364 101.547 61.6091 101.547Z" fill="white"/></mask><g mask="url(#mask3)"><path d="M61.6091 101.547C64.5817 101.547 66.9915 99.1595 66.9915 96.2148C66.9915 93.27 64.5817 90.8828 61.6091 90.8828C58.6364 90.8828 56.2266 93.27 56.2266 96.2148C56.2266 99.1595 58.6364 101.547 61.6091 101.547Z" fill="#FFC800"/><path d="M67.0085 101.547C69.9811 101.547 72.391 99.1595 72.391 96.2148C72.391 93.27 69.9811 90.8828 67.0085 90.8828C64.0358 90.8828 61.626 93.27 61.626 96.2148C61.626 99.1595 64.0358 101.547 67.0085 101.547Z" fill="#E5A259"/></g></g><mask id="mask4" mask-type="alpha" maskUnits="userSpaceOnUse" x="63" y="61" width="14" height="14"><path d="M69.8663 74.039C73.4131 74.039 76.2883 71.1906 76.2883 67.6768C76.2883 64.1631 73.4131 61.3147 69.8663 61.3147C66.3196 61.3147 63.4443 64.1631 63.4443 67.6768C63.4443 71.1906 66.3196 74.039 69.8663 74.039Z" fill="white"/></mask><g mask="url(#mask4)"><path d="M69.8663 74.039C73.4131 74.039 76.2883 71.1906 76.2883 67.6768C76.2883 64.1631 73.4131 61.3147 69.8663 61.3147C66.3196 61.3147 63.4443 64.1631 63.4443 67.6768C63.4443 71.1906 66.3196 74.039 69.8663 74.039Z" fill="#FFC800"/><path d="M74.7726 74.039C78.3194 74.039 81.1946 71.1906 81.1946 67.6768C81.1946 64.1631 78.3194 61.3147 74.7726 61.3147C71.2258 61.3147 68.3506 64.1631 68.3506 67.6768C68.3506 71.1906 71.2258 74.039 74.7726 74.039Z" fill="white"/></g></svg>