<svg width="100" height="100" viewBox="0 0 100 100" fill="none" xmlns="http://www.w3.org/2000/svg"><g clip-path="url(#clip0)"><mask id="mask0" mask-type="alpha" maskUnits="userSpaceOnUse" x="79" y="20" width="11" height="71"><path fill-rule="evenodd" clip-rule="evenodd" d="M80.6641 20.2776H87.9595C88.5348 20.2776 89.001 20.7449 89.001 21.3213V89.1613C89.001 89.7377 88.5348 90.2049 87.9595 90.2049H80.6641C80.0889 90.2049 79.6226 89.7377 79.6226 89.1613V21.3213C79.6226 20.7449 80.0889 20.2776 80.6641 20.2776Z" fill="white"/></mask><g mask="url(#mask0)"><path fill-rule="evenodd" clip-rule="evenodd" d="M77.1074 92.7259H91.5177V17.7566H77.1074V92.7259Z" fill="#E5E5E5"/></g><mask id="mask1" mask-type="alpha" maskUnits="userSpaceOnUse" x="73" y="32" width="24" height="11"><path fill-rule="evenodd" clip-rule="evenodd" d="M74.1336 32.802H95.0122C95.5875 32.802 96.0538 33.2693 96.0538 33.8457C96.0538 33.918 96.0463 33.9901 96.0315 34.0608L94.3861 41.8885C94.2846 42.3714 93.8594 42.7171 93.3669 42.7171H75.7789C75.2864 42.7171 74.8612 42.3714 74.7597 41.8885L73.1144 34.0608C72.9958 33.4968 73.356 32.9432 73.9189 32.8244C73.9895 32.8095 74.0614 32.802 74.1336 32.802Z" fill="white"/></mask><g mask="url(#mask1)"><path fill-rule="evenodd" clip-rule="evenodd" d="M70.5767 45.2378H98.5704V30.2808H70.5767V45.2378Z" fill="#1CB0F6"/></g><mask id="mask2" mask-type="alpha" maskUnits="userSpaceOnUse" x="89" y="32" width="8" height="11"><path fill-rule="evenodd" clip-rule="evenodd" d="M90.9619 32.802H95.0119C95.5871 32.802 96.0535 33.2693 96.0535 33.8457C96.0535 33.918 96.046 33.9901 96.0311 34.0608L94.3857 41.8885C94.2843 42.3714 93.8591 42.7171 93.3666 42.7171H89.0386L90.9619 32.802V32.802Z" fill="white"/></mask><g mask="url(#mask2)"><path fill-rule="evenodd" clip-rule="evenodd" d="M89.7688 25.7317L101.896 28.0938L97.6759 49.8479L85.5488 47.4858L89.7688 25.7317Z" fill="#1899D6"/></g><mask id="mask3" mask-type="alpha" maskUnits="userSpaceOnUse" x="73" y="8" width="22" height="10"><path fill-rule="evenodd" clip-rule="evenodd" d="M74.9348 8.24243H93.4023C93.9775 8.24243 94.4439 8.70972 94.4439 9.28612C94.4439 9.35858 94.4363 9.43088 94.4214 9.50177L92.9914 16.2858C92.8897 16.7684 92.4646 17.1138 91.9723 17.1138H76.3647C75.8725 17.1138 75.4474 16.7684 75.3457 16.2858L73.9158 9.50177C73.7969 8.93782 74.1568 8.38406 74.7196 8.26497C74.7904 8.24999 74.8625 8.24243 74.9348 8.24243Z" fill="white"/></mask><g mask="url(#mask3)"><path fill-rule="evenodd" clip-rule="evenodd" d="M71.3779 19.6346H96.9604V5.72119H71.3779V19.6346Z" fill="#1CB0F6"/></g><mask id="mask4" mask-type="alpha" maskUnits="userSpaceOnUse" x="88" y="8" width="7" height="10"><path fill-rule="evenodd" clip-rule="evenodd" d="M89.8996 8.24243H93.4033C93.9785 8.24243 94.4448 8.70972 94.4448 9.28612C94.4448 9.35858 94.4373 9.43088 94.4224 9.50177L92.9924 16.2858C92.8907 16.7684 92.4656 17.1138 91.9733 17.1138H88.1787L89.8996 8.24243V8.24243Z" fill="white"/></mask><g mask="url(#mask4)"><path fill-rule="evenodd" clip-rule="evenodd" d="M88.3074 3.23193L100.434 5.594L96.2144 27.3482L84.0874 24.9861L88.3074 3.23193Z" fill="#1899D6"/></g><mask id="mask5" mask-type="alpha" maskUnits="userSpaceOnUse" x="69" y="18" width="30" height="14"><path fill-rule="evenodd" clip-rule="evenodd" d="M70.7678 18.7119H97.8974C98.4726 18.7119 98.9389 19.1792 98.9389 19.7556C98.9389 19.8281 98.9314 19.9004 98.9164 19.9713L96.7166 30.4082C96.6148 30.8909 96.1898 31.2362 95.6975 31.2362H72.9678C72.4755 31.2362 72.0504 30.8909 71.9487 30.4082L69.7488 19.9713C69.6299 19.4073 69.9898 18.8535 70.5526 18.7345C70.6234 18.7195 70.6955 18.7119 70.7678 18.7119Z" fill="white"/></mask><g mask="url(#mask5)"><path fill-rule="evenodd" clip-rule="evenodd" d="M67.2109 33.7572H101.456V16.1909H67.2109V33.7572Z" fill="#1CB0F6"/></g><mask id="mask6" mask-type="alpha" maskUnits="userSpaceOnUse" x="89" y="18" width="10" height="14"><path fill-rule="evenodd" clip-rule="evenodd" d="M91.6307 18.7119H97.8974C98.4105 18.7119 98.8368 19.0836 98.9231 19.5728L98.0287 24.1836L96.7166 30.4082C96.6149 30.8909 96.1898 31.2362 95.6976 31.2362H89.2012L91.6307 18.7119V18.7119Z" fill="white"/></mask><g mask="url(#mask6)"><path fill-rule="evenodd" clip-rule="evenodd" d="M89.9348 14.2351L102.062 16.5972L97.8419 38.3513L85.7148 35.9892L89.9348 14.2351Z" fill="#1899D6"/></g><mask id="mask7" mask-type="alpha" maskUnits="userSpaceOnUse" x="77" y="20" width="7" height="11"><path fill-rule="evenodd" clip-rule="evenodd" d="M77.618 20.7341H83.273C83.5606 20.7341 83.7938 20.9678 83.7938 21.256V29.6709C83.7938 29.9592 83.5606 30.1928 83.273 30.1928H78.7769C78.5167 30.1928 78.2965 30.0005 78.261 29.7423L77.1021 21.3273C77.0628 21.0418 77.2619 20.7784 77.5468 20.739C77.5704 20.7358 77.5942 20.7341 77.618 20.7341Z" fill="white"/></mask><g mask="url(#mask7)"><path fill-rule="evenodd" clip-rule="evenodd" d="M74.582 32.7138H86.3104V18.2131H74.582V32.7138Z" fill="#50D1FF"/></g><mask id="mask8" mask-type="alpha" maskUnits="userSpaceOnUse" x="2" y="62" width="86" height="29"><path fill-rule="evenodd" clip-rule="evenodd" d="M2.50391 90.3586L6.80993 82.0656L15.1106 73.1896L22.674 68.3517L33.7669 64.7008L46.5674 62.6277L55.199 63.9699L67.4896 68.3517L79.1473 76.4931L83.9635 85.1755L87.037 90.3586H2.50391Z" fill="white"/></mask><g mask="url(#mask8)"><path fill-rule="evenodd" clip-rule="evenodd" d="M-0.0112305 92.8796H89.5536V60.1067H-0.0112305V92.8796Z" fill="#1CB0F6"/></g><mask id="mask9" mask-type="alpha" maskUnits="userSpaceOnUse" x="1" y="62" width="48" height="29"><path fill-rule="evenodd" clip-rule="evenodd" d="M20.4006 70.5702L30.8307 65.0673L48.3755 62.5723L18.4542 90.3466H1.37598L11.4931 77.8129L20.4006 70.5702Z" fill="white"/></mask><g mask="url(#mask9)"><path fill-rule="evenodd" clip-rule="evenodd" d="M37.5407 48.1484L51.935 62.5721L11.0184 103.572L-3.37598 89.1485L37.5407 48.1484Z" fill="#50D1FF"/></g><mask id="mask10" mask-type="alpha" maskUnits="userSpaceOnUse" x="44" y="65" width="29" height="18"><path fill-rule="evenodd" clip-rule="evenodd" d="M72.0886 69.5792L56.9258 82.9003L44.1636 82.8973L61.563 65.4624L72.0886 69.5792Z" fill="white"/></mask><g mask="url(#mask10)"><path fill-rule="evenodd" clip-rule="evenodd" d="M64.772 58.6821L75.647 69.5793L51.481 93.7945L40.606 82.8974L64.772 58.6821Z" fill="#50D1FF"/></g><mask id="mask11" mask-type="alpha" maskUnits="userSpaceOnUse" x="16" y="71" width="4" height="20"><path fill-rule="evenodd" clip-rule="evenodd" d="M16.0898 71.1992H19.1089V90.3588H16.0898V71.1992Z" fill="white"/></mask><g mask="url(#mask11)"><path fill-rule="evenodd" clip-rule="evenodd" d="M13.5747 92.8797H21.6255V68.6782H13.5747V92.8797Z" fill="#1CB0F6"/></g><mask id="mask12" mask-type="alpha" maskUnits="userSpaceOnUse" x="45" y="63" width="4" height="28"><path fill-rule="evenodd" clip-rule="evenodd" d="M45.2363 63.0688H48.3625V90.2048H45.2363V63.0688Z" fill="white"/></mask><g mask="url(#mask12)"><path fill-rule="evenodd" clip-rule="evenodd" d="M42.7212 92.7258H50.8791V60.5479H42.7212V92.7258Z" fill="#1CB0F6"/></g><mask id="mask13" mask-type="alpha" maskUnits="userSpaceOnUse" x="30" y="65" width="4" height="26"><path fill-rule="evenodd" clip-rule="evenodd" d="M30.1265 65.1562H33.2526V90.2048H30.1265V65.1562Z" fill="white"/></mask><g mask="url(#mask13)"><path fill-rule="evenodd" clip-rule="evenodd" d="M27.6113 92.7258H35.7692V62.6353H27.6113V92.7258Z" fill="#1CB0F6"/></g><mask id="mask14" mask-type="alpha" maskUnits="userSpaceOnUse" x="60" y="65" width="4" height="26"><path fill-rule="evenodd" clip-rule="evenodd" d="M60.3462 65.0857H63.4724V90.2049H60.3462V65.0857Z" fill="white"/></mask><g mask="url(#mask14)"><path fill-rule="evenodd" clip-rule="evenodd" d="M57.8311 92.7259H65.989V62.5647H57.8311V92.7259Z" fill="#1CB0F6"/></g><mask id="mask15" mask-type="alpha" maskUnits="userSpaceOnUse" x="0" y="60" width="90" height="31"><path fill-rule="evenodd" clip-rule="evenodd" d="M85.865 90.331C78.7128 74.8059 63.1524 64.1127 45.2364 64.1127C26.9413 64.1127 11.2777 74.8059 4.09737 90.331L0.67627 90.331C8.06151 73.0255 25.1723 60.9817 45.2364 60.9817C64.9617 60.9817 81.9322 73.0567 89.2808 90.331H85.865V90.331Z" fill="white"/></mask><g mask="url(#mask15)"><path fill-rule="evenodd" clip-rule="evenodd" d="M-1.83887 92.852H91.7974V58.4607H-1.83887V92.852Z" fill="#E5E5E5"/></g><mask id="mask16" mask-type="alpha" maskUnits="userSpaceOnUse" x="14" y="72" width="4" height="19"><path fill-rule="evenodd" clip-rule="evenodd" d="M14.0752 72.7119H17.5974V90.3589H14.0752V72.7119Z" fill="white"/></mask><g mask="url(#mask16)"><path fill-rule="evenodd" clip-rule="evenodd" d="M11.5601 92.8798H20.114V70.1909H11.5601V92.8798Z" fill="#E5E5E5"/></g><mask id="mask17" mask-type="alpha" maskUnits="userSpaceOnUse" x="28" y="66" width="4" height="25"><path fill-rule="evenodd" clip-rule="evenodd" d="M28.1646 66.157H31.6868V90.3585H28.1646V66.157Z" fill="white"/></mask><g mask="url(#mask17)"><path fill-rule="evenodd" clip-rule="evenodd" d="M25.6494 92.8795H34.2034V63.636H25.6494V92.8795Z" fill="#E5E5E5"/></g><mask id="mask18" mask-type="alpha" maskUnits="userSpaceOnUse" x="58" y="64" width="4" height="27"><path fill-rule="evenodd" clip-rule="evenodd" d="M58.3545 64.6445H61.8767V90.3587H58.3545V64.6445Z" fill="white"/></mask><g mask="url(#mask18)"><path fill-rule="evenodd" clip-rule="evenodd" d="M55.8394 92.8799H64.3933V62.1238H55.8394V92.8799Z" fill="#E5E5E5"/></g><mask id="mask19" mask-type="alpha" maskUnits="userSpaceOnUse" x="73" y="74" width="4" height="17"><path fill-rule="evenodd" clip-rule="evenodd" d="M73.4512 74.2241H76.9734V90.3585H73.4512V74.2241Z" fill="white"/></mask><g mask="url(#mask19)"><path fill-rule="evenodd" clip-rule="evenodd" d="M70.936 92.8795H79.49V71.7031H70.936V92.8795Z" fill="#E5E5E5"/></g><mask id="mask20" mask-type="alpha" maskUnits="userSpaceOnUse" x="43" y="62" width="4" height="29"><path fill-rule="evenodd" clip-rule="evenodd" d="M43.2607 62.6277H46.783V90.3586H43.2607V62.6277Z" fill="white"/></mask><g mask="url(#mask20)"><path fill-rule="evenodd" clip-rule="evenodd" d="M40.7456 92.8796H49.2995V60.1067H40.7456V92.8796Z" fill="#E5E5E5"/></g><mask id="mask21" mask-type="alpha" maskUnits="userSpaceOnUse" x="12" y="15" width="91" height="84"><path fill-rule="evenodd" clip-rule="evenodd" d="M102.637 63.6819V82.1172L91.9457 98.0002L12.0347 43.9896L31.2551 15.436L102.637 63.6819Z" fill="white"/></mask><g mask="url(#mask21)"><path fill-rule="evenodd" clip-rule="evenodd" d="M60.0001 63L89.0001 76.5L92.6245 101.5L8.54199 44.6699L60.0001 63Z" fill="white" fill-opacity="0.5928"/></g><mask id="mask22" mask-type="alpha" maskUnits="userSpaceOnUse" x="40" y="41" width="34" height="14"><path fill-rule="evenodd" clip-rule="evenodd" d="M70.3557 42.1457L73.4714 44.1731C73.9539 44.4871 74.091 45.1335 73.7776 45.6169C73.7226 45.7018 73.6555 45.7783 73.5784 45.8439L63.7264 54.23L40.9023 47.8687L69.58 41.9984C69.8478 41.9436 70.1264 41.9965 70.3557 42.1457Z" fill="white"/></mask><g mask="url(#mask22)"><path fill-rule="evenodd" clip-rule="evenodd" d="M51.5084 26.875L77.8254 44.0003L63.7393 65.7351L37.4224 48.6098L51.5084 26.875Z" fill="#FF4B4B"/></g><mask id="mask23" mask-type="alpha" maskUnits="userSpaceOnUse" x="2" y="20" width="66" height="37"><path fill-rule="evenodd" clip-rule="evenodd" d="M9.03966 22.071C11.7336 20.5649 15.1499 20.5667 17.918 22.368L67.5088 54.6383C67.9671 54.9365 68.0975 55.5505 67.8 56.0096C67.6149 56.2951 67.2965 56.4654 66.9566 56.4607C56.9977 56.3211 47.0213 55.3377 37.0274 53.5102C34.4506 53.0391 31.9925 52.0603 29.7955 50.6306L8.55792 36.8107C7.16069 35.9015 6.11427 34.6546 5.45616 33.2466C5.16351 32.7578 4.91974 32.2371 4.73061 31.6915L2.61394 25.5856C1.96906 23.7253 2.95187 21.6938 4.80911 21.0482C5.78559 20.7087 6.86124 20.8111 7.75647 21.3288L9.03966 22.071Z" fill="white"/></mask><g mask="url(#mask23)"><path fill-rule="evenodd" clip-rule="evenodd" d="M6.72608 12.0801L71.8175 54.4371L59.7169 73.1083L-5.37451 30.7514L6.72608 12.0801Z" fill="#E5E5E5"/></g><mask id="mask24" mask-type="alpha" maskUnits="userSpaceOnUse" x="9" y="20" width="12" height="10"><path fill-rule="evenodd" clip-rule="evenodd" d="M9.04541 22.0672C10.2355 21.4032 11.5663 21.0334 12.9196 20.9827L19.2276 25.0875C19.3859 25.1905 19.5133 25.3346 19.5961 25.5045L20.8034 27.9796C21.0074 28.3978 20.8345 28.9025 20.4171 29.1069C20.1517 29.2369 19.8375 29.2177 19.5897 29.0565L9.46461 22.4678C9.29614 22.3582 9.15574 22.2215 9.04541 22.0672H9.04541Z" fill="white"/></mask><g mask="url(#mask24)"><path fill-rule="evenodd" clip-rule="evenodd" d="M9.11517 15.502L25.476 26.1485L21.0337 33.003L4.67285 22.3564L9.11517 15.502Z" fill="#1CB0F6"/></g><mask id="mask25" mask-type="alpha" maskUnits="userSpaceOnUse" x="13" y="22" width="5" height="5"><path fill-rule="evenodd" clip-rule="evenodd" d="M15.8214 22.248L17.1323 23.1011L15.1468 26.1647L13.8359 25.3117L15.8214 22.248Z" fill="white"/></mask><g mask="url(#mask25)"><path fill-rule="evenodd" clip-rule="evenodd" d="M15.0819 18.7607L20.6128 22.3599L15.8868 29.652L10.356 26.0529L15.0819 18.7607Z" fill="#E5E5E5"/></g><mask id="mask26" mask-type="alpha" maskUnits="userSpaceOnUse" x="31" y="35" width="6" height="6"><path fill-rule="evenodd" clip-rule="evenodd" d="M35.3961 35.5734L35.3976 35.5744C36.2418 36.1238 36.4818 37.2549 35.9335 38.1009L35.0826 39.4139C34.5343 40.2599 33.4054 40.5003 32.5612 39.9509L32.5597 39.95C31.7154 39.4006 31.4755 38.2694 32.0238 37.4234L32.8747 36.1105C33.423 35.2645 34.5518 35.0241 35.3961 35.5734Z" fill="white"/></mask><g mask="url(#mask26)"><path fill-rule="evenodd" clip-rule="evenodd" d="M33.1267 31.0913L40.4054 35.8278L34.8286 44.433L27.5498 39.6964L33.1267 31.0913Z" fill="#1CB0F6"/></g><mask id="mask27" mask-type="alpha" maskUnits="userSpaceOnUse" x="36" y="38" width="5" height="6"><path fill-rule="evenodd" clip-rule="evenodd" d="M39.7652 38.416L39.7667 38.4169C40.611 38.9663 40.8509 40.0975 40.3026 40.9434L39.4517 42.2565C38.9034 43.1024 37.7746 43.3429 36.9303 42.7935L36.9288 42.7925C36.0846 42.2432 35.8446 41.112 36.3929 40.266L37.2438 38.953C37.7921 38.107 38.921 37.8666 39.7652 38.416Z" fill="white"/></mask><g mask="url(#mask27)"><path fill-rule="evenodd" clip-rule="evenodd" d="M37.4958 33.9338L44.7746 38.6703L39.1977 47.2755L31.9189 42.5389L37.4958 33.9338Z" fill="#1CB0F6"/></g><mask id="mask28" mask-type="alpha" maskUnits="userSpaceOnUse" x="40" y="40" width="5" height="6"><path fill-rule="evenodd" clip-rule="evenodd" d="M44.1349 41.2587L44.1363 41.2597C44.9806 41.8091 45.2205 42.9402 44.6723 43.7862L43.8213 45.0992C43.2731 45.9452 42.1442 46.1857 41.2999 45.6363L41.2985 45.6353C40.4542 45.0859 40.2143 43.9548 40.7625 43.1088L41.6135 41.7958C42.1617 40.9498 43.2906 40.7094 44.1349 41.2587Z" fill="white"/></mask><g mask="url(#mask28)"><path fill-rule="evenodd" clip-rule="evenodd" d="M41.8654 36.7766L49.1442 41.5132L43.5673 50.1183L36.2886 45.3818L41.8654 36.7766Z" fill="#1CB0F6"/></g><mask id="mask29" mask-type="alpha" maskUnits="userSpaceOnUse" x="6" y="37" width="5" height="6"><path fill-rule="evenodd" clip-rule="evenodd" d="M8.58386 42.1389C7.44141 41.9984 6.62894 40.9568 6.76915 39.8126C6.90936 38.6684 7.94915 37.8548 9.0916 37.9953C10.234 38.1358 11.0465 39.1774 10.9063 40.3216C10.7661 41.4659 9.7263 42.2795 8.58386 42.1389Z" fill="white"/></mask><g mask="url(#mask29)"><path fill-rule="evenodd" clip-rule="evenodd" d="M4.83287 34.9316L13.9642 36.0551L12.8433 45.2032L3.71191 44.0797L4.83287 34.9316Z" fill="#7D7D7D"/></g><mask id="mask30" mask-type="alpha" maskUnits="userSpaceOnUse" x="28" y="51" width="5" height="5"><path fill-rule="evenodd" clip-rule="evenodd" d="M29.3969 55.4817C28.3297 55.0497 27.814 53.8329 28.2449 52.764C28.6759 51.6951 29.8904 51.1789 30.9577 51.6109C32.0249 52.043 32.5406 53.2598 32.1097 54.3287C31.6787 55.3975 30.4642 55.9138 29.3969 55.4817Z" fill="white"/></mask><g mask="url(#mask30)"><path fill-rule="evenodd" clip-rule="evenodd" d="M27.6366 47.5466L36.1666 51L32.721 59.5456L24.1909 56.0923L27.6366 47.5466Z" fill="#7D7D7D"/></g><mask id="mask31" mask-type="alpha" maskUnits="userSpaceOnUse" x="16" y="33" width="5" height="5"><path fill-rule="evenodd" clip-rule="evenodd" d="M17.1312 36.9411C16.1658 36.3129 15.8912 35.0199 16.5178 34.0531C17.1444 33.0862 18.4349 32.8116 19.4003 33.4398C20.3656 34.068 20.6402 35.361 20.0136 36.3279C19.387 37.2947 18.0965 37.5693 17.1312 36.9411Z" fill="white"/></mask><g mask="url(#mask31)"><path fill-rule="evenodd" clip-rule="evenodd" d="M16.9124 28.8152L24.6282 33.836L19.6186 41.5659L11.9028 36.545L16.9124 28.8152Z" fill="#839EA5"/></g><mask id="mask32" mask-type="alpha" maskUnits="userSpaceOnUse" x="17" y="33" width="15" height="13"><path fill-rule="evenodd" clip-rule="evenodd" d="M21.9784 33.6201L26.9039 37.0894C27.431 37.4607 27.9103 37.8959 28.3307 38.3851L31.653 42.2504C31.9498 42.5958 31.9887 43.0941 31.7491 43.4814L30.6587 45.2443C30.4118 45.6434 29.9294 45.8282 29.4798 45.6958L24.6597 44.2769C23.9284 44.0616 23.2325 43.7403 22.5941 43.323L17.7105 40.1314C17.2293 39.8169 17.0931 39.1716 17.4059 38.6888L20.5059 33.9056C20.8192 33.4221 21.4643 33.2847 21.9467 33.5987C21.9574 33.6057 21.9679 33.6128 21.9784 33.6201Z" fill="white"/></mask><g mask="url(#mask32)"><path fill-rule="evenodd" clip-rule="evenodd" d="M20.3333 29.5427L36.8633 40.2993L29.882 51.0714L13.3521 40.3148L20.3333 29.5427Z" fill="#FF4B4B"/></g><mask id="mask33" mask-type="alpha" maskUnits="userSpaceOnUse" x="18" y="29" width="6" height="8"><path fill-rule="evenodd" clip-rule="evenodd" d="M23.1315 30.0095C23.6759 30.4058 23.7966 31.1694 23.4011 31.7149C23.3851 31.7368 23.3685 31.7583 23.3511 31.7791L19.4857 36.4242C19.3134 36.6314 19.0109 36.6705 18.7917 36.5141C18.5692 36.3553 18.4981 36.0561 18.6254 35.8139L21.471 30.3973C21.761 29.8451 22.4429 29.6331 22.994 29.9237C23.0418 29.949 23.0878 29.9776 23.1315 30.0095Z" fill="white"/></mask><g mask="url(#mask33)"><path fill-rule="evenodd" clip-rule="evenodd" d="M21.6615 25.824L27.6303 30.1694L20.0865 40.5737L14.1177 36.2283L21.6615 25.824Z" fill="#839EA5"/></g><mask id="mask34" mask-type="alpha" maskUnits="userSpaceOnUse" x="14" y="35" width="6" height="8"><path fill-rule="evenodd" clip-rule="evenodd" d="M14.728 41.8261C14.6721 41.7884 14.6195 41.7461 14.5707 41.6996C14.0852 41.2373 14.0656 40.4681 14.527 39.9816L18.3484 35.9519C18.5567 35.7322 18.8934 35.6968 19.1427 35.8683C19.3875 36.0367 19.463 36.3647 19.3165 36.6235L16.6106 41.4033C16.594 41.4325 16.5763 41.4611 16.5575 41.4891C16.1554 42.0864 15.3462 42.244 14.7501 41.8411L14.728 41.8261Z" fill="white"/></mask><g mask="url(#mask34)"><path fill-rule="evenodd" clip-rule="evenodd" d="M10.23 41.8267L16.5086 46.0702L23.4592 35.7446L17.1806 31.501L10.23 41.8267Z" fill="#839EA5"/></g><mask id="mask35" mask-type="alpha" maskUnits="userSpaceOnUse" x="25" y="39" width="17" height="13"><path fill-rule="evenodd" clip-rule="evenodd" d="M28.4571 40.1681L41.2446 49.7943C41.6439 50.0949 41.7494 50.6506 41.4882 51.0772C41.231 51.4972 40.6883 51.6379 40.2601 51.3957L26.2888 43.4927C25.4122 42.9968 25.1027 41.8827 25.5976 41.0043C25.6161 40.9714 25.6357 40.9391 25.6562 40.9074L25.8336 40.6336C26.3819 39.7877 27.5108 39.5472 28.355 40.0966C28.3898 40.1193 28.4239 40.1432 28.4571 40.1681Z" fill="white"/></mask><g mask="url(#mask35)"><path fill-rule="evenodd" clip-rule="evenodd" d="M26.0855 35.6145L46.0773 48.6238L41.1739 56.1897L21.1821 43.1805L26.0855 35.6145Z" fill="#FF4B4B"/></g><mask id="mask36" mask-type="alpha" maskUnits="userSpaceOnUse" x="57" y="49" width="16" height="11"><path fill-rule="evenodd" clip-rule="evenodd" d="M60.6313 50.0682L71.8886 57.661C72.2468 57.9027 72.3628 58.3777 72.1565 58.7578C71.9533 59.132 71.4911 59.2782 71.1103 59.0887L58.9288 53.0245C58.0819 52.6029 57.7365 51.5732 58.1572 50.7246C58.1731 50.6925 58.1899 50.661 58.2078 50.6301C58.6776 49.8146 59.7182 49.5353 60.5319 50.006C60.5657 50.0256 60.5989 50.0463 60.6313 50.0682Z" fill="white"/></mask><g mask="url(#mask36)"><path fill-rule="evenodd" clip-rule="evenodd" d="M58.1387 45.71L76.4703 56.3153L72.2476 63.6441L53.916 53.0388L58.1387 45.71Z" fill="#FF4B4B"/></g><mask id="mask37" mask-type="alpha" maskUnits="userSpaceOnUse" x="31" y="84" width="13" height="7"><path fill-rule="evenodd" clip-rule="evenodd" d="M31.687 84.3083H43.26V90.3587H31.687V84.3083Z" fill="white"/></mask><g mask="url(#mask37)"><path fill-rule="evenodd" clip-rule="evenodd" d="M29.1719 92.8797H45.7766V81.7874H29.1719V92.8797Z" fill="#1CB0F6"/></g><mask id="mask38" mask-type="alpha" maskUnits="userSpaceOnUse" x="46" y="84" width="13" height="7"><path fill-rule="evenodd" clip-rule="evenodd" d="M46.7832 84.3083H58.8594V90.3587H46.7832V84.3083Z" fill="white"/></mask><g mask="url(#mask38)"><path fill-rule="evenodd" clip-rule="evenodd" d="M44.2681 92.8797H61.376V81.7874H44.2681V92.8797Z" fill="#1CB0F6"/></g><mask id="mask39" mask-type="alpha" maskUnits="userSpaceOnUse" x="28" y="81" width="34" height="4"><path fill-rule="evenodd" clip-rule="evenodd" d="M28.6853 81.7874H61.3564C61.644 81.7874 61.8771 82.021 61.8771 82.3092V84.2907C61.8771 84.5789 61.644 84.8125 61.3564 84.8125H28.6853C28.3977 84.8125 28.1646 84.5789 28.1646 84.2907V82.3092C28.1646 82.021 28.3977 81.7874 28.6853 81.7874Z" fill="white"/></mask><g mask="url(#mask39)"><path fill-rule="evenodd" clip-rule="evenodd" d="M25.6494 87.3333H64.3937V79.2661H25.6494V87.3333Z" fill="#E5E5E5"/></g><mask id="mask40" mask-type="alpha" maskUnits="userSpaceOnUse" x="68" y="17" width="32" height="3"><path fill-rule="evenodd" clip-rule="evenodd" d="M69.9846 17.1138H98.6423C99.3614 17.1138 99.9443 17.6979 99.9443 18.4184C99.9443 19.1389 99.3614 19.723 98.6423 19.723H69.9846C69.2655 19.723 68.6826 19.1389 68.6826 18.4184C68.6826 17.6979 69.2655 17.1138 69.9846 17.1138Z" fill="white"/></mask><g mask="url(#mask40)"><path fill-rule="evenodd" clip-rule="evenodd" d="M66.1675 22.244H102.461V14.5928H66.1675V22.244Z" fill="#E5E5E5"/></g><mask id="mask41" mask-type="alpha" maskUnits="userSpaceOnUse" x="72" y="7" width="24" height="3"><path fill-rule="evenodd" clip-rule="evenodd" d="M74.1516 7.16577H94.4729C95.192 7.16577 95.7748 7.74989 95.7748 8.47038C95.7748 9.19093 95.192 9.775 94.4729 9.775H74.1516C73.4325 9.775 72.8496 9.19093 72.8496 8.47038C72.8496 7.74989 73.4325 7.16577 74.1516 7.16577Z" fill="white"/></mask><g mask="url(#mask41)"><path fill-rule="evenodd" clip-rule="evenodd" d="M70.3345 12.296H98.2914V4.64478H70.3345V12.296Z" fill="#E5E5E5"/></g><mask id="mask42" mask-type="alpha" maskUnits="userSpaceOnUse" x="71" y="31" width="27" height="3"><path fill-rule="evenodd" clip-rule="evenodd" d="M72.588 31.2036H96.5566C97.2756 31.2036 97.8586 31.7877 97.8586 32.5082V32.5083C97.8586 33.2288 97.2756 33.8128 96.5566 33.8128H72.588C71.869 33.8128 71.2861 33.2288 71.2861 32.5083V32.5082C71.2861 31.7877 71.869 31.2036 72.588 31.2036Z" fill="white"/></mask><g mask="url(#mask42)"><path fill-rule="evenodd" clip-rule="evenodd" d="M68.771 36.3338H100.375V28.6826H68.771V36.3338Z" fill="#E5E5E5"/></g></g><defs><clipPath id="clip0"><rect width="100" height="100" fill="white"/></clipPath></defs></svg>