<svg width="100" height="100" viewBox="0 0 100 100" fill="none" xmlns="http://www.w3.org/2000/svg"><path fill-rule="evenodd" clip-rule="evenodd" d="M19.0381 58.5225C12.9654 54.4851 9 47.8275 9 40.2983C9 27.9833 19.6089 18 32.6955 18C39.3827 18 45.4228 20.6067 49.7311 24.7993C54.0394 20.6067 60.0796 18 66.7667 18C79.8534 18 90.4623 27.9833 90.4623 40.2983C90.4623 47.2895 87.0433 53.5292 81.6929 57.6176L56.3932 79.5385C52.8981 82.5668 47.7206 82.6069 44.179 79.6331L19.0381 58.5225H19.0381Z" fill="#FF4B4B"/><path opacity="0.607199" d="M31.7336 49.9105C36.965 49.9105 41.2059 45.7085 41.2059 40.5251C41.2059 35.3416 36.965 31.1396 31.7336 31.1396C26.5021 31.1396 22.2612 35.3416 22.2612 40.5251C22.2612 45.7085 26.5021 49.9105 31.7336 49.9105Z" fill="#FFC1C1"/></svg>