<svg width="100" height="100" viewBox="0 0 100 100" fill="none" xmlns="http://www.w3.org/2000/svg"><mask id="mask0" mask-type="alpha" maskUnits="userSpaceOnUse" x="9" y="30" width="83" height="49"><path fill-rule="evenodd" clip-rule="evenodd" d="M15.1674 30.6084H30.9929C32.3799 30.6084 33.7455 30.9509 34.9679 31.6056L46.8189 37.9522C49.1126 39.1805 51.867 39.1937 54.1724 37.9873L66.4403 31.5679C67.6448 30.9376 68.9843 30.6084 70.3441 30.6084H85.8052C89.2114 30.6084 91.9727 33.3655 91.9727 36.7666V72.0234C91.9727 75.4245 89.2114 78.1817 85.8052 78.1817H15.1674C11.7613 78.1817 9 75.4245 9 72.0234V36.7666C9 33.3655 11.7613 30.6084 15.1674 30.6084Z" fill="white"/></mask><g mask="url(#mask0)"><path fill-rule="evenodd" clip-rule="evenodd" d="M6.30322 80.8745H94.6695V27.9155H6.30322V80.8745Z" fill="#995632"/></g><mask id="mask1" mask-type="alpha" maskUnits="userSpaceOnUse" x="12" y="7" width="78" height="80"><path fill-rule="evenodd" clip-rule="evenodd" d="M14.4406 26.4108L73.9421 7.11017C75.1201 6.72806 76.3853 7.3718 76.768 8.54809C76.7902 8.61616 76.809 8.68531 76.8246 8.75527L89.0992 64.0403C89.3435 65.1408 88.7306 66.251 87.6683 66.6323L33.8877 85.9382C32.7221 86.3566 31.4376 85.7523 31.0185 84.5885C31.0107 84.5668 31.0032 84.545 30.9961 84.523L13.0005 29.2325C12.6177 28.0563 13.2623 26.7929 14.4403 26.4106C14.4404 26.4106 14.4404 26.4106 14.4405 26.4106L14.4406 26.4108Z" fill="white"/></mask><g mask="url(#mask1)"><path fill-rule="evenodd" clip-rule="evenodd" d="M8.90918 25.3738L77.8052 3.02148L98.8502 67.6947L29.9542 90.047L8.90918 25.3738Z" fill="#6BB300"/></g><mask id="mask2" mask-type="alpha" maskUnits="userSpaceOnUse" x="13" y="17" width="79" height="72"><path fill-rule="evenodd" clip-rule="evenodd" d="M14.997 26.1019L81.7703 17.9171C82.9997 17.7664 84.1186 18.6393 84.2696 19.8668L91.3753 77.639C91.5263 78.8666 90.652 79.9839 89.4227 80.1347C89.4227 80.1347 89.4226 80.1347 89.4226 80.1347L22.6493 88.3194C21.4199 88.4701 20.301 87.5972 20.15 86.3697L13.0443 28.5974C12.8933 27.3699 13.7675 26.2525 14.9969 26.1018C14.9969 26.1018 14.997 26.1018 14.997 26.1018L14.997 26.1019Z" fill="white"/></mask><g mask="url(#mask2)"><path fill-rule="evenodd" clip-rule="evenodd" d="M9.76562 24.0302L86.3458 14.6414L94.6541 82.2064L18.074 91.5952L9.76562 24.0302Z" fill="#78C800"/></g><mask id="mask3" mask-type="alpha" maskUnits="userSpaceOnUse" x="17" y="26" width="67" height="48"><path fill-rule="evenodd" clip-rule="evenodd" d="M83.9938 31.6691L83.899 67.4883C83.8911 70.4648 81.4765 72.8759 78.4955 72.8837L22.9712 73.0302C19.979 73.0381 17.547 70.6225 17.5391 67.6348C17.5391 67.6253 17.5391 67.6157 17.5391 67.6062L17.6339 31.7871C17.6418 28.8105 20.0564 26.3995 23.0374 26.3916L78.5617 26.2451C81.5538 26.2372 83.9859 28.6528 83.9938 31.6405C83.9938 31.6501 83.9938 31.6596 83.9938 31.6691Z" fill="white"/></mask><g mask="url(#mask3)"><path fill-rule="evenodd" clip-rule="evenodd" d="M86.6903 23.5522V75.7231H14.8418V23.5522H86.6903Z" fill="#1CB0F6"/></g><mask id="mask4" mask-type="alpha" maskUnits="userSpaceOnUse" x="62" y="42" width="17" height="12"><path fill-rule="evenodd" clip-rule="evenodd" d="M78.5615 44.6357L78.5439 51.2735C78.5408 52.4642 77.5749 53.4286 76.3825 53.4317L65.1143 53.4614C63.9174 53.4646 62.9446 52.4984 62.9414 51.3032C62.9414 51.2995 62.9414 51.2956 62.9414 51.2918L62.959 44.6539C62.9621 43.4633 63.928 42.4989 65.1204 42.4958L76.3887 42.4661C77.5855 42.4629 78.5583 43.4291 78.5615 44.6242C78.5615 44.628 78.5615 44.6319 78.5615 44.6357Z" fill="white"/></mask><g mask="url(#mask4)"><path fill-rule="evenodd" clip-rule="evenodd" d="M81.2584 39.7732V56.1543H60.2446V39.7732H81.2584Z" fill="#FFD300"/></g><mask id="mask5" mask-type="alpha" maskUnits="userSpaceOnUse" x="31" y="53" width="15" height="15"><path fill-rule="evenodd" clip-rule="evenodd" d="M33.4174 65.4303C30.6674 62.6844 30.6825 58.2172 33.4513 55.4525C36.22 52.6879 40.6939 52.6728 43.4439 55.4187C46.194 58.1647 46.1788 62.6319 43.4101 65.3965C40.6413 68.1611 36.1674 68.1763 33.4174 65.4303Z" fill="white"/></mask><g mask="url(#mask5)"><path fill-rule="evenodd" clip-rule="evenodd" d="M38.465 46.6387L52.2377 60.3908L38.3972 74.2107L24.6245 60.4585L38.465 46.6387Z" fill="#FFD300"/></g><mask id="mask6" mask-type="alpha" maskUnits="userSpaceOnUse" x="22" y="53" width="15" height="15"><path fill-rule="evenodd" clip-rule="evenodd" d="M24.1952 65.4616C21.4452 62.7156 21.4604 58.2484 24.2291 55.4838C26.9979 52.7192 31.4717 52.704 34.2218 55.45C36.9718 58.1959 36.9566 62.6631 34.1879 65.4277C31.4191 68.1924 26.9453 68.2075 24.1952 65.4616Z" fill="white"/></mask><g mask="url(#mask6)"><path fill-rule="evenodd" clip-rule="evenodd" d="M29.2428 46.6697L43.0155 60.4218L29.175 74.2417L15.4023 60.4895L29.2428 46.6697Z" fill="#FF4B4B"/></g><mask id="mask7" mask-type="alpha" maskUnits="userSpaceOnUse" x="23" y="32" width="24" height="8"><path fill-rule="evenodd" clip-rule="evenodd" d="M25.8147 33.0251L44.2914 32.9763C45.4883 32.9731 46.4611 33.9394 46.4643 35.1345C46.4643 35.1383 46.4643 35.1421 46.4643 35.1459L46.4585 37.3356C46.4553 38.5262 45.4895 39.4906 44.2971 39.4938L25.8203 39.5425C24.6235 39.5457 23.6506 38.5794 23.6475 37.3843C23.6475 37.3805 23.6475 37.3767 23.6475 37.3729L23.6533 35.1833C23.6564 33.9927 24.6223 33.0282 25.8147 33.0251Z" fill="white"/></mask><g mask="url(#mask7)"><path fill-rule="evenodd" clip-rule="evenodd" d="M20.9507 30.2834H49.1612V42.2353H20.9507V30.2834Z" fill="#1096D5"/></g><mask id="mask8" mask-type="alpha" maskUnits="userSpaceOnUse" x="9" y="46" width="83" height="47"><path fill-rule="evenodd" clip-rule="evenodd" d="M15.1674 46.2795H30.8417C32.3247 46.2795 33.7814 46.6711 35.0639 47.4145L46.5908 54.0959C49.0033 55.4943 51.9778 55.5092 54.4042 54.1349L66.3437 47.3728C67.6089 46.6562 69.0385 46.2795 70.4931 46.2795H85.8052C89.2114 46.2795 91.9727 49.0367 91.9727 52.4378V86.0156C91.9727 89.4166 89.2114 92.1738 85.8052 92.1738H15.1674C11.7613 92.1738 9 89.4166 9 86.0156V52.4378C9 49.0367 11.7613 46.2795 15.1674 46.2795Z" fill="white"/></mask><g mask="url(#mask8)"><path fill-rule="evenodd" clip-rule="evenodd" d="M6.30322 94.8666H94.6695V43.5867H6.30322V94.8666Z" fill="#A56644"/></g><path fill-rule="evenodd" clip-rule="evenodd" d="M65.7935 70.5571H77.0056C78.2442 70.5571 79.2483 71.5597 79.2483 72.7965V77.2727C79.2483 78.5095 78.2442 79.5121 77.0056 79.5121H65.7935C64.5549 79.5121 63.5508 78.5095 63.5508 77.2727V72.7965C63.5508 71.5597 64.5549 70.5571 65.7935 70.5571Z" stroke="#995632" stroke-width="3.36474"/><path d="M86.6349 53.4075V83.5671C86.6349 85.6492 84.9446 87.3371 82.8594 87.3371H18.135C16.0498 87.3371 14.3594 85.6492 14.3594 83.5671V53.4075" stroke="#995632" stroke-width="3.23689" stroke-linecap="round" stroke-linejoin="round" stroke-dasharray="8.09 8.09"/></svg>