<svg width="260" height="235" viewBox="0 0 260 235" fill="none" xmlns="http://www.w3.org/2000/svg"><path d="M148.503 82.4294H58.3799C40.1701 82.4294 25.4082 97.1914 25.4082 115.401C25.4082 133.611 40.1701 148.373 58.3799 148.373H148.503C166.712 148.373 181.474 133.611 181.474 115.401C181.474 97.1914 166.712 82.4294 148.503 82.4294Z" fill="#4B4B4B"/><path fill-rule="evenodd" clip-rule="evenodd" d="M71.019 131.887H135.863C161.66 131.887 182.573 152.8 182.573 178.597V221.68C182.573 223.683 180.949 225.307 178.946 225.307H27.936C25.9329 225.307 24.3091 223.683 24.3091 221.68V178.597C24.3091 152.8 45.2218 131.887 71.019 131.887Z" fill="#016693"/><path fill-rule="evenodd" clip-rule="evenodd" d="M80.3608 127.491H126.521V170.355C126.521 176.424 121.601 181.345 115.532 181.345H91.3503C85.281 181.345 80.3608 176.424 80.3608 170.355V127.491Z" fill="#004868"/><path fill-rule="evenodd" clip-rule="evenodd" d="M49.9406 135.707L74.3651 122.051C76.3075 120.965 78.7626 121.659 79.8486 123.601C80.1846 124.202 80.361 124.879 80.361 125.568V225.307H41.894V149.425C41.894 143.733 44.9721 138.485 49.9406 135.707Z" fill="#FF4B4B"/><path fill-rule="evenodd" clip-rule="evenodd" d="M155.843 135.707L131.418 122.051C129.476 120.965 127.021 121.659 125.935 123.601C125.599 124.202 125.422 124.879 125.422 125.568V225.307H163.889V149.425C163.889 143.733 160.811 138.485 155.843 135.707Z" fill="#FF4B4B"/><path d="M60.5779 184.642V135.49C60.5779 126.823 67.6054 119.797 76.2743 119.797H130.608C139.277 119.797 146.304 126.823 146.304 135.49V185.741" stroke="#FFC800" stroke-width="6.6" stroke-linecap="round" stroke-linejoin="round"/><path fill-rule="evenodd" clip-rule="evenodd" d="M143.557 194.533H149.052C152.391 194.533 155.097 197.24 155.097 200.578V213.107C155.097 213.775 154.556 214.316 153.888 214.316H138.721C138.053 214.316 137.512 213.775 137.512 213.107V200.578C137.512 197.24 140.218 194.533 143.557 194.533Z" fill="#FFC800"/><path d="M148.502 181.344H144.106C141.678 181.344 139.71 183.313 139.71 185.741C139.71 188.169 141.678 190.137 144.106 190.137H148.502C150.93 190.137 152.899 188.169 152.899 185.741C152.899 183.313 150.93 181.344 148.502 181.344Z" fill="#FFC800"/><path fill-rule="evenodd" clip-rule="evenodd" d="M57.8302 194.533H63.3255C66.6639 194.533 69.3703 197.24 69.3703 200.578V213.107C69.3703 213.775 68.829 214.316 68.1613 214.316H52.9944C52.3267 214.316 51.7854 213.775 51.7854 213.107V200.578C51.7854 197.24 54.4918 194.533 57.8302 194.533Z" fill="#FFC800"/><path d="M62.7761 181.344H58.3799C55.9519 181.344 53.9836 183.313 53.9836 185.741C53.9836 188.169 55.9519 190.137 58.3799 190.137H62.7761C65.2041 190.137 67.1723 188.169 67.1723 185.741C67.1723 183.313 65.2041 181.344 62.7761 181.344Z" fill="#FFC800"/><path fill-rule="evenodd" clip-rule="evenodd" d="M207.852 150.571C223.026 150.571 235.328 162.872 235.328 178.047V222.889C235.328 224.224 234.245 225.307 232.91 225.307H180.375V178.047C180.375 162.872 192.677 150.571 207.852 150.571Z" fill="#016693"/><path d="M222.139 164.309C222.139 157.329 216.481 151.67 209.5 151.67C202.52 151.67 196.861 157.329 196.861 164.309V187.389C196.861 194.37 202.52 200.028 209.5 200.028C216.481 200.028 222.139 194.37 222.139 187.389V164.309Z" fill="#B56B4C"/><path fill-rule="evenodd" clip-rule="evenodd" d="M195.247 56.052H210.578C212.581 56.052 214.205 57.6758 214.205 59.6789C214.205 59.7566 214.202 59.8343 214.197 59.9118L209.522 132.557L214.211 209.369C214.333 211.369 212.811 213.088 210.812 213.21C210.738 213.215 210.664 213.217 210.591 213.217H195.234C193.231 213.217 191.607 211.593 191.607 209.59C191.607 209.512 191.609 209.435 191.614 209.357L196.566 132.557L191.629 59.9249C191.493 57.9264 193.003 56.1962 195.001 56.0604C195.083 56.0548 195.165 56.052 195.247 56.052Z" fill="#E5A259"/><path d="M215.52 143.287L204.636 144.816C200.429 145.408 197.497 149.298 198.088 153.505C198.68 157.713 202.57 160.645 206.778 160.053L217.661 158.524C221.869 157.932 224.8 154.042 224.209 149.834C223.618 145.627 219.727 142.695 215.52 143.287Z" fill="#B56B4C"/><path d="M210.984 153.868H208.016C203.676 153.868 200.158 157.386 200.158 161.726V175.684C200.158 180.024 203.676 183.543 208.016 183.543H210.984C215.324 183.543 218.842 180.024 218.842 175.684V161.726C218.842 157.386 215.324 153.868 210.984 153.868Z" fill="#B56B4C"/><path d="M210.05 123.094H195.762C194.548 123.094 193.564 124.079 193.564 125.293V139.58C193.564 140.794 194.548 141.778 195.762 141.778H210.05C211.264 141.778 212.248 140.794 212.248 139.58V125.293C212.248 124.079 211.264 123.094 210.05 123.094Z" fill="#FF4B4B"/><path fill-rule="evenodd" clip-rule="evenodd" d="M229.333 110.951L233.783 117.548C234.53 118.655 234.238 120.158 233.131 120.905L219.55 130.065C218.494 130.778 217.059 130.499 216.346 129.442C215.857 128.717 215.82 127.778 216.25 127.017L225.223 111.115C225.879 109.952 227.354 109.541 228.517 110.197C228.844 110.382 229.123 110.64 229.333 110.951Z" fill="#FF4B4B"/><path fill-rule="evenodd" clip-rule="evenodd" d="M238.753 126.178L236.426 133.788C236.036 135.065 234.684 135.783 233.407 135.393L217.742 130.604C216.523 130.231 215.837 128.941 216.21 127.722C216.465 126.886 217.171 126.266 218.033 126.121L236.039 123.087C237.355 122.865 238.603 123.752 238.825 125.069C238.887 125.439 238.862 125.819 238.753 126.178Z" fill="#FF4B4B"/><path d="M102.701 82.4294H100.884C99.2611 82.4294 97.9458 83.7447 97.9458 85.3672V101.473C97.9458 103.095 99.2611 104.411 100.884 104.411H102.701C104.324 104.411 105.639 103.095 105.639 101.473V85.3672C105.639 83.7447 104.324 82.4294 102.701 82.4294Z" fill="#D8D8D8"/><path d="M110.035 35.1699H96.8467C78.6369 35.1699 63.875 49.9319 63.875 68.1416V121.995C63.875 140.205 78.6369 154.967 96.8467 154.967H110.035C128.245 154.967 143.007 140.205 143.007 121.995V68.1416C143.007 49.9319 128.245 35.1699 110.035 35.1699Z" fill="#B56B4C"/><path d="M99.0448 92.321C99.0448 85.0371 93.1401 79.1323 85.8562 79.1323C78.5723 79.1323 72.6675 85.0371 72.6675 92.321V100.014C72.6675 107.298 78.5723 113.203 85.8562 113.203C93.1401 113.203 99.0448 107.298 99.0448 100.014V92.321Z" fill="white"/><path d="M133.116 91.7715C133.116 84.7911 127.457 79.1323 120.477 79.1323C113.496 79.1323 107.837 84.7911 107.837 91.7715V100.564C107.837 107.544 113.496 113.203 120.477 113.203C127.457 113.203 133.116 107.544 133.116 100.564V91.7715Z" fill="white"/><path d="M123.224 92.3209C123.224 88.6789 120.272 85.7266 116.63 85.7266C112.988 85.7266 110.035 88.6789 110.035 92.3209V98.9152C110.035 102.557 112.988 105.51 116.63 105.51C120.272 105.51 123.224 102.557 123.224 98.9152V92.3209Z" fill="#4B4B4B"/><path fill-rule="evenodd" clip-rule="evenodd" d="M169.967 72.5378C174.823 72.5378 178.759 76.4744 178.759 81.3303V95.5081C178.759 96.1758 178.218 96.7171 177.551 96.7171H162.384C161.716 96.7171 161.175 96.1758 161.175 95.5081V81.3303C161.175 76.4744 165.111 72.5378 169.967 72.5378Z" fill="#FFC800"/><path d="M169.385 14.2878H102.342C100.521 14.2878 99.0449 15.764 99.0449 17.585C99.0449 19.406 100.521 20.8822 102.342 20.8822H169.385C171.206 20.8822 172.682 19.406 172.682 17.585C172.682 15.764 171.206 14.2878 169.385 14.2878Z" fill="#FFC800"/><path d="M96.8469 92.3209C96.8469 88.6789 93.8945 85.7266 90.2525 85.7266C86.6106 85.7266 83.6582 88.6789 83.6582 92.3209V98.9152C83.6582 102.557 86.6106 105.51 90.2525 105.51C93.8945 105.51 96.8469 102.557 96.8469 98.9152V92.3209Z" fill="#4B4B4B"/><path fill-rule="evenodd" clip-rule="evenodd" d="M104.904 99.3211L112.217 112.777C113.666 115.444 112.679 118.78 110.013 120.229C109.207 120.667 108.305 120.896 107.389 120.896H99.144C96.109 120.896 93.6487 118.436 93.6487 115.401C93.6487 114.548 93.8473 113.707 94.2288 112.943L101.007 99.3877C101.55 98.3019 102.87 97.8618 103.956 98.4047C104.358 98.6059 104.689 98.9258 104.904 99.3211Z" fill="#9E461A"/><path d="M147.403 126.392C155.598 126.392 162.241 119.749 162.241 111.554C162.241 103.36 155.598 96.717 147.403 96.717C139.209 96.717 132.566 103.36 132.566 111.554C132.566 119.749 139.209 126.392 147.403 126.392Z" fill="#B56B4C"/><path d="M59.4789 126.392C67.6733 126.392 74.3161 119.749 74.3161 111.554C74.3161 103.36 67.6733 96.717 59.4789 96.717C51.2845 96.717 44.6416 103.36 44.6416 111.554C44.6416 119.749 51.2845 126.392 59.4789 126.392Z" fill="#B56B4C"/><path fill-rule="evenodd" clip-rule="evenodd" d="M136.962 61.5474H123.224V83.5285C123.224 92.6334 130.605 100.014 139.71 100.014C148.815 100.014 156.196 92.6334 156.196 83.5285V80.7809C156.196 70.1585 147.585 61.5474 136.962 61.5474Z" fill="#4B4B4B"/><path fill-rule="evenodd" clip-rule="evenodd" d="M69.92 61.5474H83.6582V83.5285C83.6582 92.6334 76.2773 100.014 67.1724 100.014C58.0675 100.014 50.6865 92.6334 50.6865 83.5285V80.7809C50.6865 70.1585 59.2977 61.5474 69.92 61.5474Z" fill="#4B4B4B"/><path d="M172.165 60.4482H167.769C165.341 60.4482 163.373 62.4165 163.373 64.8445C163.373 67.2724 165.341 69.2407 167.769 69.2407H172.165C174.593 69.2407 176.561 67.2724 176.561 64.8445C176.561 62.4165 174.593 60.4482 172.165 60.4482Z" fill="#FFC800"/><path d="M58.8099 67.1191C56.2848 67.1191 54.2378 65.3102 54.2378 63.0788C54.2378 39.2095 76.1347 19.8596 103.146 19.8596C130.157 19.8596 152.054 39.2095 152.054 63.0788C152.054 65.3102 150.007 67.1191 147.482 67.1191C127.512 67.1191 112.733 67.1191 103.146 67.1191C93.0286 67.1191 78.2499 67.1191 58.8099 67.1191Z" fill="#016693"/><path d="M147.413 27.553H57.7788C56.43 27.553 55.3367 28.6463 55.3367 29.9951V47.092C55.3367 48.4407 56.43 49.5341 57.7788 49.5341H147.413C148.762 49.5341 149.856 48.4407 149.856 47.092V29.9951C149.856 28.6463 148.762 27.553 147.413 27.553Z" fill="#004868"/><path d="M106.443 12.1663H98.7496C94.8041 12.1663 91.6057 15.3647 91.6057 19.3101C91.6057 23.2556 94.8041 26.454 98.7496 26.454H106.443C110.388 26.454 113.587 23.2556 113.587 19.3101C113.587 15.3647 110.388 12.1663 106.443 12.1663Z" fill="#00547A"/><path d="M173.814 63.9595V18.47C173.814 16.4638 172.187 14.8374 170.181 14.8374H169.753C167.747 14.8374 166.12 16.4638 166.12 18.47V63.9595C166.12 65.9657 167.747 67.5921 169.753 67.5921H170.181C172.187 67.5921 173.814 65.9657 173.814 63.9595Z" fill="#FFC800"/><path d="M164.144 20.9587H41.0484C38.0138 20.9587 35.5537 23.4188 35.5537 26.4535V26.4546C35.5537 29.4892 38.0138 31.9493 41.0484 31.9493H164.144C167.179 31.9493 169.639 29.4892 169.639 26.4546V26.4535C169.639 23.4188 167.179 20.9587 164.144 20.9587Z" fill="#016693"/><path d="M94.343 134.635C99.0643 139.356 106.719 139.356 111.44 134.635" stroke="#9E461A" stroke-width="4.95" stroke-linecap="round" stroke-linejoin="round"/><path opacity="0.3" d="M254.326 225H5.25526C2.58343 225 0.41748 227.166 0.41748 229.838C0.41748 232.51 2.58343 234.676 5.25526 234.676H254.326C256.998 234.676 259.164 232.51 259.164 229.838C259.164 227.166 256.998 225 254.326 225Z" fill="#AFAFAF"/></svg>