<svg width="243" height="230" viewBox="0 0 243 230" fill="none" xmlns="http://www.w3.org/2000/svg"><path d="M193.831 8.49048H22.9585C15.3386 8.49048 9.16138 14.6677 9.16138 22.2876V131.604C9.16138 139.224 15.3386 145.401 22.9585 145.401H193.831C201.451 145.401 207.628 139.224 207.628 131.604V22.2876C207.628 14.6677 201.451 8.49048 193.831 8.49048Z" fill="#8FC255" stroke="#A56644" stroke-width="9.55189" stroke-linejoin="round"/><path d="M47.8238 118.276C48.9013 118.276 49.6709 117.506 49.6709 116.275V106.67C49.6709 105.408 48.9321 104.7 47.8546 104.7C46.7464 104.7 46.0075 105.408 46.0075 106.67V112.55H45.946L39.4504 107.04C37.9112 105.747 36.3719 104.916 34.3709 104.916C30.9846 104.916 28.3987 107.378 28.3987 111.35C28.3987 115.074 30.4921 117.414 32.7393 117.876C32.924 117.907 33.1087 117.937 33.2627 117.937C34.4017 117.937 35.1713 117.106 35.1713 115.998C35.1713 115.136 34.6788 114.49 33.786 114.059C32.647 113.504 32.0313 112.735 32.0313 111.534C32.0313 110.057 33.0472 109.225 34.4325 109.225C35.51 109.225 36.3719 109.656 37.3262 110.457L45.1456 116.983C46.2846 117.937 46.9311 118.276 47.8238 118.276ZM42.9906 99.5385V96.3985C42.9906 96.2754 43.0522 96.2138 43.1753 96.2138H46.3154C47.5775 96.2138 48.3164 95.4134 48.3164 94.3359C48.3164 93.2585 47.5775 92.4581 46.3154 92.4581H43.1753C43.0522 92.4581 42.9906 92.3965 42.9906 92.2734V89.1333C42.9906 87.9327 42.2518 87.1939 41.1743 87.1939C40.0969 87.1939 39.358 87.9327 39.358 89.1333V92.2734C39.358 92.3965 39.2965 92.4581 39.1733 92.4581H36.0333C34.7711 92.4581 34.0323 93.2585 34.0323 94.3359C34.0323 95.4134 34.7711 96.2138 36.0333 96.2138H39.1733C39.2965 96.2138 39.358 96.2754 39.358 96.3985V99.5385C39.358 100.739 40.0969 101.478 41.1743 101.478C42.2518 101.478 42.9906 100.739 42.9906 99.5385ZM47.8238 84.0642C48.9013 84.0642 49.6709 83.2946 49.6709 82.0632V72.4584C49.6709 71.1962 48.9321 70.4882 47.8546 70.4882C46.7464 70.4882 46.0075 71.1962 46.0075 72.4584V78.3383H45.946L39.4504 72.8278C37.9112 71.5348 36.3719 70.7037 34.3709 70.7037C30.9846 70.7037 28.3987 73.1664 28.3987 77.1376C28.3987 80.8626 30.4921 83.2022 32.7393 83.664C32.924 83.6948 33.1087 83.7256 33.2627 83.7256C34.4017 83.7256 35.1713 82.8944 35.1713 81.7861C35.1713 80.9242 34.6788 80.2777 33.786 79.8467C32.647 79.2926 32.0313 78.523 32.0313 77.3224C32.0313 75.8447 33.0472 75.0135 34.4325 75.0135C35.51 75.0135 36.3719 75.4445 37.3262 76.2449L45.1456 82.7712C46.2846 83.7256 46.9311 84.0642 47.8238 84.0642ZM39.7582 65.3267V54.9215C39.7582 53.7209 39.0194 52.982 37.9419 52.982C36.8645 52.982 36.1256 53.7209 36.1256 54.9215V65.3267C36.1256 66.5273 36.8645 67.2661 37.9419 67.2661C39.0194 67.2661 39.7582 66.5273 39.7582 65.3267ZM46.223 65.3267V54.9215C46.223 53.7209 45.4842 52.982 44.4067 52.982C43.3293 52.982 42.5904 53.7209 42.5904 54.9215V65.3267C42.5904 66.5273 43.3293 67.2661 44.4067 67.2661C45.4842 67.2661 46.223 66.5273 46.223 65.3267ZM46.6232 48.3131V42.0022C46.6232 41.8791 46.6848 41.8175 46.8079 41.8175H47.6391C48.9936 41.8175 49.8556 40.9248 49.8556 39.7242C49.8556 38.4928 48.9936 37.6308 47.6391 37.6308H46.8079C46.6848 37.6308 46.6232 37.5693 46.6232 37.4461V37.323C46.6232 36.1224 45.8536 35.322 44.7454 35.322C43.6679 35.322 42.8983 36.1224 42.8983 37.323V37.4461C42.8983 37.5693 42.8367 37.6308 42.7136 37.6308H39.9429C38.5884 37.6308 37.7264 38.4928 37.7264 39.7242C37.7264 40.9248 38.5884 41.8175 39.9429 41.8175H42.7136C42.8367 41.8175 42.8983 41.8791 42.8983 42.0022V45.7888H42.8367L31.6619 40.7093C31.3848 40.5862 30.9846 40.4938 30.646 40.4938C29.3838 40.4938 28.5526 41.3866 28.5526 42.5564C28.5526 43.4799 29.076 44.1572 29.9071 44.5266L42.0979 49.9755C43.2061 50.468 43.6679 50.6835 44.4375 50.6835C45.7612 50.6835 46.6232 49.7908 46.6232 48.3131Z" fill="white"/><path d="M169.102 113.561H85.8949C71.0652 113.561 59.0435 125.583 59.0435 140.413V179.045C59.0435 193.874 71.0652 205.896 85.8949 205.896H169.102C183.932 205.896 195.954 193.874 195.954 179.045V140.413C195.954 125.583 183.932 113.561 169.102 113.561Z" fill="#1B4C99"/><path fill-rule="evenodd" clip-rule="evenodd" d="M100.966 135.849H154.032C177.185 135.849 195.954 154.618 195.954 177.771V217.359C195.954 218.648 194.908 219.693 193.619 219.693H61.3784C60.0888 219.693 59.0435 218.648 59.0435 217.359V177.771C59.0435 154.618 77.8127 135.849 100.966 135.849Z" fill="#1CB0F6"/><path fill-rule="evenodd" clip-rule="evenodd" d="M148.598 135.849C157.382 135.849 165.592 138.303 172.582 142.562L131.929 215.695C130.412 218.423 126.972 219.405 124.244 217.889C123.296 217.361 122.519 216.572 122.007 215.615L82.415 141.597C89.0307 137.934 96.641 135.849 104.738 135.849H148.598Z" fill="#1899D6"/><path d="M129.123 78.5378H126.936C125.195 78.5378 123.784 79.9491 123.784 81.69V98.7348C123.784 100.476 125.195 101.887 126.936 101.887H129.123C130.863 101.887 132.275 100.476 132.275 98.7348V81.69C132.275 79.9491 130.863 78.5378 129.123 78.5378Z" fill="#D8D8D8"/><path fill-rule="evenodd" clip-rule="evenodd" d="M145.254 133.726C151.506 133.726 157.487 134.89 162.991 137.012L132.258 197.699C130.976 200.23 127.885 201.242 125.354 199.96C124.355 199.454 123.548 198.635 123.057 197.628L93.062 136.076C97.8165 134.55 102.885 133.726 108.147 133.726H145.254Z" fill="white"/><path fill-rule="evenodd" clip-rule="evenodd" d="M106.803 110.377H149.256V135.849C149.256 147.572 139.752 157.076 128.029 157.076C116.306 157.076 106.803 147.572 106.803 135.849V110.377Z" fill="#FFD1B1"/><path fill-rule="evenodd" clip-rule="evenodd" d="M84.1226 134.526L93.8867 130.236C96.2479 129.198 99.0031 130.271 100.041 132.633C100.301 133.225 100.435 133.864 100.435 134.511V219.693H81.3313V138.801C81.3313 136.949 82.4265 135.271 84.1226 134.526Z" fill="#1B4C99"/><path fill-rule="evenodd" clip-rule="evenodd" d="M160.963 130.974L170.727 134.869C172.502 135.578 173.666 137.296 173.666 139.207V212.264H154.562V135.311C154.562 132.732 156.653 130.641 159.232 130.641C159.825 130.641 160.412 130.754 160.963 130.974Z" fill="#1B4C99"/><path d="M175.789 75.3539C175.789 48.9771 154.406 27.5945 128.029 27.5945C101.653 27.5945 80.27 48.9771 80.27 75.3539V88.0898C80.27 114.467 101.653 135.849 128.029 135.849C154.406 135.849 175.789 114.467 175.789 88.0898V75.3539Z" fill="#FFD1B1"/><path d="M171.543 82.783H84.5152C76.8952 82.783 70.718 88.9602 70.718 96.5801C70.718 104.2 76.8952 110.377 84.5152 110.377H171.543C179.163 110.377 185.341 104.2 185.341 96.5801C185.341 88.9602 179.163 82.783 171.543 82.783Z" fill="#FFD1B1"/><path fill-rule="evenodd" clip-rule="evenodd" d="M182.157 149.899V219.693H205.243C214.27 219.693 221.587 212.376 221.587 203.349C221.587 199.748 220.398 196.248 218.205 193.393L184.25 149.188C183.857 148.676 183.124 148.58 182.613 148.973C182.325 149.194 182.157 149.536 182.157 149.899Z" fill="#1CB0F6"/><path fill-rule="evenodd" clip-rule="evenodd" d="M73.902 150.96V220.755H50.8158C41.789 220.755 34.4714 213.437 34.4714 204.41C34.4714 200.81 35.6605 197.31 37.8539 194.454L71.8087 150.249C72.2014 149.737 72.9344 149.641 73.4457 150.034C73.7334 150.255 73.902 150.597 73.902 150.96Z" fill="#1CB0F6"/><path fill-rule="evenodd" clip-rule="evenodd" d="M183.218 206.851C183.218 213.944 177.469 219.693 170.376 219.693H161.411C154.319 219.693 148.569 213.944 148.569 206.851L148.568 202.853C145.854 201.71 143.949 199.026 143.949 195.897C143.949 191.729 147.327 188.351 151.495 188.351H158.348C158.801 188.351 159.245 188.391 159.675 188.468C160.243 188.391 160.822 188.351 161.411 188.351H170.376C170.812 188.351 171.243 188.373 171.668 188.415L171.668 188.322C171.668 185.133 174.254 182.547 177.443 182.547C180.633 182.547 183.218 185.133 183.218 188.322V206.851Z" fill="#FFD1B1"/><path d="M63.6807 147.916H105.944C108.201 147.916 110.03 149.745 110.03 152.001V212.817C110.03 215.073 108.201 216.902 105.944 216.902H63.6807C61.4246 216.902 59.5956 215.073 59.5956 212.817V152.001C59.5956 149.745 61.4246 147.916 63.6807 147.916Z" fill="#FF4B4B"/><path d="M73.1369 157.012H110.147C112.403 157.012 114.232 158.841 114.232 161.097V215.969C114.232 218.225 112.403 220.054 110.147 220.054H73.1369C70.8807 220.054 69.0518 218.225 69.0518 215.969V161.097C69.0518 158.841 70.8807 157.012 73.1369 157.012Z" fill="#FF4B4B"/><path fill-rule="evenodd" clip-rule="evenodd" d="M72.2039 147.884H62.6298C60.3736 147.884 58.5447 149.713 58.5447 151.969V215.969C58.5447 218.225 60.3736 220.054 62.6298 220.054H72.2039V147.884Z" fill="#C42121"/><path fill-rule="evenodd" clip-rule="evenodd" d="M101.02 152.788H67.9375C66.777 152.788 65.8361 153.728 65.8361 154.889C65.8361 156.05 66.777 156.99 67.9375 156.99H105.105V156.873C105.105 154.617 103.276 152.788 101.02 152.788Z" fill="white"/><path d="M80.6096 169.62H105.827C106.987 169.62 107.928 170.561 107.928 171.722C107.928 172.882 106.987 173.823 105.827 173.823H80.6096C79.449 173.823 78.5082 172.882 78.5082 171.722C78.5082 170.561 79.449 169.62 80.6096 169.62Z" fill="#C42121"/><path d="M80.6096 178.026H105.827C106.987 178.026 107.928 178.967 107.928 180.127C107.928 181.288 106.987 182.229 105.827 182.229H80.6096C79.449 182.229 78.5082 181.288 78.5082 180.127C78.5082 178.967 79.449 178.026 80.6096 178.026Z" fill="#C42121"/><path fill-rule="evenodd" clip-rule="evenodd" d="M49.4916 207.913C49.4916 215.005 55.2412 220.755 62.3336 220.755H71.2986C78.3911 220.755 84.1406 215.005 84.1406 207.913L84.1415 203.915C86.8553 202.772 88.7605 200.088 88.7605 196.958C88.7605 192.791 85.3823 189.413 81.2152 189.413H74.3615C73.9086 189.413 73.4651 189.453 73.0343 189.529C72.4667 189.452 71.8873 189.413 71.2986 189.413H62.3336C61.8976 189.413 61.4666 189.434 61.0418 189.477L61.0413 189.383C61.0413 186.194 58.4558 183.609 55.2665 183.609C52.0771 183.609 49.4916 186.194 49.4916 189.383V207.913Z" fill="#FFD1B1"/><path fill-rule="evenodd" clip-rule="evenodd" d="M81.4375 70.0471H91.8384C92.4832 70.0471 93.0059 70.5698 93.0059 71.2146V79.599C93.0059 84.8744 88.7293 89.1509 83.454 89.1509H80.27V71.2146C80.27 70.5698 80.7927 70.0471 81.4375 70.0471Z" fill="#4B4B4B"/><path d="M119.024 123.113C123.998 128.087 132.061 128.087 137.035 123.113" stroke="#EBA080" stroke-width="5.83726" stroke-linecap="round" stroke-linejoin="round"/><path fill-rule="evenodd" clip-rule="evenodd" d="M165.706 31.8396H159.126C157.192 31.8396 155.624 33.4077 155.624 35.342V72.1698C155.624 83.3067 164.652 92.3349 175.789 92.3349V41.9221C175.789 36.3537 171.275 31.8396 165.706 31.8396Z" fill="#4B4B4B"/><path d="M134.397 98.7029C134.397 95.186 131.546 92.335 128.029 92.335C124.512 92.335 121.661 95.186 121.661 98.7029V110.377C121.661 113.894 124.512 116.745 128.029 116.745C131.546 116.745 134.397 113.894 134.397 110.377V98.7029Z" fill="#F29F7C"/><path d="M157.746 21.2263L104.68 21.2263C94.7158 21.2263 86.6379 29.3042 86.6379 39.2688C86.6379 49.2333 94.7158 57.3112 104.68 57.3112L157.746 57.3112C167.711 57.3112 175.789 49.2333 175.789 39.2688C175.789 29.3042 167.711 21.2263 157.746 21.2263Z" fill="#4B4B4B"/><path d="M155.539 58.8549C156.741 55.5501 155.037 51.8959 151.733 50.6931C148.428 49.4902 144.774 51.1942 143.571 54.499L139.578 65.4695C138.375 68.7743 140.079 72.4285 143.384 73.6313C146.689 74.8342 150.343 73.1302 151.546 69.8254L155.539 58.8549Z" fill="#FFD1B1"/><path d="M152.334 68.9858H141.933C134.84 68.9858 129.091 74.7354 129.091 81.8278V92.2288C129.091 99.3212 134.84 105.071 141.933 105.071H152.334C159.426 105.071 165.176 99.3212 165.176 92.2288V81.8278C165.176 74.7354 159.426 68.9858 152.334 68.9858Z" fill="white" stroke="#CD7900" stroke-width="5.83726"/><path d="M114.126 68.9858H103.725C96.6326 68.9858 90.8831 74.7354 90.8831 81.8278V92.2288C90.8831 99.3212 96.6326 105.071 103.725 105.071H114.126C121.218 105.071 126.968 99.3212 126.968 92.2288V81.8278C126.968 74.7354 121.218 68.9858 114.126 68.9858Z" fill="white" stroke="#CD7900" stroke-width="5.83726"/><path fill-rule="evenodd" clip-rule="evenodd" d="M95.6592 21.2263H140.447C142.381 21.2263 143.949 22.7944 143.949 24.7287V49.3513C143.949 64.8843 131.357 77.4763 115.824 77.4763H71.0365C69.1022 77.4763 67.5342 75.9083 67.5342 73.974V49.3513C67.5342 33.8183 80.1262 21.2263 95.6592 21.2263Z" fill="#4B4B4B"/><path d="M149.256 83.8442C149.256 80.3273 146.405 77.4763 142.888 77.4763C139.371 77.4763 136.52 80.3273 136.52 83.8442V90.2122C136.52 93.7291 139.371 96.5801 142.888 96.5801C146.405 96.5801 149.256 93.7291 149.256 90.2122V83.8442Z" fill="#4B4B4B"/><path d="M120.6 83.8442C120.6 80.3273 117.749 77.4763 114.232 77.4763C110.715 77.4763 107.864 80.3273 107.864 83.8442V90.2122C107.864 93.7291 110.715 96.5801 114.232 96.5801C117.749 96.5801 120.6 93.7291 120.6 90.2122V83.8442Z" fill="#4B4B4B"/><path opacity="0.3" d="M237.58 220H8.50868C5.83685 220 3.6709 222.166 3.6709 224.838C3.6709 227.51 5.83685 229.676 8.50868 229.676H237.58C240.252 229.676 242.417 227.51 242.417 224.838C242.417 222.166 240.252 220 237.58 220Z" fill="#AFAFAF"/></svg>