<svg width="594" height="347" viewBox="0 0 594 347" fill="none" xmlns="http://www.w3.org/2000/svg"><path fill-rule="evenodd" clip-rule="evenodd" d="M394.014 75.5774C398.62 75.5774 402.354 71.8435 402.354 67.2374C402.354 62.6314 398.62 58.8975 394.014 58.8975C389.408 58.8975 385.674 62.6314 385.674 67.2374C385.674 71.8435 389.408 75.5774 394.014 75.5774Z" fill="#FFC800"/><path fill-rule="evenodd" clip-rule="evenodd" d="M394.014 112.909C398.62 112.909 402.354 109.175 402.354 104.569C402.354 99.9627 398.62 96.2288 394.014 96.2288C389.408 96.2288 385.674 99.9627 385.674 104.569C385.674 109.175 389.408 112.909 394.014 112.909Z" fill="#FFAADE"/><path fill-rule="evenodd" clip-rule="evenodd" d="M394.014 149.446C398.62 149.446 402.354 145.712 402.354 141.106C402.354 136.5 398.62 132.766 394.014 132.766C389.408 132.766 385.674 136.5 385.674 141.106C385.674 145.712 389.408 149.446 394.014 149.446Z" fill="#E5A259"/><path fill-rule="evenodd" clip-rule="evenodd" d="M394.014 185.983C398.62 185.983 402.354 182.249 402.354 177.643C402.354 173.037 398.62 169.303 394.014 169.303C389.408 169.303 385.674 173.037 385.674 177.643C385.674 182.249 389.408 185.983 394.014 185.983Z" fill="#58CC02"/><path fill-rule="evenodd" clip-rule="evenodd" d="M394.014 223.314C398.62 223.314 402.354 219.58 402.354 214.974C402.354 210.368 398.62 206.634 394.014 206.634C389.408 206.634 385.674 210.368 385.674 214.974C385.674 219.58 389.408 223.314 394.014 223.314Z" fill="#CE82FF"/><path fill-rule="evenodd" clip-rule="evenodd" d="M394.014 260.645C398.62 260.645 402.354 256.911 402.354 252.305C402.354 247.699 398.62 243.965 394.014 243.965C389.408 243.965 385.674 247.699 385.674 252.305C385.674 256.911 389.408 260.645 394.014 260.645Z" fill="#FF5151"/><path fill-rule="evenodd" clip-rule="evenodd" d="M394.014 297.182C398.62 297.182 402.354 293.448 402.354 288.842C402.354 284.236 398.62 280.502 394.014 280.502C389.408 280.502 385.674 284.236 385.674 288.842C385.674 293.448 389.408 297.182 394.014 297.182Z" fill="#49C0F8"/><path d="M417.447 71.8837C417.447 72.5646 417.866 73.0011 418.564 73.0011H422.126C424.692 73.0011 426.246 71.8837 426.246 69.5441C426.246 68.1299 425.443 67.1696 424.658 66.8553V66.8204C425.461 66.3839 426.037 65.5633 426.037 64.2888C426.037 62.4031 424.832 61.1286 422.248 61.1286H418.564C417.866 61.1286 417.447 61.5825 417.447 62.2634V71.8837ZM420.118 65.9823C420.048 65.9823 420.013 65.9474 420.013 65.8776V63.311C420.013 63.2412 420.048 63.2063 420.118 63.2063H421.916C422.912 63.2063 423.488 63.6951 423.488 64.5856C423.488 65.476 422.894 65.9823 421.916 65.9823H420.118ZM420.013 70.8186V68.06C420.013 67.9902 420.048 67.9553 420.118 67.9553H422.056C423.104 67.9553 423.68 68.5314 423.68 69.4219C423.68 70.3647 423.104 70.9234 422.056 70.9234H420.118C420.048 70.9234 420.013 70.8885 420.013 70.8186Z" fill="#FFC800"/><path d="M434.232 73.1058C434.947 73.1058 435.454 72.617 435.454 71.8138V65.7379C435.454 64.9348 434.93 64.4459 434.232 64.4459C433.516 64.4459 433.009 64.9348 433.009 65.7379V69.579C433.009 70.5044 432.573 71.1154 431.717 71.1154C430.844 71.1154 430.425 70.5044 430.425 69.579V65.7379C430.425 64.9348 429.919 64.4459 429.221 64.4459C428.505 64.4459 427.981 64.9348 427.981 65.7379V70.0504C427.981 71.8837 428.941 73.1931 430.809 73.1931C431.892 73.1931 432.625 72.7566 433.044 72.2154H433.062C433.201 72.7741 433.655 73.1058 434.232 73.1058Z" fill="#FFC800"/><path d="M440.916 73.1931C443.308 73.1931 444.687 72.0233 444.687 70.2948C444.687 68.8806 443.866 67.9553 441.876 67.7283L440.95 67.6235C439.99 67.5188 439.781 67.3093 439.781 66.9251C439.781 66.5236 440.095 66.2617 440.846 66.2617C441.457 66.2617 442.033 66.3839 442.557 66.6283C442.888 66.7855 443.081 66.8379 443.255 66.8379C443.831 66.8379 444.215 66.4188 444.215 65.8776C444.215 65.4585 443.971 65.1617 443.5 64.9173C442.784 64.5507 441.876 64.3586 440.933 64.3586C438.716 64.3586 437.441 65.4236 437.441 67.0823C437.441 68.5489 438.366 69.4568 440.2 69.6663L441.125 69.7711C442.12 69.8758 442.347 70.0853 442.347 70.4869C442.347 70.9583 441.928 71.2726 441.038 71.2726C440.217 71.2726 439.571 71.0107 438.96 70.6615C438.681 70.5044 438.471 70.4345 438.244 70.4345C437.686 70.4345 437.232 70.871 437.232 71.4123C437.232 71.8138 437.406 72.1281 437.825 72.39C438.524 72.8265 439.589 73.1931 440.916 73.1931Z" fill="#FFC800"/><path d="M447.688 63.6951C448.456 63.6951 449.067 63.084 449.067 62.3158C449.067 61.5476 448.456 60.9365 447.688 60.9365C446.92 60.9365 446.309 61.5476 446.309 62.3158C446.309 63.084 446.92 63.6951 447.688 63.6951ZM447.688 73.1058C448.386 73.1058 448.91 72.617 448.91 71.8138V65.7379C448.91 64.9348 448.386 64.4459 447.688 64.4459C446.972 64.4459 446.466 64.9348 446.466 65.7379V71.8138C446.466 72.617 446.972 73.1058 447.688 73.1058Z" fill="#FFC800"/><path d="M457.406 73.1058C458.122 73.1058 458.628 72.617 458.628 71.8138V67.5013C458.628 65.6681 457.616 64.3586 455.748 64.3586C454.665 64.3586 453.932 64.7951 453.513 65.3363H453.495C453.356 64.7776 452.902 64.4459 452.326 64.4459C451.61 64.4459 451.103 64.9348 451.103 65.7379V71.8138C451.103 72.617 451.61 73.1058 452.326 73.1058C453.024 73.1058 453.548 72.617 453.548 71.8138V67.9727C453.548 67.0474 453.984 66.4363 454.857 66.4363C455.73 66.4363 456.184 67.0474 456.184 67.9727V71.8138C456.184 72.617 456.708 73.1058 457.406 73.1058Z" fill="#FFC800"/><path d="M464.385 73.1931C465.695 73.1931 466.638 72.8439 467.441 72.2852C467.755 72.0757 467.93 71.7789 467.93 71.4123C467.93 70.8885 467.546 70.5044 467.039 70.5044C466.795 70.5044 466.498 70.5917 466.201 70.7663C465.747 71.0107 465.189 71.2027 464.612 71.2027C463.739 71.2027 463.093 70.8186 462.866 70.1028C462.814 69.9457 462.779 69.7885 462.779 69.6139C462.779 69.5441 462.814 69.5092 462.884 69.5092H467.371C467.877 69.5092 468.174 69.1774 468.174 68.706C468.174 67.9203 468.087 67.3267 467.895 66.7331C467.406 65.2316 466.114 64.3586 464.246 64.3586C462.447 64.3586 461.103 65.2141 460.597 66.7506C460.422 67.2743 460.335 67.8854 460.335 68.7759C460.335 69.6488 460.44 70.2599 460.614 70.7837C461.103 72.3027 462.43 73.1931 464.385 73.1931ZM462.884 67.8854C462.814 67.8854 462.779 67.8505 462.779 67.7807C462.779 67.5013 462.814 67.3267 462.866 67.1521C463.058 66.5585 463.565 66.2268 464.263 66.2268C464.962 66.2268 465.485 66.5585 465.677 67.1521C465.73 67.3267 465.765 67.5013 465.765 67.7807C465.765 67.8505 465.73 67.8854 465.66 67.8854H462.884Z" fill="#FFC800"/><path d="M473.226 73.1931C475.618 73.1931 476.997 72.0233 476.997 70.2948C476.997 68.8806 476.177 67.9553 474.186 67.7283L473.261 67.6235C472.301 67.5188 472.091 67.3093 472.091 66.9251C472.091 66.5236 472.405 66.2617 473.156 66.2617C473.767 66.2617 474.343 66.3839 474.867 66.6283C475.199 66.7855 475.391 66.8379 475.566 66.8379C476.142 66.8379 476.526 66.4188 476.526 65.8776C476.526 65.4585 476.281 65.1617 475.81 64.9173C475.094 64.5507 474.186 64.3586 473.243 64.3586C471.026 64.3586 469.751 65.4236 469.751 67.0823C469.751 68.5489 470.677 69.4568 472.51 69.6663L473.435 69.7711C474.431 69.8758 474.658 70.0853 474.658 70.4869C474.658 70.9583 474.239 71.2726 473.348 71.2726C472.528 71.2726 471.882 71.0107 471.27 70.6615C470.991 70.5044 470.782 70.4345 470.555 70.4345C469.996 70.4345 469.542 70.871 469.542 71.4123C469.542 71.8138 469.717 72.1281 470.136 72.39C470.834 72.8265 471.899 73.1931 473.226 73.1931Z" fill="#FFC800"/><path d="M482.041 73.1931C484.433 73.1931 485.812 72.0233 485.812 70.2948C485.812 68.8806 484.992 67.9553 483.001 67.7283L482.076 67.6235C481.116 67.5188 480.906 67.3093 480.906 66.9251C480.906 66.5236 481.22 66.2617 481.971 66.2617C482.582 66.2617 483.158 66.3839 483.682 66.6283C484.014 66.7855 484.206 66.8379 484.381 66.8379C484.957 66.8379 485.341 66.4188 485.341 65.8776C485.341 65.4585 485.096 65.1617 484.625 64.9173C483.909 64.5507 483.001 64.3586 482.058 64.3586C479.841 64.3586 478.567 65.4236 478.567 67.0823C478.567 68.5489 479.492 69.4568 481.325 69.6663L482.25 69.7711C483.246 69.8758 483.473 70.0853 483.473 70.4869C483.473 70.9583 483.054 71.2726 482.163 71.2726C481.343 71.2726 480.697 71.0107 480.086 70.6615C479.806 70.5044 479.597 70.4345 479.37 70.4345C478.811 70.4345 478.357 70.871 478.357 71.4123C478.357 71.8138 478.532 72.1281 478.951 72.39C479.649 72.8265 480.714 73.1931 482.041 73.1931Z" fill="#FFC800"/><path d="M417.445 108.561C417.445 109.346 417.934 109.8 418.632 109.8C419.296 109.8 419.784 109.346 419.784 108.561V102.834H419.872L421.722 107.094C422.089 107.932 422.386 108.177 422.98 108.177C423.573 108.177 423.87 107.932 424.237 107.094L426.07 102.834H426.157V108.561C426.157 109.346 426.629 109.8 427.327 109.8C428.025 109.8 428.497 109.346 428.497 108.561V99.2548C428.497 98.312 427.955 97.7184 427.1 97.7184C426.332 97.7184 425.913 98.1374 425.529 99.0453L423.049 104.772H422.98L420.448 99.0453C420.046 98.1374 419.627 97.7184 418.859 97.7184C418.004 97.7184 417.445 98.312 417.445 99.2548V108.561Z" fill="#FFAADE"/><path d="M438.199 107.95L437.972 107.566C437.85 107.356 437.815 107.164 437.815 106.762V104.458C437.815 102.345 436.593 101.053 434.044 101.053C432.874 101.053 432.018 101.263 431.46 101.542C431.006 101.769 430.831 102.153 430.831 102.52C430.831 103.113 431.233 103.498 431.809 103.498C431.983 103.498 432.175 103.445 432.385 103.375C432.699 103.253 433.223 103.131 433.747 103.131C434.917 103.131 435.475 103.602 435.475 104.388V104.475C435.475 104.545 435.44 104.58 435.37 104.58H433.851C431.756 104.58 430.36 105.436 430.36 107.304C430.36 108.91 431.407 109.888 433.572 109.888C434.62 109.888 435.528 109.573 435.964 109.032H435.982L436.191 109.329C436.418 109.643 436.767 109.8 437.186 109.8C437.867 109.8 438.408 109.312 438.408 108.666C438.408 108.421 438.339 108.177 438.199 107.95ZM433.904 108.054C433.101 108.054 432.682 107.758 432.682 107.164C432.682 106.518 433.153 106.204 434.183 106.204H435.37C435.44 106.204 435.475 106.239 435.475 106.309V106.885C435.475 107.67 434.934 108.054 433.904 108.054Z" fill="#FFAADE"/><path d="M441.173 109.8C441.871 109.8 442.395 109.312 442.395 108.508V105.069C442.395 103.934 442.779 103.288 443.687 103.288C443.879 103.288 444.141 103.323 444.315 103.375C444.49 103.428 444.665 103.463 444.839 103.463C445.555 103.463 446.044 102.939 446.044 102.223C446.044 101.804 445.834 101.437 445.398 101.228C445.171 101.123 444.892 101.053 444.507 101.053C443.547 101.053 442.761 101.542 442.377 102.101H442.36V102.083C442.22 101.472 441.749 101.14 441.173 101.14C440.457 101.14 439.95 101.629 439.95 102.432V108.508C439.95 109.312 440.457 109.8 441.173 109.8Z" fill="#FFAADE"/><path d="M453.686 109.8C454.332 109.8 454.856 109.312 454.856 108.683C454.856 108.456 454.804 108.229 454.664 108.002L452.447 104.493L454.036 103.009C454.315 102.747 454.42 102.467 454.42 102.118C454.42 101.542 453.966 101.14 453.442 101.14C453.093 101.14 452.796 101.28 452.499 101.577L449.863 104.283V99.0104C449.863 98.2073 449.339 97.7184 448.641 97.7184C447.925 97.7184 447.419 98.2073 447.419 99.0104V108.508C447.419 109.312 447.925 109.8 448.641 109.8C449.339 109.8 449.863 109.312 449.863 108.508V106.937L450.736 106.029L452.587 109.137C452.848 109.573 453.233 109.8 453.686 109.8Z" fill="#FFAADE"/><path d="M460.019 109.888C461.328 109.888 462.271 109.539 463.074 108.98C463.388 108.77 463.563 108.473 463.563 108.107C463.563 107.583 463.179 107.199 462.672 107.199C462.428 107.199 462.131 107.286 461.834 107.461C461.38 107.705 460.822 107.897 460.246 107.897C459.373 107.897 458.727 107.513 458.5 106.797C458.447 106.64 458.412 106.483 458.412 106.309C458.412 106.239 458.447 106.204 458.517 106.204H463.004C463.51 106.204 463.807 105.872 463.807 105.401C463.807 104.615 463.72 104.021 463.528 103.428C463.039 101.926 461.747 101.053 459.879 101.053C458.081 101.053 456.736 101.909 456.23 103.445C456.055 103.969 455.968 104.58 455.968 105.47C455.968 106.343 456.073 106.955 456.247 107.478C456.736 108.997 458.063 109.888 460.019 109.888ZM458.517 104.58C458.447 104.58 458.412 104.545 458.412 104.475C458.412 104.196 458.447 104.021 458.5 103.847C458.692 103.253 459.198 102.921 459.896 102.921C460.595 102.921 461.119 103.253 461.311 103.847C461.363 104.021 461.398 104.196 461.398 104.475C461.398 104.545 461.363 104.58 461.293 104.58H458.517Z" fill="#FFAADE"/><path d="M468.58 109.8C469.505 109.8 469.924 109.346 469.924 108.753C469.924 108.229 469.61 107.758 468.842 107.67C468.388 107.618 468.196 107.408 468.196 106.902V103.166C468.196 103.096 468.231 103.061 468.3 103.061H468.964C469.592 103.061 469.942 102.694 469.942 102.153C469.942 101.612 469.592 101.245 468.964 101.245H468.3C468.231 101.245 468.196 101.21 468.196 101.14V99.8834C468.196 99.0802 467.689 98.5914 466.991 98.5914C466.275 98.5914 465.769 99.0802 465.769 99.8834V101.14C465.769 101.21 465.716 101.245 465.647 101.245H465.577C464.948 101.245 464.599 101.612 464.599 102.153C464.599 102.694 464.948 103.061 465.577 103.061H465.647C465.716 103.061 465.769 103.096 465.769 103.166V106.972C465.769 108.893 466.485 109.8 468.475 109.8H468.58Z" fill="#FFAADE"/><path d="M472.596 100.39C473.365 100.39 473.976 99.7786 473.976 99.0104C473.976 98.2422 473.365 97.6311 472.596 97.6311C471.828 97.6311 471.217 98.2422 471.217 99.0104C471.217 99.7786 471.828 100.39 472.596 100.39ZM472.596 109.8C473.295 109.8 473.819 109.312 473.819 108.508V102.432C473.819 101.629 473.295 101.14 472.596 101.14C471.881 101.14 471.374 101.629 471.374 102.432V108.508C471.374 109.312 471.881 109.8 472.596 109.8Z" fill="#FFAADE"/><path d="M482.315 109.8C483.031 109.8 483.537 109.312 483.537 108.508V104.196C483.537 102.363 482.524 101.053 480.656 101.053C479.574 101.053 478.84 101.49 478.421 102.031H478.404C478.264 101.472 477.81 101.14 477.234 101.14C476.518 101.14 476.012 101.629 476.012 102.432V108.508C476.012 109.312 476.518 109.8 477.234 109.8C477.932 109.8 478.456 109.312 478.456 108.508V104.667C478.456 103.742 478.893 103.131 479.766 103.131C480.639 103.131 481.093 103.742 481.093 104.667V108.508C481.093 109.312 481.616 109.8 482.315 109.8Z" fill="#FFAADE"/><path d="M488.753 113.03C491.529 113.03 492.961 111.616 492.961 108.77V102.432C492.961 101.629 492.454 101.14 491.738 101.14C491.057 101.14 490.691 101.577 490.569 102.031H490.551C490.167 101.49 489.469 101.053 488.351 101.053C486.954 101.053 485.942 101.804 485.505 103.148C485.313 103.742 485.226 104.423 485.226 105.209C485.226 106.012 485.313 106.675 485.505 107.269C485.942 108.613 486.954 109.364 488.351 109.364C489.364 109.364 490.045 109.015 490.499 108.421H490.516V109.102C490.516 110.342 489.957 110.918 488.875 110.918C488.473 110.918 488.037 110.778 487.653 110.569C487.304 110.377 487.007 110.254 486.693 110.254C486.099 110.254 485.662 110.743 485.662 111.284C485.662 111.546 485.767 111.843 485.994 112.088C486.413 112.559 487.6 113.03 488.753 113.03ZM489.119 107.321C488.473 107.321 488.072 107.024 487.862 106.396C487.758 106.082 487.705 105.68 487.705 105.226C487.705 104.772 487.758 104.353 487.862 104.039C488.072 103.41 488.473 103.113 489.119 103.113C489.765 103.113 490.15 103.41 490.359 104.039C490.464 104.353 490.516 104.772 490.516 105.226C490.516 105.68 490.464 106.082 490.359 106.396C490.15 107.024 489.765 107.321 489.119 107.321Z" fill="#FFAADE"/><path d="M417.445 183.151C417.445 183.832 417.864 184.269 418.562 184.269H421.373C423.905 184.269 425.476 183.466 426.105 181.528C426.332 180.847 426.454 180.026 426.454 178.333C426.454 176.639 426.332 175.818 426.105 175.138C425.476 173.2 423.905 172.396 421.373 172.396H418.562C417.864 172.396 417.445 172.85 417.445 173.531V183.151ZM420.011 181.877V174.788C420.011 174.719 420.046 174.684 420.116 174.684H421.303C422.491 174.684 423.346 175.085 423.643 176.028C423.765 176.43 423.852 177.128 423.852 178.333C423.852 179.537 423.765 180.236 423.643 180.637C423.346 181.58 422.491 181.982 421.303 181.982H420.116C420.046 181.982 420.011 181.947 420.011 181.877Z" fill="#58CC02"/><path d="M432.005 184.461C433.314 184.461 434.257 184.112 435.06 183.553C435.375 183.344 435.549 183.047 435.549 182.68C435.549 182.156 435.165 181.772 434.659 181.772C434.414 181.772 434.117 181.859 433.821 182.034C433.367 182.279 432.808 182.471 432.232 182.471C431.359 182.471 430.713 182.086 430.486 181.371C430.434 181.213 430.399 181.056 430.399 180.882C430.399 180.812 430.434 180.777 430.503 180.777H434.99C435.497 180.777 435.794 180.445 435.794 179.974C435.794 179.188 435.706 178.595 435.514 178.001C435.025 176.499 433.733 175.626 431.865 175.626C430.067 175.626 428.722 176.482 428.216 178.018C428.042 178.542 427.954 179.153 427.954 180.044C427.954 180.917 428.059 181.528 428.234 182.052C428.722 183.571 430.049 184.461 432.005 184.461ZM430.503 179.153C430.434 179.153 430.399 179.118 430.399 179.048C430.399 178.769 430.434 178.595 430.486 178.42C430.678 177.826 431.184 177.495 431.883 177.495C432.581 177.495 433.105 177.826 433.297 178.42C433.349 178.595 433.384 178.769 433.384 179.048C433.384 179.118 433.349 179.153 433.279 179.153H430.503Z" fill="#58CC02"/><path d="M440.845 184.461C443.237 184.461 444.617 183.291 444.617 181.563C444.617 180.148 443.796 179.223 441.806 178.996L440.88 178.891C439.92 178.787 439.711 178.577 439.711 178.193C439.711 177.791 440.025 177.53 440.776 177.53C441.387 177.53 441.963 177.652 442.487 177.896C442.818 178.053 443.01 178.106 443.185 178.106C443.761 178.106 444.145 177.687 444.145 177.145C444.145 176.726 443.901 176.43 443.429 176.185C442.714 175.818 441.806 175.626 440.863 175.626C438.645 175.626 437.371 176.691 437.371 178.35C437.371 179.817 438.296 180.725 440.13 180.934L441.055 181.039C442.05 181.144 442.277 181.353 442.277 181.755C442.277 182.226 441.858 182.54 440.968 182.54C440.147 182.54 439.501 182.279 438.89 181.929C438.611 181.772 438.401 181.702 438.174 181.702C437.615 181.702 437.161 182.139 437.161 182.68C437.161 183.082 437.336 183.396 437.755 183.658C438.453 184.094 439.518 184.461 440.845 184.461Z" fill="#58CC02"/><path d="M447.618 174.963C448.386 174.963 448.997 174.352 448.997 173.584C448.997 172.815 448.386 172.204 447.618 172.204C446.849 172.204 446.238 172.815 446.238 173.584C446.238 174.352 446.849 174.963 447.618 174.963ZM447.618 184.374C448.316 184.374 448.84 183.885 448.84 183.082V177.006C448.84 176.203 448.316 175.714 447.618 175.714C446.902 175.714 446.395 176.203 446.395 177.006V183.082C446.395 183.885 446.902 184.374 447.618 184.374Z" fill="#58CC02"/><path d="M454.124 187.604C456.9 187.604 458.331 186.189 458.331 183.344V177.006C458.331 176.203 457.825 175.714 457.109 175.714C456.428 175.714 456.062 176.15 455.939 176.604H455.922C455.538 176.063 454.839 175.626 453.722 175.626C452.325 175.626 451.313 176.377 450.876 177.722C450.684 178.315 450.597 178.996 450.597 179.782C450.597 180.585 450.684 181.248 450.876 181.842C451.313 183.186 452.325 183.937 453.722 183.937C454.735 183.937 455.416 183.588 455.869 182.994H455.887V183.675C455.887 184.915 455.328 185.491 454.246 185.491C453.844 185.491 453.408 185.351 453.024 185.142C452.674 184.95 452.378 184.828 452.063 184.828C451.47 184.828 451.033 185.316 451.033 185.858C451.033 186.12 451.138 186.416 451.365 186.661C451.784 187.132 452.971 187.604 454.124 187.604ZM454.49 181.894C453.844 181.894 453.443 181.598 453.233 180.969C453.128 180.655 453.076 180.253 453.076 179.799C453.076 179.345 453.128 178.926 453.233 178.612C453.443 177.983 453.844 177.687 454.49 177.687C455.136 177.687 455.52 177.983 455.73 178.612C455.835 178.926 455.887 179.345 455.887 179.799C455.887 180.253 455.835 180.655 455.73 180.969C455.52 181.598 455.136 181.894 454.49 181.894Z" fill="#58CC02"/><path d="M466.833 184.374C467.549 184.374 468.055 183.885 468.055 183.082V178.769C468.055 176.936 467.043 175.626 465.174 175.626C464.092 175.626 463.359 176.063 462.94 176.604H462.922C462.782 176.045 462.329 175.714 461.752 175.714C461.037 175.714 460.53 176.203 460.53 177.006V183.082C460.53 183.885 461.037 184.374 461.752 184.374C462.451 184.374 462.975 183.885 462.975 183.082V179.241C462.975 178.315 463.411 177.704 464.284 177.704C465.157 177.704 465.611 178.315 465.611 179.241V183.082C465.611 183.885 466.135 184.374 466.833 184.374Z" fill="#58CC02"/><path d="M418.737 221.068C419.47 221.068 420.011 220.527 420.011 219.706V216.825C420.011 216.756 420.046 216.721 420.116 216.721H422.229C424.813 216.721 426.367 215.149 426.367 212.914C426.367 210.645 424.83 209.091 422.229 209.091H418.562C417.864 209.091 417.445 209.545 417.445 210.226V219.706C417.445 220.527 417.986 221.068 418.737 221.068ZM422.072 214.503H420.116C420.046 214.503 420.011 214.468 420.011 214.399V211.413C420.011 211.343 420.046 211.308 420.116 211.308H422.072C423.154 211.308 423.8 211.954 423.8 212.914C423.8 213.875 423.154 214.503 422.072 214.503Z" fill="#CE82FF"/><path d="M429.203 221.068C429.902 221.068 430.425 220.579 430.425 219.776V216.337C430.425 215.202 430.81 214.556 431.717 214.556C431.91 214.556 432.171 214.591 432.346 214.643C432.521 214.695 432.695 214.73 432.87 214.73C433.586 214.73 434.075 214.206 434.075 213.491C434.075 213.072 433.865 212.705 433.428 212.495C433.202 212.391 432.922 212.321 432.538 212.321C431.578 212.321 430.792 212.81 430.408 213.368H430.391V213.351C430.251 212.74 429.779 212.408 429.203 212.408C428.487 212.408 427.981 212.897 427.981 213.7V219.776C427.981 220.579 428.487 221.068 429.203 221.068Z" fill="#CE82FF"/><path d="M438.669 221.155C440.52 221.155 441.829 220.282 442.336 218.729C442.528 218.117 442.615 217.559 442.615 216.738C442.615 215.918 442.528 215.359 442.336 214.748C441.829 213.194 440.52 212.321 438.669 212.321C436.818 212.321 435.509 213.194 435.003 214.748C434.811 215.359 434.723 215.918 434.723 216.738C434.723 217.559 434.811 218.117 435.003 218.729C435.509 220.282 436.818 221.155 438.669 221.155ZM438.669 219.095C437.988 219.095 437.552 218.746 437.36 218.152C437.237 217.786 437.202 217.314 437.202 216.738C437.202 216.162 437.237 215.691 437.36 215.324C437.552 214.73 437.988 214.381 438.669 214.381C439.35 214.381 439.787 214.73 439.979 215.324C440.101 215.691 440.136 216.162 440.136 216.738C440.136 217.314 440.101 217.786 439.979 218.152C439.787 218.746 439.35 219.095 438.669 219.095Z" fill="#CE82FF"/><path d="M450.599 221.068C451.315 221.068 451.821 220.579 451.821 219.776V210.278C451.821 209.475 451.315 208.986 450.599 208.986C449.9 208.986 449.377 209.475 449.377 210.278V213.229H449.359C449.027 212.74 448.312 212.321 447.212 212.321C445.832 212.321 444.715 213.141 444.278 214.468C444.069 215.097 443.982 215.795 443.982 216.738C443.982 217.681 444.069 218.379 444.278 219.008C444.715 220.335 445.832 221.155 447.212 221.155C448.312 221.155 449.027 220.719 449.411 220.178H449.429C449.551 220.632 449.918 221.068 450.599 221.068ZM447.927 219.095C447.281 219.095 446.827 218.763 446.618 218.117C446.513 217.803 446.461 217.332 446.461 216.738C446.461 216.145 446.513 215.673 446.618 215.359C446.827 214.713 447.281 214.381 447.927 214.381C448.573 214.381 449.01 214.713 449.219 215.359C449.324 215.673 449.377 216.145 449.377 216.738C449.377 217.332 449.324 217.803 449.219 218.117C449.01 218.763 448.573 219.095 447.927 219.095Z" fill="#CE82FF"/><path d="M460.18 221.068C460.896 221.068 461.402 220.579 461.402 219.776V213.7C461.402 212.897 460.879 212.408 460.18 212.408C459.464 212.408 458.958 212.897 458.958 213.7V217.541C458.958 218.467 458.522 219.078 457.666 219.078C456.793 219.078 456.374 218.467 456.374 217.541V213.7C456.374 212.897 455.868 212.408 455.169 212.408C454.453 212.408 453.93 212.897 453.93 213.7V218.013C453.93 219.846 454.89 221.155 456.758 221.155C457.841 221.155 458.574 220.719 458.993 220.178H459.01C459.15 220.736 459.604 221.068 460.18 221.068Z" fill="#CE82FF"/><path d="M467.056 221.155C468.226 221.155 469.169 220.771 469.71 220.23C470.059 219.881 470.199 219.601 470.199 219.252C470.199 218.641 469.745 218.205 469.134 218.205C468.767 218.205 468.488 218.397 468.139 218.711C467.859 218.973 467.545 219.095 467.091 219.095C466.445 219.095 466.009 218.798 465.817 218.17C465.712 217.838 465.66 217.437 465.66 216.738C465.66 216.04 465.712 215.638 465.817 215.306C466.009 214.678 466.445 214.381 467.091 214.381C467.545 214.381 467.859 214.503 468.139 214.765C468.488 215.079 468.767 215.272 469.134 215.272C469.745 215.272 470.199 214.835 470.199 214.224C470.199 213.875 470.059 213.595 469.71 213.246C469.169 212.705 468.226 212.321 467.056 212.321C465.275 212.321 463.966 213.159 463.46 214.73C463.285 215.237 463.18 215.848 463.18 216.738C463.18 217.629 463.285 218.24 463.46 218.746C463.966 220.317 465.275 221.155 467.056 221.155Z" fill="#CE82FF"/><path d="M474.905 221.068C475.831 221.068 476.25 220.614 476.25 220.021C476.25 219.497 475.936 219.025 475.167 218.938C474.713 218.886 474.521 218.676 474.521 218.17V214.433C474.521 214.364 474.556 214.329 474.626 214.329H475.29C475.918 214.329 476.267 213.962 476.267 213.421C476.267 212.88 475.918 212.513 475.29 212.513H474.626C474.556 212.513 474.521 212.478 474.521 212.408V211.151C474.521 210.348 474.015 209.859 473.317 209.859C472.601 209.859 472.094 210.348 472.094 211.151V212.408C472.094 212.478 472.042 212.513 471.972 212.513H471.902C471.274 212.513 470.925 212.88 470.925 213.421C470.925 213.962 471.274 214.329 471.902 214.329H471.972C472.042 214.329 472.094 214.364 472.094 214.433V218.24C472.094 220.16 472.81 221.068 474.801 221.068H474.905Z" fill="#CE82FF"/><path d="M481.861 219.828C481.861 220.614 482.35 221.068 483.048 221.068C483.712 221.068 484.201 220.614 484.201 219.828V214.102H484.288L486.139 218.362C486.505 219.2 486.802 219.444 487.396 219.444C487.989 219.444 488.286 219.2 488.653 218.362L490.486 214.102H490.573V219.828C490.573 220.614 491.045 221.068 491.743 221.068C492.441 221.068 492.913 220.614 492.913 219.828V210.523C492.913 209.58 492.372 208.986 491.516 208.986C490.748 208.986 490.329 209.405 489.945 210.313L487.466 216.04H487.396L484.864 210.313C484.462 209.405 484.043 208.986 483.275 208.986C482.42 208.986 481.861 209.58 481.861 210.523V219.828Z" fill="#CE82FF"/><path d="M502.615 219.217L502.388 218.833C502.266 218.624 502.231 218.432 502.231 218.03V215.725C502.231 213.613 501.009 212.321 498.46 212.321C497.29 212.321 496.434 212.53 495.876 212.81C495.422 213.037 495.247 213.421 495.247 213.787C495.247 214.381 495.649 214.765 496.225 214.765C496.4 214.765 496.592 214.713 496.801 214.643C497.115 214.521 497.639 214.399 498.163 214.399C499.333 214.399 499.891 214.87 499.891 215.656V215.743C499.891 215.813 499.856 215.848 499.787 215.848H498.268C496.173 215.848 494.776 216.703 494.776 218.571C494.776 220.178 495.823 221.155 497.988 221.155C499.036 221.155 499.944 220.841 500.38 220.3H500.398L500.607 220.597C500.834 220.911 501.183 221.068 501.602 221.068C502.283 221.068 502.825 220.579 502.825 219.933C502.825 219.689 502.755 219.444 502.615 219.217ZM498.32 219.322C497.517 219.322 497.098 219.025 497.098 218.432C497.098 217.786 497.569 217.471 498.599 217.471H499.787C499.856 217.471 499.891 217.506 499.891 217.576V218.152C499.891 218.938 499.35 219.322 498.32 219.322Z" fill="#CE82FF"/><path d="M510.67 221.068C511.385 221.068 511.892 220.579 511.892 219.776V215.464C511.892 213.63 510.879 212.321 509.011 212.321C507.928 212.321 507.195 212.757 506.776 213.299H506.759C506.619 212.74 506.165 212.408 505.589 212.408C504.873 212.408 504.367 212.897 504.367 213.7V219.776C504.367 220.579 504.873 221.068 505.589 221.068C506.287 221.068 506.811 220.579 506.811 219.776V215.935C506.811 215.01 507.247 214.399 508.12 214.399C508.993 214.399 509.447 215.01 509.447 215.935V219.776C509.447 220.579 509.971 221.068 510.67 221.068Z" fill="#CE82FF"/><path d="M521.49 219.217L521.263 218.833C521.141 218.624 521.106 218.432 521.106 218.03V215.725C521.106 213.613 519.884 212.321 517.334 212.321C516.165 212.321 515.309 212.53 514.75 212.81C514.296 213.037 514.122 213.421 514.122 213.787C514.122 214.381 514.523 214.765 515.1 214.765C515.274 214.765 515.466 214.713 515.676 214.643C515.99 214.521 516.514 214.399 517.038 214.399C518.207 214.399 518.766 214.87 518.766 215.656V215.743C518.766 215.813 518.731 215.848 518.661 215.848H517.142C515.047 215.848 513.65 216.703 513.65 218.571C513.65 220.178 514.698 221.155 516.863 221.155C517.911 221.155 518.819 220.841 519.255 220.3H519.272L519.482 220.597C519.709 220.911 520.058 221.068 520.477 221.068C521.158 221.068 521.699 220.579 521.699 219.933C521.699 219.689 521.63 219.444 521.49 219.217ZM517.195 219.322C516.392 219.322 515.973 219.025 515.973 218.432C515.973 217.786 516.444 217.471 517.474 217.471H518.661C518.731 217.471 518.766 217.506 518.766 217.576V218.152C518.766 218.938 518.225 219.322 517.195 219.322Z" fill="#CE82FF"/><path d="M526.332 224.298C529.108 224.298 530.539 222.884 530.539 220.038V213.7C530.539 212.897 530.033 212.408 529.317 212.408C528.636 212.408 528.27 212.845 528.148 213.299H528.13C527.746 212.757 527.048 212.321 525.93 212.321C524.533 212.321 523.521 213.072 523.084 214.416C522.892 215.01 522.805 215.691 522.805 216.476C522.805 217.279 522.892 217.943 523.084 218.536C523.521 219.881 524.533 220.632 525.93 220.632C526.943 220.632 527.624 220.282 528.078 219.689H528.095V220.37C528.095 221.609 527.536 222.186 526.454 222.186C526.052 222.186 525.616 222.046 525.232 221.836C524.883 221.644 524.586 221.522 524.271 221.522C523.678 221.522 523.241 222.011 523.241 222.552C523.241 222.814 523.346 223.111 523.573 223.355C523.992 223.827 525.179 224.298 526.332 224.298ZM526.698 218.589C526.052 218.589 525.651 218.292 525.441 217.663C525.337 217.349 525.284 216.948 525.284 216.494C525.284 216.04 525.337 215.621 525.441 215.306C525.651 214.678 526.052 214.381 526.698 214.381C527.344 214.381 527.728 214.678 527.938 215.306C528.043 215.621 528.095 216.04 528.095 216.494C528.095 216.948 528.043 217.349 527.938 217.663C527.728 218.292 527.344 218.589 526.698 218.589Z" fill="#CE82FF"/><path d="M536.37 221.155C537.679 221.155 538.622 220.806 539.425 220.247C539.74 220.038 539.914 219.741 539.914 219.375C539.914 218.851 539.53 218.467 539.024 218.467C538.779 218.467 538.483 218.554 538.186 218.729C537.732 218.973 537.173 219.165 536.597 219.165C535.724 219.165 535.078 218.781 534.851 218.065C534.799 217.908 534.764 217.751 534.764 217.576C534.764 217.506 534.799 217.471 534.868 217.471H539.356C539.862 217.471 540.159 217.14 540.159 216.668C540.159 215.883 540.071 215.289 539.879 214.695C539.391 213.194 538.099 212.321 536.23 212.321C534.432 212.321 533.088 213.176 532.581 214.713C532.407 215.237 532.319 215.848 532.319 216.738C532.319 217.611 532.424 218.222 532.599 218.746C533.088 220.265 534.415 221.155 536.37 221.155ZM534.868 215.848C534.799 215.848 534.764 215.813 534.764 215.743C534.764 215.464 534.799 215.289 534.851 215.114C535.043 214.521 535.549 214.189 536.248 214.189C536.946 214.189 537.47 214.521 537.662 215.114C537.714 215.289 537.749 215.464 537.749 215.743C537.749 215.813 537.714 215.848 537.645 215.848H534.868Z" fill="#CE82FF"/><path d="M553.329 221.068C554.045 221.068 554.551 220.579 554.551 219.776V215.464C554.551 213.613 553.539 212.321 551.548 212.321C550.344 212.321 549.506 212.74 548.895 213.421H548.877C548.388 212.705 547.62 212.321 546.59 212.321C545.507 212.321 544.774 212.757 544.355 213.299H544.338C544.198 212.74 543.744 212.408 543.168 212.408C542.452 212.408 541.946 212.897 541.946 213.7V219.776C541.946 220.579 542.452 221.068 543.168 221.068C543.866 221.068 544.39 220.579 544.39 219.776V215.935C544.39 215.01 544.826 214.399 545.699 214.399C546.572 214.399 547.026 215.01 547.026 215.935V219.776C547.026 220.579 547.55 221.068 548.249 221.068C548.964 221.068 549.471 220.579 549.471 219.776V215.935C549.471 215.01 549.925 214.399 550.78 214.399C551.653 214.399 552.107 215.01 552.107 215.935V219.776C552.107 220.579 552.631 221.068 553.329 221.068Z" fill="#CE82FF"/><path d="M560.309 221.155C561.618 221.155 562.561 220.806 563.364 220.247C563.678 220.038 563.853 219.741 563.853 219.375C563.853 218.851 563.469 218.467 562.963 218.467C562.718 218.467 562.421 218.554 562.124 218.729C561.671 218.973 561.112 219.165 560.536 219.165C559.663 219.165 559.017 218.781 558.79 218.065C558.737 217.908 558.702 217.751 558.702 217.576C558.702 217.506 558.737 217.471 558.807 217.471H563.294C563.801 217.471 564.097 217.14 564.097 216.668C564.097 215.883 564.01 215.289 563.818 214.695C563.329 213.194 562.037 212.321 560.169 212.321C558.371 212.321 557.026 213.176 556.52 214.713C556.345 215.237 556.258 215.848 556.258 216.738C556.258 217.611 556.363 218.222 556.537 218.746C557.026 220.265 558.353 221.155 560.309 221.155ZM558.807 215.848C558.737 215.848 558.702 215.813 558.702 215.743C558.702 215.464 558.737 215.289 558.79 215.114C558.982 214.521 559.488 214.189 560.186 214.189C560.885 214.189 561.409 214.521 561.601 215.114C561.653 215.289 561.688 215.464 561.688 215.743C561.688 215.813 561.653 215.848 561.583 215.848H558.807Z" fill="#CE82FF"/><path d="M572.187 221.068C572.903 221.068 573.409 220.579 573.409 219.776V215.464C573.409 213.63 572.397 212.321 570.529 212.321C569.446 212.321 568.713 212.757 568.294 213.299H568.276C568.137 212.74 567.683 212.408 567.106 212.408C566.391 212.408 565.884 212.897 565.884 213.7V219.776C565.884 220.579 566.391 221.068 567.106 221.068C567.805 221.068 568.329 220.579 568.329 219.776V215.935C568.329 215.01 568.765 214.399 569.638 214.399C570.511 214.399 570.965 215.01 570.965 215.935V219.776C570.965 220.579 571.489 221.068 572.187 221.068Z" fill="#CE82FF"/><path d="M578.52 221.068C579.446 221.068 579.865 220.614 579.865 220.021C579.865 219.497 579.55 219.025 578.782 218.938C578.328 218.886 578.136 218.676 578.136 218.17V214.433C578.136 214.364 578.171 214.329 578.241 214.329H578.904C579.533 214.329 579.882 213.962 579.882 213.421C579.882 212.88 579.533 212.513 578.904 212.513H578.241C578.171 212.513 578.136 212.478 578.136 212.408V211.151C578.136 210.348 577.63 209.859 576.932 209.859C576.216 209.859 575.709 210.348 575.709 211.151V212.408C575.709 212.478 575.657 212.513 575.587 212.513H575.517C574.889 212.513 574.54 212.88 574.54 213.421C574.54 213.962 574.889 214.329 575.517 214.329H575.587C575.657 214.329 575.709 214.364 575.709 214.433V218.24C575.709 220.16 576.425 221.068 578.416 221.068H578.52Z" fill="#CE82FF"/><path d="M418.737 258.946C419.47 258.946 420.011 258.405 420.011 257.585V254.704C420.011 254.634 420.046 254.599 420.116 254.599H422.229C424.813 254.599 426.367 253.028 426.367 250.793C426.367 248.523 424.83 246.969 422.229 246.969H418.562C417.864 246.969 417.445 247.423 417.445 248.104V257.585C417.445 258.405 417.986 258.946 418.737 258.946ZM422.072 252.382H420.116C420.046 252.382 420.011 252.347 420.011 252.277V249.291C420.011 249.221 420.046 249.187 420.116 249.187H422.072C423.154 249.187 423.8 249.833 423.8 250.793C423.8 251.753 423.154 252.382 422.072 252.382Z" fill="#FF5151"/><path d="M431.51 259.034C432.82 259.034 433.763 258.685 434.566 258.126C434.88 257.916 435.055 257.619 435.055 257.253C435.055 256.729 434.671 256.345 434.164 256.345C433.92 256.345 433.623 256.432 433.326 256.607C432.872 256.851 432.314 257.043 431.737 257.043C430.864 257.043 430.218 256.659 429.991 255.943C429.939 255.786 429.904 255.629 429.904 255.454C429.904 255.385 429.939 255.35 430.009 255.35H434.496C435.002 255.35 435.299 255.018 435.299 254.547C435.299 253.761 435.212 253.167 435.02 252.574C434.531 251.072 433.239 250.199 431.371 250.199C429.572 250.199 428.228 251.055 427.722 252.591C427.547 253.115 427.46 253.726 427.46 254.616C427.46 255.489 427.565 256.101 427.739 256.624C428.228 258.143 429.555 259.034 431.51 259.034ZM430.009 253.726C429.939 253.726 429.904 253.691 429.904 253.621C429.904 253.342 429.939 253.167 429.991 252.993C430.183 252.399 430.69 252.067 431.388 252.067C432.087 252.067 432.61 252.399 432.802 252.993C432.855 253.167 432.89 253.342 432.89 253.621C432.89 253.691 432.855 253.726 432.785 253.726H430.009Z" fill="#FF5151"/><path d="M440.613 259.034C442.464 259.034 443.773 258.161 444.279 256.607C444.471 255.996 444.559 255.437 444.559 254.616C444.559 253.796 444.471 253.237 444.279 252.626C443.773 251.072 442.464 250.199 440.613 250.199C438.762 250.199 437.453 251.072 436.946 252.626C436.754 253.237 436.667 253.796 436.667 254.616C436.667 255.437 436.754 255.996 436.946 256.607C437.453 258.161 438.762 259.034 440.613 259.034ZM440.613 256.973C439.932 256.973 439.495 256.624 439.303 256.031C439.181 255.664 439.146 255.193 439.146 254.616C439.146 254.04 439.181 253.569 439.303 253.202C439.495 252.609 439.932 252.259 440.613 252.259C441.294 252.259 441.73 252.609 441.922 253.202C442.045 253.569 442.079 254.04 442.079 254.616C442.079 255.193 442.045 255.664 441.922 256.031C441.73 256.624 441.294 256.973 440.613 256.973Z" fill="#FF5151"/><path d="M447.567 262.089C448.265 262.089 448.789 261.6 448.789 260.797V258.126H448.806C449.138 258.615 449.854 259.034 450.954 259.034C452.333 259.034 453.45 258.213 453.887 256.886C454.096 256.258 454.184 255.559 454.184 254.616C454.184 253.674 454.096 252.975 453.887 252.347C453.45 251.02 452.333 250.199 450.954 250.199C449.854 250.199 449.138 250.636 448.754 251.177H448.736C448.614 250.723 448.247 250.286 447.567 250.286C446.851 250.286 446.344 250.775 446.344 251.578V260.797C446.344 261.6 446.851 262.089 447.567 262.089ZM450.238 256.973C449.592 256.973 449.155 256.642 448.946 255.996C448.841 255.681 448.789 255.21 448.789 254.616C448.789 254.023 448.841 253.551 448.946 253.237C449.155 252.591 449.592 252.259 450.238 252.259C450.884 252.259 451.338 252.591 451.547 253.237C451.652 253.551 451.704 254.023 451.704 254.616C451.704 255.21 451.652 255.681 451.547 255.996C451.338 256.642 450.884 256.973 450.238 256.973Z" fill="#FF5151"/><path d="M458.632 258.946C459.522 258.946 459.907 258.475 459.907 257.881C459.907 257.34 459.627 256.939 458.929 256.816C458.545 256.747 458.37 256.537 458.37 256.048V248.156C458.37 247.353 457.846 246.864 457.148 246.864C456.432 246.864 455.926 247.353 455.926 248.156V256.258C455.926 257.986 456.589 258.946 458.527 258.946H458.632Z" fill="#FF5151"/><path d="M464.895 259.034C466.204 259.034 467.147 258.685 467.95 258.126C468.265 257.916 468.439 257.619 468.439 257.253C468.439 256.729 468.055 256.345 467.549 256.345C467.304 256.345 467.008 256.432 466.711 256.607C466.257 256.851 465.698 257.043 465.122 257.043C464.249 257.043 463.603 256.659 463.376 255.943C463.324 255.786 463.289 255.629 463.289 255.454C463.289 255.385 463.324 255.35 463.393 255.35H467.881C468.387 255.35 468.684 255.018 468.684 254.547C468.684 253.761 468.596 253.167 468.404 252.574C467.915 251.072 466.623 250.199 464.755 250.199C462.957 250.199 461.613 251.055 461.106 252.591C460.932 253.115 460.844 253.726 460.844 254.616C460.844 255.489 460.949 256.101 461.124 256.624C461.613 258.143 462.939 259.034 464.895 259.034ZM463.393 253.726C463.324 253.726 463.289 253.691 463.289 253.621C463.289 253.342 463.324 253.167 463.376 252.993C463.568 252.399 464.074 252.067 464.773 252.067C465.471 252.067 465.995 252.399 466.187 252.993C466.239 253.167 466.274 253.342 466.274 253.621C466.274 253.691 466.239 253.726 466.17 253.726H463.393Z" fill="#FF5151"/><path d="M474.475 255.821C474.475 257.707 475.714 259.034 477.914 259.034C479.084 259.034 479.974 258.685 480.987 257.742L481.092 257.864C481.685 258.632 482.104 258.842 483.082 258.842H483.204C483.833 258.842 484.217 258.423 484.217 257.846C484.217 257.27 483.885 256.921 483.327 256.834C483.082 256.799 482.96 256.729 482.75 256.467L482.454 256.118L483.344 255.07C483.536 254.843 483.641 254.582 483.641 254.32C483.641 253.761 483.187 253.324 482.646 253.324C482.331 253.324 482.035 253.464 481.825 253.709L481.162 254.459L479.66 252.556C481.127 251.421 481.65 250.618 481.65 249.571C481.65 248.034 480.428 246.777 478.56 246.777C476.797 246.777 475.4 247.947 475.4 249.588C475.4 250.426 475.819 251.125 476.692 252.242C475.051 253.534 474.475 254.564 474.475 255.821ZM478.42 250.967C477.722 250.042 477.652 249.85 477.652 249.536C477.652 248.977 478.019 248.593 478.578 248.593C479.084 248.593 479.485 248.994 479.485 249.536C479.485 249.972 479.276 250.304 478.42 250.967ZM476.727 255.647C476.727 255.088 477.006 254.582 477.949 253.848L479.712 256.101C478.944 256.869 478.56 256.991 478.071 256.991C477.198 256.991 476.727 256.432 476.727 255.647Z" fill="#FF5151"/><path d="M490.079 257.585C490.079 258.405 490.621 258.946 491.371 258.946C492.105 258.946 492.646 258.405 492.646 257.585V254.197C492.646 254.128 492.681 254.093 492.751 254.093H496.103C496.854 254.093 497.29 253.639 497.29 252.993C497.29 252.347 496.854 251.893 496.103 251.893H492.751C492.681 251.893 492.646 251.858 492.646 251.788V249.291C492.646 249.221 492.681 249.187 492.751 249.187H496.958C497.674 249.187 498.146 248.715 498.146 248.087C498.146 247.441 497.674 246.969 496.958 246.969H491.197C490.498 246.969 490.079 247.423 490.079 248.104V257.585Z" fill="#FF5151"/><path d="M500.985 249.536C501.753 249.536 502.365 248.925 502.365 248.156C502.365 247.388 501.753 246.777 500.985 246.777C500.217 246.777 499.606 247.388 499.606 248.156C499.606 248.925 500.217 249.536 500.985 249.536ZM500.985 258.946C501.684 258.946 502.207 258.458 502.207 257.654V251.578C502.207 250.775 501.684 250.286 500.985 250.286C500.269 250.286 499.763 250.775 499.763 251.578V257.654C499.763 258.458 500.269 258.946 500.985 258.946Z" fill="#FF5151"/><path d="M510.704 258.946C511.419 258.946 511.926 258.458 511.926 257.654V253.342C511.926 251.509 510.913 250.199 509.045 250.199C507.962 250.199 507.229 250.636 506.81 251.177H506.793C506.653 250.618 506.199 250.286 505.623 250.286C504.907 250.286 504.401 250.775 504.401 251.578V257.654C504.401 258.458 504.907 258.946 505.623 258.946C506.321 258.946 506.845 258.458 506.845 257.654V253.813C506.845 252.888 507.282 252.277 508.155 252.277C509.028 252.277 509.481 252.888 509.481 253.813V257.654C509.481 258.458 510.005 258.946 510.704 258.946Z" fill="#FF5151"/><path d="M521.524 257.096L521.297 256.712C521.175 256.502 521.14 256.31 521.14 255.908V253.604C521.14 251.491 519.918 250.199 517.369 250.199C516.199 250.199 515.343 250.409 514.785 250.688C514.331 250.915 514.156 251.299 514.156 251.666C514.156 252.259 514.558 252.644 515.134 252.644C515.308 252.644 515.5 252.591 515.71 252.521C516.024 252.399 516.548 252.277 517.072 252.277C518.242 252.277 518.8 252.748 518.8 253.534V253.621C518.8 253.691 518.765 253.726 518.695 253.726H517.177C515.081 253.726 513.685 254.582 513.685 256.45C513.685 258.056 514.732 259.034 516.897 259.034C517.945 259.034 518.853 258.719 519.289 258.178H519.307L519.516 258.475C519.743 258.789 520.092 258.946 520.511 258.946C521.192 258.946 521.733 258.458 521.733 257.812C521.733 257.567 521.664 257.323 521.524 257.096ZM517.229 257.2C516.426 257.2 516.007 256.904 516.007 256.31C516.007 255.664 516.478 255.35 517.508 255.35H518.695C518.765 255.35 518.8 255.385 518.8 255.454V256.031C518.8 256.816 518.259 257.2 517.229 257.2Z" fill="#FF5151"/><path d="M529.578 258.946C530.294 258.946 530.801 258.458 530.801 257.654V253.342C530.801 251.509 529.788 250.199 527.92 250.199C526.837 250.199 526.104 250.636 525.685 251.177H525.667C525.528 250.618 525.074 250.286 524.498 250.286C523.782 250.286 523.275 250.775 523.275 251.578V257.654C523.275 258.458 523.782 258.946 524.498 258.946C525.196 258.946 525.72 258.458 525.72 257.654V253.813C525.72 252.888 526.156 252.277 527.029 252.277C527.902 252.277 528.356 252.888 528.356 253.813V257.654C528.356 258.458 528.88 258.946 529.578 258.946Z" fill="#FF5151"/><path d="M536.383 259.034C537.553 259.034 538.496 258.65 539.037 258.108C539.386 257.759 539.526 257.48 539.526 257.131C539.526 256.52 539.072 256.083 538.461 256.083C538.094 256.083 537.815 256.275 537.465 256.589C537.186 256.851 536.872 256.973 536.418 256.973C535.772 256.973 535.335 256.677 535.143 256.048C535.039 255.716 534.986 255.315 534.986 254.616C534.986 253.918 535.039 253.516 535.143 253.185C535.335 252.556 535.772 252.259 536.418 252.259C536.872 252.259 537.186 252.382 537.465 252.644C537.815 252.958 538.094 253.15 538.461 253.15C539.072 253.15 539.526 252.713 539.526 252.102C539.526 251.753 539.386 251.474 539.037 251.125C538.496 250.583 537.553 250.199 536.383 250.199C534.602 250.199 533.293 251.037 532.786 252.609C532.612 253.115 532.507 253.726 532.507 254.616C532.507 255.507 532.612 256.118 532.786 256.624C533.293 258.196 534.602 259.034 536.383 259.034Z" fill="#FF5151"/><path d="M544.878 259.034C546.188 259.034 547.13 258.685 547.934 258.126C548.248 257.916 548.422 257.619 548.422 257.253C548.422 256.729 548.038 256.345 547.532 256.345C547.288 256.345 546.991 256.432 546.694 256.607C546.24 256.851 545.681 257.043 545.105 257.043C544.232 257.043 543.586 256.659 543.359 255.943C543.307 255.786 543.272 255.629 543.272 255.454C543.272 255.385 543.307 255.35 543.377 255.35H547.864C548.37 255.35 548.667 255.018 548.667 254.547C548.667 253.761 548.58 253.167 548.387 252.574C547.899 251.072 546.607 250.199 544.738 250.199C542.94 250.199 541.596 251.055 541.089 252.591C540.915 253.115 540.828 253.726 540.828 254.616C540.828 255.489 540.932 256.101 541.107 256.624C541.596 258.143 542.923 259.034 544.878 259.034ZM543.377 253.726C543.307 253.726 543.272 253.691 543.272 253.621C543.272 253.342 543.307 253.167 543.359 252.993C543.551 252.399 544.058 252.067 544.756 252.067C545.454 252.067 545.978 252.399 546.17 252.993C546.223 253.167 546.257 253.342 546.257 253.621C546.257 253.691 546.223 253.726 546.153 253.726H543.377Z" fill="#FF5151"/><path d="M417.288 294.101C417.288 294.782 417.707 295.236 418.405 295.236H424.167C424.883 295.236 425.354 294.764 425.354 294.118C425.354 293.49 424.883 293.018 424.167 293.018H419.959C419.889 293.018 419.854 292.983 419.854 292.914V290.452C419.854 290.382 419.889 290.347 419.959 290.347H423.329C424.044 290.347 424.498 289.893 424.498 289.247C424.498 288.601 424.044 288.147 423.329 288.147H419.959C419.889 288.147 419.854 288.112 419.854 288.042V285.685C419.854 285.615 419.889 285.581 419.959 285.581H424.167C424.883 285.581 425.354 285.109 425.354 284.481C425.354 283.835 424.883 283.363 424.167 283.363H418.405C417.707 283.363 417.288 283.817 417.288 284.498V294.101Z" fill="#49C0F8"/><path d="M433.428 295.34C434.144 295.34 434.65 294.852 434.65 294.048V289.736C434.65 287.903 433.637 286.593 431.769 286.593C430.687 286.593 429.953 287.03 429.534 287.571H429.517C429.377 287.012 428.923 286.681 428.347 286.681C427.631 286.681 427.125 287.169 427.125 287.973V294.048C427.125 294.852 427.631 295.34 428.347 295.34C429.045 295.34 429.569 294.852 429.569 294.048V290.207C429.569 289.282 430.006 288.671 430.879 288.671C431.752 288.671 432.206 289.282 432.206 290.207V294.048C432.206 294.852 432.729 295.34 433.428 295.34Z" fill="#49C0F8"/><path d="M439.866 298.57C442.642 298.57 444.073 297.156 444.073 294.31V287.973C444.073 287.169 443.567 286.681 442.851 286.681C442.17 286.681 441.804 287.117 441.681 287.571H441.664C441.28 287.03 440.582 286.593 439.464 286.593C438.067 286.593 437.055 287.344 436.618 288.688C436.426 289.282 436.339 289.963 436.339 290.749C436.339 291.552 436.426 292.215 436.618 292.809C437.055 294.153 438.067 294.904 439.464 294.904C440.477 294.904 441.158 294.555 441.612 293.961H441.629V294.642C441.629 295.882 441.07 296.458 439.988 296.458C439.586 296.458 439.15 296.318 438.766 296.109C438.417 295.917 438.12 295.794 437.805 295.794C437.212 295.794 436.775 296.283 436.775 296.825C436.775 297.086 436.88 297.383 437.107 297.628C437.526 298.099 438.713 298.57 439.866 298.57ZM440.232 292.861C439.586 292.861 439.185 292.564 438.975 291.936C438.87 291.622 438.818 291.22 438.818 290.766C438.818 290.312 438.87 289.893 438.975 289.579C439.185 288.95 439.586 288.653 440.232 288.653C440.878 288.653 441.262 288.95 441.472 289.579C441.577 289.893 441.629 290.312 441.629 290.766C441.629 291.22 441.577 291.622 441.472 291.936C441.262 292.564 440.878 292.861 440.232 292.861Z" fill="#49C0F8"/><path d="M447.495 285.93C448.263 285.93 448.874 285.319 448.874 284.55C448.874 283.782 448.263 283.171 447.495 283.171C446.726 283.171 446.115 283.782 446.115 284.55C446.115 285.319 446.726 285.93 447.495 285.93ZM447.495 295.34C448.193 295.34 448.717 294.852 448.717 294.048V287.973C448.717 287.169 448.193 286.681 447.495 286.681C446.779 286.681 446.272 287.169 446.272 287.973V294.048C446.272 294.852 446.779 295.34 447.495 295.34Z" fill="#49C0F8"/><path d="M457.213 295.34C457.929 295.34 458.435 294.852 458.435 294.048V289.736C458.435 287.903 457.422 286.593 455.554 286.593C454.472 286.593 453.738 287.03 453.319 287.571H453.302C453.162 287.012 452.708 286.681 452.132 286.681C451.416 286.681 450.91 287.169 450.91 287.973V294.048C450.91 294.852 451.416 295.34 452.132 295.34C452.831 295.34 453.354 294.852 453.354 294.048V290.207C453.354 289.282 453.791 288.671 454.664 288.671C455.537 288.671 455.991 289.282 455.991 290.207V294.048C455.991 294.852 456.515 295.34 457.213 295.34Z" fill="#49C0F8"/><path d="M464.192 295.428C465.502 295.428 466.444 295.079 467.248 294.52C467.562 294.31 467.736 294.014 467.736 293.647C467.736 293.123 467.352 292.739 466.846 292.739C466.602 292.739 466.305 292.826 466.008 293.001C465.554 293.245 464.995 293.437 464.419 293.437C463.546 293.437 462.9 293.053 462.673 292.337C462.621 292.18 462.586 292.023 462.586 291.849C462.586 291.779 462.621 291.744 462.691 291.744H467.178C467.684 291.744 467.981 291.412 467.981 290.941C467.981 290.155 467.894 289.561 467.702 288.968C467.213 287.466 465.921 286.593 464.052 286.593C462.254 286.593 460.91 287.449 460.403 288.985C460.229 289.509 460.142 290.12 460.142 291.01C460.142 291.883 460.246 292.495 460.421 293.018C460.91 294.537 462.237 295.428 464.192 295.428ZM462.691 290.12C462.621 290.12 462.586 290.085 462.586 290.015C462.586 289.736 462.621 289.561 462.673 289.387C462.865 288.793 463.372 288.461 464.07 288.461C464.768 288.461 465.292 288.793 465.484 289.387C465.537 289.561 465.571 289.736 465.571 290.015C465.571 290.085 465.537 290.12 465.467 290.12H462.691Z" fill="#49C0F8"/><path d="M473.399 295.428C474.709 295.428 475.652 295.079 476.455 294.52C476.769 294.31 476.944 294.014 476.944 293.647C476.944 293.123 476.559 292.739 476.053 292.739C475.809 292.739 475.512 292.826 475.215 293.001C474.761 293.245 474.202 293.437 473.626 293.437C472.753 293.437 472.107 293.053 471.88 292.337C471.828 292.18 471.793 292.023 471.793 291.849C471.793 291.779 471.828 291.744 471.898 291.744H476.385C476.891 291.744 477.188 291.412 477.188 290.941C477.188 290.155 477.101 289.561 476.909 288.968C476.42 287.466 475.128 286.593 473.26 286.593C471.461 286.593 470.117 287.449 469.611 288.985C469.436 289.509 469.349 290.12 469.349 291.01C469.349 291.883 469.453 292.495 469.628 293.018C470.117 294.537 471.444 295.428 473.399 295.428ZM471.898 290.12C471.828 290.12 471.793 290.085 471.793 290.015C471.793 289.736 471.828 289.561 471.88 289.387C472.072 288.793 472.579 288.461 473.277 288.461C473.975 288.461 474.499 288.793 474.691 289.387C474.744 289.561 474.779 289.736 474.779 290.015C474.779 290.085 474.744 290.12 474.674 290.12H471.898Z" fill="#49C0F8"/><path d="M480.197 295.34C480.895 295.34 481.419 294.852 481.419 294.048V290.609C481.419 289.474 481.803 288.828 482.711 288.828C482.903 288.828 483.165 288.863 483.34 288.915C483.514 288.968 483.689 289.003 483.864 289.003C484.579 289.003 485.068 288.479 485.068 287.763C485.068 287.344 484.859 286.977 484.422 286.768C484.195 286.663 483.916 286.593 483.532 286.593C482.572 286.593 481.786 287.082 481.402 287.641H481.384V287.623C481.245 287.012 480.773 286.681 480.197 286.681C479.481 286.681 478.975 287.169 478.975 287.973V294.048C478.975 294.852 479.481 295.34 480.197 295.34Z" fill="#49C0F8"/><path d="M487.665 285.93C488.433 285.93 489.044 285.319 489.044 284.55C489.044 283.782 488.433 283.171 487.665 283.171C486.897 283.171 486.286 283.782 486.286 284.55C486.286 285.319 486.897 285.93 487.665 285.93ZM487.665 295.34C488.364 295.34 488.887 294.852 488.887 294.048V287.973C488.887 287.169 488.364 286.681 487.665 286.681C486.949 286.681 486.443 287.169 486.443 287.973V294.048C486.443 294.852 486.949 295.34 487.665 295.34Z" fill="#49C0F8"/><path d="M497.384 295.34C498.099 295.34 498.606 294.852 498.606 294.048V289.736C498.606 287.903 497.593 286.593 495.725 286.593C494.642 286.593 493.909 287.03 493.49 287.571H493.473C493.333 287.012 492.879 286.681 492.303 286.681C491.587 286.681 491.081 287.169 491.081 287.973V294.048C491.081 294.852 491.587 295.34 492.303 295.34C493.001 295.34 493.525 294.852 493.525 294.048V290.207C493.525 289.282 493.961 288.671 494.834 288.671C495.707 288.671 496.161 289.282 496.161 290.207V294.048C496.161 294.852 496.685 295.34 497.384 295.34Z" fill="#49C0F8"/><path d="M503.821 298.57C506.598 298.57 508.029 297.156 508.029 294.31V287.973C508.029 287.169 507.523 286.681 506.807 286.681C506.126 286.681 505.76 287.117 505.637 287.571H505.62C505.236 287.03 504.537 286.593 503.42 286.593C502.023 286.593 501.011 287.344 500.574 288.688C500.382 289.282 500.295 289.963 500.295 290.749C500.295 291.552 500.382 292.215 500.574 292.809C501.011 294.153 502.023 294.904 503.42 294.904C504.433 294.904 505.114 294.555 505.567 293.961H505.585V294.642C505.585 295.882 505.026 296.458 503.944 296.458C503.542 296.458 503.106 296.318 502.722 296.109C502.372 295.917 502.076 295.794 501.761 295.794C501.168 295.794 500.731 296.283 500.731 296.825C500.731 297.086 500.836 297.383 501.063 297.628C501.482 298.099 502.669 298.57 503.821 298.57ZM504.188 292.861C503.542 292.861 503.141 292.564 502.931 291.936C502.826 291.622 502.774 291.22 502.774 290.766C502.774 290.312 502.826 289.893 502.931 289.579C503.141 288.95 503.542 288.653 504.188 288.653C504.834 288.653 505.218 288.95 505.428 289.579C505.533 289.893 505.585 290.312 505.585 290.766C505.585 291.22 505.533 291.622 505.428 291.936C505.218 292.564 504.834 292.861 504.188 292.861Z" fill="#49C0F8"/><path d="M417.445 146.282C417.445 147.05 417.951 147.574 418.737 147.574H424.341C425.127 147.574 425.633 147.102 425.633 146.421C425.633 145.758 425.127 145.287 424.341 145.287H420.116C420.046 145.287 420.011 145.252 420.011 145.182V136.958C420.011 136.138 419.47 135.597 418.737 135.597C417.986 135.597 417.445 136.138 417.445 136.958V146.282Z" fill="#E5A259"/><path d="M430.641 147.766C431.95 147.766 432.893 147.417 433.696 146.858C434.011 146.648 434.185 146.352 434.185 145.985C434.185 145.461 433.801 145.077 433.295 145.077C433.05 145.077 432.753 145.164 432.457 145.339C432.003 145.583 431.444 145.775 430.868 145.775C429.995 145.775 429.349 145.391 429.122 144.676C429.069 144.518 429.035 144.361 429.035 144.187C429.035 144.117 429.069 144.082 429.139 144.082H433.626C434.133 144.082 434.43 143.75 434.43 143.279C434.43 142.493 434.342 141.899 434.15 141.306C433.661 139.804 432.369 138.931 430.501 138.931C428.703 138.931 427.358 139.787 426.852 141.323C426.678 141.847 426.59 142.458 426.59 143.349C426.59 144.222 426.695 144.833 426.87 145.356C427.358 146.875 428.685 147.766 430.641 147.766ZM429.139 142.458C429.069 142.458 429.035 142.423 429.035 142.353C429.035 142.074 429.069 141.899 429.122 141.725C429.314 141.131 429.82 140.8 430.519 140.8C431.217 140.8 431.741 141.131 431.933 141.725C431.985 141.899 432.02 142.074 432.02 142.353C432.02 142.423 431.985 142.458 431.915 142.458H429.139Z" fill="#E5A259"/><path d="M443.689 145.828L443.462 145.444C443.34 145.234 443.305 145.042 443.305 144.641V142.336C443.305 140.223 442.083 138.931 439.534 138.931C438.364 138.931 437.508 139.141 436.95 139.42C436.496 139.647 436.321 140.031 436.321 140.398C436.321 140.992 436.723 141.376 437.299 141.376C437.474 141.376 437.666 141.323 437.875 141.253C438.189 141.131 438.713 141.009 439.237 141.009C440.407 141.009 440.965 141.48 440.965 142.266V142.353C440.965 142.423 440.931 142.458 440.861 142.458H439.342C437.247 142.458 435.85 143.314 435.85 145.182C435.85 146.788 436.897 147.766 439.062 147.766C440.11 147.766 441.018 147.452 441.454 146.91H441.472L441.681 147.207C441.908 147.521 442.257 147.679 442.676 147.679C443.357 147.679 443.899 147.19 443.899 146.544C443.899 146.299 443.829 146.055 443.689 145.828ZM439.394 145.933C438.591 145.933 438.172 145.636 438.172 145.042C438.172 144.396 438.643 144.082 439.673 144.082H440.861C440.931 144.082 440.965 144.117 440.965 144.187V144.763C440.965 145.549 440.424 145.933 439.394 145.933Z" fill="#E5A259"/><path d="M446.663 147.679C447.361 147.679 447.885 147.19 447.885 146.387V142.947C447.885 141.812 448.269 141.166 449.177 141.166C449.369 141.166 449.631 141.201 449.806 141.253C449.98 141.306 450.155 141.341 450.329 141.341C451.045 141.341 451.534 140.817 451.534 140.101C451.534 139.682 451.325 139.315 450.888 139.106C450.661 139.001 450.382 138.931 449.998 138.931C449.037 138.931 448.252 139.42 447.868 139.979H447.85V139.961C447.71 139.35 447.239 139.019 446.663 139.019C445.947 139.019 445.441 139.508 445.441 140.311V146.387C445.441 147.19 445.947 147.679 446.663 147.679Z" fill="#E5A259"/><path d="M459.212 147.679C459.927 147.679 460.434 147.19 460.434 146.387V142.074C460.434 140.241 459.421 138.931 457.553 138.931C456.47 138.931 455.737 139.368 455.318 139.909H455.301C455.161 139.35 454.707 139.019 454.131 139.019C453.415 139.019 452.909 139.508 452.909 140.311V146.387C452.909 147.19 453.415 147.679 454.131 147.679C454.829 147.679 455.353 147.19 455.353 146.387V142.545C455.353 141.62 455.79 141.009 456.663 141.009C457.535 141.009 457.989 141.62 457.989 142.545V146.387C457.989 147.19 458.513 147.679 459.212 147.679Z" fill="#E5A259"/><path d="M463.781 138.268C464.55 138.268 465.161 137.657 465.161 136.889C465.161 136.12 464.55 135.509 463.781 135.509C463.013 135.509 462.402 136.12 462.402 136.889C462.402 137.657 463.013 138.268 463.781 138.268ZM463.781 147.679C464.48 147.679 465.004 147.19 465.004 146.387V140.311C465.004 139.508 464.48 139.019 463.781 139.019C463.066 139.019 462.559 139.508 462.559 140.311V146.387C462.559 147.19 463.066 147.679 463.781 147.679Z" fill="#E5A259"/><path d="M473.5 147.679C474.216 147.679 474.722 147.19 474.722 146.387V142.074C474.722 140.241 473.709 138.931 471.841 138.931C470.759 138.931 470.025 139.368 469.606 139.909H469.589C469.449 139.35 468.995 139.019 468.419 139.019C467.703 139.019 467.197 139.508 467.197 140.311V146.387C467.197 147.19 467.703 147.679 468.419 147.679C469.117 147.679 469.641 147.19 469.641 146.387V142.545C469.641 141.62 470.078 141.009 470.951 141.009C471.824 141.009 472.278 141.62 472.278 142.545V146.387C472.278 147.19 472.801 147.679 473.5 147.679Z" fill="#E5A259"/><path d="M479.938 150.909C482.714 150.909 484.145 149.494 484.145 146.648V140.311C484.145 139.508 483.639 139.019 482.923 139.019C482.242 139.019 481.876 139.455 481.754 139.909H481.736C481.352 139.368 480.654 138.931 479.536 138.931C478.139 138.931 477.127 139.682 476.69 141.026C476.498 141.62 476.411 142.301 476.411 143.087C476.411 143.89 476.498 144.553 476.69 145.147C477.127 146.491 478.139 147.242 479.536 147.242C480.549 147.242 481.23 146.893 481.684 146.299H481.701V146.98C481.701 148.22 481.142 148.796 480.06 148.796C479.658 148.796 479.222 148.656 478.838 148.447C478.489 148.255 478.192 148.133 477.878 148.133C477.284 148.133 476.847 148.621 476.847 149.163C476.847 149.425 476.952 149.721 477.179 149.966C477.598 150.437 478.785 150.909 479.938 150.909ZM480.304 145.199C479.658 145.199 479.257 144.903 479.047 144.274C478.943 143.96 478.89 143.558 478.89 143.104C478.89 142.65 478.943 142.231 479.047 141.917C479.257 141.288 479.658 140.992 480.304 140.992C480.95 140.992 481.334 141.288 481.544 141.917C481.649 142.231 481.701 142.65 481.701 143.104C481.701 143.558 481.649 143.96 481.544 144.274C481.334 144.903 480.95 145.199 480.304 145.199Z" fill="#E5A259"/><path fill-rule="evenodd" clip-rule="evenodd" d="M327.789 163.142L327.786 164.175L175.961 163.332L326.882 146.405C327.482 151.902 327.789 157.486 327.789 163.142Z" fill="#AC53E5"/><path d="M227.804 82.8732C227.804 84.0044 228.517 84.693 229.525 84.693C230.509 84.693 231.247 84.0044 231.247 82.8732V69.7659C231.247 68.5117 230.509 67.6756 229.328 67.6756C228.542 67.6756 227.878 67.9953 227.238 68.4379L224.607 70.2577C224.017 70.6512 223.746 71.1922 223.746 71.7086C223.746 72.5447 224.386 73.1595 225.173 73.1595C225.517 73.1595 225.886 73.0611 226.205 72.8398L227.755 71.7824H227.804V82.8732ZM237.165 81.3977C237.878 83.5617 239.526 84.8159 242.231 84.8159C244.936 84.8159 246.584 83.5617 247.297 81.3977C247.543 80.6353 247.641 79.7009 247.641 76.1843C247.641 72.6677 247.543 71.7332 247.297 70.9709C246.584 68.8068 244.936 67.5526 242.231 67.5526C239.526 67.5526 237.878 68.8068 237.165 70.9709C236.919 71.7332 236.821 72.6677 236.821 76.1843C236.821 79.7009 236.919 80.6353 237.165 81.3977ZM240.559 80.7829C240.411 80.3402 240.337 79.8484 240.337 76.1843C240.337 72.5201 240.411 72.0283 240.559 71.5856C240.805 70.8479 241.346 70.479 242.231 70.479C243.116 70.479 243.657 70.8479 243.903 71.5856C244.051 72.0283 244.124 72.5201 244.124 76.1843C244.124 79.8484 244.051 80.3402 243.903 80.7829C243.657 81.5206 243.116 81.8895 242.231 81.8895C241.346 81.8895 240.805 81.5206 240.559 80.7829ZM253.584 83.8814C253.584 84.4962 254.027 84.9635 254.641 84.9635C255.109 84.9635 255.453 84.7421 255.723 84.2749L264.429 69.2003C264.552 68.9789 264.625 68.733 264.625 68.5117C264.625 67.8969 264.183 67.4297 263.568 67.4297C263.101 67.4297 262.757 67.651 262.486 68.1182L253.781 83.1929C253.658 83.4142 253.584 83.6601 253.584 83.8814ZM253.928 76.4302C255.527 76.4302 256.658 75.6924 257.076 74.3891C257.248 73.8481 257.322 73.1595 257.322 72.0283C257.322 70.8971 257.248 70.2085 257.076 69.6675C256.658 68.3641 255.527 67.6264 253.928 67.6264C252.33 67.6264 251.198 68.3641 250.78 69.6675C250.608 70.2085 250.535 70.8971 250.535 72.0283C250.535 73.1595 250.608 73.8481 250.78 74.3891C251.198 75.6924 252.33 76.4302 253.928 76.4302ZM253.928 74.512C253.485 74.512 253.19 74.2907 253.067 73.8973C252.994 73.6759 252.944 73.2333 252.944 72.0283C252.944 70.8233 252.994 70.3807 253.067 70.1593C253.19 69.7659 253.485 69.5445 253.928 69.5445C254.371 69.5445 254.666 69.7659 254.789 70.1593C254.863 70.3807 254.912 70.8233 254.912 72.0283C254.912 73.2333 254.863 73.6759 254.789 73.8973C254.666 74.2907 254.371 74.512 253.928 74.512ZM261.133 82.7256C261.552 84.029 262.683 84.7667 264.281 84.7667C265.88 84.7667 267.011 84.029 267.429 82.7256C267.601 82.1846 267.675 81.4961 267.675 80.3648C267.675 79.2336 267.601 78.5451 267.429 78.004C267.011 76.7007 265.88 75.9629 264.281 75.9629C262.683 75.9629 261.552 76.7007 261.133 78.004C260.961 78.5451 260.888 79.2336 260.888 80.3648C260.888 81.4961 260.961 82.1846 261.133 82.7256ZM263.42 82.2338C263.347 82.0125 263.298 81.5698 263.298 80.3648C263.298 79.1599 263.347 78.7172 263.42 78.4959C263.543 78.1024 263.839 77.8811 264.281 77.8811C264.724 77.8811 265.019 78.1024 265.142 78.4959C265.216 78.7172 265.265 79.1599 265.265 80.3648C265.265 81.5698 265.216 82.0125 265.142 82.2338C265.019 82.6273 264.724 82.8486 264.281 82.8486C263.839 82.8486 263.543 82.6273 263.42 82.2338Z" fill="white"/><path d="M88.143 246.608H98.5732C98.7767 246.608 98.8785 246.71 98.8785 246.914V248.287C98.8785 250.526 100.354 251.951 102.338 251.951C104.373 251.951 105.798 250.526 105.798 248.287V246.914C105.798 246.71 105.9 246.608 106.103 246.608H106.307C108.291 246.608 109.614 245.336 109.614 243.505C109.614 241.724 108.291 240.452 106.307 240.452H106.103C105.9 240.452 105.798 240.35 105.798 240.147V235.567C105.798 233.329 104.373 231.904 102.338 231.904C100.354 231.904 98.8785 233.329 98.8785 235.567V240.147C98.8785 240.35 98.7767 240.452 98.5732 240.452H92.3151V240.35L100.71 221.881C100.914 221.423 101.066 220.762 101.066 220.202C101.066 218.116 99.5908 216.742 97.6574 216.742C96.131 216.742 95.0117 217.607 94.4011 218.981L85.3955 239.129C84.5815 240.961 84.2253 241.724 84.2253 242.996C84.2253 245.184 85.7008 246.608 88.143 246.608ZM115.041 246.964C115.957 249.814 119.722 252.205 125.013 252.205C129.898 252.205 134.121 249.915 135.494 245.642C135.952 244.268 136.258 242.589 136.258 240.401C136.258 237.501 136.003 235.822 135.545 234.346C134.273 230.53 131.068 228.597 126.641 228.597C124.047 228.597 122.317 229.411 121.452 230.276H121.299V223.509C121.299 223.306 121.401 223.204 121.604 223.204H132.442C134.426 223.204 135.698 221.932 135.698 220.1C135.698 218.319 134.426 217.047 132.442 217.047H118.145C116.211 217.047 115.041 218.218 115.041 220.1V234.092C115.041 236.382 116.415 237.755 118.501 237.755C120.027 237.755 121.045 237.297 122.011 236.076C122.724 235.16 123.741 234.601 125.166 234.601C126.794 234.601 128.168 235.262 128.778 236.992C129.033 237.806 129.185 238.773 129.185 240.401C129.185 241.978 128.982 242.945 128.727 243.708C128.168 245.285 126.794 246.15 124.962 246.15C123.334 246.15 121.859 245.184 121.096 244.217C120.129 243.047 119.162 242.538 117.992 242.538C116.109 242.538 114.787 243.861 114.787 245.642C114.787 246.049 114.888 246.506 115.041 246.964ZM148.655 250.272C148.655 251.544 149.571 252.51 150.843 252.51C151.809 252.51 152.522 252.052 153.081 251.086L171.093 219.897C171.347 219.439 171.5 218.93 171.5 218.472C171.5 217.2 170.584 216.233 169.312 216.233C168.345 216.233 167.633 216.691 167.073 217.658L149.062 248.847C148.808 249.305 148.655 249.814 148.655 250.272ZM149.367 234.855C152.674 234.855 155.015 233.329 155.88 230.632C156.236 229.513 156.389 228.088 156.389 225.748C156.389 223.407 156.236 221.983 155.88 220.863C155.015 218.167 152.674 216.64 149.367 216.64C146.06 216.64 143.72 218.167 142.855 220.863C142.499 221.983 142.346 223.407 142.346 225.748C142.346 228.088 142.499 229.513 142.855 230.632C143.72 233.329 146.06 234.855 149.367 234.855ZM149.367 230.887C148.451 230.887 147.841 230.429 147.587 229.615C147.434 229.157 147.332 228.241 147.332 225.748C147.332 223.255 147.434 222.339 147.587 221.881C147.841 221.067 148.451 220.609 149.367 220.609C150.283 220.609 150.894 221.067 151.148 221.881C151.301 222.339 151.402 223.255 151.402 225.748C151.402 228.241 151.301 229.157 151.148 229.615C150.894 230.429 150.283 230.887 149.367 230.887ZM164.275 247.88C165.14 250.577 167.48 252.103 170.787 252.103C174.095 252.103 176.435 250.577 177.3 247.88C177.656 246.761 177.809 245.336 177.809 242.996C177.809 240.655 177.656 239.231 177.3 238.111C176.435 235.415 174.095 233.888 170.787 233.888C167.48 233.888 165.14 235.415 164.275 238.111C163.919 239.231 163.766 240.655 163.766 242.996C163.766 245.336 163.919 246.761 164.275 247.88ZM169.007 246.863C168.854 246.405 168.752 245.489 168.752 242.996C168.752 240.503 168.854 239.587 169.007 239.129C169.261 238.315 169.872 237.857 170.787 237.857C171.703 237.857 172.314 238.315 172.568 239.129C172.721 239.587 172.823 240.503 172.823 242.996C172.823 245.489 172.721 246.405 172.568 246.863C172.314 247.677 171.703 248.135 170.787 248.135C169.872 248.135 169.261 247.677 169.007 246.863Z" fill="white"/><path opacity="0.666411" fill-rule="evenodd" clip-rule="evenodd" d="M205.837 38.7501C186.429 32.6029 165.679 31.2641 145.536 34.9727L175.999 171.428L205.837 38.7501Z" fill="#D8D8D8" stroke="#979797" stroke-width="0.81972"/><path fill-rule="evenodd" clip-rule="evenodd" d="M175.998 171.429L206.692 33.161C196.584 30.8482 186.059 29.6265 175.25 29.6265C164.561 29.6265 154.152 30.8209 144.148 33.0835L175.998 171.429Z" fill="#E5A259"/><path fill-rule="evenodd" clip-rule="evenodd" d="M175.944 171.184L145.328 32.8988C135.189 35.0747 125.134 38.4152 115.338 42.9836C105.651 47.5006 96.7215 52.9823 88.6109 59.2608L175.944 171.184Z" fill="#FFAADE"/><path fill-rule="evenodd" clip-rule="evenodd" d="M175.793 170.985L89.6036 58.5958C81.3342 64.8526 73.6334 72.1294 66.6851 80.4101C59.8148 88.5978 54.0389 97.3395 49.3416 106.458L175.793 170.985Z" fill="#FFC800"/><path fill-rule="evenodd" clip-rule="evenodd" d="M328.829 170.957C328.829 134.468 316.103 100.951 294.848 74.6016L175.998 171.428L328.829 170.957Z" fill="#CE82FF"/><path fill-rule="evenodd" clip-rule="evenodd" d="M175.249 171.428L286.787 276.055C312.726 248.657 328.635 211.665 328.635 170.957L175.249 171.428Z" fill="#FF5151"/><path opacity="0.5" fill-rule="evenodd" clip-rule="evenodd" d="M175.788 170.981L89.6024 58.5964C85.2453 61.8931 81.0462 65.4729 77.0317 69.3335L175.788 170.981Z" fill="#FFAB33"/><path fill-rule="evenodd" clip-rule="evenodd" d="M327.397 149.884C328.342 156.773 328.831 163.808 328.831 170.957L176 171.428L327.397 149.884Z" fill="#B75CF1"/><path fill-rule="evenodd" clip-rule="evenodd" d="M20.6413 88.9849C7.46919 113.592 0 141.71 0 171.573C0 268.361 78.4623 346.823 175.25 346.823C225.933 346.823 271.59 325.309 303.588 290.915L175.945 171.184L20.6413 88.9849Z" fill="#49C0F8"/><path fill-rule="evenodd" clip-rule="evenodd" d="M286.786 276.055L175.249 171.428L301.879 257.388C297.337 264.004 292.288 270.245 286.788 276.055L286.786 276.055Z" fill="#F13B3B"/><path fill-rule="evenodd" clip-rule="evenodd" d="M176 171.427L176 171.427L206.694 33.1607C202.499 32.2008 198.232 31.4289 193.903 30.8542L176 171.427Z" fill="#DA8C37"/><path fill-rule="evenodd" clip-rule="evenodd" d="M294.475 74.8822C271.511 46.5247 240.529 28.4854 207.428 21.3845L175.999 171.428L294.475 74.8822Z" fill="#58CC02"/><path fill-rule="evenodd" clip-rule="evenodd" d="M176 171.427L294.474 74.8821V74.8811C290.445 69.9054 286.169 65.2474 281.677 60.9104L176 171.427L176 171.427Z" fill="#4EB800"/><path fill-rule="evenodd" clip-rule="evenodd" d="M175.941 171.171L145.328 32.8994C140.927 33.844 136.541 35.0081 132.186 36.3968L175.941 171.171Z" fill="#FF82CF"/><path d="M261.723 219.493C261.723 220.624 262.436 221.312 263.445 221.312C264.428 221.312 265.166 220.624 265.166 219.493V206.385C265.166 205.131 264.428 204.295 263.248 204.295C262.461 204.295 261.797 204.615 261.158 205.057L258.526 206.877C257.936 207.271 257.666 207.812 257.666 208.328C257.666 209.164 258.305 209.779 259.092 209.779C259.436 209.779 259.805 209.681 260.125 209.459L261.674 208.402H261.723V219.493Z" fill="white"/><path d="M275.388 219.493C275.388 220.624 276.101 221.312 277.109 221.312C278.093 221.312 278.831 220.624 278.831 219.493V206.385C278.831 205.131 278.093 204.295 276.912 204.295C276.126 204.295 275.462 204.615 274.822 205.057L272.191 206.877C271.601 207.271 271.33 207.812 271.33 208.328C271.33 209.164 271.97 209.779 272.756 209.779C273.101 209.779 273.47 209.681 273.789 209.459L275.339 208.402H275.388V219.493Z" fill="white"/><path d="M287.503 220.501C287.503 221.116 287.946 221.583 288.561 221.583C289.028 221.583 289.372 221.362 289.643 220.894L298.348 205.82C298.471 205.598 298.545 205.352 298.545 205.131C298.545 204.516 298.102 204.049 297.487 204.049C297.02 204.049 296.676 204.27 296.405 204.738L287.7 219.812C287.577 220.034 287.503 220.28 287.503 220.501ZM287.847 213.05C289.446 213.05 290.577 212.312 290.995 211.008C291.167 210.467 291.241 209.779 291.241 208.648C291.241 207.516 291.167 206.828 290.995 206.287C290.577 204.984 289.446 204.246 287.847 204.246C286.249 204.246 285.118 204.984 284.7 206.287C284.528 206.828 284.454 207.516 284.454 208.648C284.454 209.779 284.528 210.467 284.7 211.008C285.118 212.312 286.249 213.05 287.847 213.05ZM287.847 211.131C287.405 211.131 287.11 210.91 286.987 210.517C286.913 210.295 286.864 209.853 286.864 208.648C286.864 207.443 286.913 207 286.987 206.779C287.11 206.385 287.405 206.164 287.847 206.164C288.29 206.164 288.585 206.385 288.708 206.779C288.782 207 288.831 207.443 288.831 208.648C288.831 209.853 288.782 210.295 288.708 210.517C288.585 210.91 288.29 211.131 287.847 211.131ZM295.053 219.345C295.471 220.648 296.602 221.386 298.201 221.386C299.799 221.386 300.93 220.648 301.348 219.345C301.52 218.804 301.594 218.115 301.594 216.984C301.594 215.853 301.52 215.164 301.348 214.623C300.93 213.32 299.799 212.582 298.201 212.582C296.602 212.582 295.471 213.32 295.053 214.623C294.881 215.164 294.807 215.853 294.807 216.984C294.807 218.115 294.881 218.804 295.053 219.345ZM297.34 218.853C297.266 218.632 297.217 218.189 297.217 216.984C297.217 215.779 297.266 215.337 297.34 215.115C297.463 214.722 297.758 214.5 298.201 214.5C298.643 214.5 298.938 214.722 299.061 215.115C299.135 215.337 299.184 215.779 299.184 216.984C299.184 218.189 299.135 218.632 299.061 218.853C298.938 219.247 298.643 219.468 298.201 219.468C297.758 219.468 297.463 219.247 297.34 218.853Z" fill="white"/><path d="M258.896 144.117C258.896 145.248 259.609 145.937 260.617 145.937C261.601 145.937 262.339 145.248 262.339 144.117V131.01C262.339 129.755 261.601 128.919 260.421 128.919C259.634 128.919 258.97 129.239 258.33 129.682L255.699 131.501C255.109 131.895 254.838 132.436 254.838 132.952C254.838 133.788 255.478 134.403 256.265 134.403C256.609 134.403 256.978 134.305 257.298 134.083L258.847 133.026H258.896V144.117Z" fill="white"/><path d="M268.257 142.641C268.97 144.805 270.618 146.06 273.323 146.06C276.028 146.06 277.676 144.805 278.389 142.641C278.635 141.879 278.733 140.945 278.733 137.428C278.733 133.911 278.635 132.977 278.389 132.215C277.676 130.05 276.028 128.796 273.323 128.796C270.618 128.796 268.97 130.05 268.257 132.215C268.011 132.977 267.913 133.911 267.913 137.428C267.913 140.945 268.011 141.879 268.257 142.641ZM271.651 142.027C271.503 141.584 271.429 141.092 271.429 137.428C271.429 133.764 271.503 133.272 271.651 132.829C271.897 132.092 272.438 131.723 273.323 131.723C274.208 131.723 274.749 132.092 274.995 132.829C275.143 133.272 275.217 133.764 275.217 137.428C275.217 141.092 275.143 141.584 274.995 142.027C274.749 142.764 274.208 143.133 273.323 143.133C272.438 143.133 271.897 142.764 271.651 142.027Z" fill="white"/><path d="M284.676 145.125C284.676 145.74 285.119 146.207 285.733 146.207C286.201 146.207 286.545 145.986 286.816 145.519L295.521 130.444C295.644 130.223 295.718 129.977 295.718 129.755C295.718 129.141 295.275 128.673 294.66 128.673C294.193 128.673 293.849 128.895 293.578 129.362L284.873 144.437C284.75 144.658 284.676 144.904 284.676 145.125ZM285.02 137.674C286.619 137.674 287.75 136.936 288.168 135.633C288.34 135.092 288.414 134.403 288.414 133.272C288.414 132.141 288.34 131.452 288.168 130.911C287.75 129.608 286.619 128.87 285.02 128.87C283.422 128.87 282.291 129.608 281.873 130.911C281.7 131.452 281.627 132.141 281.627 133.272C281.627 134.403 281.7 135.092 281.873 135.633C282.291 136.936 283.422 137.674 285.02 137.674ZM285.02 135.756C284.578 135.756 284.283 135.534 284.16 135.141C284.086 134.92 284.037 134.477 284.037 133.272C284.037 132.067 284.086 131.624 284.16 131.403C284.283 131.01 284.578 130.788 285.02 130.788C285.463 130.788 285.758 131.01 285.881 131.403C285.955 131.624 286.004 132.067 286.004 133.272C286.004 134.477 285.955 134.92 285.881 135.141C285.758 135.534 285.463 135.756 285.02 135.756ZM292.226 143.969C292.644 145.273 293.775 146.01 295.373 146.01C296.972 146.01 298.103 145.273 298.521 143.969C298.693 143.428 298.767 142.74 298.767 141.609C298.767 140.477 298.693 139.789 298.521 139.248C298.103 137.944 296.972 137.207 295.373 137.207C293.775 137.207 292.644 137.944 292.226 139.248C292.054 139.789 291.98 140.477 291.98 141.609C291.98 142.74 292.054 143.428 292.226 143.969ZM294.513 143.477C294.439 143.256 294.39 142.814 294.39 141.609C294.39 140.404 294.439 139.961 294.513 139.74C294.636 139.346 294.931 139.125 295.373 139.125C295.816 139.125 296.111 139.346 296.234 139.74C296.308 139.961 296.357 140.404 296.357 141.609C296.357 142.814 296.308 143.256 296.234 143.477C296.111 143.871 295.816 144.092 295.373 144.092C294.931 144.092 294.636 143.871 294.513 143.477Z" fill="white"/><path d="M114.223 73.0251C114.223 75.3806 116.07 76.9258 118.557 76.9258C121.045 76.9258 122.891 75.3806 122.891 73.0251C122.891 71.5929 122.175 70.5754 121.365 70.0289V69.9912C121.968 69.5578 122.609 68.6344 122.609 67.4284C122.609 65.4498 121.158 63.6972 118.557 63.6972C115.957 63.6972 114.506 65.4498 114.506 67.4284C114.506 68.6344 115.147 69.5578 115.75 69.9912V70.0289C114.939 70.5754 114.223 71.5929 114.223 73.0251ZM118.557 68.9171C117.672 68.9171 117.087 68.2387 117.087 67.4284C117.087 66.5992 117.672 65.9209 118.557 65.9209C119.443 65.9209 120.027 66.5992 120.027 67.4284C120.027 68.2387 119.443 68.9171 118.557 68.9171ZM116.824 72.912C116.824 71.8756 117.521 71.1407 118.557 71.1407C119.594 71.1407 120.291 71.8756 120.291 72.912C120.291 73.9673 119.594 74.7022 118.557 74.7022C117.521 74.7022 116.824 73.9673 116.824 72.912Z" fill="white"/><path d="M127.257 76.2097C127.257 76.6809 127.596 77.0389 128.067 77.0389C128.425 77.0389 128.689 76.8693 128.896 76.5113L135.567 64.9598C135.661 64.7902 135.718 64.6018 135.718 64.4322C135.718 63.9611 135.379 63.603 134.908 63.603C134.55 63.603 134.286 63.7726 134.079 64.1307L127.408 75.6821C127.313 75.8517 127.257 76.0402 127.257 76.2097ZM127.521 70.5C128.746 70.5 129.612 69.9347 129.933 68.9359C130.065 68.5213 130.121 67.9937 130.121 67.1269C130.121 66.26 130.065 65.7324 129.933 65.3178C129.612 64.3191 128.746 63.7538 127.521 63.7538C126.296 63.7538 125.429 64.3191 125.109 65.3178C124.977 65.7324 124.92 66.26 124.92 67.1269C124.92 67.9937 124.977 68.5213 125.109 68.9359C125.429 69.9347 126.296 70.5 127.521 70.5ZM127.521 69.0301C127.182 69.0301 126.955 68.8605 126.861 68.559C126.805 68.3894 126.767 68.0502 126.767 67.1269C126.767 66.2035 126.805 65.8643 126.861 65.6947C126.955 65.3932 127.182 65.2236 127.521 65.2236C127.86 65.2236 128.086 65.3932 128.18 65.6947C128.237 65.8643 128.275 66.2035 128.275 67.1269C128.275 68.0502 128.237 68.3894 128.18 68.559C128.086 68.8605 127.86 69.0301 127.521 69.0301ZM133.042 75.3241C133.362 76.3228 134.229 76.8881 135.454 76.8881C136.679 76.8881 137.546 76.3228 137.866 75.3241C137.998 74.9095 138.055 74.3819 138.055 73.515C138.055 72.6482 137.998 72.1206 137.866 71.706C137.546 70.7073 136.679 70.1419 135.454 70.1419C134.229 70.1419 133.362 70.7073 133.042 71.706C132.91 72.1206 132.854 72.6482 132.854 73.515C132.854 74.3819 132.91 74.9095 133.042 75.3241ZM134.795 74.9472C134.738 74.7776 134.7 74.4384 134.7 73.515C134.7 72.5917 134.738 72.2525 134.795 72.0829C134.889 71.7814 135.115 71.6118 135.454 71.6118C135.793 71.6118 136.019 71.7814 136.114 72.0829C136.17 72.2525 136.208 72.5917 136.208 73.515C136.208 74.4384 136.17 74.7776 136.114 74.9472C136.019 75.2487 135.793 75.4183 135.454 75.4183C135.115 75.4183 134.889 75.2487 134.795 74.9472Z" fill="white"/><path d="M163.218 59.8342C163.218 62.1897 165.064 63.7349 167.552 63.7349C170.039 63.7349 171.886 62.1897 171.886 59.8342C171.886 58.402 171.17 57.3844 170.36 56.838V56.8003C170.963 56.3669 171.603 55.4435 171.603 54.2375C171.603 52.2588 170.152 50.5063 167.552 50.5063C164.951 50.5063 163.5 52.2588 163.5 54.2375C163.5 55.4435 164.141 56.3669 164.744 56.8003V56.838C163.934 57.3844 163.218 58.402 163.218 59.8342ZM167.552 55.7262C166.666 55.7262 166.082 55.0478 166.082 54.2375C166.082 53.4083 166.666 52.7299 167.552 52.7299C168.438 52.7299 169.022 53.4083 169.022 54.2375C169.022 55.0478 168.438 55.7262 167.552 55.7262ZM165.818 59.7211C165.818 58.6847 166.515 57.9498 167.552 57.9498C168.588 57.9498 169.286 58.6847 169.286 59.7211C169.286 60.7764 168.588 61.5113 167.552 61.5113C166.515 61.5113 165.818 60.7764 165.818 59.7211Z" fill="white"/><path d="M176.252 63.0188C176.252 63.4899 176.591 63.848 177.062 63.848C177.42 63.848 177.684 63.6784 177.891 63.3203L184.562 51.7689C184.656 51.5993 184.713 51.4108 184.713 51.2413C184.713 50.7701 184.373 50.4121 183.902 50.4121C183.544 50.4121 183.28 50.5817 183.073 50.9397L176.402 62.4912C176.308 62.6608 176.252 62.8492 176.252 63.0188ZM176.515 57.3091C177.74 57.3091 178.607 56.7437 178.927 55.745C179.059 55.3304 179.116 54.8028 179.116 53.936C179.116 53.0691 179.059 52.5415 178.927 52.1269C178.607 51.1282 177.74 50.5629 176.515 50.5629C175.291 50.5629 174.424 51.1282 174.103 52.1269C173.971 52.5415 173.915 53.0691 173.915 53.936C173.915 54.8028 173.971 55.3304 174.103 55.745C174.424 56.7437 175.291 57.3091 176.515 57.3091ZM176.515 55.8392C176.176 55.8392 175.95 55.6696 175.856 55.3681C175.799 55.1985 175.762 54.8593 175.762 53.936C175.762 53.0126 175.799 52.6734 175.856 52.5038C175.95 52.2023 176.176 52.0327 176.515 52.0327C176.855 52.0327 177.081 52.2023 177.175 52.5038C177.231 52.6734 177.269 53.0126 177.269 53.936C177.269 54.8593 177.231 55.1985 177.175 55.3681C177.081 55.6696 176.855 55.8392 176.515 55.8392ZM182.037 62.1332C182.357 63.1319 183.224 63.6972 184.449 63.6972C185.674 63.6972 186.54 63.1319 186.861 62.1332C186.993 61.7186 187.049 61.1909 187.049 60.3241C187.049 59.4573 186.993 58.9297 186.861 58.5151C186.54 57.5163 185.674 56.951 184.449 56.951C183.224 56.951 182.357 57.5163 182.037 58.5151C181.905 58.9297 181.848 59.4573 181.848 60.3241C181.848 61.1909 181.905 61.7186 182.037 62.1332ZM183.789 61.7563C183.733 61.5867 183.695 61.2475 183.695 60.3241C183.695 59.4008 183.733 59.0616 183.789 58.892C183.883 58.5905 184.11 58.4209 184.449 58.4209C184.788 58.4209 185.014 58.5905 185.108 58.892C185.165 59.0616 185.203 59.4008 185.203 60.3241C185.203 61.2475 185.165 61.5867 185.108 61.7563C185.014 62.0578 184.788 62.2274 184.449 62.2274C184.11 62.2274 183.883 62.0578 183.789 61.7563Z" fill="white"/><path d="M74.6489 102.234C74.6489 104.589 76.4957 106.134 78.9831 106.134C81.4705 106.134 83.3172 104.589 83.3172 102.234C83.3172 100.801 82.6011 99.7839 81.7908 99.2374V99.1997C82.3939 98.7663 83.0346 97.8429 83.0346 96.6369C83.0346 94.6582 81.5836 92.9057 78.9831 92.9057C76.3826 92.9057 74.9316 94.6582 74.9316 96.6369C74.9316 97.8429 75.5723 98.7663 76.1753 99.1997V99.2374C75.365 99.7839 74.6489 100.801 74.6489 102.234ZM78.9831 98.1256C78.0974 98.1256 77.5132 97.4472 77.5132 96.6369C77.5132 95.8077 78.0974 95.1294 78.9831 95.1294C79.8687 95.1294 80.4529 95.8077 80.4529 96.6369C80.4529 97.4472 79.8687 98.1256 78.9831 98.1256ZM77.2494 102.121C77.2494 101.084 77.9466 100.349 78.9831 100.349C80.0195 100.349 80.7167 101.084 80.7167 102.121C80.7167 103.176 80.0195 103.911 78.9831 103.911C77.9466 103.911 77.2494 103.176 77.2494 102.121Z" fill="white"/><path d="M87.6827 105.418C87.6827 105.889 88.0219 106.247 88.493 106.247C88.8511 106.247 89.1149 106.078 89.3222 105.72L95.993 94.1683C96.0872 93.9987 96.1437 93.8103 96.1437 93.6407C96.1437 93.1696 95.8045 92.8115 95.3334 92.8115C94.9754 92.8115 94.7116 92.9811 94.5043 93.3392L87.8335 104.891C87.7393 105.06 87.6827 105.249 87.6827 105.418ZM87.9465 99.7085C89.1714 99.7085 90.0382 99.1431 90.3586 98.1444C90.4905 97.7298 90.547 97.2022 90.547 96.3354C90.547 95.4685 90.4905 94.9409 90.3586 94.5263C90.0382 93.5276 89.1714 92.9623 87.9465 92.9623C86.7217 92.9623 85.8548 93.5276 85.5345 94.5263C85.4026 94.9409 85.3461 95.4685 85.3461 96.3354C85.3461 97.2022 85.4026 97.7298 85.5345 98.1444C85.8548 99.1431 86.7217 99.7085 87.9465 99.7085ZM87.9465 98.2386C87.6074 98.2386 87.3812 98.069 87.287 97.7675C87.2305 97.5979 87.1928 97.2587 87.1928 96.3354C87.1928 95.412 87.2305 95.0728 87.287 94.9032C87.3812 94.6017 87.6074 94.4321 87.9465 94.4321C88.2857 94.4321 88.5119 94.6017 88.6061 94.9032C88.6626 95.0728 88.7003 95.412 88.7003 96.3354C88.7003 97.2587 88.6626 97.5979 88.6061 97.7675C88.5119 98.069 88.2857 98.2386 87.9465 98.2386ZM93.4679 104.533C93.7882 105.531 94.6551 106.097 95.8799 106.097C97.1048 106.097 97.9716 105.531 98.292 104.533C98.4239 104.118 98.4804 103.59 98.4804 102.724C98.4804 101.857 98.4239 101.329 98.292 100.914C97.9716 99.9158 97.1048 99.3504 95.8799 99.3504C94.6551 99.3504 93.7882 99.9158 93.4679 100.914C93.336 101.329 93.2794 101.857 93.2794 102.724C93.2794 103.59 93.336 104.118 93.4679 104.533ZM95.2204 104.156C95.1638 103.986 95.1262 103.647 95.1262 102.724C95.1262 101.8 95.1638 101.461 95.2204 101.291C95.3146 100.99 95.5407 100.82 95.8799 100.82C96.2191 100.82 96.4452 100.99 96.5395 101.291C96.596 101.461 96.6337 101.8 96.6337 102.724C96.6337 103.647 96.596 103.986 96.5395 104.156C96.4452 104.457 96.2191 104.627 95.8799 104.627C95.5407 104.627 95.3146 104.457 95.2204 104.156Z" fill="white"/><path d="M84.3718 256.03H94.802C95.0055 256.03 95.1073 256.132 95.1073 256.336V257.709C95.1073 259.948 96.5828 261.373 98.5671 261.373C100.602 261.373 102.027 259.948 102.027 257.709V256.336C102.027 256.132 102.129 256.03 102.332 256.03H102.536C104.52 256.03 105.843 254.758 105.843 252.927C105.843 251.146 104.52 249.874 102.536 249.874H102.332C102.129 249.874 102.027 249.772 102.027 249.569V244.99C102.027 242.751 100.602 241.326 98.5671 241.326C96.5828 241.326 95.1073 242.751 95.1073 244.99V249.569C95.1073 249.772 95.0055 249.874 94.802 249.874H88.5439V249.772L96.9389 231.303C97.1425 230.845 97.2951 230.184 97.2951 229.624C97.2951 227.538 95.8196 226.164 93.8862 226.164C92.3598 226.164 91.2405 227.029 90.6299 228.403L81.6243 248.551C80.8103 250.383 80.4541 251.146 80.4541 252.418C80.4541 254.606 81.9296 256.03 84.3718 256.03Z" fill="white"/><path d="M111.27 256.387C112.186 259.236 115.951 261.627 121.242 261.627C126.126 261.627 130.349 259.338 131.723 255.064C132.181 253.69 132.486 252.011 132.486 249.823C132.486 246.923 132.232 245.244 131.774 243.768C130.502 239.953 127.297 238.019 122.87 238.019C120.275 238.019 118.545 238.833 117.681 239.698H117.528V232.931C117.528 232.728 117.63 232.626 117.833 232.626H128.67C130.655 232.626 131.927 231.354 131.927 229.522C131.927 227.742 130.655 226.47 128.67 226.47H114.373C112.44 226.47 111.27 227.64 111.27 229.522V243.514C111.27 245.804 112.644 247.177 114.73 247.177C116.256 247.177 117.274 246.719 118.24 245.498C118.953 244.583 119.97 244.023 121.395 244.023C123.023 244.023 124.397 244.684 125.007 246.414C125.262 247.228 125.414 248.195 125.414 249.823C125.414 251.4 125.211 252.367 124.956 253.13C124.397 254.708 123.023 255.572 121.191 255.572C119.563 255.572 118.088 254.606 117.324 253.639C116.358 252.469 115.391 251.96 114.221 251.96C112.338 251.96 111.015 253.283 111.015 255.064C111.015 255.471 111.117 255.929 111.27 256.387Z" fill="white"/><path d="M144.884 259.694C144.884 260.966 145.8 261.932 147.072 261.932C148.038 261.932 148.751 261.474 149.31 260.508L167.321 229.319C167.576 228.861 167.729 228.352 167.729 227.894C167.729 226.622 166.813 225.656 165.541 225.656C164.574 225.656 163.862 226.113 163.302 227.08L145.291 258.269C145.036 258.727 144.884 259.236 144.884 259.694ZM145.596 244.277C148.903 244.277 151.244 242.751 152.109 240.054C152.465 238.935 152.617 237.51 152.617 235.17C152.617 232.829 152.465 231.405 152.109 230.286C151.244 227.589 148.903 226.063 145.596 226.063C142.289 226.063 139.949 227.589 139.084 230.286C138.727 231.405 138.575 232.829 138.575 235.17C138.575 237.51 138.727 238.935 139.084 240.054C139.949 242.751 142.289 244.277 145.596 244.277ZM145.596 240.309C144.68 240.309 144.07 239.851 143.815 239.037C143.663 238.579 143.561 237.663 143.561 235.17C143.561 232.677 143.663 231.761 143.815 231.303C144.07 230.489 144.68 230.031 145.596 230.031C146.512 230.031 147.122 230.489 147.377 231.303C147.53 231.761 147.631 232.677 147.631 235.17C147.631 237.663 147.53 238.579 147.377 239.037C147.122 239.851 146.512 240.309 145.596 240.309ZM160.504 257.302C161.369 259.999 163.709 261.525 167.016 261.525C170.323 261.525 172.664 259.999 173.529 257.302C173.885 256.183 174.038 254.758 174.038 252.418C174.038 250.078 173.885 248.653 173.529 247.534C172.664 244.837 170.323 243.311 167.016 243.311C163.709 243.311 161.369 244.837 160.504 247.534C160.148 248.653 159.995 250.078 159.995 252.418C159.995 254.758 160.148 256.183 160.504 257.302ZM165.235 256.285C165.083 255.827 164.981 254.911 164.981 252.418C164.981 249.925 165.083 249.009 165.235 248.551C165.49 247.737 166.1 247.279 167.016 247.279C167.932 247.279 168.543 247.737 168.797 248.551C168.95 249.009 169.051 249.925 169.051 252.418C169.051 254.911 168.95 255.827 168.797 256.285C168.543 257.099 167.932 257.557 167.016 257.557C166.1 257.557 165.49 257.099 165.235 256.285Z" fill="white"/><path d="M214.679 83.8485C214.679 84.9798 215.392 85.6683 216.401 85.6683C217.384 85.6683 218.122 84.9798 218.122 83.8485V70.7412C218.122 69.4871 217.384 68.6509 216.204 68.6509C215.417 68.6509 214.753 68.9706 214.114 69.4133L211.482 71.2331C210.892 71.6265 210.622 72.1675 210.622 72.684C210.622 73.5201 211.261 74.1349 212.048 74.1349C212.392 74.1349 212.761 74.0365 213.081 73.8152L214.63 72.7577H214.679V83.8485Z" fill="white"/><path d="M224.04 82.373C224.753 84.5371 226.401 85.7913 229.106 85.7913C231.811 85.7913 233.459 84.5371 234.172 82.373C234.418 81.6107 234.516 80.6762 234.516 77.1596C234.516 73.643 234.418 72.7086 234.172 71.9462C233.459 69.7822 231.811 68.528 229.106 68.528C226.401 68.528 224.753 69.7822 224.04 71.9462C223.794 72.7086 223.696 73.643 223.696 77.1596C223.696 80.6762 223.794 81.6107 224.04 82.373ZM227.434 81.7583C227.286 81.3156 227.213 80.8238 227.213 77.1596C227.213 73.4955 227.286 73.0037 227.434 72.561C227.68 71.8233 228.221 71.4544 229.106 71.4544C229.991 71.4544 230.533 71.8233 230.778 72.561C230.926 73.0037 231 73.4955 231 77.1596C231 80.8238 230.926 81.3156 230.778 81.7583C230.533 82.496 229.991 82.8649 229.106 82.8649C228.221 82.8649 227.68 82.496 227.434 81.7583Z" fill="white"/><path d="M240.459 84.8568C240.459 85.4716 240.902 85.9388 241.517 85.9388C241.984 85.9388 242.328 85.7175 242.599 85.2503L251.304 70.1756C251.427 69.9543 251.501 69.7084 251.501 69.4871C251.501 68.8723 251.058 68.405 250.443 68.405C249.976 68.405 249.632 68.6264 249.361 69.0936L240.656 84.1682C240.533 84.3896 240.459 84.6355 240.459 84.8568ZM240.804 77.4055C242.402 77.4055 243.533 76.6678 243.951 75.3644C244.123 74.8234 244.197 74.1349 244.197 73.0037C244.197 71.8724 244.123 71.1839 243.951 70.6429C243.533 69.3395 242.402 68.6018 240.804 68.6018C239.205 68.6018 238.074 69.3395 237.656 70.6429C237.484 71.1839 237.41 71.8724 237.41 73.0037C237.41 74.1349 237.484 74.8234 237.656 75.3644C238.074 76.6678 239.205 77.4055 240.804 77.4055ZM240.804 75.4874C240.361 75.4874 240.066 75.2661 239.943 74.8726C239.869 74.6513 239.82 74.2086 239.82 73.0037C239.82 71.7987 239.869 71.356 239.943 71.1347C240.066 70.7412 240.361 70.5199 240.804 70.5199C241.246 70.5199 241.541 70.7412 241.664 71.1347C241.738 71.356 241.787 71.7987 241.787 73.0037C241.787 74.2086 241.738 74.6513 241.664 74.8726C241.541 75.2661 241.246 75.4874 240.804 75.4874ZM248.009 83.701C248.427 85.0043 249.558 85.7421 251.157 85.7421C252.755 85.7421 253.886 85.0043 254.304 83.701C254.476 83.16 254.55 82.4714 254.55 81.3402C254.55 80.209 254.476 79.5204 254.304 78.9794C253.886 77.6761 252.755 76.9383 251.157 76.9383C249.558 76.9383 248.427 77.6761 248.009 78.9794C247.837 79.5204 247.763 80.209 247.763 81.3402C247.763 82.4714 247.837 83.16 248.009 83.701ZM250.296 83.2092C250.222 82.9878 250.173 82.5452 250.173 81.3402C250.173 80.1352 250.222 79.6926 250.296 79.4712C250.419 79.0778 250.714 78.8565 251.157 78.8565C251.599 78.8565 251.894 79.0778 252.017 79.4712C252.091 79.6926 252.14 80.1352 252.14 81.3402C252.14 82.5452 252.091 82.9878 252.017 83.2092C251.894 83.6026 251.599 83.824 251.157 83.824C250.714 83.824 250.419 83.6026 250.296 83.2092Z" fill="white"/></svg>