<svg width="100" height="100" viewBox="0 0 100 100" fill="none" xmlns="http://www.w3.org/2000/svg"><mask id="mask0" mask-type="alpha" maskUnits="userSpaceOnUse" x="23" y="60" width="68" height="23"><path fill-rule="evenodd" clip-rule="evenodd" d="M78.9552 60.6467C85.0551 60.6467 90.0002 65.6017 90.0002 71.7139C90.0002 77.8261 85.0551 82.781 78.9552 82.781H23.73V60.6467H78.9552Z" fill="white"/></mask><g mask="url(#mask0)"><path fill-rule="evenodd" clip-rule="evenodd" d="M21.4297 85.0869H92.302V58.3413H21.4297V85.0869Z" fill="#FFC800"/></g><mask id="mask1" mask-type="alpha" maskUnits="userSpaceOnUse" x="21" y="65" width="63" height="14"><path fill-rule="evenodd" clip-rule="evenodd" d="M77.1138 65.2581C80.6722 65.2581 83.5568 68.1484 83.5568 71.7139C83.5568 75.2794 80.6722 78.1697 77.1138 78.1697H21.8887V65.2581H77.1138Z" fill="white"/></mask><g mask="url(#mask1)"><path fill-rule="evenodd" clip-rule="evenodd" d="M19.5884 80.4754H85.8586V62.9524H19.5884V80.4754Z" fill="#F0F0F0"/></g><mask id="mask2" mask-type="alpha" maskUnits="userSpaceOnUse" x="54" y="65" width="32" height="14"><path fill-rule="evenodd" clip-rule="evenodd" d="M78.9553 65.2581C82.5137 65.2581 85.3983 68.1484 85.3983 71.7139C85.3983 75.2794 82.5137 78.1697 78.9553 78.1697H54.104V65.2581H78.9553Z" fill="white"/></mask><g mask="url(#mask2)"><path fill-rule="evenodd" clip-rule="evenodd" d="M51.8037 80.4754H87.7001V62.9524H51.8037V80.4754Z" fill="#E0E0E0"/></g><mask id="mask3" mask-type="alpha" maskUnits="userSpaceOnUse" x="19" y="60" width="37" height="6"><path fill-rule="evenodd" clip-rule="evenodd" d="M53.182 60.6467C54.1986 60.6467 55.0228 61.4725 55.0228 62.4913V63.4135C55.0228 64.4322 54.1986 65.258 53.182 65.258H20.9673C19.9506 65.258 19.1265 64.4322 19.1265 63.4135V62.4913C19.1265 61.4725 19.9506 60.6467 20.9673 60.6467H53.182Z" fill="white"/></mask><g mask="url(#mask3)"><path fill-rule="evenodd" clip-rule="evenodd" d="M16.8262 67.5639H57.3246V58.3413H16.8262V67.5639Z" fill="#FFD900"/></g><mask id="mask4" mask-type="alpha" maskUnits="userSpaceOnUse" x="19" y="78" width="37" height="5"><path fill-rule="evenodd" clip-rule="evenodd" d="M53.182 78.1697C54.1986 78.1697 55.0228 78.9955 55.0228 80.0142V80.9365C55.0228 81.9552 54.1986 82.781 53.182 82.781H20.9673C19.9506 82.781 19.1265 81.9552 19.1265 80.9365V80.0142C19.1265 78.9955 19.9506 78.1697 20.9673 78.1697H53.182Z" fill="white"/></mask><g mask="url(#mask4)"><path fill-rule="evenodd" clip-rule="evenodd" d="M16.8262 85.0866H57.3246V75.864H16.8262V85.0866Z" fill="#FFD900"/></g><mask id="mask5" mask-type="alpha" maskUnits="userSpaceOnUse" x="9" y="38" width="67" height="23"><path fill-rule="evenodd" clip-rule="evenodd" d="M20.047 38.5125H75.2722V60.6467H20.047C13.947 60.6467 9.00195 55.6918 9.00195 49.5796C9.00195 43.4674 13.947 38.5125 20.047 38.5125Z" fill="white"/></mask><g mask="url(#mask5)"><path fill-rule="evenodd" clip-rule="evenodd" d="M6.70166 62.9524H77.574V36.2068H6.70166V62.9524Z" fill="#1899D6"/></g><mask id="mask6" mask-type="alpha" maskUnits="userSpaceOnUse" x="15" y="43" width="63" height="14"><path fill-rule="evenodd" clip-rule="evenodd" d="M21.8868 43.1238H77.112V56.0355H21.8868C18.3284 56.0355 15.4438 53.1451 15.4438 49.5796C15.4438 46.0141 18.3284 43.1238 21.8868 43.1238Z" fill="white"/></mask><g mask="url(#mask6)"><path fill-rule="evenodd" clip-rule="evenodd" d="M13.1436 58.3411H79.4138V40.8181H13.1436V58.3411Z" fill="#E0E0E0"/></g><mask id="mask7" mask-type="alpha" maskUnits="userSpaceOnUse" x="13" y="43" width="32" height="14"><path fill-rule="evenodd" clip-rule="evenodd" d="M20.0484 43.1238H44.8997V56.0355H20.0484C16.4901 56.0355 13.6055 53.1451 13.6055 49.5796C13.6055 46.0141 16.4901 43.1238 20.0484 43.1238Z" fill="white"/></mask><g mask="url(#mask7)"><path fill-rule="evenodd" clip-rule="evenodd" d="M11.3052 58.3411H47.2015V40.8181H11.3052V58.3411Z" fill="#F0F0F0"/></g><mask id="mask8" mask-type="alpha" maskUnits="userSpaceOnUse" x="43" y="38" width="37" height="6"><path fill-rule="evenodd" clip-rule="evenodd" d="M45.8203 38.5125H78.035C79.0517 38.5125 79.8759 39.3383 79.8759 40.357V41.2792C79.8759 42.2979 79.0517 43.1238 78.035 43.1238H45.8203C44.8037 43.1238 43.9795 42.2979 43.9795 41.2792V40.357C43.9795 39.3383 44.8037 38.5125 45.8203 38.5125Z" fill="white"/></mask><g mask="url(#mask8)"><path fill-rule="evenodd" clip-rule="evenodd" d="M41.6792 45.4294H82.1777V36.2068H41.6792V45.4294Z" fill="#0F7EB3"/></g><mask id="mask9" mask-type="alpha" maskUnits="userSpaceOnUse" x="43" y="56" width="37" height="5"><path fill-rule="evenodd" clip-rule="evenodd" d="M45.8203 56.0354H78.035C79.0517 56.0354 79.8759 56.8612 79.8759 57.8799V58.8022C79.8759 59.8209 79.0517 60.6467 78.035 60.6467H45.8203C44.8037 60.6467 43.9795 59.8209 43.9795 58.8022V57.8799C43.9795 56.8612 44.8037 56.0354 45.8203 56.0354Z" fill="white"/></mask><g mask="url(#mask9)"><path fill-rule="evenodd" clip-rule="evenodd" d="M41.6792 62.9526H82.1777V53.73H41.6792V62.9526Z" fill="#0F7EB3"/></g><mask id="mask10" mask-type="alpha" maskUnits="userSpaceOnUse" x="14" y="16" width="68" height="23"><path fill-rule="evenodd" clip-rule="evenodd" d="M26.0299 16.3782H81.2551V38.5125H26.0299C19.9299 38.5125 14.9849 33.5575 14.9849 27.4453C14.9849 21.3331 19.9299 16.3782 26.0299 16.3782Z" fill="white"/></mask><g mask="url(#mask10)"><path fill-rule="evenodd" clip-rule="evenodd" d="M12.6846 40.8179H83.5569V14.0723H12.6846V40.8179Z" fill="#78C800"/></g><mask id="mask11" mask-type="alpha" maskUnits="userSpaceOnUse" x="21" y="20" width="63" height="14"><path fill-rule="evenodd" clip-rule="evenodd" d="M27.8697 20.9895H83.0949V33.9012H27.8697C24.3114 33.9012 21.4268 31.0108 21.4268 27.4453C21.4268 23.8799 24.3114 20.9895 27.8697 20.9895Z" fill="white"/></mask><g mask="url(#mask11)"><path fill-rule="evenodd" clip-rule="evenodd" d="M19.1265 36.2071H85.3967V18.6841H19.1265V36.2071Z" fill="#E0E0E0"/></g><mask id="mask12" mask-type="alpha" maskUnits="userSpaceOnUse" x="19" y="20" width="32" height="14"><path fill-rule="evenodd" clip-rule="evenodd" d="M26.0284 20.9895H50.8797V33.9012H26.0284C22.47 33.9012 19.5854 31.0108 19.5854 27.4453C19.5854 23.8799 22.47 20.9895 26.0284 20.9895Z" fill="white"/></mask><g mask="url(#mask12)"><path fill-rule="evenodd" clip-rule="evenodd" d="M17.2852 36.2071H53.1815V18.6841H17.2852V36.2071Z" fill="#F0F0F0"/></g><mask id="mask13" mask-type="alpha" maskUnits="userSpaceOnUse" x="49" y="16" width="37" height="5"><path fill-rule="evenodd" clip-rule="evenodd" d="M51.8003 16.3782H84.015C85.0316 16.3782 85.8558 17.204 85.8558 18.2227V19.145C85.8558 20.1636 85.0316 20.9895 84.015 20.9895H51.8003C50.7837 20.9895 49.9595 20.1636 49.9595 19.145V18.2227C49.9595 17.204 50.7837 16.3782 51.8003 16.3782Z" fill="white"/></mask><g mask="url(#mask13)"><path fill-rule="evenodd" clip-rule="evenodd" d="M47.6592 23.2949H88.1576V14.0723H47.6592V23.2949Z" fill="#50AF12"/></g><mask id="mask14" mask-type="alpha" maskUnits="userSpaceOnUse" x="49" y="33" width="37" height="6"><path fill-rule="evenodd" clip-rule="evenodd" d="M51.8003 33.9011H84.015C85.0316 33.9011 85.8558 34.727 85.8558 35.7456V36.6679C85.8558 37.6866 85.0316 38.5124 84.015 38.5124H51.8003C50.7837 38.5124 49.9595 37.6866 49.9595 36.6679V35.7456C49.9595 34.727 50.7837 33.9011 51.8003 33.9011Z" fill="white"/></mask><g mask="url(#mask14)"><path fill-rule="evenodd" clip-rule="evenodd" d="M47.6592 40.8181H88.1576V31.5955H47.6592V40.8181Z" fill="#50AF12"/></g><mask id="mask15" mask-type="alpha" maskUnits="userSpaceOnUse" x="26" y="48" width="12" height="24"><path fill-rule="evenodd" clip-rule="evenodd" d="M26.9512 48.6572H37.9962V70.7992C37.9962 71.3085 37.5841 71.7215 37.0758 71.7215C36.9219 71.7215 36.7705 71.6828 36.6353 71.609L32.4737 69.3364L28.312 71.609C27.8657 71.8527 27.3067 71.6878 27.0634 71.2405C26.9898 71.1051 26.9512 70.9534 26.9512 70.7992V48.6572Z" fill="white"/></mask><g mask="url(#mask15)"><path fill-rule="evenodd" clip-rule="evenodd" d="M24.6509 74.0273H40.298V46.3516H24.6509V74.0273Z" fill="#FF4B4B"/></g></svg>