<svg width="100" height="100" viewBox="0 0 100 100" fill="none" xmlns="http://www.w3.org/2000/svg"><g clip-path="url(#clip0)"><path d="M92.0158 24.3568V82.9696C92.0158 86.3149 90.687 89.5231 88.3217 91.8884C85.9564 94.2536 82.7483 95.5824 79.4029 95.5824H20.7901C17.445 95.5824 14.2368 94.2536 11.8715 91.8884C9.50612 89.5231 8.17725 86.3149 8.17725 82.9696V24.3568C8.17725 21.0116 9.50612 17.8035 11.8715 15.4381C14.2368 13.0728 17.445 11.7439 20.7901 11.7439H79.4029C82.7483 11.7439 85.9564 13.0728 88.3217 15.4381C90.687 17.8035 92.0158 21.0116 92.0158 24.3568Z" fill="#75EFF2"/><path d="M92.0158 65.0667V82.9694C92.0158 84.227 91.8281 85.4772 91.4594 86.6791C90.6663 89.2573 89.0667 91.5136 86.8972 93.1154C84.7271 94.718 82.1006 95.5831 79.403 95.5823H20.7902C18.4764 95.5816 16.2072 94.9443 14.2313 93.7408C12.2553 92.5367 10.6486 90.8124 9.58697 88.7565C9.46084 88.5191 9.34213 88.2669 9.23084 88.0146C8.5312 86.4246 8.17225 84.7063 8.1773 82.9694V65.0667H92.0158Z" fill="#FFCE89"/><path d="M92.0158 82.4055V82.9694C92.0158 84.227 91.8281 85.4771 91.4593 86.6791C90.6662 89.2573 89.0666 91.5135 86.8972 93.1161C84.727 94.7179 82.1006 95.583 79.4029 95.5823H30.272C28.9459 94.781 27.9184 93.5672 27.3464 92.1278C26.7743 90.6877 26.689 89.1 27.1034 87.6065C27.5179 86.1137 28.4094 84.7975 29.6419 83.8582C30.8744 82.9189 32.3802 82.4092 33.9297 82.4055H92.0158Z" fill="#FFB145"/><path d="M92.0158 60.3477H8.17725V71.8105H92.0158V60.3477Z" fill="#00AEF8"/><path d="M8.17725 68.6135H40.3252C40.7483 68.6135 41.1541 68.7816 41.4532 69.0807C41.7524 69.3799 41.9204 69.7856 41.9204 70.2087C41.9254 70.4212 41.8878 70.6327 41.8098 70.8305C41.7319 71.0284 41.6151 71.2086 41.4665 71.3607C41.3179 71.5128 41.1403 71.6336 40.9444 71.7161C40.7484 71.7985 40.5379 71.841 40.3252 71.8409H8.17725V68.6135Z" fill="#84D8FF"/><path d="M48.5761 62.5737H26.1845C25.3035 62.5737 24.5894 63.2879 24.5894 64.1689V64.1763C24.5894 65.0573 25.3035 65.7715 26.1845 65.7715H48.5761C49.4571 65.7715 50.1712 65.0573 50.1712 64.1763V64.1689C50.1712 63.2879 49.4571 62.5737 48.5761 62.5737Z" fill="#84D8FF"/><path d="M92.0161 68.6135V71.8409H71.7094C71.3042 71.8133 70.9246 71.6328 70.6473 71.3361C70.3701 71.0392 70.2158 70.6482 70.2158 70.2421C70.2158 69.8359 70.3701 69.4449 70.6473 69.1481C70.9246 68.8512 71.3042 68.6708 71.7094 68.6432L92.0161 68.6135Z" fill="#84D8FF"/><path d="M79.099 49.8493L73.3564 60.3477H80.2268V50.1387C80.2268 50.0053 80.1822 49.8756 80.1006 49.7702C80.019 49.6648 79.904 49.5896 79.7749 49.5565C79.6458 49.5233 79.5093 49.5341 79.3869 49.5871C79.2645 49.6401 79.1636 49.7324 79.099 49.8493Z" fill="#FF6360"/><path d="M62.4723 84.8986H58.6736L45.0146 6.17939C44.9345 5.68915 45.0496 5.18704 45.3354 4.78068C45.6211 4.37431 46.0546 4.09605 46.543 4.00553C46.6517 3.99816 46.7608 3.99816 46.8695 4.00553C47.3116 4.00609 47.7393 4.16268 48.0773 4.44771C48.4152 4.73274 48.6417 5.12792 48.7169 5.56359L62.4723 84.8986Z" fill="#BABABA"/><path d="M100.177 15.4016L0.0161133 33.9055C12.7933 20.9132 29.2594 12.1681 47.1786 8.85772C65.0977 5.54732 83.6017 7.83204 100.177 15.4016Z" fill="#FF6360"/><path d="M21.7251 37.2145L2.10095 40.8351C1.84547 40.8794 1.5834 40.8674 1.33305 40.7999C1.0827 40.7323 0.850129 40.611 0.651571 40.4442C0.453016 40.2774 0.293275 40.0693 0.183515 39.8344C0.0737548 39.5995 0.0166231 39.3434 0.0161133 39.0841V33.8906L23.758 29.5503V34.8106C23.7501 35.3848 23.5431 35.9384 23.1723 36.3768C22.8016 36.8153 22.29 37.1113 21.7251 37.2145Z" fill="#FF2E2A"/><path d="M98.1594 23.0953L78.5352 26.7234C78.2785 26.7701 78.0151 26.7599 77.7629 26.6935C77.5106 26.6271 77.2762 26.5061 77.0758 26.3391C76.8755 26.172 76.7145 25.9631 76.604 25.727C76.4934 25.4908 76.4355 25.2332 76.4355 24.9724V19.7789L100.177 15.394V20.6469C100.182 21.2271 99.9823 21.7903 99.6136 22.2379C99.2441 22.6855 98.7299 22.9891 98.1594 23.0953Z" fill="#FF2E2A"/><path d="M70.9596 28.1184L29.2925 35.8123C29.036 35.859 28.7723 35.8488 28.5201 35.7824C28.2679 35.716 28.0334 35.595 27.8331 35.428C27.6328 35.2609 27.4717 35.052 27.3611 34.8159C27.2504 34.5797 27.193 34.3221 27.1929 34.0613V28.8678L72.9776 20.4246V25.6923C72.9784 26.2689 72.7769 26.8276 72.4081 27.271C72.0394 27.7143 71.5268 28.0142 70.9596 28.1184Z" fill="#FF2E2A"/></g><defs><clipPath id="clip0"><rect width="100" height="100" fill="white"/></clipPath></defs></svg>