<svg width="357" height="302" viewBox="0 0 357 302" fill="none" xmlns="http://www.w3.org/2000/svg"><path d="M141.748 22.9518C157.883 24.5191 172.02 34.4182 179.012 49.0442C185.956 63.5717 184.409 80.7322 174.978 93.7834L165.577 106.794C157.066 118.573 142.276 124.034 128.153 120.613L112.321 116.778C107.486 115.607 103.271 112.655 100.516 108.512L91.4982 94.9473C83.4636 82.8618 83.5937 67.1029 91.8269 55.1517L100.93 41.9371C110.076 28.6619 125.703 21.3932 141.748 22.9518Z" fill="#FFCE8E"/><path fill-rule="evenodd" clip-rule="evenodd" d="M141.748 22.9518C157.883 24.5191 172.021 34.4182 179.012 49.0442C185.956 63.5717 184.409 80.7322 174.979 93.7834L165.577 106.794C159.348 115.415 149.756 120.651 139.523 121.499L86.7955 84.5791C84.1159 74.6856 85.8011 63.8988 91.827 55.1517L100.931 41.9371C110.076 28.6619 125.703 21.3932 141.748 22.9518Z" fill="#F34848"/><path d="M106.114 98.1053L119.81 107.695L94.6303 150.096C93.7943 151.504 91.9755 151.967 90.5678 151.131C90.5041 151.094 90.4418 151.053 90.3811 151.011L75.4758 140.574C74.1347 139.635 73.8087 137.787 74.7478 136.446C74.7903 136.385 74.8351 136.326 74.882 136.268L106.114 98.1053Z" fill="#F0B86F"/><path fill-rule="evenodd" clip-rule="evenodd" d="M111.138 101.623L115.165 104.443L85.1315 147.334L81.105 144.514L111.138 101.623Z" fill="#FFCE8E"/><path d="M71.1251 43.8806C80.4612 43.8806 88.0295 36.3122 88.0295 26.9762C88.0295 17.6401 80.4612 10.0718 71.1251 10.0718C61.7891 10.0718 54.2207 17.6401 54.2207 26.9762C54.2207 36.3122 61.7891 43.8806 71.1251 43.8806Z" fill="#FFA100"/><path d="M67.068 27.6524C70.429 27.6524 73.1536 24.9278 73.1536 21.5668C73.1536 18.2058 70.429 15.4812 67.068 15.4812C63.707 15.4812 60.9824 18.2058 60.9824 21.5668C60.9824 24.9278 63.707 27.6524 67.068 27.6524Z" fill="#FFC156"/><path d="M141.119 258.342L118.873 264.721C117.053 265.243 116 267.141 116.522 268.961L118.412 275.553C118.934 277.373 120.833 278.425 122.653 277.904L144.899 271.525C146.719 271.003 147.771 269.104 147.25 267.284L145.359 260.692C144.838 258.872 142.939 257.82 141.119 258.342Z" fill="#9069CD"/><path d="M38.6148 180.734L164.675 144.587C168.315 143.543 172.113 145.648 173.157 149.288L200.562 244.863C201.606 248.504 199.501 252.301 195.861 253.345L69.8006 289.492C66.1603 290.536 62.3631 288.431 61.3192 284.791L33.9135 189.215C32.8696 185.575 34.9745 181.778 38.6148 180.734Z" fill="#9069CD"/><path d="M136.52 251.635L119.218 256.596C117.398 257.118 116.345 259.017 116.867 260.837L118.049 264.957C118.571 266.777 120.469 267.829 122.289 267.307L139.592 262.346C141.412 261.824 142.464 259.926 141.942 258.105L140.761 253.986C140.239 252.166 138.341 251.113 136.52 251.635Z" fill="#D2E4E8"/><path d="M63.0586 256.65L184.999 221.684L190.197 239.811C190.719 241.631 189.666 243.529 187.846 244.051L130.173 260.589L111.22 266.024L72.4969 277.127C70.6768 277.649 68.7782 276.597 68.2562 274.776L63.0586 256.65Z" fill="#D2E4E8"/><path d="M133.361 271.712L130.172 260.589C128.345 254.219 121.7 250.535 115.329 252.362L65.8937 266.537L70.2644 281.78L43.2131 187.441C42.6912 185.621 43.7436 183.722 45.5638 183.2L91.7035 169.97C98.074 168.143 104.719 171.826 106.546 178.197C104.719 171.826 108.403 165.181 114.773 163.354L160.913 150.124C162.733 149.602 164.632 150.655 165.154 152.475L196.576 262.057L187.834 231.571L138.399 245.747C132.028 247.574 128.345 254.219 130.172 260.589L133.361 271.712Z" fill="white"/><path d="M94.8896 177.973L53.6934 189.785C52.3283 190.177 51.539 191.601 51.9304 192.966L52.6392 195.438C53.0307 196.803 54.4546 197.592 55.8198 197.201L97.0159 185.388C98.381 184.996 99.1704 183.572 98.7789 182.207L98.0701 179.736C97.6787 178.37 96.2547 177.581 94.8896 177.973Z" fill="#D2E4E8"/><path d="M104.576 211.753L63.38 223.566C62.0149 223.958 61.2255 225.382 61.617 226.747L62.3257 229.218C62.7172 230.584 64.1412 231.373 65.5063 230.981L106.702 219.169C108.068 218.777 108.857 217.353 108.465 215.988L107.757 213.516C107.365 212.151 105.941 211.362 104.576 211.753Z" fill="#D2E4E8"/><path d="M90.7879 197.874L58.6549 207.088C57.2898 207.479 56.5004 208.903 56.8919 210.268L57.6006 212.74C57.9921 214.105 59.4161 214.895 60.7812 214.503L92.9142 205.289C94.2793 204.898 95.0686 203.474 94.6772 202.109L93.9684 199.637C93.577 198.272 92.153 197.482 90.7879 197.874Z" fill="#D2E4E8"/><path d="M100.238 230.831L68.1051 240.045C66.7399 240.436 65.9506 241.86 66.3421 243.225L67.0508 245.697C67.4423 247.062 68.8663 247.851 70.2314 247.46L102.364 238.246C103.73 237.855 104.519 236.431 104.127 235.065L103.419 232.594C103.027 231.229 101.603 230.439 100.238 230.831Z" fill="#D2E4E8"/><path d="M59.9156 171.059L78.8659 165.625C80.231 165.234 81.6549 166.023 82.0464 167.388L99.0415 226.658C99.433 228.023 98.6437 229.447 97.2786 229.838C96.8306 229.967 96.3561 229.971 95.9059 229.851L87.3531 227.565C86.4082 227.312 85.4019 227.618 84.7567 228.353L79.5059 234.335C78.5691 235.403 76.9444 235.508 75.8771 234.572C75.5066 234.246 75.2374 233.822 75.1016 233.348L58.1526 174.24C57.7612 172.875 58.5505 171.451 59.9156 171.059Z" fill="#FF4B4B"/><path d="M158.332 159.781L117.136 171.593C115.771 171.985 114.981 173.409 115.373 174.774L116.082 177.246C116.473 178.611 117.897 179.4 119.262 179.009L160.458 167.196C161.823 166.805 162.613 165.381 162.221 164.015L161.513 161.544C161.121 160.179 159.697 159.389 158.332 159.781Z" fill="#D2E4E8"/><path d="M168.019 193.561L126.822 205.374C125.457 205.766 124.668 207.19 125.059 208.555L125.768 211.027C126.16 212.392 127.584 213.181 128.949 212.79L170.145 200.977C171.51 200.585 172.299 199.161 171.908 197.796L171.199 195.324C170.808 193.959 169.384 193.17 168.019 193.561Z" fill="#D2E4E8"/><path d="M154.23 179.682L122.097 188.896C120.732 189.287 119.943 190.711 120.334 192.076L121.043 194.548C121.434 195.913 122.858 196.703 124.224 196.311L156.357 187.097C157.722 186.706 158.511 185.282 158.12 183.917L157.411 181.445C157.019 180.08 155.595 179.291 154.23 179.682Z" fill="#D2E4E8"/><path d="M163.68 212.639L131.547 221.853C130.182 222.244 129.393 223.668 129.784 225.034L130.493 227.505C130.885 228.87 132.309 229.66 133.674 229.268L165.807 220.054C167.172 219.663 167.961 218.239 167.57 216.874L166.861 214.402C166.47 213.037 165.046 212.248 163.68 212.639Z" fill="#D2E4E8"/><g clip-path="url(#clip0)"><path d="M201.712 82.9892L156.822 99.3276C154.27 100.257 152.954 103.078 153.883 105.631C159.324 120.579 175.852 128.286 190.8 122.845C205.748 117.405 213.455 100.876 208.015 85.9282C207.086 83.3761 204.264 82.0603 201.712 82.9892Z" fill="#2B70C9"/><path d="M274.469 95.8186L311.064 126.525C313.144 128.271 313.416 131.372 311.67 133.453C301.445 145.639 283.277 147.228 271.092 137.003C258.906 126.778 257.316 108.61 267.541 96.4247C269.287 94.3442 272.389 94.0728 274.469 95.8186Z" fill="#2B70C9"/><path fill-rule="evenodd" clip-rule="evenodd" d="M223.464 102.802L246.093 106.792C275.259 111.935 294.734 139.748 289.591 168.914L277.888 235.282C277.484 237.575 275.297 239.107 273.004 238.702L153.06 217.553C150.767 217.149 149.236 214.962 149.64 212.668L161.342 146.3C166.485 117.134 194.298 97.6593 223.464 102.802Z" fill="#07DAFF"/><path fill-rule="evenodd" clip-rule="evenodd" d="M289.591 168.914L285.931 189.661L261.47 185.348C239.553 181.484 224.919 160.584 228.783 138.667C231.258 124.634 240.716 113.587 252.953 108.469C278.24 116.431 294.319 142.101 289.591 168.914Z" fill="#09B1FD"/><path fill-rule="evenodd" clip-rule="evenodd" d="M257.634 120.495C269.309 122.554 277.152 133.578 275.33 145.239L275.215 145.917C273.131 157.735 261.861 165.626 250.043 163.542C238.225 161.458 230.334 150.188 232.418 138.37L232.462 138.12C234.546 126.302 245.816 118.411 257.634 120.495Z" fill="#F9F9F9"/><path fill-rule="evenodd" clip-rule="evenodd" d="M206.964 111.56C218.639 113.619 226.482 124.644 224.66 136.305L224.545 136.982C222.461 148.8 211.191 156.691 199.373 154.607C187.555 152.523 179.664 141.254 181.748 129.436L181.792 129.186C183.876 117.368 195.146 109.477 206.964 111.56Z" fill="#F9F9F9"/><path fill-rule="evenodd" clip-rule="evenodd" d="M248.69 133.161C255.005 134.275 259.222 140.297 258.108 146.612L257.784 148.452C256.67 154.767 250.648 158.983 244.333 157.87C238.018 156.756 233.802 150.734 234.915 144.419L235.24 142.58C235.399 141.677 235.658 140.818 236.004 140.011C236.804 140.999 237.95 141.713 239.301 141.952C242.272 142.476 245.106 140.491 245.63 137.52C245.912 135.921 245.468 134.362 244.535 133.181C245.87 132.93 247.273 132.912 248.69 133.161Z" fill="#4B4B4B"/><path fill-rule="evenodd" clip-rule="evenodd" d="M210.82 126.484C217.135 127.597 221.351 133.619 220.238 139.934L219.913 141.774C218.8 148.089 212.778 152.306 206.463 151.192C200.148 150.079 195.931 144.057 197.045 137.742L197.369 135.902C197.538 134.945 197.819 134.036 198.197 133.187C199 134.269 200.203 135.057 201.635 135.31C204.606 135.834 207.44 133.85 207.964 130.878C208.251 129.25 207.786 127.664 206.817 126.475C208.107 126.251 209.456 126.243 210.82 126.484Z" fill="#4B4B4B"/><path fill-rule="evenodd" clip-rule="evenodd" d="M215.877 164.825L230.702 167.439L228.815 178.146C228.093 182.24 224.189 184.974 220.095 184.252C216.001 183.53 213.268 179.626 213.99 175.532L215.877 164.825Z" fill="#FF7878"/><path fill-rule="evenodd" clip-rule="evenodd" d="M223.573 165.357C224.687 165.554 225.432 166.616 225.235 167.731L223.575 177.147C223.378 178.262 222.315 179.006 221.201 178.809C220.087 178.613 219.342 177.55 219.539 176.436L221.199 167.019C221.396 165.905 222.459 165.161 223.573 165.357Z" fill="#E75252"/><path fill-rule="evenodd" clip-rule="evenodd" d="M239.31 157.184L240.009 157.005C250.849 154.228 262.143 153.723 273.18 155.518L274.248 155.699L271.862 169.229L271.116 169.392L269.663 169.699L268.259 169.976L266.906 170.225L265.603 170.446L264.35 170.637C260.053 171.258 256.678 171.352 254.226 170.92C251.774 170.487 248.635 169.245 244.809 167.192L243.697 166.583L242.548 165.93L241.361 165.234L240.137 164.493L238.876 163.708C238.663 163.573 238.448 163.437 238.232 163.299L239.31 157.184Z" fill="#09B1FD"/><path fill-rule="evenodd" clip-rule="evenodd" d="M212.732 152.578L212.136 152.17C202.899 145.853 192.46 141.516 181.474 139.428L180.409 139.233L178.024 152.763C181.85 156.583 186.772 159.024 192.791 160.085C198.81 161.147 205.097 160.682 211.654 158.692L212.732 152.578Z" fill="#07DAFF"/><path fill-rule="evenodd" clip-rule="evenodd" d="M240.827 159.53C239.713 165.845 233.691 170.061 227.376 168.948L219.343 167.531C213.028 166.418 208.811 160.396 209.925 154.081C211.038 147.766 217.06 143.549 223.375 144.663L231.409 146.079C237.724 147.193 241.94 153.215 240.827 159.53Z" fill="#1899D6"/><path fill-rule="evenodd" clip-rule="evenodd" d="M224.711 144.19L230.316 145.179C234.031 145.834 236.511 149.376 235.856 153.091C235.201 156.805 231.659 159.286 227.944 158.631L222.339 157.643C218.624 156.988 216.144 153.445 216.799 149.73C217.454 146.016 220.996 143.535 224.711 144.19Z" fill="#4B4B4B"/></g><defs><clipPath id="clip0"><rect width="163.916" height="163.916" fill="white" transform="translate(159.812 61.8564) rotate(10)"/></clipPath></defs></svg>