<svg width="308" height="235" viewBox="0 0 308 235" fill="none" xmlns="http://www.w3.org/2000/svg"><path d="M118.59 98.8469C127.169 91.0938 134.092 81.8482 134.261 70.0241C134.301 50.6291 117.965 34.8562 97.7242 34.9204C87.364 34.8535 78.0276 38.9679 71.4666 45.7421C64.8499 39.1971 55.4306 35.0863 45.2342 35.0308C24.9935 35.095 8.58928 50.8798 8.71294 70.2863C8.76512 81.3039 13.9956 91.2041 22.2724 97.5365L60.9948 131.971C66.4162 136.789 74.4728 136.859 79.9028 132.143L118.59 98.8469Z" fill="#FF4B4B"/><path d="M191.944 42.4809C196.236 38.57 199.7 33.9072 199.788 27.9465C199.814 18.1692 191.65 10.2226 181.529 10.2608C176.349 10.23 171.679 12.3068 168.397 15.7237C165.09 12.4262 160.381 10.3566 155.283 10.3316C145.162 10.3697 136.955 18.3318 137.012 28.1147C137.035 33.6689 139.647 38.6582 143.784 41.848L163.136 59.1958C165.845 61.6228 169.874 61.6559 172.59 59.2768L191.944 42.4809Z" fill="#FF4B4B"/><path d="M245.256 76.2388H65.4548C62.4906 76.2388 60.0876 78.6417 60.0876 81.606V210.419C60.0876 213.383 62.4906 215.786 65.4548 215.786H245.256C248.22 215.786 250.623 213.383 250.623 210.419V81.606C250.623 78.6417 248.22 76.2388 245.256 76.2388Z" fill="#4B4B4B"/><path d="M234.521 84.9604H74.8472C71.883 84.9604 69.48 87.3634 69.48 90.3276V212.431C69.48 215.396 71.883 217.798 74.8472 217.798H234.521C237.485 217.798 239.888 215.396 239.888 212.431V90.3276C239.888 87.3634 237.485 84.9604 234.521 84.9604Z" fill="#707070"/><path d="M166.257 96.0303H83.0659C81.9543 96.0303 81.0532 96.9314 81.0532 98.043V177.041C81.0532 178.153 81.9543 179.054 83.0659 179.054H166.257C167.369 179.054 168.27 178.153 168.27 177.041V98.043C168.27 96.9314 167.369 96.0303 166.257 96.0303Z" fill="#5F5F5F"/><path d="M229.154 183.247H83.0659C81.9543 183.247 81.0532 184.148 81.0532 185.26V210.586C81.0532 211.698 81.9543 212.599 83.0659 212.599H229.154C230.266 212.599 231.167 211.698 231.167 210.586V185.26C231.167 184.148 230.266 183.247 229.154 183.247Z" fill="#5F5F5F"/><path d="M228.819 95.3347H174.979C173.867 95.3347 172.966 96.2358 172.966 97.3474V176.346C172.966 177.457 173.867 178.358 174.979 178.358H228.819C229.93 178.358 230.831 177.457 230.831 176.346V97.3474C230.831 96.2358 229.93 95.3347 228.819 95.3347Z" fill="#5F5F5F"/><path d="M215.233 106.237H188.397C185.155 106.237 182.527 108.865 182.527 112.107V161.586C182.527 164.828 185.155 167.456 188.397 167.456H215.233C218.475 167.456 221.103 164.828 221.103 161.586V112.107C221.103 108.865 218.475 106.237 215.233 106.237Z" fill="white"/><path d="M200.138 136.847C200.138 132.91 196.946 129.718 193.009 129.718C189.073 129.718 185.881 132.91 185.881 136.847C185.881 140.783 189.073 143.975 193.009 143.975C196.946 143.975 200.138 140.783 200.138 136.847Z" fill="#FF4B4B"/><path d="M217.749 136.847C217.749 132.91 214.557 129.718 210.62 129.718C206.684 129.718 203.492 132.91 203.492 136.847C203.492 140.783 206.684 143.975 210.62 143.975C214.557 143.975 217.749 140.783 217.749 136.847Z" fill="#1CB0F6"/><path d="M208.524 121.751C208.524 117.814 205.332 114.623 201.396 114.623C197.459 114.623 194.267 117.814 194.267 121.751C194.267 125.688 197.459 128.88 201.396 128.88C205.332 128.88 208.524 125.688 208.524 121.751Z" fill="#FFD900"/><path d="M208.524 151.942C208.524 148.005 205.332 144.814 201.396 144.814C197.459 144.814 194.267 148.005 194.267 151.942C194.267 155.879 197.459 159.07 201.396 159.07C205.332 159.07 208.524 155.879 208.524 151.942Z" fill="#D4D4D4"/><path d="M266.054 208.406H44.657C41.137 208.406 38.2834 211.26 38.2834 214.78C38.2834 218.3 41.137 221.153 44.657 221.153H266.054C269.574 221.153 272.427 218.3 272.427 214.78C272.427 211.26 269.574 208.406 266.054 208.406Z" fill="#4B4B4B"/><path d="M119.63 110.43H96.9868C95.1342 110.43 93.6323 111.932 93.6323 113.784C93.6323 115.637 95.1342 117.139 96.9868 117.139H119.63C121.482 117.139 122.984 115.637 122.984 113.784C122.984 111.932 121.482 110.43 119.63 110.43Z" fill="#E2BF76"/><path d="M131.37 124.687H96.9868C95.1342 124.687 93.6323 126.188 93.6323 128.041C93.6323 129.894 95.1342 131.396 96.9868 131.396H131.37C133.223 131.396 134.725 129.894 134.725 128.041C134.725 126.188 133.223 124.687 131.37 124.687Z" fill="#707070"/><path d="M190.913 193.454H96.9868C95.1342 193.454 93.6323 194.956 93.6323 196.808C93.6323 198.661 95.1342 200.163 96.9868 200.163H190.913C192.765 200.163 194.267 198.661 194.267 196.808C194.267 194.956 192.765 193.454 190.913 193.454Z" fill="#707070"/><path d="M192.59 193.454H149.82C147.968 193.454 146.466 194.956 146.466 196.808C146.466 198.661 147.968 200.163 149.82 200.163H192.59C194.443 200.163 195.945 198.661 195.945 196.808C195.945 194.956 194.443 193.454 192.59 193.454Z" fill="#3D7DD7"/><path d="M117.114 124.687H96.9868C95.1342 124.687 93.6323 126.188 93.6323 128.041C93.6323 129.894 95.1342 131.396 96.9868 131.396H117.114C118.966 131.396 120.468 129.894 120.468 128.041C120.468 126.188 118.966 124.687 117.114 124.687Z" fill="#9279A7"/><path d="M151.498 124.687H143.95C142.097 124.687 140.595 126.188 140.595 128.041C140.595 129.894 142.097 131.396 143.95 131.396H151.498C153.35 131.396 154.852 129.894 154.852 128.041C154.852 126.188 153.35 124.687 151.498 124.687Z" fill="#70855E"/><path d="M145.627 139.782H133.048C131.195 139.782 129.693 141.284 129.693 143.136C129.693 144.989 131.195 146.491 133.048 146.491H145.627C147.48 146.491 148.982 144.989 148.982 143.136C148.982 141.284 147.48 139.782 145.627 139.782Z" fill="#70855E"/><path d="M120.468 139.782H96.9868C95.1342 139.782 93.6323 141.284 93.6323 143.136C93.6323 144.989 95.1342 146.491 96.9868 146.491H120.468C122.321 146.491 123.823 144.989 123.823 143.136C123.823 141.284 122.321 139.782 120.468 139.782Z" fill="#707070"/><path d="M105.373 139.782H96.9868C95.1342 139.782 93.6323 141.284 93.6323 143.136C93.6323 144.989 95.1342 146.491 96.9868 146.491H105.373C107.226 146.491 108.728 144.989 108.728 143.136C108.728 141.284 107.226 139.782 105.373 139.782Z" fill="#9279A7"/></svg>