<svg width="800" height="456" viewBox="0 0 800 456" version="1.1" xmlns="http://www.w3.org/2000/svg" xmlns:xlink="http://www.w3.org/1999/xlink"><title>Standout Content</title><defs><path d="M11.88 0h339.583c21.182 0 38.353 17.171 38.353 38.353V55.71c0 21.181-17.171 38.352-38.353 38.352H11.88C5.319 94.062 0 88.744 0 82.182V11.88C0 5.319 5.319 0 11.88 0z" id="a"/><path d="M65.281 0h40.107c21.273 0 39.38 15.486 42.678 36.501l22.34 142.327 45.644 94.844c10.347 21.499 1.306 47.314-20.192 57.66a43.2 43.2 0 0 1-15.439 4.148l-127.851 9.782c-23.79 1.82-44.55-15.99-46.37-39.78a43.2 43.2 0 0 1-.079-1.28L.264 178.829l22.34-142.327C25.902 15.486 44.009 0 65.28 0z" id="c"/><path d="M7.258 0H72.14a7.258 7.258 0 0 1 7.258 7.258v65.867c0 6.871-5.57 12.441-12.442 12.441H12.442C5.57 85.566 0 79.996 0 73.125V7.258A7.258 7.258 0 0 1 7.258 0z" id="d"/><rect id="f" x=".477" y=".066" width="66.861" height="85.566" rx="33.431"/></defs><g stroke="none" stroke-width="1" fill="none" fill-rule="evenodd"><path fill="#FFF" d="M0 0h800v456H0z"/><g><g><g><g><g><g transform="matrix(-1 0 0 1 609.758 341.108)"><g transform="translate(27.748)"><mask id="b" fill="#fff"><use xlink:href="#a"/></mask><use fill="#E5A259" xlink:href="#a"/><path d="M610.116 28.045h-75.62M558.072 51.424h-78.59M188.698 33.148h-78.59M100.107 70.906h-78.59M68.671 51.424H9.728M317.107 70.906h-96.59M403.671 33.424h-58.943" stroke="#DF933F" stroke-width="11.761" stroke-linecap="round" mask="url(#b)"/></g><rect fill="#FFCE8E" x="0" y="0" width="62.391" height="91.101" rx="31.196"/><rect stroke="#E5A259" stroke-width="7.841" opacity=".433" x="15.709" y="15.61" width="30.973" height="59.882" rx="15.487"/></g></g></g><path d="M157.208 430.848h485a7.95 7.95 0 1 1 0 15.9h-485a7.95 7.95 0 1 1 0-15.9z" fill="#78C800"/></g></g><g transform="matrix(-1 0 0 1 538.2 15)"><path d="M45.006 214.448c-.759-8.672 4.175-16.529 11.705-19.884l3.275 37.433c-7.999-1.997-14.221-8.878-14.98-17.55z" stroke="#A56644" stroke-width="5.184" fill="#A56644" stroke-linecap="round" stroke-linejoin="round"/><rect fill="#A56644" transform="rotate(52 251.77 200.685)" x="221.354" y="144.285" width="60.831" height="112.8" rx="26.1"/><g transform="translate(43.56 11.36)"><mask fill="#fff"><use xlink:href="#c"/></mask><use fill="#A56644" xlink:href="#c"/></g><path d="M58.508 6.342a9.285 9.285 0 0 1 13.115.687l2.601 2.89a9.29 9.29 0 0 1-.687 13.118 9.285 9.285 0 0 1-13.115-.687l-2.602-2.89a9.29 9.29 0 0 1 .688-13.118zM199.852 6.342a9.285 9.285 0 0 0-13.114.685l-.001.002-2.602 2.89a9.29 9.29 0 0 0 .688 13.118 9.285 9.285 0 0 0 13.113-.685l.002-.002 2.601-2.89a9.29 9.29 0 0 0-.687-13.118z" fill="#A56644"/><g fill="#BB7149" stroke="#BB7149" stroke-linecap="round" stroke-linejoin="round" stroke-width="6.739"><path d="M149.936 217.091c8.034-8.034 20.031-9.691 29.708-4.974L144.962 246.8c-4.717-9.677-3.06-21.674 4.974-29.708z"/><path d="M156.666 217.091c-8.034-8.034-20.031-9.691-29.708-4.974L161.64 246.8c4.717-9.677 3.06-21.674-4.974-29.708z"/><path d="M142.918 226.935c-5.826-1.561-11.741.697-14.898 5.207l25.198 6.752c-.48-5.485-4.473-10.398-10.3-11.959zM164.297 226.935c5.827-1.561 11.742.697 14.9 5.207l-25.199 6.752c.48-5.485 4.473-10.398 10.3-11.959z"/></g><rect fill="#A56644" transform="rotate(15 49.508 267.801)" x="23.592" y="210.201" width="51.831" height="115.2" rx="5.184"/><path d="M17.742 291.201h43.2c7.207 0 13.05 5.843 13.05 13.05v9c0 7.207-5.843 13.05-13.05 13.05h-47.7c-7.207 0-13.05-5.843-13.05-13.05v-4.5c0-9.693 7.858-17.55 17.55-17.55z" fill="#A56644"/><path d="M43.49 169.343l166.9-8.55a5.184 5.184 0 0 1 5.37 4.27l3.104 17.484 5.215 4.184a5.184 5.184 0 0 1-2.737 9.203L39.007 213.838a5.184 5.184 0 0 1-5.63-5.947l5.254-34.16a5.184 5.184 0 0 1 4.859-4.388z" fill="#FF4B4B"/><path d="M97.22 160.769l25.912-1.686a7.776 7.776 0 0 1 8.28 7.783l-.344 111.005a7.776 7.776 0 0 1-7.266 7.735l-25.567 1.68a7.776 7.776 0 0 1-8.286-7.76V168.528a7.776 7.776 0 0 1 7.271-7.76z" fill="#FF4B4B"/><g transform="translate(103.491 300.29)" fill="#A56644"><rect transform="rotate(-37 111.87 49.763)" x="85.954" y="7.463" width="51.831" height="84.6" rx="17.1"/><rect transform="rotate(-37 46.72 58.763)" x="20.804" y="16.463" width="51.831" height="84.6" rx="17.1"/></g><g><path d="M166.692 53.096v4.71c0 4.89-3.427 8.854-7.655 8.854-4.227 0-7.654-3.964-7.654-8.854v-4.71M127.818 53.096v4.71c0 4.89 3.696 8.854 8.255 8.854 4.558 0 8.254-3.964 8.254-8.854v-4.71" stroke="#854C2D" stroke-width="3.6" stroke-linecap="round"/><path d="M156.973 72.709c9.661 0 17.493 7.832 17.493 17.493v40.189c0 9.66-7.832 17.493-17.493 17.493-9.661 0-17.493-7.832-17.493-17.493V90.2c0-9.66 7.832-17.492 17.493-17.492z" fill="#E5A259"/><path d="M179.08 96.709a9.6 9.6 0 0 1 9.6 9.6v7.975a9.6 9.6 0 1 1-19.2 0v-7.975a9.6 9.6 0 0 1 9.6-9.6z" fill="#E5A259"/><path d="M179.08 102.709a4.8 4.8 0 0 1 4.8 4.8v5.575a4.8 4.8 0 1 1-9.6 0v-5.575a4.8 4.8 0 0 1 4.8-4.8z" fill="#BB7149"/><path d="M159.782 72.709h4.748a6.48 6.48 0 0 1 0 12.961h-4.748a6.48 6.48 0 0 1 0-12.961z" fill="#4B4B4B"/></g><rect fill="#A56644" transform="rotate(153 295.88 188.441)" x="269.481" y="172.241" width="52.8" height="32.4" rx="16.2"/><g transform="scale(-1 1) rotate(29 -260.062 -576.628)"><g transform="translate(21.939 26.333)"><mask id="e" fill="#fff"><use xlink:href="#d"/></mask><use fill="#BBF2FF" fill-rule="nonzero" xlink:href="#d"/><g mask="url(#e)"><g transform="translate(5.791 -11.406)"><mask id="g" fill="#fff"><use xlink:href="#f"/></mask><use stroke="none" fill="#FF9600" fill-rule="nonzero" xlink:href="#f"/><circle fill="#FFAF3F" fill-rule="evenodd" opacity=".811" mask="url(#g)" cx="31.31" cy="69.313" r="5.76"/><circle fill="#FFAF3F" fill-rule="evenodd" opacity=".811" mask="url(#g)" cx="15.47" cy="53.473" r="3.6"/><path d="M-1.352 19.911h84.725a6.912 6.912 0 0 1 6.912 6.912v3a6.912 6.912 0 0 1-6.912 6.912H-1.352a6.912 6.912 0 0 1-6.912-6.912v-3a6.912 6.912 0 0 1 6.912-6.912z" fill="#FFBA5C" fill-rule="nonzero" mask="url(#g)"/></g></g><rect fill="#FFE6C6" fill-rule="nonzero" opacity=".32" mask="url(#e)" x="54.325" y="1.031" width="11.492" height="53.608" rx="5.746"/></g><rect fill="#FFCE8E" fill-rule="nonzero" x="15.671" y="10.387" width="90.889" height="27.835" rx="13.917"/><rect fill="#FFCE8E" transform="rotate(-29 51.968 33.422)" x="41.168" y="21.422" width="21.6" height="24" rx="10.8"/><rect fill="#FFCE8E" fill-rule="nonzero" x="31.886" y="0" width="53.825" height="27.051" rx="13.525"/><path d="M23.506 50.998C10.812 50.998.522 60.922.522 73.163s10.29 22.165 22.984 22.165" stroke="#BBF2FF" stroke-width="11.197"/></g><rect fill="#A56644" transform="rotate(171 256.501 163.934)" x="240.901" y="149.534" width="31.2" height="28.8" rx="14.4"/></g></g></g></svg>