<svg width="800" height="456" viewBox="0 0 800 456" version="1.1" xmlns="http://www.w3.org/2000/svg"><title>Many ways to learn</title><g stroke="none" stroke-width="1" fill="none" fill-rule="evenodd"><path fill="#FFF" d="M0 0h800v456H0z"/><g><g transform="translate(66 55.79)"><path d="M186.106 169.64h-51.351a5.681 5.681 0 0 0-5.681 5.682v9.217h62.715v-9.217a5.683 5.683 0 0 0-5.683-5.681z" fill="#52AE48" fill-rule="nonzero"/><g fill-rule="nonzero"><path d="M326.922 176.557l-38.902 16.379-5.517-12.927 38.901-16.379a7.027 7.027 0 0 1 5.518 12.927z" fill="#E48C7F"/><path d="M332.612 176.498h-41.07l7.163-11.118c2.844-4.567 1.447-10.574-3.12-13.418-4.567-2.843-10.574-1.447-13.418 3.12L265.99 180.28a28.413 28.413 0 0 0-4.502 15.348v70.379l-39.9-74.308c-5.379-9.968-17.82-13.688-27.787-8.308-9.966 5.379-13.687 17.82-8.308 27.787l64.214 119.367a28.053 28.053 0 0 0 24.692 14.751c3.405 0 6.876-.62 10.26-1.932 10.933-4.24 17.844-15.127 17.844-26.854V194.58c0-1.047.848-1.895 1.894-1.895h28.215a8.094 8.094 0 0 0-.001-16.187z" fill="#F69B8A"/><path d="M193.802 183.39c-9.966 5.379-13.687 17.82-8.308 27.787L217 269.742l34.763-21.85-30.173-56.193c-5.379-9.969-17.82-13.688-27.787-8.31z" fill="#52AE48"/></g><path d="M90.558 344.951v-135.64c0-18.123 14.69-32.813 32.812-32.813h70.508c18.122 0 32.813 14.69 32.813 32.812v135.642a8.203 8.203 0 0 1-8.203 8.203H98.76a8.204 8.204 0 0 1-8.203-8.204z" fill="#7CC142" fill-rule="nonzero"/><g fill-rule="nonzero"><g><path d="M268.85 310.133c-12.638-1.361-21.562 1.47-27.96 6.865-6.397-5.395-15.322-8.226-27.96-6.865-17.168 1.849-45.375 11.275-54.166 14.317a4.014 4.014 0 0 0-2.702 3.796v7.04h169.655v-7.04a4.014 4.014 0 0 0-2.702-3.796c-8.79-3.042-36.997-12.468-54.164-14.317z" fill="#E9E1E2"/><path d="M325.718 336.534a4.013 4.013 0 0 0-2.701-3.797c-8.791-3.042-36.999-12.468-54.166-14.317-12.639-1.361-21.563 1.47-27.96 6.865-6.398-5.395-15.323-8.226-27.961-6.865-17.168 1.849-45.375 11.275-54.166 14.317a4.014 4.014 0 0 0-2.702 3.797v6.876h169.656v-6.876z" fill="#FFF"/><path d="M325.674 343.41a4.01 4.01 0 0 0-2.657-3.238c-8.791-3.043-36.999-12.468-54.166-14.318-12.639-1.36-21.563 1.47-27.96 6.866-6.398-5.395-15.323-8.226-27.961-6.866-17.168 1.85-45.375 11.275-54.166 14.318a4.01 4.01 0 0 0-2.658 3.238h169.568z" fill="#E9E1E2"/></g><path d="M330.84 335.286H150.942a4.063 4.063 0 0 0 0 8.124H330.84a4.063 4.063 0 0 0 .002-8.124z" fill="#43ADE1"/></g><g fill-rule="nonzero"><path d="M184.355 343.41h-30.933c-4.427 0-8.05-3.622-8.05-8.049s3.623-8.049 8.05-8.049h30.933c4.427 0 8.05 3.622 8.05 8.05 0 4.426-3.623 8.048-8.05 8.048z" fill="#F69B8A"/><g><path d="M184.331 343.41H69.094c-9.644 0-19.079-3.554-25.897-10.375-11.845-11.85-13.643-29.812-5.492-43.513l58.664-98.57c5.79-9.734 18.376-12.93 28.11-7.14 9.734 5.792 12.931 18.377 7.14 28.112l-53.848 90.473h66.806a28.41 28.41 0 0 1 24.733 14.433l15.021 26.58z" fill="#F8B3A0"/><path d="M136.015 214.792c5.791-9.734 3.789-27.473-9.182-33.866-10.16-5.007-24.674.292-30.464 10.027l-27.737 46.604 39.886 25.208 27.497-47.973z" fill="#7CC142"/></g></g><path d="M138.281 198.308l.633.331 32.962 11.322a14.258 14.258 0 0 0 5.763 1.226c7.8 0 14.149-6.305 14.149-14.054V176.5h-62.716v6.683c0 6.36 3.53 12.157 9.21 15.126z" fill="#52AE48" fill-rule="nonzero"/><path d="M129.072 180.926v33.504c0 4.489 4.575 7.526 8.711 5.785l36.515-15.376-39.25-20.396-5.976-3.517z" fill="#52AE48" fill-rule="nonzero"/><path d="M191.788 176.498v38.526c0 4.063-4.142 6.813-7.887 5.237l-33.058-13.92 35.536-18.465 5.409-11.378z" fill="#52AE48" fill-rule="nonzero"/><path d="M182.318 119.757v77.374c0 3.457-3.762 5.667-6.876 4.04l-32.776-11.258c-2.54-1.326-4.125-3.915-4.125-6.733v-63.424h43.777v.001z" fill="#F69B8A" fill-rule="nonzero"/><g fill-rule="nonzero"><path d="M208.594 109.577c9.98 0 18.097-8.117 18.097-18.094V35.34c0-9.98-8.118-18.097-18.097-18.097-9.977 0-18.094 8.117-18.094 18.097v56.142c0 9.977 8.117 18.094 18.094 18.094z" fill="#B09E9E"/><path d="M208.595 103.498c6.61 0 12.017-5.407 12.017-12.016V35.34c0-6.61-5.408-12.017-12.017-12.017-6.609 0-12.016 5.408-12.016 12.017v56.142c0 6.609 5.407 12.016 12.016 12.016z" fill="#978686"/></g><circle fill="#F69B8A" fill-rule="nonzero" transform="rotate(-75.001 221.254 98.067)" cx="221.254" cy="98.067" r="17.602"/><path d="M170.018 24.852c31.21-.52 56.673 24.624 56.673 55.714v58.12c0 17.096-13.86 30.956-30.957 30.956h-38.496c-24.24 0-43.893-19.651-43.893-43.894V80.566c0-31.092 25.463-56.235 56.673-55.714z" fill="#F8B3A0" fill-rule="nonzero"/><g fill-rule="nonzero"><path d="M199.979 132.245v7.6c0 8.95-7.323 16.27-16.272 16.27h-18.961c-8.95 0-16.272-7.322-16.272-16.27v-7.6a4.014 4.014 0 0 1 4.014-4.013h43.48a4.013 4.013 0 0 1 4.011 4.013z" fill="#732526"/><path d="M155.666 132.422c-2.543 0-4.965.501-7.192 1.388v6.035c0 8.95 7.323 16.272 16.272 16.272h9.932c.299-1.358.47-2.765.47-4.213 0-10.76-8.723-19.482-19.482-19.482z" fill="#CF3B46"/><path d="M152.487 128.233h41.58v6.832a3.548 3.548 0 0 1-3.549 3.548h-38.892a3.153 3.153 0 0 1-3.153-3.153v-3.213a4.014 4.014 0 0 1 4.014-4.014z" fill="#FFF"/></g><path d="M185.152 111.314l26.312 10.53c1.41.565 1.858 2.32.883 3.468-4.682 5.511-12.557 7.46-19.509 4.677-6.951-2.782-11.25-9.603-10.753-16.789.104-1.495 1.656-2.45 3.067-1.886z" fill="#B09E9E" fill-rule="nonzero"/><path d="M185.556 123.35l-1.112-1.14" stroke="#B09E9E" stroke-width="18" stroke-linecap="round" stroke-linejoin="round"/><path d="M184.848 111.314l-26.312 10.53c-1.41.565-1.858 2.32-.883 3.468 4.682 5.511 12.557 7.46 19.509 4.677 6.951-2.782 11.25-9.603 10.753-16.789-.104-1.495-1.656-2.45-3.067-1.886z" fill="#B09E9E" fill-rule="nonzero"/><path d="M181.014 115.16h9.246a4.573 4.573 0 0 0 4.56-4.56V81.995a4.573 4.573 0 0 0-4.56-4.56h-9.246a4.574 4.574 0 0 0-4.56 4.56V110.6a4.572 4.572 0 0 0 4.56 4.56z" fill="#F69B8A" fill-rule="nonzero"/><path d="M185.227 59.62l-34.019 15.546c-3.038 1.628-6.713-.573-6.713-4.02V17.244h64.1l-11.328 8.084-.008 14.209a22.794 22.794 0 0 1-12.032 20.084z" fill="#B09E9E" fill-rule="nonzero"/><path d="M214.527 18.252l-45.13-11.941a3.04 3.04 0 0 0-3.817 2.938v16.078l48.947-7.075zM113.356 93.831h14.75a6.852 6.852 0 0 0 6.851-6.851V46.478h-21.6v47.353z" fill="#B09E9E" fill-rule="nonzero"/><path d="M103.52 93.508c2.403-8.964 11.307-14.43 20.279-12.722v34.555a17.5 17.5 0 0 1-7.832-.275c-9.39-2.517-14.963-12.168-12.447-21.558z" fill="#F69B8A" fill-rule="nonzero"/><path d="M166.84 53.179l-46.857 23.989c-3.035 1.553-6.638-.65-6.638-4.059V38.656c0-11.825 9.585-21.41 21.41-21.41h43.428l-11.327 8.083-.015 27.85z" fill="#B09E9E" fill-rule="nonzero"/><path d="M209.337 72.634l3.858-2.819c1.513-1.105 1.662-3.323.284-4.592-4.029-3.712-11.196-7.563-20.324-5.83-1.773.338-2.858 2.153-2.3 3.87l1.462 4.486c.447 1.373 1.821 2.252 3.248 2.026 4.828-.767 8.256 1.208 10.11 2.746a2.974 2.974 0 0 0 3.662.113zM156.114 76.165l-3.857-2.819c-1.513-1.105-1.662-3.323-.284-4.592 4.028-3.712 11.195-7.563 20.323-5.83 1.773.338 2.859 2.153 2.3 3.87l-1.462 4.486c-.446 1.373-1.82 2.252-3.247 2.026-4.828-.767-8.256 1.208-10.111 2.746a2.974 2.974 0 0 1-3.662.113z" fill="#978686" fill-rule="nonzero"/><g fill-rule="nonzero"><path d="M173.585 250.682h-13.802a4.946 4.946 0 0 1-4.946-4.945v-41.844h23.694v41.844a4.946 4.946 0 0 1-4.946 4.945z" fill="#52AE48"/><g transform="translate(161.7 217.14)" fill="#7CC142"><circle cx="4.984" cy="5.044" r="4.574"/><circle cx="4.984" cy="20.804" r="4.574"/></g></g><path d="M506.346 195.409c-12.253-6.87-27.747-2.492-34.606 9.76L394.807 343.41H453l63.107-113.395c6.86-12.251 2.49-27.747-9.76-34.606z" fill="#2B4382" fill-rule="nonzero"/><g transform="translate(386.925)" fill-rule="nonzero"><circle fill="#6D3A23" cx="199.66" cy="85.589" r="31.944"/><circle fill="#6D3A23" cx="150.043" cy="41.31" r="31.944"/><circle fill="#6D3A23" cx="187.452" cy="41.601" r="40.815"/><circle fill="#FDBB11" cx="171.002" cy="58.794" r="27.279"/><path d="M195.55 120.826V91.559c0-35.306-28.724-64.03-64.03-64.03S67.49 56.252 67.49 91.558v29.268H195.55z" fill="#6D3A23"/><path d="M159.776 124.113c2.6 9.507 12.578 15.149 22.283 12.6 9.707-2.547 15.467-12.318 12.866-21.825-2.601-9.507-12.578-15.15-22.284-12.601-9.705 2.548-15.465 12.319-12.865 21.826z" fill="#CD7555"/><g><path d="M62.285 124.113c2.6 9.507 12.577 15.149 22.283 12.6 9.707-2.547 15.467-12.318 12.865-21.825-2.6-9.507-12.577-15.15-22.283-12.601-9.707 2.548-15.467 12.319-12.865 21.826z" fill="#F69B8A"/><path d="M62.285 124.113c2.6 9.507 12.577 15.149 22.283 12.6 9.707-2.547 15.467-12.318 12.865-21.825-2.6-9.507-12.577-15.15-22.283-12.601-9.707 2.548-15.467 12.319-12.865 21.826z" fill="#CD7555"/><path d="M74.253 127.205c-3.674 0-6.653 2.917-6.653 6.516 0 3.6 2.979 6.517 6.653 6.517v-13.033z" fill="#FDBB11"/></g><path d="M88.988 342.343h105.296a5.991 5.991 0 0 0 5.99-5.99v-120.58c0-13.233-10.727-23.961-23.96-23.961H106.96c-13.234 0-23.962 10.728-23.962 23.962v120.58a5.99 5.99 0 0 0 5.99 5.99z" fill="#2B4382"/><path d="M119.406 139.642v73.266c0 3.273 3.562 5.366 6.51 3.825l31.037-10.66c2.404-1.255 3.905-3.707 3.905-6.376v-60.056h-41.452z" fill="#CD7555"/><path d="M125.954 41.31c28.436 0 51.701 23.265 51.701 51.701v41.594c0 28.436-23.265 51.701-51.701 51.701s-51.701-23.265-51.701-51.701V93.01c0-28.435 23.265-51.701 51.7-51.701z" fill="#D98D73"/><path d="M111.158 133.391h-.146c-3.873 0-7.041-3.168-7.041-7.04v-17.634c0-3.873 3.168-7.041 7.04-7.041h.147c3.873 0 7.041 3.168 7.041 7.04v17.634c0 3.873-3.168 7.041-7.04 7.041z" fill="#CD7555"/><ellipse fill="#FDBB11" cx="177.655" cy="133.721" rx="6.653" ry="6.517"/><path d="M177.655 111.046V93.012c0-28.436-23.265-55.49-51.701-55.49-18.292 0-38.255 11.388-43.63 27.861l95.331 45.663z" fill="#6D3A23"/><g><path d="M13.583 201.024l36.284 16.719 5.626-12.055L19.21 188.97a6.652 6.652 0 0 0-5.626 12.054z" fill="#CD7555"/><path d="M37.066 194.559l28.252 36.315 12.137-9.347-28.25-36.316a7.66 7.66 0 0 0-10.743-1.395 7.659 7.659 0 0 0-1.396 10.743z" fill="#D98D73"/><path fill="#D98D73" d="M46.518 200.444l-4.535 27.361-13.595-17.136z"/><path d="M101.378 300.19c8.424 0 16.626-3.18 22.854-8.936l68.026-62.88c10.122-9.357 10.744-25.15 1.386-35.272s-25.151-10.743-35.272-1.386l-54.978 50.82-21.361-27.609c-8.436-10.902-24.11-12.904-35.015-4.466-10.902 8.436-12.903 24.113-4.467 35.015l32.234 41.66a33.732 33.732 0 0 0 23.819 12.94c.925.076 1.851.114 2.774.114z" fill="#4359A7"/><path d="M8.404 213.133h50.57v-15.32H8.403a7.66 7.66 0 0 0-7.66 7.66 7.66 7.66 0 0 0 7.66 7.66z" fill="#D98D73"/><path d="M40.597 226.244l-6.65-8.568 25.026-19.864 6.892 8.88c5.398 6.978 4.12 17.01-2.859 22.41a15.903 15.903 0 0 1-9.763 3.34 15.945 15.945 0 0 1-12.646-6.198z" fill="#2B4382"/></g><g><g><path d="M101.866 141.842v15.498c0 6.489 5.31 11.798 11.799 11.798h24.58c6.488 0 11.798-5.31 11.798-11.798v-23.735a3.687 3.687 0 0 0-4.365-3.625l-40.201 7.512a4.426 4.426 0 0 0-3.61 4.35z" fill="#8C3433"/><path d="M138.244 169.14c6.489 0 11.799-5.31 11.799-11.799v-2.988a19.928 19.928 0 0 0-11.092-2.635c-9.79.546-17.54 8.035-18.75 17.421h18.043z" fill="#EC4A4E"/></g><path d="M145.678 129.981l-36.746 6.867v3.817a3.687 3.687 0 0 0 3.686 3.687h37.425v-10.747a3.687 3.687 0 0 0-4.365-3.624z" fill="#FFF"/></g><path d="M85.978 93.646a4.976 4.976 0 0 0 3.61-.553c2.809-1.634 7.136-3.378 11.804-2.413a4.993 4.993 0 0 0 5.9-3.876c.56-2.7-1.152-5.427-3.876-5.9-7.759-1.607-14.532 1.047-18.847 3.557a4.994 4.994 0 0 0 1.41 9.185z" fill="#592A1A"/><path fill="#6D3A23" d="M173.083 73.255h11.225v28.421h-11.225z"/><path d="M137.995 121.794a2.368 2.368 0 0 1-2.368-2.368v-4.718a5.511 5.511 0 0 0-5.506-5.506 5.511 5.511 0 0 0-5.505 5.506v4.718a2.368 2.368 0 0 1-4.735 0v-4.718c0-5.647 4.592-10.24 10.239-10.24 5.647 0 10.24 4.594 10.24 10.24v4.718a2.365 2.365 0 0 1-2.365 2.368zM101.604 121.794a2.368 2.368 0 0 1-2.368-2.368v-4.718a5.511 5.511 0 0 0-5.505-5.506 5.511 5.511 0 0 0-5.506 5.506v4.718a2.368 2.368 0 0 1-4.736 0v-4.718c0-5.647 4.595-10.24 10.24-10.24 5.646 0 10.24 4.594 10.24 10.24v4.718a2.365 2.365 0 0 1-2.365 2.368z" fill="#A35E48"/></g><g fill-rule="nonzero"><g><path d="M555.017 310.133c-12.638-1.361-21.563 1.47-27.96 6.865-6.398-5.395-15.323-8.226-27.96-6.865-17.169 1.849-45.376 11.275-54.167 14.317a4.014 4.014 0 0 0-2.701 3.796v7.04h169.655v-7.04a4.014 4.014 0 0 0-2.701-3.796c-8.79-3.042-36.998-12.468-54.166-14.317z" fill="#E9E1E2"/><path d="M611.884 336.534a4.013 4.013 0 0 0-2.701-3.797c-8.79-3.042-36.998-12.468-54.166-14.317-12.638-1.361-21.563 1.47-27.96 6.865-6.398-5.395-15.323-8.226-27.96-6.865-17.169 1.849-45.376 11.275-54.167 14.317a4.014 4.014 0 0 0-2.701 3.797v6.876h169.655v-6.876z" fill="#FFF"/><path d="M611.84 343.41a4.01 4.01 0 0 0-2.657-3.238c-8.79-3.043-36.998-12.468-54.166-14.318-12.638-1.36-21.563 1.47-27.96 6.866-6.398-5.395-15.323-8.226-27.96-6.866-17.169 1.85-45.376 11.275-54.167 14.318a4.01 4.01 0 0 0-2.657 3.238H611.84z" fill="#E9E1E2"/></g><path d="M617.007 335.286h-179.9a4.063 4.063 0 0 0 0 8.124h179.899a4.063 4.063 0 0 0 0-8.124z" fill="#EC4A4E"/></g><g fill="#CD7555" fill-rule="nonzero"><path d="M418.703 325.516h-44.604c-4.922 0-8.948 4.026-8.948 8.948 0 4.921 4.026 8.948 8.948 8.948h44.604c4.921 0 8.947-4.027 8.947-8.948 0-4.922-4.026-8.948-8.947-8.948z"/><path d="M425.04 328.08l-17.784-17.782c-3.48-3.48-9.174-3.48-12.653 0-3.48 3.48-3.48 9.174 0 12.653l17.783 17.782c3.48 3.48 9.174 3.48 12.653 0 3.481-3.479 3.481-9.173.001-12.653z"/></g><path d="M651.426 369.964H13.854c-7.332 0-13.276-5.944-13.276-13.277 0-7.332 5.943-13.277 13.276-13.277h637.572c7.333 0 13.276 5.944 13.276 13.277 0 7.332-5.943 13.277-13.276 13.277z" fill="#8D4D29" fill-rule="nonzero"/><path d="M170.324 98.773a2.368 2.368 0 0 1-2.367-2.367v-4.719a5.511 5.511 0 0 0-5.506-5.506 5.51 5.51 0 0 0-5.504 5.506v4.719a2.368 2.368 0 0 1-4.735 0v-4.719c0-5.646 4.592-10.24 10.239-10.24 5.647 0 10.24 4.595 10.24 10.24v4.719a2.366 2.366 0 0 1-2.367 2.367zM212.847 98.773a2.368 2.368 0 0 1-2.368-2.367v-4.719a5.511 5.511 0 0 0-5.506-5.506 5.51 5.51 0 0 0-5.503 5.506v4.719a2.368 2.368 0 0 1-4.736 0v-4.719c0-5.646 4.592-10.24 10.24-10.24 5.646 0 10.24 4.595 10.24 10.24v4.719a2.366 2.366 0 0 1-2.367 2.367z" fill="#E48C7F" fill-rule="nonzero"/><path d="M171.7 104.467c-4.527 4.386-9.814 6.58-15.863 6.58M194.837 104.467c4.527 4.386 9.814 6.58 15.863 6.58" stroke="#F69B8A" stroke-width="4" stroke-linecap="round"/></g></g><path d="M410.458 49.462c9.072 8.76 14.424 19.933 16.03 31.564 18.913-3.354 39.053 2.425 53.349 17.228 20.077 20.79 21.96 52.48 6.045 75.487l6.814 19.95.045.162c.606 2.431-1.703 4.593-4.118 3.771l-19.643-7.485c-23.574 15.273-55.32 12.334-75.464-8.526-10.34-10.708-15.855-24.307-16.598-38.122-11.905 1.107-24.087-1.668-34.487-8.368l-18.008 6.971a2.864 2.864 0 0 1-3.743-3.417l.044-.155 6.355-18.293c-14.408-20.948-12.488-49.95 6-69.095 21.084-21.832 55.727-22.58 77.38-1.672z" fill="#DEDFE7" fill-rule="nonzero"/><g><path d="M413.657 114h45.21c4.402 0 5.998.458 7.607 1.319a8.972 8.972 0 0 1 3.732 3.732c.86 1.61 1.319 3.205 1.319 7.606v29.09c0 4.402-.458 5.998-1.319 7.607a8.972 8.972 0 0 1-3.732 3.732c-1.61.86-3.205 1.319-7.606 1.319h-45.21c-4.402 0-5.998-.458-7.607-1.319a8.972 8.972 0 0 1-3.732-3.732c-.86-1.61-1.319-3.205-1.319-7.606v-29.09c0-4.402.458-5.998 1.319-7.607a8.972 8.972 0 0 1 3.732-3.732c1.61-.86 3.205-1.319 7.606-1.319z" fill="#FF4B4B"/><path fill="#FFC800" d="M401 129.544h70.525v23.317H401z"/><path d="M428.426 135.373c1.082 0 1.96.877 1.96 1.96v7.74a1.959 1.959 0 0 1-3.919 0v-7.74c0-1.083.877-1.96 1.96-1.96zM408.836 135.373c1.082 0 1.96.877 1.96 1.96v7.74a1.959 1.959 0 0 1-3.919 0v-7.74c0-1.083.877-1.96 1.96-1.96z" fill="#FFF"/><path d="M414.517 133.43h8.228c.974 0 1.763.79 1.763 1.763v7.905a5.877 5.877 0 1 1-11.754 0v-7.905c0-.973.79-1.763 1.763-1.763z" fill="#FF4B4B"/></g><g><path d="M353.493 70H387.4c3.3 0 4.498.344 5.704.99a6.729 6.729 0 0 1 2.8 2.798c.645 1.207.989 2.404.989 5.705v21.818c0 3.3-.344 4.498-.99 5.704a6.729 6.729 0 0 1-2.799 2.8c-1.206.645-2.403.989-5.704.989h-33.908c-3.301 0-4.498-.344-5.705-.99a6.729 6.729 0 0 1-2.799-2.799c-.645-1.206-.989-2.403-.989-5.704V79.493c0-3.301.344-4.498.99-5.705a6.729 6.729 0 0 1 2.798-2.799c1.207-.645 2.404-.989 5.705-.989z" fill="#FF4B4B"/><path fill="#FFC800" d="M344 81.658h52.894v17.488H344z"/><path d="M364.57 86.03c.811 0 1.47.658 1.47 1.47v5.804a1.47 1.47 0 1 1-2.94 0V87.5c0-.811.658-1.469 1.47-1.469zM349.877 86.03c.812 0 1.47.658 1.47 1.47v5.804a1.47 1.47 0 1 1-2.94 0V87.5c0-.811.659-1.469 1.47-1.469z" fill="#FFF"/><path d="M354.138 84.573h6.17c.731 0 1.323.592 1.323 1.322v5.928a4.408 4.408 0 1 1-8.815 0v-5.928c0-.73.592-1.322 1.322-1.322z" fill="#FF4B4B"/></g></g></svg>