<svg width="288" height="164" viewBox="0 0 288 164" version="1.1" xmlns="http://www.w3.org/2000/svg" xmlns:xlink="http://www.w3.org/1999/xlink"><title>exp_out_to_dinner</title><defs><rect id="a" x="0" y="0" width="10" height="37" rx="5"/><path d="M2.7.734l10.418 1.143a2 2 0 0 1 1.758 2.294l-.38 2.45a3 3 0 0 1-2.699 2.529l-6.243.554A4.58 4.58 0 0 1 .573 5.306l-.09-2.512A2 2 0 0 1 2.7.734z" id="c"/><path d="M9.12.324h.76A9.12 9.12 0 0 1 19 9.444V40.16A3.84 3.84 0 0 1 15.16 44H3.84A3.84 3.84 0 0 1 0 40.16V9.444A9.12 9.12 0 0 1 9.12.324z" id="e"/><rect id="g" x="0" y="0" width="6.75" height="14.294" rx="3.375"/><path d="M1.623.767L13.486.088a1.5 1.5 0 0 1 1.57 1.284l.37 2.563a3.404 3.404 0 0 1-3.402 3.89l-7.578-.071A4.04 4.04 0 0 1 .486 4.29L.223 2.48A1.5 1.5 0 0 1 1.623.767z" id="i"/><path d="M7.15 9a7.503 7.503 0 0 1 7.35-6h4a7.47 7.47 0 0 1 3.218.723A7.485 7.485 0 0 1 27.5 1h7A7.493 7.493 0 0 1 42 8.495c0 .002 0 .003-.005.005V9H43a5 5 0 0 1 5 5H0a5 5 0 0 1 5-5h2.15z" id="k"/><path d="M22 4h3a5 5 0 0 1 5 5v1H0V9a5 5 0 0 1 5-5 4 4 0 0 1 4-4h9a4 4 0 0 1 4 4z" id="m"/></defs><g stroke="none" stroke-width="1" fill="none" fill-rule="evenodd"><path fill="#FFF" d="M0 0h288v164H0z"/><path d="M37.5 93h7c8.008 0 14.5 6.492 14.5 14.5V133a4 4 0 0 1-4 4H22.008a4 4 0 0 1-2.967-6.682l3.959-4.38V107.5C23 99.492 29.492 93 37.5 93z" fill="#1CB0F6" fill-rule="nonzero"/><g transform="translate(68 99)"><mask id="b" fill="#fff"><use xlink:href="#a"/></mask><use fill="#1CB0F6" fill-rule="nonzero" xlink:href="#a"/><rect fill="#FFB59F" fill-rule="nonzero" mask="url(#b)" x="-2" y="-1" width="15" height="15" rx="2.5"/></g><rect fill="#1CB0F6" fill-rule="nonzero" transform="rotate(-30 60.5 116.634)" x="55.5" y="97.134" width="10" height="39" rx="5"/><rect fill="#1CB0F6" fill-rule="nonzero" transform="scale(-1 1) rotate(-30 0 200.105)" x="16.384" y="95.567" width="12" height="42" rx="6"/><rect fill="#FF9D88" fill-rule="nonzero" transform="rotate(-78 39.801 106.994)" x="37.301" y="102.994" width="5" height="8" rx="2.5"/><rect fill="#5CCBFF" fill-rule="nonzero" transform="rotate(90 73.098 116.68)" x="68.098" y="109.18" width="10" height="15" rx="2"/><g fill="#D8D8D8" fill-rule="nonzero"><path d="M29.994 98.969l19.064 17.39a1.247 1.247 0 0 1 .06 1.784l-.075.079a1.247 1.247 0 0 1-1.741.059l-19.065-17.39a1.247 1.247 0 0 1-.06-1.785l.075-.078a1.247 1.247 0 0 1 1.742-.059z"/><path d="M48.937 121.031l-1.136 1.198-1.305-1.179a3.8 3.8 0 0 1-.201-5.443 4.002 4.002 0 0 1 5.587-.196l1.281 1.165-1.137 1.198-1.133-1.03a.718.718 0 0 0-1.013.047.693.693 0 0 0 .046.978l1.13 1.028-1.148 1.211-1.082-.985a.717.717 0 0 0-1.013.047.693.693 0 0 0 .046.979l1.078.982z"/><path d="M52.411 115.892l4.392 3.995a.802.802 0 0 1 .037 1.151.852.852 0 0 1-1.186.038l-4.391-3.995a.802.802 0 0 1-.037-1.15.852.852 0 0 1 1.185-.039zM48.47 120.61l4.392 3.995a.802.802 0 0 1 .037 1.15.852.852 0 0 1-1.186.039l-4.392-3.996a.802.802 0 0 1-.037-1.15.852.852 0 0 1 1.186-.038zM50.545 118.328l4.378 3.983a.817.817 0 0 1 .042 1.168.855.855 0 0 1-1.194.043l-4.378-3.983a.817.817 0 0 1-.042-1.168.855.855 0 0 1 1.194-.043z"/></g><rect fill="#FFB59F" fill-rule="nonzero" transform="rotate(-90 37.733 112.846)" x="35.233" y="105.346" width="5" height="15" rx="2.5"/><rect fill="#FFB59F" fill-rule="nonzero" transform="rotate(-46 30.297 116.178)" x="20.297" y="111.178" width="20" height="10" rx="3"/><rect fill="#FFB59F" fill-rule="nonzero" transform="rotate(-91 37.824 109.368)" x="35.324" y="103.868" width="5" height="11" rx="2.5"/><rect fill="#FFB59F" fill-rule="nonzero" transform="rotate(-91 34.386 105.593)" x="31.886" y="99.593" width="5" height="12" rx="2.5"/><g fill-rule="nonzero"><path d="M51.687 93.424H36.29a2 2 0 0 0-2 2v4.97a1.6 1.6 0 0 0 1.974 1.556l10.526-2.526 6.12 2.16a1.4 1.4 0 0 0 1.833-1.624l-1.105-4.97a2 2 0 0 0-1.952-1.566z" fill="#5CCBFF"/><g transform="matrix(-1 0 0 1 72 41)"><path d="M37.99.08L7.36 3.091a7.158 7.158 0 0 0-6.271 8.75 10.119 10.119 0 0 0 10.016 7.819l24.083-.387a9.663 9.663 0 0 0 9.502-9.988l-.116-3.437A6 6 0 0 0 37.99.08z" fill="#A56644"/><rect fill="#A56644" x="7" y="9" width="10" height="15" rx="5"/><path d="M29.677 6h11.092c5.467 0 9.9 4.432 9.9 9.9a9.9 9.9 0 0 1-.126 1.57l-3.897 24.277a9.9 9.9 0 0 1-9.205 8.315l-1.19.068a9.9 9.9 0 0 1-10.182-7.513L20.065 18.27A9.9 9.9 0 0 1 29.677 6z" fill="#A56644"/><path d="M17.61 13.629l15.818 1.514a9.9 9.9 0 0 1 8.957 9.855v6.706c0 5.467-4.433 9.9-9.9 9.9H20.938c-5.467 0-9.9-4.433-9.9-9.9V19.602a6 6 0 0 1 6.572-5.973z" fill="#FFB59F"/><rect fill="#FFB59F" x="13.558" y="25.302" width="27.115" height="31.698" rx="9.9"/><ellipse fill="#FFB59F" cx="14.183" cy="33.499" rx="7.183" ry="7.197"/><ellipse fill="#FFB59F" cx="43.817" cy="33.499" rx="7.183" ry="7.197"/><rect fill="#A56644" x="37" y="10" width="7" height="23" rx="3.5"/><rect fill="#A56644" x="33" y="8" width="13" height="15" rx="6.5"/><rect fill="#FF9D88" x="19" y="25" width="7" height="17" rx="2"/><rect fill="#E78D7C" x="15" y="26" width="3.5" height="8" rx="1.75"/><rect fill="#E78D7C" x="28" y="26" width="3.5" height="8" rx="1.75"/></g></g><g transform="translate(95 15)"><path d="M31.51 59h3.99c6.77 0 12.257 5.488 12.257 12.257 0 1.43-.25 2.847-.738 4.19l-4.787 13.165a4 4 0 0 1-4.73 2.514l-17.355-4.34a4 4 0 0 1-3.027-4.028L17.5 72.5c.28-7.535 6.469-13.5 14.01-13.5zM27.5 89.5l9.79 2.842a9 9 0 0 1 6.425 7.56l2.592 21.377a5 5 0 0 1-5.068 5.601l-35.557-.74a5 5 0 0 1-4.662-6.51l6.102-19.245C9.835 91.828 18.879 86.997 27.5 89.5z" fill="#9069CD" fill-rule="nonzero"/><path d="M17.596 84.732l23.785 5.056a2 2 0 0 1 1.571 2.182l-.21 1.849a2 2 0 0 1-2.389 1.732L16.22 90.603a2 2 0 0 1-1.521-2.509l.558-1.955a2 2 0 0 1 2.34-1.407z" fill="#CE82FF" fill-rule="nonzero"/><rect stroke="#DCA6FF" stroke-width="3" fill="#CE82FF" fill-rule="nonzero" transform="rotate(11 34.031 91.59)" x="30.531" y="87.59" width="7" height="8" rx="2"/><rect fill="#E79B7F" fill-rule="nonzero" transform="rotate(20 38 55)" x="33" y="46" width="10" height="18" rx="5"/><rect fill="#9069CD" fill-rule="nonzero" transform="rotate(19 36 60)" x="29" y="56" width="14" height="8" rx="2"/><g transform="rotate(8 3.248 95.853)"><path d="M36.201 45.277l-32.014.559a3.047 3.047 0 0 1-3.099-2.993C.881 31.004 9.964 21.73 19.714 21.56c9.78-.17 19.163 8.84 19.37 20.73a2.935 2.935 0 0 1-2.883 2.986z" fill="#835032" fill-rule="nonzero"/><path d="M61.21 43.197l-20.111 2.47a1.904 1.904 0 0 1-2.122-1.658c-.902-7.345 4.198-13.71 10.31-14.46 6.133-.753 12.613 4.227 13.52 11.604a1.834 1.834 0 0 1-1.598 2.044z" fill="#835032" fill-rule="nonzero"/><path d="M26.654.944l7.634-.54C45.054-.36 54.398 7.75 55.161 18.516c.008.111.015.223.02.334l.834 15.55a4 4 0 0 1-4.077 4.213l-40.342-.826a4 4 0 0 1-3.878-4.56l2.384-16.851A18 18 0 0 1 26.654.944z" fill="#835032" fill-rule="nonzero"/><circle fill="#E79B7F" fill-rule="nonzero" cx="48.99" cy="34.861" r="6"/><path d="M36.01 7.14l1.506.01c8.284.064 14.948 6.83 14.885 15.115a15 15 0 0 1-.1 1.614l-2.053 17.695c-.73 6.284-6.308 10.86-12.614 10.347a14.954 14.954 0 0 1-13.466-12.056l-2.906-14.98C19.694 16.803 24.974 8.98 33.057 7.412c.972-.19 1.962-.28 2.953-.273z" fill="#E79B7F" fill-rule="nonzero"/><path d="M14.428 12.469l17.307-8.017a2.438 2.438 0 0 1 3.316 1.379c3.543 9.735-1.5 20.057-9.7 23.041-8.224 2.994-8.821-3.117-12.38-12.896a2.807 2.807 0 0 1 1.457-3.507z" fill="#835032" fill-rule="nonzero"/><g fill-rule="nonzero" stroke="#CE82FF" stroke-width="6"><path d="M19.541 30.784l-1.07-7.272c-1.446-9.836 5.355-18.981 15.19-20.428a18 18 0 0 1 4.607-.081l18.478 2.054"/></g><path d="M33.53 6.111a5.903 5.903 0 0 1 2.578-2.193c3.315-1.457 6.733-2.12 10.255-1.99 4.481.759 7.693 1.844 9.634 3.254 5.832 4.237 5.942 14.34 2.446 19.15a1.747 1.747 0 0 1-2.198.535L36.197 14.78c-.207 6.875-4.385 11.74-10.845 14.092-8.225 2.994-10.68 5.222-14.239-4.556a3.877 3.877 0 0 1 1.053-4.211l14.24-12.787a6.559 6.559 0 0 1 3.375-1.6c1.554-.242 2.803-.11 3.748.393z" fill="#835032" fill-rule="nonzero"/><circle fill="#E79B7F" fill-rule="nonzero" cx="21" cy="35" r="6"/><rect fill="#E08462" fill-rule="nonzero" x="40.269" y="24.841" width="5" height="12" rx="2"/><rect fill="#BC7257" fill-rule="nonzero" x="46.408" y="25.832" width="3.5" height="7" rx="1.75"/><rect fill="#BC7257" fill-rule="nonzero" x="35.408" y="25.832" width="3.5" height="7" rx="1.75"/><g transform="translate(31.12 36.712)"><mask id="d" fill="#fff"><use xlink:href="#c"/></mask><use fill="#A34242" fill-rule="nonzero" xlink:href="#c"/><rect fill="#FFF" fill-rule="nonzero" mask="url(#d)" x="-1.288" y="-2.12" width="14" height="7" rx="1.5"/><circle fill="#D25151" fill-rule="nonzero" mask="url(#d)" cx="4.481" cy="11.222" r="4.5"/></g></g><rect fill="#E79B7F" fill-rule="nonzero" transform="rotate(31 91.701 61.028)" x="89.201" y="56.028" width="5" height="10" rx="2.5"/><g transform="rotate(73 15.896 93.646)"><g transform="translate(0 10)"><mask id="f" fill="#fff"><use xlink:href="#e"/></mask><use fill="#666161" fill-rule="nonzero" xlink:href="#e"/><rect fill="#FFCE8E" fill-rule="nonzero" mask="url(#f)" x="-6.806" y="16.396" width="13" height="16" rx="3"/></g><g transform="translate(6.125 .794)"><mask id="h" fill="#fff"><use xlink:href="#g"/></mask><use fill="#666161" fill-rule="nonzero" xlink:href="#g"/><rect fill="#C85252" fill-rule="nonzero" mask="url(#h)" x="-2.563" y="-1.864" width="11.281" height="7.769" rx="3.884"/></g><rect fill="#C85252" fill-rule="nonzero" x="5.542" y="0" width="7.917" height="3.176" rx="1.588"/><path d="M7.917 13.5l-.06.012a4.846 4.846 0 0 0-3.899 4.753" stroke="#887A7A" stroke-width="2.56" stroke-linecap="round"/></g><rect fill="#E79B7F" fill-rule="nonzero" transform="rotate(-49 34.5 75)" x="29" y="58" width="11" height="34" rx="5.5"/><rect fill="#E79B7F" fill-rule="nonzero" transform="rotate(75 54.798 79.705)" x="49.298" y="62.705" width="11" height="34" rx="5.5"/><rect fill="#E79B7F" fill-rule="nonzero" transform="rotate(18 73.854 76.11)" x="63.854" y="73.61" width="20" height="5" rx="2.5"/><rect fill="#E79B7F" fill-rule="nonzero" transform="rotate(23 71.344 78.224)" x="64.844" y="75.724" width="13" height="5" rx="2.5"/><rect fill="#E79B7F" fill-rule="nonzero" transform="rotate(37 68.33 79.265)" x="61.829" y="76.765" width="13" height="5" rx="2.5"/><rect fill="#E79B7F" fill-rule="nonzero" transform="rotate(-16 70.33 72.265)" x="61.829" y="69.765" width="17" height="5" rx="2.5"/><rect fill="#E79B7F" fill-rule="nonzero" transform="rotate(126 96.701 67.028)" x="94.201" y="62.028" width="5" height="10" rx="2.5"/><rect fill="#E79B7F" fill-rule="nonzero" transform="rotate(126 92.892 68.44)" x="90.392" y="63.44" width="5" height="10" rx="2.5"/><rect fill="#E79B7F" fill-rule="nonzero" transform="rotate(126 89.892 71.44)" x="87.392" y="66.44" width="5" height="10" rx="2.5"/></g><g transform="translate(219 29)"><path d="M25.009 74h8.788a20 20 0 0 1 19.565 15.85l2.87 13.527A3 3 0 0 1 53.297 107H3.283a3 3 0 0 1-2.82-4.025l5.75-15.81A20 20 0 0 1 25.009 74z" fill="#51AF13" fill-rule="nonzero"/><path d="M23 71h13a5 5 0 0 1 5 5v3.088a5 5 0 0 1-7.146 4.515L28.376 81l-3.45 1.995A4.615 4.615 0 0 1 18 79v-3a5 5 0 0 1 5-5z" fill="#78C800" fill-rule="nonzero"/><rect fill="#A66740" fill-rule="nonzero" x="24" y="62" width="10" height="17" rx="5"/><g transform="rotate(8 4.049 69.951)"><path d="M11.424 18.638l23.615-.131c8.985-.05 16.457 6.9 17.057 15.865l.759 11.348c.57 8.522-5.878 15.893-14.4 16.463a15.466 15.466 0 0 1-8.107-1.68l-19.087-9.82A20.143 20.143 0 0 1 .36 31.71l.14-2.652a11 11 0 0 1 10.923-10.419z" fill="#2B2B2B" fill-rule="nonzero"/><rect fill="#2B2B2B" fill-rule="nonzero" transform="rotate(-65 38.865 15.223)" x="29.365" y="1.723" width="19" height="27" rx="9.5"/><circle fill="#F49000" fill-rule="nonzero" cx="35.102" cy="21.808" r="4.5"/><circle fill="#F49000" fill-rule="nonzero" cx="41.38" cy="25.788" r="4.5"/><circle fill="#A66740" fill-rule="nonzero" cx="9.269" cy="50.841" r="6"/><circle fill="#A66740" fill-rule="nonzero" cx="40" cy="49" r="6"/><path d="M39.351 44.34l.43 6.219c.57 8.264-5.667 15.427-13.932 15.997a15 15 0 0 1-1.377.032l-3.745-.086c-8.283-.19-14.842-7.059-14.652-15.34a15 15 0 0 1 .561-3.735l2.686-9.505a14.998 14.998 0 0 1 8.468-9.685l4.274 2.669a13.308 13.308 0 0 1 6.245 10.669 5 5 0 0 0 6.822 4.421l4.22-1.656z" fill="#A66740" fill-rule="nonzero"/><g transform="translate(13.722 53.02)"><mask id="j" fill="#fff"><use xlink:href="#i"/></mask><use fill="#812B2B" fill-rule="nonzero" xlink:href="#i"/><rect fill="#FFF" fill-rule="nonzero" mask="url(#j)" x="1.99" y="-1.139" width="17" height="5" rx="1.5"/><circle fill="#D25151" fill-rule="nonzero" mask="url(#j)" cx="11.368" cy="11.209" r="5.5"/></g><rect fill="#8E4D27" fill-rule="nonzero" x="13.592" y="40.168" width="5" height="11" rx="1"/><rect fill="#7C482A" fill-rule="nonzero" x="20.582" y="40.029" width="3.5" height="8" rx="1.75"/><rect fill="#7C482A" fill-rule="nonzero" x="9.582" y="40.029" width="3.5" height="8" rx="1.75"/></g></g><g><g transform="translate(146 102)"><mask id="l" fill="#fff"><use xlink:href="#k"/></mask><use fill="#FFD300" fill-rule="nonzero" xlink:href="#k"/><g mask="url(#l)" fill-rule="nonzero" stroke="#FFB400" stroke-width="2"><g transform="translate(10 4)"><rect x="13" y="1" width="16" height="15" rx="7.5"/><rect x="17" y="5" width="7" height="15" rx="3.5"/><rect x="1" y="3" width="8" height="15" rx="4"/></g></g></g><path d="M148.5 129h43a1.5 1.5 0 0 1 0 3h-43a1.5 1.5 0 0 1 0-3z" fill="#923838" fill-rule="nonzero"/><path d="M145.5 116h49a2.5 2.5 0 0 1 2.5 2.5v4.5a7 7 0 0 1-7 7h-40a7 7 0 0 1-7-7v-4.5a2.5 2.5 0 0 1 2.5-2.5z" fill="#A34242" fill-rule="nonzero"/><path d="M182.464 125.604V114.4M187.532 113.516v6.203M151.532 114.516v6.203" stroke="#FFD300" stroke-width="3" stroke-linecap="round"/></g><rect fill="#A66740" fill-rule="nonzero" transform="rotate(62 215.5 122.5)" x="199" y="117" width="33" height="11" rx="5.5"/><g transform="translate(197 85)" fill-rule="nonzero"><rect fill="#A66740" x="0" y="24" width="13" height="6" rx="3"/><g fill="#BBF2FF" fill-opacity=".8"><path d="M10 33V21.777A9.003 9.003 0 0 1 3 13V3a3 3 0 0 1 3-3h12a3 3 0 0 1 3 3v10a9.003 9.003 0 0 1-7 8.777V33h2.5a1.5 1.5 0 0 1 0 3h-9a1.5 1.5 0 0 1 0-3H10z"/></g><rect fill="#A66740" x="12" y="19" width="9" height="6" rx="3"/><rect fill="#A66740" x="2" y="15" width="9" height="6" rx="3"/><rect fill="#A66740" x="4" y="19" width="9" height="6" rx="3"/></g><g transform="translate(49 115)"><mask id="n" fill="#fff"><use xlink:href="#m"/></mask><use fill="#FFD300" fill-rule="nonzero" xlink:href="#m"/><rect stroke="#FFB400" stroke-width="2" mask="url(#n)" x="7" y="3" width="12" height="10" rx="5"/><rect stroke="#FFB400" stroke-width="2" mask="url(#n)" x="10" y="6" width="5" height="10" rx="2.5"/><rect stroke="#FFB400" stroke-width="2" mask="url(#n)" x="22" y="8" width="5" height="10" rx="2.5"/></g><rect fill="#BAD3DB" fill-rule="nonzero" x="219" y="129" width="30" height="3" rx="1.5"/><rect fill="#BAD3DB" fill-rule="nonzero" x="118" y="129" width="30" height="3" rx="1.5"/><rect fill="#BAD3DB" fill-rule="nonzero" x="49" y="129" width="30" height="3" rx="1.5"/><rect fill="#DBE7EB" fill-rule="nonzero" x="216" y="125" width="36" height="5" rx="2.5"/><rect fill="#DBE7EB" fill-rule="nonzero" x="115" y="125" width="36" height="5" rx="2.5"/><rect fill="#DBE7EB" fill-rule="nonzero" x="46" y="125" width="36" height="5" rx="2.5"/><rect fill="#CD7900" fill-rule="nonzero" x="7" y="132" width="274" height="10" rx="2"/><g fill="#BBF2FF" fill-opacity=".8" fill-rule="nonzero"><path d="M92 129v-11.223A9.003 9.003 0 0 1 85 109V99a3 3 0 0 1 3-3h12a3 3 0 0 1 3 3v10a9.003 9.003 0 0 1-7 8.777V129h2.5a1.5 1.5 0 0 1 0 3h-9a1.5 1.5 0 0 1 0-3H92z"/></g><g transform="translate(45 75)" fill-rule="nonzero"><rect fill="#FFB59F" transform="rotate(-73 22.5 26)" x="20" y="21" width="5" height="10" rx="2.5"/><g fill="#BBF2FF" fill-opacity=".8"><path d="M31.69 30.386l-8.845-6.91a9.003 9.003 0 0 1-11.226.113l-7.88-6.157a3 3 0 0 1-.517-4.21l7.388-9.457a3 3 0 0 1 4.211-.517l7.88 6.157a9.003 9.003 0 0 1 2.607 10.92l8.844 6.909 1.539-1.97a1.5 1.5 0 0 1 2.364 1.847l-5.541 7.092a1.5 1.5 0 0 1-2.364-1.847l1.54-1.97z"/></g><rect fill="#FFB59F" transform="rotate(18 27.5 20)" x="25" y="15" width="5" height="10" rx="2.5"/><rect fill="#FFB59F" transform="rotate(18 30.5 24)" x="28" y="19" width="5" height="10" rx="2.5"/><rect fill="#FFB59F" transform="rotate(18 34.5 24)" x="32" y="19" width="5" height="10" rx="2.5"/></g><path d="M63.435 89.635L65.5 89a2.85 2.85 0 0 1 3.369 4.037L68 94.712a7.008 7.008 0 0 1-10.69 2.17l-5.785-4.79a1 1 0 0 1 .737-1.766l2.12.212a23 23 0 0 0 9.053-.903z" fill="#A34242" fill-rule="nonzero"/><rect fill="#5CCBFF" fill-rule="nonzero" transform="rotate(-46 25.424 120.944)" x="20.424" y="113.444" width="10" height="15" rx="2"/></g></svg>