<svg width="187" height="192" viewBox="0 0 187 192" version="1.1" xmlns="http://www.w3.org/2000/svg" xmlns:xlink="http://www.w3.org/1999/xlink"><title>jobs-pie copy</title><defs><path d="M6.264 0h54.44l-1.278 6.705 1.277 5.254H6.264a5.98 5.98 0 1 1 0-11.96z" id="a"/></defs><g stroke="none" stroke-width="1" fill="none" fill-rule="evenodd"><path fill="#C6775C" d="M70.041 89.645H96.65v23.038H70.041z"/><g><path d="M56.276 104.889h50.643c12.666 0 22.935 10.268 22.935 22.934V171.7H29.814c-6.756 0-12.232-5.476-12.232-12.231 0-1.777.387-3.532 1.134-5.144l16.752-36.145a22.934 22.934 0 0 1 20.808-13.291z" fill="#FFB100"/><path d="M62.165 104.889h36.772c0 10.179-8.232 18.43-18.386 18.43-10.155 0-18.386-8.251-18.386-18.43z" fill="#C6775C"/></g><path d="M136.262 41.227a6.115 6.115 0 0 1-.791-6.277l1.804-4.063-3.579-9.857a4.263 4.263 0 0 1 2.546-5.46 4.25 4.25 0 0 1 5.452 2.542l1.536 4.232 4.851-10.923a4.25 4.25 0 0 1 5.616-2.155 4.265 4.265 0 0 1 2.16 5.625l-4.562 10.27.53.236 8.065-10.728a4.25 4.25 0 0 1 5.958-.837 4.269 4.269 0 0 1 .839 5.972l-6.892 9.167c.045.024.089.048.132.073l7.773-5.661a4.252 4.252 0 0 1 5.947.942 4.272 4.272 0 0 1-.944 5.96l-10.464 7.62a4.308 4.308 0 0 1-.311.207l-3.196 7.195a6.117 6.117 0 0 1-5.546 3.635l-18.958 42.684a6.116 6.116 0 0 1-8.082 3.102l-5.814-2.595a6.116 6.116 0 0 1-3.097-8.067l19.027-42.84zM73.515 152.441h9.025c1.605 0 3.094.84 3.925 2.214l6.063 10.025a4.587 4.587 0 0 1-3.925 6.96H73.515v-19.199z" fill="#C6775C"/><path d="M91.82 132.378l38.277-86.18a3.822 3.822 0 0 1 5.052-1.94l17.327 7.734a3.822 3.822 0 0 1 1.936 5.042l-38.274 86.173a6.116 6.116 0 0 1-8.082 3.103l-13.14-5.864a6.116 6.116 0 0 1-3.096-8.068z" fill="#FFB100"/><g transform="translate(42.246 8.896)"><path d="M38.833 12.419c4.973 0 9.585.464 13.838 1.394 14.005 3.063 23.55 16.058 22.284 30.337L73.72 58.081a3.058 3.058 0 0 1-2.692 2.767l-56.543 6.58a3.058 3.058 0 0 1-3.386-2.64L8.73 46.727c-2.18-16.625 9.53-31.87 26.155-34.05a30.36 30.36 0 0 1 3.948-.258z" fill="#000"/><rect fill="#C6775C" x="60.764" y="53.611" width="17.157" height="16.895" rx="7.645"/><g><path d="M16.854 22.937l53.763 9.237v36.937c0 14.885-11.997 26.988-26.882 27.12-14.715.13-26.75-11.694-26.88-26.41l-.001-.235v-46.65z" fill="#C6775C"/><path d="M70.617 47.216a16.68 16.68 0 0 1-11.67-11.646 40.012 40.012 0 0 1-34.518 13.62l-7.575-.81V22.937l53.763 9.237v15.042z" fill="#000"/></g><g transform="translate(34.127 49.81)"><rect fill="#FFF" x="0" y="0" width="12.87" height="20.274" rx="6.422"/><rect fill="#000" x="4.706" y="4.699" width="6.132" height="10.875" rx="3.066"/></g><g transform="translate(51.934 49.027)"><rect fill="#FFF" x="0" y="0" width="12.87" height="20.274" rx="6.422"/><rect fill="#000" x="4.706" y="4.699" width="6.132" height="10.875" rx="3.066"/></g><path d="M51.743 65.928c.603.596.977 1.424.977 2.34a3.28 3.28 0 0 1-3.276 3.283 3.28 3.28 0 0 1-3.275-3.283c0-.916.374-1.744.977-2.34v-11.07a2.293 2.293 0 0 1 2.294-2.293h.01a2.293 2.293 0 0 1 2.293 2.293v11.07z" fill="#A55539"/><rect fill="#C6775C" x="7.615" y="59.329" width="17.157" height="16.895" rx="7.645"/><ellipse fill="#000" cx="12.141" cy="12.074" rx="12.007" ry="12.036"/><path d="M41.899 71.55c-3.822-2.472-7.633-3.73-11.434-3.774" stroke="#C6775C" stroke-width="6.116" stroke-linecap="round"/><path d="M44.305 81.46c-2.189-.154-4.013-.714-5.472-1.682-1.46-.967-2.707-2.415-3.745-4.342" stroke="#FFF" stroke-width="6.371" stroke-linecap="round"/></g><g><g transform="translate(105.827 100.793)" fill-rule="nonzero"><path d="M28.192 9.133a1.718 1.718 0 0 1 1.71 1.856l-.8 10.154a.914.914 0 0 1-1.821 0l-.8-10.154a1.719 1.719 0 0 1 1.711-1.856z" fill="#743D00" opacity=".807"/><path d="M12.294 18.553l.04-.015c6.62-3.986 15.21-1.84 19.19 4.796l4.203 6.981c3.98 6.638 1.84 15.253-4.781 19.243a12.84 12.84 0 0 1-.006.004l-.043.01c-6.62 3.985-15.211 1.838-19.19-4.797l-4.203-6.981c-3.981-6.637-1.84-15.253 4.78-19.243l.007-.004.003.006z" fill="#FF4B4B"/><path d="M44.104 18.553l-.04-.015c-6.62-3.986-15.21-1.84-19.19 4.796l-4.203 6.981c-3.98 6.638-1.84 15.253 4.781 19.243l.006.004.043.01c6.621 3.985 15.211 1.838 19.19-4.797l4.204-6.981c3.98-6.637 1.84-15.253-4.782-19.243a14.003 14.003 0 0 0-.006-.004l-.003.006z" fill="#FF4B4B"/><ellipse fill="#FF7878" cx="17.894" cy="28.414" rx="5.064" ry="5.074"/><path d="M44.24 3.464c-.6-.646-6.527-.087-9.528 2.79-3 2.877-4.071 8.854-3.543 9.421.529.568 6.536 0 9.628-2.883 3.093-2.884 4.044-8.683 3.444-9.328z" fill="#5ABB1A"/><ellipse fill="#EA2B2B" cx="41.022" cy="36.363" rx="2.87" ry="2.875"/><ellipse fill="#EA2B2B" cx="36.802" cy="41.944" rx="2.026" ry="2.03"/></g><path d="M162.21 155.655h-3.86v12.024h3.86v4.15h-56.488c-5.612 0-10.16-4.55-10.16-10.162 0-5.612 4.548-10.161 10.16-10.161h56.489v4.15z" fill="#A570FF"/><g transform="translate(99.76 155.687)"><mask fill="#fff"><use xlink:href="#a"/></mask><use fill="#EBEBEB" xlink:href="#a"/></g></g><rect fill="#AF6C0F" x="6" y="171.429" width="175" height="12.571" rx="6.286"/></g></svg>