<svg width="505" height="197" viewBox="0 0 505 197" fill="none" xmlns="http://www.w3.org/2000/svg"><path fill-rule="evenodd" clip-rule="evenodd" d="M48.8109 52.1655C54.2229 46.383 63.2921 46.0663 69.0942 51.4572L70.4934 52.7572C80.8321 62.3631 81.397 78.5414 71.7536 88.845L68.4978 92.3238C58.9039 102.575 42.8267 103.136 32.5411 93.5794L31.0826 92.2243C25.2506 86.8056 24.9319 77.6794 30.3717 71.8671L48.8109 52.1655Z" fill="#A56644"/><path fill-rule="evenodd" clip-rule="evenodd" d="M101.711 52.1656C96.2994 46.3831 87.2301 46.0664 81.428 51.4573L80.0289 52.7572C69.6903 62.3631 69.1253 78.5414 78.7687 88.845L82.0244 92.3236C91.6183 102.574 107.696 103.136 117.981 93.5793L119.439 92.2243C125.272 86.8056 125.59 77.6794 120.15 71.8671L101.711 52.1656Z" fill="#A56644"/><path fill-rule="evenodd" clip-rule="evenodd" d="M75.7228 137.483C79.2817 137.483 82.1668 134.609 82.1668 131.063C82.1668 127.517 79.2817 124.642 75.7228 124.642C72.1639 124.642 69.2788 127.517 69.2788 131.063C69.2788 134.609 72.1639 137.483 75.7228 137.483Z" fill="white"/><path fill-rule="evenodd" clip-rule="evenodd" d="M49.1523 67.7617C51.6193 55.1146 62.6994 45.987 75.5849 45.987C88.3189 45.987 99.3125 54.906 101.937 67.3665L123.335 168.943C125.218 177.879 118.399 186.284 109.267 186.284H43.4854C34.4404 186.284 27.6422 178.031 29.374 169.154L49.1523 67.7617Z" fill="#E5A259"/><path fill-rule="evenodd" clip-rule="evenodd" d="M53.962 133.728C56.4165 124.279 64.9454 117.683 74.7075 117.683C84.4696 117.683 92.9985 124.279 95.4529 133.728L106.527 176.359C107.817 181.323 104.07 186.168 98.9406 186.168H50.4743C45.3452 186.168 41.5981 181.323 42.8877 176.359L53.962 133.728Z" fill="#FFCE8E"/><path d="M89.742 63.2458V63.2458C86.4512 62.5554 83.0332 63.5572 80.6357 65.9147L80.0754 66.4656" stroke="#A56644" stroke-width="5.22813" stroke-linecap="round" stroke-linejoin="round"/><path d="M60.7461 63.2458V63.2458C64.0369 62.5554 67.4549 63.5572 69.8524 65.9147L70.4126 66.4656" stroke="#A56644" stroke-width="5.22813" stroke-linecap="round" stroke-linejoin="round"/><path fill-rule="evenodd" clip-rule="evenodd" d="M85.5643 48.0425V48.1852C85.5643 53.2382 81.4681 57.3345 76.4151 57.3345H73.8473C68.8303 57.3345 64.7564 53.2962 64.6987 48.2928C67.9828 46.8074 71.6171 45.987 75.4173 45.987C78.9985 45.987 82.4321 46.7155 85.5643 48.0425Z" fill="#FFCE8E"/><path fill-rule="evenodd" clip-rule="evenodd" d="M61.0502 79.2041C61.2867 71.429 67.6579 65.2486 75.4366 65.2486C83.2153 65.2486 89.5865 71.429 89.823 79.2041L90.3544 96.6777C90.4191 98.8032 88.7136 100.561 86.587 100.561H64.2861C62.1596 100.561 60.4541 98.8032 60.5188 96.6777L61.0502 79.2041Z" fill="#FFCE8E"/><rect x="60.4006" y="83.44" width="30.0719" height="8.56069" fill="white"/><path fill-rule="evenodd" clip-rule="evenodd" d="M91.3088 89.0474C93.978 89.0474 96.1418 86.8915 96.1418 84.232C96.1418 81.5725 93.978 79.4166 91.3088 79.4166C88.6396 79.4166 86.4758 81.5725 86.4758 84.232C86.4758 86.8915 88.6396 89.0474 91.3088 89.0474Z" fill="white"/><path fill-rule="evenodd" clip-rule="evenodd" d="M91.3088 96.538C93.978 96.538 96.1418 94.382 96.1418 91.7226C96.1418 89.0631 93.978 86.9072 91.3088 86.9072C88.6396 86.9072 86.4758 89.0631 86.4758 91.7226C86.4758 94.382 88.6396 96.538 91.3088 96.538Z" fill="white"/><path fill-rule="evenodd" clip-rule="evenodd" d="M59.0893 89.0474C61.7585 89.0474 63.9223 86.8915 63.9223 84.232C63.9223 81.5725 61.7585 79.4166 59.0893 79.4166C56.4201 79.4166 54.2563 81.5725 54.2563 84.232C54.2563 86.8915 56.4201 89.0474 59.0893 89.0474Z" fill="white"/><path fill-rule="evenodd" clip-rule="evenodd" d="M59.0893 96.538C61.7585 96.538 63.9223 94.382 63.9223 91.7226C63.9223 89.0631 61.7585 86.9072 59.0893 86.9072C56.4201 86.9072 54.2563 89.0631 54.2563 91.7226C54.2563 94.382 56.4201 96.538 59.0893 96.538Z" fill="white"/><path fill-rule="evenodd" clip-rule="evenodd" d="M82.4981 72.7392C86.9022 72.7392 90.4725 76.3324 90.4725 80.7648C90.4725 85.1972 86.9022 88.7904 82.4981 88.7904C79.8008 88.7904 77.4163 87.4427 75.9732 85.3798C74.5308 87.4427 72.1463 88.7904 69.449 88.7904C65.0449 88.7904 61.4746 85.1972 61.4746 80.7648C61.4746 76.3324 65.0449 72.7392 69.449 72.7392C72.1463 72.7392 74.5308 74.0869 75.974 76.1498C77.4163 74.0869 79.8008 72.7392 82.4981 72.7392Z" fill="#FFCE8E"/><rect x="68.9929" y="65.2486" width="12.888" height="10.7009" rx="5.22813" fill="#4B4B4B"/><rect x="72.2148" y="66.3186" width="6.44398" height="3.21026" rx="1.60513" fill="#777777"/><path fill-rule="evenodd" clip-rule="evenodd" d="M74.5147 140.155C78.9633 140.155 82.5697 136.561 82.5697 132.129C82.5697 127.696 78.9633 124.103 74.5147 124.103C70.0661 124.103 66.4597 127.696 66.4597 132.129C66.4597 136.561 70.0661 140.155 74.5147 140.155Z" fill="white"/><rect x="76.5107" y="169.92" width="20.4059" height="16.0513" rx="8.02564" fill="#E5A259"/><rect x="52.8828" y="169.92" width="20.4059" height="16.0513" rx="8.02564" fill="#E5A259"/><path fill-rule="evenodd" clip-rule="evenodd" d="M38.5399 107.679C38.7403 106.408 39.8356 105.472 41.1221 105.472H110.911C112.198 105.472 113.293 106.408 113.493 107.679L114.959 116.974C115.209 118.56 113.983 119.995 112.377 119.995H39.6567C38.0506 119.995 36.8244 118.56 37.0745 116.974L38.5399 107.679Z" fill="#FF4B4B"/><path fill-rule="evenodd" clip-rule="evenodd" d="M434.552 159.769C434.552 157.684 436.846 156.412 438.614 157.517L476.492 181.191C478.755 182.605 477.753 186.098 475.085 186.098H437.207C435.74 186.098 434.552 184.909 434.552 183.443V159.769Z" fill="#FF4B4B"/><path fill-rule="evenodd" clip-rule="evenodd" d="M437.883 156.794C439.08 154.934 441.564 154.406 443.414 155.618L477.573 177.997C479.403 179.195 479.923 181.645 478.74 183.484L478.231 184.274C477.034 186.134 474.55 186.662 472.7 185.449L438.541 163.071C436.711 161.872 436.19 159.422 437.374 157.583L437.883 156.794Z" fill="#EBE3E3"/><path fill-rule="evenodd" clip-rule="evenodd" d="M172.346 163.064C174.116 161.991 176.378 163.265 176.378 165.335V184.517C176.378 185.199 176.121 185.821 175.698 186.291H140.081C139.088 185.151 139.124 183.199 140.695 182.247L172.346 163.064Z" fill="#A56644"/><rect width="44.6051" height="10.3733" rx="5.18664" transform="matrix(-0.866025 0.5 0.5 0.866025 170.621 157.002)" fill="#05479C"/><rect x="347.102" y="159.559" width="98.5462" height="34.2318" rx="17.0288" transform="rotate(-22 347.102 159.559)" fill="#05479C"/><path fill-rule="evenodd" clip-rule="evenodd" d="M276.71 135.576C279.789 135.576 282.286 138.072 282.286 141.152V183.37C282.286 184.836 281.097 186.025 279.631 186.025H263.699C262.233 186.025 261.044 184.836 261.044 183.37V141.152C261.044 138.072 263.541 135.576 266.62 135.576H276.71Z" fill="#E5A259"/><rect x="166.367" y="124.255" width="102.226" height="34.5178" rx="17.2589" transform="rotate(19 166.367 124.255)" fill="#1CB0F6"/><path fill-rule="evenodd" clip-rule="evenodd" d="M278.928 81.6823C283.407 80.0522 288.359 82.3614 289.989 86.8399C291.619 91.3183 289.31 96.2703 284.831 97.9003L254.89 108.798C250.412 110.428 245.46 108.119 243.83 103.64C242.2 99.1619 244.509 94.2099 248.987 92.5799L278.928 81.6823Z" fill="#A56644"/><rect x="301.789" y="103.051" width="7.96564" height="23.8969" rx="3.98282" transform="rotate(149 301.789 103.051)" fill="#A56644"/><path fill-rule="evenodd" clip-rule="evenodd" d="M280.309 81.5468C286.405 80.251 292.398 84.1425 293.693 90.2387C294.989 96.3348 291.098 102.327 285.001 103.623C278.905 104.919 272.913 101.027 271.617 94.9311C270.321 88.8349 274.213 82.8426 280.309 81.5468Z" fill="#A56644"/><path d="M166.891 158.387H241.901C249.6 158.387 255.841 164.628 255.841 172.327C255.841 180.026 249.6 186.267 241.901 186.267H166.891V158.387Z" fill="#1CB0F6"/><path d="M349.988 169.707C349.988 160.596 357.373 153.211 366.484 153.211H440.453V186.204H366.484C357.373 186.204 349.988 178.818 349.988 169.707Z" fill="#05479C"/><path fill-rule="evenodd" clip-rule="evenodd" d="M341.763 134.248C344.842 134.248 347.338 136.745 347.338 139.824V183.37C347.338 184.836 346.15 186.025 344.683 186.025H328.752C327.286 186.025 326.097 184.836 326.097 183.37V139.824C326.097 136.745 328.593 134.248 331.673 134.248H341.763Z" fill="#E5A259"/><path fill-rule="evenodd" clip-rule="evenodd" d="M338.976 112.627C339.481 111.715 340.793 111.715 341.299 112.627L345.683 120.541C346.173 121.426 345.534 122.512 344.522 122.512H335.753C334.741 122.512 334.101 121.426 334.591 120.541L338.976 112.627Z" fill="#FFC800"/><path fill-rule="evenodd" clip-rule="evenodd" d="M340.137 114.546C342.337 114.546 344.12 112.763 344.12 110.563C344.12 108.364 342.337 106.58 340.137 106.58C337.937 106.58 336.154 108.364 336.154 110.563C336.154 112.763 337.937 114.546 340.137 114.546Z" fill="#FFC800"/><path fill-rule="evenodd" clip-rule="evenodd" d="M323.045 112.627C323.55 111.715 324.862 111.715 325.367 112.627L329.752 120.541C330.242 121.426 329.602 122.512 328.591 122.512H319.821C318.81 122.512 318.17 121.426 318.66 120.541L323.045 112.627Z" fill="#FFC800"/><path fill-rule="evenodd" clip-rule="evenodd" d="M324.206 114.546C326.405 114.546 328.189 112.763 328.189 110.563C328.189 108.364 326.405 106.58 324.206 106.58C322.006 106.58 320.223 108.364 320.223 110.563C320.223 112.763 322.006 114.546 324.206 114.546Z" fill="#FFC800"/><path fill-rule="evenodd" clip-rule="evenodd" d="M313.752 112.627C314.257 111.715 315.569 111.715 316.074 112.627L320.459 120.541C320.949 121.426 320.309 122.512 319.298 122.512H310.528C309.517 122.512 308.877 121.426 309.367 120.541L313.752 112.627Z" fill="#FFC800"/><path fill-rule="evenodd" clip-rule="evenodd" d="M314.913 114.546C317.112 114.546 318.895 112.763 318.895 110.563C318.895 108.364 317.112 106.58 314.913 106.58C312.713 106.58 310.93 108.364 310.93 110.563C310.93 112.763 312.713 114.546 314.913 114.546Z" fill="#FFC800"/><path fill-rule="evenodd" clip-rule="evenodd" d="M299.43 111.017C300.41 110.661 301.4 111.521 301.183 112.541L299.301 121.39C299.09 122.379 297.895 122.779 297.131 122.116L290.513 116.362C289.749 115.699 289.979 114.459 290.93 114.113L299.43 111.017Z" fill="#FF4B4B"/><path fill-rule="evenodd" clip-rule="evenodd" d="M299.048 113.227C300.708 114.67 303.224 114.495 304.667 112.834C306.11 111.174 305.934 108.659 304.274 107.216C302.614 105.772 300.098 105.948 298.655 107.608C297.212 109.269 297.388 111.784 299.048 113.227Z" fill="#FF4B4B"/><path fill-rule="evenodd" clip-rule="evenodd" d="M378.943 58.6666C380.345 66.3815 387.064 71.9895 394.905 71.9895H403.884C411.762 71.9895 418.501 66.3303 419.863 58.5711L424.991 29.3594C426.74 19.3925 419.072 10.2602 408.952 10.2602H389.584C379.463 10.2602 371.813 19.426 373.622 29.384L378.943 58.6666Z" fill="#FF4B4B"/><rect x="352.886" y="65.9026" width="22.5693" height="22.5693" rx="11.2846" transform="rotate(-127 352.886 65.9026)" fill="#FFD0C3"/><path fill-rule="evenodd" clip-rule="evenodd" d="M367.105 39.5193C368.885 38.2263 371.376 38.6208 372.669 40.4004C373.962 42.1799 373.567 44.6707 371.788 45.9636L363.195 52.2064C361.416 53.4993 358.925 53.1048 357.632 51.3252C356.339 49.5457 356.733 47.055 358.513 45.762L367.105 39.5193Z" fill="#FFC3B2"/><path fill-rule="evenodd" clip-rule="evenodd" d="M349.361 33.3121C348.867 31.1688 350.203 29.0302 352.346 28.5354C354.489 28.0406 356.628 29.3769 357.123 31.5202L360.408 45.7496C360.903 47.8929 359.566 50.0315 357.423 50.5263C355.28 51.0211 353.141 49.6847 352.646 47.5415L349.361 33.3121Z" fill="#FFD0C3"/><path fill-rule="evenodd" clip-rule="evenodd" d="M340.835 37.6756C339.45 35.9662 339.714 33.4582 341.423 32.0739C343.133 30.6896 345.641 30.9532 347.025 32.6627L353.709 40.9166C355.093 42.6261 354.83 45.134 353.12 46.5183C351.411 47.9026 348.903 47.639 347.519 45.9296L340.835 37.6756Z" fill="#FFD0C3"/><rect x="334.172" y="46.183" width="7.96564" height="18.5865" rx="3.98282" transform="rotate(-61 334.172 46.183)" fill="#FFD0C3"/><rect x="393.163" y="78.4239" width="17.2589" height="55.7594" rx="8.62944" transform="rotate(80 393.163 78.4239)" fill="#FFD0C3"/><path fill-rule="evenodd" clip-rule="evenodd" d="M434.19 84.6712C433.554 81.5856 430.838 79.3714 427.688 79.3714H389.722C382.996 79.3714 377.964 85.5449 379.32 92.1333L389.617 142.165H446.023L434.19 84.6712Z" fill="#1CB0F6"/><rect x="420.956" y="81.9724" width="17.2589" height="57.0871" rx="8.62944" transform="rotate(-20 420.956 81.9724)" fill="#FFD0C3"/><rect x="347.012" y="45.7518" width="17.2589" height="57.0871" rx="8.62944" transform="rotate(9 347.012 45.7518)" fill="#FFD0C3"/><path fill-rule="evenodd" clip-rule="evenodd" d="M367.112 111.05C366.511 111.514 366.421 112.386 366.913 112.963L380.812 129.251C381.272 129.79 382.073 129.873 382.633 129.441L395.519 119.5C396.12 119.037 396.211 118.165 395.718 117.587L381.819 101.299C381.36 100.761 380.559 100.677 379.998 101.11L367.112 111.05Z" fill="#05479C"/><rect width="23.8969" height="19.9141" rx="1.32761" transform="matrix(0.390731 0.920505 0.920505 -0.390731 372.891 102.896)" fill="#FFC800"/><path d="M388.384 10.175H373.826C362.496 10.175 353.312 19.388 353.312 30.7529V48.0117C353.312 49.8448 354.793 51.3308 356.62 51.3308H371.179C382.508 51.3308 391.693 42.1177 391.693 30.7529V13.494C391.693 11.6609 390.212 10.175 388.384 10.175Z" fill="#FF4B4B"/><path fill-rule="evenodd" clip-rule="evenodd" d="M385.88 94.5827C385.172 94.5623 384.573 95.1006 384.518 95.8062L382.848 117.153C382.789 117.91 383.375 118.562 384.133 118.584L400.401 119.052C401.109 119.072 401.708 118.534 401.763 117.828L403.433 96.4809C403.492 95.7243 402.906 95.0721 402.148 95.0503L385.88 94.5827Z" fill="white"/><rect x="392.056" y="58.6544" width="17.2589" height="34.5178" rx="8.62944" transform="rotate(-15 392.056 58.6544)" fill="#FFD0C3"/><path fill-rule="evenodd" clip-rule="evenodd" d="M370.825 63.5451C372.32 71.1536 378.99 76.6405 386.744 76.6405H398.123C405.802 76.6405 412.43 71.2568 414.003 63.7407L419.16 39.1004C421.269 29.0219 413.578 19.5535 403.281 19.5535H379.934C370.738 19.5535 363.831 27.9498 365.604 36.9727L370.825 63.5451Z" fill="#FFD0C3"/><path d="M380.358 39.017H373.473C371.942 39.017 370.701 40.3176 370.701 41.9219V46.9826C370.701 51.3819 374.104 54.9482 378.303 54.9482H385.187C386.718 54.9482 387.96 53.6476 387.96 52.0433V46.9826C387.96 42.5833 384.556 39.017 380.358 39.017Z" fill="white"/><mask id="mask0" mask-type="alpha" maskUnits="userSpaceOnUse" x="370" y="39" width="18" height="16"><path d="M380.358 39.017H373.473C371.942 39.017 370.701 40.3176 370.701 41.9219V46.9826C370.701 51.3819 374.104 54.9482 378.303 54.9482H385.187C386.718 54.9482 387.96 53.6476 387.96 52.0433V46.9826C387.96 42.5833 384.556 39.017 380.358 39.017Z" fill="white"/></mask><g mask="url(#mask0)"><rect x="377.087" y="44.4419" width="7.2613" height="11.9485" rx="3.63065" fill="#4B4B4B"/></g><rect x="388.765" y="125.902" width="7.96564" height="21.2417" rx="3.98282" transform="rotate(-94 388.765 125.902)" fill="#FFD0C3"/><rect x="397.867" y="112.657" width="7.96564" height="15.9313" rx="3.98282" transform="rotate(-29 397.867 112.657)" fill="#FFD0C3"/><rect x="453.891" y="115.872" width="17.2589" height="49.1214" rx="8.62944" transform="rotate(86 453.891 115.872)" fill="#FFD0C3"/><path d="M400.559 139.796C396.907 140.115 393.687 137.414 393.368 133.762L392.963 129.133C392.42 122.924 397.012 117.451 403.221 116.907C409.43 116.364 414.903 120.957 415.446 127.166C415.989 133.374 411.397 138.848 405.188 139.391L400.559 139.796Z" fill="#FFD0C3"/><path d="M443.693 62.2493C456.729 57.6678 463.771 43.4997 459.421 30.6039C455.072 17.708 440.978 10.9679 427.942 15.5494C426.493 16.0584 425.711 17.6326 426.194 19.0655L440.196 60.5765C440.679 62.0094 442.245 62.7583 443.693 62.2493Z" fill="#FF4B4B"/><path d="M449.521 11.3373C446.328 5.01183 438.75 2.23537 432.595 5.13594C426.441 8.03652 424.04 15.5157 427.232 21.8413C427.587 22.5441 428.429 22.8526 429.113 22.5303L448.925 13.1935C449.609 12.8712 449.876 12.0402 449.521 11.3373Z" fill="#FF4B4B"/><rect x="400.686" y="45.6457" width="26.9705" height="14.5226" rx="7.2613" fill="#FFD0C3"/><rect width="13.2761" height="6.63803" rx="3.31901" transform="matrix(-1 0 0 1 404.86 24.7327)" fill="#FF4B4B"/><rect x="369.09" y="30.0851" width="13.2761" height="6.63803" rx="3.31901" transform="rotate(-10 369.09 30.0851)" fill="#FF4B4B"/><path fill-rule="evenodd" clip-rule="evenodd" d="M219.716 95.3301C215.397 93.316 213.528 88.1816 215.542 83.8622C217.556 79.5429 222.691 77.6741 227.01 79.6883L254.684 92.5929C259.004 94.607 260.872 99.7414 258.858 104.061C256.844 108.38 251.71 110.249 247.39 108.235L219.716 95.3301Z" fill="#A56644"/><path fill-rule="evenodd" clip-rule="evenodd" d="M173.413 80.3297C173.935 77.8781 176.101 76.1255 178.607 76.1255H219.223C225.134 76.1255 229.544 81.5726 228.312 87.3547L216.736 141.707H160.341L173.413 80.3297Z" fill="#FFAADE"/><rect x="157.182" y="131.015" width="17.2589" height="45.1386" rx="8.62944" transform="rotate(-90 157.182 131.015)" fill="#A56644"/><path d="M247.76 125.586C247.76 123.822 249.19 122.393 250.953 122.393H357.414C359.177 122.393 360.607 123.822 360.607 125.586V130.358H247.76V125.586Z" fill="#CD7900"/><rect x="191.005" y="40.6128" width="26.4283" height="48.8229" rx="13.2142" stroke="white" stroke-width="5.18664"/><path fill-rule="evenodd" clip-rule="evenodd" d="M216.856 92.0765C216.181 91.8619 215.457 92.2142 215.21 92.8772L207.72 112.937C207.454 113.648 207.838 114.436 208.561 114.666L224.07 119.6C224.744 119.815 225.469 119.462 225.716 118.799L233.206 98.7395C233.471 98.0285 233.088 97.2401 232.364 97.01L216.856 92.0765Z" fill="#05479C"/><path fill-rule="evenodd" clip-rule="evenodd" d="M228.066 99.4848C227.562 98.9875 226.757 98.9726 226.235 99.4509L210.455 113.924C209.896 114.437 209.879 115.314 210.419 115.847L221.998 127.284C222.502 127.781 223.307 127.796 223.828 127.318L239.609 112.844C240.168 112.331 240.184 111.455 239.644 110.921L228.066 99.4848Z" fill="#1CB0F6"/><rect x="190.266" y="110.74" width="23.8969" height="22.5693" rx="11.2846" fill="#A56644"/><path fill-rule="evenodd" clip-rule="evenodd" d="M202.496 106.025C204.181 104.611 206.693 104.831 208.107 106.516C209.521 108.201 209.301 110.713 207.616 112.127L197.446 120.661C195.761 122.075 193.249 121.855 191.835 120.17C190.421 118.485 190.641 115.973 192.326 114.559L202.496 106.025Z" fill="#A56644"/><rect x="218.81" y="111.404" width="7.96564" height="19.9141" rx="3.98282" transform="rotate(90 218.81 111.404)" fill="#A56644"/><path d="M400.872 39.017H407.757C409.288 39.017 410.529 40.3176 410.529 41.9219V46.9826C410.529 51.3819 407.125 54.9482 402.927 54.9482H396.042C394.511 54.9482 393.27 53.6476 393.27 52.0433V46.9826C393.27 42.5833 396.674 39.017 400.872 39.017Z" fill="white"/><rect x="394.334" y="44.4419" width="7.2613" height="11.9485" rx="3.63065" fill="#4B4B4B"/><rect x="388.08" y="46.1056" width="5.31042" height="13.2761" rx="2.65521" fill="#F7A188"/><rect x="385.515" y="53.8367" width="7.96564" height="5.31042" rx="2.65521" transform="rotate(4 385.515 53.8367)" fill="#F7A188"/><path fill-rule="evenodd" clip-rule="evenodd" d="M395.29 56.0945L399.574 53.9425C403.937 51.7505 409.124 51.9768 413.279 54.5403V61.9693H398.676L395.29 56.0945Z" fill="#FFD0C3"/><path d="M400.136 58.808C401.653 56.7386 404.561 56.2915 406.631 57.8093C408.7 59.327 409.147 62.2349 407.629 64.3042C405.277 67.5108 401.668 69.5104 397.197 69.8167C394.637 69.9921 392.419 68.0588 392.244 65.4985C392.074 63.0236 393.875 60.8688 396.308 60.5695L396.562 60.5452C398.177 60.4345 399.247 59.8942 399.983 59.0041L400.136 58.808Z" fill="#CD4C4C"/><path fill-rule="evenodd" clip-rule="evenodd" d="M395.027 79.2659C393.835 85.1671 397.435 91.0551 403.339 92.6191C409.441 94.2355 415.702 90.6205 417.353 84.5282L418.78 79.2659H395.027Z" fill="#FFD0C3"/><rect x="239.405" y="129.735" width="134.102" height="8.51439" rx="2.65521" fill="#E5A259"/><rect x="161.693" y="35.6821" width="86.2944" height="40.4433" rx="20.2217" fill="#4B4B4B"/><rect x="199.479" y="41.8918" width="21.2417" height="43.6362" rx="10.6208" transform="rotate(10 199.479 41.8918)" fill="#A56644"/><path fill-rule="evenodd" clip-rule="evenodd" d="M205.541 19.1232C207.433 12.0242 214.73 7.81118 221.824 9.72258L246.555 16.3864C253.62 18.2902 257.813 25.5525 255.929 32.6235L255.662 33.625C253.771 40.7239 246.473 44.937 239.38 43.0256L214.649 36.3618C207.583 34.4579 203.39 27.1957 205.274 20.1247L205.541 19.1232Z" fill="#4B4B4B"/><path fill-rule="evenodd" clip-rule="evenodd" d="M192.255 26.2894C190.7 22.0323 192.897 17.3217 197.157 15.7762L230.68 3.61585C234.928 2.07512 239.621 4.26351 241.171 8.50759C242.726 12.7647 240.529 17.4753 236.268 19.0208L202.745 31.1811C198.498 32.7219 193.805 30.5335 192.255 26.2894Z" fill="#4B4B4B"/><rect x="174.944" y="10.1184" width="58.4147" height="54.4318" rx="21.2417" fill="#4B4B4B"/><rect x="187.05" y="18.8539" width="53.1042" height="58.4147" rx="24.5607" fill="#A56644"/><rect x="204.152" y="36.6705" width="14.6037" height="18.5865" rx="7.30183" fill="white"/><rect x="210.726" y="43.9857" width="6.63803" height="10.6208" rx="3.31901" fill="#4B4B4B"/><rect x="206.078" y="25.77" width="13.2761" height="6.63803" rx="3.31901" fill="#4B4B4B"/><path fill-rule="evenodd" clip-rule="evenodd" d="M217.208 54.7314L215.828 53.6143C211.884 50.4206 206.758 49.0748 201.753 49.9189V60.6062H213.823L217.208 54.7314Z" fill="#A56644"/><path fill-rule="evenodd" clip-rule="evenodd" d="M225.393 59.4407L225.588 59.2456C228.91 55.9177 233.658 54.4389 238.283 55.2918L236.173 65.3155H228.778L225.393 59.4407Z" fill="#A56644"/><rect x="223.336" y="36.6705" width="12.7716" height="18.5865" rx="6.38579" fill="white"/><rect x="226.218" y="43.9857" width="6.38579" height="10.6208" rx="3.1929" fill="#4B4B4B"/><path fill-rule="evenodd" clip-rule="evenodd" d="M185.126 17.9839H210.669V27.8591C210.669 35.9245 204.131 42.4627 196.065 42.4627H185.126V17.9839Z" fill="#4B4B4B"/><rect x="178.296" y="42.4627" width="23.8585" height="15.9645" rx="7.98224" fill="#A56644"/><rect width="13.2761" height="6.63803" rx="3.31901" transform="matrix(-0.997564 0.0697565 0.0697565 0.997564 236.624 30.9967)" fill="#4B4B4B"/><path fill-rule="evenodd" clip-rule="evenodd" d="M221.276 50.2829C221.383 48.942 223.186 48.5911 223.788 49.7943L226.02 54.2619C226.609 55.4404 225.912 56.8555 224.618 57.1069L223.247 57.3734C221.955 57.6247 220.778 56.5742 220.882 55.2613L221.276 50.2829Z" fill="#87401A"/><path fill-rule="evenodd" clip-rule="evenodd" d="M224.393 55.3463C228.365 52.3919 233.264 50.9567 238.203 51.3002L239 51.3557L237.144 61.322L228.763 62.4807L224.393 55.3463Z" fill="#A56644"/><rect x="219.183" y="53.1057" width="9.57869" height="6.38579" rx="3.1929" fill="#87401A"/><path d="M217.055 64.813L216.147 64.6001C213.074 63.8799 210.369 62.0635 208.54 59.4915V59.4915" stroke="#87401A" stroke-width="2.76718" stroke-linecap="round" stroke-linejoin="round"/><rect x="174.99" y="73.2801" width="17.2589" height="58.0904" rx="8.62944" transform="rotate(22 174.99 73.2801)" fill="#A56644"/><path fill-rule="evenodd" clip-rule="evenodd" d="M396.161 16.5772L402.704 16.5772C413.016 16.5772 421.376 24.9369 421.376 35.2491V45.6223L406.587 45.6982C400.837 45.7277 396.161 41.0749 396.161 35.3251V16.5772Z" fill="#FF4B4B"/><path fill-rule="evenodd" clip-rule="evenodd" d="M184.917 57.4421C186.369 55.7948 189.079 56.5209 189.512 58.6733L191.414 68.1166C191.803 70.048 190.027 71.7155 188.124 71.2055L179.854 68.9895C177.95 68.4795 177.246 66.1474 178.549 64.6692L184.917 57.4421Z" fill="#FFC800"/><path fill-rule="evenodd" clip-rule="evenodd" d="M417.231 65.6077C419.809 65.6077 421.899 63.5177 421.899 60.9397C421.899 58.3616 419.809 56.2717 417.231 56.2717C414.653 56.2717 412.563 58.3616 412.563 60.9397C412.563 63.5177 414.653 65.6077 417.231 65.6077Z" fill="#05479C"/><path fill-rule="evenodd" clip-rule="evenodd" d="M408.022 59.2427L395.997 64.85C395 65.3148 393.815 64.8835 393.351 63.8868L392.913 62.9473C393.611 61.6767 394.889 60.7574 396.416 60.5695L396.67 60.5452C398.286 60.4345 399.355 59.8943 400.091 59.0041L400.244 58.808C401.762 56.7387 404.67 56.2915 406.739 57.8093C407.279 58.2055 407.709 58.6966 408.022 59.2427Z" fill="white"/><path fill-rule="evenodd" clip-rule="evenodd" d="M408.172 63.5849C408.051 63.833 407.907 64.0738 407.738 64.3042C406.199 66.403 404.12 67.9847 401.614 68.913C401.486 68.4157 401.439 67.8885 401.486 67.3478C401.71 64.7913 403.964 62.9002 406.52 63.1239C407.113 63.1757 407.669 63.3365 408.172 63.5849Z" fill="#FF4B4B"/><rect x="81.4792" y="176.54" width="27.3855" height="9.95835" rx="4.97917" fill="#4B4B4B"/><path fill-rule="evenodd" clip-rule="evenodd" d="M96.6956 171.905C96.6956 158.567 109.102 148.694 122.1 151.688L136.208 154.939C145.624 157.108 152.296 165.492 152.296 175.156V186.499H104.164C100.039 186.499 96.6956 183.155 96.6956 179.03V171.905Z" fill="#4B4B4B"/><path d="M136.998 168.657C136.998 157.428 146.101 148.325 157.329 148.325C168.558 148.325 177.661 157.428 177.661 168.657V180.813C177.661 183.953 175.116 186.499 171.976 186.499H142.683C139.543 186.499 136.998 183.953 136.998 180.813V168.657Z" fill="#4B4B4B"/><path fill-rule="evenodd" clip-rule="evenodd" d="M150.535 161.908C139.931 161.908 133.458 150.253 139.062 141.251L141.996 136.537C143.092 134.776 145.781 135.293 146.146 137.335L150.535 161.908Z" fill="#4B4B4B"/><path fill-rule="evenodd" clip-rule="evenodd" d="M157.145 151.15C162.447 141.967 175.777 142.188 180.771 151.542L183.387 156.441C184.364 158.27 182.571 160.34 180.621 159.636L157.145 151.15Z" fill="#4B4B4B"/><rect x="160.088" y="164.3" width="11.6181" height="14.2992" rx="5.80904" transform="rotate(90 160.088 164.3)" fill="white"/><path fill-rule="evenodd" clip-rule="evenodd" d="M155.987 170.939C158.049 170.939 159.721 169.267 159.721 167.204C159.721 165.142 158.049 163.47 155.987 163.47C153.924 163.47 152.252 165.142 152.252 167.204C152.252 169.267 153.924 170.939 155.987 170.939Z" fill="#4B4B4B"/><rect x="176.302" y="164.3" width="11.6181" height="14.2992" rx="5.80904" transform="rotate(90 176.302 164.3)" fill="white"/><path fill-rule="evenodd" clip-rule="evenodd" d="M172.201 170.939C174.264 170.939 175.936 169.267 175.936 167.204C175.936 165.142 174.264 163.47 172.201 163.47C170.139 163.47 168.467 165.142 168.467 167.204C168.467 169.267 170.139 170.939 172.201 170.939Z" fill="#4B4B4B"/><rect x="149.976" y="156.184" width="8.29862" height="4.97917" rx="2.48959" transform="rotate(-5 149.976 156.184)" fill="#E5A259"/><rect x="164.195" y="159.962" width="8.29862" height="4.97917" rx="2.48959" fill="#E5A259"/><rect x="165.51" y="176.54" width="38.1737" height="9.95835" rx="4.97917" fill="#4B4B4B"/><path d="M188.747 176.54H198.705C201.455 176.54 203.684 178.77 203.684 181.519C203.684 184.269 201.455 186.499 198.705 186.499H188.747V176.54Z" fill="#E5A259"/><rect x="146.424" y="174.881" width="34.0244" height="11.6181" rx="5.80904" fill="#E5A259"/><rect x="166.153" y="174.051" width="9.95835" height="7.46876" rx="3.73438" fill="#4B4B4B"/><rect x="169.472" y="174.881" width="4.14931" height="2.48959" rx="1.24479" fill="#777777"/><rect x="126.319" y="176.54" width="14.9375" height="9.95835" rx="4.97917" fill="#E5A259"/><path d="M107.457 131.499L105.989 131.344C100.648 130.783 95.8319 134.947 95.2331 140.644L94.8378 144.405C94.4573 148.025 96.9005 151.25 100.295 151.607C103.689 151.963 106.75 149.317 107.13 145.697L108.481 132.849C108.552 132.17 108.094 131.565 107.457 131.499Z" fill="#4B4B4B"/><rect y="185.895" width="504.141" height="10.3733" rx="5.18664" fill="#AFAFAF" fill-opacity="0.3"/></svg>