<svg width="830" height="493" viewBox="0 0 830 493" fill="none" xmlns="http://www.w3.org/2000/svg"><rect width="830" height="493" rx="30" fill="#1CB0F6"/><path d="M151.633 308.814H143.39C144.64 308.817 145.653 309.83 145.657 311.08C145.654 312.331 144.641 313.344 143.39 313.347H124.86C123.609 313.344 122.596 312.331 122.593 311.08C122.597 309.83 123.61 308.817 124.86 308.814H116.602C115.352 308.817 114.339 309.83 114.335 311.08C114.338 312.331 115.351 313.344 116.602 313.347H151.632C152.883 313.344 153.897 312.331 153.9 311.08C153.896 309.83 152.883 308.817 151.633 308.814Z" fill="#18BEF5"/><path d="M143.39 308.814H124.86C123.61 308.817 122.597 309.83 122.593 311.08C122.596 312.331 123.609 313.344 124.86 313.347H143.39C144.641 313.344 145.654 312.331 145.657 311.08C145.653 309.83 144.64 308.817 143.39 308.814ZM173.888 294.389H138.857C137.606 294.392 136.593 295.405 136.59 296.656C136.593 297.907 137.606 298.92 138.857 298.923H173.887C175.138 298.92 176.152 297.907 176.155 296.656C176.152 295.405 175.139 294.392 173.888 294.389ZM322.255 319.529H287.224C285.973 319.532 284.96 320.545 284.957 321.796C284.96 323.047 285.973 324.06 287.224 324.063H322.255C323.506 324.06 324.519 323.047 324.522 321.796C324.519 320.545 323.506 319.532 322.255 319.529ZM347.395 294.389H312.364C311.113 294.392 310.1 295.405 310.097 296.656C310.1 297.907 311.113 298.92 312.364 298.923H347.395C348.646 298.92 349.659 297.907 349.662 296.656C349.659 295.405 348.646 294.392 347.395 294.389ZM326.376 443.169H291.346C290.095 443.172 289.082 444.184 289.078 445.435C289.081 446.686 290.094 447.699 291.345 447.702H326.376C327.627 447.699 328.64 446.686 328.643 445.435C328.64 444.184 327.627 443.171 326.376 443.168V443.169ZM298.163 375.843H263.132C261.881 375.846 260.868 376.859 260.865 378.11C260.868 379.361 261.881 380.374 263.132 380.377H298.163C299.414 380.374 300.427 379.361 300.43 378.11C300.427 376.859 299.414 375.846 298.163 375.843ZM219.038 336.556H196.176C194.925 336.559 193.912 337.572 193.909 338.823C193.913 340.073 194.926 341.086 196.176 341.089H219.038C220.288 341.086 221.301 340.073 221.305 338.823C221.302 337.572 220.289 336.559 219.038 336.556ZM123.568 371.089H108.44C107.189 371.092 106.176 372.105 106.173 373.356C106.176 374.607 107.189 375.62 108.44 375.623H123.567C124.817 375.619 125.83 374.606 125.833 373.356C125.829 372.106 124.817 371.094 123.567 371.09L123.568 371.089ZM268.678 467.896H242.461C241.21 467.899 240.197 468.912 240.194 470.163C240.197 471.414 241.21 472.427 242.461 472.43H268.678C269.929 472.427 270.942 471.414 270.945 470.163C270.942 468.912 269.929 467.899 268.678 467.896ZM154.106 449.144H140.355C139.104 449.147 138.091 450.16 138.088 451.411C138.091 452.662 139.104 453.675 140.355 453.678H154.105C155.356 453.675 156.369 452.662 156.372 451.411C156.369 450.161 155.356 449.148 154.106 449.144ZM278.38 298.923H258.375C257.125 298.926 256.112 299.939 256.108 301.189C256.111 302.44 257.124 303.453 258.375 303.456H278.381C279.632 303.453 280.645 302.44 280.648 301.189C280.644 299.939 279.631 298.926 278.381 298.923H278.38ZM467.67 30.86H449.14C447.889 30.8628 446.875 31.876 446.872 33.127C446.875 34.3777 447.888 35.3907 449.139 35.394H467.669C468.92 35.3907 469.933 34.3777 469.936 33.127C469.933 31.8764 468.92 30.8633 467.669 30.86H467.67ZM498.167 16.436H463.136C461.886 16.4393 460.873 17.4518 460.869 18.702C460.872 19.9527 461.885 20.9657 463.136 20.969H498.167C499.418 20.9657 500.431 19.9527 500.434 18.702C500.43 17.4518 499.417 16.4393 498.167 16.436ZM646.534 41.576H611.503C610.253 41.5793 609.24 42.5918 609.236 43.842C609.239 45.0927 610.252 46.1057 611.503 46.109H646.534C647.785 46.1057 648.798 45.0927 648.801 43.842C648.797 42.5918 647.784 41.5793 646.534 41.576ZM671.674 16.436H636.643C635.393 16.4393 634.38 17.4518 634.376 18.702C634.379 19.9527 635.392 20.9657 636.643 20.969H671.674C672.925 20.9657 673.938 19.9527 673.941 18.702C673.937 17.4518 672.924 16.4393 671.674 16.436ZM650.655 165.215H615.625C614.374 165.218 613.361 166.231 613.358 167.482C613.362 168.732 614.374 169.744 615.624 169.748H650.655C651.905 169.745 652.918 168.732 652.922 167.482C652.919 166.231 651.906 165.218 650.655 165.215ZM622.442 97.89H587.411C586.16 97.8933 585.147 98.9064 585.144 100.157C585.148 101.407 586.161 102.42 587.411 102.423H622.442C623.692 102.42 624.705 101.407 624.709 100.157C624.706 98.9064 623.693 97.8933 622.442 97.89ZM543.317 58.602H520.455C519.204 58.6053 518.191 59.6184 518.188 60.869C518.191 62.1197 519.204 63.1327 520.455 63.136H543.317C544.568 63.1327 545.581 62.1197 545.584 60.869C545.581 59.6184 544.568 58.6053 543.317 58.602ZM447.847 93.136H432.72C431.47 93.1399 430.457 94.1528 430.454 95.403C430.457 96.6533 431.47 97.6662 432.72 97.67H447.847C449.097 97.6662 450.11 96.6533 450.113 95.403C450.11 94.1528 449.097 93.1399 447.847 93.136ZM592.957 189.943H566.74C565.49 189.946 564.477 190.959 564.473 192.209C564.476 193.46 565.489 194.473 566.74 194.476H592.957C594.208 194.473 595.221 193.46 595.224 192.209C595.22 190.959 594.207 189.946 592.957 189.943ZM478.385 171.191H464.634C463.384 171.194 462.371 172.207 462.367 173.457C462.37 174.708 463.383 175.721 464.634 175.724H478.384C479.635 175.721 480.648 174.708 480.651 173.457C480.647 172.207 479.635 171.195 478.385 171.191ZM602.66 20.969H582.654C581.403 20.9723 580.39 21.9854 580.387 23.236C580.39 24.4867 581.403 25.4997 582.654 25.503H602.66C603.911 25.4997 604.924 24.4867 604.927 23.236C604.924 21.9854 603.911 20.9723 602.66 20.969Z" fill="#18BEF5"/><path d="M452.227 30.86H433.697C432.447 30.8639 431.434 31.8768 431.431 33.127C431.434 34.3773 432.447 35.3902 433.697 35.394H452.227C453.478 35.3907 454.491 34.3777 454.494 33.127C454.491 31.8764 453.478 30.8633 452.227 30.86ZM482.725 16.436H447.694C446.444 16.4393 445.431 17.4518 445.427 18.702C445.43 19.9527 446.443 20.9657 447.694 20.969H482.725C483.976 20.9657 484.989 19.9527 484.992 18.702C484.988 17.4518 483.975 16.4393 482.725 16.436ZM116.579 158.936H102.828C101.577 158.939 100.564 159.952 100.561 161.203C100.564 162.454 101.577 163.467 102.828 163.47H116.578C117.829 163.467 118.842 162.454 118.845 161.203C118.842 159.953 117.829 158.94 116.579 158.936ZM90.421 18.606H71.891C70.6404 18.6093 69.6273 19.6224 69.624 20.873C69.6279 22.1233 70.6408 23.1357 71.891 23.139H90.421C91.6713 23.1357 92.6842 22.1233 92.688 20.873C92.6847 19.6224 91.6717 18.6093 90.421 18.606ZM631.092 41.576H596.062C594.811 41.5788 593.798 42.5914 593.794 43.842C593.797 45.0927 594.81 46.1057 596.061 46.109H631.092C632.343 46.1057 633.356 45.0927 633.359 43.842C633.355 42.5918 632.342 41.5793 631.092 41.576ZM656.232 16.436H621.202C619.951 16.4388 618.938 17.4514 618.934 18.702C618.937 19.9527 619.95 20.9657 621.201 20.969H656.232C657.483 20.9657 658.496 19.9527 658.499 18.702C658.495 17.4518 657.482 16.4393 656.232 16.436ZM635.214 165.215H600.182C598.932 165.219 597.919 166.232 597.916 167.482C597.92 168.732 598.932 169.744 600.182 169.748H635.214C636.464 169.744 637.476 168.732 637.48 167.482C637.477 166.232 636.464 165.219 635.214 165.215ZM607 97.89H571.97C570.719 97.8928 569.705 98.906 569.702 100.157C569.706 101.407 570.719 102.42 571.969 102.423H607C608.25 102.42 609.263 101.407 609.267 100.157C609.264 98.906 608.251 97.8933 607 97.89ZM527.875 58.602H505.013C503.762 58.6053 502.749 59.6184 502.746 60.869C502.749 62.1197 503.762 63.1327 505.013 63.136H527.875C529.126 63.1327 530.139 62.1197 530.142 60.869C530.139 59.6184 529.126 58.6053 527.875 58.602ZM432.405 93.136H417.278C416.028 93.1399 415.015 94.1528 415.012 95.403C415.015 96.6533 416.028 97.6662 417.278 97.67H432.405C433.655 97.6662 434.668 96.6533 434.671 95.403C434.668 94.1528 433.655 93.1399 432.405 93.136ZM577.515 189.943H551.298C550.048 189.947 549.036 190.959 549.032 192.209C549.035 193.459 550.048 194.472 551.298 194.476H577.515C578.766 194.473 579.779 193.46 579.782 192.209C579.778 190.959 578.765 189.946 577.515 189.943ZM462.943 171.191H449.193C447.942 171.194 446.929 172.206 446.925 173.457C446.928 174.708 447.941 175.721 449.192 175.724H462.942C464.193 175.721 465.207 174.708 465.21 173.457C465.206 172.207 464.193 171.194 462.943 171.191ZM587.218 20.969H567.212C565.961 20.9723 564.948 21.9854 564.945 23.236C564.948 24.4867 565.961 25.4997 567.212 25.503H587.218C588.469 25.4997 589.482 24.4867 589.485 23.236C589.482 21.9854 588.469 20.9723 587.218 20.969ZM529.437 362.86H510.907C509.656 362.863 508.643 363.876 508.64 365.127C508.643 366.378 509.656 367.391 510.907 367.394H529.437C530.687 367.39 531.7 366.377 531.703 365.127C531.7 363.877 530.687 362.864 529.437 362.86ZM559.934 348.436H524.904C523.654 348.439 522.641 349.452 522.637 350.702C522.64 351.952 523.653 352.965 524.903 352.969H559.934C561.185 352.966 562.198 351.953 562.201 350.702C562.197 349.452 561.184 348.439 559.934 348.436ZM708.302 373.576H673.27C672.02 373.58 671.008 374.592 671.004 375.842C671.007 377.092 672.02 378.105 673.27 378.109H708.302C709.552 378.105 710.565 377.092 710.568 375.842C710.564 374.592 709.552 373.58 708.302 373.576ZM733.441 348.436H698.411C697.161 348.439 696.148 349.452 696.144 350.702C696.147 351.952 697.16 352.965 698.41 352.969H733.441C734.692 352.966 735.705 351.953 735.708 350.702C735.704 349.452 734.691 348.439 733.441 348.436ZM684.21 429.89H649.178C647.928 429.894 646.915 430.907 646.912 432.157C646.916 433.407 647.928 434.419 649.178 434.423H684.21C685.46 434.419 686.472 433.407 686.476 432.157C686.473 430.907 685.46 429.894 684.21 429.89ZM605.085 390.602H582.222C580.972 390.606 579.959 391.619 579.956 392.869C579.959 394.119 580.972 395.132 582.222 395.136H605.085C606.335 395.132 607.348 394.119 607.351 392.869C607.348 391.619 606.335 390.606 605.085 390.602ZM509.614 425.136H494.488C493.237 425.139 492.224 426.152 492.221 427.403C492.224 428.654 493.237 429.667 494.488 429.67H509.614C510.864 429.666 511.877 428.653 511.88 427.403C511.877 426.153 510.864 425.14 509.614 425.136ZM664.427 352.969H644.421C643.171 352.973 642.158 353.986 642.155 355.236C642.158 356.486 643.171 357.499 644.421 357.503H664.427C665.678 357.5 666.691 356.487 666.694 355.236C666.691 353.985 665.678 352.972 664.427 352.969Z" fill="#18BEF5"/><path d="M716.946 175.877C716.522 177.86 715.366 179.61 713.709 180.779L697.652 192.114C695.764 193.447 693.394 193.906 691.145 193.374C691.601 195.632 691.07 197.976 689.686 199.817L674.265 220.336C674.589 223.922 672.498 227.288 669.14 228.586C665.782 229.884 661.97 228.799 659.799 225.928C657.627 223.057 657.621 219.094 659.784 216.216L658.06 197.134C658.048 197.003 658.04 196.871 658.035 196.739H649.629L648.956 197.299C651.19 197.947 653.036 199.527 654.02 201.635C655.004 203.743 655.03 206.173 654.092 208.302L653.319 210.055C653.934 210.94 654.279 211.959 654.394 212.985C654.474 213.66 654.442 214.344 654.299 215.008C654.199 215.5 654.067 215.904 653.894 216.347C653.662 216.922 653.407 217.487 653.129 218.041C652.591 219.137 651.803 220.637 650.771 222.536C648.995 225.805 646.521 230.214 643.513 235.49L643.145 236.135C641.501 239.015 639.775 242.021 638.024 245.053L638.392 245.288C637.973 245.943 637.462 246.534 636.874 247.043C635.544 249.342 634.211 251.638 632.875 253.933L632.638 254.339L627.303 251.226L626.853 250.753L625.123 250.378C624.217 251.845 623.311 253.311 622.403 254.776L622.18 255.136L622.094 255.271C622.096 255.284 622.096 255.284 621.56 255.994L613.478 265.428L614.738 279.873C615.012 283.017 613.428 286.031 610.684 287.589L591.891 298.251L593.945 301.381C595.411 303.613 595.677 306.426 594.655 308.893C597.465 307.406 600.886 307.709 603.392 309.666L607.221 312.656C608.204 313.424 608.995 314.41 609.533 315.536L613.271 318.378C615.478 318.858 617.383 320.241 618.523 322.191C619.662 324.142 619.932 326.481 619.266 328.639L616.928 336.213C617.105 336.313 617.292 336.43 617.495 336.565C618.28 337.088 619.362 337.998 621.042 339.48C622.002 340.327 622.954 341.185 623.808 341.963C624.505 342.598 625.085 343.351 625.522 344.187L634.136 346.085C635.667 344.185 637.976 343.081 640.416 343.082H645.768C648.937 343.082 651.812 344.937 653.118 347.824L658.791 360.366L674.422 382.74C675.997 384.995 676.315 387.898 675.264 390.44L665.503 414.054C664.117 417.409 660.896 419.144 657.311 418.979L656.706 418.951L656.117 418.806L633.132 413.138C631.161 412.652 629.445 411.44 628.328 409.745L623.601 402.574L620.007 402.125L596.23 409.611C593.977 410.318 591.527 410.003 589.527 408.748C587.527 407.493 586.177 405.424 585.834 403.088L581.424 373.101C580.794 368.809 583.671 364.788 587.937 363.999L602.736 361.259L604.593 359.199C604.318 359.174 604.045 359.129 603.777 359.065C603.65 359.038 603.523 359.009 603.397 358.979C603.096 358.908 602.795 358.834 602.495 358.759C601.824 358.591 600.888 358.351 599.656 358.033C598.613 357.764 597.386 357.446 595.754 357.021L591.308 355.864L591.22 355.841C588.444 355.116 585.667 354.398 582.888 353.687C581.832 353.417 580.775 353.154 579.716 352.897C578.414 352.807 577.154 352.402 576.043 351.717C575.828 351.85 575.606 351.973 575.378 352.083C574.528 352.508 573.594 352.735 572.644 352.747C570.63 352.791 568.718 351.863 567.506 350.254L549.253 326.469L549.183 326.369C547.713 324.289 547.757 322.435 548.331 320.573C548.533 319.917 548.801 319.333 549.139 318.72C549.551 317.976 550.077 317.18 550.73 316.274C550.864 316.089 551.001 315.901 551.144 315.709C551.766 314.872 553.067 313.209 552.989 313.316C553.993 311.945 555.406 310.927 557.024 310.407L556.822 309.426L556.726 309.434C552.961 309.761 549.475 307.43 548.337 303.827L548.222 303.461L543.967 307.085L546.033 319.253C546.563 322.368 545.225 325.505 542.61 327.28C539.996 329.054 536.586 329.138 533.887 327.495L523.645 321.26C521.99 320.252 520.753 318.681 520.161 316.836L514.833 300.229L514.613 300.259C510.809 300.779 507.165 298.545 505.903 294.919L504.553 291.037L494.826 306.35C494.459 306.929 494.019 307.459 493.517 307.927C493.365 309.346 492.839 310.7 491.992 311.849L470.501 341.037C470.967 343.264 471.433 345.49 471.901 347.716C473.129 345.11 475.652 343.355 478.523 343.111C481.811 342.836 484.936 344.59 486.414 347.541L489.879 354.471C490.818 356.351 490.986 358.523 490.349 360.525L481.217 389.178C480.297 392.067 478.049 393.84 475.06 394.603L474.308 394.795H473.532C471.939 394.795 470.383 394.324 469.058 393.44L461.024 388.084L443.6 406.523C442.244 407.959 440.409 408.847 438.442 409.019L436.77 409.165L433.085 409.488L433.065 409.49C431.428 409.633 429.792 409.776 428.155 409.918L427.798 409.948C427.755 409.956 427.755 409.956 427.149 409.981C423.882 409.98 420.939 408.01 419.693 404.99C419.583 404.72 419.583 404.72 419.083 403.508C416.916 398.251 414.751 392.994 412.588 387.736L412.568 387.685C410.577 382.845 408.918 378.806 407.699 375.834C407.005 374.14 406.313 372.445 405.625 370.748L405.483 370.389C404.79 368.609 405.149 369.582 405.055 368.684L400.898 329.328L399.111 328.798L377.413 331.144C373.846 331.528 370.455 329.51 369.091 326.192L355.237 292.502C354.237 290.072 354.485 287.306 355.908 285.076L356.077 284.814L356.552 284.074C358.834 280.525 361.12 276.979 363.409 273.434L363.468 273.344C365.557 270.109 367.305 267.412 368.603 265.423C369.345 264.286 369.932 263.393 370.353 262.76C370.586 262.41 370.771 262.135 370.913 261.929C371.007 261.794 371.087 261.679 371.166 261.573C371.3 261.391 371.41 261.24 371.506 261.113C368.871 259.557 367.344 256.645 367.561 253.593L368.821 235.959C369.053 232.707 371.221 229.913 374.371 228.864C375.097 228.63 375.825 228.398 376.554 228.17L376.659 228.137C377.052 228.014 377.409 227.904 377.722 227.809L377.567 227.559C376.252 225.438 375.993 222.828 376.866 220.49C377.738 218.152 379.643 216.35 382.026 215.608L389.777 213.195L395.457 205.992L394.96 199.702C394.792 197.589 395.463 195.494 396.828 193.872C396.771 193.689 396.721 193.504 396.678 193.318L393.254 178.53C392.678 176.048 393.309 173.44 394.956 171.495L425.076 128.667L425.486 128.267C427.211 126.585 429.244 126.217 431.145 126.533C431.906 126.662 432.645 126.903 433.336 127.248C434.056 127.596 434.733 128.018 435.534 128.575L435.959 128.875C436.213 129.058 436.947 129.594 437.039 129.66L437.18 129.76L459.913 141.917C461.23 141.198 462.721 140.861 464.219 140.945L475.136 141.552L501.487 140.277L503.859 131.73C504.729 128.592 507.4 126.285 510.631 125.881L518.19 124.937C521.853 124.48 525.359 126.568 526.702 130.007C527.485 127.927 529.091 126.262 531.142 125.405L574.652 107.233C578.461 105.646 582.853 107.189 584.833 110.809L585.465 111.965H593.499C596.067 111.965 598.483 113.188 600.002 115.258C601.522 117.329 601.965 120 601.194 122.45L600.847 123.554L618.987 125.034C621.891 125.271 624.442 127.056 625.659 129.704L625.759 129.72L635.254 131.397L642.531 126.988C644.549 125.765 647 125.487 649.241 126.226L679.544 136.229L691.211 133.577C692.881 133.198 694.629 133.359 696.201 134.039L731.152 149.153C733.403 150.125 735.089 152.069 735.734 154.435C736.379 156.8 735.912 159.331 734.466 161.311L725.962 172.964C724.462 175.018 722.082 176.244 719.593 176.271C718.695 176.289 717.8 176.156 716.946 175.877ZM638.024 245.053L636.874 247.043C635.101 248.578 632.747 249.265 630.427 248.923L622.364 247.739L628.52 244.867L628.246 245.312L627.523 246.485L625.329 250.045L625.322 250.055L625.123 250.378L625.049 250.362L627.151 240.653L633.188 241.96L638.024 245.053ZM626.854 250.753L623.042 246.754C625.452 244.457 629.026 243.877 632.039 245.293L633.713 246.08L631.085 251.67L626.853 250.753H626.854ZM613.478 265.428L611.79 267.398L613.253 262.843L613.478 265.428ZM625.522 344.187C626.444 345.949 626.682 347.989 626.19 349.916C626.123 350.178 626.065 350.366 625.982 350.611C625.952 350.699 625.962 350.667 625.972 350.635C626.015 350.498 626.056 350.343 626.094 350.143C626.276 349.198 626.204 348.222 625.887 347.313L620.04 349.303L621.37 343.271L625.522 344.187ZM636.995 224.544L642.688 227.275L644.558 218.638C643.615 217.968 642.896 217.03 642.495 215.945L636.995 224.544ZM629.478 236.297L627.985 238.632C628.895 237.211 630.553 236.455 632.222 236.7L629.478 236.297ZM565.864 302.877L570.827 324.712L571.081 325.311L571.12 325.394C571.286 325.753 571.453 326.112 571.621 326.47L573.047 326.926L568.802 306.357L565.864 302.877ZM583.519 329.703C583.616 329.555 583.723 329.383 583.851 329.179C584.121 328.579 584.239 328.319 584.318 328.072C583.943 329.042 583.239 329.85 582.328 330.352L583.519 329.703ZM598.18 321.27L598.493 321.07C598.359 320.825 598.25 320.568 598.166 320.302C598.052 320.295 597.939 320.284 597.826 320.268L597.761 320.943L598.181 321.27H598.18ZM606.827 328.997L608.142 329.997L608.301 329.047C608.152 328.873 608.016 328.687 607.897 328.491L606.827 328.997ZM604.791 333.649L604.253 335.389L604.263 335.395C604.707 334.255 605.618 333.359 606.765 332.933L606.527 333.019C605.948 333.23 605.37 333.44 604.791 333.649ZM585.597 341.629L584.205 343.137C584.834 344.58 584.622 346.251 583.653 347.491C583.11 348.178 582.362 348.674 581.518 348.908C581.308 348.964 581.163 348.983 581.081 348.987C581.143 348.984 581.282 348.987 581.496 349.003L581.625 349.013L585.507 348.776C587.741 348.596 589.563 348.397 591.685 348.089L602.691 346.489L602.226 345.939L598.864 345.066L594.419 343.909L594.331 343.886C591.421 343.126 588.51 342.374 585.597 341.629ZM611.707 347.732C612.141 347.735 612.499 347.742 612.771 347.753C612.931 347.76 613.029 347.766 613.029 347.766C612.162 347.667 611.736 347.573 610.641 346.843C610.714 346.891 611.125 347.233 611.708 347.733L611.707 347.732ZM613.849 349.615C614.418 350.123 614.973 350.625 615.489 351.095C614.259 349.975 613.788 348.246 614.279 346.657C614.248 346.747 614.209 346.861 614.171 346.985C614.085 347.258 614.015 347.535 613.961 347.816C613.845 348.408 613.807 349.013 613.849 349.615ZM644.121 355.435L644.167 355.125C643.78 354.969 643.418 354.758 643.092 354.498C642.967 354.598 642.838 354.69 642.703 354.775L643.003 355.435H644.121ZM623.417 353.344C623.503 353.156 623.59 352.968 623.679 352.781L623.603 352.925C623.533 353.079 623.533 353.079 622.86 353.979L623.417 353.344ZM605.173 346.694C604.799 346.783 604.424 346.87 604.05 346.957C604.182 346.943 604.484 346.917 605.15 346.861C605.756 346.861 605.838 346.875 606.312 346.974L606.225 346.954C605.873 346.871 605.523 346.784 605.173 346.694ZM558.978 296.838L559.394 297.815L559.082 296.829L558.978 296.838ZM573.701 338.035L572.973 338.858C573.215 338.584 573.489 338.346 573.786 338.146L573.701 338.035ZM561.638 322.316L561.355 321.948C561.036 322.102 560.699 322.215 560.353 322.286C560.364 322.479 560.366 322.673 560.359 322.866L561.052 323.087C561.245 322.828 561.44 322.571 561.638 322.316ZM478.049 358.434L478.829 359.993C478.329 358.993 478.239 357.84 478.578 356.777L478.049 358.434ZM380.947 239.579L380.949 239.549L380.472 239.559L380.947 239.579ZM433.94 135.603L433.919 135.587L433.459 136.446L433.517 136.504L433.94 135.603ZM433.517 136.504L434.11 137.112C433.672 137.539 433.217 137.872 432.754 138.127L433.517 136.504ZM432.754 138.127C432.666 138.175 432.577 138.221 432.487 138.264L431.242 140.594L431.348 140.65C431.406 140.679 431.465 140.708 431.528 140.737L432.754 138.127ZM515.584 135.678L515.665 135.385C515.661 135.38 515.658 135.374 515.655 135.369C515.625 135.449 515.594 135.528 515.56 135.605L515.584 135.678ZM413.477 254.99L415.476 254.365L418.942 255.549C418.965 256.277 418.889 257.005 418.716 257.713L418.116 260.169L417.518 260.514C417.291 260.645 417.059 260.764 416.823 260.872L411.881 259.665L413.477 254.99ZM420.017 255.916L423.455 257.089L420.451 258.822C420.129 257.888 419.982 256.903 420.017 255.916ZM428.123 258.682L428.948 258.964L427.253 258.64L428.123 258.682ZM430.011 258.774L436.703 259.1L438.048 262.845C437.502 263.041 436.937 263.177 436.363 263.252L433.497 263.626C431.757 262.514 430.509 260.778 430.011 258.774ZM443.385 259.426L443.985 259.455L446.251 262.178L442.725 265.171L443.385 259.426ZM420.55 246.089L420.687 243.591L421.773 241.293L426.383 246.71L420.55 246.09V246.089ZM417.771 246.105L420.217 244.694C419.338 245.201 418.667 246.004 418.324 246.959L419.331 244.148C418.767 245.722 419.169 247.479 420.361 248.651L417.771 246.105ZM415.497 202.263L419.809 198.681L420.881 199.971L416.131 203.919L415.497 202.263ZM419.084 196.176L419.906 195.862L418.383 196.707L419.084 196.176ZM424.444 192.116L428.514 189.032L426.707 196.694L424.444 192.116ZM421.148 182.446C421.182 182.176 421.229 181.908 421.29 181.641L427.311 183.02L421.137 182.843L421.148 182.446ZM428.809 179.114L431.925 182.043L431.945 182.092L429.258 184.951L424.757 180.721L428.809 179.114ZM420.607 187.014L422.334 185.044C421.274 186.254 420.979 187.955 421.572 189.45L420.607 187.014ZM397.357 245.628C397.954 245.592 398.554 245.622 399.145 245.718L405.093 246.685L405.421 248.429L399.514 249.539L398.374 243.469L403.507 246.903L399.577 252.777C397.708 250.903 396.878 248.231 397.357 245.628ZM406.73 246.952L412.173 247.838C412.913 247.958 413.633 248.181 414.31 248.499L411.683 254.089L408.327 255.139L405.584 255.147C405.351 254.01 405.366 252.836 405.628 251.705L406.73 246.952ZM412.18 245.405L413.366 245.68L408.951 250L408.234 249.267L412.18 245.405ZM481.437 271.512L481.403 271.462L481.279 271.544L477.363 272.344L477.687 273.934L476.261 274.884L474.445 280.787L482.493 283.262L484.309 277.359L485.331 271.267C484.354 271.103 483.355 271.12 482.384 271.318L481.437 271.512Z" fill="#8EE000"/><path d="M638.024 245.053C639.775 242.021 641.501 239.015 643.145 236.135L643.513 235.49C646.521 230.214 648.995 225.805 650.771 222.536C651.803 220.637 652.591 219.137 653.129 218.041C653.407 217.487 653.662 216.922 653.894 216.347C654.067 215.904 654.199 215.5 654.299 215.008C654.442 214.344 654.474 213.66 654.394 212.985C654.279 211.959 653.934 210.94 653.319 210.055L654.092 208.302C655.03 206.173 655.004 203.743 654.02 201.635C653.036 199.527 651.19 197.947 648.956 197.299L649.629 196.739H658.035C658.04 196.871 658.048 197.003 658.06 197.134L659.784 216.216C657.621 219.094 657.627 223.057 659.799 225.928C661.97 228.799 665.782 229.884 669.14 228.586C672.498 227.288 674.589 223.922 674.265 220.336L689.686 199.817C691.07 197.976 691.601 195.632 691.145 193.374C693.394 193.906 695.764 193.447 697.652 192.114L713.709 180.779C715.366 179.61 716.522 177.86 716.946 175.877C717.8 176.156 718.695 176.289 719.593 176.271C722.082 176.244 724.462 175.018 725.962 172.964L734.466 161.311C735.912 159.331 736.379 156.8 735.734 154.435C735.089 152.069 733.403 150.125 731.152 149.153L696.201 134.039C694.629 133.359 692.881 133.198 691.211 133.577L679.544 136.229L649.241 126.226C647 125.487 644.549 125.765 642.531 126.988L635.254 131.397L625.759 129.72L625.659 129.704C624.442 127.056 621.891 125.271 618.987 125.034L600.847 123.554L601.194 122.45C601.965 120 601.522 117.329 600.002 115.258C598.483 113.188 596.067 111.965 593.499 111.965H585.465L584.833 110.809C582.853 107.189 578.461 105.646 574.652 107.233L531.142 125.405C529.091 126.262 527.485 127.927 526.702 130.007C525.359 126.568 521.853 124.48 518.19 124.937L510.631 125.881C507.4 126.285 504.729 128.592 503.859 131.73L501.487 140.277L475.136 141.552L464.219 140.945C462.721 140.861 461.23 141.198 459.913 141.917L437.18 129.76L437.039 129.66C436.947 129.594 436.213 129.058 435.959 128.875L435.534 128.575C434.733 128.018 434.056 127.596 433.336 127.248C432.645 126.903 431.906 126.662 431.145 126.533C429.244 126.217 427.211 126.585 425.486 128.267L425.076 128.667L394.956 171.495C393.309 173.44 392.678 176.048 393.254 178.53L396.678 193.318C396.721 193.504 396.771 193.689 396.828 193.872C395.463 195.494 394.792 197.589 394.96 199.702L395.457 205.992L389.777 213.195L382.026 215.608C379.643 216.35 377.738 218.152 376.866 220.49C375.993 222.828 376.252 225.438 377.567 227.559L377.722 227.809C377.409 227.904 377.052 228.014 376.659 228.137L376.554 228.17C375.825 228.398 375.097 228.63 374.371 228.864C371.221 229.913 369.053 232.707 368.821 235.959L367.561 253.593C367.344 256.645 368.871 259.557 371.506 261.113C371.41 261.24 371.3 261.391 371.166 261.573C371.087 261.679 371.007 261.794 370.913 261.929C370.771 262.135 370.586 262.41 370.353 262.76C369.932 263.393 369.345 264.286 368.603 265.423C367.305 267.412 365.557 270.109 363.468 273.344L363.409 273.434C361.12 276.979 358.834 280.525 356.552 284.074L356.077 284.814L355.908 285.076C354.485 287.306 354.237 290.072 355.237 292.502L369.091 326.192C370.455 329.51 373.846 331.528 377.413 331.144L399.111 328.798L400.898 329.328L405.055 368.684C405.149 369.582 404.79 368.609 405.483 370.389L405.625 370.748C406.313 372.445 407.005 374.14 407.699 375.834C408.918 378.806 410.577 382.845 412.568 387.685L412.588 387.736C414.751 392.994 416.916 398.251 419.083 403.508C419.583 404.72 419.583 404.72 419.693 404.99C420.939 408.01 423.882 409.98 427.149 409.981C427.755 409.956 427.755 409.956 427.798 409.948L428.155 409.918C429.792 409.776 431.428 409.633 433.065 409.49L433.085 409.488L436.77 409.165L438.442 409.019C440.409 408.847 442.244 407.959 443.6 406.523L461.024 388.084L469.058 393.44C470.383 394.324 471.939 394.795 473.532 394.795H474.308L475.06 394.603C478.049 393.84 480.297 392.067 481.217 389.178L490.349 360.525C490.986 358.523 490.818 356.351 489.879 354.471L486.414 347.541C484.936 344.59 481.811 342.836 478.523 343.111C475.652 343.355 473.129 345.11 471.901 347.716C471.433 345.49 470.967 343.264 470.501 341.037L491.992 311.849C492.839 310.7 493.365 309.346 493.517 307.927C494.019 307.459 494.459 306.929 494.826 306.35L504.553 291.037L505.903 294.919C507.165 298.545 510.809 300.779 514.613 300.259L514.833 300.229L520.161 316.836C520.753 318.681 521.99 320.252 523.645 321.26L533.887 327.495C536.586 329.138 539.996 329.054 542.61 327.28C545.225 325.505 546.563 322.368 546.033 319.253L543.967 307.085L548.222 303.461L548.337 303.827C549.475 307.43 552.961 309.761 556.726 309.434L556.822 309.426L557.024 310.407C555.406 310.927 553.993 311.945 552.989 313.316C553.067 313.209 551.766 314.872 551.144 315.709C551.001 315.901 550.864 316.089 550.73 316.274C550.077 317.18 549.551 317.976 549.139 318.72C548.801 319.333 548.533 319.917 548.331 320.573C547.757 322.435 547.713 324.289 549.183 326.369L549.253 326.469L567.506 350.254C568.718 351.863 570.63 352.791 572.644 352.747C573.594 352.735 574.528 352.508 575.378 352.083C575.606 351.973 575.828 351.85 576.043 351.717C577.154 352.402 578.414 352.807 579.716 352.897C580.775 353.154 581.832 353.417 582.888 353.687C585.667 354.398 588.444 355.116 591.22 355.841L591.308 355.864L595.754 357.021C597.386 357.446 598.613 357.764 599.656 358.033C600.888 358.351 601.824 358.591 602.495 358.759C602.795 358.834 603.096 358.908 603.397 358.979C603.523 359.009 603.65 359.038 603.777 359.065C604.045 359.129 604.318 359.174 604.593 359.199L602.736 361.259L587.937 363.999C583.671 364.788 580.794 368.809 581.424 373.101L585.834 403.088C586.177 405.424 587.527 407.493 589.527 408.748C591.527 410.003 593.977 410.318 596.23 409.611L620.007 402.125L623.601 402.574L628.328 409.745C629.445 411.44 631.161 412.652 633.132 413.138L656.117 418.806L656.706 418.951L657.311 418.979C660.896 419.144 664.117 417.409 665.503 414.054L675.264 390.44C676.315 387.898 675.997 384.995 674.422 382.74L658.791 360.366L653.118 347.824C651.812 344.937 648.937 343.082 645.768 343.082H640.416C637.976 343.081 635.667 344.185 634.136 346.085L625.522 344.187M638.024 245.053L638.392 245.288C637.973 245.943 637.462 246.534 636.874 247.043M638.024 245.053L636.874 247.043M638.024 245.053L633.188 241.96L627.151 240.653L625.049 250.362L625.123 250.378M636.874 247.043C635.544 249.342 634.211 251.638 632.875 253.933L632.638 254.339L627.303 251.226L626.853 250.753M636.874 247.043C635.101 248.578 632.747 249.265 630.427 248.923L622.364 247.739L628.52 244.867L628.246 245.312L627.523 246.485L625.329 250.045L625.322 250.055L625.123 250.378M626.853 250.753L625.123 250.378M626.853 250.753L631.085 251.67L633.713 246.08L632.039 245.293C629.026 243.877 625.452 244.457 623.042 246.754L626.854 250.753H626.853ZM625.123 250.378C624.217 251.845 623.311 253.311 622.403 254.776L622.18 255.136L622.094 255.271C622.096 255.284 622.096 255.284 621.56 255.994L613.478 265.428M613.478 265.428L614.738 279.873C615.012 283.017 613.428 286.031 610.684 287.589L591.891 298.251L593.945 301.381C595.411 303.613 595.677 306.426 594.655 308.893C597.465 307.406 600.886 307.709 603.392 309.666L607.221 312.656C608.204 313.424 608.995 314.41 609.533 315.536L613.271 318.378C615.478 318.858 617.383 320.241 618.523 322.191C619.662 324.142 619.932 326.481 619.266 328.639L616.928 336.213C617.105 336.313 617.292 336.43 617.495 336.565C618.28 337.088 619.362 337.998 621.042 339.48C622.002 340.327 622.954 341.185 623.808 341.963C624.505 342.598 625.085 343.351 625.522 344.187M613.478 265.428L611.79 267.398L613.253 262.843L613.478 265.428ZM625.522 344.187C626.444 345.949 626.682 347.989 626.19 349.916C626.123 350.178 626.065 350.366 625.982 350.611C625.952 350.699 625.962 350.667 625.972 350.635C626.015 350.498 626.056 350.343 626.094 350.143C626.276 349.198 626.204 348.222 625.887 347.313L620.04 349.303L621.37 343.271L625.522 344.187ZM433.517 136.504L433.459 136.446L433.919 135.587L433.94 135.603L433.517 136.504ZM433.517 136.504L434.11 137.112C433.672 137.539 433.217 137.872 432.754 138.127M433.517 136.504L432.754 138.127M432.754 138.127C432.666 138.175 432.577 138.221 432.487 138.264L431.242 140.594L431.348 140.65C431.406 140.679 431.465 140.708 431.528 140.737L432.754 138.127ZM636.995 224.544L642.688 227.275L644.558 218.638C643.615 217.968 642.896 217.03 642.495 215.945L636.995 224.544ZM629.478 236.297L627.985 238.632C628.895 237.211 630.553 236.455 632.222 236.7L629.478 236.297ZM565.864 302.877L570.827 324.712L571.081 325.311L571.12 325.394C571.286 325.753 571.453 326.112 571.621 326.47L573.047 326.926L568.802 306.357L565.864 302.877ZM583.519 329.703C583.616 329.555 583.723 329.383 583.851 329.179C584.121 328.579 584.239 328.319 584.318 328.072C583.943 329.042 583.239 329.85 582.328 330.352L583.519 329.703ZM598.18 321.27L598.493 321.07C598.359 320.825 598.25 320.568 598.166 320.302C598.052 320.295 597.939 320.284 597.826 320.268L597.761 320.943L598.181 321.27H598.18ZM606.827 328.997L608.142 329.997L608.301 329.047C608.151 328.873 608.016 328.687 607.897 328.491L606.827 328.997ZM604.791 333.649L604.253 335.389L604.263 335.395C604.707 334.255 605.618 333.359 606.765 332.933L606.527 333.019C605.948 333.23 605.37 333.44 604.791 333.649ZM585.597 341.629L584.205 343.137C584.834 344.58 584.622 346.251 583.653 347.491C583.11 348.178 582.362 348.674 581.518 348.908C581.308 348.964 581.163 348.983 581.081 348.987C581.143 348.984 581.282 348.987 581.496 349.003L581.625 349.013L585.507 348.776C587.741 348.596 589.563 348.397 591.685 348.089L602.691 346.489L602.226 345.939L598.864 345.066L594.419 343.909L594.331 343.886C591.421 343.126 588.51 342.374 585.597 341.629ZM611.707 347.732C612.141 347.735 612.499 347.742 612.771 347.753C612.931 347.76 613.029 347.766 613.029 347.766C612.162 347.667 611.736 347.573 610.641 346.843C610.714 346.891 611.125 347.233 611.708 347.733L611.707 347.732ZM613.849 349.615C614.418 350.123 614.973 350.625 615.489 351.095C614.259 349.975 613.788 348.246 614.279 346.657C614.248 346.747 614.209 346.861 614.171 346.985C614.085 347.258 614.015 347.535 613.961 347.816C613.845 348.408 613.807 349.013 613.849 349.615ZM644.121 355.435L644.167 355.125C643.78 354.969 643.418 354.758 643.092 354.498C642.967 354.598 642.838 354.69 642.703 354.775L643.003 355.435H644.121ZM623.417 353.344C623.503 353.156 623.59 352.968 623.679 352.781L623.603 352.925C623.533 353.079 623.533 353.079 622.86 353.979L623.417 353.344ZM605.173 346.694C604.799 346.783 604.424 346.87 604.05 346.957C604.182 346.943 604.484 346.917 605.15 346.861C605.756 346.861 605.838 346.875 606.312 346.974L606.225 346.954C605.873 346.871 605.523 346.784 605.173 346.694ZM558.978 296.838L559.394 297.815L559.082 296.829L558.978 296.838ZM573.701 338.035L572.973 338.858C573.215 338.584 573.489 338.346 573.786 338.146L573.701 338.035ZM561.638 322.316L561.355 321.948C561.036 322.102 560.699 322.215 560.353 322.286C560.364 322.479 560.366 322.673 560.359 322.866L561.052 323.087C561.245 322.828 561.44 322.571 561.638 322.316ZM478.049 358.434L478.829 359.993C478.329 358.993 478.239 357.84 478.578 356.777L478.049 358.434ZM380.947 239.579L380.949 239.549L380.472 239.559L380.947 239.579ZM515.584 135.678L515.665 135.385C515.661 135.38 515.658 135.374 515.655 135.369C515.625 135.449 515.594 135.528 515.56 135.605L515.584 135.678ZM413.477 254.99L415.476 254.365L418.942 255.549C418.965 256.277 418.889 257.005 418.716 257.713L418.116 260.169L417.518 260.514C417.291 260.645 417.059 260.764 416.823 260.872L411.881 259.665L413.477 254.99ZM420.017 255.916L423.455 257.089L420.451 258.822C420.129 257.888 419.982 256.903 420.017 255.916ZM428.123 258.682L428.948 258.964L427.253 258.64L428.123 258.682ZM430.011 258.774L436.703 259.1L438.048 262.845C437.502 263.041 436.937 263.177 436.363 263.252L433.497 263.626C431.757 262.514 430.509 260.778 430.011 258.774ZM443.385 259.426L443.985 259.455L446.251 262.178L442.725 265.171L443.385 259.426ZM420.55 246.089L420.687 243.591L421.773 241.293L426.383 246.71L420.55 246.09V246.089ZM417.771 246.105L420.217 244.694C419.338 245.201 418.667 246.004 418.324 246.959L419.331 244.148C418.767 245.722 419.169 247.479 420.361 248.651L417.771 246.105ZM415.497 202.263L419.809 198.681L420.881 199.971L416.131 203.919L415.497 202.263ZM419.084 196.176L419.906 195.862L418.383 196.707L419.084 196.176ZM424.444 192.116L428.514 189.032L426.707 196.694L424.444 192.116ZM421.148 182.446C421.182 182.176 421.229 181.908 421.29 181.641L427.311 183.02L421.137 182.843L421.148 182.446ZM428.809 179.114L431.925 182.043L431.945 182.092L429.258 184.951L424.757 180.721L428.809 179.114ZM420.607 187.014L422.334 185.044C421.274 186.254 420.979 187.955 421.572 189.45L420.607 187.014ZM397.357 245.628C397.954 245.592 398.554 245.622 399.145 245.718L405.093 246.685L405.421 248.429L399.514 249.539L398.374 243.469L403.507 246.903L399.577 252.777C397.708 250.903 396.878 248.231 397.357 245.628ZM406.73 246.952L412.173 247.838C412.913 247.958 413.633 248.181 414.31 248.499L411.683 254.089L408.327 255.139L405.584 255.147C405.351 254.01 405.366 252.836 405.628 251.705L406.73 246.952ZM412.18 245.405L413.366 245.68L408.951 250L408.234 249.267L412.18 245.405ZM481.437 271.512L481.403 271.462L481.279 271.544L477.363 272.344L477.687 273.934L476.261 274.884L474.445 280.787L482.493 283.262L484.309 277.359L485.331 271.267C484.354 271.103 483.355 271.12 482.384 271.318L481.437 271.512Z" stroke="#18BEF5" stroke-width="12.353"/><path d="M728.7 154.822L693.75 139.708C693.381 139.549 692.971 139.511 692.58 139.6L679.238 142.632L647.305 132.091C646.78 131.918 646.206 131.984 645.734 132.27L636.468 137.884L624.685 135.804C623.836 135.655 622.994 136.098 622.637 136.882L621.595 139.175L619.835 137.475L620.212 133.241C620.256 132.74 620.099 132.241 619.774 131.857C619.45 131.472 618.985 131.232 618.484 131.191L592.634 129.081L595.301 120.598C595.482 120.024 595.378 119.398 595.022 118.913C594.666 118.428 594.101 118.141 593.499 118.141H581.802L579.413 113.771C578.949 112.923 577.919 112.562 577.027 112.934L533.523 131.104C532.889 131.369 532.448 131.957 532.373 132.64L531.978 136.212L522.287 136.241L520.98 132.341C520.694 131.488 519.847 130.955 518.955 131.066L511.398 132.01C510.641 132.105 510.016 132.645 509.812 133.38L506.245 146.231L475.113 147.737L463.876 147.113C462.882 147.059 462.016 147.785 461.896 148.773L461.759 149.909L434.155 135.147C433.442 134.812 430.362 132.14 429.798 132.689L399.793 175.355C399.319 175.816 399.121 176.491 399.271 177.135L402.696 191.925C402.922 192.898 403.866 193.527 404.851 193.361L410.09 192.476L411.714 192.142L411.372 194.715C410.848 194.325 410.161 194.233 409.554 194.471L402.312 197.305C401.537 197.609 401.051 198.383 401.117 199.213L401.806 207.916L393.441 218.524L383.861 221.505C383.303 221.679 382.856 222.101 382.652 222.649C382.448 223.197 382.509 223.808 382.817 224.305L388.665 233.73L380.725 233.387C380.496 233.377 376.268 234.742 376.268 234.742C375.543 234.984 375.035 235.638 374.981 236.4L373.721 254.033C373.685 254.543 373.856 255.045 374.196 255.426C374.537 255.807 375.016 256.034 375.527 256.055L390.249 256.676C390.253 256.676 376.204 265.156 376.204 265.156C375.956 265.306 361.104 288.416 361.104 288.416C360.773 288.935 360.715 289.582 360.949 290.151L374.804 323.843C375.123 324.621 375.918 325.094 376.754 325.003L399.678 322.525L406.607 324.577L411.197 368.035C411.217 368.215 425.404 402.636 425.404 402.636C425.696 403.342 426.384 403.803 427.149 403.804C427.205 403.804 437.903 402.866 437.903 402.866C438.363 402.826 438.793 402.617 439.11 402.281L458.532 381.729C458.929 381.308 459.112 380.728 459.028 380.155L457.246 368.113L466.096 363.181L463.167 380.751C463.045 381.484 463.364 382.221 463.983 382.633L472.484 388.301C472.798 388.511 473.164 388.618 473.532 388.618C474.717 388.316 475.152 387.868 475.332 387.303L484.464 358.649C484.613 358.18 484.574 357.671 484.354 357.23L480.889 350.303C480.542 349.61 479.808 349.198 479.035 349.265C478.263 349.332 477.61 349.864 477.389 350.607L475.839 355.787L467.886 358.491C467.836 358.508 463.89 339.597 463.89 339.597L487.018 308.187C487.477 307.563 487.509 306.722 487.099 306.065C486.688 305.408 485.918 305.068 485.156 305.207C479.76 306.199 473.758 307.222 471.734 307.455C471.381 306.75 488.336 303.89 488.336 303.89C488.862 303.8 489.325 303.491 489.611 303.04L499.561 287.375C500.07 286.573 499.904 285.519 499.175 284.911L490.611 277.771C490.481 277.664 508.325 283.084 508.325 283.084L511.737 292.888C512.033 293.736 512.885 294.259 513.775 294.138L519.133 293.412L526.043 314.949C526.181 315.381 526.471 315.749 526.859 315.986L537.099 322.219C537.731 322.603 538.529 322.583 539.141 322.168C539.753 321.753 540.067 321.018 539.944 320.289L537.29 304.659L551.307 292.719L554.227 301.967C554.494 302.811 555.311 303.357 556.193 303.28L561.76 302.796L564.861 317.821L560.069 316.287C559.295 316.039 558.449 316.314 557.969 316.969C557.489 317.625 553.759 322.141 554.227 322.805L572.432 346.527C572.766 346.999 575.502 343.557 576.078 343.588C576.658 343.619 577.214 343.386 577.596 342.954L582.004 337.97C582.487 337.424 582.613 336.65 582.328 335.979L578.878 327.862L590.796 341.976C587.284 342.487 583.912 342.711 581.949 342.843C580.239 342.717 579.377 342.931 578.786 343.687C578.327 344.275 578.257 345.078 578.607 345.737C578.957 346.395 579.662 346.786 580.406 346.735C580.913 346.7 604.738 353.037 605.149 353.037C605.299 353.037 618.216 349.907 618.216 349.907C618.09 350.05 615.14 356.725 615.14 356.725L605.92 366.951L589.062 370.072C588.062 370.257 587.388 371.199 587.536 372.205L591.945 402.19C592.026 402.737 592.342 403.222 592.811 403.515C593.279 403.809 593.853 403.883 594.381 403.717L619.436 395.829L627.191 396.797L633.485 406.347C633.747 406.743 634.149 407.027 634.61 407.141L657.596 412.808C658.798 412.864 659.497 412.415 659.794 411.696L669.555 388.08C669.801 387.485 669.726 386.805 669.358 386.277L653.4 363.434L647.49 350.37C647.184 349.694 646.51 349.259 645.768 349.259H640.415C639.477 349.259 638.681 349.947 638.545 350.875L637.09 360.829L633.66 357.942L634.985 354.906C635.211 354.388 635.193 353.796 634.937 353.292C634.68 352.789 634.212 352.427 633.66 352.305L620.04 349.303C619.945 349.024 620.12 348.726 620.205 348.391C620.377 347.714 620.163 346.998 619.647 346.527C618.893 345.841 615.082 342.379 614.069 341.705C613.349 341.224 594.435 342.045 593.571 342.098C593.574 342.093 600.391 338.871 600.391 338.871C600.299 339.419 600.454 339.98 600.813 340.404C601.172 340.827 601.699 341.072 602.255 341.072C602.475 341.072 608.916 338.722 608.916 338.722C609.466 338.518 609.891 338.07 610.063 337.509L613.364 326.817C613.567 326.155 613.392 325.435 612.909 324.94C612.425 324.445 611.709 324.255 611.043 324.443L604.135 319.192C604.196 318.55 603.926 317.92 603.417 317.523L599.59 314.533C598.958 314.04 598.084 313.999 597.409 314.431L590.303 318.978L579.371 324.928C578.872 325.2 578.522 325.682 578.418 326.24C578.388 326.4 576.728 322.805 576.728 322.805L574.264 311.965L576.595 314.371C577.268 315.066 578.357 315.14 579.118 314.543L588.367 307.293C589.139 306.687 589.319 305.591 588.781 304.77L580.779 292.574L582.827 290.548L586.019 293.11C586.622 293.594 587.46 293.662 588.134 293.28L607.636 282.217C608.278 281.852 608.65 281.146 608.586 280.41L607.099 263.38L616.869 251.976C616.933 251.901 623.261 241.628 623.261 241.628L627.303 236.4C628.052 236.51 629.411 250.883 629.411 250.883L637.09 233.387V228.992L648.441 205.809C648.674 205.279 648.651 204.672 648.38 204.161C648.109 203.65 647.618 203.292 647.049 203.188L634.872 200.981L647.396 190.563H666.55C667.353 190.563 668.069 190.055 668.334 189.296L671.48 180.276L675.432 182.347L664.647 195.197C664.323 195.582 664.167 196.08 664.212 196.581L665.935 215.659C666.006 216.437 666.548 217.091 667.3 217.305C668.051 217.519 668.857 217.248 669.327 216.624L684.748 196.106C685.201 195.503 685.252 194.687 684.878 194.032L681.608 188.316L686.988 184.366L692.088 187.179C692.721 187.527 693.497 187.484 694.088 187.068L710.148 175.733C710.796 175.275 711.089 174.461 710.881 173.695L708.803 166.022L713.843 163.976L717.947 169.353C718.309 169.827 718.873 170.102 719.469 170.096C720.065 170.09 720.623 169.802 720.975 169.321L729.477 157.67C729.815 157.206 729.924 156.614 729.773 156.06L728.7 154.822ZM413.455 254.466C414.014 254.729 414.667 254.701 415.203 254.392L424.076 249.273C424.464 249.05 424.76 248.695 424.911 248.273L425.919 245.459C426.167 244.766 425.99 243.992 425.465 243.475L420.983 239.07L427.81 239.797L426.964 255.324C426.933 255.885 427.154 256.43 427.566 256.811C427.977 257.193 428.537 257.372 429.094 257.3L436.337 256.355C436.473 256.337 436.606 256.305 436.733 256.259C436.831 257.17 437.569 257.879 438.483 257.941L450.363 258.751L449.633 265.104L427.725 264.037L412.653 258.893L413.487 255.476C413.569 255.139 413.557 254.79 413.455 254.466ZM427.752 188.344C428.219 187.811 428.348 187.062 428.088 186.403L425.53 179.949L428.232 177.074L428.084 182.249C427.987 182.673 428.039 183.119 428.232 183.509L433.017 193.184L422.886 200.86L416.904 203.148L415.831 201.857C415.959 201.769 416.077 201.665 416.181 201.546L427.751 188.344H427.752ZM399.146 242.697L405.053 241.587L404.209 245.953C404.102 246.507 404.247 247.079 404.606 247.514C404.965 247.949 405.5 248.201 406.064 248.201H406.069L411.538 248.184C412.578 248.18 413.42 247.336 413.421 246.295V244.175L414.139 244.909L412.419 252.329C412.341 252.664 412.357 253.004 412.456 253.319C412.297 253.244 412.129 253.192 411.956 253.163L398.926 251.043C398.483 250.971 398.03 251.059 397.646 251.29L390.523 255.587L399.146 242.697ZM479.371 277.625L477.034 274.112L485.082 276.588C484.853 276.55 484.618 276.554 484.391 276.6L479.371 277.625Z" fill="#92D626"/><path d="M616.577 353.489H627.197C629.957 353.489 632.49 354.454 634.479 356.064L633.659 357.942L637.089 360.829L637.299 359.4C638.272 361.131 638.782 363.085 638.779 365.071C638.779 371.467 633.594 376.653 627.197 376.653H639.55C645.947 376.653 651.133 381.836 651.133 388.234C651.133 394.63 645.947 399.815 639.55 399.815H629.18L627.191 396.797L619.436 395.829L606.775 399.815H591.595L587.536 372.205C587.388 371.199 588.062 370.257 589.062 370.072L605.92 366.952L615.14 356.725C615.14 356.725 615.843 355.135 616.577 353.49V353.489Z" fill="#ABD72A"/><path d="M408.933 162.357L429.798 132.689C430.362 132.139 433.442 134.812 434.155 135.147L461.759 149.909L461.895 148.774C462.015 147.786 462.881 147.059 463.875 147.113L475.113 147.737L506.245 146.231L509.812 133.381C510.016 132.646 510.641 132.106 511.398 132.011L518.955 131.066C519.847 130.955 520.694 131.488 520.98 132.341L522.287 136.241L531.978 136.212L532.373 132.64C532.449 131.957 532.889 131.37 533.523 131.105L577.027 112.935C577.919 112.563 578.949 112.924 579.413 113.772L581.802 118.142H593.499C594.1 118.142 594.666 118.429 595.021 118.914C595.377 119.399 595.481 120.024 595.301 120.598L592.634 129.081L618.484 131.191C618.986 131.232 619.45 131.471 619.775 131.856C620.099 132.241 620.257 132.74 620.212 133.241L619.835 137.474L621.595 139.175L622.637 136.882C622.994 136.098 623.836 135.654 624.685 135.803L636.468 137.884L645.734 132.27C646.206 131.984 646.78 131.918 647.305 132.091L679.238 142.632L692.581 139.6C692.973 139.51 693.381 139.55 693.749 139.708L728.7 154.822L729.773 156.059C729.924 156.613 729.815 157.205 729.477 157.669L720.975 169.32C720.623 169.801 720.065 170.089 719.469 170.095C718.873 170.102 718.309 169.827 717.947 169.353L713.844 163.976L708.804 166.022L710.881 173.695C711.089 174.461 710.795 175.275 710.147 175.733L694.089 187.068C693.497 187.485 692.72 187.528 692.087 187.178L686.987 184.366L681.607 188.316L684.878 194.032C685.087 194.397 685.163 194.812 685.112 195.211H664.635L664.647 195.196L675.432 182.347L671.48 180.277L668.334 189.296C668.069 190.055 667.353 190.563 666.55 190.563H647.396L641.808 195.211H605.573C599.18 195.211 593.998 190.027 593.998 183.629C593.998 177.233 599.174 172.048 605.573 172.048H543.048C536.648 172.048 531.458 166.864 531.458 160.467C531.458 156.678 533.278 153.314 536.093 151.201H487.247C490.321 153.047 492.323 156.065 491.785 159.458C492.66 164.152 488.475 168.112 482.431 169.606C482.627 169.922 482.302 170.594 482.431 171.056H493.656C500.904 171.228 506.752 175.756 506.752 181.203C506.752 186.823 500.904 191.35 493.656 191.35H445.014C438.381 191.35 433.371 188.266 431.918 184.102H428.525L428.232 183.51C428.039 183.119 427.986 182.674 428.084 182.249L428.232 177.074L425.53 179.949L427.176 184.102H401.985C401.614 184.101 401.244 184.088 400.875 184.062L399.271 177.134C399.122 176.491 399.32 175.816 399.793 175.355L408.127 163.504C408.677 163.125 408.963 162.702 409.468 162.357H408.933Z" fill="#86CC18"/><path d="M385.864 229.217C387.635 228.18 389.65 227.636 391.703 227.639H395.761C395.123 226.178 394.795 224.6 394.798 223.006C394.798 216.61 399.974 211.425 406.373 211.425H438.8C432.407 211.425 427.225 206.241 427.225 199.843C427.225 198.995 427.316 198.168 427.489 197.371L433.016 193.184L431.761 190.647C433.779 189.096 436.254 188.258 438.8 188.262H573.93C580.322 188.262 585.504 193.446 585.504 199.843C585.504 206.24 580.328 211.425 573.93 211.425H541.502C547.894 211.425 553.076 216.609 553.076 223.006C553.076 229.402 547.9 234.588 541.502 234.588H537.444C538.081 236.049 538.409 237.626 538.407 239.22C538.407 245.616 533.23 250.801 526.832 250.801H427.21L427.81 239.797L420.983 239.07L425.465 243.475C425.99 243.992 426.167 244.766 425.919 245.459L424.911 248.274C424.76 248.695 424.464 249.05 424.076 249.274L421.427 250.801H412.773L414.139 244.909L413.421 244.176V246.296C413.42 247.336 412.578 248.18 411.538 248.184L406.069 248.201H406.064C405.5 248.201 404.966 247.949 404.607 247.514C404.248 247.079 404.102 246.507 404.209 245.953L405.053 241.588L399.146 242.698L393.725 250.801H391.703C385.311 250.801 380.128 245.618 380.128 239.221C380.128 237.111 380.692 235.131 381.676 233.428L388.665 233.73L385.865 229.217H385.864ZM364.453 298.671H397.885C404.282 298.671 409.468 303.855 409.468 310.253C409.468 311.046 409.388 311.821 409.236 312.569H421.048C427.445 312.569 432.631 317.753 432.631 324.15C432.631 330.547 427.445 335.732 421.048 335.732H407.785L406.607 324.577L399.678 322.525L376.754 325.003C375.914 325.093 375.124 324.62 374.804 323.843L364.453 298.671Z" fill="#ABD72A"/><path d="M409.416 351.174H415.645C422.041 351.174 427.226 356.357 427.226 362.755C427.226 364.109 426.994 365.408 426.566 366.615H431.086C437.483 366.615 442.668 371.799 442.668 378.197C442.668 384.593 437.476 389.778 431.087 389.778H426.387C430.081 391.816 432.374 395.702 432.372 399.921C432.372 401.131 432.186 402.299 431.841 403.397C429.413 403.609 427.175 403.804 427.149 403.804C426.384 403.803 425.696 403.342 425.404 402.636C425.404 402.636 411.216 368.215 411.197 368.035L409.417 351.174H409.416Z" fill="#CBD52A"/><path d="M376.749 234.588H438.041C444.434 234.588 449.617 239.771 449.617 246.168C449.617 246.693 449.582 247.208 449.515 247.713H488.991C495.389 247.713 500.575 252.897 500.575 259.295C500.579 262.519 499.237 265.598 496.871 267.788H541.488C547.888 267.788 553.078 272.971 553.078 279.368C553.078 285.765 547.89 290.95 541.488 290.95H511.062L508.325 283.084C508.325 283.084 490.481 277.664 490.611 277.772L499.175 284.912C499.905 285.519 500.07 286.574 499.561 287.375L489.959 302.492C489.641 302.518 489.319 302.532 488.995 302.532H434.945C428.55 302.532 423.365 297.348 423.365 290.95H365.466C363.896 290.952 362.343 290.635 360.9 290.017C360.725 289.48 360.8 288.892 361.104 288.415C361.104 288.415 375.956 265.306 376.204 265.156C376.204 265.156 390.253 256.676 390.249 256.676L375.527 256.055C375.017 256.033 374.537 255.806 374.197 255.425C373.857 255.045 373.686 254.542 373.722 254.033L374.982 236.4C375.036 235.638 375.543 234.984 376.268 234.742L376.748 234.588H376.749ZM413.455 254.466C413.557 254.79 413.569 255.139 413.487 255.476L412.653 258.893L427.725 264.037L449.633 265.104L450.363 258.751L438.483 257.941C437.569 257.879 436.831 257.17 436.733 256.259C436.606 256.305 436.473 256.337 436.337 256.355L429.095 257.3C428.538 257.373 427.977 257.195 427.565 256.813C427.153 256.431 426.933 255.885 426.964 255.324L427.81 239.797L420.983 239.07L425.465 243.475C425.99 243.992 426.167 244.766 425.919 245.459L424.911 248.274C424.76 248.695 424.464 249.05 424.076 249.274L415.203 254.392C414.667 254.701 414.014 254.729 413.455 254.466ZM399.146 242.697L390.523 255.587L397.647 251.29C398.03 251.059 398.484 250.971 398.926 251.043L411.956 253.163C412.13 253.192 412.298 253.244 412.456 253.318C412.355 252.998 412.342 252.656 412.418 252.329L414.138 244.909L413.421 244.176V246.296C413.42 247.336 412.578 248.18 411.538 248.184L406.069 248.201H406.064C405.5 248.201 404.966 247.949 404.607 247.514C404.248 247.079 404.102 246.507 404.209 245.953L405.053 241.588L399.146 242.698V242.697ZM479.371 277.625L484.391 276.6C484.621 276.553 484.855 276.55 485.082 276.588L477.034 274.112L479.371 277.625Z" fill="#D0D52B"/><path d="M618.766 294.652C618.809 294.854 618.838 295.076 618.849 295.332L618.835 294.988L618.765 294.651L618.766 294.652ZM617.946 298.101L617.944 298.104L618.99 299.526C619.391 299.53 619.745 299.539 620.023 299.554C620.201 299.564 620.315 299.574 620.303 299.571C620.082 299.533 619.867 299.471 619.66 299.385C619.25 299.225 618.871 298.996 618.537 298.709C618.321 298.526 618.123 298.323 617.947 298.101H617.946ZM620.413 301.461L621.028 302.299L620.261 300.482C620.315 300.807 620.366 301.134 620.413 301.462V301.461ZM622.309 309.731C622.373 309.689 622.439 309.651 622.506 309.616C622.674 309.527 622.774 309.496 622.796 309.491C622.656 309.517 622.417 309.535 622.081 309.535H621.021C621.485 309.535 621.915 309.605 622.309 309.731ZM616.552 307.837L616.158 305.017L615.935 304.717C615.731 304.446 614.419 302.703 614.013 302.161L613.88 301.981C613.223 301.109 612.58 300.225 611.952 299.331C611.689 298.957 611.438 298.575 611.2 298.185C611.068 297.968 610.947 297.745 610.837 297.517C610.562 296.943 610.394 296.452 610.363 295.673L610.447 295.67C610.457 294.081 610.547 293.949 611.345 292.776C612.112 292.023 612.112 292.023 612.6 291.749C612.97 291.549 613.275 291.442 613.6 291.357C613.855 291.29 614.08 291.251 614.333 291.218C614.621 291.18 614.963 291.151 615.368 291.126C616.204 291.077 617.042 291.048 617.88 291.038C618.86 291.024 619.768 291.035 620.475 291.073C620.95 291.098 621.351 291.135 621.721 291.198C622.082 291.258 622.414 291.34 622.791 291.49C623.209 291.656 623.611 291.875 624.027 292.228C624.367 292.516 624.669 292.856 624.913 293.246L628.471 298.084L628.638 299.084C629.326 303.204 629.498 307.379 629.391 310.941L629.38 311.277C629.47 311.954 629.489 312.494 629.358 313.229C628.77 316.553 625.953 318.029 622.081 318.029H621.021C619.841 318.037 618.711 317.552 617.904 316.69C617.562 316.334 617.283 315.922 617.079 315.472C616.902 315.086 616.773 314.68 616.696 314.262C616.597 313.728 616.548 313.185 616.552 312.642V307.837ZM690.613 434.84C690.828 435.065 691.008 435.298 691.155 435.535L691.185 435.536C691.421 435.546 691.588 435.588 691.669 435.626C691.582 435.586 691.41 435.472 691.166 435.267L690.632 434.819L690.627 434.825L690.613 434.84ZM704.47 415.843L704.473 415.831C704.294 415.578 704.153 415.301 704.054 415.007C703.83 414.397 703.755 413.742 703.835 413.097L703.405 414.871C703.785 415.194 704.109 415.486 704.344 415.717L704.47 415.843ZM705.474 411.253L705.541 411.167L705.666 410.969C705.605 411.066 705.541 411.161 705.474 411.253ZM702.157 420.023L701.98 420.757L702.569 419.408L702.157 420.024V420.023ZM690.842 426.719L694.4 421.563C694.486 421.223 694.599 420.751 694.748 420.118C694.87 419.599 695.633 416.308 695.872 415.293L695.951 414.959C697.408 408.783 697.779 407.364 698.628 406.221C699.563 404.904 700.908 404.423 702.198 404.451C702.723 404.463 703.138 404.555 703.542 404.692C703.884 404.809 704.164 404.942 704.462 405.108C704.788 405.29 705.148 405.52 705.559 405.805C706.378 406.379 707.177 406.982 707.954 407.611C708.865 408.346 709.684 409.057 710.299 409.661C710.725 410.081 711.071 410.463 711.363 410.865C711.646 411.255 711.877 411.656 712.057 412.165C712.393 413.11 712.47 414.161 712.065 415.196L710.058 423.483L709.645 424.105C705.865 429.8 701.548 435.245 697.67 439.681C697.463 439.918 697.255 440.153 697.046 440.387C697.034 440.407 696.992 440.467 696.919 440.574C696.452 441.253 696.093 441.709 695.545 442.224C692.833 444.77 689.109 444.628 685.707 441.773L684.759 440.978C683.401 439.838 683.095 438.442 683.262 437.127C683.322 436.654 683.438 436.274 683.594 435.903C683.744 435.546 683.922 435.223 684.138 434.883C684.445 434.401 684.852 433.858 685.304 433.319L690.842 426.719ZM640.276 340.003L633.848 338.623C631.02 338.016 628.999 335.517 628.999 332.624V326.629C629 324.617 629.987 322.733 631.641 321.587C633.294 320.441 635.405 320.179 637.289 320.884L639.249 321.619C640.964 319.095 644.273 318.214 647.016 319.553L662.201 326.968C663.021 327.368 663.741 327.947 664.309 328.661L674.944 342.028C676.413 343.871 676.696 346.393 675.672 348.516C674.648 350.638 672.499 351.987 670.142 351.985C669.306 351.985 668.475 351.814 667.698 351.476L656.331 346.537L646.376 346.495C644.515 346.488 642.758 345.636 641.599 344.179L641.597 344.177C640.658 342.995 640.188 341.509 640.276 340.003Z" fill="#8EE000" stroke="#18BEF5" stroke-width="8.493"/><path d="M373.654 167.746C373.351 168.011 373.02 168.243 372.668 168.438L364.51 172.971C362.137 174.29 359.164 173.769 357.382 171.721L348.881 161.961C347.507 160.384 347.097 158.185 347.812 156.219L350.332 149.291C351.315 146.586 354.147 145.025 356.959 145.639L363.295 147.019L365.072 144.319C366.052 142.828 367.669 141.876 369.448 141.743C371.228 141.611 372.968 142.312 374.158 143.641L382.058 152.458C384.17 154.816 383.98 158.437 381.632 160.56C380.302 161.763 378.971 162.965 377.64 164.167L377.624 164.181C376.306 165.376 374.983 166.564 373.654 167.746ZM382.067 200.694L379.192 197.854C378.099 196.774 377.484 195.301 377.484 193.764V184.738C377.484 182.163 379.196 179.903 381.674 179.204L389.864 176.894C391.574 176.413 393.41 176.75 394.838 177.805C396.267 178.861 397.127 180.517 397.169 182.293C397.202 183.696 397.236 185.313 397.263 186.929C397.287 188.404 397.302 189.656 397.303 190.642C397.719 191.035 398.267 191.532 398.898 192.082C400.346 193.338 401.827 194.554 403.341 195.729C405.19 197.163 405.985 199.575 405.352 201.828L402.819 210.84C402.261 212.824 400.685 214.358 398.686 214.86L386.108 218.023C384.115 218.526 382.005 217.926 380.575 216.45C379.146 214.975 378.611 212.85 379.173 210.875L382.067 200.695V200.694Z" fill="#86CC18" stroke="#18BEF5" stroke-width="7.721"/><path d="M379.153 199.119L378.386 206.852C378.195 208.78 377.045 210.481 375.329 211.379L369.064 214.654C367.136 215.665 364.802 215.498 363.036 214.224L356.264 209.344C355 208.433 354.159 207.048 353.936 205.506C353.712 203.964 354.124 202.397 355.077 201.164L362.215 191.928C363.859 189.802 366.757 189.098 369.193 190.233L375.86 193.34C378.074 194.371 379.394 196.689 379.153 199.119Z" fill="#86CC18" stroke="#18BEF5" stroke-width="7.721"/><path d="M288.971 278.99L288.183 284.726C287.986 286.156 286.806 287.418 285.042 288.084L278.605 290.513C276.624 291.263 274.226 291.139 272.412 290.194L265.454 286.575C264.155 285.899 263.291 284.872 263.061 283.728C262.831 282.584 263.255 281.422 264.234 280.507L271.568 273.657C273.257 272.079 276.234 271.557 278.738 272.399L285.588 274.704C287.862 275.469 289.219 277.188 288.971 278.99Z" fill="#86CC18" stroke="#18BEF5" stroke-width="7.721"/><path d="M645.99 255.073L644.637 255.875L644.174 256.476L643.818 257.336L646.123 255.768L645.991 255.073H645.99ZM671.674 229.013C671.524 229.043 671.316 229.098 671.062 229.177C670.389 229.384 669.516 229.721 668.504 230.162C668.102 230.337 667.682 230.527 667.248 230.729C666.595 231.034 665.93 231.357 665.269 231.689L667.579 252.155L650.372 262.349L641.04 274.479L636.737 251.88L652.14 241.405L651.702 230.823C651.527 229.638 651.385 228.449 651.276 227.256C651.185 226.275 651.124 225.291 651.093 224.306C651.031 222.215 651.141 220.449 651.513 218.973C652.286 215.917 654.372 213.599 657.909 214.159C659.932 214.479 663.993 216.026 668.478 218.023C670.366 218.863 672.047 219.667 673.154 220.263C673.954 220.695 674.482 221.018 674.957 221.435C675.337 221.769 675.659 222.127 675.96 222.677C676.832 224.273 676.768 226.442 675.028 227.964C674.064 228.807 673.187 229.016 672.226 229.034C672.042 229.038 671.858 229.03 671.674 229.013ZM276.7 117.009C276.512 117.002 276.324 116.991 276.136 116.977C275.399 116.923 274.668 116.803 273.952 116.619C270.862 115.812 268.477 113.781 268.477 110.211C268.477 109.381 268.175 106.411 267.685 102.342L267.535 101.114C267.225 98.599 266.902 96.0857 266.566 93.574C266.184 90.668 267.682 87.464 270.166 85.902L306.206 63.238C308.859 61.57 312.548 61.838 314.932 63.868L331.027 77.578C333.534 79.713 334.22 83.511 332.619 86.395L327.62 95.4C327.333 95.917 326.988 97.189 326.974 97.78L326.195 131.323C326.137 133.833 324.75 136.692 322.813 138.29L311.205 147.87C310.717 148.272 309.895 149.35 309.634 149.928L305.439 159.223C303.606 163.285 298.613 163.913 295.849 160.398L286.141 148.059C284.241 145.643 284.052 141.994 285.694 139.394C285.636 139.485 285.66 139.408 285.671 139.277C285.683 139.145 285.673 139.063 285.713 139.16L276.7 117.01V117.009Z" fill="#92D626" stroke="#18BEF5" stroke-width="8.493"/><path d="M319.668 323.35L339.934 330.943C341.595 331.566 342.905 332.876 343.529 334.536C344.15 336.189 344.033 338.029 343.206 339.589C324.846 374.234 316.52 389.923 316.232 390.379C315.956 390.814 306.456 403.589 286.198 430.805L289.209 450.59C289.553 452.848 288.619 455.111 286.782 456.469C284.932 457.835 282.473 458.05 280.415 457.025L263.265 448.49C260.975 447.347 259.631 444.905 259.892 442.358L266.57 376.827L248.83 340.35C248.138 338.926 248.02 337.291 248.501 335.783L253.814 319.127L250.42 318.694C249.283 318.548 248.209 318.087 247.321 317.361L208.403 285.576L204.474 286.998C201.644 288.021 198.49 286.838 197.031 284.206L175.303 245.11C174.759 244.131 174.493 243.022 174.532 241.903L175.34 218.836L153.207 191.581L139.554 185.301L115.006 208.854C113.636 210.171 111.732 210.777 109.853 210.495C107.973 210.213 106.331 209.075 105.408 207.414L102.576 202.34C101.354 200.154 101.578 197.446 103.141 195.49L109.061 188.086L103.31 181.493C101.879 179.852 101.421 177.576 102.105 175.509L105.131 166.364L99.7379 163.546C97.4332 162.339 96.1368 159.812 96.4999 157.236L98.4139 143.596C98.6793 141.697 99.8153 140.03 101.486 139.089L117.833 129.889C119.124 129.161 120.636 128.926 122.087 129.229L158.743 136.86L171.803 133.285C173.377 132.853 175.058 133.067 176.473 133.88L177.437 134.434C179.185 133.017 181.569 132.673 183.647 133.537L204.061 142.033L222.015 140.893L221.831 140.661C219.911 138.234 220.089 134.759 222.247 132.541C222.627 132.15 223.009 131.762 223.394 131.376C224.217 130.549 225.052 129.723 225.856 128.948C228.035 126.846 229.159 125.853 230.283 125.13C232.175 123.914 234.137 123.577 236.173 124.321C237.728 124.892 238.99 126.06 239.681 127.565C240.365 128.539 242.897 131.678 246.183 135.631C247.247 134.118 248.939 133.166 250.785 133.042C252.631 132.917 254.434 133.634 255.692 134.991L262.934 142.804C265.061 145.103 265.126 148.631 263.084 151.006L239.934 177.907L241.614 183.815L254.638 191.292L252.106 187.567C251.536 186.722 250.978 185.868 250.432 185.007C250.059 184.423 249.701 183.829 249.357 183.227C249.17 182.897 249.017 182.603 248.89 182.326C248.79 182.109 248.703 181.887 248.63 181.66C248.422 181.06 248.352 180.42 248.426 179.789L248.483 179.249L252.763 167.864C253.13 166.202 254.17 164.767 255.635 163.9C257.318 162.904 259.375 162.772 261.171 163.544L279.27 171.32C280.091 171.673 280.825 172.201 281.42 172.867C282.74 171.678 284.511 171.121 286.274 171.342C288.585 171.631 290.534 173.204 291.305 175.402L296.985 191.569L308.602 202.458C311.042 204.748 311.208 208.567 308.975 211.06L300.157 220.896C298.994 222.193 297.335 222.934 295.594 222.934H293.535L295.677 224.456C297.271 225.589 298.231 227.411 298.265 229.366C298.3 231.319 297.405 233.173 295.855 234.361L287.983 240.389C286.458 241.557 284.474 241.942 282.623 241.429L281.044 240.992L267.552 262.305L265.805 280.198C265.501 283.344 262.859 285.746 259.698 285.749H254.031C253.571 285.749 253.121 285.699 252.687 285.601C252.616 286.484 252.356 287.341 251.924 288.114L249.621 292.234L255.827 301.081L272.608 295.638C274.36 295.07 276.274 295.32 277.821 296.32L319.668 323.35Z" fill="#8EE000" stroke="#18BEF5" stroke-width="8.493"/><path d="M317.75 327.166L275.517 299.887C275.043 299.58 274.456 299.503 273.919 299.677L254.153 306.087L244.613 292.491L248.217 286.042C248.538 285.467 248.541 284.767 248.225 284.189C247.911 283.613 247.32 283.241 246.665 283.207L233.415 282.537C240.239 278.077 246.835 273.85 249.587 272.234C250.303 273.962 251.393 277.274 252.217 280.13C252.448 280.941 253.188 281.501 254.031 281.503H259.698C260.67 281.503 261.483 280.76 261.578 279.786L263.424 260.886L279.142 236.058L283.758 237.337C284.325 237.494 284.934 237.375 285.401 237.017L293.273 230.99C293.754 230.622 294.031 230.047 294.021 229.441C294.01 228.835 293.713 228.27 293.219 227.919L286.225 222.949L286.612 218.688H295.594C296.128 218.688 296.638 218.459 296.996 218.06L305.813 208.225C306.505 207.453 306.453 206.265 305.697 205.555L293.323 193.957L287.299 176.81C287.782 176.072 287.689 175.098 287.074 174.465C286.459 173.833 285.487 173.712 284.736 174.175C283.985 174.637 283.656 175.559 283.944 176.393L279.82 182.654L278.71 176.625C278.596 176 278.177 175.474 277.594 175.222L259.494 167.446C258.943 167.209 258.312 167.25 257.797 167.556C257.281 167.861 256.938 168.395 256.875 168.996L250.007 180.234C249.96 180.684 255.367 184.809 255.62 185.183L260.956 193.035L258.193 204.144L256.043 197.561C255.897 197.114 255.591 196.737 255.184 196.502L239.698 186.682L235.223 176.87L259.866 148.236C260.499 147.499 260.479 146.404 259.82 145.69L252.577 137.878C252.146 137.411 251.509 137.193 250.882 137.299C250.255 137.404 249.725 137.819 249.471 138.402L247.225 143.48C241.896 137.184 236.664 130.81 235.905 129.548C235.718 128.975 235.28 128.519 234.715 128.309C233.384 127.823 232.321 128.612 228.805 132.004C227.025 133.72 225.358 135.433 225.287 135.504C224.618 136.193 224.564 137.271 225.16 138.024L230.38 144.618L203.343 146.334L182.016 137.457C181.118 137.085 180.084 137.457 179.63 138.317L178.704 140.057L174.358 137.563C173.925 137.314 173.41 137.248 172.928 137.38L158.878 141.226L121.221 133.386C120.776 133.293 120.313 133.366 119.918 133.589L103.568 142.789C103.053 143.079 102.702 143.596 102.619 144.185L100.706 157.827C100.593 158.627 100.995 159.411 101.706 159.783L110.296 164.273L106.136 176.843C105.924 177.485 106.066 178.193 106.51 178.701L114.592 187.968L106.458 198.141C105.973 198.749 105.904 199.589 106.283 200.268L109.116 205.344C109.399 205.856 109.903 206.207 110.481 206.294C111.059 206.381 111.645 206.195 112.066 205.789L138.701 180.234L155.881 188.136L179.639 217.394L178.776 242.052C178.763 242.4 178.846 242.745 179.016 243.049L200.743 282.143C201.19 282.953 202.16 283.318 203.03 283.004L209.223 280.764L250.007 314.072C250.28 314.295 250.61 314.437 250.959 314.482L259.409 315.56L252.547 337.073C252.397 337.543 252.434 338.051 252.649 338.493L270.917 376.055L264.117 442.788C264.036 443.579 264.452 444.337 265.159 444.689L282.307 453.223C282.938 453.537 283.692 453.471 284.259 453.053C284.829 452.631 285.118 451.929 285.011 451.228L281.733 429.692C295.834 410.749 312.433 388.439 312.647 388.102C312.863 387.762 327.343 360.452 339.453 337.601C339.71 337.116 339.746 336.544 339.553 336.03C339.361 335.518 338.957 335.113 338.445 334.92L317.749 327.166H317.75Z" fill="#8EE000"/><path d="M118.993 199.144L112.066 205.79C111.645 206.196 111.059 206.382 110.481 206.295C109.903 206.207 109.398 205.856 109.116 205.344L106.283 200.268C106.092 199.926 106.01 199.534 106.049 199.144H118.993Z" fill="#86CC18"/><path d="M166.883 201.686L155.88 188.136L138.701 180.234L116.343 201.686H107.073L106.283 200.268C105.903 199.59 105.973 198.748 106.458 198.141L114.592 187.968L106.51 178.701C106.066 178.191 105.924 177.485 106.137 176.843L110.296 164.273L101.706 159.783C100.993 159.408 100.593 158.625 100.706 157.827L102.619 144.185C102.701 143.597 103.052 143.081 103.569 142.79L119.918 133.59C120.313 133.367 120.776 133.294 121.221 133.387L158.879 141.227L172.928 137.38C173.41 137.248 173.925 137.314 174.358 137.563L178.704 140.058L179.63 138.318C180.084 137.458 181.118 137.086 182.016 137.458L203.343 146.334L230.38 144.618L225.16 138.024C224.564 137.271 224.619 136.193 225.287 135.504C225.357 135.433 227.025 133.72 228.804 132.004C232.321 128.612 233.384 127.824 234.714 128.309C235.283 128.517 235.717 128.979 235.906 129.548C236.664 130.809 241.896 137.184 247.225 143.48L249.471 138.402C249.724 137.819 250.256 137.403 250.882 137.298C251.509 137.192 252.147 137.41 252.578 137.878L259.82 145.69C260.48 146.402 260.5 147.5 259.866 148.236L235.223 176.87L239.698 186.681L255.184 196.502C255.592 196.737 255.899 197.114 256.044 197.562L258.194 204.144L260.956 193.035L255.62 185.183C255.367 184.809 249.96 180.685 250.007 180.234L256.875 168.995C256.938 168.395 257.281 167.861 257.797 167.555C258.313 167.249 258.944 167.208 259.495 167.445L277.594 175.222C278.175 175.472 278.594 175.999 278.71 176.625L279.82 182.655L283.944 176.393C284.338 175.792 285.039 175.468 285.751 175.556C286.464 175.645 287.064 176.131 287.299 176.81L292.962 192.929L292.688 193.193H293.055L293.323 193.957L305.697 205.556C306.453 206.264 306.505 207.453 305.813 208.226L296.996 218.06C296.638 218.46 296.128 218.688 295.594 218.688H286.612L286.225 222.949L293.219 227.919C293.713 228.27 294.01 228.835 294.021 229.441C294.032 230.047 293.754 230.622 293.273 230.99L285.401 237.017C284.934 237.375 284.326 237.494 283.758 237.337L279.142 236.057L275.485 241.835H269.841C264.941 241.835 260.967 237.849 260.967 232.955C260.967 230.355 262.086 228.017 263.867 226.393H246.679C241.778 226.393 237.805 222.407 237.805 217.513C237.805 214.913 238.923 212.575 240.704 210.951H231.237C226.336 210.951 222.363 206.966 222.363 202.071C222.363 201.942 222.366 201.814 222.371 201.686H166.883Z" fill="#86CC18"/><path d="M187.44 258.207L179.015 243.049C178.846 242.745 178.763 242.4 178.775 242.052L179.639 217.394L167.51 202.458H186.193C191.531 202.458 195.492 206.415 195.063 211.327C195.492 212.657 195.155 213.989 195.063 215.128H209C213.8 215.171 217.76 219.128 217.869 223.998C217.76 225.371 217.423 226.703 216.602 227.798H225.471C229.705 227.885 233.666 231.842 233.073 236.668C233.666 240.77 230.831 244.231 226.738 245.537C226.871 245.813 226.651 246.401 226.738 246.804H234.34C239.249 246.954 243.21 250.912 243.21 255.673C243.21 260.585 239.249 264.543 234.34 264.543H201.397C196.905 264.543 193.512 261.846 192.528 258.207H187.44Z" fill="#D2D62B"/><path d="M329.593 356.203C328.863 356.376 328.113 356.468 327.348 356.473H297.573C296.128 362.756 291.144 366.607 284.546 366.607H266.322L252.649 338.494C252.434 338.051 252.397 337.543 252.547 337.074L259.409 315.56L250.959 314.482C250.609 314.437 250.28 314.295 250.007 314.072L241.473 307.102C243.551 304.709 246.327 303.226 249.188 303.158H252.098L254.153 306.088L273.919 299.678C274.456 299.504 275.043 299.581 275.517 299.888L317.749 327.166L338.445 334.92C338.957 335.111 339.361 335.516 339.554 336.03C339.747 336.543 339.71 337.115 339.454 337.6L329.593 356.203Z" fill="#86CC18"/><path d="M327.966 359.272H314.623C309.722 359.272 305.749 355.287 305.749 350.392C305.749 345.489 309.727 341.514 314.623 341.514H304.585C299.685 341.514 295.712 337.529 295.712 332.634C295.712 327.731 299.69 323.756 304.585 323.756H312.47L317.75 327.166L338.445 334.92C338.957 335.111 339.361 335.516 339.554 336.03C339.747 336.544 339.71 337.115 339.454 337.6C335.687 344.708 331.691 352.247 327.966 359.272Z" fill="#ABD72A"/><path d="M268.575 399.035L270.917 376.055L258.437 350.393H269.08C273.98 350.393 277.953 354.378 277.953 359.272C277.953 361.872 276.835 364.211 275.055 365.835H284.521C289.422 365.835 293.395 369.82 293.395 374.714C293.395 379.618 289.417 383.593 284.521 383.593H279.686C281.535 385.274 282.588 387.657 282.586 390.156C282.586 395.059 278.608 399.035 273.712 399.035H268.575Z" fill="#D2D62B"/><path d="M179.58 219.058L179.64 217.394L166.57 201.3H204.224C209.124 201.3 213.098 205.285 213.098 210.179C213.098 215.083 209.119 219.058 204.224 219.058H179.58Z" fill="#ABD72A"/><path d="M577.14 304.953C580.765 304.953 583.703 303.743 583.703 302.251C583.703 300.759 580.765 299.549 577.14 299.549C573.516 299.549 570.577 300.759 570.577 302.251C570.577 303.743 573.516 304.953 577.14 304.953Z" fill="#4C4C4C" fill-opacity="0.2"/><path d="M577.085 301.314C577.085 301.314 583.703 294.094 583.703 290.724C583.703 287.759 580.592 284.107 577.085 284.107C572.915 284.107 569.805 287.757 569.805 290.725C569.805 294.093 577.085 301.314 577.085 301.314Z" fill="white"/><path d="M577.455 336.469C581.08 336.469 584.018 335.259 584.018 333.767C584.018 332.275 581.08 331.065 577.455 331.065C573.83 331.065 570.892 332.275 570.892 333.767C570.892 335.259 573.83 336.469 577.455 336.469Z" fill="#4C4C4C" fill-opacity="0.2"/><path d="M577.4 332.83C577.4 332.83 584.018 325.61 584.018 322.24C584.018 319.275 580.907 315.623 577.4 315.623C573.23 315.623 570.12 319.273 570.12 322.241C570.12 325.609 577.4 332.83 577.4 332.83Z" fill="white"/><path d="M592.455 348.469C596.08 348.469 599.018 347.259 599.018 345.767C599.018 344.275 596.08 343.065 592.455 343.065C588.83 343.065 585.892 344.275 585.892 345.767C585.892 347.259 588.83 348.469 592.455 348.469Z" fill="#4C4C4C" fill-opacity="0.2"/><path d="M592.4 344.83C592.4 344.83 599.018 337.61 599.018 334.24C599.018 331.275 595.907 327.623 592.4 327.623C588.23 327.623 585.12 331.273 585.12 334.241C585.12 337.609 592.4 344.83 592.4 344.83Z" fill="white"/><path d="M630.455 388.469C634.08 388.469 637.018 387.259 637.018 385.767C637.018 384.275 634.08 383.065 630.455 383.065C626.83 383.065 623.892 384.275 623.892 385.767C623.892 387.259 626.83 388.469 630.455 388.469Z" fill="#4C4C4C" fill-opacity="0.2"/><path d="M630.4 384.83C630.4 384.83 637.018 377.61 637.018 374.24C637.018 371.275 633.907 367.623 630.4 367.623C626.23 367.623 623.12 371.273 623.12 374.241C623.12 377.609 630.4 384.83 630.4 384.83Z" fill="white"/><path d="M532.358 310.357C535.983 310.357 538.921 309.148 538.921 307.655C538.921 306.163 535.983 304.953 532.358 304.953C528.734 304.953 525.795 306.163 525.795 307.655C525.795 309.148 528.734 310.357 532.358 310.357Z" fill="#4C4C4C" fill-opacity="0.2"/><path d="M532.303 306.718C532.303 306.718 538.921 299.498 538.921 296.128C538.921 293.163 535.81 289.511 532.303 289.511C528.133 289.511 525.023 293.161 525.023 296.129C525.023 299.497 532.303 306.718 532.303 306.718Z" fill="white"/><path d="M510.74 281.79C514.365 281.79 517.303 280.581 517.303 279.088C517.303 277.596 514.365 276.386 510.74 276.386C507.115 276.386 504.177 277.596 504.177 279.088C504.177 280.581 507.115 281.79 510.74 281.79Z" fill="#4C4C4C" fill-opacity="0.2"/><path d="M510.685 278.151C510.685 278.151 517.303 270.931 517.303 267.561C517.303 264.596 514.192 260.944 510.685 260.944C506.515 260.944 503.405 264.594 503.405 267.562C503.405 270.93 510.685 278.151 510.685 278.151Z" fill="white"/><path d="M279.884 424.627C283.509 424.627 286.447 423.418 286.447 421.925C286.447 420.433 283.509 419.223 279.884 419.223C276.259 419.223 273.321 420.433 273.321 421.925C273.321 423.418 276.259 424.627 279.884 424.627Z" fill="#4C4C4C" fill-opacity="0.2"/><path d="M279.829 420.988C279.829 420.988 286.447 413.768 286.447 410.398C286.447 407.433 283.336 403.781 279.829 403.781C275.659 403.781 272.549 407.431 272.549 410.399C272.549 413.767 279.829 420.988 279.829 420.988Z" fill="white"/><path d="M424.316 223.883C427.941 223.883 430.879 222.674 430.879 221.181C430.879 219.689 427.941 218.479 424.316 218.479C420.692 218.479 417.753 219.689 417.753 221.181C417.753 222.674 420.692 223.883 424.316 223.883Z" fill="#4C4C4C" fill-opacity="0.2"/><path d="M424.261 220.244C424.261 220.244 430.879 213.024 430.879 209.654C430.879 206.689 427.768 203.037 424.261 203.037C420.091 203.037 416.981 206.687 416.981 209.655C416.981 213.023 424.261 220.244 424.261 220.244Z" fill="white"/><path d="M441.316 212.883C444.941 212.883 447.879 211.674 447.879 210.181C447.879 208.689 444.941 207.479 441.316 207.479C437.692 207.479 434.753 208.689 434.753 210.181C434.753 211.674 437.692 212.883 441.316 212.883Z" fill="#4C4C4C" fill-opacity="0.2"/><path d="M441.261 209.244C441.261 209.244 447.879 202.024 447.879 198.654C447.879 195.689 444.768 192.037 441.261 192.037C437.091 192.037 433.981 195.687 433.981 198.655C433.981 202.023 441.261 209.244 441.261 209.244Z" fill="white"/><path d="M428.67 236.781C432.295 236.781 435.233 235.571 435.233 234.079C435.233 232.587 432.295 231.377 428.67 231.377C425.046 231.377 422.107 232.587 422.107 234.079C422.107 235.571 425.046 236.781 428.67 236.781Z" fill="#4C4C4C" fill-opacity="0.2"/><path d="M428.615 233.142C428.615 233.142 435.233 225.922 435.233 222.552C435.233 219.587 432.122 215.935 428.615 215.935C424.445 215.935 421.335 219.585 421.335 222.553C421.335 225.921 428.615 233.142 428.615 233.142Z" fill="white"/><path d="M408.33 227.009C411.955 227.009 414.893 225.799 414.893 224.307C414.893 222.815 411.955 221.605 408.33 221.605C404.705 221.605 401.767 222.815 401.767 224.307C401.767 225.799 404.705 227.009 408.33 227.009Z" fill="#4C4C4C" fill-opacity="0.2"/><path d="M408.275 223.37C408.275 223.37 414.893 216.15 414.893 212.78C414.893 209.815 411.782 206.163 408.275 206.163C404.105 206.163 400.995 209.813 400.995 212.781C400.995 216.149 408.275 223.37 408.275 223.37Z" fill="white"/><path d="M412.33 240.009C415.955 240.009 418.893 238.799 418.893 237.307C418.893 235.815 415.955 234.605 412.33 234.605C408.705 234.605 405.767 235.815 405.767 237.307C405.767 238.799 408.705 240.009 412.33 240.009Z" fill="#4C4C4C" fill-opacity="0.2"/><path d="M412.275 236.37C412.275 236.37 418.893 229.15 418.893 225.78C418.893 222.815 415.782 219.163 412.275 219.163C408.105 219.163 404.995 222.813 404.995 225.781C404.995 229.149 412.275 236.37 412.275 236.37Z" fill="white"/><path d="M394.33 239.009C397.955 239.009 400.893 237.799 400.893 236.307C400.893 234.815 397.955 233.605 394.33 233.605C390.705 233.605 387.767 234.815 387.767 236.307C387.767 237.799 390.705 239.009 394.33 239.009Z" fill="#4C4C4C" fill-opacity="0.2"/><path d="M394.275 235.37C394.275 235.37 400.893 228.15 400.893 224.78C400.893 221.815 397.782 218.163 394.275 218.163C390.105 218.163 386.995 221.813 386.995 224.781C386.995 228.149 394.275 235.37 394.275 235.37Z" fill="white"/><path d="M415.67 249.781C419.295 249.781 422.233 248.571 422.233 247.079C422.233 245.587 419.295 244.377 415.67 244.377C412.046 244.377 409.107 245.587 409.107 247.079C409.107 248.571 412.046 249.781 415.67 249.781Z" fill="#4C4C4C" fill-opacity="0.2"/><path d="M415.615 246.142C415.615 246.142 422.233 238.922 422.233 235.552C422.233 232.587 419.122 228.935 415.615 228.935C411.445 228.935 408.335 232.585 408.335 235.553C408.335 238.921 415.615 246.142 415.615 246.142Z" fill="white"/><path d="M446.655 277.157C450.28 277.157 453.218 275.947 453.218 274.455C453.218 272.963 450.28 271.753 446.655 271.753C443.031 271.753 440.092 272.963 440.092 274.455C440.092 275.947 443.031 277.157 446.655 277.157Z" fill="#4C4C4C" fill-opacity="0.2"/><path d="M446.6 273.518C446.6 273.518 453.218 266.298 453.218 262.928C453.218 259.963 450.107 256.311 446.6 256.311C442.43 256.311 439.32 259.961 439.32 262.929C439.32 266.297 446.6 273.518 446.6 273.518Z" fill="white"/><path d="M446.655 251.157C450.28 251.157 453.218 249.947 453.218 248.455C453.218 246.963 450.28 245.753 446.655 245.753C443.031 245.753 440.092 246.963 440.092 248.455C440.092 249.947 443.031 251.157 446.655 251.157Z" fill="#4C4C4C" fill-opacity="0.2"/><path d="M446.6 247.518C446.6 247.518 453.218 240.298 453.218 236.928C453.218 233.963 450.107 230.311 446.6 230.311C442.43 230.311 439.32 233.961 439.32 236.929C439.32 240.297 446.6 247.518 446.6 247.518Z" fill="white"/><path d="M456.655 257.157C460.28 257.157 463.218 255.947 463.218 254.455C463.218 252.963 460.28 251.753 456.655 251.753C453.031 251.753 450.092 252.963 450.092 254.455C450.092 255.947 453.031 257.157 456.655 257.157Z" fill="#4C4C4C" fill-opacity="0.2"/><path d="M456.6 253.518C456.6 253.518 463.218 246.298 463.218 242.928C463.218 239.963 460.107 236.311 456.6 236.311C452.43 236.311 449.32 239.961 449.32 242.929C449.32 246.297 456.6 253.518 456.6 253.518Z" fill="white"/><path d="M464.655 327.157C468.28 327.157 471.218 325.947 471.218 324.455C471.218 322.963 468.28 321.753 464.655 321.753C461.031 321.753 458.092 322.963 458.092 324.455C458.092 325.947 461.031 327.157 464.655 327.157Z" fill="#4C4C4C" fill-opacity="0.2"/><path d="M464.6 323.518C464.6 323.518 471.218 316.298 471.218 312.928C471.218 309.963 468.107 306.311 464.6 306.311C460.43 306.311 457.32 309.961 457.32 312.929C457.32 316.297 464.6 323.518 464.6 323.518Z" fill="white"/><path d="M386.572 256.185C390.197 256.185 393.135 254.975 393.135 253.483C393.135 251.991 390.197 250.781 386.572 250.781C382.947 250.781 380.009 251.991 380.009 253.483C380.009 254.975 382.947 256.185 386.572 256.185Z" fill="#4C4C4C" fill-opacity="0.2"/><path d="M386.517 251.002C386.517 251.002 393.135 243.782 393.135 240.412C393.135 237.447 390.024 233.795 386.517 233.795C382.347 233.795 379.237 237.445 379.237 240.413C379.237 243.781 386.517 251.002 386.517 251.002Z" fill="white"/><path d="M265.215 328.888C268.84 328.888 271.778 327.679 271.778 326.186C271.778 324.694 268.84 323.484 265.215 323.484C261.59 323.484 258.652 324.694 258.652 326.186C258.652 327.679 261.59 328.888 265.215 328.888Z" fill="#4C4C4C" fill-opacity="0.2"/><path d="M265.16 325.249C265.16 325.249 271.778 318.029 271.778 314.659C271.778 311.694 268.667 308.042 265.16 308.042C260.99 308.042 257.88 311.692 257.88 314.66C257.88 318.028 265.16 325.249 265.16 325.249Z" fill="white"/><path d="M256.758 234.692C260.383 234.692 263.321 233.482 263.321 231.99C263.321 230.498 260.383 229.288 256.758 229.288C253.133 229.288 250.195 230.498 250.195 231.99C250.195 233.482 253.133 234.692 256.758 234.692Z" fill="#4C4C4C" fill-opacity="0.2"/><path d="M256.703 231.053C256.703 231.053 263.321 223.833 263.321 220.463C263.321 217.498 260.21 213.846 256.703 213.846C252.533 213.846 249.423 217.496 249.423 220.464C249.423 223.832 256.703 231.053 256.703 231.053Z" fill="white"/><path d="M276.758 284.692C280.383 284.692 283.321 283.482 283.321 281.99C283.321 280.498 280.383 279.288 276.758 279.288C273.133 279.288 270.195 280.498 270.195 281.99C270.195 283.482 273.133 284.692 276.758 284.692Z" fill="#4C4C4C" fill-opacity="0.2"/><path d="M276.703 281.053C276.703 281.053 283.321 273.833 283.321 270.463C283.321 267.498 280.21 263.846 276.703 263.846C272.533 263.846 269.423 267.496 269.423 270.464C269.423 273.832 276.703 281.053 276.703 281.053Z" fill="white"/><path d="M226.558 262.678C230.183 262.678 233.121 261.469 233.121 259.976C233.121 258.484 230.183 257.274 226.558 257.274C222.933 257.274 219.995 258.484 219.995 259.976C219.995 261.469 222.933 262.678 226.558 262.678Z" fill="#4C4C4C" fill-opacity="0.2"/><path d="M226.503 259.811C226.503 259.811 233.121 252.591 233.121 249.221C233.121 246.256 230.01 242.604 226.503 242.604C222.333 242.604 219.223 246.254 219.223 249.222C219.223 252.59 226.503 259.811 226.503 259.811Z" fill="white"/><path d="M189.558 247.678C193.183 247.678 196.121 246.469 196.121 244.976C196.121 243.484 193.183 242.274 189.558 242.274C185.933 242.274 182.995 243.484 182.995 244.976C182.995 246.469 185.933 247.678 189.558 247.678Z" fill="#4C4C4C" fill-opacity="0.2"/><path d="M189.503 244.811C189.503 244.811 196.121 237.591 196.121 234.221C196.121 231.256 193.01 227.604 189.503 227.604C185.333 227.604 182.223 231.254 182.223 234.222C182.223 237.59 189.503 244.811 189.503 244.811Z" fill="#9069CD"/><path d="M259.558 252.678C263.183 252.678 266.121 251.469 266.121 249.976C266.121 248.484 263.183 247.274 259.558 247.274C255.933 247.274 252.995 248.484 252.995 249.976C252.995 251.469 255.933 252.678 259.558 252.678Z" fill="#4C4C4C" fill-opacity="0.2"/><path d="M259.503 249.811C259.503 249.811 266.121 242.591 266.121 239.221C266.121 236.256 263.01 232.604 259.503 232.604C255.333 232.604 252.223 236.254 252.223 239.222C252.223 242.59 259.503 249.811 259.503 249.811Z" fill="#9069CD"/><path d="M250.558 259.678C254.183 259.678 257.121 258.469 257.121 256.976C257.121 255.484 254.183 254.274 250.558 254.274C246.933 254.274 243.995 255.484 243.995 256.976C243.995 258.469 246.933 259.678 250.558 259.678Z" fill="#4C4C4C" fill-opacity="0.2"/><path d="M250.503 256.811C250.503 256.811 257.121 249.591 257.121 246.221C257.121 243.256 254.01 239.604 250.503 239.604C246.333 239.604 243.223 243.254 243.223 246.222C243.223 249.59 250.503 256.811 250.503 256.811Z" fill="#4B4B4B"/><path d="M247.455 314.99C251.08 314.99 254.018 313.78 254.018 312.288C254.018 310.796 251.08 309.586 247.455 309.586C243.83 309.586 240.892 310.796 240.892 312.288C240.892 313.78 243.83 314.99 247.455 314.99Z" fill="#4C4C4C" fill-opacity="0.2"/><path d="M247.4 311.351C247.4 311.351 254.018 304.131 254.018 300.761C254.018 297.796 250.907 294.144 247.4 294.144C243.23 294.144 240.12 297.794 240.12 300.762C240.12 304.13 247.4 311.351 247.4 311.351Z" fill="white"/><path d="M231.455 298.99C235.08 298.99 238.018 297.78 238.018 296.288C238.018 294.796 235.08 293.586 231.455 293.586C227.83 293.586 224.892 294.796 224.892 296.288C224.892 297.78 227.83 298.99 231.455 298.99Z" fill="#4C4C4C" fill-opacity="0.2"/><path d="M231.4 295.351C231.4 295.351 238.018 288.131 238.018 284.761C238.018 281.796 234.907 278.144 231.4 278.144C227.23 278.144 224.12 281.794 224.12 284.762C224.12 288.13 231.4 295.351 231.4 295.351Z" fill="white"/><path d="M273.455 307.99C277.08 307.99 280.018 306.78 280.018 305.288C280.018 303.796 277.08 302.586 273.455 302.586C269.83 302.586 266.892 303.796 266.892 305.288C266.892 306.78 269.83 307.99 273.455 307.99Z" fill="#4C4C4C" fill-opacity="0.2"/><path d="M273.4 304.351C273.4 304.351 280.018 297.131 280.018 293.761C280.018 290.796 276.907 287.144 273.4 287.144C269.23 287.144 266.12 290.794 266.12 293.762C266.12 297.13 273.4 304.351 273.4 304.351Z" fill="white"/><path d="M299.186 362.088C302.811 362.088 305.749 360.878 305.749 359.386C305.749 357.894 302.811 356.684 299.186 356.684C295.561 356.684 292.623 357.894 292.623 359.386C292.623 360.878 295.561 362.088 299.186 362.088Z" fill="#4C4C4C" fill-opacity="0.2"/><path d="M299.131 358.449C299.131 358.449 305.749 351.229 305.749 347.859C305.749 344.894 302.638 341.242 299.131 341.242C294.961 341.242 291.851 344.892 291.851 347.86C291.851 351.228 299.131 358.449 299.131 358.449Z" fill="white"/><path d="M655.893 249.362C659.518 249.362 662.456 248.152 662.456 246.66C662.456 245.168 659.518 243.958 655.893 243.958C652.268 243.958 649.33 245.168 649.33 246.66C649.33 248.152 652.268 249.362 655.893 249.362Z" fill="#4C4C4C" fill-opacity="0.2"/><path d="M655.838 244.179C655.838 244.179 662.456 236.959 662.456 233.589C662.456 230.624 659.345 226.972 655.838 226.972C651.668 226.972 648.558 230.622 648.558 233.59C648.558 236.958 655.838 244.179 655.838 244.179Z" fill="white"/><path d="M615.745 272.525C619.37 272.525 622.308 271.315 622.308 269.823C622.308 268.331 619.37 267.121 615.745 267.121C612.12 267.121 609.182 268.331 609.182 269.823C609.182 271.315 612.12 272.525 615.745 272.525Z" fill="#4C4C4C" fill-opacity="0.2"/><path d="M615.69 268.886C615.69 268.886 622.308 261.666 622.308 258.296C622.308 255.331 619.197 251.679 615.69 251.679C611.52 251.679 608.41 255.329 608.41 258.297C608.41 261.665 615.69 268.886 615.69 268.886Z" fill="white"/><path d="M629.745 248.525C633.37 248.525 636.308 247.315 636.308 245.823C636.308 244.331 633.37 243.121 629.745 243.121C626.12 243.121 623.182 244.331 623.182 245.823C623.182 247.315 626.12 248.525 629.745 248.525Z" fill="#4C4C4C" fill-opacity="0.2"/><path d="M629.69 244.886C629.69 244.886 636.308 237.666 636.308 234.296C636.308 231.331 633.197 227.679 629.69 227.679C625.52 227.679 622.41 231.329 622.41 234.297C622.41 237.665 629.69 244.886 629.69 244.886Z" fill="white"/><path d="M582.861 271.525C586.486 271.525 589.424 270.315 589.424 268.823C589.424 267.331 586.486 266.121 582.861 266.121C579.236 266.121 576.298 267.331 576.298 268.823C576.298 270.315 579.236 271.525 582.861 271.525Z" fill="#4C4C4C" fill-opacity="0.2"/><path d="M582.806 267.886C582.806 267.886 589.424 260.666 589.424 257.296C589.424 254.331 586.313 250.679 582.806 250.679C578.636 250.679 575.526 254.329 575.526 257.297C575.526 260.665 582.806 267.886 582.806 267.886Z" fill="white"/><path d="M391.065 210.757C394.69 210.757 397.628 209.548 397.628 208.055C397.628 206.563 394.69 205.353 391.065 205.353C387.441 205.353 384.502 206.563 384.502 208.055C384.502 209.548 387.441 210.757 391.065 210.757Z" fill="#4C4C4C" fill-opacity="0.2"/><path d="M391.01 207.118C391.01 207.118 397.628 199.898 397.628 196.528C397.628 193.563 394.517 189.911 391.01 189.911C386.84 189.911 383.73 193.561 383.73 196.529C383.73 199.897 391.01 207.118 391.01 207.118Z" fill="white"/><path d="M405.735 179.874C409.36 179.874 412.298 178.664 412.298 177.172C412.298 175.68 409.36 174.47 405.735 174.47C402.11 174.47 399.172 175.68 399.172 177.172C399.172 178.664 402.11 179.874 405.735 179.874Z" fill="#4C4C4C" fill-opacity="0.2"/><path d="M405.68 176.235C405.68 176.235 412.298 169.015 412.298 165.645C412.298 162.68 409.187 159.028 405.68 159.028C401.51 159.028 398.4 162.678 398.4 165.646C398.4 169.014 405.68 176.235 405.68 176.235Z" fill="white"/><path d="M571.558 275.678C575.183 275.678 578.121 274.469 578.121 272.976C578.121 271.484 575.183 270.274 571.558 270.274C567.933 270.274 564.995 271.484 564.995 272.976C564.995 274.469 567.933 275.678 571.558 275.678Z" fill="#4C4C4C" fill-opacity="0.2"/><path d="M571.503 272.811C571.503 272.811 578.121 265.591 578.121 262.221C578.121 259.256 575.01 255.604 571.503 255.604C567.333 255.604 564.223 259.254 564.223 262.222C564.223 265.59 571.503 272.811 571.503 272.811Z" fill="#9069CD"/><path d="M468.068 361.144L473.34 363.603L465.476 380.468L460.204 378.01L468.068 361.144Z" fill="#18BEF5"/></svg>