<svg width="800" height="456" viewBox="0 0 800 456" version="1.1" xmlns="http://www.w3.org/2000/svg"><title>A blended approach</title><g stroke="none" stroke-width="1" fill="none" fill-rule="evenodd"><path fill="#FFF" d="M0 0h800v456H0z"/><g transform="translate(128 9)"><path d="M255.912 246.96l-56.646-8.335-56.801 8.49c-23.152 4.167-39.977 24.387-39.977 48.002v99.247c0 13.274 10.805 24.079 24.079 24.079h144.935c13.274 0 24.078-10.805 24.078-24.079V294.81c0-23.462-16.67-43.527-39.668-47.849z" fill="#6F4EA1" fill-rule="nonzero"/><path d="M165.309 254.06v34.575c0 6.637 7.409 10.65 12.965 7.1l16.207-10.496c2.16-1.39 4.785-1.39 6.946 0l16.515 10.496c5.557 3.55 12.966-.463 12.966-7.1V254.06c0-4.167-3.396-7.409-7.41-7.409h-50.626c-4.167 0-7.563 3.396-7.563 7.41z" fill="#9069CD" fill-rule="nonzero"/><g transform="translate(192.496 296.352)" fill="#9069CD" fill-rule="nonzero"><circle cx="6.461" cy="7.1" r="6.328"/><circle cx="6.461" cy="43.218" r="6.328"/><circle cx="6.461" cy="79.182" r="6.328"/></g><path d="M205.286 277.367l14.817-16.516c2.161-2.315 3.241-5.402 3.241-8.489v-55.566h-50.78v55.566c0 3.087 1.234 6.174 3.24 8.49l14.818 16.515c4.013 4.167 10.805 4.167 14.663 0z" fill="#E58D80" fill-rule="nonzero"/><g transform="translate(109.095 29.326)"><path d="M126.752 87.208c-3.242-1.544-4.63-5.248-3.087-8.49l17.133-37.044c1.543-3.24 5.248-4.63 8.489-3.087 3.241 1.544 4.63 5.248 3.087 8.49L135.24 84.12c-1.39 3.087-5.248 4.476-8.49 3.087z" fill="#71513F" fill-rule="nonzero"/><path d="M121.967 81.034c-2.007-2.933-1.39-6.946 1.543-8.953l33.34-23.615c2.933-2.007 6.946-1.39 8.952 1.543 2.007 2.933 1.39 6.946-1.543 8.953l-33.34 23.615c-2.778 2.007-6.791 1.39-8.952-1.543z" fill="#71513F" fill-rule="nonzero"/><circle fill="#71513F" fill-rule="nonzero" cx="24.726" cy="115.299" r="17.596"/><path d="M142.341 71.31c0 39.359-31.796 62.666-71.155 62.666C31.826 133.976.03 110.669.03 71.31.03 31.95 31.827.154 71.186.154c39.359 0 71.155 31.796 71.155 71.156z" fill="#71513F" fill-rule="nonzero"/><path d="M88.319 252.517c-27.938 0-50.473-22.69-50.473-50.473v-59.116c0-13.12 10.65-23.77 23.77-23.77h53.405c13.12 0 23.77 10.65 23.77 23.77v59.116c.154 27.783-22.535 50.473-50.472 50.473z" fill="#FFB5A1" fill-rule="nonzero"/><g transform="translate(2.037 135.828)" fill="#FF9D8A" fill-rule="nonzero"><circle cx="22.381" cy="22.072" r="21.455"/><circle cx="149.874" cy="22.072" r="21.455"/></g><path d="M121.35 205.903H54.516c-20.683 0-37.507-16.824-37.507-37.507v-60.197c0-39.205 31.796-40.44 71.001-40.44 39.205 0 71.001 21.455 71.001 60.506v39.977c0 20.837-16.824 37.66-37.661 37.66z" fill="#FFB5A1" fill-rule="nonzero"/><g fill="#FF9D8A" fill-rule="nonzero"><path d="M90.017 194.635h-4.785a4.15 4.15 0 0 1-4.168-4.167v-31.642a4.15 4.15 0 0 1 4.168-4.167h4.785a4.15 4.15 0 0 1 4.167 4.167v31.642a4.15 4.15 0 0 1-4.167 4.167z"/><path d="M95.419 187.227H80.447c-2.007 0-3.705 1.697-3.705 3.704 0 2.006 1.698 3.704 3.705 3.704h14.972c2.006 0 3.704-1.698 3.704-3.704 0-2.007-1.698-3.704-3.704-3.704z"/></g><path d="M161.018 152.343c2.47-15.126 6.173-34.11 6.173-58.19H146.2l10.804 58.19c.463 2.161 3.705 2.161 4.014 0z" fill="#71513F" fill-rule="nonzero"/><path d="M126.597 127.184c-4.63-1.543-11.73-3.087-21.454-3.087M48.496 127.184c4.63-1.543 11.73-3.087 21.455-3.087" stroke="#856959" stroke-width="10.472" stroke-linecap="round"/><path d="M141.878 64.673c-2.624-15.59-11.73-30.099-24.696-39.05-12.965-9.108-29.635-12.658-45.224-9.57C52.355 19.756 35.84 33.34 24.572 49.854c-.309 3.704-.926 7.409-1.698 11.113-1.852 8.798-4.476 17.287-6.945 25.931-1.698 5.865-3.396 13.737-6.329 20.683 6.637 5.402 13.737 7.1 21.146 7.1 30.407 0 50.164-17.287 75.786-28.246 8.644-3.704 19.14-6.483 27.166-1.39 0 0-.927 34.42 23.306 44.608l10.342-25.776c2.315-52.634-25.468-39.205-25.468-39.205z" fill="#71513F" fill-rule="nonzero"/><circle fill="#FFF" fill-rule="nonzero" opacity=".16" cx="115.947" cy="156.357" r="23.461"/><circle fill="#FFF" fill-rule="nonzero" opacity=".16" cx="59.455" cy="156.357" r="23.461"/><path d="M66.247 179.2a6.588 6.588 0 0 1-6.637-6.637v-12.81a6.588 6.588 0 0 1 6.637-6.638 6.588 6.588 0 0 1 6.637 6.637v12.811c-.155 3.705-3.087 6.637-6.637 6.637zM108.847 179.2a6.588 6.588 0 0 1-6.637-6.637v-12.81a6.588 6.588 0 0 1 6.637-6.638 6.588 6.588 0 0 1 6.637 6.637v12.811c-.154 3.705-3.087 6.637-6.637 6.637z" fill="#E58D80" fill-rule="nonzero"/><g stroke-linecap="round" transform="translate(14.385 135.334)" stroke="#FFF"><circle stroke-width="4.544" cx="44.144" cy="23.183" r="23.152"/><circle stroke-width="4.544" cx="100.791" cy="23.183" r="23.152"/><path d="M66.834 17.163h8.797" stroke-width="3.89"/><path d="M124.56 18.707l24.85-16.361M.154 2.346l20.22 16.36" stroke-width="4.544"/></g><path d="M68.253 204.36c4.168 4.012 11.576 8.489 22.998 7.563 11.268-.927 17.133-6.329 20.22-10.96" stroke="#E99589" stroke-width="6.265" stroke-linecap="round"/></g><path d="M190.622 418.597H94.153c-18.676 0-31.796-18.367-25.93-36.118l15.28-45.07 38.125 12.966-9.416 27.937H157.9c18.059 0 32.722 14.663 32.722 32.722v7.563z" fill="#FFB5A1" fill-rule="nonzero"/><g fill-rule="nonzero"><path d="M479.874 343.737h-114.99c-3.088 0-5.712 2.47-5.712 5.711v23.77c0 3.087 2.47 5.711 5.711 5.711h114.991c3.087 0 5.711-2.47 5.711-5.71v-23.77c0-3.088-2.47-5.712-5.71-5.712z" fill="#00A0F5"/><path fill="#7CCEFA" d="M375.379 343.737h6.328v35.192h-6.328zM394.519 343.737h6.328v35.192h-6.328z"/></g><g fill-rule="nonzero"><path d="M360.716 343.583h73.316v-32.26l-73.316.001c-3.241 0-5.711 2.624-5.711 5.71v20.838c0 3.087 2.47 5.711 5.711 5.711z" fill="#FAA519"/><path d="M413.504 337.872v-20.837c0-3.241 2.624-5.711 5.71-5.711h-12.193c-3.241 0-5.711 2.624-5.711 5.71v20.838c0 3.241 2.624 5.711 5.711 5.711h12.194c-3.087 0-5.711-2.624-5.711-5.71z" fill="#FBC01A"/><path fill="#E3E4E5" d="M433.569 315.645h64.673v23.924h-64.673z"/><path fill="#FFF" d="M433.569 324.135h64.673v6.946h-64.673z"/><path d="M500.094 343.583h-66.062c-2.778 0-5.093-2.315-5.093-5.093v-22.073c0-2.778 2.315-5.093 5.093-5.093h66.062c1.08 0 1.852.926 1.852 1.852v2.161c0 1.08-.926 1.852-1.852 1.852h-65.136v20.374h65.136c1.08 0 1.852.927 1.852 1.853v2.16c0 1.081-.772 2.007-1.852 2.007z" fill="#FBC01A"/></g><g fill-rule="nonzero"><path d="M487.283 417.825h-74.705V378.93h74.705a19.367 19.367 0 0 1 19.448 19.448c0 10.805-8.798 19.448-19.448 19.448z" fill="#FF6464"/><path d="M476.17 378.93h-6.329a19.367 19.367 0 0 1 19.448 19.447 19.367 19.367 0 0 1-19.448 19.448h6.329a19.367 19.367 0 0 0 19.448-19.448 19.367 19.367 0 0 0-19.448-19.448z" fill="#FF9494"/><path d="M461.66 378.93h-6.328a19.367 19.367 0 0 1 19.449 19.447 19.367 19.367 0 0 1-19.449 19.448h6.329a19.367 19.367 0 0 0 19.448-19.448 19.367 19.367 0 0 0-19.448-19.448z" fill="#FF9494"/><path d="M415.665 411.188a12.78 12.78 0 0 0 12.81-12.81c0-7.1-5.71-12.812-12.81-12.812h-67.76v25.468h67.76v.154z" fill="#FFF"/><path d="M415.665 411.188c7.408 0 13.428-6.482 12.656-14.045-.617-6.637-6.637-11.422-13.274-11.422h-70.692c-1.235 0-2.315-1.08-2.315-2.316v-2.16c0-1.235 1.08-2.316 2.315-2.316h70.538c10.341 0 19.448 7.718 20.22 18.214.771 11.421-8.335 20.991-19.448 20.991h-71.31c-1.235 0-2.315-1.08-2.315-2.315v-2.315c0-1.235 1.08-2.316 2.315-2.316h71.31z" fill="#EF4849"/><path d="M428.476 398.532c0 1.389-.31 2.778-.618 4.167H348.06v-8.18h79.8c.308 1.08.617 2.47.617 4.013z" fill="#EDEBF0"/></g><path d="M519.388 437.582H10.804A10.013 10.013 0 0 1 .773 427.55a10.013 10.013 0 0 1 10.033-10.033h508.583a10.013 10.013 0 0 1 10.032 10.033 10.013 10.013 0 0 1-10.032 10.032z" fill="#FAA519" fill-rule="nonzero"/><path fill="#6F4EA1" fill-rule="nonzero" d="M106.038 276.595l-.463 1.39-20.374 53.868 29.944 10.032 8.49-65.29z"/><path fill="#9069CD" fill-rule="nonzero" d="M121.01 352.535L82.577 339.88l3.55-10.496 38.433 12.81z"/><path d="M207.755 418.597h96.315c18.676 0 31.796-18.367 25.93-36.118l-15.28-45.07-38.125 12.966 9.416 27.937h-45.688c-18.059 0-32.722 14.663-32.722 32.722v7.563h.154z" fill="#FFB5A1" fill-rule="nonzero"/><path fill="#6F4EA1" fill-rule="nonzero" d="M292.185 276.595l.463 1.39 20.528 53.868-30.098 10.032-8.335-65.29z"/><path fill="#9069CD" fill-rule="nonzero" d="M277.367 352.535L315.8 339.88l-3.55-10.496-38.433 12.81z"/><g><path d="M296.506 392.512c-13.428-2.778-54.022-10.959-71.31-10.959-15.434 0-26.702 7.563-26.702 7.563s-8.952-7.563-24.233-7.563c-17.287 0-57.881 8.18-71.31 10.96-2.624.462-4.476 2.777-4.476 5.401v12.503l92.765 3.087 8.489-5.248 8.49 5.248 92.763-3.087v-12.503c-.154-2.47-2.006-4.785-4.476-5.402z" fill="#E8E6EC" fill-rule="nonzero"/><g><g fill="#FFF" fill-rule="nonzero"><path d="M296.506 392.512c-13.428-2.778-54.022-10.959-71.31-10.959-15.434 0-26.702 7.563-26.702 7.563s-8.952-7.563-24.233-7.563c-17.287 0-57.881 8.18-71.31 10.96-2.624.462-4.476 2.777-4.476 5.401v12.503l92.765 3.087 8.489-5.248 8.49 5.248 92.764-3.087v-12.503c-.155-2.47-2.007-4.785-4.477-5.402z"/></g><g stroke="#EDEBF0" stroke-width="2.849"><path d="M300.674 401.001c-13.429-2.778-59.116-11.113-76.403-11.113-15.435 0-24.388 6.483-25.468 7.255-1.235-.618-10.187-7.255-25.468-7.255-17.287 0-63.283 8.335-76.712 11.113"/><path d="M301.6 407.175c-13.429-2.778-60.66-9.57-77.947-9.57-15.435 0-24.387 4.94-25.468 5.557-1.234-.617-10.187-5.556-25.467-5.556-17.288 0-63.284 6.791-76.712 9.57"/></g></g><path d="M96.623 413.504h94.462s1.698-5.094 6.946-5.094c5.402 0 6.791 5.094 6.791 5.094h97.704" stroke="#00A0F5" stroke-width="9.524" stroke-linecap="round" stroke-linejoin="round"/></g><circle fill="#DFE0EC" fill-rule="nonzero" cx="367.199" cy="186.918" r="27.783"/><circle fill="#DFE0EC" fill-rule="nonzero" cx="317.807" cy="214.392" r="16.515"/><circle fill="#DFE0EC" fill-rule="nonzero" cx="436.347" cy="107.273" r="107.273"/><g><text font-family="Feather-Bold, Feather" font-size="80" font-weight="bold" fill="#9069CD" transform="translate(364 34)"><tspan x="0" y="96">{</tspan></text><text font-family="Feather-Bold, Feather" font-size="80" font-weight="bold" fill="#00A0F5" transform="translate(364 34)"><tspan x="71" y="137">)</tspan></text><path d="M421.269 86.496c-3.97 0-7.105-2.741-7.105-7.168 0-3.374.836-6.536 4.597-10.753l5.642-6.43c3.134-3.478 4.18-5.903 4.18-8.538 0-4.111-2.717-6.957-6.896-6.957-3.866 0-5.956 2.002-7.314 5.165-1.463 3.162-3.97 4.638-6.686 4.638-3.97 0-6.687-2.53-6.687-6.43 0-.844.209-1.898.522-2.846C403.925 39.587 411.343 34 422 34c12.433 0 21 8.222 21 19.08 0 5.376-1.672 9.487-5.642 13.809l-6.477 7.273c-1.777 2.003-2.403 3.479-2.403 5.166 0 4.427-3.344 7.168-7.21 7.168zm-8.568 12.86c0-4.743 3.866-8.644 8.568-8.644 4.701 0 8.567 3.9 8.567 8.644S425.97 108 421.269 108c-4.702 0-8.568-3.9-8.568-8.644z" fill="#00A0F5"/><path d="M471.336 97.235a9 9 0 1 1-5.263 17.214 9 9 0 0 1 5.263-17.214zm21.666-48.797a5 5 0 0 1 3.142 6.73L481.25 90.352a5 5 0 0 1-6.066 2.832l-4.77-1.458a5 5 0 0 1-3.445-5.74l7.324-37.497a5 5 0 0 1 6.37-3.823l12.34 3.773z" fill="#FFF"/><path d="M492 127c5.523 0 10 4.477 10 10s-4.477 10-10 10-10-4.477-10-10 4.477-10 10-10z" stroke="#9069CD" stroke-width="8"/><path d="M420.099 153.575a7.901 7.901 0 0 1 7.184 11.196c-.208.49-.48.952-.808 1.373l-.11.146a7.945 7.945 0 0 1-1.901 1.774l-6.337 5.631a1.148 1.148 0 0 1-1.906-.947l.32-4.118a7.901 7.901 0 0 1 3.36-15.055h.198zm0-22.575a7.901 7.901 0 0 1 0 15.803h-.198a7.901 7.901 0 1 1 0-15.803h.198z" fill="#FFF"/></g><g fill-rule="nonzero"><path d="M165.772 350.22l-10.65 2.778a13.84 13.84 0 0 1-7.1 0l-9.724-2.778c-1.544-.463-2.624-1.852-2.624-3.396v-19.139c0-2.007 1.543-3.55 3.55-3.55h25.622c2.006 0 3.55 1.543 3.55 3.55v19.14c0 1.697-1.08 3.086-2.624 3.395z" fill="#9069CD"/><g fill="#1F2B37"><path d="M154.504 324.135h-8.798v-17.596c0-2.47 2.007-4.322 4.322-4.322 2.47 0 4.322 2.007 4.322 4.322v17.596h.154z"/><path d="M147.404 333.859a1.713 1.713 0 0 1-1.698-1.698v-10.187h3.396v10.187c0 .926-.772 1.698-1.698 1.698z"/></g></g></g></g></svg>