<svg viewBox="120 0 950 509" version="1.1" xmlns="http://www.w3.org/2000/svg" xmlns:xlink="http://www.w3.org/1999/xlink"><title>GroupPhoto2</title><defs><rect id="a" x=".142" y="0" width="139.523" height="133.211" rx="66.606"/><ellipse id="c" cx="53.597" cy="53.625" rx="53.597" ry="53.625"/><path d="M12.04 16.4L34.668 0 57.01 16.393a29.142 29.142 0 0 1 11.902 23.495v75.874H0V39.996c0-9.34 4.477-18.115 12.04-23.596z" id="e"/><path d="M11.353 4.822c2.28 3.354 4.766 4.586 8.188 4.226a5.744 5.744 0 0 1 6.312 5.114 5.744 5.744 0 0 1-5.111 6.314c-7.746.814-14.285-2.426-18.885-9.19a5.747 5.747 0 0 1 1.517-7.983 5.741 5.741 0 0 1 7.979 1.52z" id="g"/><path d="M31.246 0h40.32a14.579 14.579 0 0 1 14.46 12.718L100.23 123.08c1.254 9.743-5.627 18.658-15.37 19.912a17.78 17.78 0 0 1-2.271.145H20.223c-9.824 0-17.787-7.963-17.787-17.786 0-.76.049-1.518.146-2.271L16.786 12.718A14.579 14.579 0 0 1 31.246 0z" id="i"/><path d="M1.997 8.814l10.725-2.632c2.963-.728 5.927-1.862 8.89-3.402a2.622 2.622 0 0 1 3.832 2.327v6.822c0 5.551-4.5 10.052-10.052 10.052H2.622A2.622 2.622 0 0 1 0 19.358v-7.997c0-1.208.825-2.26 1.997-2.547z" id="k"/><path d="M36.837 0H56.69C88 0 113.38 25.381 113.38 56.69v124.746a7.492 7.492 0 0 1-7.491 7.492H7.492A7.492 7.492 0 0 1 0 181.436v-144.6C0 16.493 16.492 0 36.837 0z" id="m"/><path d="M18.055 35.386C8.217 35.386.242 27.49.242 17.746.242 8.006 8.217.108 18.055.108c9.837 0 17.812 7.898 17.812 17.64s-7.975 17.64-17.812 17.64zm66.094 0c-9.838 0-17.813-7.897-17.813-17.64 0-9.74 7.975-17.638 17.814-17.638 9.837 0 17.812 7.898 17.812 17.64s-7.975 17.64-17.812 17.64z" id="o"/><path d="M52.196 9.99c19.172 0 34.713 15.542 34.713 34.713v73.174H17.482V44.703c0-19.171 15.542-34.713 34.714-34.713z" id="q"/><path d="M41.92 0c23.153 0 41.921 18.769 41.921 41.92v27.983c0 23.152-18.768 41.92-41.92 41.92S0 93.055 0 69.903V41.92C0 18.769 18.769 0 41.92 0z" id="s"/><path d="M1.498 0H28.47c.828 0 1.499.67 1.499 1.498v7.555c0 5-4.053 9.053-9.053 9.053H9.053c-5 0-9.053-4.053-9.053-9.053V1.498C0 .671.67 0 1.498 0z" id="t"/><path d="M23.79 0h42.387c10.5 0 19.012 8.512 19.012 19.011 0 1.411-.157 2.818-.468 4.194L63.7 116.165H26.268l-21.02-92.96C2.93 12.963 9.355 2.784 19.597.468A19.011 19.011 0 0 1 23.79 0z" id="v"/><path d="M25.943 0h.113C40.384 0 52 11.615 52 25.943v68.564a5.874 5.874 0 0 1-5.873 5.874H5.874A5.874 5.874 0 0 1 0 94.507V25.943C0 11.615 11.615 0 25.943 0z" id="x"/><path d="M34.094 0c18.83 0 34.094 15.264 34.094 34.094v20.93c0 18.83-15.264 34.095-34.094 34.095C15.264 89.119 0 73.854 0 55.025V34.094C0 15.264 15.264 0 34.094 0z" id="z"/></defs><g stroke="none" stroke-width="1" fill="none" fill-rule="evenodd"><g transform="translate(428.304 66.805)"><g><g><g fill="#C6775C"><path d="M190.494 199.757c-7.462 3.17-10.943 11.786-7.777 19.249l30.42 71.701c3.164 7.46 11.776 10.94 19.235 7.776l.005-.002c7.462-3.17 10.943-11.786 7.777-19.248l-30.42-71.702c-3.164-7.459-11.776-10.94-19.235-7.776l-.005.002z"/><path d="M214.915 270.555l-10.406 10.054a9.374 9.374 0 0 0-.23 13.237l10.048 10.41c3.586 3.723 9.511 3.828 13.23.239.002-.002.003-.003 0-.007l10.406-10.054a9.374 9.374 0 0 0 .231-13.237l-10.048-10.411c-3.587-3.723-9.512-3.828-13.23-.238-.002.001-.003.002-.001.007z"/></g><path d="M174.322 178.493l-3.006 1.6c-9.742 5.193-13.442 17.295-8.27 27.048l32.153 60.505c5.173 9.756 17.28 13.46 27.031 8.279.003-.002.006-.003.004-.013l3.006-1.6c9.742-5.193 13.442-17.295 8.27-27.048l-32.153-60.506c-5.173-9.756-17.28-13.46-27.031-8.278-.003.001-.006.003-.004.013z" fill="#D83867"/></g><g><g fill="#C6775C"><path d="M89.446 199.592c7.516 3.039 11.147 11.593 8.112 19.11l-29.164 72.221c-3.034 7.514-11.584 11.145-19.097 8.11l-.005-.001c-7.516-3.038-11.147-11.593-8.112-19.11l29.164-72.221c3.034-7.513 11.584-11.145 19.097-8.11l.005.001z"/><path d="M66.264 270.805l10.58 9.87a9.374 9.374 0 0 1 .462 13.232l-9.865 10.585c-3.521 3.785-9.443 3.993-13.225.469-.001-.002-.002-.003 0-.007l-10.58-9.87a9.374 9.374 0 0 1-.462-13.232l9.866-10.585c3.52-3.784 9.443-3.993 13.224-.468.001 0 .002.002 0 .006z"/></g><path d="M105.244 178.049l3.034 1.547c9.83 5.022 13.741 17.058 8.74 26.9l-31.091 61.057c-5.003 9.845-17.042 13.76-26.883 8.75-.003-.002-.006-.004-.004-.014l-3.034-1.547c-9.83-5.022-13.741-17.058-8.74-26.9l31.092-61.057c5.002-9.845 17.042-13.76 26.882-8.749.003.001.006.003.004.013z" fill="#D83867"/></g></g><rect fill="#1C5D88" x="122.391" y="252.011" width="35.732" height="112.357" rx="2.127"/><g transform="translate(69.927 152.788)"><mask id="b" fill="#fff"><use xlink:href="#a"/></mask><use fill="#D83867" xlink:href="#a"/><path stroke="#979797" stroke-width="1.2" fill="#1C5D88" mask="url(#b)" d="M-11.311 98.061h160.443v45.615H-11.311z"/><path fill="#D78254" mask="url(#b)" d="M-11.485 88.524h161.643v14.896H-11.485z"/><path fill="#1C5D88" mask="url(#b)" d="M29.776 88.524h7.657v15.747h-7.657zm75.292 0h7.657v15.747h-7.657z"/><rect fill="#DBDADA" mask="url(#b)" x="58.277" y="88.524" width="25.097" height="14.896" rx=".851"/><g mask="url(#b)" stroke="#C52F5B" stroke-linecap="round" stroke-linejoin="round" stroke-width="6.364"><g><path d="M37.433 33.622l7.164 7.192 7.164-7.192M37.433 51.928l7.164 7.192 7.164-7.192m36.414-18.306l7.164 7.192 7.163-7.192M88.175 51.928l7.164 7.192 7.163-7.192M63.597 33.622l7.164 7.192 7.163-7.192M63.597 51.928l7.164 7.192 7.163-7.192"/></g></g></g><rect fill="#3D3D3D" x="108.353" y="362.239" width="64.657" height="13.619" rx="6.807"/><g transform="translate(86.66)"><mask id="d" fill="#fff"><use xlink:href="#c"/></mask><use fill="#1C5D88" xlink:href="#c"/><path d="M42.538 53.2l50.194-37.453" stroke-opacity=".209" stroke="#000" stroke-width="5.531" stroke-linecap="square" mask="url(#d)"/></g><g transform="translate(105.801 41.283)"><mask id="f" fill="#fff"><use xlink:href="#e"/></mask><use fill="#C6775C" xlink:href="#e"/><g mask="url(#f)"><g transform="translate(11.485 20.003)"><rect fill="#FFF" x="25.097" y="0" width="19.142" height="26.812" rx="9.571"/><rect fill="#FFF" transform="matrix(-1 0 0 1 19.142 0)" x="0" y="0" width="19.142" height="26.812" rx="9.571"/><rect fill="#4B4B4B" transform="matrix(-1 0 0 1 22.545 0)" x="7.231" y="6.81" width="8.082" height="13.193" rx="4.041"/><rect fill="#4B4B4B" transform="matrix(-1 0 0 1 65.65 0)" x="28.784" y="7.235" width="8.082" height="13.193" rx="4.041"/></g></g><path d="M9.187 46.39c8.234 1.637 14.543 4.332 18.927 8.086" stroke="#C6775C" stroke-width="12.337" mask="url(#f)" transform="rotate(-2 18.65 50.433)"/><path d="M38.963 46.39c8.235 1.637 14.544 4.332 18.927 8.086" stroke="#C6775C" stroke-width="12.337" mask="url(#f)" transform="scale(-1 1) rotate(-2 0 2824.801)"/></g><path d="M114.437 94.167H164.2c12.923 0 23.398 10.476 23.398 23.399v.018c0 12.923-10.475 23.398-23.398 23.398h-49.763c-12.923 0-23.399-10.475-23.399-23.398v-.018c0-12.923 10.476-23.399 23.399-23.399z" fill="#3D3D3D"/><g transform="translate(116.568 93.652)"><mask id="h" fill="#fff"><use xlink:href="#g"/></mask><path stroke="#3D3D3D" stroke-width="5.531" d="M13.64 3.267c1.708 2.513 3.214 3.283 5.612 3.03a8.51 8.51 0 0 1 9.35 7.576 8.51 8.51 0 0 1-7.571 9.353c-8.745.92-16.278-2.764-21.46-10.386A8.512 8.512 0 0 1 1.817 1.017a8.506 8.506 0 0 1 11.821 2.25z"/><rect fill="#FFF" mask="url(#h)" x="4.555" y="-2.497" width="28.72" height="14.36" rx="5.619"/><rect fill="#FFF" mask="url(#h)" x="4.555" y="9.99" width="28.72" height="14.36" rx="5.619"/></g><rect fill="#C6775C" x="130.985" y="88.577" width="16.59" height="9.789" rx="4.892"/><rect fill="#D83867" x="100.951" y="153.64" width="78.695" height="9.789" rx="3.403"/></g><g transform="translate(147.347 108.805)"><g transform="translate(647.45 31.049)"><g><rect fill="#FFB100" x="0" y=".596" width="115.171" height="81.592" rx="40.795"/><rect fill="#A66640" x="47.545" y="86.039" width="20.309" height="44.468" rx="7.623"/><rect fill="#A66640" x="83.139" y="63.168" width="17.791" height="17.809" rx="8.895"/><rect fill="#A66640" x="12.007" y="63.168" width="17.791" height="17.809" rx="8.895"/><path d="M22.568 78.851l5.068 10.135a1.498 1.498 0 0 1-1.34 2.169H16.16a1.498 1.498 0 0 1-1.34-2.169l5.068-10.135a1.498 1.498 0 0 1 2.68 0z" fill="#CE82FF"/><path d="M29.202 31.906h49.855a8.893 8.893 0 0 1 8.894 8.893V91.12a8.893 8.893 0 0 1-8.894 8.894H32.953a8.893 8.893 0 0 1-8.869-8.233l-3.75-50.322a8.893 8.893 0 0 1 8.868-9.554z" fill="#A66640"/><g transform="translate(29.05 55.794)"><path d="M11.791 0H0v6.633c0 6.266 5.08 11.345 11.346 11.345h11.79v-6.632C23.137 5.08 18.058 0 11.792 0z" fill="#3D3D3D"/><path d="M11.791 4.11H0v6.632c0 6.266 5.08 11.346 11.346 11.346h11.79v-6.633c0-6.266-5.079-11.346-11.345-11.346z" fill="#FFF"/><rect fill="#4B4B4B" transform="matrix(-1 0 0 1 26.322 0)" x="8.277" y=".672" width="9.769" height="13.355" rx="4.79"/></g><g transform="matrix(-1 0 0 1 83.629 55.794)"><path d="M11.791 0H0v6.633c0 6.266 5.08 11.345 11.346 11.345h11.79v-6.632C23.137 5.08 18.058 0 11.792 0z" fill="#3D3D3D"/><path d="M11.791 4.11H0v6.632c0 6.266 5.08 11.346 11.346 11.346h11.79v-6.633c0-6.266-5.079-11.346-11.345-11.346z" fill="#FFF"/><rect fill="#4B4B4B" transform="matrix(-1 0 0 1 25.864 0)" x="8.047" y=".672" width="9.769" height="13.355" rx="4.79"/></g><rect fill="#733F21" x="53.77" y="62.146" width="5.722" height="19.08" rx="2.541"/><path d="M54.394 70.887h4.473l4.118 7.23a2.497 2.497 0 0 1-2.17 3.733h-8.368a2.497 2.497 0 0 1-2.17-3.733l4.117-7.23z" fill="#733F21"/><rect fill="#FFB100" x="59.052" y="11.456" width="39.348" height="39.386" rx="19.674"/><rect fill="#FFB100" x="39.073" y="17.7" width="26.867" height="26.893" rx="13.433"/></g><path d="M91.247 78.851l5.067 10.135a1.498 1.498 0 0 1-1.34 2.169H84.839a1.498 1.498 0 0 1-1.34-2.169l5.067-10.135a1.498 1.498 0 0 1 2.68 0z" fill="#CE82FF"/><path d="M41.308 116.143a9.566 9.566 0 0 1 6.557 11.83l-20.273 70.77a9.557 9.557 0 0 1-11.824 6.555 9.566 9.566 0 0 1-6.557-11.83l20.274-70.771a9.557 9.557 0 0 1 11.823-6.554z" fill="#A66640"/><path d="M67.128 83.208a7.65 7.65 0 0 1-9.37 5.415" stroke="#733F21" stroke-width="3.176" stroke-linecap="round"/><path d="M59.636 123.875a9.57 9.57 0 0 1 9.57-9.57h34.17a9.57 9.57 0 0 1 0 19.14h-34.17a9.57 9.57 0 0 1-9.57-9.57z" fill="#A66640"/><path d="M78.126 157.447a9.573 9.573 0 0 1-1.649-13.432l18.707-23.967a9.555 9.555 0 0 1 13.419-1.647 9.573 9.573 0 0 1 1.65 13.431l-18.708 23.967a9.555 9.555 0 0 1-13.419 1.648z" fill="#A66640"/><path d="M76.945 148.517c4.809-5.16 12.89-5.444 18.05-.635l.012.01 1.726 1.613c5.163 4.823 5.443 12.915.626 18.083-4.809 5.16-12.89 5.445-18.05.635a12.657 12.657 0 0 1-.012-.01L77.57 166.6c-5.162-4.822-5.442-12.915-.625-18.083z" fill="#A66640"/><rect fill="#47D7FF" x="37.547" y="114.443" width="39.43" height="55.537" rx="5.082"/><g transform="translate(6.285 148.65)"><mask id="j" fill="#fff"><use xlink:href="#i"/></mask><use fill="#1CB0F6" xlink:href="#i"/><path d="M40.11 29.222l10.347 6.602m-.133.186v120.17" stroke="#1899D6" stroke-width="5.082" stroke-linecap="round" stroke-linejoin="round" mask="url(#j)"/></g><path d="M69.8 107.845a2.223 2.223 0 0 1-2.222 2.223h-19.67a2.223 2.223 0 1 1 0-4.447h19.67c1.228 0 2.223.996 2.223 2.224z" fill="#303030"/><rect fill="#3D3D3D" x="34.209" y="291.375" width="44.425" height="11.435" rx="5.717"/></g><g transform="translate(121.748 .456)"><rect fill="#3D3D3D" x="3.491" y="100.101" width="23.128" height="101.413" rx="11.564"/><rect fill="#3D3D3D" x="109.966" y="113.215" width="23.128" height="101.413" rx="11.564"/><rect fill="#3D3D3D" x="26.182" y="117.149" width="23.128" height="101.413" rx="11.564"/><rect fill="#3D3D3D" x="115.203" y="95.73" width="23.128" height="73.437" rx="11.564"/><path d="M59.565 0c30.969 0 56.074 25.105 56.074 56.074v89.803c0 30.97-25.105 56.074-56.074 56.074-30.969 0-56.074-25.105-56.074-56.074V56.074C3.491 25.105 28.596 0 59.565 0z" fill="#3D3D3D"/><rect fill="#3D3D3D" x="88.147" y="50.269" width="56.729" height="130.7" rx="26.223"/><g><g fill="#A56644"><path d="M54.364 171.713h.005c5.363 1.055 8.865 6.247 7.833 11.614l-9.953 51.788c-1.026 5.34-6.188 8.838-11.528 7.812a9.832 9.832 0 0 1-.041-.008l-.005-.001c-5.363-1.054-8.865-6.246-7.833-11.614l9.953-51.787a9.847 9.847 0 0 1 11.57-7.804z"/><path d="M48.29 222.454l8.245 5.186a6.33 6.33 0 0 1 2.008 8.697l-5.138 8.275a6.33 6.33 0 0 1-8.747 2.02l-8.246-5.186a6.33 6.33 0 0 1-2.008-8.697l5.138-8.275a6.33 6.33 0 0 1 8.748-2.02z"/></g><path d="M61.676 158.316l2.117.612c7.152 2.068 11.287 9.528 9.252 16.69l-12.204 42.93c-2.042 7.184-9.522 11.352-16.706 9.31l-.058-.017-2.117-.612c-7.152-2.068-11.287-9.527-9.252-16.689l12.204-42.93c2.042-7.184 9.522-11.353 16.706-9.31l.058.016z" fill="#FFB100"/></g><path d="M66.146 148.622h20.875c11.467 0 20.763 9.296 20.763 20.764v8.963c0 6.517-5.283 11.8-11.8 11.8H57.183c-6.517 0-11.8-5.283-11.8-11.8v-8.963c0-11.468 9.296-20.764 20.763-20.764z" fill="#FFB100"/><rect fill="#FFB100" x="44.074" y="42.838" width="65.892" height="78.245" rx="31.686"/><path d="M77.02 59.012c18.196 0 32.946 14.75 32.946 32.946v26.069c0 9.413-7.631 17.044-17.045 17.044H61.118c-9.413 0-17.044-7.63-17.044-17.044v-26.07c0-18.195 14.75-32.945 32.946-32.945z" fill="#A56644"/><g transform="matrix(-1 0 0 1 79.554 106.534)"><mask id="l" fill="#fff"><use xlink:href="#k"/></mask><use fill="#932626" xlink:href="#k"/><ellipse fill="#FF4B4B" mask="url(#l)" cx="21.198" cy="24.889" rx="10.322" ry="10.34"/><rect fill="#FFF" mask="url(#l)" x="-6.546" y="-2.061" width="28.935" height="14.113" rx="4.37"/></g><rect fill="#FFF" x="80.293" y="76.497" width="19.637" height="27.539" rx="9.818"/><rect fill="#FFF" transform="matrix(-1 0 0 1 128.73 0)" x="54.547" y="76.497" width="19.637" height="27.539" rx="9.818"/><rect fill="#4B4B4B" transform="matrix(-1 0 0 1 132.221 0)" x="61.965" y="83.491" width="8.291" height="13.551" rx="4.146"/><rect fill="#4B4B4B" transform="matrix(-1 0 0 1 176.731 0)" x="84.22" y="83.491" width="8.291" height="13.551" rx="4.146"/><path d="M51.056 99.664c6.982 1.724 11.927 3.91 14.836 6.557" stroke="#A56644" stroke-width="6.556"/><path d="M77.238 88.736a2.75 2.75 0 0 1 2.742 2.541l1.183 15.517a3.936 3.936 0 1 1-7.85 0l1.183-15.517a2.75 2.75 0 0 1 2.742-2.54z" fill="#8D4D2B"/><rect fill="#8D4D2B" x="72.002" y="103.161" width="10.473" height="10.491" rx="5.236"/><rect fill="#3D3D3D" x="48.437" y="27.976" width="18.764" height="46.772" rx="9.382"/><path fill="#A56644" d="M67.638 132.449h17.891v15.736H67.638z"/><path d="M4.115 65.797c5.51-20.813 13.147-34.063 22.91-39.749m115.482 66.188c-4.279-15.583-10.025-25.552-17.237-29.907" stroke="#3D3D3D" stroke-width="20.104" stroke-linecap="round" stroke-linejoin="round"/><rect fill="#A56644" x="106.039" y="84.802" width="12.655" height="19.233" rx="6.327"/><rect fill="#A56644" x="34.91" y="84.802" width="12.655" height="19.233" rx="6.327"/><path d="M60.66 135.071h33.157c1.207 0 2.185.979 2.185 2.186v17.922a2.185 2.185 0 0 1-2.185 2.186H60.659a2.185 2.185 0 0 1-2.185-2.186v-17.922c0-1.207.978-2.186 2.185-2.186z" fill="#FFB100"/><g transform="matrix(-1 0 0 1 139.64 190.149)"><rect fill="#FF4B4B" x="0" y="134.197" width="40.146" height="8.742" rx="4.371"/><path d="M24.858 115.4h14.297a2.622 2.622 0 0 1 2.575 3.117l-3.357 17.486a2.622 2.622 0 0 1-2.575 2.128H21.5a2.622 2.622 0 0 1-2.575-3.116l3.357-17.486a2.622 2.622 0 0 1 2.575-2.128z" fill="#FF4B4B"/><rect fill="#FF4B4B" x="58.038" y="134.197" width="33.601" height="8.742" rx="4.371"/><path d="M64.1 115.838h14.391a2.622 2.622 0 0 1 2.622 2.673l-.334 17.05a2.622 2.622 0 0 1-2.621 2.57H63.766a2.622 2.622 0 0 1-2.621-2.673l.333-17.05a2.622 2.622 0 0 1 2.622-2.57z" fill="#FF4B4B"/><path d="M84.698 0H59.153l-3.73 109.103a5.245 5.245 0 0 0 5.241 5.424h19.184a5.245 5.245 0 0 0 5.245-5.264L84.698 0z" fill="#1CB0F6"/><path d="M40.21 0h25.682l-18.42 110.147a5.245 5.245 0 0 1-5.173 4.38H23.135a5.245 5.245 0 0 1-5.137-6.3L40.21 0z" fill="#1CB0F6"/><rect fill="#42C2FF" transform="matrix(-1 0 0 1 145.749 0)" x="54.11" y="100.101" width="37.528" height="19.233" rx="4.37"/><rect fill="#42C2FF" transform="matrix(-1 0 0 1 65.456 0)" x="13.964" y="100.101" width="37.528" height="19.233" rx="4.37"/></g><path d="M55.858 188.4h42.426c.62 0 1.156.435 1.283 1.043l1.19 5.683a1.311 1.311 0 0 1-1.282 1.58H55.858a1.311 1.311 0 0 1-1.311-1.311v-5.683c0-.725.587-1.312 1.31-1.312z" fill="#3D3D3D"/><g transform="translate(83.784 148.185)"><path d="M11.782 0l29.83 19.488c6.264 4.093 8.025 12.488 3.932 18.753-.404.62-.86 1.205-1.36 1.75L26.477 59.288a1.748 1.748 0 0 1-3.003-.84L11.782 0z" fill="#FFB100"/><path d="M17.291 34.889l6.528 1.88a5.682 5.682 0 0 1 4.109 5.46v13.919a5.682 5.682 0 0 1-7.613 5.343l-10.278-3.714V40.349a5.682 5.682 0 0 1 7.254-5.46z" fill="#A56644"/><rect fill="#A56644" x="6.109" y="34.533" width="13.091" height="8.742" rx="4.152"/><rect fill="#A56644" x="0" y="40.653" width="17.891" height="10.054" rx="5.026"/><path d="M7.719 50.915l4.577-2.541a4.8 4.8 0 0 1 6.53 1.872l.003.005a4.807 4.807 0 0 1-1.873 6.53l-4.578 2.542a4.8 4.8 0 0 1-6.529-1.872l-.003-.005a4.807 4.807 0 0 1 1.873-6.53z" fill="#A56644"/></g></g><g transform="translate(211.03 5.45)"><circle fill="#E79B7E" cx="66.056" cy="75.421" r="10.989"/><circle fill="#E79B7E" cx="148.97" cy="75.421" r="10.989"/><path d="M87.284 183.31h40.957a.5.5 0 0 1 .5.499v138.355a.5.5 0 0 1-.5.5H87.284a.5.5 0 0 1-.5-.5V183.81a.5.5 0 0 1 .5-.5z" fill="#2B70C9"/><g transform="rotate(-2 3746.248 56.828)"><path d="M62.706 15.555c6 2.798 8.596 9.93 5.798 15.93l-32.93 70.62a4.995 4.995 0 0 1-6.637 2.415l-12.675-5.91a4.995 4.995 0 0 1-2.416-6.638l32.93-70.619c2.798-6 9.93-8.596 15.93-5.798z" fill="#E79B7E"/><g transform="translate(0 84.412)" fill="#E79B7E"><path d="M27.897 6.76l7.617 7.617a9.56 9.56 0 0 1 0 13.52l-7.617 7.617a9.56 9.56 0 0 1-13.52 0L6.76 27.897a9.56 9.56 0 0 1 0-13.52l7.617-7.617a9.56 9.56 0 0 1 13.52 0z"/><rect transform="matrix(-1 0 0 1 65.85 0)" x="27.726" y="15.596" width="10.397" height="22.094" rx="5.199"/></g><path d="M67.7 5.066c6.001 2.798 8.597 9.93 5.8 15.93L40.78 91.163 19.052 81.03 51.77 10.864c2.798-6 9.93-8.596 15.93-5.798z" fill="#1CB0F6"/><rect fill="#42C2FF" transform="rotate(25 33.85 74.704)" x="17.118" y="62.717" width="33.465" height="23.975" rx="3.996"/></g><g transform="translate(51.072 126.868)"><mask id="n" fill="#fff"><use xlink:href="#m"/></mask><use fill="#1CB0F6" xlink:href="#m"/><path d="M62.083 15.308l6.489 32.724a5.494 5.494 0 0 1-2.034 5.42l-7.878 6.074a1.998 1.998 0 0 1-2.44 0l-7.877-6.074a5.494 5.494 0 0 1-2.035-5.42l6.518-32.872a5.494 5.494 0 0 1-3.122-2.893l-2.05-4.521A5.482 5.482 0 0 1 52.646 0h10.09a5.482 5.482 0 0 1 4.993 7.746l-2.05 4.52a5.495 5.495 0 0 1-3.596 3.042z" fill="#189AE8" mask="url(#n)"/><rect fill="#2B70C9" mask="url(#n)" x="-17.482" y="81.54" width="150.843" height="144.849" rx="3.996"/><rect fill="#3D3D3D" mask="url(#n)" x="-17.482" y="69.053" width="150.843" height="12.487" rx="3.996"/><path fill="#938579" mask="url(#n)" d="M43.704 69.053h25.349V81.54H43.704z"/><rect fill="#1B5EB4" mask="url(#n)" x="53.694" y="106.514" width="6.618" height="88.658" rx="3.309"/></g><g><g transform="translate(55.068 13.486)"><g><g transform="translate(0 21.977)"><mask id="p" fill="#fff"><use xlink:href="#o"/></mask><use fill="#807A7A" xlink:href="#o"/><rect fill="#3D3D3D" mask="url(#p)" x="-12.986" y="-15.484" width="134.36" height="34.464" rx="3.996"/></g><ellipse fill="#3D3D3D" cx="32.318" cy="17.442" rx="17.344" ry="17.176"/></g><mask id="r" fill="#fff"><use xlink:href="#q"/></mask><use fill="#E79B7E" xlink:href="#q"/><g mask="url(#r)"><g><g><g transform="matrix(-1 0 0 1 74.173 37.96)"><rect fill="#FFF" x="26.472" y="0" width="17.482" height="24.475" rx="8.741"/><path d="M33.59 4.995c2.345 0 4.246 1.919 4.246 4.286v5.413c0 2.367-1.901 4.286-4.246 4.286-2.345 0-4.246-1.919-4.246-4.286V9.281c0-2.367 1.901-4.286 4.246-4.286z" fill="#4B4B4B"/><g transform="matrix(-1 0 0 1 17.482 0)"><rect fill="#FFF" x="0" y="0" width="17.482" height="24.475" rx="8.741"/><path d="M7.118 4.995c2.344 0 4.245 1.919 4.245 4.286v5.413c0 2.367-1.9 4.286-4.245 4.286s-4.246-1.919-4.246-4.286V9.281c0-2.367 1.9-4.286 4.246-4.286z" fill="#4B4B4B"/></g></g><path d="M29.343 56.49c6.852.263 12.215 1.158 16.089 2.686" stroke="#E79B7E" stroke-width="10.989" stroke-linecap="round" stroke-linejoin="round"/><path d="M52.196 36.961a3.247 3.247 0 0 1 3.246 3.247v22.477a3.247 3.247 0 1 1-6.493 0V40.208a3.247 3.247 0 0 1 3.247-3.247z" fill="#C75E49"/></g></g></g></g></g><path d="M130.434 71.674c-6.713 1.429-11.773 3.42-15.18 5.973" stroke="#E79B7E" stroke-width="5.994"/><path d="M94.277 79.417l.392.496c5.516 6.96 15.63 8.13 22.589 2.614a16.08 16.08 0 0 0 2.992-3.11" stroke="#D87E64" stroke-width="3.746" stroke-linecap="round" stroke-linejoin="round"/><rect fill="#1CB0F6" transform="scale(-1 1) rotate(41 0 -274.248)" x="150.668" y="128.951" width="23.975" height="63.684" rx="11.988"/><path d="M69.158 125.37h79.707c.885 0 1.603.717 1.603 1.603v6.235c0 .666-.41 1.262-1.033 1.499l-20.028 7.621-21.06-11.464-20.397 11.464-19.378-7.615a1.603 1.603 0 0 1-1.017-1.492v-6.248c0-.886.717-1.604 1.603-1.604z" fill="#42C2FF"/><ellipse fill="#3D3D3D" cx="117.933" cy="23.674" rx="23.906" ry="23.674"/><rect fill="#4B4B4B" x="53.195" y="314.922" width="109.136" height="13.486" rx="6.743"/><g transform="scale(-1 1) rotate(-16 319.486 902.834)"><g transform="rotate(7 -1.255 50.556)" fill="#E79B7E"><path d="M34.352 15.578l5.905 5.905a9.56 9.56 0 0 1 0 13.52l-5.905 5.905a9.56 9.56 0 0 1-13.52 0l-5.905-5.905a9.56 9.56 0 0 1 0-13.52l5.905-5.905a9.56 9.56 0 0 1 13.52 0z"/><rect transform="scale(-1 1) rotate(-8 0 589.462)" x="34.594" y="9.353" width="10.397" height="22.094" rx="5.199"/><rect transform="rotate(-36 26.1 12.538)" x="20.902" y="1.49" width="10.397" height="22.094" rx="5.199"/><rect transform="rotate(-48 16.805 17.75)" x="11.606" y="6.703" width="10.397" height="22.094" rx="5.199"/><rect transform="rotate(-58 12.314 27.365)" x="7.115" y="16.318" width="10.397" height="22.094" rx="5.199"/></g><rect fill="#1CB0F6" transform="rotate(-17 39.477 57.97)" x="27.489" y="39.864" width="23.975" height="36.212" rx="11.988"/><rect fill="#42C2FF" transform="rotate(-16 36.949 48.587)" x="20.216" y="36.6" width="33.465" height="23.975" rx="3.996"/></g></g><g transform="translate(727.992 71.007)"><path d="M53.376 120.19l.06.027c7.075 3.135 10.257 11.417 7.112 18.488-.002.004-.003.007-.015.006L37.63 190.09c-3.16 7.06-11.437 10.237-18.508 7.103l-.06-.027c-7.076-3.135-10.258-11.418-7.112-18.488.001-.004.003-.007.014-.006l22.905-51.379c3.159-7.06 11.437-10.237 18.508-7.103z" fill="#FFB5A1"/><path d="M18.33 179.75l13.034 1.37a7.492 7.492 0 0 1 6.668 8.244l-1.323 12.414a7.492 7.492 0 0 1-8.232 6.658l-13.035-1.369a7.492 7.492 0 0 1-6.668-8.245l1.323-12.414a7.492 7.492 0 0 1 8.232-6.657z" fill="#FFB5A1"/><path d="M4.034 187.938l10.376-13.281a5.599 5.599 0 0 1 7.874-.953 5.639 5.639 0 0 1 .957 7.902l-10.376 13.282a5.599 5.599 0 0 1-7.874.953 5.639 5.639 0 0 1-.957-7.903zm100.88-71.541l-.046.047c-5.482 5.462-5.484 14.334-.013 19.808.003.003.006.006.017 0l22.576 22.546c5.481 5.457 14.347 5.455 19.826-.004l.046-.047c5.482-5.462 5.484-14.334.013-19.808-.003-.003-.006-.006-.017 0l-22.576-22.546c-5.481-5.457-14.347-5.455-19.826.004z" fill="#FFB5A1"/><path d="M147.251 113.563l19.803 9.23-15.739 33.683c-3.286 7.001-11.617 10.03-18.633 6.776l-.059-.028c-7.02-3.257-10.056-11.594-6.787-18.609.002-.004.004-.008.018-.006l13.095-28.027a6.261 6.261 0 0 1 8.302-3.019z" fill="#FFB5A1"/><g fill="#FFB5A1"><path d="M134.593 109.26a4.36 4.36 0 0 1 5.986 1.493l5.144 8.575a4.368 4.368 0 0 1-1.495 5.991 4.36 4.36 0 0 1-5.986-1.493l-5.144-8.575a4.368 4.368 0 0 1 1.495-5.991z"/><path d="M154.336 99.948a4.672 4.672 0 0 1 2.15 6.25l-5.485 11.23a4.68 4.68 0 0 1-6.256 2.152 4.672 4.672 0 0 1-2.15-6.25l5.485-11.23a4.68 4.68 0 0 1 6.256-2.152z"/><path d="M165.46 103.96a4.672 4.672 0 0 1 1.033 6.528l-6.985 9.602a4.68 4.68 0 0 1-6.535 1.033 4.672 4.672 0 0 1-1.032-6.529l6.985-9.601a4.68 4.68 0 0 1 6.534-1.034z"/><path d="M172.698 113.348a4.672 4.672 0 0 1-.463 6.594l-8.966 7.784a4.68 4.68 0 0 1-6.6-.463 4.672 4.672 0 0 1 .463-6.594l8.966-7.784a4.68 4.68 0 0 1 6.6.463z"/></g><g transform="translate(40.94 9.801)"><mask fill="#fff"><use xlink:href="#s"/></mask><use fill="#E5A259" xlink:href="#s"/></g><ellipse fill="#FFB5A1" cx="118.983" cy="61.041" rx="9.811" ry="9.801"/><ellipse fill="#FFB5A1" cx="45.845" cy="61.041" rx="9.811" ry="9.801"/><rect fill="#E5A259" x="25.331" y="76.182" width="113.275" height="33.413" rx="16.682"/><path d="M36.045 125.674l-9.037 19.359c-4.371 9.364-.323 20.5 9.042 24.87l.013.007c9.377 4.368 20.52.312 24.896-9.062l9.037-19.358c4.371-9.365.323-20.5-9.042-24.871a18.66 18.66 0 0 0-.013-.007c-9.377-4.368-20.52-.312-24.896 9.062zm92.701 0l9.036 19.359c4.372 9.364.324 20.5-9.041 24.87l-.013.007c-9.378 4.368-20.521.312-24.897-9.062l-9.036-19.358c-4.371-9.365-.323-20.5 9.041-24.871l.013-.007c9.378-4.368 20.521-.312 24.897 9.062z" fill="#FF7878"/><path d="M82.284 97.121h.26c28.746 0 52.048 23.303 52.048 52.048v10.847c0 28.745-23.302 52.047-52.047 52.047h-.261c-28.745 0-52.048-23.302-52.048-52.047v-10.847c0-28.745 23.303-52.048 52.048-52.048z" fill="#FF7878"/><g transform="translate(19.533 17.375)"><path d="M61.462 0H64.3c17.935 0 32.474 14.54 32.474 32.474v59.747H28.988V32.474C28.988 14.539 43.527 0 61.462 0z" fill="#FFB5A1"/><g transform="translate(43.704 59.938)"><mask id="u" fill="#fff"><use xlink:href="#t"/></mask><use fill="#932626" xlink:href="#t"/><rect fill="#FFF" mask="url(#u)" x="-6.743" y="-6.035" width="32.216" height="12.825" rx="1.498"/><rect fill="#EA2B2B" mask="url(#u)" x="-5.994" y="10.562" width="22.477" height="22.633" rx="11.238"/></g><rect fill="#FFF" x="66.805" y="22.276" width="20.068" height="28.067" rx="10.009"/><rect fill="#FFF" transform="matrix(-1 0 0 1 97.845 0)" x="38.888" y="22.276" width="20.068" height="28.067" rx="10.009"/><rect fill="#4B4B4B" transform="matrix(-1 0 0 1 101.412 0)" x="46.469" y="29.404" width="8.473" height="13.811" rx="4.226"/><rect fill="#4B4B4B" transform="matrix(-1 0 0 1 149.22 0)" x="70.373" y="29.404" width="8.473" height="13.811" rx="4.226"/></g><ellipse fill="#E5A259" cx="98.469" cy="21.83" rx="21.852" ry="21.83"/><path d="M31.126 165.73h102.576a.89.89 0 0 1 .89.89v77.082a4.893 4.893 0 0 1-4.893 4.893h-94.57a4.893 4.893 0 0 1-4.893-4.893V166.62a.89.89 0 0 1 .89-.89z" fill="#E85A5A"/><path d="M57.351 63.262c8.305.595 14.4 2.97 18.284 7.129" stroke="#FFB5A1" stroke-width="5.338" stroke-linecap="round" stroke-linejoin="round"/><path d="M82.637 44.551a2.894 2.894 0 0 1 2.899 2.899v23.248a2.894 2.894 0 0 1-2.899 2.9 2.894 2.894 0 0 1-2.899-2.9V47.45a2.894 2.894 0 0 1 2.9-2.899z" fill="#E47A65"/><rect fill="#E47A65" x="76.617" y="64.954" width="12.041" height="10.247" rx="5.116"/><path d="M81.968 109.596h34.785l-9.61 10.078c-5.567 5.838-14.812 6.058-20.649.491a14.605 14.605 0 0 1-4.526-10.57z" fill="#FFF"/><path d="M83.306 109.596H48.521L58 119.54c5.594 5.868 14.886 6.09 20.754.496A14.68 14.68 0 0 0 83.3 109.78l.005-.184z" fill="#FFF"/><ellipse fill="#FFF" cx="82.414" cy="142.118" rx="4.906" ry="4.901"/><rect fill="#FF4B4B" x="51.643" y="248.595" width="61.097" height="14.256" rx="7.118"/></g><g transform="translate(508.22 9.197)"><path fill="#3D3D3D" d="M75.153 192.25h33.869v134.061H75.153z"/><rect fill="#58A700" x="50.179" y="189.752" width="83.817" height="59.139" rx="6.243"/><path d="M3.165 208.88l44.055-76.355a6.238 6.238 0 0 1 8.525-2.29c.001 0 .002.001.001.005l25.426 14.69a6.254 6.254 0 0 1 2.286 8.53l-44.055 76.357a6.238 6.238 0 0 1-8.525 2.29c0-.001-.002-.002-.001-.006L5.45 217.412a6.254 6.254 0 0 1-2.286-8.531z" fill="#78C800"/><ellipse fill="#A56644" cx="55.22" cy="66.916" rx="8.969" ry="8.974"/><ellipse fill="#A56644" cx="124.712" cy="66.916" rx="8.969" ry="8.974"/><path d="M174.04 223.199l-6.867-11.9a4.053 4.053 0 0 0-5.536-1.485l-.002.001a4.058 4.058 0 0 0-1.484 5.542l6.866 11.9a4.053 4.053 0 0 0 5.536 1.485l.002-.002a4.058 4.058 0 0 0 1.485-5.541z" fill="#A56644"/><path d="M168.42 226.945l-6.866-11.9a4.053 4.053 0 0 0-5.536-1.485l-.002.001a4.058 4.058 0 0 0-1.485 5.542l6.867 11.9a4.053 4.053 0 0 0 5.538 1.483 4.058 4.058 0 0 0 1.485-5.541z" fill="#A56644"/><path d="M162.801 230.067l-6.866-11.9a4.053 4.053 0 0 0-5.536-1.485l-.002.001a4.058 4.058 0 0 0-1.485 5.542l6.867 11.9a4.053 4.053 0 0 0 5.536 1.484h.002a4.058 4.058 0 0 0 1.484-5.542z" fill="#A56644"/><path d="M172.979 215.137l-4.673-8.113a4.37 4.37 0 0 0-5.973-1.604l-16.204 9.357a4.37 4.37 0 0 0-1.601 5.966l4.672 8.114a4.37 4.37 0 0 0 5.973 1.603l16.204-9.357a4.37 4.37 0 0 0 1.602-5.966z" fill="#58A700"/><path d="M173.206 200.57l-39.62-68.67a6.238 6.238 0 0 0-8.524-2.29c-.001 0-.002 0-.001.004l-25.426 14.69a6.254 6.254 0 0 0-2.286 8.53l39.619 68.672c2.408 4.184 7.753 5.618 11.935 3.206.001-.001.003-.002.002-.007l21.1-12.19a8.756 8.756 0 0 0 3.2-11.944z" fill="#78C800"/><path d="M67.072 1.873h45.788a9.365 9.365 0 0 1 9.365 9.365v27.017a2.99 2.99 0 0 1-2.99 2.99H60.697a2.99 2.99 0 0 1-2.99-2.99V11.238a9.365 9.365 0 0 1 9.366-9.365z" fill="#3D3D3D"/><path d="M87.158 117.73h6.374c27.516 0 49.823 22.306 49.823 49.823v66.326a5.48 5.48 0 0 1-5.48 5.48h-95.06a5.48 5.48 0 0 1-5.48-5.48v-66.326c0-27.517 22.306-49.823 49.823-49.823z" fill="#78C800"/><path fill="#A56644" d="M57.707 34.873h64.518v63.683H57.707z"/><g transform="translate(67.31 48.725)"><g><rect fill="#FFF" x="25.484" y="0" width="19.133" height="26.472" rx="9.529"/><rect fill="#FFF" transform="matrix(-1 0 0 1 19.133 0)" x="0" y="0" width="19.133" height="26.472" rx="9.529"/><rect fill="#4B4B4B" transform="matrix(-1 0 0 1 22.535 0)" x="7.228" y="6.723" width="8.079" height="13.026" rx="4.023"/><rect fill="#4B4B4B" transform="matrix(-1 0 0 1 65.85 0)" x="28.886" y="6.723" width="8.079" height="13.026" rx="4.023"/></g><path d="M22.655 2.486a3.237 3.237 0 0 1 3.238 3.238v27.414a3.237 3.237 0 1 1-6.475 0V5.724a3.237 3.237 0 0 1 3.237-3.238z" fill="#8D4D2B"/><rect fill="#8D4D2B" x="15.931" y="27.405" width="13.448" height="11.462" rx="5.73"/></g><rect fill="#ADE756" x="85.571" y="113.771" width="32.003" height="70.27" rx="3.488"/><rect fill="#ADE756" x="46.377" y="93.495" width="87.177" height="38.085" rx="5.979"/><rect fill="#FF4B4B" x="63.719" y="314.333" width="57.489" height="11.577" rx="5.789"/><path d="M91.076 189.959v9.66m9.989-9.66v9.66m9.99-9.66v9.66" stroke="#ADE756" stroke-width="6.868" stroke-linecap="round"/><path stroke="#3D3D3D" stroke-width="14.984" stroke-linecap="round" d="M65.374 0v9.74l15.088-7.867"/></g><g transform="translate(445.161 64.764)"><g transform="translate(18.73)"><path d="M49.324 0c24.426 0 44.57 19.137 45.822 43.531l.572 11.16 2.483 24.541a4.012 4.012 0 0 1-3.992 4.416H4.439a4.012 4.012 0 0 1-3.992-4.416L2.929 54.69l.573-11.159C4.753 19.137 24.897 0 49.324 0z" fill="#303030"/><path d="M27.68 33.803h43.287a2.293 2.293 0 0 1 2.292 2.293v36.118c0 13.22-10.716 23.936-23.935 23.936-13.22 0-23.936-10.717-23.936-23.936V36.096a2.293 2.293 0 0 1 2.292-2.293z" fill="#FFC6B7"/><path d="M57.93 66.53a6.915 6.915 0 0 1-8.468 4.883" stroke="#EE9583" stroke-width="2.866" stroke-linecap="round"/><rect fill="#FFC6B7" x="10.324" y="56.977" width="18.353" height="18.334" rx="9.167"/><rect fill="#FFC6B7" x="68.824" y="56.977" width="18.353" height="18.334" rx="9.167"/><rect fill="#FFF" x="16.632" y="30.99" width="28.677" height="30.365" rx="5.158"/><rect fill="#EE9583" x="45.309" y="39.532" width="6.882" height="25.782" rx="3.441"/><rect fill="#4B4B4B" x="34.985" y="42.397" width="8.603" height="13.177" rx="4.301"/><rect fill="#FFF" x="52.191" y="30.99" width="28.677" height="30.365" rx="5.158"/><rect fill="#EE9583" x="42.187" y="57.638" width="13.126" height="7.051" rx="3.526"/><rect fill="#4B4B4B" x="55.059" y="42.397" width="8.603" height="13.177" rx="4.301"/></g><g transform="translate(0 100.52)"><path d="M46.437 1.249h42.61a17.7 17.7 0 0 1 17.001 12.776l16.643 57.468a9.24 9.24 0 0 1-15.954 8.511L98.18 69.807l-30.437 31.217-30.437-31.217-8.559 10.197a9.24 9.24 0 0 1-15.953-8.51l16.643-57.469a17.7 17.7 0 0 1 17-12.775z" fill="#FFC6B7"/><g transform="translate(.15 66.55)" fill="#FFC6B7"><rect transform="rotate(38 22.789 19.667)" x="18.73" y="6.868" width="8.117" height="25.598" rx="4.058"/><rect transform="rotate(-32 27.784 14.672)" x="23.725" y="1.873" width="8.117" height="25.598" rx="4.058"/><rect transform="rotate(54 17.17 15.297)" x="13.111" y="2.497" width="8.117" height="25.598" rx="4.058"/><rect transform="rotate(63 13.424 9.677)" x="9.365" y="-3.122" width="8.117" height="25.598" rx="4.058"/></g><g transform="matrix(-1 0 0 1 135.01 66.55)" fill="#FFC6B7"><rect transform="rotate(38 22.789 19.667)" x="18.73" y="6.868" width="8.117" height="25.598" rx="4.058"/><rect transform="rotate(-32 27.784 14.672)" x="23.725" y="1.873" width="8.117" height="25.598" rx="4.058"/><rect transform="rotate(54 17.17 15.297)" x="13.111" y="2.497" width="8.117" height="25.598" rx="4.058"/><rect transform="rotate(63 13.424 9.677)" x="9.365" y="-3.122" width="8.117" height="25.598" rx="4.058"/></g><g transform="translate(22.758 42.564)"><mask id="w" fill="#fff"><use xlink:href="#v"/></mask><use fill="#9069CD" xlink:href="#v"/><rect fill="#FFC6B7" mask="url(#w)" x="-5.254" y="78.757" width="103.758" height="64.974" rx="17.7"/></g><rect fill="#CE82FF" x="30.638" y="0" width="74.207" height="28.845" rx="14.423"/><rect fill="#6F4EA1" x="40.651" y="28.75" width="54.183" height="14.471" rx="1.967"/><rect fill="#3D3D3D" x="40.651" y="156.105" width="54.843" height="12.02" rx="6.01"/></g><rect fill="#CE82FF" x="49.369" y="91.155" width="36.746" height="11.238" rx="5.619"/></g><rect fill="#AFAFAF" opacity=".3" x="0" y="333.858" width="899.594" height="10.928" rx="5.463"/><g transform="translate(0 73.505)"><path d="M79.396 0a39.932 39.932 0 0 1 37.546 26.337l35.326 97.562c14.697 40.59-6.293 85.408-46.883 100.105a78.163 78.163 0 0 1-26.61 4.669c-42.949 0-77.765-34.817-77.765-77.765a77.765 77.765 0 0 1 4.773-26.825l35.94-97.792A40.136 40.136 0 0 1 79.396 0z" fill="#A56644"/><rect fill="#FFB59F" x="66.716" y="162.568" width="25.509" height="98.055" rx="2.447"/><path d="M98.12 98.978l23.212 25.447a12.237 12.237 0 0 1 0 16.494L92.55 172.47c-4.555 4.994-12.295 5.35-17.288.795a12.237 12.237 0 0 1-3.245-4.835l-14.93-40.792-10.512 10.433a8.368 8.368 0 0 1-11.634.15 8.226 8.226 0 0 1-.436-11.53l25.28-27.714c9.656-10.586 26.065-11.34 36.65-1.684a25.943 25.943 0 0 1 1.684 1.684z" fill="#FFB59F"/><rect fill="#FFB59F" transform="rotate(-26 32.613 118.59)" x="25.121" y="95.489" width="14.984" height="46.202" rx="7.492"/><g transform="rotate(6 -666.492 95.744)" fill="#FFB59F"><rect transform="rotate(-28 18.148 28.794)" x="5.349" y="15.995" width="25.598" height="25.598" rx="12.799"/><rect transform="rotate(-6 18.11 13.489)" x="13.739" y=".69" width="8.741" height="25.598" rx="4.37"/><rect transform="rotate(-44 12.038 16.979)" x="7.667" y="4.18" width="8.741" height="25.598" rx="4.37"/></g><g transform="translate(53.471 90.098)"><mask id="y" fill="#fff"><use xlink:href="#x"/></mask><use fill="#B15BE9" xlink:href="#x"/><rect fill="#CE82FF" mask="url(#y)" x="-4.415" y="-1.959" width="62.301" height="46.757" rx="5.384"/><rect fill="#9841D1" mask="url(#y)" x="9.667" y="59.193" width="6.122" height="46.757" rx="3.061"/><rect fill="#9841D1" mask="url(#y)" x="37.83" y="59.193" width="6.122" height="46.757" rx="3.061"/><rect fill="#9841D1" mask="url(#y)" x="23.748" y="59.193" width="6.122" height="46.757" rx="3.061"/></g><g><g transform="translate(44.641 1.469)"><mask id="A" fill="#fff"><use xlink:href="#z"/></mask><use fill="#FFB59F" xlink:href="#z"/><rect fill="#FFF" mask="url(#A)" x="37.773" y="22.525" width="22.075" height="30.849" rx="11.014"/><path d="M20.358 22.525c6.096 0 11.038 4.932 11.038 11.017v8.814c0 6.085-4.942 11.017-11.038 11.017S9.321 48.441 9.321 42.356v-8.814c0-6.085 4.941-11.017 11.037-11.017z" fill="#FFF" mask="url(#A)"/><path d="M34.585 26.442a3.183 3.183 0 0 1 3.188 3.188v26.92a3.183 3.183 0 0 1-3.188 3.189 3.183 3.183 0 0 1-3.19-3.189V29.63a3.183 3.183 0 0 1 3.19-3.188z" fill="#E47A65" mask="url(#A)"/><rect fill="#E47A65" mask="url(#A)" x="29.434" y="52.884" width="10.302" height="9.304" rx="4.652"/><g mask="url(#A)"><g><g fill="#4B4B4B" transform="translate(18.15 30.849)"><rect transform="matrix(-1 0 0 1 56.414 0)" x="23.547" y="0" width="9.321" height="15.18" rx="4.65"/><rect x="0" y="0" width="9.321" height="15.18" rx="4.65"/></g></g></g><rect fill="#A56644" mask="url(#A)" x="5.208" y="-34.276" width="58.377" height="73.45" rx="1.958"/><path d="M34.405 62.053c-1.68 4.843-5.373 7.264-11.081 7.264" stroke="#EC8B75" stroke-width="3.426" stroke-linecap="round" stroke-linejoin="round" mask="url(#A)" transform="matrix(-1 0 0 1 57.729 0)"/></g></g><rect fill="#4B4B4B" x="59.715" y="249.055" width="40.137" height="11.923" rx="5.962"/><path fill="#FFF" d="M66.716 208.597h25.509v24.973H66.716z"/><path fill="#4B4B4B" d="M66.716 229.652h25.509v23.504H66.716z"/><ellipse fill="#FFB59F" cx="42.924" cy="54.698" rx="7.827" ry="7.812"/><ellipse fill="#FFB59F" cx="114.769" cy="54.698" rx="7.827" ry="7.812"/></g><path d="M79.292 57.272c19.655 0 35.588 15.933 35.588 35.588a5.62 5.62 0 0 1-5.619 5.619H49.324a5.62 5.62 0 0 1-5.62-5.62c0-19.654 15.934-35.587 35.588-35.587z" fill="#78C800"/><path d="M43.435 88.49h71.715a4.37 4.37 0 0 1 4.258 3.387l1.73 7.492a4.37 4.37 0 0 1-4.26 5.353H41.707a4.37 4.37 0 0 1-4.258-5.353l1.729-7.492a4.37 4.37 0 0 1 4.258-3.388z" fill="#58A700"/><rect fill="#78C800" x="51.197" y="57.272" width="36.837" height="11.238" rx="5.619"/></g></g></svg>