<svg width="315" height="210" viewBox="0 0 315 210" version="1.1" xmlns="http://www.w3.org/2000/svg"><title>Slice 1</title><g stroke="none" stroke-width="1" fill="none" fill-rule="evenodd"><g><g transform="translate(50)" fill-rule="nonzero"><path d="M55.164 121.421H20.921c-.862 0-1.562-.7-1.562-1.564v-14.898c0-.864.699-1.565 1.562-1.565h34.243c.863 0 1.563.7 1.563 1.565v14.898c0 .864-.7 1.564-1.563 1.564zM36.48 96.836H2.237c-.862 0-1.562-.7-1.562-1.565V80.374c0-.864.699-1.565 1.562-1.565H36.48c.863 0 1.563.7 1.563 1.565V95.27c0 .865-.7 1.565-1.563 1.565z" fill="#EBF2F4"/><path fill="#3D93CF" d="M185.678 82.389h-20.777l-8.09 32.042h28.867z"/><path d="M149.22 114.43h9.159l8.575-32.041h-9.007c-.595 0-1.115.4-1.27.976l-8.092 30.237a.658.658 0 0 0 .636.829z" fill="#43ADE1"/><path fill="#CFE2E7" d="M130.184 186.474H91.036V.508h39.148zM225.4.508h31.657c4.222 0 7.644 3.426 7.644 7.653v194.835h-39.3V.508z"/><path d="M80.338 4.334v198.662h10.698V125.26h123.666v77.735H225.4V.508H84.16a3.825 3.825 0 0 0-3.822 3.826zM214.702 57.53H91.036v-46.31h123.666v46.31zm-123.666 57.02v-46.31h123.666v46.31H91.036z" fill="#EBF2F4"/><path fill="#F9BA15" d="M177.428 20.147H155.75l-9.405 37.374h31.084z"/><path d="M144.295 57.52h3.845l9.997-37.373h-3.668a1.53 1.53 0 0 0-1.477 1.134l-9.435 35.277a.765.765 0 0 0 .738.963z" fill="#FDD204"/><path fill="#A34343" d="M170.253 16.559h25.885V57.52h-25.885z"/><path d="M163.558 57.52h6.696V16.559h-6.696a2.295 2.295 0 0 0-2.294 2.296v36.37a2.294 2.294 0 0 0 2.294 2.297z" fill="#D53F3F"/><path d="M165.759 50.497a.765.765 0 0 0 .764-.765V24.348a.765.765 0 1 0-1.529 0v25.384c0 .423.343.765.765.765z" fill="#A34343"/><path fill="#3D93CF" d="M188.79 16.559h25.885V57.52H188.79z"/><path d="M182.094 57.52h6.696V16.559l-6.633.063a2.295 2.295 0 0 0-2.294 2.296l-.063 36.308a2.295 2.295 0 0 0 2.294 2.296z" fill="#43ADE1"/><path d="M184.295 50.497a.765.765 0 0 0 .765-.765V24.348a.765.765 0 1 0-1.53 0v25.384c0 .423.343.765.765.765z" fill="#3D93CF"/><path fill="#4C4C4C" d="M202.805 77.175h-21.68l-9.405 37.256h31.085z"/><path d="M166.64 114.43h6.904l9.97-37.255h-6.726a1.53 1.53 0 0 0-1.476 1.135l-9.409 35.158a.764.764 0 0 0 .738.963z" fill="#656161"/><path fill="#52AE48" d="M194.315 73.468h20.36v40.963h-20.36z"/><path d="M194.315 73.468v40.963h-10.893a1.53 1.53 0 0 1-1.529-1.53V74.998c0-.845.685-1.53 1.53-1.53h10.892z" fill="#7BC043"/><path d="M188.104 108.874c.761 0 1.378-.618 1.378-1.38V90.123a1.378 1.378 0 1 0-2.756 0v17.371c0 .762.618 1.38 1.378 1.38zM191.353 82.278a3.25 3.25 0 0 1-3.249 3.253 3.25 3.25 0 0 1-3.248-3.253 3.25 3.25 0 0 1 3.248-3.253 3.25 3.25 0 0 1 3.249 3.253z" fill="#52AE48"/><path fill="#4C4C4C" d="M252.089 197.239H264.7v5.943H252.09zM160.883 130.774H150.58v1.768c-12.136 4.287-20.897 15.901-20.897 29.47v35.173h62.4v-35.172c0-17.181-14.04-31.24-31.2-31.24z"/><path d="M181.78 197.185v-35.172c0-17.181-14.04-31.24-31.2-31.24s-31.201 14.058-31.201 31.24v35.172h62.401z" fill="#656161"/><path d="M108.754 138.097c-5.664-1.686-11.622 1.547-13.306 7.219L90.6 161.653l20.68 5.548 4.684-15.782c1.683-5.672-1.545-11.637-7.21-13.322z" fill="#F9BA15"/><path d="M90.6 161.653l-3.664 12.349c-.11.37-.477.6-.858.537-5.058-.846-37.317-6.227-40.242-6.511-3.231-.315-13.867-.675-19.632 6.708-1.165 1.493-1.025 3.785.457 4.964a3.434 3.434 0 0 0 4.883-.617c.78-1.032 1.969-2.11 3.001-2.648.067-.028.21-.067.337.041.157.135-.1.49-.1.49l.007.001c-2.053 2.518-3.728 5.836-3.99 10.1-.115 1.878 1.339 3.49 3.215 3.605l.108.007c1.884.115 3.424-1.339 3.546-3.225a10.461 10.461 0 0 1 1.376-4.546c.046-.049.124-.099.253-.045.214.09.129.354.129.354h.003c-.282 1.49-.32 3.217.062 5.214a3.443 3.443 0 0 0 4.791 2.496c1.472-.65 2.233-2.304 1.948-3.89a8.242 8.242 0 0 1-.125-1.138l39.413 10.614c1.451.39 2.91.575 4.345.575 7.368 0 14.133-4.892 16.201-12.309l5.216-17.576-20.68-5.55z" fill="#8D4D2A"/><path d="M130.753 129.12l-27.154 8.082a12.243 12.243 0 0 0-8.746 11.738l-1.528 48.245h73.328V148.94c0-5.419-3.557-10.194-8.745-11.738l-27.155-8.08z" fill="#FDD204"/><path d="M130.753 80.601c0 10.736-8.692 19.44-19.415 19.44-10.723 0-19.416-8.704-19.416-19.44s8.693-19.44 19.416-19.44 19.415 8.704 19.415 19.44zM171.06 98.25c0 10.736-8.692 19.44-19.415 19.44-10.723 0-19.416-8.704-19.416-19.44 0-10.737 8.693-19.44 19.416-19.44s19.416 8.703 19.416 19.44z" fill="#231F20"/><path d="M144.842 62.884c0 10.737-8.692 19.44-19.415 19.44-10.723 0-19.416-8.703-19.416-19.44 0-10.736 8.693-19.44 19.416-19.44s19.415 8.704 19.415 19.44z" fill="#231F20"/><path d="M170.714 73.928c0 12.913-10.455 23.38-23.351 23.38-12.897 0-23.351-10.467-23.351-23.38 0-12.912 10.454-23.38 23.35-23.38 12.897 0 23.352 10.468 23.352 23.38z" fill="#231F20"/><path d="M153.5 100.018V86.77c0-14.072-11.499-25.586-25.553-25.586s-25.553 11.514-25.553 25.586v13.249H153.5z" fill="#FDD204"/><path d="M144.104 135.906v-2.812l-13.351-3.973-11.315 3.367v11.826c0 2.76 2.261 5.006 5.04 5.007.811 0 1.623-.201 2.347-.58l13.889-7.265a6.275 6.275 0 0 0 3.39-5.57z" fill="#FFF"/><path d="M122.496 110.786v33.528c0 1.467 1.594 2.404 2.914 1.714l13.889-7.265a3.23 3.23 0 0 0 1.748-2.858v-25.12h-18.55v.001zM96.935 102.01c1.163 4.259 5.628 6.787 9.972 5.646 4.343-1.142 6.921-5.52 5.757-9.78-1.164-4.26-5.628-6.787-9.972-5.646-4.344 1.141-6.921 5.52-5.757 9.78z" fill="#8D4D2A"/><path d="M96.935 102.01c1.163 4.259 5.628 6.787 9.972 5.646 4.343-1.142 6.921-5.52 5.757-9.78-1.164-4.26-5.628-6.787-9.972-5.646-4.344 1.141-6.921 5.52-5.757 9.78zM140.562 102.01c1.164 4.259 5.628 6.787 9.972 5.646 4.343-1.142 6.921-5.52 5.757-9.78-1.164-4.26-5.628-6.787-9.972-5.646-4.343 1.141-6.92 5.52-5.757 9.78z" fill="#8D4D2A"/><path d="M102.29 103.395c-1.644 0-2.976 1.307-2.976 2.92 0 1.612 1.332 2.92 2.977 2.92v-5.84z" fill="#FDD204"/><path d="M148.563 89.893c0-12.74-10.411-23.165-23.136-23.165S102.29 77.152 102.29 89.893v22.238a16.475 16.475 0 0 0 8.543 14.444l4.707 2.584a20.541 20.541 0 0 0 19.772 0l4.707-2.584a16.477 16.477 0 0 0 8.544-14.444V89.893z" fill="#A46644"/><rect fill="#FFF" x="124" y="94" width="10" height="15" rx="4.5"/><rect fill="#FFF" x="107" y="94" width="10" height="15" rx="4.5"/><path d="M112.375 107.767h-.045a2.176 2.176 0 0 1-2.168-2.171v-6.364c0-1.194.976-2.17 2.168-2.17h.045c1.192 0 2.168.976 2.168 2.17v6.364c0 1.194-.976 2.17-2.168 2.17zM127.55 107.767h-.045a2.176 2.176 0 0 1-2.168-2.171v-6.364c0-1.194.975-2.17 2.168-2.17h.045c1.192 0 2.168.976 2.168 2.17v6.364c0 1.194-.976 2.17-2.168 2.17z" fill="#4B4B4B"/><path d="M119.405 110.548h-.066a3.162 3.162 0 0 1-3.151-3.155v-7.9a3.162 3.162 0 0 1 3.15-3.155h.067c1.733 0 3.15 1.42 3.15 3.155v7.9a3.162 3.162 0 0 1-3.15 3.155z" fill="#8D4D2A"/><path d="M151.54 106.315c0 1.612-1.333 2.92-2.977 2.92s-2.977-1.308-2.977-2.92c0-1.613 1.333-2.92 2.977-2.92s2.977 1.307 2.977 2.92z" fill="#FDD204"/><path d="M139.46 109.072h-13.614a3.296 3.296 0 0 1-3.29-3.295V94.259a3.296 3.296 0 0 1 3.29-3.294h13.614a3.296 3.296 0 0 1 3.29 3.294v11.518a3.296 3.296 0 0 1-3.29 3.295zm-13.614-16.46c-.907 0-1.645.739-1.645 1.647v11.517c0 .908.738 1.647 1.645 1.647h13.614c.907 0 1.645-.739 1.645-1.647V94.26c0-.908-.738-1.647-1.645-1.647h-13.614z" fill="#231F20"/></g><path d="M175.846 92.612c-.907 0-1.645.739-1.645 1.647v11.517c0 .908.738 1.647 1.645 1.647h13.614c.907 0 1.645-.739 1.645-1.647V94.26c0-.908-.738-1.647-1.645-1.647h-13.614z" fill-opacity=".25" fill="#FFF" fill-rule="nonzero"/><path d="M162.898 109.072h-8.962a3.296 3.296 0 0 1-3.29-3.295V94.259a3.296 3.296 0 0 1 3.29-3.294h8.962a3.296 3.296 0 0 1 3.29 3.294v11.518a3.296 3.296 0 0 1-3.29 3.295zm-8.962-16.46c-.907 0-1.645.739-1.645 1.647v11.517c0 .908.738 1.647 1.645 1.647h8.962c.907 0 1.645-.739 1.645-1.647V94.26c0-.908-.738-1.647-1.645-1.647h-8.962z" fill="#231F20" fill-rule="nonzero"/><path d="M153.936 92.612c-.907 0-1.645.739-1.645 1.647v11.517c0 .908.738 1.647 1.645 1.647h8.962c.907 0 1.645-.739 1.645-1.647V94.26c0-.908-.738-1.647-1.645-1.647h-8.962z" fill-opacity=".25" fill="#FFF" fill-rule="nonzero"/><path fill="#231F20" fill-rule="nonzero" d="M164.544 94.427h9.657v3.822h-9.657zM175.427 66.728c-7.865 0-14.843 3.984-19.028 10.035 1.945 5.45 7.131 9.357 13.242 9.357 1.501 0 2.944-.24 4.3-.675 2.614 6.473 8.94 11.044 16.341 11.044 2.995 0 5.811-.752 8.28-2.071v-4.525c.001-12.74-10.41-23.165-23.135-23.165z"/><path d="M189.411 63.907l-2.2 2.203c4.659 4.664 12.21 4.664 16.869 0l.94-.941a1.658 1.658 0 0 0-.21-2.514c-4.66-3.365-11.203-2.948-15.399 1.252z" fill="#FDD204" fill-rule="nonzero"/><path d="M182.608 52.958c-.726-.083-1.36.503-1.36 1.235v1.803c0 6.595 5.34 11.942 11.927 11.942v-3.115c0-6.135-4.62-11.19-10.567-11.865z" fill="#FDD204" fill-rule="nonzero"/><path d="M161.936 92.612h-3.94a2.616 2.616 0 0 1-2.606-2.61 2.616 2.616 0 0 1 2.607-2.61h3.94a2.616 2.616 0 0 1 2.606 2.61 2.616 2.616 0 0 1-2.607 2.61z" fill="#231F20" fill-rule="nonzero"/><path d="M166.838 115.403s5.469 2.334 12.88-1.922" stroke="#8A5436" stroke-width="3" stroke-linecap="round" stroke-linejoin="round"/><path d="M271.866 183.111h-44.43v14.074h44.43a1.969 1.969 0 0 0 1.968-1.97v-10.134a1.97 1.97 0 0 0-1.968-1.97z" fill="#7BC043" fill-rule="nonzero"/><path d="M200.155 184.342c0 .68.55 1.231 1.23 1.231h42.707v9.15h-42.708a1.23 1.23 0 0 0 0 2.463h43.2a1.969 1.969 0 0 0 1.968-1.97v-10.135c0-1.087-.881-1.97-1.968-1.97h-43.2c-.679 0-1.23.551-1.23 1.231z" fill="#52AE48" fill-rule="nonzero"/><path fill="#E9E1E2" fill-rule="nonzero" d="M202.286 185.573h41.806v9.15h-41.806z"/><path fill="#FFF" fill-rule="nonzero" d="M202.286 188.623h41.806v3.05h-41.806z"/><path d="M234.875 194.887l-1.676-1.562a.422.422 0 0 0-.576 0l-1.676 1.562a.45.45 0 0 1-.757-.33v-5.934h5.442v5.934a.45.45 0 0 1-.757.33z" fill="#EF4849" fill-rule="nonzero"/><path d="M267.61 191.673h-14.835a1.529 1.529 0 0 1-1.523-1.525c0-.839.685-1.525 1.523-1.525h14.835c.838 0 1.523.686 1.523 1.525 0 .84-.685 1.525-1.523 1.525z" fill="#52AE48" fill-rule="nonzero"/><path d="M271.866 169.037h-39.73v14.074h39.73a1.969 1.969 0 0 0 1.967-1.97v-10.134c0-1.088-.88-1.97-1.967-1.97z" fill="#43ADE1" fill-rule="nonzero"/><path d="M210.388 170.268c0 .68.55 1.231 1.23 1.231h37.175v9.15h-37.175a1.23 1.23 0 0 0 0 2.463h37.667a1.969 1.969 0 0 0 1.967-1.97v-10.135c0-1.088-.88-1.97-1.967-1.97h-37.667c-.68 0-1.23.551-1.23 1.231z" fill="#3D93CF" fill-rule="nonzero"/><path fill="#E9E1E2" fill-rule="nonzero" d="M212.52 171.5h36.273v9.15H212.52z"/><path fill="#FFF" fill-rule="nonzero" d="M212.52 174.549h36.273v3.05H212.52z"/><path d="M267.61 177.599h-10.135a1.529 1.529 0 0 1-1.523-1.525c0-.84.685-1.526 1.523-1.526h10.135c.838 0 1.523.687 1.523 1.526 0 .838-.685 1.525-1.523 1.525z" fill="#3D93CF" fill-rule="nonzero"/><path d="M166.322 191.327H116.68v5.858h46.405a4.548 4.548 0 0 0 4.545-4.55c0-.723-.585-1.308-1.307-1.308z" fill="#8EADC9" fill-rule="nonzero"/><path d="M112.5 142.477H37.228a3.06 3.06 0 0 0-2.953 3.854l12.547 46.884a5.351 5.351 0 0 0 5.168 3.97h75.27a3.06 3.06 0 0 0 2.954-3.853l-12.547-46.884a5.352 5.352 0 0 0-5.169-3.97z" fill="#8EADC9" fill-rule="nonzero"/><path d="M108.404 142.477h-75.27a3.06 3.06 0 0 0-2.954 3.854l12.547 46.884a5.351 5.351 0 0 0 5.169 3.97h75.27a3.06 3.06 0 0 0 2.954-3.853l-12.547-46.884a5.351 5.351 0 0 0-5.169-3.97z" fill="#ABC0D8" fill-rule="nonzero"/><path d="M85.688 170.597c-.827-4.591-5.216-8.313-9.801-8.313-4.586 0-7.632 3.722-6.805 8.313.828 4.591 5.216 8.313 9.802 8.313 4.585 0 7.632-3.722 6.804-8.313z" fill="#EBF2F4" fill-rule="nonzero"/><path d="M208.888 138.196c-5.665-1.686-11.623 1.547-13.307 7.219l-4.847 16.337 20.681 5.548 4.683-15.782c1.683-5.672-1.545-11.637-7.21-13.322z" fill="#FDD204" fill-rule="nonzero"/><path d="M190.734 161.752l-3.664 12.349c-.11.37-.477.6-.858.537-5.058-.846-37.317-6.227-40.242-6.511-3.231-.315-13.867-.675-19.632 6.708-1.165 1.493-1.025 3.785.456 4.964a3.434 3.434 0 0 0 4.883-.617c.781-1.032 1.97-2.11 3.002-2.648.067-.028.21-.067.337.041.157.135-.1.49-.1.49l.007.001c-2.053 2.518-3.728 5.836-3.99 10.1-.115 1.878 1.339 3.49 3.215 3.605l.108.007c1.884.115 3.424-1.339 3.545-3.225a10.461 10.461 0 0 1 1.377-4.546c.046-.049.124-.099.253-.045.214.09.129.354.129.354h.003c-.283 1.49-.32 3.217.062 5.214a3.443 3.443 0 0 0 4.791 2.496c1.472-.65 2.233-2.304 1.948-3.89a8.242 8.242 0 0 1-.125-1.138l39.413 10.614c1.451.39 2.909.575 4.345.575 7.368 0 14.133-4.892 16.201-12.309l5.215-17.576-20.68-5.55z" fill="#A46644" fill-rule="nonzero"/><path d="M308.492 210l-302.377-.386c-3.363 0-6.115-2.838-6.115-6.307C0 199.838 2.752 197 6.115 197l302.377.386c3.363 0 6.115 2.838 6.115 6.307 0 3.469-2.751 6.307-6.115 6.307z" fill="#4C4C4C" fill-rule="nonzero"/></g></g></svg>