<svg width="332" height="232" viewBox="0 30 332 232" version="1.1" xmlns="http://www.w3.org/2000/svg"><title>universal 1</title><g stroke="none" stroke-width="1" fill="none" fill-rule="evenodd"><g><g><g><path d="M298.329 89.422c0 17.66-14.308 31.976-31.957 31.976-17.65 0-31.958-14.316-31.958-31.976 0-17.66 14.308-31.976 31.958-31.976s31.957 14.317 31.957 31.976z" fill="#D1DDE1"/><path d="M293.918 89.422c0 17.66-14.308 31.976-31.958 31.976s-31.957-14.316-31.957-31.976c0-17.66 14.308-31.976 31.957-31.976 17.65 0 31.958 14.317 31.958 31.976z" fill="#E6EDEF"/><path d="M261.96 112.841c-12.962 0-23.495-10.538-23.495-23.509 0-12.97 10.533-23.509 23.495-23.509 12.963 0 23.496 10.539 23.496 23.51 0 12.97-10.533 23.508-23.496 23.508z" fill="#FFF"/><path d="M267.902 99.15h-13.233c-.72 0-1.35-.63-1.35-1.351v-1.08c0-.721.63-1.352 1.35-1.352h13.233c.72 0 1.35.63 1.35 1.351V97.8c0 .72-.63 1.351-1.35 1.351z" fill="#E6EDEF"/><path stroke="#3D3D3D" stroke-width="4.504" stroke-linecap="round" stroke-linejoin="round" d="M268.352 73.12l-6.392 16.302-6.301-9.637"/><path d="M263.4 37v9.368M280.775 42.224l-6.212 6.125M246.117 42.224l6.211 6.125" stroke="#CBEFF1" stroke-width="3.847" stroke-linecap="round"/></g><g><path d="M151.49 177.289H32.76l.149 89.97H168.26V193.92c0-9.148-7.48-16.632-16.77-16.632z" fill="#37B5D8"/><path d="M50.718 267.259V193.92c0-9.148-7.48-16.632-16.622-16.632s-16.622 7.484-16.622 16.632v73.338h33.244zM115.23 222.274a5.742 5.742 0 0 1-5.74 5.744 5.742 5.742 0 0 1-5.74-5.744 5.742 5.742 0 0 1 5.74-5.744c3.17 0 5.74 2.572 5.74 5.744zM101.735 216c-.38 0-.76-.145-1.05-.435l-4.304-4.307a1.485 1.485 0 0 1 2.099-2.1l4.304 4.307a1.485 1.485 0 0 1-1.05 2.534zM121.548 235.825c-.38 0-.76-.145-1.05-.435l-4.304-4.307a1.485 1.485 0 0 1 2.099-2.1l4.304 4.307a1.485 1.485 0 0 1-1.049 2.535zM97.43 235.825a1.485 1.485 0 0 1-1.05-2.535l4.305-4.307a1.485 1.485 0 0 1 2.099 2.1l-4.304 4.307c-.29.29-.67.435-1.05.435zM117.244 216a1.485 1.485 0 0 1-1.05-2.535l4.304-4.307a1.485 1.485 0 0 1 2.099 2.1l-4.304 4.307c-.29.29-.67.434-1.049.434z" fill="#77CEE6"/><path d="M89.474 257.065h66.93l-20.183-88.822H72.88l-7.124 10.195-15.643 7.572-5.747 31.436s15.606-2.72 22.289-3.88c1.337-.232 2.43 1.06 1.983 2.343L51.844 264.03c-.554 1.588.671 3.226 2.35 3.16 15.367-.604 27.011-5.155 35.28-10.126z" fill="#464646"/><path d="M219.462 155.857l-7.154 4.231c-2.607 1.506-5.971.604-7.476-2.004s-.604-5.975 2.003-7.48l7.154-4.231c2.607-1.506 5.97-.604 7.476 2.004 1.505 2.608.604 5.975-2.003 7.48zM208.846 147.133l-6.312 5.41c-2.305 1.936-5.775 1.632-7.71-.675-1.935-2.307-1.631-5.779.675-7.715l6.311-5.41c2.306-1.935 5.776-1.632 7.71.675 1.935 2.308 1.632 5.78-.674 7.715z" fill="#6A3B22"/><path d="M226.611 155.213c-.419-2.69-2.85-4.61-5.571-4.61h-12.61a2.943 2.943 0 0 1-2.666-1.672c-2.42-5.124-7.663-8.678-13.69-8.611-2.009.022-3.923.86-5.343 2.282l-23.539 23.553a7.123 7.123 0 0 1-5.037 2.088h-52.138c-7.392 0-13.74 6.05-13.696 13.446.014 2.4.66 4.65 1.78 6.592 2.309 4 6.629 6.692 11.576 6.692h60.893c3.022 0 5.81-1.005 8.048-2.699.515-.372 25.118-24.901 30.083-29.853a2.964 2.964 0 0 1 2.095-.865h14.41c3.295 0 5.934-2.952 5.405-6.343z" fill="#815035"/><path d="M176.39 152.95l18.87 18.88 6.03-6.008-18.883-18.894-6.016 6.021z" fill="#FFF"/><path d="M177.38 152.062l-14.433 14.441a5.896 5.896 0 0 1-4.198 1.74h-52.138c-3.946 0-7.828 1.629-10.649 4.468-2.753 2.771-4.257 6.384-4.235 10.173a14.556 14.556 0 0 0 1.94 7.18 14.596 14.596 0 0 0 12.604 7.285h60.892a14.39 14.39 0 0 0 8.743-2.924c.136-.098.526-.381 22.025-21.799l-20.552-20.564z" fill="#464646"/><path d="M129.742 244.719H84.437c-6.312 0-11.674 5.169-11.555 11.484.115 6.124 5.112 11.053 11.26 11.053h42.704c.71 0 1.287.577 1.287 1.288v59.7h22.523v-62.598c0-11.557-9.363-20.927-20.914-20.927z" fill="#231F20"/><path fill="#FFF" d="M81.979 168.242l15.984 56.85 17.796 15.019 9.083-17.908-14.508-53.96z"/><path d="M169.643 83.426c-14.285 1.25-24.852 13.852-23.602 28.145a25.864 25.864 0 0 0 4.976 13.167l-.608 6.922a2.572 2.572 0 0 0 3.229 2.71l6.706-1.8a25.83 25.83 0 0 0 13.824 2.617c14.284-1.25 24.851-13.851 23.601-28.144-1.249-14.294-13.842-24.867-28.126-23.617z" fill="#EBF2F4"/><path d="M113.109 178.605l-2.775-10.362H81.979l4.611 16.42a1.187 1.187 0 0 0 1.53.801l18.037-6.221c.407-.14.845-.168 1.266-.078l4.292.91a1.189 1.189 0 0 0 1.394-1.47z" fill="#E9E1E2"/><path d="M131.838 133.768c0 4.604-3.73 8.337-8.332 8.337s-8.332-3.733-8.332-8.337c0-4.604 3.73-8.337 8.332-8.337 4.601 0 8.332 3.733 8.332 8.337z" fill="#6A3B22"/><path d="M109.49 176.566l-22.114-4.692a2.97 2.97 0 0 1-1.898-2.038l-4.32-16.137 19.9-8.617 8.432 31.484z" fill="#815035"/><path d="M91.103 106.555c-13.908 3.979-21.849 18.644-18.105 32.624l2.82 10.533c3.77 14.08 18.234 22.435 32.305 18.663l11.323-3.036c7.818-2.096 12.457-10.137 10.362-17.959l-5.967-22.283c-3.808-14.224-18.532-22.606-32.738-18.542z" fill="#815035"/><path d="M98.824 124.359l-4.262 2.462a2.361 2.361 0 0 1-3.217-.863 2.364 2.364 0 0 1 .862-3.218l4.262-2.463a2.361 2.361 0 0 1 3.217.863 2.364 2.364 0 0 1-.862 3.219zM116.226 123.78l-4.753 1.275a2.361 2.361 0 0 1-2.884-1.666 2.363 2.363 0 0 1 1.665-2.886l4.754-1.274a2.361 2.361 0 0 1 2.884 1.666 2.363 2.363 0 0 1-1.666 2.886z" fill="#231F20"/><path d="M110.668 143.563a3.278 3.278 0 0 1-4.015-2.32l-2.34-8.737a3.278 3.278 0 1 1 6.333-1.698l2.34 8.737a3.28 3.28 0 0 1-2.318 4.018z" fill="#6A3B22"/><path d="M113.613 142.773l-5.889 1.58a2.422 2.422 0 0 1-2.958-1.71 2.424 2.424 0 0 1 1.708-2.96l5.888-1.579a2.422 2.422 0 0 1 2.959 1.71 2.424 2.424 0 0 1-1.708 2.96z" fill="#6A3B22"/><path d="M95.431 135.015l.458 1.707a3.531 3.531 0 0 0 4.312 2.491 3.534 3.534 0 0 0 2.49-4.315l-.457-1.707M111.558 130.742l.457 1.707a3.531 3.531 0 0 0 4.312 2.492 3.534 3.534 0 0 0 2.49-4.315l-.457-1.708" stroke="#61371E" stroke-width="2" stroke-linecap="round" stroke-linejoin="round"/><path d="M98.716 149.458l1.463 5.462c1.086 4.054 5.29 6.483 9.342 5.397l5.748-1.541c4.052-1.087 6.48-5.293 5.394-9.348l-1.463-5.462a1.652 1.652 0 0 0-2.024-1.17l-17.292 4.637a1.653 1.653 0 0 0-1.168 2.025z" fill="#7A1B1B"/><path d="M98.716 149.458l.679 2.533 16.81-4.507a1.461 1.461 0 0 0 1.034-1.79l-.728-2.719-16.627 4.458a1.653 1.653 0 0 0-1.168 2.025z" fill="#FFF"/><path d="M103.853 152.878a8.323 8.323 0 0 0-3.661 2.081c1.103 4.03 5.29 6.44 9.33 5.357l4.642-1.245c-.02-.09-.034-.18-.058-.27a8.372 8.372 0 0 0-10.253-5.923z" fill="#B73030"/><path d="M63.448 148.961a2.966 2.966 0 0 1-2.507-1.376c-4.038-6.351-.848-11.884 1.402-13.922a2.968 2.968 0 0 1 4.192.21 2.97 2.97 0 0 1-.184 4.172c-.47.454-2.637 2.834-.401 6.351a2.97 2.97 0 0 1-2.502 4.565z" fill="#6A3B22"/><path d="M94.425 163.622l-16.45 4.411a3.505 3.505 0 0 1-4.28-2.473l-9.861-36.822a3.508 3.508 0 0 1 2.471-4.284l16.45-4.41a3.505 3.505 0 0 1 4.281 2.473l9.86 36.822a3.508 3.508 0 0 1-2.47 4.283z" fill="#231F20"/><path d="M91.267 164.469l-16.45 4.41a3.505 3.505 0 0 1-4.28-2.472l-9.861-36.823a3.508 3.508 0 0 1 2.47-4.283l16.451-4.41a3.505 3.505 0 0 1 4.28 2.472l9.861 36.822a3.507 3.507 0 0 1-2.471 4.284z" fill="#464646"/><path d="M90.93 149.858c-1.99-1.645-3.96-2.688-5.764-3.34a.598.598 0 0 1-.38-.427l-.003-.012a.607.607 0 0 1 .72-.738c.36.076.732.176 1.117.305 1.825.612 3.901-.113 4.783-1.825a3.863 3.863 0 0 0-2.159-5.438c-3.718-1.288-6.9-1.185-9.445-.531-.444.114-.914.04-1.311-.19l-.006-.003c-.277-.159-.557-.303-.839-.441a15.667 15.667 0 0 1 5.776-1.114l.045.002c1.382-.016 2.206-.286 2.842-.835 3.259-2.816.284-6.884-2.847-6.889h-.042c-13.275 0-21.075 10.85-22.815 13.57l-.02.03c-.195.306-.314.51-.348.57L29.94 195.056c-3.326 5.764-1.81 13.906 3.597 17.783a13.35 13.35 0 0 0 19.386-4.156l30.447-52.766c.452-.77 1.479-.999 2.191-.462.177.133.355.275.534.425a3.863 3.863 0 0 0 5.872-1.113c.913-1.639.408-3.715-1.036-4.909z" fill="#815035"/><path fill="#FFF" d="M47.241 165.073l23.135 13.365 8.686-15.092-23.135-13.365z"/><path d="M50.369 154.9l-22.484 38.967c-4.016 6.958-2.1 16.336 4.27 20.902 2.713 1.946 5.891 2.975 9.19 2.975 5.609 0 10.834-3.017 13.636-7.874l22.053-38.219c.321-.558.13-1.27-.427-1.592L50.37 154.901zM91.727 235.825l-24.854-14.858-15.029 43.064c-.554 1.588.671 3.226 2.35 3.16 15.367-.605 27.785-2.512 47.912-23.111l-10.379-8.255z" fill="#464646"/><path d="M97.212 226.162c.178-.391.455-.705.791-.943L81.98 168.243h-5.735l-2.042 14.685a1.782 1.782 0 0 0 1.346 1.972l4.225 1.024c.438.106.603.641.301.975l-3.194 3.54a2.378 2.378 0 0 0-.268 2.824l20.255 33.765c.101-.291.214-.58.345-.866z" fill="#231F20"/><path d="M119.396 222.203l-10.471-34.965a4.763 4.763 0 0 1-.174-1.868l.618-5.794-1.945-.413a2.372 2.372 0 0 0-1.266.078l-4.965 1.712 3.546 4.564c.405.521.625 1.163.625 1.823v34.862h14.032z" fill="#B73030"/><path d="M126.883 190.88a2.375 2.375 0 0 0-.844-1.72l-3.55-2.99a1.189 1.189 0 0 1-.262-1.503l1.958-3.388a1.782 1.782 0 0 0-.245-2.113l-10.273-10.923h-3.334l14.51 53.96h3.333l-1.293-31.323z" fill="#231F20"/></g><g><path d="M194.445 243.537h47.44v6.755h-47.44a3.324 3.324 0 0 1-3.33-3.333c0-1.891 1.44-3.422 3.33-3.422z" fill="#4B4B4B"/><path d="M302.29 250.292h-75.258c-2.43 0-4.23-2.252-3.78-4.594l9.722-46.928c.63-3.242 3.51-5.584 6.841-5.584h73.997c3.061 0 5.402 2.792 4.772 5.855l-9.453 45.757c-.63 3.152-3.51 5.494-6.841 5.494z" fill="#4B4B4B"/><path d="M306.79 250.292h-75.257c-2.43 0-4.23-2.252-3.78-4.594l9.722-46.928c.63-3.242 3.51-5.584 6.841-5.584h73.998c3.06 0 5.4 2.792 4.77 5.855l-9.452 45.757c-.72 3.152-3.51 5.494-6.841 5.494z" fill="#676262"/><path d="M281.321 216.384c2.398 2.66 1.708 7.192-1.54 10.124-3.25 2.933-7.826 3.154-10.224.494-2.398-2.66-1.708-7.192 1.54-10.124 3.25-2.932 7.826-3.153 10.224-.494z" fill="#999"/><path d="M248.277 217.956h13.954c.81 0 1.53-.72 1.53-1.531v-14.862h-17.014v14.862c0 .81.72 1.53 1.53 1.53z" fill="#5B5656"/><path d="M251.428 215.974h13.773c.99 0 1.71-.9 1.53-1.891l-2.97-12.52h-17.014l3.15 13.24c.18.63.81 1.171 1.531 1.171z" fill="#FFD201"/><path d="M246.747 201.563h17.014v-1.081c0-.81-.63-1.531-1.53-1.531h-14.044c-.81 0-1.53.63-1.53 1.53v1.082h.09z" fill="#FFB701"/></g><path fill="#FFF" d="M9.542 261.071H432.64v134.208H9.542z"/><path d="M315.492 262l-302.377-.386c-3.363 0-6.115-2.838-6.115-6.307C7 251.838 9.752 249 13.115 249l302.377.386c3.363 0 6.115 2.838 6.115 6.307 0 3.469-2.751 6.307-6.115 6.307z" fill="#F58F00"/></g></g></g></svg>