<svg width="184" height="205" viewBox="0 0 184 205" version="1.1" xmlns="http://www.w3.org/2000/svg" xmlns:xlink="http://www.w3.org/1999/xlink"><title>fun</title><defs><ellipse id="a" cx="55.965" cy="55.984" rx="55.965" ry="55.984"/><path d="M57.885.032a55.65 55.65 0 0 1 27.228 8.151L34.199 59.114C29.316 64 21.399 64 16.514 59.117a10.632 10.632 0 0 1-.003-.003c-4.885-4.886-4.885-12.807 0-17.694L57.885.032z" id="b"/><path d="M51.179 111.766a55.624 55.624 0 0 1-25.72-8.84l77.432-77.46a55.668 55.668 0 0 1 8.836 25.726L51.18 111.766z" id="c"/><path d="M28.855 70.716c15.936 0 28.854-13.318 28.854-29.747C57.71 24.539 44.791 0 28.855 0S0 24.54 0 40.969c0 16.429 12.919 29.747 28.855 29.747z" id="d"/></defs><g stroke="none" stroke-width="1" fill="none" fill-rule="evenodd"><g><g><g><g fill="#1CB0F6" fill-rule="nonzero" transform="rotate(15 -416.936 289.587)"><ellipse cx="39.192" cy="39.205" rx="39.192" ry="39.205"/></g><g><g><g><path d="M80.965 148.135c.903-3.369 4.427-5.352 7.872-4.43l6.237 1.672-4.205 15.693-12.474-3.343 2.57-9.592zM109.454 172.006c2.673-.163 5.046-1.966 5.764-4.644l2.57-9.592-6.237-1.67c-3.445-.924-6.969 1.06-7.871 4.429l-4.965 18.53c-.903 3.369 1.156 6.848 4.602 7.772l6.237 1.67 2.57-9.591c.717-2.678-.437-5.426-2.67-6.904z" fill="#3BE2E2"/><g transform="rotate(15 -512.547 335.555)"><path d="M5.303 26.565h5.907v-9.167a3.45 3.45 0 0 0-3.45-3.451H.041C.622 6.147 7.135 0 15.082 0H22.3c8.33 0 15.083 6.753 15.083 15.083s-6.753 15.082-15.083 15.082h-7.216a15.023 15.023 0 0 1-9.78-3.6z" fill="#29FFFF"/><rect fill="#006595" fill-rule="nonzero" opacity=".6" x="16.633" y="6.469" width="5.18" height="8.941" rx="2.59"/></g><path d="M86.936 184.799c2.265-1.275 2.99-4.188 1.618-6.505-1.372-2.318-7.519-4.307-7.893-4.096-.375.21-1.682 6.396-.31 8.713 1.371 2.318 4.32 3.163 6.585 1.888z" fill="#3BE2E2"/></g><path d="M65.87 157.425l4.346 1.164c3.925 1.052 6.272 5.017 5.243 8.857l-.975 3.642c-.644 2.4-1.903 3.04-4.272 2.404l-5.36-1.436" stroke="#3BE2E2" stroke-width="4.141" stroke-linecap="round" stroke-linejoin="round"/></g></g></g><g><g fill="#FC4848" fill-rule="nonzero"><g><g transform="rotate(-15 308.865 -237.25)"><ellipse cx="50.007" cy="50.024" rx="50.007" ry="50.024"/></g></g></g><g transform="rotate(-15 368.99 -321.433)"><rect fill="#823F1B" x="3.995" y="35.736" width="50.609" height="12.137" rx="3.352"/><path d="M9.345 47.872h39.91c1.851 0 3.352 1.501 3.352 3.352v.713c0 1.852-1.5 3.352-3.352 3.352H9.345a3.352 3.352 0 0 1-3.352-3.352v-.713c0-1.85 1.5-3.352 3.352-3.352z" fill="#F3B96C"/><path d="M32.63 42.815l13.984-7.08H11.986l13.983 7.08a7.374 7.374 0 0 0 6.662 0z" fill="#FFBC00"/><g transform="rotate(-8 55.563 -.462)"><path d="M.333 21.926l3.302 1.046a10.122 10.122 0 0 0 9.35-1.72 6.784 6.784 0 0 1 8.435 0 6.784 6.784 0 0 0 8.435 0 6.784 6.784 0 0 1 8.435 0 10.122 10.122 0 0 0 9.35 1.72l3.302-1.046" stroke="#90FF00" stroke-width="6.033" stroke-linecap="round" stroke-linejoin="round"/><path d="M11.783 0h27.71c5.771 0 10.45 4.68 10.45 10.451v7.1c0 1.85-1.5 3.351-3.352 3.351H4.684a3.352 3.352 0 0 1-3.352-3.352v-7.099C1.332 4.679 6.01 0 11.782 0z" fill="#F3B96C"/><rect fill="#FFCF8F" x="12.652" y="3.371" width="7.325" height="2.697" rx="1.349"/><path d="M32.646 3.371h4.628a1.349 1.349 0 1 1 0 2.697h-4.628a1.349 1.349 0 1 1 0-2.697zM23.324 8.091h4.628a1.349 1.349 0 1 1 0 2.697h-4.628a1.349 1.349 0 0 1 0-2.697z" fill="#FFCF8F"/></g></g></g><g><g><g><g transform="rotate(15 54.081 58.826)"><mask fill="#fff"><use xlink:href="#a"/></mask><use fill="#FFD300" xlink:href="#a"/><mask fill="#fff"><use xlink:href="#b"/></mask><use fill="#FFDE00" xlink:href="#b"/><mask fill="#fff"><use xlink:href="#c"/></mask><use fill="#FFDE00" xlink:href="#c"/></g></g><g><g transform="rotate(15 -32.018 150.735)"><mask id="e" fill="#fff"><use xlink:href="#d"/></mask><use fill="#FFB100" xlink:href="#d"/><ellipse fill="#F89700" mask="url(#e)" cx="44.013" cy="66.194" rx="11.568" ry="11.923"/><ellipse fill="#F89700" mask="url(#e)" cx="5.452" cy="14.938" rx="11.568" ry="11.923"/><ellipse fill="#F89700" mask="url(#e)" cx="18.084" cy="47.967" rx="10.106" ry="10.416"/><ellipse fill="#F89700" mask="url(#e)" cx="46.407" cy="18.501" rx="14.228" ry="14.664"/></g></g></g></g></g></g></g></svg>