<?xml version="1.0" encoding="utf-8"?>
<!-- Generator: Adobe Illustrator 25.0.1, SVG Export Plug-In . SVG Version: 6.00 Build 0)  -->
<svg version="1.1" id="katman_1" xmlns="http://www.w3.org/2000/svg" xmlns:xlink="http://www.w3.org/1999/xlink" x="0px" y="0px"
	 viewBox="0 0 78 62.2" style="enable-background:new 0 0 78 62.2;" xml:space="preserve">
<style type="text/css">
	.st0{fill-rule:evenodd;clip-rule:evenodd;fill:#EEEEEE;stroke:#FFFFFF;stroke-width:4;}
	.st1{fill-rule:evenodd;clip-rule:evenodd;fill:#FF4B4B;}
	.st2{fill-rule:evenodd;clip-rule:evenodd;fill:#1CB0F6;}
	.st3{fill:#FFFFFF;}
	.st4{fill-rule:evenodd;clip-rule:evenodd;fill:#FF4B4B;stroke:#FFFFFF;stroke-width:4;}
	.st5{fill-rule:evenodd;clip-rule:evenodd;fill:#FFC800;}
	.st6{fill-rule:evenodd;clip-rule:evenodd;fill:#FFFFFF;}
	.st7{fill:#EEEEEE;stroke:#FFFFFF;stroke-width:4;}
	.st8{fill:#1CB0F6;}
	.st9{fill:#FF4B4B;}
	.st10{fill:#FF4B4B;stroke:#FFFFFF;stroke-width:4;}
	.st11{fill:#FFC800;}
	.st12{fill:#4C4C4C;}
	.st13{fill:#78C800;}
	.st14{fill:#FFC300;}
	.st15{fill:#1CB0F6;stroke:#FFFFFF;stroke-width:4;}
	.st16{fill:#EEEEEE;}
	.st17{fill:#78C800;stroke:#FFFFFF;stroke-width:4;}
	.st18{fill:#FF9600;}
	.st19{fill-rule:evenodd;clip-rule:evenodd;fill:#EEEEEE;}
	.st20{fill:#4B4B4B;stroke:#FFFFFF;stroke-width:4;}
	.st21{fill:#FFC300;stroke:#FFFFFF;stroke-width:4;}
	.st22{fill:#7AC70C;}
	.st23{fill:#4B4B4B;}
	.st24{fill:#7AC70C;stroke:#FFFFFF;stroke-width:4;}
	.st25{fill-rule:evenodd;clip-rule:evenodd;fill:#1899D6;}
	.st26{fill:#1899D6;}
	.st27{fill:#FFCE8E;stroke:#FFFFFF;stroke-width:4;}
	.st28{fill:none;stroke:#FFFFFF;stroke-width:3.2;}
	.st29{fill:none;stroke:#7AC70C;stroke-width:6.4;stroke-linecap:round;stroke-linejoin:round;}
	.st30{fill:none;stroke:#FFFFFF;}
	.st31{fill-rule:evenodd;clip-rule:evenodd;fill:#7AC70C;}
	
		.st32{fill-rule:evenodd;clip-rule:evenodd;fill:#FFFFFF;stroke:#FFFFFF;stroke-width:0.7587;stroke-linecap:round;stroke-linejoin:round;}
	.st33{fill-rule:evenodd;clip-rule:evenodd;fill:#FFD300;}
	.st34{fill:#FFC800;stroke:#FFFFFF;stroke-width:4;}
	.st35{fill-rule:evenodd;clip-rule:evenodd;fill:#FF9600;}
	.st36{fill:#8EE000;}
	.st37{fill-rule:evenodd;clip-rule:evenodd;fill:#8EE000;}
	.st38{fill-rule:evenodd;clip-rule:evenodd;fill:#4B4B4B;}
	.st39{fill-rule:evenodd;clip-rule:evenodd;fill:#F48000;}
	.st40{fill:#FFC200;}
	.st41{fill-rule:evenodd;clip-rule:evenodd;fill:#FFE747;}
	.st42{fill:#C7C7C7;}
	.st43{fill:#F34848;}
	.st44{fill:#D73A3A;}
	.st45{fill:#D8D8D8;}
	.st46{fill-rule:evenodd;clip-rule:evenodd;fill:#A560E8;}
	.st47{fill-rule:evenodd;clip-rule:evenodd;fill:#8F50D8;}
	.st48{fill-rule:evenodd;clip-rule:evenodd;fill:#FFD836;}
	.st49{fill-rule:evenodd;clip-rule:evenodd;fill:#FFC715;}
	.st50{fill-rule:evenodd;clip-rule:evenodd;fill:#2788E0;}
	.st51{fill-rule:evenodd;clip-rule:evenodd;fill:#4495FF;}
	.st52{fill-rule:evenodd;clip-rule:evenodd;fill:#723A0F;}
	.st53{fill-rule:evenodd;clip-rule:evenodd;fill:#97501A;}
	.st54{fill-rule:evenodd;clip-rule:evenodd;fill:#FD937E;}
	.st55{fill:none;stroke:#97501A;stroke-width:2.3306;stroke-linecap:round;stroke-linejoin:round;}
	.st56{fill:none;stroke:#97501A;stroke-width:1.4568;stroke-linecap:round;stroke-linejoin:round;}
	.st57{fill-rule:evenodd;clip-rule:evenodd;fill:#FFB5A1;}
	.st58{fill-rule:evenodd;clip-rule:evenodd;fill:#E58D7F;}
	.st59{fill-rule:evenodd;clip-rule:evenodd;fill:#FF9D8A;}
	.st60{fill:none;stroke:#97501A;stroke-width:2;}
	.st61{fill-rule:evenodd;clip-rule:evenodd;fill:#FFB5A1;stroke:#97501A;stroke-width:3;}
	.st62{fill-rule:evenodd;clip-rule:evenodd;fill:#FFCBBD;}
	.st63{fill:#F9F9F9;}
	.st64{fill:#039CE5;}
	.st65{fill:none;stroke:#FFD300;stroke-width:2.6452;stroke-linecap:round;stroke-linejoin:round;}
	.st66{fill:none;stroke:#FFFFFF;stroke-width:4;}
	.st67{filter:url(#Adobe_OpacityMaskFilter);}
	.st68{mask:url(#mask-2_1_);fill:#EEEEEE;}
	.st69{fill:#1254A9;stroke:#FFFFFF;stroke-width:4;}
</style>
<g id="en">
	<g id="Group" transform="translate(6.000000, 6.000000)">
		<path id="Rectangle-3" class="st0" d="M55.4-3.8H10.6c-4.9,0-6.7,0.6-8.5,1.5c-2,1-3.5,2.6-4.5,4.5C-3.4,4-4,5.8-4,10.7v28.9
			c0,4.9,0.6,6.7,1.5,8.5c1,2,2.6,3.5,4.5,4.5c1.8,1,3.6,1.5,8.5,1.5h44.9c4.9,0,6.7-0.6,8.5-1.5c2-1,3.5-2.6,4.5-4.5
			c1-1.8,1.5-3.6,1.5-8.5V10.7c0-4.9-0.6-6.7-1.5-8.5c-1-2-2.6-3.5-4.5-4.5C62.1-3.3,60.4-3.8,55.4-3.8z"/>
		<path id="Path" class="st1" d="M10.6-1.8h44.9c4.4,0,6,0.5,7.5,1.3c1.6,0.9,2.9,2.1,3.7,3.7c0.2,0.3,0.3,0.6,0.5,1H-1.2
			c0.1-0.3,0.3-0.7,0.5-1C0.2,1.6,1.4,0.3,3-0.5S6.2-1.8,10.6-1.8z"/>
		<path id="Path_1_" class="st1" d="M68,10.2c0,0.2,0,0.4,0,0.6v5.4H-2v-5.4c0-0.2,0-0.4,0-0.6H68z"/>
		<polygon id="Path_2_" class="st1" points="68,22.2 68,28.2 -2,28.2 -2,22.2 		"/>
		<path id="Path_3_" class="st1" d="M68,39.6c0,0.2,0,0.4,0,0.6H-2c0-0.2,0-0.4,0-0.6v-5.4h70V39.6z"/>
		<path id="Path_4_" class="st1" d="M67.2,46.2c-0.1,0.3-0.3,0.7-0.5,1c-0.9,1.6-2.1,2.9-3.7,3.7c-1.6,0.9-3.2,1.3-7.5,1.3H10.6
			c-4.4,0-6-0.5-7.5-1.3c-1.6-0.9-2.9-2.1-3.7-3.7c-0.2-0.3-0.3-0.6-0.5-1H67.2z"/>
		<path id="Path_5_" class="st2" d="M10.6-1.8H33v24H-2V10.7c0-4.4,0.5-6,1.3-7.5S1.4,0.3,3-0.5S6.2-1.8,10.6-1.8z"/>
		<path id="Star-Copy" class="st3" d="M25.8,7.8l-1.3,0.7c-0.4,0.2-0.9,0.1-1.1-0.3c-0.1-0.2-0.1-0.3-0.1-0.5l0.2-1.4
			c0-0.1,0-0.3-0.1-0.4l-1-1c-0.3-0.3-0.3-0.8,0-1.2c0.1-0.1,0.3-0.2,0.5-0.2l1.4-0.2c0.1,0,0.3-0.1,0.3-0.2l0.6-1.3
			c0.2-0.4,0.7-0.6,1.1-0.4c0.2,0.1,0.3,0.2,0.4,0.4l0.6,1.3c0.1,0.1,0.2,0.2,0.3,0.2l1.4,0.2c0.4,0.1,0.8,0.5,0.7,0.9
			c0,0.2-0.1,0.3-0.2,0.5l-1,1c-0.1,0.1-0.1,0.2-0.1,0.4l0.2,1.4C28.7,8,28.4,8.4,28,8.5c-0.2,0-0.4,0-0.5-0.1l-1.3-0.7
			C26.1,7.7,25.9,7.7,25.8,7.8z"/>
		<path id="Star-Copy-4" class="st3" d="M25.8,17.8l-1.3,0.7c-0.4,0.2-0.9,0.1-1.1-0.3c-0.1-0.2-0.1-0.3-0.1-0.5l0.2-1.4
			c0-0.1,0-0.3-0.1-0.4l-1-1c-0.3-0.3-0.3-0.8,0-1.2c0.1-0.1,0.3-0.2,0.5-0.2l1.4-0.2c0.1,0,0.3-0.1,0.3-0.2l0.6-1.3
			c0.2-0.4,0.7-0.6,1.1-0.4c0.2,0.1,0.3,0.2,0.4,0.4l0.6,1.3c0.1,0.1,0.2,0.2,0.3,0.2l1.4,0.2c0.4,0.1,0.8,0.5,0.7,0.9
			c0,0.2-0.1,0.3-0.2,0.5l-1,1c-0.1,0.1-0.1,0.2-0.1,0.4l0.2,1.4c0.1,0.4-0.2,0.9-0.7,0.9c-0.2,0-0.4,0-0.5-0.1l-1.3-0.7
			C26.1,17.7,25.9,17.7,25.8,17.8z"/>
		<path id="Star-Copy-2" class="st3" d="M15.8,7.8l-1.3,0.7c-0.4,0.2-0.9,0.1-1.1-0.3c-0.1-0.2-0.1-0.3-0.1-0.5l0.2-1.4
			c0-0.1,0-0.3-0.1-0.4l-1-1c-0.3-0.3-0.3-0.8,0-1.2c0.1-0.1,0.3-0.2,0.5-0.2l1.4-0.2c0.1,0,0.3-0.1,0.3-0.2l0.6-1.3
			c0.2-0.4,0.7-0.6,1.1-0.4c0.2,0.1,0.3,0.2,0.4,0.4l0.6,1.3c0.1,0.1,0.2,0.2,0.3,0.2l1.4,0.2c0.4,0.1,0.8,0.5,0.7,0.9
			c0,0.2-0.1,0.3-0.2,0.5l-1,1c-0.1,0.1-0.1,0.2-0.1,0.4l0.2,1.4C18.7,8,18.4,8.4,18,8.5c-0.2,0-0.4,0-0.5-0.1l-1.3-0.7
			C16.1,7.7,15.9,7.7,15.8,7.8z"/>
		<path id="Star-Copy-5" class="st3" d="M15.8,17.8l-1.3,0.7c-0.4,0.2-0.9,0.1-1.1-0.3c-0.1-0.2-0.1-0.3-0.1-0.5l0.2-1.4
			c0-0.1,0-0.3-0.1-0.4l-1-1c-0.3-0.3-0.3-0.8,0-1.2c0.1-0.1,0.3-0.2,0.5-0.2l1.4-0.2c0.1,0,0.3-0.1,0.3-0.2l0.6-1.3
			c0.2-0.4,0.7-0.6,1.1-0.4c0.2,0.1,0.3,0.2,0.4,0.4l0.6,1.3c0.1,0.1,0.2,0.2,0.3,0.2l1.4,0.2c0.4,0.1,0.8,0.5,0.7,0.9
			c0,0.2-0.1,0.3-0.2,0.5l-1,1c-0.1,0.1-0.1,0.2-0.1,0.4l0.2,1.4c0.1,0.4-0.2,0.9-0.7,0.9c-0.2,0-0.4,0-0.5-0.1l-1.3-0.7
			C16.1,17.7,15.9,17.7,15.8,17.8z"/>
		<path id="Star-Copy-3" class="st3" d="M5.8,7.8L4.5,8.4C4.1,8.6,3.6,8.5,3.4,8.1C3.3,7.9,3.3,7.7,3.3,7.6l0.2-1.4
			c0-0.1,0-0.3-0.1-0.4l-1-1c-0.3-0.3-0.3-0.8,0-1.2c0.1-0.1,0.3-0.2,0.5-0.2l1.4-0.2c0.1,0,0.3-0.1,0.3-0.2l0.6-1.3
			C5.5,1.2,6,1.1,6.4,1.3c0.2,0.1,0.3,0.2,0.4,0.4l0.6,1.3c0.1,0.1,0.2,0.2,0.3,0.2l1.4,0.2c0.4,0.1,0.8,0.5,0.7,0.9
			c0,0.2-0.1,0.3-0.2,0.5l-1,1C8.4,5.9,8.4,6,8.4,6.1l0.2,1.4C8.7,8,8.4,8.4,8,8.5c-0.2,0-0.4,0-0.5-0.1L6.2,7.8
			C6.1,7.7,5.9,7.7,5.8,7.8z"/>
		<path id="Star-Copy-6" class="st3" d="M5.8,17.8l-1.3,0.7c-0.4,0.2-0.9,0.1-1.1-0.3c-0.1-0.2-0.1-0.3-0.1-0.5l0.2-1.4
			c0-0.1,0-0.3-0.1-0.4l-1-1c-0.3-0.3-0.3-0.8,0-1.2c0.1-0.1,0.3-0.2,0.5-0.2l1.4-0.2c0.1,0,0.3-0.1,0.3-0.2l0.6-1.3
			c0.2-0.4,0.7-0.6,1.1-0.4c0.2,0.1,0.3,0.2,0.4,0.4l0.6,1.3c0.1,0.1,0.2,0.2,0.3,0.2l1.4,0.2c0.4,0.1,0.8,0.5,0.7,0.9
			c0,0.2-0.1,0.3-0.2,0.5l-1,1c-0.1,0.1-0.1,0.2-0.1,0.4l0.2,1.4C8.7,18,8.4,18.4,8,18.5c-0.2,0-0.4,0-0.5-0.1l-1.3-0.7
			C6.1,17.7,5.9,17.7,5.8,17.8z"/>
	</g>
</g>
<g id="es">
	<g id="Group_1_" transform="translate(6.000000, 6.000000)">
		<path id="Rectangle-3_1_" class="st4" d="M55.4,62.2H10.6c-4.9,0-6.7,0.6-8.5,1.5c-2,1-3.5,2.6-4.5,4.5C-3.4,70-4,71.8-4,76.7
			v28.9c0,4.9,0.6,6.7,1.5,8.5c1,2,2.6,3.5,4.5,4.5c1.8,1,3.6,1.5,8.5,1.5h44.9c4.9,0,6.7-0.6,8.5-1.5c2-1,3.5-2.6,4.5-4.5
			c1-1.8,1.5-3.6,1.5-8.5V76.7c0-4.9-0.6-6.7-1.5-8.5c-1-2-2.6-3.5-4.5-4.5C62.1,62.7,60.4,62.2,55.4,62.2z"/>
		<polygon id="Rectangle-4" class="st5" points="-2,79.6 68,79.6 68,102.7 -2,102.7 		"/>
		<path id="Rectangle-14" class="st6" d="M25.2,85.4c1.1,0,1.9,0.9,1.9,1.9V95c0,1.1-0.9,1.9-1.9,1.9c-1.1,0-1.9-0.9-1.9-1.9v-7.7
			C23.3,86.2,24.1,85.4,25.2,85.4z"/>
		<path id="Rectangle-14-Copy" class="st6" d="M5.8,85.4c1.1,0,1.9,0.9,1.9,1.9V95c0,1.1-0.9,1.9-1.9,1.9S3.8,96.1,3.8,95v-7.7
			C3.8,86.2,4.7,85.4,5.8,85.4z"/>
		<path id="Rectangle-15" class="st1" d="M11.4,83.4h8.2c1,0,1.8,0.8,1.8,1.8V93c0,3.2-2.6,5.8-5.8,5.8S9.7,96.3,9.7,93v-7.8
			C9.7,84.2,10.4,83.4,11.4,83.4z"/>
	</g>
</g>
<g id="fr">
	<g id="Group_2_" transform="translate(6.000000, 6.000000)">
		<path id="Rectangle-3_2_" class="st7" d="M55.4,128.2H10.6c-4.9,0-6.7,0.6-8.5,1.5c-2,1-3.5,2.6-4.5,4.5c-1,1.8-1.5,3.6-1.5,8.5
			v28.9c0,4.9,0.6,6.7,1.5,8.5c1,2,2.6,3.5,4.5,4.5c1.8,1,3.6,1.5,8.5,1.5h44.9c4.9,0,6.7-0.6,8.5-1.5c2-1,3.5-2.6,4.5-4.5
			c1-1.8,1.5-3.6,1.5-8.5v-28.9c0-4.9-0.6-6.7-1.5-8.5c-1-2-2.6-3.5-4.5-4.5C62.1,128.7,60.4,128.2,55.4,128.2z"/>
		<path id="Path_6_" class="st8" d="M21.6,130.2v54H10.6c-4.4,0-6-0.5-7.5-1.3c-1.6-0.9-2.9-2.1-3.7-3.7S-2,176-2,171.6v-28.9
			c0-4.4,0.5-6,1.3-7.5c0.9-1.6,2.1-2.9,3.7-3.7c1.6-0.9,3.2-1.3,7.5-1.3H21.6z"/>
		<path id="Path_7_" class="st9" d="M44.4,130.2h11.1c4.4,0,6,0.5,7.5,1.3c1.6,0.9,2.9,2.1,3.7,3.7c0.9,1.6,1.3,3.2,1.3,7.5v28.9
			c0,4.4-0.5,6-1.3,7.5s-2.1,2.9-3.7,3.7c-1.6,0.9-3.2,1.3-7.5,1.3H44.4V130.2z"/>
	</g>
</g>
<g id="de">
	<g id="Group_3_" transform="translate(6.000000, 6.000000)">
		<path id="Rectangle-3_3_" class="st10" d="M55.4,194.2H10.6c-4.9,0-6.7,0.6-8.5,1.5c-2,1-3.5,2.6-4.5,4.5c-1,1.8-1.5,3.6-1.5,8.5
			v28.9c0,4.9,0.6,6.7,1.5,8.5c1,2,2.6,3.5,4.5,4.5c1.8,1,3.6,1.5,8.5,1.5h44.9c4.9,0,6.7-0.6,8.5-1.5c2-1,3.5-2.6,4.5-4.5
			c1-1.8,1.5-3.6,1.5-8.5v-28.9c0-4.9-0.6-6.7-1.5-8.5c-1-2-2.6-3.5-4.5-4.5C62.1,194.7,60.4,194.2,55.4,194.2z"/>
		<path id="Path_8_" class="st11" d="M68,232.2v5.4c0,4.4-0.5,6-1.3,7.5s-2.1,2.9-3.7,3.7c-1.6,0.9-3.2,1.3-7.5,1.3H10.6
			c-4.4,0-6-0.5-7.5-1.3c-1.6-0.9-2.9-2.1-3.7-3.7S-2,242-2,237.6v-5.4H68z"/>
		<path id="Path_9_" class="st12" d="M10.6,196.2h44.9c4.4,0,6,0.5,7.5,1.3c1.6,0.9,2.9,2.1,3.7,3.7c0.9,1.6,1.3,3.2,1.3,7.5v5.4H-2
			v-5.4c0-4.4,0.5-6,1.3-7.5c0.9-1.6,2.1-2.9,3.7-3.7C4.6,196.6,6.2,196.2,10.6,196.2z"/>
	</g>
</g>
<g id="ja">
	<g id="Group_4_" transform="translate(6.000000, 6.000000)">
		<path id="Rectangle-3_4_" class="st0" d="M55.4,260.2H10.6c-4.9,0-6.7,0.6-8.5,1.5c-2,1-3.5,2.6-4.5,4.5c-1,1.8-1.5,3.6-1.5,8.5
			v28.9c0,4.9,0.6,6.7,1.5,8.5c1,2,2.6,3.5,4.5,4.5c1.8,1,3.6,1.5,8.5,1.5h44.9c4.9,0,6.7-0.6,8.5-1.5c2-1,3.5-2.6,4.5-4.5
			c1-1.8,1.5-3.6,1.5-8.5v-28.9c0-4.9-0.6-6.7-1.5-8.5c-1-2-2.6-3.5-4.5-4.5C62.1,260.7,60.4,260.2,55.4,260.2z"/>
		<circle id="Oval-19" class="st9" cx="33" cy="289.2" r="14"/>
	</g>
</g>
<g id="it">
	<g id="Group_5_" transform="translate(6.000000, 6.000000)">
		<path id="Rectangle-3_5_" class="st7" d="M55.4,326.2H10.6c-4.9,0-6.7,0.6-8.5,1.5c-2,1-3.5,2.6-4.5,4.5c-1,1.8-1.5,3.6-1.5,8.5
			v28.9c0,4.9,0.6,6.7,1.5,8.5c1,2,2.6,3.5,4.5,4.5c1.8,1,3.6,1.5,8.5,1.5h44.9c4.9,0,6.7-0.6,8.5-1.5c2-1,3.5-2.6,4.5-4.5
			c1-1.8,1.5-3.6,1.5-8.5v-28.9c0-4.9-0.6-6.7-1.5-8.5c-1-2-2.6-3.5-4.5-4.5C62.1,326.7,60.4,326.2,55.4,326.2z"/>
		<path id="Path_10_" class="st13" d="M21.6,328.2v54H10.6c-4.4,0-6-0.5-7.5-1.3c-1.6-0.9-2.9-2.1-3.7-3.7c-0.9-1.6-1.3-3.2-1.3-7.5
			v-28.9c0-4.4,0.5-6,1.3-7.5c0.9-1.6,2.1-2.9,3.7-3.7s3.2-1.3,7.5-1.3H21.6z"/>
		<path id="Path_11_" class="st9" d="M44.4,328.2h11.1c4.4,0,6,0.5,7.5,1.3c1.6,0.9,2.9,2.1,3.7,3.7c0.9,1.6,1.3,3.2,1.3,7.5v28.9
			c0,4.4-0.5,6-1.3,7.5c-0.9,1.6-2.1,2.9-3.7,3.7c-1.6,0.9-3.2,1.3-7.5,1.3H44.4V328.2z"/>
	</g>
</g>
<g id="ko">
	<g id="Group_6_" transform="translate(6.000000, 6.000000)">
		<path id="Rectangle-3_6_" class="st0" d="M55.4,392.2H10.6c-4.9,0-6.7,0.6-8.5,1.5c-2,1-3.5,2.6-4.5,4.5c-1,1.8-1.5,3.6-1.5,8.5
			v28.9c0,4.9,0.6,6.7,1.5,8.5c1,2,2.6,3.5,4.5,4.5c1.8,1,3.6,1.5,8.5,1.5h44.9c4.9,0,6.7-0.6,8.5-1.5c2-1,3.5-2.6,4.5-4.5
			c1-1.8,1.5-3.6,1.5-8.5v-28.9c0-4.9-0.6-6.7-1.5-8.5c-1-2-2.6-3.5-4.5-4.5C62.1,392.7,60.4,392.2,55.4,392.2z"/>
		<circle id="Oval-19_1_" class="st9" cx="33" cy="421.2" r="13"/>
		<path id="Path_12_" class="st8" d="M20,421.7c2.2,2.3,4.4,3.5,6.6,3.5c2.2,0,4.3-1.2,6.4-3.5c2-2.3,4.1-3.5,6.3-3.5
			c2.2,0,4.4,1.1,6.6,3.2c-0.1,7.1-5.9,12.8-13,12.8C26,434.2,20.3,428.6,20,421.7z"/>
		<path id="Path_13_" class="st12" d="M15,441.8L6.3,433c-0.5-0.5-0.5-1.3,0-1.9c0.5-0.5,1.3-0.5,1.9,0l8.8,8.8
			c0.5,0.5,0.5,1.3,0,1.9C16.4,442.3,15.6,442.3,15,441.8z"/>
		<path id="Path_14_" class="st12" d="M54.5,414.6l-3.2-3.2c-0.5-0.5-0.5-1.3,0-1.9s1.3-0.5,1.9,0l3.2,3.2c0.5,0.5,0.5,1.3,0,1.9
			C55.8,415.1,55,415.1,54.5,414.6z"/>
		<path id="Path_15_" class="st12" d="M7.2,411.2c-0.5,0.5-1.3,0.5-1.9,0c-0.5-0.5-0.5-1.3,0-1.9l8.8-8.8c0.5-0.5,1.3-0.5,1.9,0
			c0.5,0.5,0.5,1.3,0,1.9L7.2,411.2z"/>
		<path id="Path_16_" class="st12" d="M48.7,408.8l-3-3c-0.5-0.5-0.5-1.3,0-1.9s1.3-0.5,1.9,0l3,3c0.5,0.5,0.5,1.3,0,1.9
			C50,409.3,49.2,409.3,48.7,408.8z"/>
		<path id="Path_17_" class="st12" d="M12.7,432.5l-3-3c-0.5-0.5-0.5-1.3,0-1.9s1.3-0.5,1.9,0l3,3c0.5,0.5,0.5,1.3,0,1.9
			C14,433,13.2,433,12.7,432.5z"/>
		<path id="Path_18_" class="st12" d="M47.5,438.3c-0.5,0.5-1.3,0.5-1.9,0s-0.5-1.3,0-1.9l8.8-8.8c0.5-0.5,1.3-0.5,1.9,0
			c0.5,0.5,0.5,1.3,0,1.9L47.5,438.3z"/>
		<path id="Path_19_" class="st12" d="M58,411.1l-3.2-3.2c-0.5-0.5-0.5-1.3,0-1.9s1.3-0.5,1.9,0l3.2,3.2c0.5,0.5,0.5,1.3,0,1.9
			C59.3,411.6,58.5,411.6,58,411.1z"/>
		<path id="Path_20_" class="st12" d="M10.7,414.7c-0.5,0.5-1.3,0.5-1.9,0c-0.5-0.5-0.5-1.3,0-1.9l8.8-8.8c0.5-0.5,1.3-0.5,1.9,0
			c0.5,0.5,0.5,1.3,0,1.9L10.7,414.7z"/>
		<path id="Path_21_" class="st12" d="M51,441.8c-0.5,0.5-1.3,0.5-1.9,0s-0.5-1.3,0-1.9l8.8-8.8c0.5-0.5,1.3-0.5,1.9,0
			c0.5,0.5,0.5,1.3,0,1.9L51,441.8z"/>
		<path id="Path_22_" class="st12" d="M52.2,405.3l-3-3c-0.5-0.5-0.5-1.3,0-1.9c0.5-0.5,1.3-0.5,1.9,0l3,3c0.5,0.5,0.5,1.3,0,1.9
			C53.5,405.8,52.7,405.8,52.2,405.3z"/>
		<path id="Path_23_" class="st12" d="M18.5,438.3l-3.2-3.2c-0.5-0.5-0.5-1.3,0-1.9c0.5-0.5,1.3-0.5,1.9,0l3.2,3.2
			c0.5,0.5,0.5,1.3,0,1.9S19,438.8,18.5,438.3z"/>
	</g>
</g>
<g id="zh">
	<g id="Group-3" transform="translate(6.000000, 6.000000)">
		<path id="Rectangle-3_7_" class="st4" d="M55.4,458.2H10.6c-4.9,0-6.7,0.6-8.5,1.5c-2,1-3.5,2.6-4.5,4.5c-1,1.8-1.5,3.6-1.5,8.5
			v28.9c0,4.9,0.6,6.7,1.5,8.5c1,2,2.6,3.5,4.5,4.5c1.8,1,3.6,1.5,8.5,1.5h44.9c4.9,0,6.7-0.6,8.5-1.5c2-1,3.5-2.6,4.5-4.5
			c1-1.8,1.5-3.6,1.5-8.5v-28.9c0-4.9-0.6-6.7-1.5-8.5c-1-2-2.6-3.5-4.5-4.5C62.1,458.7,60.4,458.2,55.4,458.2z"/>
		<g id="Group-2" transform="translate(8.000000, 4.000000)">
			<g id="Group_7_" transform="translate(14.000000, 0.000000)">
				<path id="Star-Copy_1_" class="st14" d="M1.6,467.1l-1.3,0.2c-0.4,0.1-0.8-0.2-0.8-0.6c0-0.2,0-0.3,0.1-0.5l0.6-1.1
					c0.1-0.1,0.1-0.2,0-0.3l-0.6-1.2c-0.2-0.4,0-0.8,0.3-1c0.1-0.1,0.3-0.1,0.5-0.1l1.3,0.2c0.1,0,0.2,0,0.3-0.1l0.9-0.9
					c0.3-0.3,0.8-0.3,1,0c0.1,0.1,0.2,0.3,0.2,0.4l0.2,1.3c0,0.1,0.1,0.2,0.2,0.3l1.2,0.6c0.4,0.2,0.5,0.6,0.3,1
					c-0.1,0.1-0.2,0.3-0.3,0.3l-1.2,0.6c-0.1,0.1-0.2,0.2-0.2,0.3l-0.2,1.3c-0.1,0.4-0.4,0.7-0.8,0.6c-0.2,0-0.3-0.1-0.4-0.2
					l-0.9-0.9C1.8,467.1,1.7,467.1,1.6,467.1z"/>
				<path id="Star-Copy_2_" class="st14" d="M10.7,473.8l-0.9,0.9c-0.3,0.3-0.7,0.3-1,0c-0.1-0.1-0.2-0.3-0.2-0.4l-0.2-1.3
					c0-0.1-0.1-0.2-0.2-0.3l-1.2-0.6c-0.4-0.2-0.5-0.6-0.4-1c0.1-0.1,0.2-0.3,0.3-0.3l1.2-0.6c0.1-0.1,0.2-0.2,0.2-0.3l0.2-1.3
					c0.1-0.4,0.4-0.7,0.8-0.6c0.2,0,0.3,0.1,0.4,0.2l0.9,0.9c0.1,0.1,0.2,0.1,0.3,0.1l1.3-0.2c0.4-0.1,0.8,0.2,0.9,0.6
					c0,0.2,0,0.3-0.1,0.5l-0.6,1.2c-0.1,0.1-0.1,0.2,0,0.3l0.6,1.1c0.2,0.4,0.1,0.8-0.3,1c-0.1,0.1-0.3,0.1-0.5,0.1l-1.3-0.2
					C10.9,473.7,10.8,473.7,10.7,473.8z"/>
				<path id="Star-Copy_3_" class="st14" d="M1.6,489.8L0.3,490c-0.4,0.1-0.8-0.2-0.8-0.6c0-0.2,0-0.3,0.1-0.5l0.6-1.1
					c0.1-0.1,0.1-0.2,0-0.3l-0.6-1.2c-0.2-0.4,0-0.8,0.3-1c0.1-0.1,0.3-0.1,0.5-0.1l1.3,0.2c0.1,0,0.2,0,0.3-0.1l0.9-0.9
					c0.3-0.3,0.8-0.3,1,0c0.1,0.1,0.2,0.3,0.2,0.4l0.2,1.3c0,0.1,0.1,0.2,0.2,0.3l1.2,0.6c0.4,0.2,0.5,0.6,0.3,1
					c-0.1,0.1-0.2,0.3-0.3,0.3l-1.2,0.6c-0.1,0.1-0.2,0.2-0.2,0.3l-0.2,1.3c-0.1,0.4-0.4,0.7-0.8,0.6c-0.2,0-0.3-0.1-0.4-0.2
					l-0.9-0.9C1.8,489.8,1.7,489.8,1.6,489.8z"/>
				<path id="Star-Copy_4_" class="st14" d="M9.8,483.5l-1.1,0.6c-0.4,0.2-0.8,0.1-1-0.3c-0.1-0.1-0.1-0.3-0.1-0.5l0.2-1.3
					c0-0.1,0-0.2-0.1-0.3l-0.9-0.9c-0.3-0.3-0.3-0.8,0-1c0.1-0.1,0.3-0.2,0.4-0.2l1.3-0.2c0.1,0,0.2-0.1,0.3-0.2l0.6-1.2
					c0.2-0.4,0.6-0.5,1-0.3c0.1,0.1,0.3,0.2,0.3,0.3l0.6,1.2c0.1,0.1,0.2,0.2,0.3,0.2l1.3,0.2c0.4,0.1,0.7,0.4,0.6,0.8
					c0,0.2-0.1,0.3-0.2,0.4l-0.9,0.9c-0.1,0.1-0.1,0.2-0.1,0.3l0.2,1.3c0.1,0.4-0.2,0.8-0.6,0.9c-0.2,0-0.3,0-0.5-0.1l-1.1-0.6
					C10.1,483.5,9.9,483.5,9.8,483.5z"/>
			</g>
			<path id="Star" class="st14" d="M5.6,481.4l-2.6,1.3c-0.8,0.4-1.8,0.1-2.2-0.7c-0.2-0.3-0.2-0.7-0.2-1l0.5-2.8
				c0-0.3,0-0.5-0.2-0.7l-2.1-2c-0.6-0.6-0.7-1.7,0-2.3c0.3-0.3,0.6-0.4,0.9-0.5l2.9-0.4c0.3,0,0.5-0.2,0.6-0.5l1.3-2.6
				c0.4-0.8,1.4-1.1,2.2-0.7c0.3,0.2,0.6,0.4,0.7,0.7l1.3,2.6c0.1,0.2,0.4,0.4,0.6,0.5l2.9,0.4c0.9,0.1,1.5,1,1.4,1.9
				c-0.1,0.4-0.2,0.7-0.5,0.9l-2.1,2c-0.2,0.2-0.3,0.5-0.2,0.7l0.5,2.8c0.2,0.9-0.4,1.7-1.3,1.9c-0.4,0.1-0.7,0-1-0.2l-2.6-1.3
				C6.1,481.2,5.8,481.2,5.6,481.4z"/>
		</g>
	</g>
</g>
<g id="ru">
	<g id="Group_8_" transform="translate(6.000000, 6.000000)">
		<path id="Rectangle-3_8_" class="st15" d="M55.4,524.2H10.6c-4.9,0-6.7,0.6-8.5,1.5c-2,1-3.5,2.6-4.5,4.5c-1,1.8-1.5,3.6-1.5,8.5
			v28.9c0,4.9,0.6,6.7,1.5,8.5c1,2,2.6,3.5,4.5,4.5c1.8,1,3.6,1.5,8.5,1.5h44.9c4.9,0,6.7-0.6,8.5-1.5c2-1,3.5-2.6,4.5-4.5
			c1-1.8,1.5-3.6,1.5-8.5v-28.9c0-4.9-0.6-6.7-1.5-8.5c-1-2-2.6-3.5-4.5-4.5C62.1,524.7,60.4,524.2,55.4,524.2z"/>
		<path id="Path_24_" class="st9" d="M68,562.2v5.4c0,4.4-0.5,6-1.3,7.5s-2.1,2.9-3.7,3.7c-1.6,0.9-3.2,1.3-7.5,1.3H10.6
			c-4.4,0-6-0.5-7.5-1.3c-1.6-0.9-2.9-2.1-3.7-3.7S-2,572-2,567.6v-5.4H68z"/>
		<path id="Path_25_" class="st16" d="M10.6,526.2h44.9c4.4,0,6,0.5,7.5,1.3c1.6,0.9,2.9,2.1,3.7,3.7s1.3,3.2,1.3,7.5v5.4H-2v-5.4
			c0-4.4,0.5-6,1.3-7.5s2.1-2.9,3.7-3.7S6.2,526.2,10.6,526.2z"/>
	</g>
</g>
<g id="pt-copy">
	<g id="Group_9_" transform="translate(6.000000, 2.000000)">
		<path id="Rectangle-3_9_" class="st17" d="M55.4,594.2H10.6c-4.9,0-6.7,0.6-8.5,1.5c-2,1-3.5,2.6-4.5,4.5c-1,1.8-1.5,3.6-1.5,8.5
			v28.9c0,4.9,0.6,6.7,1.5,8.5c1,2,2.6,3.5,4.5,4.5c1.8,1,3.6,1.5,8.5,1.5h44.9c4.9,0,6.7-0.6,8.5-1.5c2-1,3.5-2.6,4.5-4.5
			c1-1.8,1.5-3.6,1.5-8.5v-28.9c0-4.9-0.6-6.7-1.5-8.5c-1-2-2.6-3.5-4.5-4.5C62.1,594.7,60.4,594.2,55.4,594.2z"/>
		<path id="Rectangle" class="st5" d="M4.1,622.5l27.7-20.2c0.7-0.5,1.7-0.5,2.4,0l27.7,20.2c0.9,0.7,1.1,1.9,0.4,2.8
			c-0.1,0.2-0.3,0.3-0.4,0.4l-27.7,20.1c-0.7,0.5-1.6,0.5-2.3,0L4.1,625.8c-0.9-0.6-1.1-1.9-0.4-2.8C3.8,622.8,3.9,622.7,4.1,622.5z
			"/>
		<circle id="Mask" class="st2" cx="33" cy="624.2" r="12"/>
		<path id="Path_26_" class="st6" d="M21,623.4c0.1-1.5,0.5-3,1.1-4.3l22.8,5.7c-0.1,1.5-0.4,3-1,4.4L21,623.4z"/>
	</g>
</g>
<g id="tr">
	<g id="Group_10_" transform="translate(6.000000, 6.000000)">
		<path id="Rectangle-3_10_" class="st4" d="M55.4,656.2H10.6c-4.9,0-6.7,0.6-8.5,1.5c-2,1-3.5,2.6-4.5,4.5c-1,1.8-1.5,3.6-1.5,8.5
			v28.7c0,4.9,0.6,6.7,1.5,8.5c1,2,2.6,3.5,4.5,4.5c1.8,1,3.6,1.5,8.5,1.5h44.9c4.9,0,6.7-0.6,8.5-1.5c2-1,3.5-2.6,4.5-4.5
			c1-1.8,1.5-3.6,1.5-8.5v-28.7c0-4.9-0.6-6.7-1.5-8.5c-1-2-2.6-3.5-4.5-4.5C62.1,656.7,60.4,656.2,55.4,656.2z"/>
		<path id="Path_27_" class="st3" d="M40.3,673.5c-0.9-0.2-1.6-0.3-2.3-0.3c-6.6,0-12,5.4-12,12c0,6.6,5.4,12,12,12
			c0.7,0,1.4-0.1,2.3-0.3l0,0c0.5-0.1,1.1,0.2,1.2,0.7c0.1,0.4-0.1,0.8-0.4,1.1c-2.4,1.7-5.5,2.5-9.1,2.5c-8.8,0-16-7.2-16-16
			s7.2-16,16-16c3.7,0,6.7,0.8,9.1,2.5h0c0.5,0.3,0.6,0.9,0.2,1.4C41.1,673.4,40.7,673.6,40.3,673.5z"/>
		<path id="Star-2" class="st3" d="M45.8,690l-1.7,1.6c-0.6,0.5-1.4,0.5-2-0.1c-0.2-0.2-0.3-0.5-0.4-0.8l-0.2-2.3
			c0-0.3-0.2-0.6-0.5-0.8l-2-1.1c-0.7-0.4-0.9-1.2-0.5-1.9c0.2-0.3,0.4-0.5,0.7-0.6l2.1-0.9c0.3-0.1,0.5-0.4,0.6-0.7l0.4-2.3
			c0.1-0.8,0.9-1.2,1.6-1.1c0.3,0.1,0.6,0.2,0.8,0.5l1.5,1.7c0.2,0.2,0.5,0.4,0.9,0.3l2.3-0.3c0.8-0.1,1.5,0.5,1.6,1.2
			c0,0.3,0,0.6-0.2,0.9l-1.2,2c-0.2,0.3-0.2,0.6,0,0.9l1,2.1c0.3,0.7,0,1.5-0.7,1.8c-0.3,0.1-0.6,0.2-0.9,0.1l-2.2-0.5
			C46.3,689.7,46,689.8,45.8,690z"/>
	</g>
</g>
<g id="nl">
	<g id="Group_11_" transform="translate(6.000000, 6.000000)">
		<path id="Rectangle-3_11_" class="st7" d="M55.4,722.2H10.6c-4.9,0-6.7,0.6-8.5,1.5c-2,1-3.5,2.6-4.5,4.5c-1,1.8-1.5,3.6-1.5,8.5
			v28.9c0,4.9,0.6,6.7,1.5,8.5c1,2,2.6,3.5,4.5,4.5c1.8,1,3.6,1.5,8.5,1.5h44.9c4.9,0,6.7-0.6,8.5-1.5c2-1,3.5-2.6,4.5-4.5
			c1-1.8,1.5-3.6,1.5-8.5v-28.9c0-4.9-0.6-6.7-1.5-8.5c-1-2-2.6-3.5-4.5-4.5C62.1,722.7,60.4,722.2,55.4,722.2z"/>
		<path id="Path_28_" class="st8" d="M68,760.2v5.4c0,4.4-0.5,6-1.3,7.5s-2.1,2.9-3.7,3.7c-1.6,0.9-3.2,1.3-7.5,1.3H10.6
			c-4.4,0-6-0.5-7.5-1.3c-1.6-0.9-2.9-2.1-3.7-3.7S-2,770-2,765.6v-5.4H68z"/>
		<path id="Path_29_" class="st9" d="M10.6,724.2h44.9c4.4,0,6,0.5,7.5,1.3c1.6,0.9,2.9,2.1,3.7,3.7s1.3,3.2,1.3,7.5v5.4H-2v-5.4
			c0-4.4,0.5-6,1.3-7.5s2.1-2.9,3.7-3.7S6.2,724.2,10.6,724.2z"/>
	</g>
</g>
<g id="sv">
	<g id="Group-10" transform="translate(6.000000, 6.000000)">
		<path id="Rectangle-3_12_" class="st15" d="M55.4,788.2H10.6c-4.9,0-6.7,0.6-8.5,1.5c-2,1-3.5,2.6-4.5,4.5c-1,1.8-1.5,3.6-1.5,8.5
			v28.9c0,4.9,0.6,6.7,1.5,8.5c1,2,2.6,3.5,4.5,4.5c1.8,1,3.6,1.5,8.5,1.5h44.9c4.9,0,6.7-0.6,8.5-1.5c2-1,3.5-2.6,4.5-4.5
			c1-1.8,1.5-3.6,1.5-8.5v-28.9c0-4.9-0.6-6.7-1.5-8.5c-1-2-2.6-3.5-4.5-4.5C62.1,788.7,60.4,788.2,55.4,788.2z"/>
		<path id="Combined-Shape" class="st11" d="M27,790.2v20l41,0v14l-41,0v20H13v-20l-15,0v-14l15,0v-20H27z"/>
	</g>
</g>
<g id="ga">
	<g id="Group_12_" transform="translate(6.000000, 6.000000)">
		<path id="Rectangle-3_13_" class="st7" d="M55.4,854.2H10.6c-4.9,0-6.7,0.6-8.5,1.5c-2,1-3.5,2.6-4.5,4.5c-1,1.8-1.5,3.6-1.5,8.5
			v28.9c0,4.9,0.6,6.7,1.5,8.5c1,2,2.6,3.5,4.5,4.5c1.8,1,3.6,1.5,8.5,1.5h44.9c4.9,0,6.7-0.6,8.5-1.5c2-1,3.5-2.6,4.5-4.5
			c1-1.8,1.5-3.6,1.5-8.5v-28.9c0-4.9-0.6-6.7-1.5-8.5c-1-2-2.6-3.5-4.5-4.5C62.1,854.7,60.4,854.2,55.4,854.2z"/>
		<path id="Path_30_" class="st13" d="M21.6,856.2v54H10.6c-4.4,0-6-0.5-7.5-1.3c-1.6-0.9-2.9-2.1-3.7-3.7S-2,902-2,897.6v-28.9
			c0-4.4,0.5-6,1.3-7.5s2.1-2.9,3.7-3.7s3.2-1.3,7.5-1.3H21.6z"/>
		<path id="Path_31_" class="st18" d="M44.4,856.2h11.1c4.4,0,6,0.5,7.5,1.3c1.6,0.9,2.9,2.1,3.7,3.7s1.3,3.2,1.3,7.5v28.9
			c0,4.4-0.5,6-1.3,7.5s-2.1,2.9-3.7,3.7c-1.6,0.9-3.2,1.3-7.5,1.3H44.4V856.2z"/>
	</g>
</g>
<g id="el">
	<g id="Group_13_" transform="translate(6.000000, 6.000000)">
		<path id="Rectangle-3_14_" class="st7" d="M55.4,920.2H10.6c-4.9,0-6.7,0.6-8.5,1.5c-2,1-3.5,2.6-4.5,4.5c-1,1.8-1.5,3.6-1.5,8.5
			v28.9c0,4.9,0.6,6.7,1.5,8.5c1,2,2.6,3.5,4.5,4.5c1.8,1,3.6,1.5,8.5,1.5h44.9c4.9,0,6.7-0.6,8.5-1.5c2-1,3.5-2.6,4.5-4.5
			c1-1.8,1.5-3.6,1.5-8.5v-28.9c0-4.9-0.6-6.7-1.5-8.5c-1-2-2.6-3.5-4.5-4.5C62.1,920.7,60.4,920.2,55.4,920.2z"/>
		<path id="Path_32_" class="st8" d="M10.6,922.2H33v30H-2v-17.4c0-4.4,0.5-6,1.3-7.5s2.1-2.9,3.7-3.7S6.2,922.2,10.6,922.2z"/>
		<path id="Path_33_" class="st8" d="M55.4,922.2c4.4,0,6,0.5,7.5,1.3c1.6,0.9,2.9,2.1,3.7,3.7c0.2,0.3,0.3,0.6,0.5,1H25v-6H55.4z"
			/>
		<path id="Path_34_" class="st8" d="M68,934.2c0,0.2,0,0.4,0,0.6v5.4H23v-6H68L68,934.2z"/>
		<polygon id="Path_35_" class="st8" points="68,946.2 68,952.2 -2,952.2 -2,946.2 		"/>
		<path id="Path_36_" class="st8" d="M68,958.2v5.4c0,0.2,0,0.4,0,0.6H-2c0-0.2,0-0.4,0-0.6v-5.4H68z"/>
		<path id="Path_37_" class="st8" d="M67.2,970.2c-0.1,0.3-0.3,0.7-0.5,1c-0.9,1.6-2.1,2.9-3.7,3.7c-1.6,0.9-3.2,1.3-7.5,1.3H10.6
			c-4.4,0-6-0.5-7.5-1.3c-1.6-0.9-2.9-2.1-3.7-3.7c-0.2-0.3-0.3-0.6-0.5-1H67.2L67.2,970.2z"/>
		<polygon id="Rectangle-Copy-4" class="st16" points="-2,934.2 33,934.2 33,940.2 -2,940.2 		"/>
		<polygon id="Rectangle-5" class="st16" points="12,922.2 18,922.2 18,954.2 12,954.2 		"/>
	</g>
</g>
<g id="he">
	<g id="Group_14_" transform="translate(6.000000, 6.000000)">
		<path id="Rectangle-3_15_" class="st7" d="M55.4,986.2H10.6c-4.9,0-6.7,0.6-8.5,1.5c-2,1-3.5,2.6-4.5,4.5c-1,1.8-1.5,3.6-1.5,8.5
			v28.9c0,4.9,0.6,6.7,1.5,8.5c1,2,2.6,3.5,4.5,4.5c1.8,1,3.6,1.5,8.5,1.5h44.9c4.9,0,6.7-0.6,8.5-1.5c2-1,3.5-2.6,4.5-4.5
			c1-1.8,1.5-3.6,1.5-8.5v-28.9c0-4.9-0.6-6.7-1.5-8.5c-1-2-2.6-3.5-4.5-4.5C62.1,986.7,60.4,986.2,55.4,986.2z"/>
		<path id="Path_38_" class="st8" d="M68,1030.2c0,3.9-0.5,5.5-1.3,7c-0.2,0.4-0.4,0.7-0.6,1H-0.1c-0.2-0.3-0.4-0.7-0.6-1
			c-0.8-1.5-1.3-3-1.3-7H68L68,1030.2z"/>
		<path id="Path_39_" class="st8" d="M66.1,992.2c0.2,0.3,0.4,0.7,0.6,1c0.8,1.5,1.3,3,1.3,7H-2c0-3.9,0.5-5.5,1.3-7
			c0.2-0.4,0.4-0.7,0.6-1H66.1L66.1,992.2z"/>
		<path id="Triangle" class="st8" d="M33.5,1005.2C33.5,1005.2,33.5,1005.2,33.5,1005.2C33.5,1005.1,33.5,1005.2,33.5,1005.2
			l-9.2,14.8c0,0,0,0,0,0c0,0,0,0,0,0h18.4c0,0,0,0,0,0c0,0,0,0,0,0L33.5,1005.2z M35.7,1003.8l9.2,14.8c0.8,1.2,0.4,2.9-0.8,3.6
			c-0.4,0.3-0.9,0.4-1.4,0.4H24.3c-1.5,0-2.6-1.2-2.6-2.6c0-0.5,0.1-1,0.4-1.4l9.2-14.8c0.8-1.2,2.4-1.6,3.6-0.8
			C35.2,1003.2,35.5,1003.5,35.7,1003.8z"/>
		<path id="Shape" class="st8" d="M33.5,1024.8C33.5,1024.8,33.5,1024.8,33.5,1024.8C33.5,1024.9,33.5,1024.9,33.5,1024.8l9.2-14.8
			c0,0,0,0,0,0c0,0,0,0,0,0H24.3c0,0,0,0,0,0c0,0,0,0,0,0L33.5,1024.8z M31.3,1026.2l-9.2-14.8c-0.8-1.2-0.4-2.9,0.8-3.6
			c0.4-0.3,0.9-0.4,1.4-0.4h18.4c1.5,0,2.6,1.2,2.6,2.6c0,0.5-0.1,1-0.4,1.4l-9.2,14.8c-0.8,1.2-2.4,1.6-3.6,0.8
			C31.8,1026.8,31.5,1026.6,31.3,1026.2z"/>
	</g>
</g>
<g id="pl">
	<g id="Group_15_" transform="translate(6.000000, 6.000000)">
		<path id="Rectangle-3_16_" class="st7" d="M55.4,1052.2H10.6c-4.9,0-6.7,0.6-8.5,1.5c-2,1-3.5,2.6-4.5,4.5c-1,1.8-1.5,3.6-1.5,8.5
			v28.9c0,4.9,0.6,6.7,1.5,8.5c1,2,2.6,3.5,4.5,4.5c1.8,1,3.6,1.5,8.5,1.5h44.9c4.9,0,6.7-0.6,8.5-1.5c2-1,3.5-2.6,4.5-4.5
			c1-1.8,1.5-3.6,1.5-8.5v-28.9c0-4.9-0.6-6.7-1.5-8.5c-1-2-2.6-3.5-4.5-4.5C62.1,1052.7,60.4,1052.2,55.4,1052.2z"/>
		<path id="Path_40_" class="st9" d="M68,1081.2v14.4c0,4.4-0.5,6-1.3,7.5s-2.1,2.9-3.7,3.7c-1.6,0.9-3.2,1.3-7.5,1.3H10.6
			c-4.4,0-6-0.5-7.5-1.3s-2.9-2.1-3.7-3.7s-1.3-3.2-1.3-7.5v-14.4H68z"/>
	</g>
</g>
<g id="no-copy">
	<g id="Group_16_" transform="translate(6.000000, 6.000000)">
		<path id="Rectangle-3_17_" class="st10" d="M55.4,1118.2H10.6c-4.9,0-6.7,0.6-8.5,1.5c-2,1-3.5,2.6-4.5,4.5
			c-1,1.8-1.5,3.6-1.5,8.5v28.9c0,4.9,0.6,6.7,1.5,8.5c1,2,2.6,3.5,4.5,4.5c1.8,1,3.6,1.5,8.5,1.5h44.9c4.9,0,6.7-0.6,8.5-1.5
			c2-1,3.5-2.6,4.5-4.5c1-1.8,1.5-3.6,1.5-8.5v-28.9c0-4.9-0.6-6.7-1.5-8.5c-1-2-2.6-3.5-4.5-4.5
			C62.1,1118.7,60.4,1118.2,55.4,1118.2z"/>
		<polygon id="Path_41_" class="st3" points="13,1120.2 27,1120.2 27,1140.2 68,1140.2 68,1154.2 27,1154.2 27,1174.2 13,1174.2 
			13,1154.2 -2,1154.2 -2,1140.2 13,1140.2 		"/>
		<polygon id="Path_42_" class="st2" points="24,1143.2 68,1143.2 68,1151.2 24,1151.2 24,1174.2 16,1174.2 16,1151.2 -2,1151.2 
			-2,1143.2 16,1143.2 16,1120.2 24,1120.2 		"/>
	</g>
</g>
<g id="vi">
	<g id="Group_17_" transform="translate(6.000000, 6.000000)">
		<path id="Rectangle-3_18_" class="st10" d="M55.4,1184.2H10.6c-4.9,0-6.7,0.6-8.5,1.5c-2,1-3.5,2.6-4.5,4.5
			c-1,1.8-1.5,3.6-1.5,8.5v28.9c0,4.9,0.6,6.7,1.5,8.5c1,2,2.6,3.5,4.5,4.5c1.8,1,3.6,1.5,8.5,1.5h44.9c4.9,0,6.7-0.6,8.5-1.5
			c2-1,3.5-2.6,4.5-4.5c1-1.8,1.5-3.6,1.5-8.5v-28.9c0-4.9-0.6-6.7-1.5-8.5c-1-2-2.6-3.5-4.5-4.5
			C62.1,1184.7,60.4,1184.2,55.4,1184.2z"/>
		<path id="Star_1_" class="st14" d="M32.5,1220.9l-3.9,2.1c-1.2,0.6-2.7,0.2-3.3-1c-0.3-0.5-0.3-1-0.2-1.6l0.8-4.4
			c0.1-0.3-0.1-0.7-0.3-0.9l-3.2-3.1c-1-0.9-1-2.5,0-3.5c0.4-0.4,0.9-0.6,1.4-0.7l4.4-0.6c0.3,0,0.6-0.3,0.8-0.5l2-4
			c0.6-1.2,2.1-1.7,3.3-1.1c0.5,0.2,0.9,0.6,1.1,1.1l2,4c0.1,0.3,0.4,0.5,0.8,0.5l4.4,0.6c1.3,0.2,2.3,1.4,2.1,2.8
			c-0.1,0.5-0.3,1-0.7,1.4l-3.2,3.1c-0.2,0.2-0.3,0.6-0.3,0.9l0.8,4.4c0.2,1.3-0.7,2.6-2,2.8c-0.5,0.1-1.1,0-1.6-0.2l-3.9-2.1
			C33.2,1220.7,32.8,1220.7,32.5,1220.9z"/>
	</g>
</g>
<g id="da">
	<g id="Group_18_" transform="translate(6.000000, 6.000000)">
		<path id="Rectangle-3_19_" class="st10" d="M55.4,1250.2H10.6c-4.9,0-6.7,0.6-8.5,1.5c-2,1-3.5,2.6-4.5,4.5
			c-1,1.8-1.5,3.6-1.5,8.5v28.9c0,4.9,0.6,6.7,1.5,8.5c1,2,2.6,3.5,4.5,4.5c1.8,1,3.6,1.5,8.5,1.5h44.9c4.9,0,6.7-0.6,8.5-1.5
			c2-1,3.5-2.6,4.5-4.5c1-1.8,1.5-3.6,1.5-8.5v-28.9c0-4.9-0.6-6.7-1.5-8.5c-1-2-2.6-3.5-4.5-4.5
			C62.1,1250.7,60.4,1250.2,55.4,1250.2z"/>
		<rect id="Rectangle_1_" x="17" y="1252.2" class="st19" width="12" height="54"/>
		<rect id="Rectangle_2_" x="-2" y="1273.2" class="st19" width="70" height="12"/>
	</g>
</g>
<g id="hv">
	<g id="Group_19_" transform="translate(6.000000, 6.000000)">
		<path id="Rectangle-3_20_" class="st20" d="M55.4,1316.2H10.6c-4.9,0-6.7,0.6-8.5,1.5c-2,1-3.5,2.6-4.5,4.5
			c-1,1.8-1.5,3.6-1.5,8.5v28.9c0,4.9,0.6,6.7,1.5,8.5c1,2,2.6,3.5,4.5,4.5c1.8,1,3.6,1.5,8.5,1.5h44.9c4.9,0,6.7-0.6,8.5-1.5
			c2-1,3.5-2.6,4.5-4.5c1-1.8,1.5-3.6,1.5-8.5v-28.9c0-4.9-0.6-6.7-1.5-8.5c-1-2-2.6-3.5-4.5-4.5
			C62.1,1316.7,60.4,1316.2,55.4,1316.2z"/>
		<path id="Path_43_" class="st9" d="M33.1,1328.1l5.7-2.8c0.6-0.3,1.4,0.2,1.3,0.9l-0.4,2.9H45c9.9,0,18,8.1,18,18s-8.1,18-18,18
			h-6.5c-1.9,0-3.5,1.6-3.5,3.5s1.6,3.5,3.5,3.5H48H21.3c-0.2-1.1-0.3-2.3-0.3-3.5c0-9.7,7.8-17.5,17.5-17.5H45c2.2,0,4-1.8,4-4
			s-1.8-4-4-4h-8.7l0.6,2.1c0.1,0.6-0.3,1.1-0.8,1.1l-7.1,0.3l1.3,2c0.4,0.6,0,1.4-0.7,1.4l-10.6,0.6c-1.4,0.1-2.7-0.2-3.9-0.9
			l-2.8,1.4c-0.5,0.2-1,0-1.2-0.4c-2.4-5.1-0.8-11.1,3.8-14.3l16.8-11.9c0.6-0.4,1.4,0,1.4,0.7L33.1,1328.1z"/>
		<path id="Rectangle-Copy-4_1_" class="st18" d="M11.5,1357l-5.2,3c-0.5,0.3-1.1,0.1-1.4-0.4c-1.1-1.9-0.4-4.4,1.5-5.5
			c1.9-1.1,4.4-0.4,5.5,1.5C12.1,1356.1,12,1356.7,11.5,1357z"/>
		<path id="Rectangle_3_" class="st14" d="M8.5,1356.1l6.1-3.5c0.5-0.3,1.1-0.1,1.4,0.4c1.1,1.9,0.4,4.4-1.5,5.5l-0.9,0.5
			c-1.9,1.1-4.4,0.4-5.5-1.5C7.8,1357,8,1356.4,8.5,1356.1z"/>
		<path id="Rectangle-Copy-5" class="st14" d="M5.5,1363.3l3.5-2c0.5-0.3,1.1-0.1,1.4,0.4c0.8,1.4,0.3,3.3-1.1,4.1
			c-1.4,0.8-3.3,0.3-4.1-1.1C4.9,1364.2,5,1363.6,5.5,1363.3z"/>
		<path id="Rectangle_4_" class="st14" d="M17.9,1340l3.8-3.8c0.4-0.4,0.9-0.4,1.3,0c1.1,1.1,1.1,2.8,0,3.8l-1.3,1.3
			c-1.1,1.1-2.8,1.1-3.8,0l0,0C17.6,1340.9,17.6,1340.3,17.9,1340z"/>
	</g>
</g>
<g id="ro">
	<g id="Group_20_" transform="translate(6.000000, 6.000000)">
		<path id="Rectangle-3_21_" class="st21" d="M55.4,1382.2H10.6c-4.9,0-6.7,0.6-8.5,1.5c-2,1-3.5,2.6-4.5,4.5
			c-1,1.8-1.5,3.6-1.5,8.5v28.9c0,4.9,0.6,6.7,1.5,8.5c1,2,2.6,3.5,4.5,4.5c1.8,1,3.6,1.5,8.5,1.5h44.9c4.9,0,6.7-0.6,8.5-1.5
			c2-1,3.5-2.6,4.5-4.5c1-1.8,1.5-3.6,1.5-8.5v-28.9c0-4.9-0.6-6.7-1.5-8.5c-1-2-2.6-3.5-4.5-4.5
			C62.1,1382.7,60.4,1382.2,55.4,1382.2z"/>
		<path id="Path_44_" class="st8" d="M21.6,1384.2v54H10.6c-4.4,0-6-0.5-7.5-1.3s-2.9-2.1-3.7-3.7s-1.3-3.2-1.3-7.5v-28.9
			c0-4.4,0.5-6,1.3-7.5s2.1-2.9,3.7-3.7s3.2-1.3,7.5-1.3H21.6z"/>
		<path id="Path_45_" class="st9" d="M44.4,1384.2h11.1c4.4,0,6,0.5,7.5,1.3c1.6,0.9,2.9,2.1,3.7,3.7s1.3,3.2,1.3,7.5v28.9
			c0,4.4-0.5,6-1.3,7.5s-2.1,2.9-3.7,3.7c-1.6,0.9-3.2,1.3-7.5,1.3H44.4V1384.2z"/>
	</g>
</g>
<g id="sw">
	<g id="Group_21_" transform="translate(6.000000, 6.000000)">
		<path id="Rectangle-3_22_" class="st15" d="M55.4,1448.2H10.6c-4.9,0-6.7,0.6-8.5,1.5c-2,1-3.5,2.6-4.5,4.5
			c-1,1.8-1.5,3.6-1.5,8.5v28.9c0,4.9,0.6,6.7,1.5,8.5c1,2,2.6,3.5,4.5,4.5c1.8,1,3.6,1.5,8.5,1.5h44.9c4.9,0,6.7-0.6,8.5-1.5
			c2-1,3.5-2.6,4.5-4.5c1-1.8,1.5-3.6,1.5-8.5v-28.9c0-4.9-0.6-6.7-1.5-8.5c-1-2-2.6-3.5-4.5-4.5
			C62.1,1448.7,60.4,1448.2,55.4,1448.2z"/>
		<path id="Path_46_" class="st22" d="M63.4,1451.7l-64.9,45.5c-0.3-1.2-0.5-2.9-0.5-5.6v-28.9c0-4.4,0.5-6,1.3-7.5s2.1-2.9,3.7-3.7
			s3.2-1.3,7.5-1.3h44.9c4.4,0,6,0.5,7.5,1.3C63.1,1451.5,63.3,1451.6,63.4,1451.7z"/>
		<path id="Path_47_" class="st14" d="M54.2,1450.2h1.2c4.4,0,6,0.5,7.5,1.3c1.6,0.9,2.9,2.1,3.7,3.7s1.3,3.2,1.3,7.5v2.5
			l-55.6,38.9h-1.9c-4.4,0-6-0.5-7.5-1.3s-2.9-2.1-3.7-3.7s-1.3-3.2-1.3-7.5v-2.1L54.2,1450.2L54.2,1450.2z"/>
		<path id="Path_48_" class="st23" d="M60.5,1450.5c1,0.2,1.7,0.5,2.5,0.9c1.6,0.9,2.9,2.1,3.7,3.7c0.7,1.3,1.1,2.5,1.2,5.2
			l-62.1,43.5c-1.2-0.2-2-0.6-2.8-1c-1.6-0.9-2.9-2.1-3.7-3.7c-0.7-1.2-1.1-2.4-1.2-4.9L60.5,1450.5L60.5,1450.5z"/>
	</g>
</g>
<g id="eo">
	<g id="Group_22_" transform="translate(6.000000, 6.000000)">
		<path id="Rectangle-3_23_" class="st24" d="M55.4,1514.2H10.6c-4.9,0-6.7,0.6-8.5,1.5c-2,1-3.5,2.6-4.5,4.5
			c-1,1.8-1.5,3.6-1.5,8.5v28.9c0,4.9,0.6,6.7,1.5,8.5c1,2,2.6,3.5,4.5,4.5c1.8,1,3.6,1.5,8.5,1.5h44.9c4.9,0,6.7-0.6,8.5-1.5
			c2-1,3.5-2.6,4.5-4.5c1-1.8,1.5-3.6,1.5-8.5v-28.9c0-4.9-0.6-6.7-1.5-8.5c-1-2-2.6-3.5-4.5-4.5
			C62.1,1514.7,60.4,1514.2,55.4,1514.2z"/>
		<path id="Path_49_" class="st16" d="M10.6,1516.2H33v27c0,2.2-1.8,4-4,4H-2v-18.4c0-4.4,0.5-6,1.3-7.5s2.1-2.9,3.7-3.7
			S6.2,1516.2,10.6,1516.2z"/>
		<path id="Star_2_" class="st22" d="M14.6,1538.9l-3.4,1.8c-1,0.5-2.3,0.1-2.9-0.9c-0.2-0.4-0.3-0.9-0.2-1.4l0.7-3.8
			c0-0.3,0-0.6-0.2-0.8l-2.8-2.7c-0.8-0.8-0.9-2.2,0-3c0.3-0.3,0.8-0.6,1.2-0.6l3.8-0.6c0.3,0,0.5-0.2,0.7-0.5l1.7-3.5
			c0.5-1.1,1.8-1.5,2.9-1c0.4,0.2,0.8,0.5,1,1l1.7,3.5c0.1,0.3,0.4,0.4,0.7,0.5l3.8,0.6c1.2,0.2,2,1.3,1.8,2.4
			c-0.1,0.5-0.3,0.9-0.6,1.2l-2.8,2.7c-0.2,0.2-0.3,0.5-0.2,0.8l0.7,3.8c0.2,1.2-0.6,2.3-1.7,2.5c-0.5,0.1-0.9,0-1.4-0.2l-3.4-1.8
			C15.1,1538.7,14.8,1538.7,14.6,1538.9z"/>
	</g>
</g>
<g id="hu">
	<g id="Group_23_" transform="translate(6.000000, 6.000000)">
		<path id="Rectangle-3_24_" class="st7" d="M55.4,1580.2H10.6c-4.9,0-6.7,0.6-8.5,1.5c-2,1-3.5,2.6-4.5,4.5c-1,1.8-1.5,3.6-1.5,8.5
			v28.9c0,4.9,0.6,6.7,1.5,8.5c1,2,2.6,3.5,4.5,4.5c1.8,1,3.6,1.5,8.5,1.5h44.9c4.9,0,6.7-0.6,8.5-1.5c2-1,3.5-2.6,4.5-4.5
			c1-1.8,1.5-3.6,1.5-8.5v-28.9c0-4.9-0.6-6.7-1.5-8.5c-1-2-2.6-3.5-4.5-4.5C62.1,1580.7,60.4,1580.2,55.4,1580.2z"/>
		<path id="Path_50_" class="st22" d="M68,1618.2v5.4c0,4.4-0.5,6-1.3,7.5s-2.1,2.9-3.7,3.7c-1.6,0.9-3.2,1.3-7.5,1.3H10.6
			c-4.4,0-6-0.5-7.5-1.3s-2.9-2.1-3.7-3.7s-1.3-3.2-1.3-7.5v-5.4H68z"/>
		<path id="Path_51_" class="st9" d="M10.6,1582.2h44.9c4.4,0,6,0.5,7.5,1.3c1.6,0.9,2.9,2.1,3.7,3.7s1.3,3.2,1.3,7.5v5.4H-2v-5.4
			c0-4.4,0.5-6,1.3-7.5s2.1-2.9,3.7-3.7S6.2,1582.2,10.6,1582.2z"/>
	</g>
</g>
<g id="cy">
	<g id="Group_24_" transform="translate(6.000000, 6.000000)">
		<path id="Rectangle-3_25_" class="st7" d="M55.4,1646.2H10.6c-4.9,0-6.7,0.6-8.5,1.5c-2,1-3.5,2.6-4.5,4.5c-1,1.8-1.5,3.6-1.5,8.5
			v28.9c0,4.9,0.6,6.7,1.5,8.5c1,2,2.6,3.5,4.5,4.5c1.8,1,3.6,1.5,8.5,1.5h44.9c4.9,0,6.7-0.6,8.5-1.5c2-1,3.5-2.6,4.5-4.5
			c1-1.8,1.5-3.6,1.5-8.5v-28.9c0-4.9-0.6-6.7-1.5-8.5c-1-2-2.6-3.5-4.5-4.5C62.1,1646.7,60.4,1646.2,55.4,1646.2z"/>
		<path id="Combined-Shape_1_" class="st22" d="M68,1675.2v14.4c0,4.4-0.5,6-1.3,7.5s-2.1,2.9-3.7,3.7c-1.6,0.9-3.2,1.3-7.5,1.3
			H10.6c-4.4,0-6-0.5-7.5-1.3s-2.9-2.1-3.7-3.7s-1.3-3.2-1.3-7.5v-14.4H68z"/>
		<path id="Rectangle_5_" class="st9" d="M35.2,1662.2h13.8c1.1,0,2,0.9,2,2c0,0.3-0.1,0.5-0.2,0.8l-3.6,8.2
			c-2.9,6.7-9.5,11-16.8,11H25c-3.9,0-7-3.1-7-7v-5l0,0l10-4v0.4c0,0.9,0.7,1.6,1.6,1.6c0.9,0,1.6-0.7,1.6-1.6v-2.4
			C31.2,1663.9,33,1662.2,35.2,1662.2z"/>
		<path id="Rectangle-Copy" class="st9" d="M21,1660.2h4c1.7,0,3,1.3,3,3v9l0,0H18v-9C18,1661.5,19.3,1660.2,21,1660.2z"/>
		<path id="Rectangle-Copy-2" class="st9" d="M16,1663.2h5l0,0v5H11C11,1665.4,13.2,1663.2,16,1663.2z"/>
		<path id="Rectangle-Copy-4_2_" class="st9" d="M21,1660.2h10c0,2.2-1.8,4-4,4h-6l0,0V1660.2z"/>
		<path id="Rectangle-Copy-3" class="st9" d="M17,1670.2c-1.7,0-3-1.8-3-4h10v4H17z"/>
		<path id="Path_52_" class="st9" d="M29,1684.1v-5h19.5c1.4,0,2.5-1.1,2.5-2.5v-3.4h5v3.4c0,4.1-3.4,7.5-7.5,7.5H29z"/>
		<path id="Triangle_1_" class="st9" d="M54.3,1669.2l4,5.7c0.3,0.5,0.2,1.1-0.3,1.4c-0.3,0.2-0.6,0.2-0.9,0.1l-3.7-1.2l0,0
			l-3.7,1.2c-0.5,0.2-1.1-0.1-1.3-0.6c-0.1-0.3,0-0.6,0.1-0.9l4-5.7c0.3-0.5,0.9-0.6,1.4-0.3C54.2,1669,54.2,1669.1,54.3,1669.2z"/>
		<path id="Path_53_" class="st9" d="M24,1686.2h3c2.2,0,4,1.8,4,4c0,0.6-0.4,1-1,1h-9c-0.6,0-1-0.4-1-1
			C20,1687.9,21.8,1686.2,24,1686.2z"/>
		<rect id="Rectangle_6_" x="26" y="1680.2" class="st9" width="5" height="10"/>
		<path id="Path_54_" class="st9" d="M16,1680v2c0,2.2-1.8,4-4,4c-0.6,0-1-0.4-1-1v-8c0-0.6,0.4-1,1-1C14.2,1676,16,1677.8,16,1680z
			"/>
		
			<rect id="Rectangle_7_" x="11.5" y="1679.1" transform="matrix(0.9659 -0.2588 0.2588 0.9659 -434.5783 62.2194)" class="st9" width="15" height="5"/>
		<path id="Path_55_" class="st9" d="M40,1686.2h4c2.2,0,4,1.8,4,4c0,0.6-0.4,1-1,1H37c-0.6,0-1-0.4-1-1
			C36,1687.9,37.8,1686.2,40,1686.2z"/>
		
			<rect id="Rectangle-Copy-7" x="40.2" y="1679.7" transform="matrix(0.866 -0.5 0.5 0.866 -836.6511 247.0413)" class="st9" width="5" height="10"/>
	</g>
</g>
<g id="uk">
	<g id="Group_25_" transform="translate(6.000000, 6.000000)">
		<path id="Rectangle-3_26_" class="st15" d="M55.4,1712.2H10.6c-4.9,0-6.7,0.6-8.5,1.5c-2,1-3.5,2.6-4.5,4.5
			c-1,1.8-1.5,3.6-1.5,8.5v28.9c0,4.9,0.6,6.7,1.5,8.5c1,2,2.6,3.5,4.5,4.5c1.8,1,3.6,1.5,8.5,1.5h44.9c4.9,0,6.7-0.6,8.5-1.5
			c2-1,3.5-2.6,4.5-4.5c1-1.8,1.5-3.6,1.5-8.5v-28.9c0-4.9-0.6-6.7-1.5-8.5c-1-2-2.6-3.5-4.5-4.5
			C62.1,1712.7,60.4,1712.2,55.4,1712.2z"/>
		<path id="Path_56_" class="st14" d="M68,1741.2v14.4c0,4.4-0.5,6-1.3,7.5s-2.1,2.9-3.7,3.7c-1.6,0.9-3.2,1.3-7.5,1.3H10.6
			c-4.4,0-6-0.5-7.5-1.3s-2.9-2.1-3.7-3.7s-1.3-3.2-1.3-7.5v-14.4H68z"/>
	</g>
</g>
<g id="kl">
	<g id="Group_26_" transform="translate(6.000000, 6.000000)">
		<path id="Rectangle-3_27_" class="st10" d="M55.4,1778.2H10.6c-4.9,0-6.7,0.6-8.5,1.5c-2,1-3.5,2.6-4.5,4.5
			c-1,1.8-1.5,3.6-1.5,8.5v28.9c0,4.9,0.6,6.7,1.5,8.5c1,2,2.6,3.5,4.5,4.5c1.8,1,3.6,1.5,8.5,1.5h44.9c4.9,0,6.7-0.6,8.5-1.5
			c2-1,3.5-2.6,4.5-4.5c1-1.8,1.5-3.6,1.5-8.5v-28.9c0-4.9-0.6-6.7-1.5-8.5c-1-2-2.6-3.5-4.5-4.5
			C62.1,1778.7,60.4,1778.2,55.4,1778.2z"/>
		<circle id="Oval" class="st16" cx="33" cy="1807.2" r="16"/>
		<path id="Triangle_2_" class="st23" d="M34.8,1789.6l4.9,16.8c0.3,0.9,0,2-0.7,2.7l-4.1,4.1c-1,1.1-2.8,1.1-3.8,0c0,0,0,0,0,0
			l-4.1-4.1c-0.7-0.7-0.9-1.7-0.7-2.7l4.9-16.8c0.3-1,1.3-1.5,2.2-1.2C34.2,1788.5,34.7,1789,34.8,1789.6z"/>
		<path id="Path-3" class="st23" d="M24.9,1810.3c0.5,0.6,4.4,4.5,5,5.1c0.9,0.8,0.3,2.4-1,2.4c-2.8-0.1-5.3,0.8-7.3,2.5
			c-0.7,0.5-1.3,1.1-1.8,1.7c-0.3,0.3-0.5,0.6-0.6,0.7c-0.4,0.7-1.3,0.8-2,0.3c-4-3.2-1-11.1,6.2-13.1
			C24,1809.7,24.6,1809.9,24.9,1810.3z"/>
		<path id="Shape_1_" class="st23" d="M36.1,1816.8c-0.1-0.1-0.2-0.3-0.3-0.4c-0.1-0.5,0.1-1,0.5-1.3c0,0,0.1-0.1,0.1-0.1
			c0.1-0.1,0.3-0.3,0.6-0.6c0.2-0.2,0.5-0.5,0.9-0.9c0.2-0.2,0.5-0.5,1-1l0,0c1.6-1.7,2.4-2.4,2.7-2.7c0.6-0.6,1.7-0.3,2,0.5
			c0.8,2.1,2.2,3.6,4.1,4.6c0.7,0.4,1.3,0.6,2,0.8c0.4,0.1,0.6,0.2,0.8,0.2c0.8,0.1,1.2,1,0.9,1.7c-0.8,1.9-3.2,3.4-5.9,3.6
			C42.1,1821.4,38.9,1820,36.1,1816.8L36.1,1816.8L36.1,1816.8z M37.2,1814.9c0.1,0,0.1,0,0.2,0.1
			C37.4,1814.9,37.3,1814.9,37.2,1814.9L37.2,1814.9z"/>
	</g>
</g>
<g id="cs">
	<g id="Group_27_" transform="translate(6.000000, 6.000000)">
		<path id="Rectangle-3_28_" class="st7" d="M55.4,1844.2H10.6c-4.9,0-6.7,0.6-8.5,1.5c-2,1-3.5,2.6-4.5,4.5c-1,1.8-1.5,3.6-1.5,8.5
			v28.9c0,4.9,0.6,6.7,1.5,8.5c1,2,2.6,3.5,4.5,4.5c1.8,1,3.6,1.5,8.5,1.5h44.9c4.9,0,6.7-0.6,8.5-1.5c2-1,3.5-2.6,4.5-4.5
			c1-1.8,1.5-3.6,1.5-8.5v-28.9c0-4.9-0.6-6.7-1.5-8.5c-1-2-2.6-3.5-4.5-4.5C62.1,1844.7,60.4,1844.2,55.4,1844.2z"/>
		<path id="Path_57_" class="st9" d="M68,1873.2v14.4c0,4.4-0.5,6-1.3,7.5s-2.1,2.9-3.7,3.7c-1.6,0.9-3.2,1.3-7.5,1.3H10.6
			c-4.4,0-6-0.5-7.5-1.3s-2.9-2.1-3.7-3.7s-1.3-3.2-1.3-7.5v-14.4H68z"/>
		<path id="Path_58_" class="st8" d="M1.3,1897.6c-0.8-0.7-1.4-1.5-2-2.5c-0.9-1.6-1.3-3.2-1.3-7.5v-28.9c0-4.4,0.5-6,1.3-7.5
			c0.5-1,1.2-1.8,2-2.5l31.7,24.5L1.3,1897.6L1.3,1897.6z"/>
	</g>
</g>
<g id="hi">
	<g id="Group_28_" transform="translate(6.000000, 6.000000)">
		<path id="Rectangle-3_29_" class="st7" d="M55.4,1910.2H10.6c-4.9,0-6.7,0.6-8.5,1.5c-2,1-3.5,2.6-4.5,4.5c-1,1.8-1.5,3.6-1.5,8.5
			v28.9c0,4.9,0.6,6.7,1.5,8.5c1,2,2.6,3.5,4.5,4.5c1.8,1,3.6,1.5,8.5,1.5h44.9c4.9,0,6.7-0.6,8.5-1.5c2-1,3.5-2.6,4.5-4.5
			c1-1.8,1.5-3.6,1.5-8.5v-28.9c0-4.9-0.6-6.7-1.5-8.5c-1-2-2.6-3.5-4.5-4.5C62.1,1910.7,60.4,1910.2,55.4,1910.2z"/>
		<path id="Path_59_" class="st18" d="M10.6,1912.2h44.9c4.4,0,6,0.5,7.5,1.3c1.6,0.9,2.9,2.1,3.7,3.7s1.3,3.2,1.3,7.5v3.4H-2v-3.4
			c0-4.4,0.5-6,1.3-7.5s2.1-2.9,3.7-3.7S6.2,1912.2,10.6,1912.2z"/>
		<path id="Path_60_" class="st22" d="M68,1950.2v3.4c0,4.4-0.5,6-1.3,7.5s-2.1,2.9-3.7,3.7c-1.6,0.9-3.2,1.3-7.5,1.3H10.6
			c-4.4,0-6-0.5-7.5-1.3s-2.9-2.1-3.7-3.7s-1.3-3.2-1.3-7.5v-3.4H68z"/>
		<path id="Oval_1_" class="st8" d="M33,1947.2c-4.4,0-8-3.6-8-8c0-4.4,3.6-8,8-8s8,3.6,8,8C41,1943.6,37.4,1947.2,33,1947.2z
			 M33,1943.2c2.2,0,4-1.8,4-4s-1.8-4-4-4s-4,1.8-4,4S30.8,1943.2,33,1943.2z"/>
	</g>
</g>
<g id="id">
	<g id="Group_29_" transform="translate(6.000000, 6.000000)">
		<path id="Rectangle-3_30_" class="st10" d="M55.4,1976.2H10.6c-4.9,0-6.7,0.6-8.5,1.5c-2,1-3.5,2.6-4.5,4.5
			c-1,1.8-1.5,3.6-1.5,8.5v28.9c0,4.9,0.6,6.7,1.5,8.5c1,2,2.6,3.5,4.5,4.5c1.8,1,3.6,1.5,8.5,1.5h44.9c4.9,0,6.7-0.6,8.5-1.5
			c2-1,3.5-2.6,4.5-4.5c1-1.8,1.5-3.6,1.5-8.5v-28.9c0-4.9-0.6-6.7-1.5-8.5c-1-2-2.6-3.5-4.5-4.5
			C62.1,1976.7,60.4,1976.2,55.4,1976.2z"/>
		<path id="Path_61_" class="st16" d="M68,2005.2v14.4c0,4.4-0.5,6-1.3,7.5s-2.1,2.9-3.7,3.7c-1.6,0.9-3.2,1.3-7.5,1.3H10.6
			c-4.4,0-6-0.5-7.5-1.3s-2.9-2.1-3.7-3.7s-1.3-3.2-1.3-7.5v-14.4H68z"/>
	</g>
</g>
<g id="ha">
	<g id="Group_30_" transform="translate(6.000000, 6.000000)">
		<path id="Rectangle-3_31_" class="st7" d="M55.4,2042.2H10.6c-4.9,0-6.7,0.6-8.5,1.5c-2,1-3.5,2.6-4.5,4.5c-1,1.8-1.5,3.6-1.5,8.5
			v28.9c0,4.9,0.6,6.7,1.5,8.5c1,2,2.6,3.5,4.5,4.5c1.8,1,3.6,1.5,8.5,1.5h44.9c4.9,0,6.7-0.6,8.5-1.5c2-1,3.5-2.6,4.5-4.5
			c1-1.8,1.5-3.6,1.5-8.5v-28.9c0-4.9-0.6-6.7-1.5-8.5c-1-2-2.6-3.5-4.5-4.5C62.1,2042.7,60.4,2042.2,55.4,2042.2z"/>
		<rect id="Rectangle-4-Copy-5" x="-2" y="2053.2" class="st1" width="70" height="9"/>
		<rect id="Rectangle-4-Copy" x="-2" y="2062.2" class="st25" width="70" height="9"/>
		<path id="Path_62_" class="st26" d="M37,2044.2v27H-2v-14.4c0-4.4,0.5-6,1.3-7.5c0.9-1.6,2.1-2.9,3.7-3.7l0.4-0.2
			c1.5-0.7,3.1-1.1,7.1-1.1H37z"/>
		<path id="Path_63_" class="st16" d="M15,2044.2v8.9l2.5,1.8l2.5-1.8v-8.9h3v6.7l9.3-6.7H37v2.7l-7.2,5.3H37v3H25.6l-3.9,2.8l3,2.2
			H37v3h-8.2l8.2,5.9v2.1h-5.7l-8.3-6.1v6.1h-3v-8.2l-2.5-1.8l-2.5,1.8v8.3h-3v-6.1l-8.4,6.1H-2v-2.1l8.1-5.9H-2v-3h12.2l3-2.2
			l-3.9-2.8l-11.3,0c0-1.2,0.1-2.2,0.3-3l6.9,0l-5.3-3.9c0.8-1.2,1.9-2.1,3.2-2.8c0.3-0.2,0.6-0.3,0.9-0.4l8.1,5.9v-6.8H15z"/>
		<path id="Path_64_" class="st26" d="M67.8,2089.2c-0.2,1.9-0.6,2.9-1.2,4c-0.9,1.6-2.1,2.9-3.7,3.7c-1.6,0.9-3.2,1.3-7.5,1.3H10.6
			c-4.4,0-6-0.5-7.5-1.3c-1.6-0.9-2.9-2.1-3.7-3.7c-0.6-1.1-1-2.1-1.2-4H67.8z"/>
		<path id="Path_65_" class="st9" d="M68,2085.6c0,1.5-0.1,2.6-0.2,3.6H-1.9c-0.1-0.9-0.2-2.1-0.2-3.6v-5.4h70V2085.6z"/>
		<polygon id="Path_66_" class="st9" points="20,2055.2 37,2055.2 37,2060.2 20,2060.2 20,2071.2 15,2071.2 15,2060.2 -2,2060.2 
			-2,2055.2 15,2055.2 15,2044.2 20,2044.2 		"/>
	</g>
</g>
<g id="nv">
	<g id="Group_31_" transform="translate(6.000000, 6.000000)">
		<path id="Rectangle-3_32_" class="st27" d="M55.4,2108.2H10.6c-4.9,0-6.7,0.6-8.5,1.5c-2,1-3.5,2.6-4.5,4.5
			c-1,1.8-1.5,3.6-1.5,8.5v28.9c0,4.9,0.6,6.7,1.5,8.5c1,2,2.6,3.5,4.5,4.5c1.8,1,3.6,1.5,8.5,1.5h44.9c4.9,0,6.7-0.6,8.5-1.5
			c2-1,3.5-2.6,4.5-4.5c1-1.8,1.5-3.6,1.5-8.5v-28.9c0-4.9-0.6-6.7-1.5-8.5c-1-2-2.6-3.5-4.5-4.5
			C62.1,2108.7,60.4,2108.2,55.4,2108.2z"/>
		<path id="Star_3_" class="st23" d="M32,2123.1l-0.6,8.7c0,0.6-0.6,1.1-1.2,1c0,0,0,0,0,0l-1.9-0.2c-0.6-0.1-1.1,0.4-1.2,1
			c0,0.3,0.1,0.6,0.2,0.8l1.2,1.5c0.3,0.4,0.3,1.1-0.1,1.5l-1.4,1.4c-0.4,0.4-0.4,1.1,0,1.6c0.2,0.2,0.5,0.3,0.8,0.3l2.1,0.1
			c0.4,0,0.8,0.3,1,0.6l1.2,2.5c0.3,0.6,0.9,0.8,1.5,0.5c0.2-0.1,0.4-0.3,0.5-0.5l1.3-2.5c0.2-0.4,0.6-0.6,1-0.6H38
			c0.6,0,1.1-0.5,1.1-1.1c0-0.3-0.1-0.5-0.3-0.7l-1.4-1.6c-0.3-0.4-0.3-0.9-0.1-1.3l1.1-1.7c0.3-0.5,0.2-1.2-0.4-1.5
			c-0.2-0.1-0.4-0.2-0.7-0.2l-1.6,0.1c-0.6,0.1-1.2-0.4-1.2-1l0,0l-0.8-8.7c0-0.3,0.1-0.7,0.3-0.9l3.1-3c0.7-0.6,1.7-0.6,2.4,0
			c0.2,0.2,0.3,0.4,0.4,0.6l1.3,3.6c0.2,0.6,0.8,1.1,1.5,1.1l4.2,0.2c0.9,0,1.6,0.8,1.6,1.7c0,0.1,0,0.3-0.1,0.4l-1.1,4.1
			c-0.2,0.6,0,1.3,0.6,1.7l3.3,2.7c0.7,0.6,0.8,1.6,0.3,2.3c-0.1,0.1-0.2,0.2-0.3,0.3l-3.3,2.7c-0.5,0.4-0.7,1.1-0.6,1.7l1.1,4.1
			c0.2,0.9-0.3,1.8-1.2,2.1c-0.1,0-0.2,0.1-0.4,0.1l-4.2,0.2c-0.7,0-1.3,0.5-1.5,1.1l-1.5,4c-0.3,0.9-1.3,1.3-2.1,1
			c-0.1,0-0.2-0.1-0.4-0.2l-3.5-2.3c-0.6-0.4-1.3-0.4-1.9,0l-3.5,2.3c-0.8,0.5-1.8,0.3-2.3-0.5c-0.1-0.1-0.1-0.2-0.2-0.4l-1.5-4
			c-0.2-0.6-0.8-1.1-1.5-1.1l-4.2-0.2c-0.9,0-1.6-0.8-1.6-1.7c0-0.1,0-0.3,0.1-0.4l1.1-4.1c0.2-0.6,0-1.3-0.6-1.7l-3.3-2.7
			c-0.7-0.6-0.8-1.6-0.3-2.3c0.1-0.1,0.2-0.2,0.3-0.3l3.3-2.7c0.5-0.4,0.7-1.1,0.6-1.7l-1.1-4.1c-0.2-0.9,0.3-1.8,1.2-2.1
			c0.1,0,0.2-0.1,0.4-0.1l4.2-0.2c0.7,0,1.3-0.5,1.5-1.1l1.3-3.5c0.3-0.9,1.3-1.3,2.1-1c0.2,0.1,0.4,0.2,0.6,0.4l3,3
			C31.9,2122.5,32,2122.8,32,2123.1L32,2123.1z"/>
		<path id="Path_67_" class="st9" d="M19.5,2137.2c0-6.2,4.2-11.6,10.1-13.2c0.5-0.1,0.9,0.2,0.9,0.7l0,3.5c0,0.3-0.2,0.6-0.5,0.7
			c-3.4,1.3-5.7,4.6-5.7,8.3c0,4.9,3.9,8.8,8.7,8.8s8.7-3.9,8.7-8.8c0-3.7-2.3-7-5.7-8.3c-0.3-0.1-0.5-0.4-0.5-0.7l0-3.5
			c0-0.5,0.4-0.8,0.9-0.7c5.9,1.5,10.1,7,10.1,13.2c0,7.5-6,13.6-13.5,13.6S19.5,2144.7,19.5,2137.2z"/>
	</g>
</g>
<g id="ar">
	<g id="Group_32_" transform="translate(6.000000, 6.000000)">
		<path id="Rectangle-3_33_" class="st24" d="M55.4,2174.2H10.6c-4.9,0-6.7,0.6-8.5,1.5c-2,1-3.5,2.6-4.5,4.5
			c-1,1.8-1.5,3.6-1.5,8.5v28.9c0,4.9,0.6,6.7,1.5,8.5c1,2,2.6,3.5,4.5,4.5c1.8,1,3.6,1.5,8.5,1.5h44.9c4.9,0,6.7-0.6,8.5-1.5
			c2-1,3.5-2.6,4.5-4.5c1-1.8,1.5-3.6,1.5-8.5v-28.9c0-4.9-0.6-6.7-1.5-8.5c-1-2-2.6-3.5-4.5-4.5
			C62.1,2174.7,60.4,2174.2,55.4,2174.2z"/>
	</g>
	<g id="Group-3_1_" transform="translate(27.000000, 12.000000)">
		<g id="Group_33_" transform="translate(0.000000, 5.000000)">
			<path id="Oval_2_" class="st28" d="M12.5,2206.2c8,0,14.5-6.3,14.5-14s-6.5-14-14.5-14s-14.5,6.3-14.5,14S4.5,2206.2,12.5,2206.2
				z"/>
			<path id="Path-6-Copy" class="st29" d="M13.3,2178.8c2.2,0,4.1,0.1,4.7-2.7"/>
			<path id="Triangle_3_" class="st6" d="M14,2207.6l-9,2.5c-1.1,0.3-2.2-0.3-2.5-1.4c-0.1-0.4-0.1-0.8,0.1-1.2l0.9-2.4
				c0.3-0.8,1.2-1.3,2.1-0.9c0,0,0,0,0.1,0L14,2207.6L14,2207.6z"/>
			<path id="Triangle-Copy" class="st6" d="M11,2207.6l9,2.5c1.1,0.3,2.2-0.3,2.5-1.4c0.1-0.4,0.1-0.8-0.1-1.2l-0.9-2.4
				c-0.3-0.8-1.2-1.3-2.1-0.9c0,0,0,0-0.1,0L11,2207.6L11,2207.6z"/>
			<path id="Path-8" class="st30" d="M13.1,2178l-3.9,0.8l-0.4,0.9c1.1-0.2,2.4-0.3,4-0.4c1.4-0.1,2.5-0.6,3.4-1.6L13.1,2178z"/>
		</g>
		<g id="Group-2_1_" transform="translate(5.000000, 9.000000)">
			<circle id="Oval_3_" class="st6" cx="7.5" cy="2187.7" r="9.5"/>
			<circle id="Oval-Copy" class="st31" cx="7.5" cy="2183.7" r="7.5"/>
		</g>
		<path id="Combined-Shape_2_" class="st32" d="M12.2,2184c-0.2-1.6,0.3-3.2,1.5-4.3c1.1-1.1,2.7-1.6,4.2-1.4
			c0.2,1.6-0.3,3.2-1.5,4.3C15.2,2183.7,13.7,2184.2,12.2,2184L12.2,2184z"/>
		<path id="Combined-Shape-Copy" class="st32" d="M12.8,2184c0.2-1.6-0.3-3.2-1.5-4.3c-1.1-1.1-2.7-1.6-4.2-1.4
			c-0.2,1.6,0.3,3.2,1.5,4.3C9.8,2183.7,11.3,2184.2,12.8,2184L12.8,2184z"/>
	</g>
</g>
<g id="ca">
	<g id="Group_34_" transform="translate(6.000000, 6.000000)">
		<path id="Rectangle-3_34_" class="st4" d="M55.4,2240.2H10.6c-4.9,0-6.7,0.6-8.5,1.5c-2,1-3.5,2.6-4.5,4.5c-1,1.8-1.5,3.6-1.5,8.5
			v28.9c0,4.9,0.6,6.7,1.5,8.5c1,2,2.6,3.5,4.5,4.5c1.8,1,3.6,1.5,8.5,1.5h44.9c4.9,0,6.7-0.6,8.5-1.5c2-1,3.5-2.6,4.5-4.5
			c1-1.8,1.5-3.6,1.5-8.5v-28.9c0-4.9-0.6-6.7-1.5-8.5c-1-2-2.6-3.5-4.5-4.5C62.1,2240.7,60.4,2240.2,55.4,2240.2z"/>
		<path id="Path_68_" class="st33" d="M10.6,2242.2h44.9c4.4,0,6,0.5,7.5,1.3c1.6,0.9,2.9,2.1,3.7,3.7c0.2,0.3,0.3,0.6,0.5,1H-1.2
			c0.1-0.3,0.3-0.7,0.5-1c0.9-1.6,2.1-2.9,3.7-3.7S6.2,2242.2,10.6,2242.2z"/>
		<path id="Path_69_" class="st33" d="M68,2254.2c0,0.2,0,0.4,0,0.6v5.4H-2v-5.4c0-0.2,0-0.4,0-0.6H68z"/>
		<polygon id="Path_70_" class="st33" points="68,2266.2 68,2272.2 -2,2272.2 -2,2266.2 		"/>
		<path id="Path_71_" class="st33" d="M68,2283.6c0,0.2,0,0.4,0,0.6H-2c0-0.2,0-0.4,0-0.6v-5.4h70V2283.6z"/>
		<path id="Path_72_" class="st33" d="M67.2,2290.2c-0.1,0.3-0.3,0.7-0.5,1c-0.9,1.6-2.1,2.9-3.7,3.7c-1.6,0.9-3.2,1.3-7.5,1.3H10.6
			c-4.4,0-6-0.5-7.5-1.3c-1.6-0.9-2.9-2.1-3.7-3.7c-0.2-0.3-0.3-0.6-0.5-1H67.2z"/>
	</g>
</g>
<g id="th">
	<g id="Group_35_" transform="translate(6.000000, 6.000000)">
		<path id="Rectangle-3_35_" class="st16" d="M10.6,2308.2h44.9c4.4,0,6,0.5,7.5,1.3c1.6,0.9,2.9,2.1,3.7,3.7
			c0.9,1.6,1.3,3.2,1.3,7.5v28.9c0,4.4-0.5,6-1.3,7.5c-0.9,1.6-2.1,2.9-3.7,3.7c-1.6,0.9-3.2,1.3-7.5,1.3H10.6c-4.4,0-6-0.5-7.5-1.3
			c-1.6-0.9-2.9-2.1-3.7-3.7c-0.9-1.6-1.3-3.2-1.3-7.5v-28.9c0-4.4,0.5-6,1.3-7.5c0.9-1.6,2.1-2.9,3.7-3.7S6.2,2308.2,10.6,2308.2z"
			/>
		<path id="Rectangle-3_36_" class="st7" d="M55.4,2306.2H10.6c-4.9,0-6.7,0.6-8.5,1.5c-2,1-3.5,2.6-4.5,4.5c-1,1.8-1.5,3.6-1.5,8.5
			v28.9c0,4.9,0.6,6.7,1.5,8.5c1,2,2.6,3.5,4.5,4.5c1.8,1,3.6,1.5,8.5,1.5h44.9c4.9,0,6.7-0.6,8.5-1.5c2-1,3.5-2.6,4.5-4.5
			c1-1.8,1.5-3.6,1.5-8.5v-28.9c0-4.9-0.6-6.7-1.5-8.5c-1-2-2.6-3.5-4.5-4.5C62.1,2306.7,60.4,2306.2,55.4,2306.2z"/>
		<path id="Path_73_" class="st9" d="M67.7,2354.2c-0.2,1.3-0.6,2.1-1,3c-0.9,1.6-2.1,2.9-3.7,3.7c-1.6,0.9-3.2,1.3-7.5,1.3H10.6
			c-4.4,0-6-0.5-7.5-1.3c-1.6-0.9-2.9-2.1-3.7-3.7c-0.5-0.9-0.8-1.7-1-3H67.7L67.7,2354.2z"/>
		<polygon id="Rectangle-4_1_" class="st2" points="68,2324.2 68,2346.2 -2,2346.2 -2,2324.2 		"/>
		<path id="Path_74_" class="st9" d="M10.6,2308.2h44.9c4.4,0,6,0.5,7.5,1.3c1.6,0.9,2.9,2.1,3.7,3.7c0.5,0.9,0.8,1.7,1,3H-1.7
			c0.2-1.3,0.6-2.1,1-3c0.9-1.6,2.1-2.9,3.7-3.7S6.2,2308.2,10.6,2308.2z"/>
	</g>
</g>
<g id="gn">
	<g id="Group_36_" transform="translate(6.000000, 6.000000)">
		<path id="Rectangle-3_37_" class="st7" d="M55.4,2372.2H10.6c-4.9,0-6.7,0.6-8.5,1.5c-2,1-3.5,2.6-4.5,4.5c-1,1.8-1.5,3.6-1.5,8.5
			v28.9c0,4.9,0.6,6.7,1.5,8.5c1,2,2.6,3.5,4.5,4.5c1.8,1,3.6,1.5,8.5,1.5h44.9c4.9,0,6.7-0.6,8.5-1.5c2-1,3.5-2.6,4.5-4.5
			c1-1.8,1.5-3.6,1.5-8.5v-28.9c0-4.9-0.6-6.7-1.5-8.5c-1-2-2.6-3.5-4.5-4.5C62.1,2372.7,60.4,2372.2,55.4,2372.2z"/>
		<path id="Path_75_" class="st8" d="M68,2412.2v3.4c0,4.4-0.5,6-1.3,7.5c-0.9,1.6-2.1,2.9-3.7,3.7c-1.6,0.9-3.2,1.3-7.5,1.3H10.6
			c-4.4,0-6-0.5-7.5-1.3c-1.6-0.9-2.9-2.1-3.7-3.7c-0.9-1.6-1.3-3.2-1.3-7.5v-3.4H68z"/>
		<path id="Path_76_" class="st9" d="M10.6,2374.2h44.9c4.4,0,6,0.5,7.5,1.3c1.6,0.9,2.9,2.1,3.7,3.7c0.9,1.6,1.3,3.2,1.3,7.5v3.4
			H-2v-3.4c0-4.4,0.5-6,1.3-7.5c0.9-1.6,2.1-2.9,3.7-3.7S6.2,2374.2,10.6,2374.2z"/>
		<path id="Oval_4_" class="st9" d="M33,2410.2c-5,0-9-4-9-9c0-5,4-9,9-9s9,4,9,9C42,2406.1,38,2410.2,33,2410.2z M33,2406.2
			c2.8,0,5-2.2,5-5c0-2.8-2.2-5-5-5s-5,2.2-5,5C28,2403.9,30.2,2406.2,33,2406.2z"/>
		<circle id="Oval_5_" class="st2" cx="33" cy="2401.2" r="3"/>
	</g>
</g>
<g id="ambassador">
	<g id="Group-5-Copy" transform="translate(6.000000, 6.000000)">
		<path id="Rectangle-3_38_" class="st34" d="M55.4,2438.2H10.6c-4.9,0-6.7,0.6-8.5,1.5c-2,1-3.5,2.6-4.5,4.5
			c-1,1.8-1.5,3.6-1.5,8.5v28.9c0,4.9,0.6,6.7,1.5,8.5c1,2,2.6,3.5,4.5,4.5c1.8,1,3.6,1.5,8.5,1.5h44.9c4.9,0,6.7-0.6,8.5-1.5
			c2-1,3.5-2.6,4.5-4.5c1-1.8,1.5-3.6,1.5-8.5v-28.9c0-4.9-0.6-6.7-1.5-8.5c-1-2-2.6-3.5-4.5-4.5
			C62.1,2438.7,60.4,2438.2,55.4,2438.2z"/>
		<path id="Path_77_" class="st18" d="M29.5,2440.2l6.3,3.4l-6.3,8.2l-2.5,9.5l-7-4.8v7l22.8,9.6l-15.4,21.1h-3.8l1.5-12.6l-6.3-5.6
			v-8.3l-8.3-8.3L2,2445.7l2.4-4.8c1.3-0.5,3-0.7,6.2-0.7H29.5z"/>
		<path id="Combined-Shape_3_" class="st35" d="M55.4,2440.2c4.4,0,6,0.5,7.5,1.3c1.6,0.9,2.9,2.1,3.7,3.7c0.9,1.6,1.3,3.2,1.3,7.5
			v28.9c0,3.4-0.3,5.1-0.8,6.5l-5.8-1.9l-1.3-13l-8.7-5.6v-13h8.3l-4.1-6.4h-5.9l3.1-8H55.4z"/>
		<g id="Group-7" transform="translate(4.000000, 0.000000)">
		</g>
	</g>
</g>
<g id="duolingo">
	<g id="Group-5-Copy-2" transform="translate(6.000000, 6.000000)">
		<path id="Rectangle-3_39_" class="st17" d="M55.4,2504.2H10.6c-4.9,0-6.7,0.6-8.5,1.5c-2,1-3.5,2.6-4.5,4.5
			c-1,1.8-1.5,3.6-1.5,8.5v28.9c0,4.9,0.6,6.7,1.5,8.5c1,2,2.6,3.5,4.5,4.5c1.8,1,3.6,1.5,8.5,1.5h44.9c4.9,0,6.7-0.6,8.5-1.5
			c2-1,3.5-2.6,4.5-4.5c1-1.8,1.5-3.6,1.5-8.5v-28.9c0-4.9-0.6-6.7-1.5-8.5c-1-2-2.6-3.5-4.5-4.5
			C62.1,2504.7,60.4,2504.2,55.4,2504.2z"/>
		<g id="Icon" transform="translate(4.000000, 0.000000)">
			<g id="Glyph-Copy-3" transform="translate(0.867188, 5.550781)">
				<g id="Group_37_" transform="translate(0.035890, 0.000000)">
					<path id="Combined-Shape-Copy-57" class="st36" d="M22.2,2518.2c0.9,0.9,0.6,2.4-0.5,2.9c-3.7,1.8-8.1,1-11-2
						c-2.9-3-3.5-7.5-1.6-11.1c0.6-1.1,1.8-1.3,2.7-0.4L22.2,2518.2z"/>
					<path id="Path-12" class="st37" d="M21,2517c3.7,3.7,10.1,3.7,14.2,0s-0.6,21.5-0.6,21.5c0,0-2.2,0-6.5,0c-1.2,0-3.3,0-6.3,0
						C18.8,2521.7,18.5,2514.5,21,2517z"/>
					<path id="Combined-Shape-Copy-58" class="st36" d="M6.1,2511.5l9.9,11c0.8,0.9,0.5,2.4-0.6,2.9c-3.7,1.7-8.2,0.7-11-2.4
						c-2.8-3.1-3.3-7.6-1.2-11.1C3.8,2510.7,5.2,2510.6,6.1,2511.5z"/>
					
						<g id="Group-4" transform="translate(47.352758, 11.848706) scale(-1, 1) translate(-47.352758, -11.848706) translate(34.738341, 0.039135)">
						<path id="Combined-Shape-Copy-57_1_" class="st36" d="M25.9,2518.1c0.9,0.9,0.6,2.4-0.5,2.9c-3.7,1.8-8.1,1-11-2
							c-2.9-3-3.5-7.5-1.6-11.1c0.6-1.1,1.8-1.3,2.7-0.4L25.9,2518.1z"/>
						<path id="Combined-Shape-Copy-58_1_" class="st36" d="M9.8,2511.4l9.9,11c0.8,0.9,0.5,2.4-0.6,2.9c-3.7,1.7-8.2,0.7-11-2.4
							c-2.8-3.1-3.3-7.6-1.2-11.1C7.5,2510.7,9,2510.5,9.8,2511.4z"/>
					</g>
					<path id="Rectangle-130-Copy-36" class="st37" d="M11.1,2513.1h0.6c7.3,0,13.1,5.9,13.1,13.1v6.8c0,7.3-5.9,13.1-13.1,13.1
						h-0.6c-7.3,0-13.1-5.9-13.1-13.1v-6.8C-2,2519,3.9,2513.1,11.1,2513.1z"/>
					<path id="Rectangle-130-Copy-37" class="st37" d="M44.5,2513.1h0.5c7.3,0,13.1,5.9,13.1,13.1v6.8c0,7.3-5.9,13.1-13.1,13.1
						h-0.4c-7.2,0-13.1-5.8-13.1-13l-0.1-6.8c-0.1-7.3,5.8-13.2,13-13.3C44.4,2513.1,44.4,2513.1,44.5,2513.1z"/>
					<path id="Rectangle-130-Copy-38" class="st6" d="M12,2517.8c5.1,0,9.2,4.1,9.2,9.2v5.4c0,5.1-4.1,9.2-9.2,9.2s-9.2-4.1-9.2-9.2
						v-5.4C2.8,2521.9,6.9,2517.8,12,2517.8z"/>
					<path id="Rectangle-130-Copy-39" class="st6" d="M44.1,2517.8c5.1,0,9.2,4.1,9.2,9.2v5.4c0,5.1-4.1,9.2-9.2,9.2
						s-9.2-4.1-9.2-9.2v-5.4C35,2521.9,39.1,2517.8,44.1,2517.8z"/>
					<path id="Rectangle-130-Copy-40" class="st38" d="M13.4,2523.1c2.4,0,4.3,1.9,4.3,4.3v4.6c0,2.4-1.9,4.3-4.3,4.3
						s-4.3-1.9-4.3-4.3v-4.6C9,2525,11,2523.1,13.4,2523.1z"/>
					<g id="Group-3_2_" transform="translate(23.234280, 27.443651)">
						<g id="Group-2_2_">
							<path id="Rectangle-2-Copy-9" class="st39" d="M4.9,2506.2c2.7,0,5,2.2,5,5v1.7c0,2.7-2.2,5-5,5s-5-2.2-5-5v-1.7
								C-0.1,2508.4,2.1,2506.2,4.9,2506.2z"/>
							<path id="Combined-Shape-Copy-61" class="st40" d="M-2,2511.6c0.6-3.2,3.5-5.5,7.1-5.5c3.2,0,6.1,2.3,6.7,5.5l0,0v0.3
								c0,0.2-0.1,0.3-0.3,0.3l-6.4,1.1c-0.2,0-0.2,0-0.4,0l-6.4-1.1c-0.2,0-0.3-0.1-0.3-0.3V2511.6L-2,2511.6z"/>
							<path id="Rectangle_8_" class="st41" d="M3.8,2507.3c0.3-0.1,0.7-0.1,1-0.1c0.4,0,0.7,0,1.1,0.1c0.7,0.2,1.3,0.9,1.3,1.6
								c0,0.6-0.5,1.1-1.1,1.1H3.6c-0.6,0-1.1-0.5-1.1-1.1C2.5,2508.1,3,2507.4,3.8,2507.3z"/>
						</g>
					</g>
					<path id="Rectangle-130-Copy-41" class="st38" d="M42.7,2523.1c2.4,0,4.3,1.9,4.3,4.3v4.6c0,2.4-1.9,4.3-4.3,4.3
						c-2.4,0-4.3-1.9-4.3-4.3v-4.6C38.4,2525,40.3,2523.1,42.7,2523.1z"/>
					<ellipse id="Oval-10-Copy-4" class="st6" cx="9.7" cy="2525.6" rx="2.8" ry="2.8"/>
					<ellipse id="Oval-10-Copy-5" class="st6" cx="38.6" cy="2525.6" rx="2.8" ry="2.8"/>
				</g>
			</g>
		</g>
	</g>
</g>
<g id="troubleshooting">
	<g id="Group-5-Copy-3" transform="translate(6.000000, 6.000000)">
		<path id="Rectangle-3_40_" class="st15" d="M55.4,2570.2H10.6c-4.9,0-6.7,0.6-8.5,1.5c-2,1-3.5,2.6-4.5,4.5
			c-1,1.8-1.5,3.6-1.5,8.5v28.9c0,4.9,0.6,6.7,1.5,8.5c1,2,2.6,3.5,4.5,4.5c1.8,1,3.6,1.5,8.5,1.5h44.9c4.9,0,6.7-0.6,8.5-1.5
			c2-1,3.5-2.6,4.5-4.5c1-1.8,1.5-3.6,1.5-8.5v-28.9c0-4.9-0.6-6.7-1.5-8.5c-1-2-2.6-3.5-4.5-4.5
			C62.1,2570.7,60.4,2570.2,55.4,2570.2z"/>
		
			<g id="Group_38_" transform="translate(33.627417, 26.627417) scale(-1, 1) rotate(45.000000) translate(-33.627417, -26.627417) translate(26.627417, 1.627417)">
			<path id="Rectangle_9_" class="st42" d="M1826.9,1825.1L1826.9,1825.1c1.2,0,2.2,1,2.2,2.2v31.1c0,1.2-1,2.2-2.2,2.2l0,0
				c-1.2,0-2.2-1-2.2-2.2v-31.1C1824.7,1826.1,1825.7,1825.1,1826.9,1825.1z"/>
			<path id="Combined-Shape_4_" class="st43" d="M1832.5,1839.8c0.9,0,1.7,0.7,1.7,1.7v0.8c0,1.3-1.1,2.4-2.4,2.4l-0.3,0
				c1.7,1.2,2.7,3.2,2.7,5.4v10.6c0,3.7-3,6.7-6.7,6.7h-0.6c-3.7,0-6.7-3-6.7-6.7v-10.6c0-2.2,1.1-4.2,2.7-5.4l-0.3,0
				c-1.3,0-2.4-1.1-2.4-2.4v-0.8c0-0.9,0.7-1.7,1.7-1.7H1832.5z"/>
			<path id="Rectangle_10_" class="st42" d="M1825.7,1817.7h2.7c0.4,0,0.7,0.3,0.8,0.6l1.8,6.5c0.1,0.2,0,0.4-0.1,0.6l-1.6,3.3
				c-0.1,0.3-0.4,0.5-0.7,0.5h-2.9c-0.3,0-0.6-0.2-0.7-0.5l-1.6-3.3c-0.1-0.2-0.1-0.4-0.1-0.6l1.8-6.5
				C1825,1818,1825.3,1817.7,1825.7,1817.7z"/>
			<path id="Rectangle_11_" class="st44" d="M1827.3,1847.1L1827.3,1847.1c0.6,0,1.2,0.5,1.2,1.2v14.6c0,0.6-0.5,1.2-1.2,1.2l0,0
				c-0.6,0-1.2-0.5-1.2-1.2v-14.6C1826.1,1847.6,1826.6,1847.1,1827.3,1847.1z"/>
			<path id="Rectangle-Copy-2_1_" class="st44" d="M1831.1,1848.8L1831.1,1848.8c0.6,0,1.2,0.5,1.2,1.2v10.9c0,0.6-0.5,1.2-1.2,1.2
				l0,0c-0.6,0-1.2-0.5-1.2-1.2V1850C1830,1849.3,1830.5,1848.8,1831.1,1848.8z"/>
			<path id="Rectangle-Copy-3_1_" class="st44" d="M1823.1,1848.8L1823.1,1848.8c0.6,0,1.2,0.5,1.2,1.2v10.9c0,0.6-0.5,1.2-1.2,1.2
				l0,0c-0.6,0-1.2-0.5-1.2-1.2V1850C1821.9,1849.3,1822.4,1848.8,1823.1,1848.8z"/>
		</g>
		
			<g id="Group_39_" transform="translate(34.000000, 28.000000) rotate(45.000000) translate(-34.000000, -28.000000) translate(24.000000, 6.000000)">
			<path id="Combined-Shape_5_" class="st45" d="M1830.5,1832.5c1.7,0,3.2,1.4,3.2,3.2v22c0,3.3-2.7,5.9-5.9,5.9s-5.9-2.7-5.9-5.9
				v-22c0-1.7,1.4-3.2,3.2-3.2H1830.5z M1828,1854.9h-0.3c-0.1,0-0.2,0-0.3,0c-1.4,0.2-2.4,1.4-2.2,2.8l0,0l0.1,0.4c0,0,0,0,0,0
				c0.2,1.4,1.4,2.3,2.8,2.1c1.4-0.2,2.5-1.4,2.5-2.9l0,0v0C1830.6,1856.1,1829.4,1854.9,1828,1854.9L1828,1854.9z"/>
			<path id="Rectangle_12_" class="st42" d="M1827.4,1834.8L1827.4,1834.8c0.9,0,1.6,0.7,1.6,1.6v13.2c0,0.9-0.7,1.6-1.6,1.6l0,0
				c-0.9,0-1.6-0.7-1.6-1.6v-13.2C1825.8,1835.5,1826.5,1834.8,1827.4,1834.8z"/>
			<path id="Combined-Shape_6_" class="st45" d="M1822.3,1820.4c0.5,0,0.9,0.4,0.9,0.9l0,0v8.3c0,0.8,0.6,1.4,1.4,1.4l0,0h5.5
				c0.8,0,1.4-0.6,1.4-1.4l0,0v-8.3c0-0.2,0-0.3,0.1-0.4c0.2-0.4,0.8-0.6,1.2-0.3l0,0l0.8,0.4c2.3,1.7,3.7,4.4,3.7,7.5
				c0,5.2-4.2,9.4-9.4,9.4h-1.2c-5.2,0-9.4-4.2-9.4-9.4c0-3.1,1.5-5.8,3.7-7.5l0.8-0.4C1822,1820.4,1822.1,1820.4,1822.3,1820.4z"/>
		</g>
	</g>
</g>
<g id="teachers">
	<g id="Group-5-Copy-4" transform="translate(1.000000, 6.000000)">
		<path id="Rectangle-3_41_" class="st17" d="M60.4,2636.2H15.6c-4.9,0-6.7,0.6-8.5,1.5c-2,1-3.5,2.6-4.5,4.5
			c-1,1.8-1.5,3.6-1.5,8.5v28.9c0,4.9,0.6,6.7,1.5,8.5c1,2,2.6,3.5,4.5,4.5c1.8,1,3.6,1.5,8.5,1.5h44.9c4.9,0,6.7-0.6,8.5-1.5
			c2-1,3.5-2.6,4.5-4.5c1-1.8,1.5-3.6,1.5-8.5v-28.9c0-4.9-0.6-6.7-1.5-8.5c-1-2-2.6-3.5-4.5-4.5
			C67.1,2636.7,65.4,2636.2,60.4,2636.2z"/>
		<path id="Rectangle-3-Copy-4" class="st17" d="M60.4,2636.2H15.6c-4.9,0-6.7,0.6-8.5,1.5c-2,1-3.5,2.6-4.5,4.5
			c-1,1.8-1.5,3.6-1.5,8.5v28.9c0,4.9,0.6,6.7,1.5,8.5c1,2,2.6,3.5,4.5,4.5c1.8,1,3.6,1.5,8.5,1.5h44.9c4.9,0,6.7-0.6,8.5-1.5
			c2-1,3.5-2.6,4.5-4.5c1-1.8,1.5-3.6,1.5-8.5v-28.9c0-4.9-0.6-6.7-1.5-8.5c-1-2-2.6-3.5-4.5-4.5
			C67.1,2636.7,65.4,2636.2,60.4,2636.2z"/>
		<g id="Page-1" transform="translate(0.000000, 2.000000)">
			<g id="Group-112" transform="translate(0.000000, 1.148238)">
				<path id="Fill-82" class="st46" d="M50.3,2644.9h-2.2c-0.8,0-1.5,0.7-1.5,1.5c0,0.8,0.7,1.5,1.5,1.5h2.2c0.8,0,1.5-0.7,1.5-1.5
					C51.8,2645.6,51.1,2644.9,50.3,2644.9"/>
				<path id="Fill-83" class="st46" d="M50.3,2649.2h-2.2c-0.5,0-0.9,0.4-0.9,0.9c0,0.5,0.4,0.9,0.9,0.9h2.2c0.5,0,0.9-0.4,0.9-0.9
					C51.1,2649.6,50.8,2649.2,50.3,2649.2"/>
				<path id="Fill-84" class="st47" d="M50.3,2664.3h-2.2c-0.5,0-0.9,0.4-0.9,0.9c0,0.5,0.4,0.9,0.9,0.9h2.2c0.5,0,0.9-0.4,0.9-0.9
					C51.1,2664.7,50.8,2664.3,50.3,2664.3"/>
				<path id="Fill-87" class="st48" d="M32.1,2644.9h-2.2c-0.8,0-1.5,0.7-1.5,1.5c0,0.8,0.7,1.5,1.5,1.5h2.2c0.8,0,1.5-0.7,1.5-1.5
					C33.7,2645.6,33,2644.9,32.1,2644.9"/>
				<path id="Fill-88" class="st48" d="M32.1,2649.2h-2.2c-0.5,0-0.9,0.4-0.9,0.9c0,0.5,0.4,0.9,0.9,0.9h2.2c0.5,0,0.9-0.4,0.9-0.9
					C33,2649.6,32.6,2649.2,32.1,2649.2"/>
				<path id="Fill-89" class="st49" d="M31.5,2661h-0.9c-0.8,0-1.5,0.7-1.5,1.5v2.1c0,0.8,0.7,1.5,1.5,1.5h0.9
					c0.8,0,1.5-0.7,1.5-1.5v-2.1C33,2661.7,32.3,2661,31.5,2661"/>
				<path id="Fill-94" class="st50" d="M23.5,2661h-0.9c-0.8,0-1.5,0.7-1.5,1.5v2.1c0,0.8,0.7,1.5,1.5,1.5h0.9
					c0.8,0,1.5-0.7,1.5-1.5v-2.1C24.9,2661.7,24.3,2661,23.5,2661"/>
				<path id="Fill-105" class="st51" d="M43,2638.7h-5.7c-1.2,0-2.1,1-2.1,2.1v26.2c0,1.2,0.9,2.1,2.1,2.1H43c1.2,0,2.1-1,2.1-2.1
					v-26.2C45.1,2639.7,44.2,2638.7,43,2638.7"/>
				<path id="Fill-106" class="st50" d="M40.3,2645.3H40c-0.8,0-1.5,0.7-1.5,1.5v8.3c0,0.8,0.7,1.5,1.5,1.5h0.3
					c0.8,0,1.5-0.7,1.5-1.5v-8.3C41.8,2646,41.1,2645.3,40.3,2645.3"/>
				<polygon id="Fill-107" class="st50" points="35.5,2643.3 45.1,2643.3 45.1,2642 35.5,2642 				"/>
				<path id="Fill-108" class="st50" d="M41.6,2664.3h-2.9c-0.5,0-0.9,0.4-0.9,0.9c0,0.5,0.4,0.9,0.9,0.9h2.9c0.5,0,0.9-0.4,0.9-0.9
					C42.5,2664.7,42.1,2664.3,41.6,2664.3"/>
			</g>
			<g id="Group-145" transform="translate(11.459259, 0.342475)">
				<path id="Fill-113" class="st52" d="M43,2650.3c0,6.7-5.4,12.2-12,12.2c-6.7,0-12-5.4-12-12.2c0-6.7,5.4-12.2,12-12.2
					C37.6,2638.2,43,2643.6,43,2650.3"/>
				<path id="Fill-115" class="st53" d="M39.9,2659.9c0,8.9-7.2,16.1-16,16.1s-16-7.2-16-16.1c0-8.9,7.2-16.1,16-16.1
					S39.9,2651,39.9,2659.9"/>
				<path id="Fill-117" class="st53" d="M44.7,2663c0,9.2-7.4,16.7-16.5,16.7c-9.1,0-16.5-7.5-16.5-16.7c0-9.2,7.4-16.7,16.5-16.7
					C37.4,2646.3,44.7,2653.8,44.7,2663"/>
				<path id="Fill-125" class="st54" d="M4.5,2669.1c0,3.4,2.8,6.2,6.2,6.2s6.2-2.8,6.2-6.2s-2.8-6.2-6.2-6.2S4.5,2665.6,4.5,2669.1
					"/>
				<path id="Fill-127" class="st53" d="M31.7,2644.7c2.1,2.2,1.9,5.9-0.6,8.4c-2.5,2.4-6.2,2.7-8.3,0.5L31.7,2644.7z"/>
				<path id="Stroke-129" class="st55" d="M31.7,2644.7c2.1,2.2,1.9,5.9-0.6,8.4c-2.5,2.4-6.2,2.7-8.3,0.5L31.7,2644.7z"/>
				<path id="Fill-135" class="st53" d="M31.4,2658.7c-2.9-0.8-4.6-4.1-3.8-7.5s3.9-5.5,6.9-4.7L31.4,2658.7z"/>
				<path id="Stroke-137" class="st56" d="M31.4,2658.7c-2.9-0.8-4.6-4.1-3.8-7.5s3.9-5.5,6.9-4.7L31.4,2658.7z"/>
				<path id="Fill-141" class="st54" d="M36.2,2669.1c0,3.4,2.8,6.2,6.2,6.2s6.2-2.8,6.2-6.2s-2.8-6.2-6.2-6.2
					S36.2,2665.6,36.2,2669.1"/>
			</g>
			<g id="Group-213" transform="translate(14.437037, 6.589681)">
				<path id="Fill-157" class="st57" d="M23.5,2679.8H23c-8.7,0-15.9-7.2-15.9-16v-5.8c0-8.8,7.1-16,15.9-16h0.6
					c8.7,0,15.9,7.2,15.9,16v5.8C39.4,2672.5,32.3,2679.8,23.5,2679.8"/>
				<path id="Fill-159" class="st58" d="M30,2661.7L30,2661.7c-1.2,0-2.1-1-2.1-2.1v-4c0-1.2,1-2.1,2.1-2.1c1.2,0,2.1,1,2.1,2.1v4
					C32.1,2660.7,31.2,2661.7,30,2661.7"/>
				<path id="Fill-161" class="st57" d="M31.3,2662h-2.6c-0.9,0-1.7-0.8-1.7-1.7c0-0.9,0.7-1.7,1.7-1.7h2.6c0.9,0,1.7,0.8,1.7,1.7
					C32.9,2661.2,32.2,2662,31.3,2662"/>
				<path id="Fill-163" class="st58" d="M16.7,2661.7L16.7,2661.7c-1.2,0-2.1-1-2.1-2.1v-4c0-1.2,1-2.1,2.1-2.1c1.2,0,2.1,1,2.1,2.1
					v4C18.8,2660.7,17.9,2661.7,16.7,2661.7"/>
				<path id="Fill-165" class="st57" d="M18,2662h-2.6c-0.9,0-1.7-0.8-1.7-1.7c0-0.9,0.7-1.7,1.7-1.7H18c0.9,0,1.7,0.8,1.7,1.7
					C19.7,2661.2,18.9,2662,18,2662"/>
				<path id="Fill-167" class="st59" d="M10.6,2665c0,0.3,0.2,0.5,0.4,0.5c0.2,0,0.4-0.2,0.4-0.5s-0.2-0.5-0.4-0.5
					C10.8,2664.6,10.6,2664.8,10.6,2665"/>
				<path id="Fill-169" class="st59" d="M36,2665.3c0.2,0.1,0.5,0.1,0.6-0.1s0.1-0.5-0.1-0.6c-0.2-0.1-0.5-0.1-0.6,0.1
					C35.8,2664.9,35.8,2665.2,36,2665.3"/>
				<path id="Fill-171" class="st54" d="M24.8,2668.6h-2.9c-1,0-1.8-0.6-1.8-1.3v-7.3c0-0.7,0.8-1.3,1.8-1.3h2.9
					c1,0,1.8,0.6,1.8,1.3v7.3C26.6,2668,25.8,2668.6,24.8,2668.6"/>
				<path id="Fill-173" class="st59" d="M12.2,2663.4c0,0.4,0.3,0.7,0.6,0.7c0.4,0,0.6-0.3,0.6-0.7c0-0.4-0.3-0.7-0.6-0.7
					C12.5,2662.7,12.2,2663,12.2,2663.4"/>
				<path id="Fill-175" class="st59" d="M9.8,2661.5c0,0.4,0.3,0.7,0.6,0.7c0.4,0,0.6-0.3,0.6-0.7c0-0.4-0.3-0.7-0.6-0.7
					C10.1,2660.9,9.8,2661.2,9.8,2661.5"/>
				<path id="Fill-177" class="st59" d="M33.1,2663.4c0,0.4,0.3,0.7,0.6,0.7c0.4,0,0.6-0.3,0.6-0.7c0-0.4-0.3-0.7-0.6-0.7
					C33.4,2662.7,33.1,2663,33.1,2663.4"/>
				<path id="Fill-179" class="st59" d="M35.3,2662.1c0,0.4,0.3,0.7,0.6,0.7c0.4,0,0.6-0.3,0.6-0.7c0-0.4-0.3-0.7-0.6-0.7
					C35.6,2661.5,35.3,2661.8,35.3,2662.1"/>
				<line id="Stroke-197" class="st60" x1="20.5" y1="2659.2" x2="26.2" y2="2659.2"/>
				<path id="Fill-199" class="st53" d="M38.1,2656.4c1.1,0.6,2.2,0.2,2.9-0.7c-0.5-8-6.4-14.6-14-16.1
					C27.6,2646.9,31.9,2653.1,38.1,2656.4"/>
				<path id="Fill-201" class="st53" d="M30.1,2641.8c-2.5-2-5.7-3.2-9.2-3.2c-8.2,0-14.9,6.7-14.9,15c0,0.7,0.1,1.5,0.2,2.2
					C15.9,2654.3,24.3,2649.1,30.1,2641.8"/>
				<g id="Group-9" transform="translate(11.853553, 15.557367)">
					<path id="Stroke-207" class="st61" d="M3.6,2636.7c-1.9,0-3.7,0.8-4.9,2.1c-1.3,1.3-2,3-2,5s0.8,3.7,2,5c1.3,1.3,3,2.1,4.9,2.1
						s3.7-0.8,4.9-2.1c1.3-1.3,2-3,2-5s-0.8-3.7-2-5C7.3,2637.4,5.6,2636.7,3.6,2636.7z"/>
					<path id="Combined-Shape_7_" class="st62" d="M3.6,2638.2c1.3,0,2.5,0.5,3.4,1.2l-7.7,7.7c-0.7-0.9-1.2-2.1-1.2-3.4
						C-1.8,2640.6,0.6,2638.2,3.6,2638.2z"/>
				</g>
				<g id="Group-9-Copy" transform="translate(27.853553, 15.557367)">
					<path id="Stroke-207_1_" class="st61" d="M3.6,2636.7c-1.9,0-3.7,0.8-4.9,2.1c-1.3,1.3-2,3-2,5s0.8,3.7,2,5
						c1.3,1.3,3,2.1,4.9,2.1s3.7-0.8,4.9-2.1c1.3-1.3,2-3,2-5s-0.8-3.7-2-5C7.3,2637.4,5.6,2636.7,3.6,2636.7z"/>
					<path id="Combined-Shape_8_" class="st62" d="M3.6,2638.2c1.3,0,2.5,0.5,3.4,1.2l-7.7,7.7c-0.7-0.9-1.2-2.1-1.2-3.4
						C-1.8,2640.6,0.6,2638.2,3.6,2638.2z"/>
				</g>
			</g>
		</g>
		<path id="Combined-Shape-Copy_1_" class="st63" d="M59.1,2674.2l0.1,4.3l1.4,12.3c-1,0.3-2.3,0.4-4.3,0.4H19.5
			c-2.3,0-3.7-0.2-4.7-0.5l1.9-11.8l-0.1-4.6l19.6,8c1,0.4,2.1,0.4,3,0L59.1,2674.2z"/>
		<path id="Combined-Shape_9_" class="st3" d="M63.8,2675.2l0.1,4.3l1.8,12.3c-1.2,0.3-2.8,0.4-5.2,0.4H15.6c-2.8,0-4.5-0.2-5.7-0.5
			l2.3-11.8l-0.1-4.6l24.5,8.2c0.8,0.3,1.7,0.3,2.5,0L63.8,2675.2z"/>
		<path id="Combined-Shape_10_" class="st8" d="M10,2677.6c0.4,0,0.8,0.1,1.2,0.2l25.9,8c0.8,0.2,1.6,0.2,2.4,0l25.3-8
			c2.1-0.7,4.4,0.5,5,2.6c0.1,0.4,0.2,0.8,0.2,1.2l0,7.8c-0.6,0.6-1.3,1.1-2,1.5c-1.6,0.9-3.2,1.3-7.5,1.3H15.6
			c-4.4,0-6-0.5-7.5-1.3c-0.7-0.4-1.4-0.9-2-1.5l0-7.8C6,2679.4,7.8,2677.6,10,2677.6z"/>
		<path id="Combined-Shape_11_" class="st64" d="M69.8,2680.4c0.1,0.4,0.2,0.8,0.2,1.2v7.8c-0.6,0.6-1.3,1.1-2,1.5
			c-1.6,0.9-3.2,1.3-7.5,1.3l-22.4,0l0-6.2c0.5,0,1,0,1.5-0.2l25.3-8C66.9,2677.1,69.1,2678.3,69.8,2680.4z"/>
	</g>
</g>
<g id="la">
	<g id="Group_40_" transform="translate(6.000000, 6.000000)">
		<path id="Rectangle-3_42_" class="st10" d="M55.4,2702.2H10.6c-4.9,0-6.7,0.6-8.5,1.5c-2,1-3.5,2.6-4.5,4.5
			c-1,1.8-1.5,3.6-1.5,8.5v28.9c0,4.9,0.6,6.7,1.5,8.5c1,2,2.6,3.5,4.5,4.5c1.8,1,3.6,1.5,8.5,1.5h44.9c4.9,0,6.7-0.6,8.5-1.5
			c2-1,3.5-2.6,4.5-4.5c1-1.8,1.5-3.6,1.5-8.5v-28.9c0-4.9-0.6-6.7-1.5-8.5c-1-2-2.6-3.5-4.5-4.5
			C62.1,2702.7,60.4,2702.2,55.4,2702.2z"/>
	</g>
	<g id="Group-7_1_" transform="translate(19.000000, 15.000000)">
		<g id="Group_42_" transform="translate(0.806452, 0.096774)">
			<g id="Group-5">
				<g id="Group-4_1_">
					<g id="Group-3_3_">
						<g id="Group-2_3_">
							<path id="Shape_2_" class="st65" d="M4.7,2716.3c-0.2,1-0.3,2.1-0.3,3.2c0,1.3,0.2,2.6,0.5,3.9 M10,2731
								c2.5,1.9,5.6,3.1,9,3.1c3.9,0.5,7.1,2.5,9.8,5.9"/>
							<path id="Rectangle_13_" class="st33" d="M7,2711.2l0.1-0.6c0.3-3.5,3.4-6.2,7-5.9l0.6,0.1l0,0l-0.1,0.6
								c-0.3,3.5-3.4,6.2-7,5.9L7,2711.2L7,2711.2z"/>
							<path id="Rectangle-Copy_1_" class="st33" d="M3.7,2718.3l-0.6-0.5c-2.8-2.2-3.2-6.3-1-9.1l0.5-0.6l0,0l0.6,0.5
								c2.8,2.2,3.2,6.3,1,9.1L3.7,2718.3L3.7,2718.3z"/>
							<path id="Rectangle-Copy_2_" class="st33" d="M10.1,2732l-0.7,0.2c-3.4,1.1-7-0.8-8.1-4.1l-0.2-0.7l0,0l0.7-0.2
								c3.4-1.1,7,0.8,8.1,4.1L10.1,2732L10.1,2732z"/>
							<path id="Rectangle-Copy_3_" class="st33" d="M11.2,2731.9l0.4-0.7c1.7-3.1,0.5-7.1-2.7-8.7l-0.7-0.4l0,0l-0.4,0.7
								c-1.7,3.1-0.5,7.1,2.7,8.7L11.2,2731.9L11.2,2731.9z"/>
							<path id="Rectangle-Copy_4_" class="st33" d="M3.2,2719.6l0.1-0.8c0.5-3.5,3.8-6,7.3-5.5l0.8,0.1l0,0l-0.1,0.8
								c-0.5,3.5-3.8,6-7.3,5.5L3.2,2719.6L3.2,2719.6z"/>
						</g>
					</g>
				</g>
				
					<g id="Group_41_" transform="translate(27.000000, 17.935484) scale(-1, 1) translate(-27.000000, -17.935484) translate(11.612903, 0.000000)">
					<g id="Group-4_2_">
						<g id="Group-3_4_">
							<g id="Group-2_4_">
								<path id="Shape_3_" class="st65" d="M8.7,2716.3c-0.2,1-0.3,2.1-0.3,3.2c0,1.3,0.2,2.6,0.5,3.9 M14,2731
									c2.5,1.9,5.6,3.1,9,3.1c3.9,0.5,7.1,2.5,9.8,5.9"/>
								<path id="Rectangle_14_" class="st33" d="M11,2711.2l0.1-0.6c0.3-3.5,3.4-6.2,7-5.9l0.6,0.1l0,0l-0.1,0.6
									c-0.3,3.5-3.4,6.2-7,5.9L11,2711.2L11,2711.2z"/>
								<path id="Rectangle-Copy_5_" class="st33" d="M7.7,2718.3l-0.6-0.5c-2.8-2.2-3.2-6.3-1-9.1l0.5-0.6l0,0l0.6,0.5
									c2.8,2.2,3.2,6.3,1,9.1L7.7,2718.3L7.7,2718.3z"/>
								<path id="Rectangle-Copy_6_" class="st33" d="M14.1,2732l-0.7,0.2c-3.4,1.1-7-0.8-8.1-4.1l-0.2-0.7l0,0l0.7-0.2
									c3.4-1.1,7,0.8,8.1,4.1L14.1,2732L14.1,2732z"/>
								<path id="Rectangle-Copy_7_" class="st33" d="M15.2,2731.9l0.4-0.7c1.7-3.1,0.5-7.1-2.7-8.7l-0.7-0.4l0,0l-0.4,0.7
									c-1.7,3.1-0.5,7.1,2.7,8.7L15.2,2731.9L15.2,2731.9z"/>
								<path id="Rectangle-Copy_8_" class="st33" d="M7.2,2719.6l0.1-0.8c0.5-3.5,3.8-6,7.3-5.5l0.8,0.1l0,0l-0.1,0.8
									c-0.5,3.5-3.8,6-7.3,5.5L7.2,2719.6L7.2,2719.6z"/>
							</g>
						</g>
					</g>
				</g>
			</g>
		</g>
	</g>
</g>
<g id="gd">
	<g id="Group_43_" transform="translate(6.000000, 6.000000)">
		<path id="Rectangle-3_43_" class="st15" d="M55.4,2768.2H10.6c-4.9,0-6.7,0.6-8.5,1.5c-2,1-3.5,2.6-4.5,4.5
			c-1,1.8-1.5,3.6-1.5,8.5v28.9c0,4.9,0.6,6.7,1.5,8.5c1,2,2.6,3.5,4.5,4.5c1.8,1,3.6,1.5,8.5,1.5h44.9c4.9,0,6.7-0.6,8.5-1.5
			c2-1,3.5-2.6,4.5-4.5c1-1.8,1.5-3.6,1.5-8.5v-28.9c0-4.9-0.6-6.7-1.5-8.5c-1-2-2.6-3.5-4.5-4.5
			C62.1,2768.7,60.4,2768.2,55.4,2768.2z"/>
	</g>
	<g id="Group-10_1_" transform="translate(6.000000, 6.000000)">
		<g id="Group-6">
			<path class="st66" d="M55.4,2768.2H10.6c-4.9,0-6.7,0.6-8.5,1.5c-2,1-3.5,2.6-4.5,4.5c-1,1.8-1.5,3.6-1.5,8.5v28.9
				c0,4.9,0.6,6.7,1.5,8.5c1,2,2.6,3.5,4.5,4.5c1.8,1,3.6,1.5,8.5,1.5h44.9c4.9,0,6.7-0.6,8.5-1.5c2-1,3.5-2.6,4.5-4.5
				c1-1.8,1.5-3.6,1.5-8.5v-28.9c0-4.9-0.6-6.7-1.5-8.5c-1-2-2.6-3.5-4.5-4.5C62.1,2768.7,60.4,2768.2,55.4,2768.2z"/>
			<defs>
				<filter id="Adobe_OpacityMaskFilter" filterUnits="userSpaceOnUse" x="-1.9" y="2770.6" width="69.7" height="53.1">
					<feColorMatrix  type="matrix" values="1 0 0 0 0  0 1 0 0 0  0 0 1 0 0  0 0 0 1 0"/>
				</filter>
			</defs>
			<mask maskUnits="userSpaceOnUse" x="-1.9" y="2770.6" width="69.7" height="53.1" id="mask-2_1_">
				<g class="st67">
					<path id="path-1_1_" class="st6" d="M10.6,2770.2h44.9c4.4,0,6,0.5,7.5,1.3c1.6,0.9,2.9,2.1,3.7,3.7c0.9,1.6,1.3,3.2,1.3,7.5
						v28.9c0,4.4-0.5,6-1.3,7.5c-0.9,1.6-2.1,2.9-3.7,3.7c-1.6,0.9-3.2,1.3-7.5,1.3H10.6c-4.4,0-6-0.5-7.5-1.3
						c-1.6-0.9-2.9-2.1-3.7-3.7c-0.9-1.6-1.3-3.2-1.3-7.5v-28.9c0-4.4,0.5-6,1.3-7.5c0.9-1.6,2.1-2.9,3.7-3.7
						S6.2,2770.2,10.6,2770.2z"/>
				</g>
			</mask>
			<path id="Path_78_" class="st68" d="M61.5,2770.8c0.5,0.2,1,0.4,1.5,0.6c1.6,0.9,2.9,2.1,3.7,3.7c0.6,1.2,1,2.3,1.2,4.6
				l-24.8,17.4l24.8,17.4c-0.2,2.3-0.6,3.4-1.2,4.6c-0.9,1.6-2.1,2.9-3.7,3.7c-0.5,0.2-0.9,0.5-1.5,0.6l-28-19.6l-28.3,19.8
				c-0.9-0.2-1.5-0.5-2.2-0.9c-1.6-0.9-2.9-2.1-3.7-3.7c-0.6-1.1-1-2.1-1.2-4l25.8-18l-25.8-18c0.2-1.8,0.6-2.9,1.2-4
				c0.9-1.6,2.1-2.9,3.7-3.7c0.7-0.4,1.3-0.6,2.2-0.9l28.3,19.8L61.5,2770.8z"/>
		</g>
	</g>
</g>
<g id="fi">
	<g id="Group_44_" transform="translate(6.000000, 6.000000)">
		<path id="Rectangle-3_44_" class="st7" d="M55.4,2834.2H10.6c-4.9,0-6.7,0.6-8.5,1.5c-2,1-3.5,2.6-4.5,4.5c-1,1.8-1.5,3.6-1.5,8.5
			v28.9c0,4.9,0.6,6.7,1.5,8.5c1,2,2.6,3.5,4.5,4.5c1.8,1,3.6,1.5,8.5,1.5h44.9c4.9,0,6.7-0.6,8.5-1.5c2-1,3.5-2.6,4.5-4.5
			c1-1.8,1.5-3.6,1.5-8.5v-28.9c0-4.9-0.6-6.7-1.5-8.5c-1-2-2.6-3.5-4.5-4.5C62.1,2834.7,60.4,2834.2,55.4,2834.2z"/>
		<polygon id="Path_79_" class="st25" points="29,2857.2 68,2857.2 68,2869.2 29,2869.2 29,2890.2 17,2890.2 17,2869.2 -2,2869.2 
			-2,2857.2 17,2857.2 17,2836.2 29,2836.2 		"/>
	</g>
</g>
<g id="Yiddish">
	<path id="Rectangle-3_45_" class="st69" d="M63.1,2906.2c0.3,0,0.5,0,0.8,0l0,0l0.7,0l1,0c0.2,0,0.4,0,0.6,0l0,0l0.6,0.1
		c1.3,0.1,2.3,0.4,3.1,0.7c3.7,1.8,5.1,3.4,6.1,5.2c0.8,1.8,1,2.5,1.2,3.4c0.2,1.3,0.2,1.4,0.2,1.6l0,0l0,0.6l0,0.6l0,1l0,1.2v28.7
		l0,0.8l0,1.1l0,0.7c0,0.5-0.1,1-0.1,1.5c-0.3,2-0.6,2.7-0.8,3.4c-1.6,3.1-3.1,4.5-5,5.6c-2.7,1-3.6,1.2-4.4,1.3l-0.2,0l0,0l-0.1,0
		l-0.6,0.1l-0.6,0l-1,0l-0.7,0l-45.8,0l-0.8,0l-1,0l-0.9-0.1l-0.6-0.1c-1-0.1-1.8-0.3-2.5-0.5c-4.4-2-5.8-3.6-6.8-5.4
		c-1.1-2.5-1.2-3.5-1.4-4.7l0,0l-0.1-0.6l-0.1-0.9c0-0.2,0-0.5,0-0.7l0,0l0-0.7l0-0.8v-28.7c0-0.3,0-0.5,0-0.8l0,0l0-0.7l0-1
		c0-0.2,0-0.4,0-0.6l0,0l0.1-0.6c0.1-1.3,0.4-2.3,0.7-3.1c1.8-3.7,3.4-5.1,5.2-6.1c2.5-1.1,3.5-1.2,4.7-1.4l0,0l0.6-0.1l0.9-0.1
		c0.2,0,0.5,0,0.7,0l0,0l0.7,0L63.1,2906.2z"/>
	<path id="Path_80_" class="st19" d="M28.3,2915.2c0.2,0,0.3,0.1,0.5,0.2l23.7,17.1c1.2,0.9,2,2.3,2,3.9v6.3c0,0.4-0.4,0.8-0.8,0.8
		c-0.2,0-0.3-0.1-0.5-0.2l-16.9-12.2c0.1,0.3,0.2,0.7,0.2,1.1v11.2c0,0.4-0.4,0.8-0.8,0.8H32c-2.5,0-4.5-2-4.5-4.5v-5.8
		c0-2.5,2-4.5,4.5-4.5h1.7c0.1,0,0.1,0,0.2,0l-4.4-3.1c-1.2-0.9-2-2.3-2-3.9v-6.3C27.5,2915.5,27.9,2915.2,28.3,2915.2z"/>
	<path id="Path_81_" class="st16" d="M47.1,2913.4l-2.7,3.8c-1.6,2.3-1.1,5.5,1.2,7.1l5.4,3.8c0.3,0.2,0.6,0.1,0.8-0.1l2.7-3.8
		c1.6-2.3,1.1-5.5-1.2-7.1l-5.4-3.8C47.6,2913.1,47.3,2913.1,47.1,2913.4z"/>
	<path id="Path_82_" class="st19" d="M46.6,2949.2c1.1,0,1.9,0.9,1.9,2s-0.9,2-1.9,2h-3l0.4,2.5c0.2,1.2-0.6,2.2-1.7,2.4
		c-0.1,0-0.2,0-0.3,0c-1.1,0-2-0.9-2-2.1c0-0.1,0-0.2,0-0.3l0.4-2.5h-2.9c-1.1,0-1.9-0.9-1.9-2s0.9-2,1.9-2H46.6z"/>
</g>
</svg>
