<svg viewBox="0 0 37 37" version="1.1" xmlns="http://www.w3.org/2000/svg" xmlns:xlink="http://www.w3.org/1999/xlink"><title>badge-play-store</title><defs><path d="M.685.67c-.366.383-.584.978-.584 1.748v27.528c0 .772.218 1.367.584 1.75l.094.089 15.663-15.42V16L.78.579l-.094.09z" id="a"></path><path d="M.008 6.043v.363l5.22 5.142.118-.064 6.186-3.46c1.766-.99 1.766-2.608 0-3.595L5.346.967 5.23.901.008 6.043z" id="b"></path><path d="M.55 15.514c.583.606 1.545.682 2.628.077L21.646 5.26 16.306 0 .55 15.514z" id="c"></path><path d="M.55.67l15.757 15.512 5.339-5.257L3.178.594c-.508-.285-.99-.42-1.417-.42C1.276.174.86.347.55.67" id="d"></path></defs><g stroke="none" stroke-width="1" fill="none"  fill-rule="evenodd"><g><g><g transform="translate(4.388 2.558)"><mask fill="#fff"><use xlink:href="#a"></use></mask><use fill="currentColor" fill-opacity="0.7" xlink:href="#a"></use></g><g transform="translate(20.823 12.516)"><mask fill="#fff"><use xlink:href="#b"></use></mask><use fill="currentColor" fill-opacity="0.7" xlink:href="#b"></use></g><g transform="translate(4.524 18.74)"><mask fill="#fff"><use xlink:href="#c"></use></mask><use fill="currentColor" fill-opacity="0.7" xlink:href="#c"></use></g><g transform="translate(4.524 2.558)"><mask fill="#fff"><use xlink:href="#d"></use></mask><use fill="currentColor" fill-opacity="0.7" xlink:href="#d"></use></g></g><g stroke="#FFF" stroke-linecap="square" stroke-width="2.268"><path d="M4.388 2.558L31.055 30.71M30.564 7.123L3.897 35.275"></path></g></g></g></svg>