<?xml version="1.0" encoding="utf-8"?>
<!-- Generator: Adobe Illustrator 25.0.1, SVG Export Plug-In . SVG Version: 6.00 Build 0)  -->
<svg version="1.1" id="katman_1" xmlns="http://www.w3.org/2000/svg" xmlns:xlink="http://www.w3.org/1999/xlink" x="0px" y="0px"
	 viewBox="0 0 78 62" style="enable-background:new 0 0 78 62;" xml:space="preserve">
<style type="text/css">
	.st0{fill-rule:evenodd;clip-rule:evenodd;fill:#EEEEEE;stroke:#FFFFFF;stroke-width:4;}
	.st1{fill-rule:evenodd;clip-rule:evenodd;fill:#FF4B4B;}
	.st2{fill-rule:evenodd;clip-rule:evenodd;fill:#1CB0F6;}
	.st3{fill:#FFFFFF;}
	.st4{fill-rule:evenodd;clip-rule:evenodd;fill:#FF4B4B;stroke:#FFFFFF;stroke-width:4;}
	.st5{fill-rule:evenodd;clip-rule:evenodd;fill:#FFC800;}
	.st6{fill-rule:evenodd;clip-rule:evenodd;fill:#FFFFFF;}
	.st7{fill:#EEEEEE;stroke:#FFFFFF;stroke-width:4;}
	.st8{fill:#1CB0F6;}
	.st9{fill:#FF4B4B;}
	.st10{fill:#FF4B4B;stroke:#FFFFFF;stroke-width:4;}
	.st11{fill:#FFC800;}
	.st12{fill:#4C4C4C;}
	.st13{fill:#78C800;}
	.st14{fill:#FFC300;}
	.st15{fill:#1CB0F6;stroke:#FFFFFF;stroke-width:4;}
	.st16{fill:#EEEEEE;}
	.st17{fill:#78C800;stroke:#FFFFFF;stroke-width:4;}
	.st18{fill:#FF9600;}
	.st19{fill-rule:evenodd;clip-rule:evenodd;fill:#EEEEEE;}
	.st20{fill:#4B4B4B;stroke:#FFFFFF;stroke-width:4;}
	.st21{fill:#FFC300;stroke:#FFFFFF;stroke-width:4;}
	.st22{fill:#7AC70C;}
	.st23{fill:#4B4B4B;}
	.st24{fill:#7AC70C;stroke:#FFFFFF;stroke-width:4;}
	.st25{fill-rule:evenodd;clip-rule:evenodd;fill:#1899D6;}
	.st26{fill:#1899D6;}
	.st27{fill:#FFCE8E;stroke:#FFFFFF;stroke-width:4;}
	.st28{fill:none;stroke:#FFFFFF;stroke-width:3.2;}
	.st29{fill:none;stroke:#7AC70C;stroke-width:6.4;stroke-linecap:round;stroke-linejoin:round;}
	.st30{fill:none;stroke:#FFFFFF;}
	.st31{fill-rule:evenodd;clip-rule:evenodd;fill:#7AC70C;}
	
		.st32{fill-rule:evenodd;clip-rule:evenodd;fill:#FFFFFF;stroke:#FFFFFF;stroke-width:0.7587;stroke-linecap:round;stroke-linejoin:round;}
	.st33{fill-rule:evenodd;clip-rule:evenodd;fill:#FFD300;}
	.st34{fill:#FFC800;stroke:#FFFFFF;stroke-width:4;}
	.st35{fill-rule:evenodd;clip-rule:evenodd;fill:#FF9600;}
	.st36{fill:#8EE000;}
	.st37{fill-rule:evenodd;clip-rule:evenodd;fill:#8EE000;}
	.st38{fill-rule:evenodd;clip-rule:evenodd;fill:#4B4B4B;}
	.st39{fill-rule:evenodd;clip-rule:evenodd;fill:#F48000;}
	.st40{fill:#FFC200;}
	.st41{fill-rule:evenodd;clip-rule:evenodd;fill:#FFE747;}
	.st42{fill:#C7C7C7;}
	.st43{fill:#F34848;}
	.st44{fill:#D73A3A;}
	.st45{fill:#D8D8D8;}
	.st46{fill-rule:evenodd;clip-rule:evenodd;fill:#A560E8;}
	.st47{fill-rule:evenodd;clip-rule:evenodd;fill:#8F50D8;}
	.st48{fill-rule:evenodd;clip-rule:evenodd;fill:#FFD836;}
	.st49{fill-rule:evenodd;clip-rule:evenodd;fill:#FFC715;}
	.st50{fill-rule:evenodd;clip-rule:evenodd;fill:#2788E0;}
	.st51{fill-rule:evenodd;clip-rule:evenodd;fill:#4495FF;}
	.st52{fill-rule:evenodd;clip-rule:evenodd;fill:#723A0F;}
	.st53{fill-rule:evenodd;clip-rule:evenodd;fill:#97501A;}
	.st54{fill-rule:evenodd;clip-rule:evenodd;fill:#FD937E;}
	.st55{fill:none;stroke:#97501A;stroke-width:2.3306;stroke-linecap:round;stroke-linejoin:round;}
	.st56{fill:none;stroke:#97501A;stroke-width:1.4568;stroke-linecap:round;stroke-linejoin:round;}
	.st57{fill-rule:evenodd;clip-rule:evenodd;fill:#FFB5A1;}
	.st58{fill-rule:evenodd;clip-rule:evenodd;fill:#E58D7F;}
	.st59{fill-rule:evenodd;clip-rule:evenodd;fill:#FF9D8A;}
	.st60{fill:none;stroke:#97501A;stroke-width:2;}
	.st61{fill-rule:evenodd;clip-rule:evenodd;fill:#FFB5A1;stroke:#97501A;stroke-width:3;}
	.st62{fill-rule:evenodd;clip-rule:evenodd;fill:#FFCBBD;}
	.st63{fill:#F9F9F9;}
	.st64{fill:#039CE5;}
	.st65{fill:none;stroke:#FFD300;stroke-width:2.6452;stroke-linecap:round;stroke-linejoin:round;}
	.st66{fill:none;stroke:#FFFFFF;stroke-width:4;}
	.st67{filter:url(#Adobe_OpacityMaskFilter);}
	.st68{mask:url(#mask-2_1_);fill:#EEEEEE;}
	.st69{fill:#1254A9;stroke:#FFFFFF;stroke-width:4;}
</style>
<g id="en">
	<g id="Group" transform="translate(6.000000, 6.000000)">
		<path id="Rectangle-3" class="st0" d="M55.4-2710H10.6c-4.9,0-6.7,0.6-8.5,1.5c-2,1-3.5,2.6-4.5,4.5c-1,1.8-1.5,3.6-1.5,8.5v28.9
			c0,4.9,0.6,6.7,1.5,8.5c1,2,2.6,3.5,4.5,4.5c1.8,1,3.6,1.5,8.5,1.5h44.9c4.9,0,6.7-0.6,8.5-1.5c2-1,3.5-2.6,4.5-4.5
			c1-1.8,1.5-3.6,1.5-8.5v-28.9c0-4.9-0.6-6.7-1.5-8.5c-1-2-2.6-3.5-4.5-4.5C62.1-2709.4,60.4-2710,55.4-2710z"/>
		<path id="Path" class="st1" d="M10.6-2708h44.9c4.4,0,6,0.5,7.5,1.3c1.6,0.9,2.9,2.1,3.7,3.7c0.2,0.3,0.3,0.6,0.5,1H-1.2
			c0.1-0.3,0.3-0.7,0.5-1c0.9-1.6,2.1-2.9,3.7-3.7C4.6-2707.5,6.2-2708,10.6-2708z"/>
		<path id="Path_1_" class="st1" d="M68-2696c0,0.2,0,0.4,0,0.6v5.4H-2v-5.4c0-0.2,0-0.4,0-0.6H68z"/>
		<polygon id="Path_2_" class="st1" points="68,-2684 68,-2678 -2,-2678 -2,-2684 		"/>
		<path id="Path_3_" class="st1" d="M68-2666.6c0,0.2,0,0.4,0,0.6H-2c0-0.2,0-0.4,0-0.6v-5.4h70V-2666.6z"/>
		<path id="Path_4_" class="st1" d="M67.2-2660c-0.1,0.3-0.3,0.7-0.5,1c-0.9,1.6-2.1,2.9-3.7,3.7c-1.6,0.9-3.2,1.3-7.5,1.3H10.6
			c-4.4,0-6-0.5-7.5-1.3c-1.6-0.9-2.9-2.1-3.7-3.7c-0.2-0.3-0.3-0.6-0.5-1H67.2z"/>
		<path id="Path_5_" class="st2" d="M10.6-2708H33v24H-2v-11.4c0-4.4,0.5-6,1.3-7.5c0.9-1.6,2.1-2.9,3.7-3.7
			C4.6-2707.5,6.2-2708,10.6-2708z"/>
		<path id="Star-Copy" class="st3" d="M25.8-2698.4l-1.3,0.7c-0.4,0.2-0.9,0.1-1.1-0.3c-0.1-0.2-0.1-0.3-0.1-0.5l0.2-1.4
			c0-0.1,0-0.3-0.1-0.4l-1-1c-0.3-0.3-0.3-0.8,0-1.2c0.1-0.1,0.3-0.2,0.5-0.2l1.4-0.2c0.1,0,0.3-0.1,0.3-0.2l0.6-1.3
			c0.2-0.4,0.7-0.6,1.1-0.4c0.2,0.1,0.3,0.2,0.4,0.4l0.6,1.3c0.1,0.1,0.2,0.2,0.3,0.2l1.4,0.2c0.4,0.1,0.8,0.5,0.7,0.9
			c0,0.2-0.1,0.3-0.2,0.5l-1,1c-0.1,0.1-0.1,0.2-0.1,0.4l0.2,1.4c0.1,0.4-0.2,0.9-0.7,0.9c-0.2,0-0.4,0-0.5-0.1l-1.3-0.7
			C26.1-2698.5,25.9-2698.5,25.8-2698.4z"/>
		<path id="Star-Copy-4" class="st3" d="M25.8-2688.4l-1.3,0.7c-0.4,0.2-0.9,0.1-1.1-0.3c-0.1-0.2-0.1-0.3-0.1-0.5l0.2-1.4
			c0-0.1,0-0.3-0.1-0.4l-1-1c-0.3-0.3-0.3-0.8,0-1.2c0.1-0.1,0.3-0.2,0.5-0.2l1.4-0.2c0.1,0,0.3-0.1,0.3-0.2l0.6-1.3
			c0.2-0.4,0.7-0.6,1.1-0.4c0.2,0.1,0.3,0.2,0.4,0.4l0.6,1.3c0.1,0.1,0.2,0.2,0.3,0.2l1.4,0.2c0.4,0.1,0.8,0.5,0.7,0.9
			c0,0.2-0.1,0.3-0.2,0.5l-1,1c-0.1,0.1-0.1,0.2-0.1,0.4l0.2,1.4c0.1,0.4-0.2,0.9-0.7,0.9c-0.2,0-0.4,0-0.5-0.1l-1.3-0.7
			C26.1-2688.5,25.9-2688.5,25.8-2688.4z"/>
		<path id="Star-Copy-2" class="st3" d="M15.8-2698.4l-1.3,0.7c-0.4,0.2-0.9,0.1-1.1-0.3c-0.1-0.2-0.1-0.3-0.1-0.5l0.2-1.4
			c0-0.1,0-0.3-0.1-0.4l-1-1c-0.3-0.3-0.3-0.8,0-1.2c0.1-0.1,0.3-0.2,0.5-0.2l1.4-0.2c0.1,0,0.3-0.1,0.3-0.2l0.6-1.3
			c0.2-0.4,0.7-0.6,1.1-0.4c0.2,0.1,0.3,0.2,0.4,0.4l0.6,1.3c0.1,0.1,0.2,0.2,0.3,0.2l1.4,0.2c0.4,0.1,0.8,0.5,0.7,0.9
			c0,0.2-0.1,0.3-0.2,0.5l-1,1c-0.1,0.1-0.1,0.2-0.1,0.4l0.2,1.4c0.1,0.4-0.2,0.9-0.7,0.9c-0.2,0-0.4,0-0.5-0.1l-1.3-0.7
			C16.1-2698.5,15.9-2698.5,15.8-2698.4z"/>
		<path id="Star-Copy-5" class="st3" d="M15.8-2688.4l-1.3,0.7c-0.4,0.2-0.9,0.1-1.1-0.3c-0.1-0.2-0.1-0.3-0.1-0.5l0.2-1.4
			c0-0.1,0-0.3-0.1-0.4l-1-1c-0.3-0.3-0.3-0.8,0-1.2c0.1-0.1,0.3-0.2,0.5-0.2l1.4-0.2c0.1,0,0.3-0.1,0.3-0.2l0.6-1.3
			c0.2-0.4,0.7-0.6,1.1-0.4c0.2,0.1,0.3,0.2,0.4,0.4l0.6,1.3c0.1,0.1,0.2,0.2,0.3,0.2l1.4,0.2c0.4,0.1,0.8,0.5,0.7,0.9
			c0,0.2-0.1,0.3-0.2,0.5l-1,1c-0.1,0.1-0.1,0.2-0.1,0.4l0.2,1.4c0.1,0.4-0.2,0.9-0.7,0.9c-0.2,0-0.4,0-0.5-0.1l-1.3-0.7
			C16.1-2688.5,15.9-2688.5,15.8-2688.4z"/>
		<path id="Star-Copy-3" class="st3" d="M5.8-2698.4l-1.3,0.7c-0.4,0.2-0.9,0.1-1.1-0.3c-0.1-0.2-0.1-0.3-0.1-0.5l0.2-1.4
			c0-0.1,0-0.3-0.1-0.4l-1-1c-0.3-0.3-0.3-0.8,0-1.2c0.1-0.1,0.3-0.2,0.5-0.2l1.4-0.2c0.1,0,0.3-0.1,0.3-0.2l0.6-1.3
			c0.2-0.4,0.7-0.6,1.1-0.4c0.2,0.1,0.3,0.2,0.4,0.4l0.6,1.3c0.1,0.1,0.2,0.2,0.3,0.2l1.4,0.2c0.4,0.1,0.8,0.5,0.7,0.9
			c0,0.2-0.1,0.3-0.2,0.5l-1,1c-0.1,0.1-0.1,0.2-0.1,0.4l0.2,1.4c0.1,0.4-0.2,0.9-0.7,0.9c-0.2,0-0.4,0-0.5-0.1l-1.3-0.7
			C6.1-2698.5,5.9-2698.5,5.8-2698.4z"/>
		<path id="Star-Copy-6" class="st3" d="M5.8-2688.4l-1.3,0.7c-0.4,0.2-0.9,0.1-1.1-0.3c-0.1-0.2-0.1-0.3-0.1-0.5l0.2-1.4
			c0-0.1,0-0.3-0.1-0.4l-1-1c-0.3-0.3-0.3-0.8,0-1.2c0.1-0.1,0.3-0.2,0.5-0.2l1.4-0.2c0.1,0,0.3-0.1,0.3-0.2l0.6-1.3
			c0.2-0.4,0.7-0.6,1.1-0.4c0.2,0.1,0.3,0.2,0.4,0.4l0.6,1.3c0.1,0.1,0.2,0.2,0.3,0.2l1.4,0.2c0.4,0.1,0.8,0.5,0.7,0.9
			c0,0.2-0.1,0.3-0.2,0.5l-1,1c-0.1,0.1-0.1,0.2-0.1,0.4l0.2,1.4c0.1,0.4-0.2,0.9-0.7,0.9c-0.2,0-0.4,0-0.5-0.1l-1.3-0.7
			C6.1-2688.5,5.9-2688.5,5.8-2688.4z"/>
	</g>
</g>
<g id="es">
	<g id="Group_1_" transform="translate(6.000000, 6.000000)">
		<path id="Rectangle-3_1_" class="st4" d="M55.4-2644H10.6c-4.9,0-6.7,0.6-8.5,1.5c-2,1-3.5,2.6-4.5,4.5c-1,1.8-1.5,3.6-1.5,8.5
			v28.9c0,4.9,0.6,6.7,1.5,8.5c1,2,2.6,3.5,4.5,4.5c1.8,1,3.6,1.5,8.5,1.5h44.9c4.9,0,6.7-0.6,8.5-1.5c2-1,3.5-2.6,4.5-4.5
			c1-1.8,1.5-3.6,1.5-8.5v-28.9c0-4.9-0.6-6.7-1.5-8.5c-1-2-2.6-3.5-4.5-4.5C62.1-2643.4,60.4-2644,55.4-2644z"/>
		<polygon id="Rectangle-4" class="st5" points="-2,-2626.6 68,-2626.6 68,-2603.4 -2,-2603.4 		"/>
		<path id="Rectangle-14" class="st6" d="M25.2-2620.8c1.1,0,1.9,0.9,1.9,1.9v7.7c0,1.1-0.9,1.9-1.9,1.9c-1.1,0-1.9-0.9-1.9-1.9
			v-7.7C23.3-2619.9,24.1-2620.8,25.2-2620.8z"/>
		<path id="Rectangle-14-Copy" class="st6" d="M5.8-2620.8c1.1,0,1.9,0.9,1.9,1.9v7.7c0,1.1-0.9,1.9-1.9,1.9s-1.9-0.9-1.9-1.9v-7.7
			C3.8-2619.9,4.7-2620.8,5.8-2620.8z"/>
		<path id="Rectangle-15" class="st1" d="M11.4-2622.7h8.2c1,0,1.8,0.8,1.8,1.8v7.8c0,3.2-2.6,5.8-5.8,5.8s-5.8-2.6-5.8-5.8v-7.8
			C9.7-2621.9,10.4-2622.7,11.4-2622.7z"/>
	</g>
</g>
<g id="fr">
	<g id="Group_2_" transform="translate(6.000000, 6.000000)">
		<path id="Rectangle-3_2_" class="st7" d="M55.4-2578H10.6c-4.9,0-6.7,0.6-8.5,1.5c-2,1-3.5,2.6-4.5,4.5c-1,1.8-1.5,3.6-1.5,8.5
			v28.9c0,4.9,0.6,6.7,1.5,8.5c1,2,2.6,3.5,4.5,4.5c1.8,1,3.6,1.5,8.5,1.5h44.9c4.9,0,6.7-0.6,8.5-1.5c2-1,3.5-2.6,4.5-4.5
			c1-1.8,1.5-3.6,1.5-8.5v-28.9c0-4.9-0.6-6.7-1.5-8.5c-1-2-2.6-3.5-4.5-4.5C62.1-2577.4,60.4-2578,55.4-2578z"/>
		<path id="Path_6_" class="st8" d="M21.6-2576v54H10.6c-4.4,0-6-0.5-7.5-1.3c-1.6-0.9-2.9-2.1-3.7-3.7c-0.9-1.6-1.3-3.2-1.3-7.5
			v-28.9c0-4.4,0.5-6,1.3-7.5c0.9-1.6,2.1-2.9,3.7-3.7c1.6-0.9,3.2-1.3,7.5-1.3H21.6z"/>
		<path id="Path_7_" class="st9" d="M44.4-2576h11.1c4.4,0,6,0.5,7.5,1.3c1.6,0.9,2.9,2.1,3.7,3.7c0.9,1.6,1.3,3.2,1.3,7.5v28.9
			c0,4.4-0.5,6-1.3,7.5c-0.9,1.6-2.1,2.9-3.7,3.7c-1.6,0.9-3.2,1.3-7.5,1.3H44.4V-2576z"/>
	</g>
</g>
<g id="de">
	<g id="Group_3_" transform="translate(6.000000, 6.000000)">
		<path id="Rectangle-3_3_" class="st10" d="M55.4-2512H10.6c-4.9,0-6.7,0.6-8.5,1.5c-2,1-3.5,2.6-4.5,4.5c-1,1.8-1.5,3.6-1.5,8.5
			v28.9c0,4.9,0.6,6.7,1.5,8.5c1,2,2.6,3.5,4.5,4.5c1.8,1,3.6,1.5,8.5,1.5h44.9c4.9,0,6.7-0.6,8.5-1.5c2-1,3.5-2.6,4.5-4.5
			c1-1.8,1.5-3.6,1.5-8.5v-28.9c0-4.9-0.6-6.7-1.5-8.5c-1-2-2.6-3.5-4.5-4.5C62.1-2511.4,60.4-2512,55.4-2512z"/>
		<path id="Path_8_" class="st11" d="M68-2474v5.4c0,4.4-0.5,6-1.3,7.5c-0.9,1.6-2.1,2.9-3.7,3.7c-1.6,0.9-3.2,1.3-7.5,1.3H10.6
			c-4.4,0-6-0.5-7.5-1.3c-1.6-0.9-2.9-2.1-3.7-3.7c-0.9-1.6-1.3-3.2-1.3-7.5v-5.4H68z"/>
		<path id="Path_9_" class="st12" d="M10.6-2510h44.9c4.4,0,6,0.5,7.5,1.3c1.6,0.9,2.9,2.1,3.7,3.7c0.9,1.6,1.3,3.2,1.3,7.5v5.4H-2
			v-5.4c0-4.4,0.5-6,1.3-7.5c0.9-1.6,2.1-2.9,3.7-3.7C4.6-2509.5,6.2-2510,10.6-2510z"/>
	</g>
</g>
<g id="ja">
	<g id="Group_4_" transform="translate(6.000000, 6.000000)">
		<path id="Rectangle-3_4_" class="st0" d="M55.4-2446H10.6c-4.9,0-6.7,0.6-8.5,1.5c-2,1-3.5,2.6-4.5,4.5c-1,1.8-1.5,3.6-1.5,8.5
			v28.9c0,4.9,0.6,6.7,1.5,8.5c1,2,2.6,3.5,4.5,4.5c1.8,1,3.6,1.5,8.5,1.5h44.9c4.9,0,6.7-0.6,8.5-1.5c2-1,3.5-2.6,4.5-4.5
			c1-1.8,1.5-3.6,1.5-8.5v-28.9c0-4.9-0.6-6.7-1.5-8.5c-1-2-2.6-3.5-4.5-4.5C62.1-2445.4,60.4-2446,55.4-2446z"/>
		<circle id="Oval-19" class="st9" cx="33" cy="-2417" r="14"/>
	</g>
</g>
<g id="it">
	<g id="Group_5_" transform="translate(6.000000, 6.000000)">
		<path id="Rectangle-3_5_" class="st7" d="M55.4-2380H10.6c-4.9,0-6.7,0.6-8.5,1.5c-2,1-3.5,2.6-4.5,4.5c-1,1.8-1.5,3.6-1.5,8.5
			v28.9c0,4.9,0.6,6.7,1.5,8.5c1,2,2.6,3.5,4.5,4.5c1.8,1,3.6,1.5,8.5,1.5h44.9c4.9,0,6.7-0.6,8.5-1.5c2-1,3.5-2.6,4.5-4.5
			c1-1.8,1.5-3.6,1.5-8.5v-28.9c0-4.9-0.6-6.7-1.5-8.5c-1-2-2.6-3.5-4.5-4.5C62.1-2379.4,60.4-2380,55.4-2380z"/>
		<path id="Path_10_" class="st13" d="M21.6-2378v54H10.6c-4.4,0-6-0.5-7.5-1.3c-1.6-0.9-2.9-2.1-3.7-3.7c-0.9-1.6-1.3-3.2-1.3-7.5
			v-28.9c0-4.4,0.5-6,1.3-7.5c0.9-1.6,2.1-2.9,3.7-3.7c1.6-0.9,3.2-1.3,7.5-1.3H21.6z"/>
		<path id="Path_11_" class="st9" d="M44.4-2378h11.1c4.4,0,6,0.5,7.5,1.3c1.6,0.9,2.9,2.1,3.7,3.7c0.9,1.6,1.3,3.2,1.3,7.5v28.9
			c0,4.4-0.5,6-1.3,7.5c-0.9,1.6-2.1,2.9-3.7,3.7c-1.6,0.9-3.2,1.3-7.5,1.3H44.4V-2378z"/>
	</g>
</g>
<g id="ko">
	<g id="Group_6_" transform="translate(6.000000, 6.000000)">
		<path id="Rectangle-3_6_" class="st0" d="M55.4-2314H10.6c-4.9,0-6.7,0.6-8.5,1.5c-2,1-3.5,2.6-4.5,4.5c-1,1.8-1.5,3.6-1.5,8.5
			v28.9c0,4.9,0.6,6.7,1.5,8.5c1,2,2.6,3.5,4.5,4.5c1.8,1,3.6,1.5,8.5,1.5h44.9c4.9,0,6.7-0.6,8.5-1.5c2-1,3.5-2.6,4.5-4.5
			c1-1.8,1.5-3.6,1.5-8.5v-28.9c0-4.9-0.6-6.7-1.5-8.5c-1-2-2.6-3.5-4.5-4.5C62.1-2313.4,60.4-2314,55.4-2314z"/>
		<circle id="Oval-19_1_" class="st9" cx="33" cy="-2285" r="13"/>
		<path id="Path_12_" class="st8" d="M20-2284.5c2.2,2.3,4.4,3.5,6.6,3.5c2.2,0,4.3-1.2,6.4-3.5c2-2.3,4.1-3.5,6.3-3.5
			c2.2,0,4.4,1.1,6.6,3.2c-0.1,7.1-5.9,12.8-13,12.8C26-2272,20.3-2277.5,20-2284.5z"/>
		<path id="Path_13_" class="st12" d="M15.1-2264.4l-8.8-8.8c-0.5-0.5-0.5-1.3,0-1.9s1.3-0.5,1.9,0l8.8,8.8c0.5,0.5,0.5,1.3,0,1.9
			C16.4-2263.8,15.6-2263.8,15.1-2264.4z"/>
		<path id="Path_14_" class="st12" d="M54.5-2291.5l-3.2-3.2c-0.5-0.5-0.5-1.3,0-1.9s1.3-0.5,1.9,0l3.2,3.2c0.5,0.5,0.5,1.3,0,1.9
			C55.9-2291,55-2291,54.5-2291.5z"/>
		<path id="Path_15_" class="st12" d="M7.2-2294.9c-0.5,0.5-1.3,0.5-1.9,0s-0.5-1.3,0-1.9l8.8-8.8c0.5-0.5,1.3-0.5,1.9,0
			c0.5,0.5,0.5,1.3,0,1.9L7.2-2294.9z"/>
		<path id="Path_16_" class="st12" d="M48.7-2297.4l-3-3c-0.5-0.5-0.5-1.3,0-1.9s1.3-0.5,1.9,0l3,3c0.5,0.5,0.5,1.3,0,1.9
			C50-2296.8,49.2-2296.8,48.7-2297.4z"/>
		<path id="Path_17_" class="st12" d="M12.7-2273.7l-3-3c-0.5-0.5-0.5-1.3,0-1.9s1.3-0.5,1.9,0l3,3c0.5,0.5,0.5,1.3,0,1.9
			C14-2273.1,13.2-2273.1,12.7-2273.7z"/>
		<path id="Path_18_" class="st12" d="M47.5-2267.8c-0.5,0.5-1.3,0.5-1.9,0s-0.5-1.3,0-1.9l8.8-8.8c0.5-0.5,1.3-0.5,1.9,0
			c0.5,0.5,0.5,1.3,0,1.9L47.5-2267.8z"/>
		<path id="Path_19_" class="st12" d="M58-2295l-3.2-3.2c-0.5-0.5-0.5-1.3,0-1.9s1.3-0.5,1.9,0l3.2,3.2c0.5,0.5,0.5,1.3,0,1.9
			C59.4-2294.5,58.5-2294.5,58-2295z"/>
		<path id="Path_20_" class="st12" d="M10.7-2291.4c-0.5,0.5-1.3,0.5-1.9,0c-0.5-0.5-0.5-1.3,0-1.9l8.8-8.8c0.5-0.5,1.3-0.5,1.9,0
			c0.5,0.5,0.5,1.3,0,1.9L10.7-2291.4z"/>
		<path id="Path_21_" class="st12" d="M51-2264.4c-0.5,0.5-1.3,0.5-1.9,0c-0.5-0.5-0.5-1.3,0-1.9l8.8-8.8c0.5-0.5,1.3-0.5,1.9,0
			c0.5,0.5,0.5,1.3,0,1.9L51-2264.4z"/>
		<path id="Path_22_" class="st12" d="M52.2-2300.8l-3-3c-0.5-0.5-0.5-1.3,0-1.9c0.5-0.5,1.3-0.5,1.9,0l3,3c0.5,0.5,0.5,1.3,0,1.9
			C53.5-2300.3,52.7-2300.3,52.2-2300.8z"/>
		<path id="Path_23_" class="st12" d="M18.5-2267.8l-3.2-3.2c-0.5-0.5-0.5-1.3,0-1.9s1.3-0.5,1.9,0l3.2,3.2c0.5,0.5,0.5,1.3,0,1.9
			S19-2267.3,18.5-2267.8z"/>
	</g>
</g>
<g id="zh">
	<g id="Group-3" transform="translate(6.000000, 6.000000)">
		<path id="Rectangle-3_7_" class="st4" d="M55.4-2248H10.6c-4.9,0-6.7,0.6-8.5,1.5c-2,1-3.5,2.6-4.5,4.5c-1,1.8-1.5,3.6-1.5,8.5
			v28.9c0,4.9,0.6,6.7,1.5,8.5c1,2,2.6,3.5,4.5,4.5c1.8,1,3.6,1.5,8.5,1.5h44.9c4.9,0,6.7-0.6,8.5-1.5c2-1,3.5-2.6,4.5-4.5
			c1-1.8,1.5-3.6,1.5-8.5v-28.9c0-4.9-0.6-6.7-1.5-8.5c-1-2-2.6-3.5-4.5-4.5C62.1-2247.4,60.4-2248,55.4-2248z"/>
		<g id="Group-2" transform="translate(8.000000, 4.000000)">
			<g id="Group_7_" transform="translate(14.000000, 0.000000)">
				<path id="Star-Copy_1_" class="st14" d="M1.6-2239l-1.3,0.2c-0.4,0.1-0.8-0.2-0.8-0.6c0-0.2,0-0.3,0.1-0.5l0.6-1.1
					c0.1-0.1,0.1-0.2,0-0.3l-0.6-1.2c-0.2-0.4,0-0.8,0.3-1c0.1-0.1,0.3-0.1,0.5-0.1l1.3,0.2c0.1,0,0.2,0,0.3-0.1l0.9-0.9
					c0.3-0.3,0.8-0.3,1,0c0.1,0.1,0.2,0.3,0.2,0.4l0.2,1.3c0,0.1,0.1,0.2,0.2,0.3l1.2,0.6c0.4,0.2,0.5,0.6,0.3,1
					c-0.1,0.1-0.2,0.3-0.3,0.3l-1.2,0.6c-0.1,0.1-0.2,0.2-0.2,0.3l-0.2,1.3c-0.1,0.4-0.4,0.7-0.8,0.6c-0.2,0-0.3-0.1-0.4-0.2
					l-0.9-0.9C1.8-2239,1.7-2239,1.6-2239z"/>
				<path id="Star-Copy_2_" class="st14" d="M10.7-2232.3l-0.9,0.9c-0.3,0.3-0.7,0.3-1,0c-0.1-0.1-0.2-0.3-0.2-0.4l-0.2-1.3
					c0-0.1-0.1-0.2-0.2-0.3l-1.2-0.6c-0.4-0.2-0.5-0.6-0.4-1c0.1-0.1,0.2-0.3,0.3-0.3l1.2-0.6c0.1-0.1,0.2-0.2,0.2-0.3l0.2-1.3
					c0.1-0.4,0.4-0.7,0.8-0.6c0.2,0,0.3,0.1,0.4,0.2l0.9,0.9c0.1,0.1,0.2,0.1,0.3,0.1l1.3-0.2c0.4-0.1,0.8,0.2,0.9,0.6
					c0,0.2,0,0.3-0.1,0.5l-0.6,1.2c-0.1,0.1-0.1,0.2,0,0.3l0.6,1.1c0.2,0.4,0.1,0.8-0.3,1c-0.1,0.1-0.3,0.1-0.5,0.1l-1.3-0.2
					C10.9-2232.4,10.8-2232.4,10.7-2232.3z"/>
				<path id="Star-Copy_3_" class="st14" d="M1.6-2216.3l-1.3,0.2c-0.4,0.1-0.8-0.2-0.8-0.6c0-0.2,0-0.3,0.1-0.5l0.6-1.1
					c0.1-0.1,0.1-0.2,0-0.3l-0.6-1.2c-0.2-0.4,0-0.8,0.3-1c0.1-0.1,0.3-0.1,0.5-0.1l1.3,0.2c0.1,0,0.2,0,0.3-0.1l0.9-0.9
					c0.3-0.3,0.8-0.3,1,0c0.1,0.1,0.2,0.3,0.2,0.4l0.2,1.3c0,0.1,0.1,0.2,0.2,0.3l1.2,0.6c0.4,0.2,0.5,0.6,0.3,1
					c-0.1,0.1-0.2,0.3-0.3,0.3l-1.2,0.6c-0.1,0.1-0.2,0.2-0.2,0.3l-0.2,1.3c-0.1,0.4-0.4,0.7-0.8,0.6c-0.2,0-0.3-0.1-0.4-0.2
					l-0.9-0.9C1.8-2216.3,1.7-2216.4,1.6-2216.3z"/>
				<path id="Star-Copy_4_" class="st14" d="M9.8-2222.6l-1.1,0.6c-0.4,0.2-0.8,0.1-1-0.3c-0.1-0.1-0.1-0.3-0.1-0.5l0.2-1.3
					c0-0.1,0-0.2-0.1-0.3l-0.9-0.9c-0.3-0.3-0.3-0.8,0-1c0.1-0.1,0.3-0.2,0.4-0.2l1.3-0.2c0.1,0,0.2-0.1,0.3-0.2l0.6-1.2
					c0.2-0.4,0.6-0.5,1-0.3c0.1,0.1,0.3,0.2,0.3,0.3l0.6,1.2c0.1,0.1,0.2,0.2,0.3,0.2l1.3,0.2c0.4,0.1,0.7,0.4,0.6,0.8
					c0,0.2-0.1,0.3-0.2,0.4l-0.9,0.9c-0.1,0.1-0.1,0.2-0.1,0.3l0.2,1.3c0.1,0.4-0.2,0.8-0.6,0.9c-0.2,0-0.3,0-0.5-0.1l-1.1-0.6
					C10.1-2222.7,9.9-2222.7,9.8-2222.6z"/>
			</g>
			<path id="Star" class="st14" d="M5.6-2224.8l-2.6,1.3c-0.8,0.4-1.8,0.1-2.2-0.7c-0.2-0.3-0.2-0.7-0.2-1l0.5-2.8
				c0-0.3,0-0.5-0.2-0.7l-2.1-2c-0.6-0.6-0.7-1.7,0-2.3c0.3-0.3,0.6-0.4,0.9-0.5l2.9-0.4c0.3,0,0.5-0.2,0.6-0.5l1.3-2.6
				c0.4-0.8,1.4-1.1,2.2-0.7c0.3,0.2,0.6,0.4,0.7,0.7l1.3,2.6c0.1,0.2,0.4,0.4,0.6,0.5l2.9,0.4c0.9,0.1,1.5,1,1.4,1.9
				c-0.1,0.4-0.2,0.7-0.5,0.9l-2.1,2c-0.2,0.2-0.3,0.5-0.2,0.7l0.5,2.8c0.2,0.9-0.4,1.7-1.3,1.9c-0.4,0.1-0.7,0-1-0.2l-2.6-1.3
				C6.1-2224.9,5.9-2224.9,5.6-2224.8z"/>
		</g>
	</g>
</g>
<g id="ru">
	<g id="Group_8_" transform="translate(6.000000, 6.000000)">
		<path id="Rectangle-3_8_" class="st15" d="M55.4-2182H10.6c-4.9,0-6.7,0.6-8.5,1.5c-2,1-3.5,2.6-4.5,4.5c-1,1.8-1.5,3.6-1.5,8.5
			v28.9c0,4.9,0.6,6.7,1.5,8.5c1,2,2.6,3.5,4.5,4.5c1.8,1,3.6,1.5,8.5,1.5h44.9c4.9,0,6.7-0.6,8.5-1.5c2-1,3.5-2.6,4.5-4.5
			c1-1.8,1.5-3.6,1.5-8.5v-28.9c0-4.9-0.6-6.7-1.5-8.5c-1-2-2.6-3.5-4.5-4.5C62.1-2181.4,60.4-2182,55.4-2182z"/>
		<path id="Path_24_" class="st9" d="M68-2144v5.4c0,4.4-0.5,6-1.3,7.5c-0.9,1.6-2.1,2.9-3.7,3.7c-1.6,0.9-3.2,1.3-7.5,1.3H10.6
			c-4.4,0-6-0.5-7.5-1.3c-1.6-0.9-2.9-2.1-3.7-3.7c-0.9-1.6-1.3-3.2-1.3-7.5v-5.4H68z"/>
		<path id="Path_25_" class="st16" d="M10.6-2180h44.9c4.4,0,6,0.5,7.5,1.3c1.6,0.9,2.9,2.1,3.7,3.7c0.9,1.6,1.3,3.2,1.3,7.5v5.4H-2
			v-5.4c0-4.4,0.5-6,1.3-7.5c0.9-1.6,2.1-2.9,3.7-3.7C4.6-2179.5,6.2-2180,10.6-2180z"/>
	</g>
</g>
<g id="pt-copy">
	<g id="Group_9_" transform="translate(6.000000, 2.000000)">
		<path id="Rectangle-3_9_" class="st17" d="M55.4-2112H10.6c-4.9,0-6.7,0.6-8.5,1.5c-2,1-3.5,2.6-4.5,4.5c-1,1.8-1.5,3.6-1.5,8.5
			v28.9c0,4.9,0.6,6.7,1.5,8.5c1,2,2.6,3.5,4.5,4.5c1.8,1,3.6,1.5,8.5,1.5h44.9c4.9,0,6.7-0.6,8.5-1.5c2-1,3.5-2.6,4.5-4.5
			c1-1.8,1.5-3.6,1.5-8.5v-28.9c0-4.9-0.6-6.7-1.5-8.5c-1-2-2.6-3.5-4.5-4.5C62.1-2111.4,60.4-2112,55.4-2112z"/>
		<path id="Rectangle" class="st5" d="M4.1-2083.6l27.7-20.2c0.7-0.5,1.7-0.5,2.4,0l27.7,20.2c0.9,0.7,1.1,1.9,0.4,2.8
			c-0.1,0.2-0.3,0.3-0.4,0.4l-27.7,20.1c-0.7,0.5-1.6,0.5-2.3,0l-27.7-20.1c-0.9-0.6-1.1-1.9-0.4-2.8
			C3.8-2083.3,3.9-2083.5,4.1-2083.6z"/>
		<circle id="Mask" class="st2" cx="33" cy="-2082" r="12"/>
		<path id="Path_26_" class="st6" d="M21-2082.8c0.1-1.5,0.5-3,1.1-4.3l22.8,5.7c-0.1,1.5-0.4,3-1,4.4L21-2082.8z"/>
	</g>
</g>
<g id="tr">
	<g id="Group_10_" transform="translate(6.000000, 6.000000)">
		<path id="Rectangle-3_10_" class="st4" d="M55.4-2050H10.6c-4.9,0-6.7,0.6-8.5,1.5c-2,1-3.5,2.6-4.5,4.5c-1,1.8-1.5,3.6-1.5,8.5
			v28.7c0,4.9,0.6,6.7,1.5,8.5c1,2,2.6,3.5,4.5,4.5c1.8,1,3.6,1.5,8.5,1.5h44.9c4.9,0,6.7-0.6,8.5-1.5c2-1,3.5-2.6,4.5-4.5
			c1-1.8,1.5-3.6,1.5-8.5v-28.7c0-4.9-0.6-6.7-1.5-8.5c-1-2-2.6-3.5-4.5-4.5C62.1-2049.4,60.4-2050,55.4-2050z"/>
		<path id="Path_27_" class="st3" d="M40.3-2032.7c-0.9-0.2-1.6-0.3-2.3-0.3c-6.6,0-12,5.4-12,12c0,6.6,5.4,12,12,12
			c0.7,0,1.4-0.1,2.3-0.3l0,0c0.5-0.1,1.1,0.2,1.2,0.7c0.1,0.4-0.1,0.8-0.4,1.1c-2.4,1.7-5.5,2.5-9.1,2.5c-8.8,0-16-7.2-16-16
			s7.2-16,16-16c3.7,0,6.7,0.8,9.1,2.5l0,0c0.5,0.3,0.6,0.9,0.2,1.4C41.1-2032.7,40.7-2032.6,40.3-2032.7z"/>
		<path id="Star-2" class="st3" d="M45.8-2016.1l-1.7,1.6c-0.6,0.5-1.4,0.5-2-0.1c-0.2-0.2-0.3-0.5-0.4-0.8l-0.2-2.3
			c0-0.3-0.2-0.6-0.5-0.8l-2-1.1c-0.7-0.4-0.9-1.2-0.5-1.9c0.2-0.3,0.4-0.5,0.7-0.6l2.1-0.9c0.3-0.1,0.5-0.4,0.6-0.7l0.4-2.3
			c0.1-0.8,0.9-1.2,1.6-1.1c0.3,0.1,0.6,0.2,0.8,0.5l1.5,1.7c0.2,0.2,0.5,0.4,0.9,0.3l2.3-0.3c0.8-0.1,1.5,0.5,1.6,1.2
			c0,0.3,0,0.6-0.2,0.9l-1.2,2c-0.2,0.3-0.2,0.6,0,0.9l1,2.1c0.3,0.7,0,1.5-0.7,1.8c-0.3,0.1-0.6,0.2-0.9,0.1l-2.2-0.5
			C46.3-2016.4,46-2016.3,45.8-2016.1z"/>
	</g>
</g>
<g id="nl">
	<g id="Group_11_" transform="translate(6.000000, 6.000000)">
		<path id="Rectangle-3_11_" class="st7" d="M55.4-1984H10.6c-4.9,0-6.7,0.6-8.5,1.5c-2,1-3.5,2.6-4.5,4.5c-1,1.8-1.5,3.6-1.5,8.5
			v28.9c0,4.9,0.6,6.7,1.5,8.5c1,2,2.6,3.5,4.5,4.5c1.8,1,3.6,1.5,8.5,1.5h44.9c4.9,0,6.7-0.6,8.5-1.5c2-1,3.5-2.6,4.5-4.5
			c1-1.8,1.5-3.6,1.5-8.5v-28.9c0-4.9-0.6-6.7-1.5-8.5c-1-2-2.6-3.5-4.5-4.5C62.1-1983.4,60.4-1984,55.4-1984z"/>
		<path id="Path_28_" class="st8" d="M68-1946v5.4c0,4.4-0.5,6-1.3,7.5s-2.1,2.9-3.7,3.7c-1.6,0.9-3.2,1.3-7.5,1.3H10.6
			c-4.4,0-6-0.5-7.5-1.3c-1.6-0.9-2.9-2.1-3.7-3.7s-1.3-3.2-1.3-7.5v-5.4H68z"/>
		<path id="Path_29_" class="st9" d="M10.6-1982h44.9c4.4,0,6,0.5,7.5,1.3c1.6,0.9,2.9,2.1,3.7,3.7s1.3,3.2,1.3,7.5v5.4H-2v-5.4
			c0-4.4,0.5-6,1.3-7.5s2.1-2.9,3.7-3.7C4.6-1981.5,6.2-1982,10.6-1982z"/>
	</g>
</g>
<g id="sv">
	<g id="Group-10" transform="translate(6.000000, 6.000000)">
		<path id="Rectangle-3_12_" class="st15" d="M55.4-1918H10.6c-4.9,0-6.7,0.6-8.5,1.5c-2,1-3.5,2.6-4.5,4.5c-1,1.8-1.5,3.6-1.5,8.5
			v28.9c0,4.9,0.6,6.7,1.5,8.5c1,2,2.6,3.5,4.5,4.5c1.8,1,3.6,1.5,8.5,1.5h44.9c4.9,0,6.7-0.6,8.5-1.5c2-1,3.5-2.6,4.5-4.5
			c1-1.8,1.5-3.6,1.5-8.5v-28.9c0-4.9-0.6-6.7-1.5-8.5c-1-2-2.6-3.5-4.5-4.5C62.1-1917.4,60.4-1918,55.4-1918z"/>
		<path id="Combined-Shape" class="st11" d="M27-1916v20l41,0v14l-41,0v20H13v-20l-15,0v-14l15,0v-20H27z"/>
	</g>
</g>
<g id="ga">
	<g id="Group_12_" transform="translate(6.000000, 6.000000)">
		<path id="Rectangle-3_13_" class="st7" d="M55.4-1852H10.6c-4.9,0-6.7,0.6-8.5,1.5c-2,1-3.5,2.6-4.5,4.5c-1,1.8-1.5,3.6-1.5,8.5
			v28.9c0,4.9,0.6,6.7,1.5,8.5c1,2,2.6,3.5,4.5,4.5c1.8,1,3.6,1.5,8.5,1.5h44.9c4.9,0,6.7-0.6,8.5-1.5c2-1,3.5-2.6,4.5-4.5
			c1-1.8,1.5-3.6,1.5-8.5v-28.9c0-4.9-0.6-6.7-1.5-8.5c-1-2-2.6-3.5-4.5-4.5C62.1-1851.4,60.4-1852,55.4-1852z"/>
		<path id="Path_30_" class="st13" d="M21.6-1850v54H10.6c-4.4,0-6-0.5-7.5-1.3c-1.6-0.9-2.9-2.1-3.7-3.7s-1.3-3.2-1.3-7.5v-28.9
			c0-4.4,0.5-6,1.3-7.5s2.1-2.9,3.7-3.7c1.6-0.9,3.2-1.3,7.5-1.3H21.6z"/>
		<path id="Path_31_" class="st18" d="M44.4-1850h11.1c4.4,0,6,0.5,7.5,1.3c1.6,0.9,2.9,2.1,3.7,3.7s1.3,3.2,1.3,7.5v28.9
			c0,4.4-0.5,6-1.3,7.5s-2.1,2.9-3.7,3.7c-1.6,0.9-3.2,1.3-7.5,1.3H44.4V-1850z"/>
	</g>
</g>
<g id="el">
	<g id="Group_13_" transform="translate(6.000000, 6.000000)">
		<path id="Rectangle-3_14_" class="st7" d="M55.4-1786H10.6c-4.9,0-6.7,0.6-8.5,1.5c-2,1-3.5,2.6-4.5,4.5c-1,1.8-1.5,3.6-1.5,8.5
			v28.9c0,4.9,0.6,6.7,1.5,8.5c1,2,2.6,3.5,4.5,4.5c1.8,1,3.6,1.5,8.5,1.5h44.9c4.9,0,6.7-0.6,8.5-1.5c2-1,3.5-2.6,4.5-4.5
			c1-1.8,1.5-3.6,1.5-8.5v-28.9c0-4.9-0.6-6.7-1.5-8.5c-1-2-2.6-3.5-4.5-4.5C62.1-1785.4,60.4-1786,55.4-1786z"/>
		<path id="Path_32_" class="st8" d="M10.6-1784H33v30H-2v-17.4c0-4.4,0.5-6,1.3-7.5s2.1-2.9,3.7-3.7C4.6-1783.5,6.2-1784,10.6-1784
			z"/>
		<path id="Path_33_" class="st8" d="M55.4-1784c4.4,0,6,0.5,7.5,1.3c1.6,0.9,2.9,2.1,3.7,3.7c0.2,0.3,0.3,0.6,0.5,1H25v-6H55.4z"/>
		<path id="Path_34_" class="st8" d="M68-1772c0,0.2,0,0.4,0,0.6v5.4H23v-6H68L68-1772z"/>
		<polygon id="Path_35_" class="st8" points="68,-1760 68,-1754 -2,-1754 -2,-1760 		"/>
		<path id="Path_36_" class="st8" d="M68-1748v5.4c0,0.2,0,0.4,0,0.6H-2c0-0.2,0-0.4,0-0.6v-5.4H68z"/>
		<path id="Path_37_" class="st8" d="M67.2-1736c-0.1,0.3-0.3,0.7-0.5,1c-0.9,1.6-2.1,2.9-3.7,3.7c-1.6,0.9-3.2,1.3-7.5,1.3H10.6
			c-4.4,0-6-0.5-7.5-1.3c-1.6-0.9-2.9-2.1-3.7-3.7c-0.2-0.3-0.3-0.6-0.5-1H67.2L67.2-1736z"/>
		<polygon id="Rectangle-Copy-4" class="st16" points="-2,-1772 33,-1772 33,-1766 -2,-1766 		"/>
		<polygon id="Rectangle-5" class="st16" points="12,-1784 18,-1784 18,-1752 12,-1752 		"/>
	</g>
</g>
<g id="he">
	<g id="Group_14_" transform="translate(6.000000, 6.000000)">
		<path id="Rectangle-3_15_" class="st7" d="M55.4-1720H10.6c-4.9,0-6.7,0.6-8.5,1.5c-2,1-3.5,2.6-4.5,4.5c-1,1.8-1.5,3.6-1.5,8.5
			v28.9c0,4.9,0.6,6.7,1.5,8.5c1,2,2.6,3.5,4.5,4.5c1.8,1,3.6,1.5,8.5,1.5h44.9c4.9,0,6.7-0.6,8.5-1.5c2-1,3.5-2.6,4.5-4.5
			c1-1.8,1.5-3.6,1.5-8.5v-28.9c0-4.9-0.6-6.7-1.5-8.5c-1-2-2.6-3.5-4.5-4.5C62.1-1719.4,60.4-1720,55.4-1720z"/>
		<path id="Path_38_" class="st8" d="M68-1676c0,3.9-0.5,5.5-1.3,7c-0.2,0.4-0.4,0.7-0.6,1H-0.1c-0.2-0.3-0.4-0.7-0.6-1
			c-0.8-1.5-1.3-3-1.3-7H68L68-1676z"/>
		<path id="Path_39_" class="st8" d="M66.1-1714c0.2,0.3,0.4,0.7,0.6,1c0.8,1.5,1.3,3,1.3,7H-2c0-3.9,0.5-5.5,1.3-7
			c0.2-0.4,0.4-0.7,0.6-1H66.1L66.1-1714z"/>
		<path id="Triangle" class="st8" d="M33.5-1701C33.5-1701,33.5-1701,33.5-1701C33.5-1701,33.5-1701,33.5-1701l-9.2,14.8
			c0,0,0,0,0,0c0,0,0,0,0,0h18.4c0,0,0,0,0,0c0,0,0,0,0,0L33.5-1701z M35.7-1702.3l9.2,14.8c0.8,1.2,0.4,2.9-0.8,3.6
			c-0.4,0.3-0.9,0.4-1.4,0.4H24.3c-1.5,0-2.6-1.2-2.6-2.6c0-0.5,0.1-1,0.4-1.4l9.2-14.8c0.8-1.2,2.4-1.6,3.6-0.8
			C35.2-1703,35.5-1702.7,35.7-1702.3z"/>
		<path id="Shape" class="st8" d="M33.5-1681.3C33.5-1681.3,33.5-1681.3,33.5-1681.3C33.5-1681.3,33.5-1681.3,33.5-1681.3l9.2-14.8
			c0,0,0,0,0,0c0,0,0,0,0,0H24.3c0,0,0,0,0,0c0,0,0,0,0,0L33.5-1681.3z M31.3-1679.9l-9.2-14.8c-0.8-1.2-0.4-2.9,0.8-3.6
			c0.4-0.3,0.9-0.4,1.4-0.4h18.4c1.5,0,2.6,1.2,2.6,2.6c0,0.5-0.1,1-0.4,1.4l-9.2,14.8c-0.8,1.2-2.4,1.6-3.6,0.8
			C31.8-1679.3,31.5-1679.6,31.3-1679.9z"/>
	</g>
</g>
<g id="pl">
	<g id="Group_15_" transform="translate(6.000000, 6.000000)">
		<path id="Rectangle-3_16_" class="st7" d="M55.4-1654H10.6c-4.9,0-6.7,0.6-8.5,1.5c-2,1-3.5,2.6-4.5,4.5c-1,1.8-1.5,3.6-1.5,8.5
			v28.9c0,4.9,0.6,6.7,1.5,8.5c1,2,2.6,3.5,4.5,4.5c1.8,1,3.6,1.5,8.5,1.5h44.9c4.9,0,6.7-0.6,8.5-1.5c2-1,3.5-2.6,4.5-4.5
			c1-1.8,1.5-3.6,1.5-8.5v-28.9c0-4.9-0.6-6.7-1.5-8.5c-1-2-2.6-3.5-4.5-4.5C62.1-1653.4,60.4-1654,55.4-1654z"/>
		<path id="Path_40_" class="st9" d="M68-1625v14.4c0,4.4-0.5,6-1.3,7.5s-2.1,2.9-3.7,3.7c-1.6,0.9-3.2,1.3-7.5,1.3H10.6
			c-4.4,0-6-0.5-7.5-1.3c-1.6-0.9-2.9-2.1-3.7-3.7s-1.3-3.2-1.3-7.5v-14.4H68z"/>
	</g>
</g>
<g id="no-copy">
	<g id="Group_16_" transform="translate(6.000000, 6.000000)">
		<path id="Rectangle-3_17_" class="st10" d="M55.4-1588H10.6c-4.9,0-6.7,0.6-8.5,1.5c-2,1-3.5,2.6-4.5,4.5c-1,1.8-1.5,3.6-1.5,8.5
			v28.9c0,4.9,0.6,6.7,1.5,8.5c1,2,2.6,3.5,4.5,4.5c1.8,1,3.6,1.5,8.5,1.5h44.9c4.9,0,6.7-0.6,8.5-1.5c2-1,3.5-2.6,4.5-4.5
			c1-1.8,1.5-3.6,1.5-8.5v-28.9c0-4.9-0.6-6.7-1.5-8.5c-1-2-2.6-3.5-4.5-4.5C62.1-1587.4,60.4-1588,55.4-1588z"/>
		<polygon id="Path_41_" class="st3" points="13,-1586 27,-1586 27,-1566 68,-1566 68,-1552 27,-1552 27,-1532 13,-1532 13,-1552 
			-2,-1552 -2,-1566 13,-1566 		"/>
		<polygon id="Path_42_" class="st2" points="24,-1563 68,-1563 68,-1555 24,-1555 24,-1532 16,-1532 16,-1555 -2,-1555 -2,-1563 
			16,-1563 16,-1586 24,-1586 		"/>
	</g>
</g>
<g id="vi">
	<g id="Group_17_" transform="translate(6.000000, 6.000000)">
		<path id="Rectangle-3_18_" class="st10" d="M55.4-1522H10.6c-4.9,0-6.7,0.6-8.5,1.5c-2,1-3.5,2.6-4.5,4.5c-1,1.8-1.5,3.6-1.5,8.5
			v28.9c0,4.9,0.6,6.7,1.5,8.5c1,2,2.6,3.5,4.5,4.5c1.8,1,3.6,1.5,8.5,1.5h44.9c4.9,0,6.7-0.6,8.5-1.5c2-1,3.5-2.6,4.5-4.5
			c1-1.8,1.5-3.6,1.5-8.5v-28.9c0-4.9-0.6-6.7-1.5-8.5c-1-2-2.6-3.5-4.5-4.5C62.1-1521.4,60.4-1522,55.4-1522z"/>
		<path id="Star_1_" class="st14" d="M32.5-1485.2l-3.9,2.1c-1.2,0.6-2.7,0.2-3.3-1c-0.3-0.5-0.3-1-0.2-1.6l0.8-4.4
			c0.1-0.3-0.1-0.7-0.3-0.9l-3.2-3.1c-1-0.9-1-2.5,0-3.5c0.4-0.4,0.9-0.6,1.4-0.7l4.4-0.6c0.3,0,0.6-0.3,0.8-0.5l2-4
			c0.6-1.2,2.1-1.7,3.3-1.1c0.5,0.2,0.9,0.6,1.1,1.1l2,4c0.1,0.3,0.4,0.5,0.8,0.5l4.4,0.6c1.3,0.2,2.3,1.4,2.1,2.8
			c-0.1,0.5-0.3,1-0.7,1.4l-3.2,3.1c-0.2,0.2-0.3,0.6-0.3,0.9l0.8,4.4c0.2,1.3-0.7,2.6-2,2.8c-0.5,0.1-1.1,0-1.6-0.2l-3.9-2.1
			C33.2-1485.4,32.8-1485.4,32.5-1485.2z"/>
	</g>
</g>
<g id="da">
	<g id="Group_18_" transform="translate(6.000000, 6.000000)">
		<path id="Rectangle-3_19_" class="st10" d="M55.4-1456H10.6c-4.9,0-6.7,0.6-8.5,1.5c-2,1-3.5,2.6-4.5,4.5c-1,1.8-1.5,3.6-1.5,8.5
			v28.9c0,4.9,0.6,6.7,1.5,8.5c1,2,2.6,3.5,4.5,4.5c1.8,1,3.6,1.5,8.5,1.5h44.9c4.9,0,6.7-0.6,8.5-1.5c2-1,3.5-2.6,4.5-4.5
			c1-1.8,1.5-3.6,1.5-8.5v-28.9c0-4.9-0.6-6.7-1.5-8.5c-1-2-2.6-3.5-4.5-4.5C62.1-1455.4,60.4-1456,55.4-1456z"/>
		<rect id="Rectangle_1_" x="17" y="-1454" class="st19" width="12" height="54"/>
		<rect id="Rectangle_2_" x="-2" y="-1433" class="st19" width="70" height="12"/>
	</g>
</g>
<g id="hv">
	<g id="Group_19_" transform="translate(6.000000, 6.000000)">
		<path id="Rectangle-3_20_" class="st20" d="M55.4-1390H10.6c-4.9,0-6.7,0.6-8.5,1.5c-2,1-3.5,2.6-4.5,4.5c-1,1.8-1.5,3.6-1.5,8.5
			v28.9c0,4.9,0.6,6.7,1.5,8.5c1,2,2.6,3.5,4.5,4.5c1.8,1,3.6,1.5,8.5,1.5h44.9c4.9,0,6.7-0.6,8.5-1.5c2-1,3.5-2.6,4.5-4.5
			c1-1.8,1.5-3.6,1.5-8.5v-28.9c0-4.9-0.6-6.7-1.5-8.5c-1-2-2.6-3.5-4.5-4.5C62.1-1389.4,60.4-1390,55.4-1390z"/>
		<path id="Path_43_" class="st9" d="M33.1-1378l5.7-2.8c0.6-0.3,1.4,0.2,1.3,0.9l-0.4,2.9H45c9.9,0,18,8.1,18,18
			c0,9.9-8.1,18-18,18h-6.5c-1.9,0-3.5,1.6-3.5,3.5c0,1.9,1.6,3.5,3.5,3.5H48H21.3c-0.2-1.1-0.3-2.3-0.3-3.5
			c0-9.7,7.8-17.5,17.5-17.5H45c2.2,0,4-1.8,4-4c0-2.2-1.8-4-4-4h-8.7l0.6,2.1c0.1,0.6-0.3,1.1-0.8,1.1l-7.1,0.3l1.3,2
			c0.4,0.6,0,1.4-0.7,1.4l-10.6,0.6c-1.4,0.1-2.7-0.2-3.9-0.9l-2.8,1.4c-0.5,0.2-1,0-1.2-0.4c-2.4-5.1-0.8-11.1,3.8-14.3l16.8-11.9
			c0.6-0.4,1.4,0,1.4,0.7L33.1-1378z"/>
		<path id="Rectangle-Copy-4_1_" class="st18" d="M11.5-1349.2l-5.2,3c-0.5,0.3-1.1,0.1-1.4-0.4c-1.1-1.9-0.4-4.4,1.5-5.5
			c1.9-1.1,4.4-0.4,5.5,1.5C12.1-1350.1,12-1349.4,11.5-1349.2z"/>
		<path id="Rectangle_3_" class="st14" d="M8.5-1350l6.1-3.5c0.5-0.3,1.1-0.1,1.4,0.4c1.1,1.9,0.4,4.4-1.5,5.5l-0.9,0.5
			c-1.9,1.1-4.4,0.4-5.5-1.5C7.8-1349.1,8-1349.7,8.5-1350z"/>
		<path id="Rectangle-Copy-5" class="st14" d="M5.5-1342.9l3.5-2c0.5-0.3,1.1-0.1,1.4,0.4c0.8,1.4,0.3,3.3-1.1,4.1s-3.3,0.3-4.1-1.1
			C4.9-1342,5-1342.6,5.5-1342.9z"/>
		<path id="Rectangle_4_" class="st14" d="M17.9-1366.2l3.8-3.8c0.4-0.4,0.9-0.4,1.3,0c1.1,1.1,1.1,2.8,0,3.8l-1.3,1.3
			c-1.1,1.1-2.8,1.1-3.8,0l0,0C17.6-1365.3,17.6-1365.8,17.9-1366.2z"/>
	</g>
</g>
<g id="ro">
	<g id="Group_20_" transform="translate(6.000000, 6.000000)">
		<path id="Rectangle-3_21_" class="st21" d="M55.4-1324H10.6c-4.9,0-6.7,0.6-8.5,1.5c-2,1-3.5,2.6-4.5,4.5c-1,1.8-1.5,3.6-1.5,8.5
			v28.9c0,4.9,0.6,6.7,1.5,8.5c1,2,2.6,3.5,4.5,4.5c1.8,1,3.6,1.5,8.5,1.5h44.9c4.9,0,6.7-0.6,8.5-1.5c2-1,3.5-2.6,4.5-4.5
			c1-1.8,1.5-3.6,1.5-8.5v-28.9c0-4.9-0.6-6.7-1.5-8.5c-1-2-2.6-3.5-4.5-4.5C62.1-1323.4,60.4-1324,55.4-1324z"/>
		<path id="Path_44_" class="st8" d="M21.6-1322v54H10.6c-4.4,0-6-0.5-7.5-1.3c-1.6-0.9-2.9-2.1-3.7-3.7s-1.3-3.2-1.3-7.5v-28.9
			c0-4.4,0.5-6,1.3-7.5s2.1-2.9,3.7-3.7c1.6-0.9,3.2-1.3,7.5-1.3H21.6z"/>
		<path id="Path_45_" class="st9" d="M44.4-1322h11.1c4.4,0,6,0.5,7.5,1.3c1.6,0.9,2.9,2.1,3.7,3.7s1.3,3.2,1.3,7.5v28.9
			c0,4.4-0.5,6-1.3,7.5s-2.1,2.9-3.7,3.7c-1.6,0.9-3.2,1.3-7.5,1.3H44.4V-1322z"/>
	</g>
</g>
<g id="sw">
	<g id="Group_21_" transform="translate(6.000000, 6.000000)">
		<path id="Rectangle-3_22_" class="st15" d="M55.4-1258H10.6c-4.9,0-6.7,0.6-8.5,1.5c-2,1-3.5,2.6-4.5,4.5c-1,1.8-1.5,3.6-1.5,8.5
			v28.9c0,4.9,0.6,6.7,1.5,8.5c1,2,2.6,3.5,4.5,4.5c1.8,1,3.6,1.5,8.5,1.5h44.9c4.9,0,6.7-0.6,8.5-1.5c2-1,3.5-2.6,4.5-4.5
			c1-1.8,1.5-3.6,1.5-8.5v-28.9c0-4.9-0.6-6.7-1.5-8.5c-1-2-2.6-3.5-4.5-4.5C62.1-1257.4,60.4-1258,55.4-1258z"/>
		<path id="Path_46_" class="st22" d="M63.4-1254.4L-1.5-1209c-0.3-1.2-0.5-2.9-0.5-5.6v-28.9c0-4.4,0.5-6,1.3-7.5s2.1-2.9,3.7-3.7
			c1.6-0.9,3.2-1.3,7.5-1.3h44.9c4.4,0,6,0.5,7.5,1.3C63.1-1254.6,63.3-1254.5,63.4-1254.4z"/>
		<path id="Path_47_" class="st14" d="M54.2-1256h1.2c4.4,0,6,0.5,7.5,1.3c1.6,0.9,2.9,2.1,3.7,3.7s1.3,3.2,1.3,7.5v2.5L12.4-1202
			h-1.9c-4.4,0-6-0.5-7.5-1.3c-1.6-0.9-2.9-2.1-3.7-3.7s-1.3-3.2-1.3-7.5v-2.1L54.2-1256L54.2-1256z"/>
		<path id="Path_48_" class="st23" d="M60.5-1255.6c1,0.2,1.7,0.5,2.5,0.9c1.6,0.9,2.9,2.1,3.7,3.7c0.7,1.3,1.1,2.5,1.2,5.2
			l-62.1,43.5c-1.2-0.2-2-0.6-2.8-1c-1.6-0.9-2.9-2.1-3.7-3.7c-0.7-1.2-1.1-2.4-1.2-4.9L60.5-1255.6L60.5-1255.6z"/>
	</g>
</g>
<g id="eo">
	<g id="Group_22_" transform="translate(6.000000, 6.000000)">
		<path id="Rectangle-3_23_" class="st24" d="M55.4-1192H10.6c-4.9,0-6.7,0.6-8.5,1.5c-2,1-3.5,2.6-4.5,4.5c-1,1.8-1.5,3.6-1.5,8.5
			v28.9c0,4.9,0.6,6.7,1.5,8.5c1,2,2.6,3.5,4.5,4.5c1.8,1,3.6,1.5,8.5,1.5h44.9c4.9,0,6.7-0.6,8.5-1.5c2-1,3.5-2.6,4.5-4.5
			c1-1.8,1.5-3.6,1.5-8.5v-28.9c0-4.9-0.6-6.7-1.5-8.5c-1-2-2.6-3.5-4.5-4.5C62.1-1191.4,60.4-1192,55.4-1192z"/>
		<path id="Path_49_" class="st16" d="M10.6-1190H33v27c0,2.2-1.8,4-4,4H-2v-18.4c0-4.4,0.5-6,1.3-7.5s2.1-2.9,3.7-3.7
			C4.6-1189.5,6.2-1190,10.6-1190z"/>
		<path id="Star_2_" class="st22" d="M14.6-1167.3l-3.4,1.8c-1,0.5-2.3,0.1-2.9-0.9c-0.2-0.4-0.3-0.9-0.2-1.4l0.7-3.8
			c0-0.3,0-0.6-0.2-0.8l-2.8-2.7c-0.8-0.8-0.9-2.2,0-3c0.3-0.3,0.8-0.6,1.2-0.6l3.8-0.6c0.3,0,0.5-0.2,0.7-0.5l1.7-3.5
			c0.5-1.1,1.8-1.5,2.9-1c0.4,0.2,0.8,0.5,1,1l1.7,3.5c0.1,0.3,0.4,0.4,0.7,0.5l3.8,0.6c1.2,0.2,2,1.3,1.8,2.4
			c-0.1,0.5-0.3,0.9-0.6,1.2l-2.8,2.7c-0.2,0.2-0.3,0.5-0.2,0.8l0.7,3.8c0.2,1.2-0.6,2.3-1.7,2.5c-0.5,0.1-0.9,0-1.4-0.2l-3.4-1.8
			C15.1-1167.4,14.8-1167.4,14.6-1167.3z"/>
	</g>
</g>
<g id="hu">
	<g id="Group_23_" transform="translate(6.000000, 6.000000)">
		<path id="Rectangle-3_24_" class="st7" d="M55.4-1126H10.6c-4.9,0-6.7,0.6-8.5,1.5c-2,1-3.5,2.6-4.5,4.5c-1,1.8-1.5,3.6-1.5,8.5
			v28.9c0,4.9,0.6,6.7,1.5,8.5c1,2,2.6,3.5,4.5,4.5c1.8,1,3.6,1.5,8.5,1.5h44.9c4.9,0,6.7-0.6,8.5-1.5c2-1,3.5-2.6,4.5-4.5
			c1-1.8,1.5-3.6,1.5-8.5v-28.9c0-4.9-0.6-6.7-1.5-8.5c-1-2-2.6-3.5-4.5-4.5C62.1-1125.4,60.4-1126,55.4-1126z"/>
		<path id="Path_50_" class="st22" d="M68-1088v5.4c0,4.4-0.5,6-1.3,7.5s-2.1,2.9-3.7,3.7c-1.6,0.9-3.2,1.3-7.5,1.3H10.6
			c-4.4,0-6-0.5-7.5-1.3c-1.6-0.9-2.9-2.1-3.7-3.7s-1.3-3.2-1.3-7.5v-5.4H68z"/>
		<path id="Path_51_" class="st9" d="M10.6-1124h44.9c4.4,0,6,0.5,7.5,1.3c1.6,0.9,2.9,2.1,3.7,3.7s1.3,3.2,1.3,7.5v5.4H-2v-5.4
			c0-4.4,0.5-6,1.3-7.5s2.1-2.9,3.7-3.7C4.6-1123.5,6.2-1124,10.6-1124z"/>
	</g>
</g>
<g id="cy">
	<g id="Group_24_" transform="translate(6.000000, 6.000000)">
		<path id="Rectangle-3_25_" class="st7" d="M55.4-1060H10.6c-4.9,0-6.7,0.6-8.5,1.5c-2,1-3.5,2.6-4.5,4.5c-1,1.8-1.5,3.6-1.5,8.5
			v28.9c0,4.9,0.6,6.7,1.5,8.5c1,2,2.6,3.5,4.5,4.5c1.8,1,3.6,1.5,8.5,1.5h44.9c4.9,0,6.7-0.6,8.5-1.5c2-1,3.5-2.6,4.5-4.5
			c1-1.8,1.5-3.6,1.5-8.5v-28.9c0-4.9-0.6-6.7-1.5-8.5c-1-2-2.6-3.5-4.5-4.5C62.1-1059.4,60.4-1060,55.4-1060z"/>
		<path id="Combined-Shape_1_" class="st22" d="M68-1031v14.4c0,4.4-0.5,6-1.3,7.5s-2.1,2.9-3.7,3.7c-1.6,0.9-3.2,1.3-7.5,1.3H10.6
			c-4.4,0-6-0.5-7.5-1.3c-1.6-0.9-2.9-2.1-3.7-3.7s-1.3-3.2-1.3-7.5v-14.4H68z"/>
		<path id="Rectangle_5_" class="st9" d="M35.2-1044h13.8c1.1,0,2,0.9,2,2c0,0.3-0.1,0.5-0.2,0.8l-3.6,8.2c-2.9,6.7-9.5,11-16.8,11
			H25c-3.9,0-7-3.1-7-7v-5l0,0l10-4v0.4c0,0.9,0.7,1.6,1.6,1.6c0.9,0,1.6-0.7,1.6-1.6v-2.4C31.2-1042.2,33-1044,35.2-1044z"/>
		<path id="Rectangle-Copy" class="st9" d="M21-1046h4c1.7,0,3,1.3,3,3v9l0,0H18v-9C18-1044.6,19.3-1046,21-1046z"/>
		<path id="Rectangle-Copy-2" class="st9" d="M16-1043h5l0,0v5H11C11-1040.8,13.2-1043,16-1043z"/>
		<path id="Rectangle-Copy-4_2_" class="st9" d="M21-1046h10c0,2.2-1.8,4-4,4h-6l0,0V-1046z"/>
		<path id="Rectangle-Copy-3" class="st9" d="M17-1036c-1.7,0-3-1.8-3-4h10v4H17z"/>
		<path id="Path_52_" class="st9" d="M29-1022.1v-5h19.5c1.4,0,2.5-1.1,2.5-2.5v-3.4h5v3.4c0,4.1-3.4,7.5-7.5,7.5H29z"/>
		<path id="Triangle_1_" class="st9" d="M54.3-1036.9l4,5.7c0.3,0.5,0.2,1.1-0.3,1.4c-0.3,0.2-0.6,0.2-0.9,0.1l-3.7-1.2l0,0
			l-3.7,1.2c-0.5,0.2-1.1-0.1-1.3-0.6c-0.1-0.3,0-0.6,0.1-0.9l4-5.7c0.3-0.5,0.9-0.6,1.4-0.3C54.2-1037.1,54.3-1037,54.3-1036.9z"/>
		<path id="Path_53_" class="st9" d="M24-1020h3c2.2,0,4,1.8,4,4c0,0.6-0.4,1-1,1h-9c-0.6,0-1-0.4-1-1C20-1018.2,21.8-1020,24-1020z
			"/>
		<rect id="Rectangle_6_" x="26" y="-1026" class="st9" width="5" height="10"/>
		<path id="Path_54_" class="st9" d="M16-1026.1v2c0,2.2-1.8,4-4,4c-0.6,0-1-0.4-1-1v-8c0-0.6,0.4-1,1-1
			C14.2-1030.1,16-1028.3,16-1026.1z"/>
		
			<rect id="Rectangle_7_" x="11.5" y="-1027.1" transform="matrix(0.9659 -0.2588 0.2588 0.9659 265.8234 -29.9891)" class="st9" width="15" height="5"/>
		<path id="Path_55_" class="st9" d="M40-1020h4c2.2,0,4,1.8,4,4c0,0.6-0.4,1-1,1H37c-0.6,0-1-0.4-1-1C36-1018.2,37.8-1020,40-1020z
			"/>
		
			<rect id="Rectangle-Copy-7" x="40.2" y="-1026.4" transform="matrix(0.866 -0.5 0.5 0.866 516.4213 -115.5111)" class="st9" width="5" height="10"/>
	</g>
</g>
<g id="uk">
	<g id="Group_25_" transform="translate(6.000000, 6.000000)">
		<path id="Rectangle-3_26_" class="st15" d="M55.4-994H10.6c-4.9,0-6.7,0.6-8.5,1.5c-2,1-3.5,2.6-4.5,4.5c-1,1.8-1.5,3.6-1.5,8.5
			v28.9c0,4.9,0.6,6.7,1.5,8.5c1,2,2.6,3.5,4.5,4.5c1.8,1,3.6,1.5,8.5,1.5h44.9c4.9,0,6.7-0.6,8.5-1.5c2-1,3.5-2.6,4.5-4.5
			c1-1.8,1.5-3.6,1.5-8.5v-28.9c0-4.9-0.6-6.7-1.5-8.5c-1-2-2.6-3.5-4.5-4.5C62.1-993.4,60.4-994,55.4-994z"/>
		<path id="Path_56_" class="st14" d="M68-965v14.4c0,4.4-0.5,6-1.3,7.5s-2.1,2.9-3.7,3.7c-1.6,0.9-3.2,1.3-7.5,1.3H10.6
			c-4.4,0-6-0.5-7.5-1.3c-1.6-0.9-2.9-2.1-3.7-3.7s-1.3-3.2-1.3-7.5V-965H68z"/>
	</g>
</g>
<g id="kl">
	<g id="Group_26_" transform="translate(6.000000, 6.000000)">
		<path id="Rectangle-3_27_" class="st10" d="M55.4-928H10.6c-4.9,0-6.7,0.6-8.5,1.5c-2,1-3.5,2.6-4.5,4.5c-1,1.8-1.5,3.6-1.5,8.5
			v28.9c0,4.9,0.6,6.7,1.5,8.5c1,2,2.6,3.5,4.5,4.5c1.8,1,3.6,1.5,8.5,1.5h44.9c4.9,0,6.7-0.6,8.5-1.5c2-1,3.5-2.6,4.5-4.5
			c1-1.8,1.5-3.6,1.5-8.5v-28.9c0-4.9-0.6-6.7-1.5-8.5c-1-2-2.6-3.5-4.5-4.5C62.1-927.4,60.4-928,55.4-928z"/>
		<circle id="Oval" class="st16" cx="33" cy="-899" r="16"/>
		<path id="Triangle_2_" class="st23" d="M34.8-916.6l4.9,16.8c0.3,0.9,0,2-0.7,2.7L35-893c-1,1.1-2.8,1.1-3.8,0c0,0,0,0,0,0
			l-4.1-4.1c-0.7-0.7-0.9-1.7-0.7-2.7l4.9-16.8c0.3-1,1.3-1.5,2.2-1.2C34.2-917.6,34.7-917.2,34.8-916.6z"/>
		<path id="Path-3" class="st23" d="M24.9-895.9c0.5,0.6,4.4,4.5,5,5.1c0.9,0.8,0.3,2.4-1,2.4c-2.8-0.1-5.3,0.8-7.3,2.5
			c-0.7,0.6-1.3,1.1-1.8,1.7c-0.3,0.3-0.5,0.6-0.6,0.7c-0.4,0.7-1.3,0.8-2,0.3c-4-3.2-1-11.1,6.2-13.1
			C24-896.4,24.6-896.3,24.9-895.9z"/>
		<path id="Shape_1_" class="st23" d="M36.1-889.3c-0.1-0.1-0.2-0.3-0.3-0.4c-0.1-0.5,0.1-1,0.5-1.3c0,0,0.1-0.1,0.1-0.1
			c0.1-0.1,0.3-0.3,0.6-0.6c0.2-0.2,0.5-0.5,0.9-0.9c0.2-0.2,0.5-0.5,1-1l0,0c1.6-1.7,2.4-2.4,2.7-2.7c0.6-0.6,1.7-0.3,2,0.5
			c0.8,2.1,2.2,3.6,4.1,4.6c0.7,0.4,1.3,0.6,2,0.8c0.4,0.1,0.6,0.2,0.8,0.2c0.8,0.1,1.2,1,0.9,1.7c-0.8,1.9-3.2,3.4-5.9,3.6
			C42.1-884.7,38.9-886.1,36.1-889.3L36.1-889.3L36.1-889.3z M37.2-891.3c0.1,0,0.1,0,0.2,0.1C37.4-891.3,37.3-891.3,37.2-891.3
			L37.2-891.3z"/>
	</g>
</g>
<g id="cs">
	<g id="Group_27_" transform="translate(6.000000, 6.000000)">
		<path id="Rectangle-3_28_" class="st7" d="M55.4-862H10.6c-4.9,0-6.7,0.6-8.5,1.5c-2,1-3.5,2.6-4.5,4.5c-1,1.8-1.5,3.6-1.5,8.5
			v28.9c0,4.9,0.6,6.7,1.5,8.5c1,2,2.6,3.5,4.5,4.5c1.8,1,3.6,1.5,8.5,1.5h44.9c4.9,0,6.7-0.6,8.5-1.5c2-1,3.5-2.6,4.5-4.5
			c1-1.8,1.5-3.6,1.5-8.5v-28.9c0-4.9-0.6-6.7-1.5-8.5c-1-2-2.6-3.5-4.5-4.5C62.1-861.4,60.4-862,55.4-862z"/>
		<path id="Path_57_" class="st9" d="M68-833v14.4c0,4.4-0.5,6-1.3,7.5s-2.1,2.9-3.7,3.7c-1.6,0.9-3.2,1.3-7.5,1.3H10.6
			c-4.4,0-6-0.5-7.5-1.3c-1.6-0.9-2.9-2.1-3.7-3.7s-1.3-3.2-1.3-7.5V-833H68z"/>
		<path id="Path_58_" class="st8" d="M1.3-808.5c-0.8-0.7-1.4-1.5-2-2.5c-0.9-1.6-1.3-3.2-1.3-7.5v-28.9c0-4.4,0.5-6,1.3-7.5
			c0.5-1,1.2-1.8,2-2.5L33-833L1.3-808.5L1.3-808.5z"/>
	</g>
</g>
<g id="hi">
	<g id="Group_28_" transform="translate(6.000000, 6.000000)">
		<path id="Rectangle-3_29_" class="st7" d="M55.4-796H10.6c-4.9,0-6.7,0.6-8.5,1.5c-2,1-3.5,2.6-4.5,4.5c-1,1.8-1.5,3.6-1.5,8.5
			v28.9c0,4.9,0.6,6.7,1.5,8.5c1,2,2.6,3.5,4.5,4.5c1.8,1,3.6,1.5,8.5,1.5h44.9c4.9,0,6.7-0.6,8.5-1.5c2-1,3.5-2.6,4.5-4.5
			c1-1.8,1.5-3.6,1.5-8.5v-28.9c0-4.9-0.6-6.7-1.5-8.5c-1-2-2.6-3.5-4.5-4.5C62.1-795.4,60.4-796,55.4-796z"/>
		<path id="Path_59_" class="st18" d="M10.6-794h44.9c4.4,0,6,0.5,7.5,1.3c1.6,0.9,2.9,2.1,3.7,3.7c0.9,1.6,1.3,3.2,1.3,7.5v3.4H-2
			v-3.4c0-4.4,0.5-6,1.3-7.5c0.9-1.6,2.1-2.9,3.7-3.7S6.2-794,10.6-794z"/>
		<path id="Path_60_" class="st22" d="M68-756v3.4c0,4.4-0.5,6-1.3,7.5s-2.1,2.9-3.7,3.7c-1.6,0.9-3.2,1.3-7.5,1.3H10.6
			c-4.4,0-6-0.5-7.5-1.3c-1.6-0.9-2.9-2.1-3.7-3.7s-1.3-3.2-1.3-7.5v-3.4H68z"/>
		<path id="Oval_1_" class="st8" d="M33-759c-4.4,0-8-3.6-8-8s3.6-8,8-8s8,3.6,8,8S37.4-759,33-759z M33-763c2.2,0,4-1.8,4-4
			c0-2.2-1.8-4-4-4s-4,1.8-4,4C29-764.8,30.8-763,33-763z"/>
	</g>
</g>
<g id="id">
	<g id="Group_29_" transform="translate(6.000000, 6.000000)">
		<path id="Rectangle-3_30_" class="st10" d="M55.4-730H10.6c-4.9,0-6.7,0.6-8.5,1.5c-2,1-3.5,2.6-4.5,4.5c-1,1.8-1.5,3.6-1.5,8.5
			v28.9c0,4.9,0.6,6.7,1.5,8.5c1,2,2.6,3.5,4.5,4.5c1.8,1,3.6,1.5,8.5,1.5h44.9c4.9,0,6.7-0.6,8.5-1.5c2-1,3.5-2.6,4.5-4.5
			c1-1.8,1.5-3.6,1.5-8.5v-28.9c0-4.9-0.6-6.7-1.5-8.5c-1-2-2.6-3.5-4.5-4.5C62.1-729.4,60.4-730,55.4-730z"/>
		<path id="Path_61_" class="st16" d="M68-701v14.4c0,4.4-0.5,6-1.3,7.5s-2.1,2.9-3.7,3.7c-1.6,0.9-3.2,1.3-7.5,1.3H10.6
			c-4.4,0-6-0.5-7.5-1.3c-1.6-0.9-2.9-2.1-3.7-3.7s-1.3-3.2-1.3-7.5V-701H68z"/>
	</g>
</g>
<g id="ha">
	<g id="Group_30_" transform="translate(6.000000, 6.000000)">
		<path id="Rectangle-3_31_" class="st7" d="M55.4-664H10.6c-4.9,0-6.7,0.6-8.5,1.5c-2,1-3.5,2.6-4.5,4.5c-1,1.8-1.5,3.6-1.5,8.5
			v28.9c0,4.9,0.6,6.7,1.5,8.5c1,2,2.6,3.5,4.5,4.5c1.8,1,3.6,1.5,8.5,1.5h44.9c4.9,0,6.7-0.6,8.5-1.5c2-1,3.5-2.6,4.5-4.5
			c1-1.8,1.5-3.6,1.5-8.5v-28.9c0-4.9-0.6-6.7-1.5-8.5c-1-2-2.6-3.5-4.5-4.5C62.1-663.4,60.4-664,55.4-664z"/>
		<rect id="Rectangle-4-Copy-5" x="-2" y="-653" class="st1" width="70" height="9"/>
		<rect id="Rectangle-4-Copy" x="-2" y="-644" class="st25" width="70" height="9"/>
		<path id="Path_62_" class="st26" d="M37-662v27H-2v-14.4c0-4.4,0.5-6,1.3-7.5c0.9-1.6,2.1-2.9,3.7-3.7l0.4-0.2
			c1.5-0.7,3.1-1.1,7.1-1.1H37z"/>
		<path id="Path_63_" class="st16" d="M15-662v8.9l2.5,1.8l2.5-1.8v-8.9h3v6.7l9.3-6.7H37v2.7l-7.2,5.3H37v3H25.6l-3.9,2.8l3,2.2H37
			v3h-8.2l8.2,5.9v2.1h-5.7l-8.3-6.1v6.1h-3v-8.2l-2.5-1.8l-2.5,1.8v8.3h-3v-6.1L3.6-635H-2v-2.1l8.1-5.9H-2v-3h12.2l3-2.2L9.3-651
			L-2-651c0-1.2,0.1-2.2,0.3-3l6.9,0l-5.3-3.9c0.8-1.2,1.9-2.1,3.2-2.8c0.3-0.2,0.6-0.3,0.9-0.4l8.1,5.9v-6.8H15z"/>
		<path id="Path_64_" class="st26" d="M67.8-617c-0.2,1.9-0.6,2.9-1.2,4c-0.9,1.6-2.1,2.9-3.7,3.7c-1.6,0.9-3.2,1.3-7.5,1.3H10.6
			c-4.4,0-6-0.5-7.5-1.3c-1.6-0.9-2.9-2.1-3.7-3.7c-0.6-1.1-1-2.1-1.2-4H67.8z"/>
		<path id="Path_65_" class="st9" d="M68-620.6c0,1.5-0.1,2.6-0.2,3.6H-1.8c-0.1-0.9-0.2-2.1-0.2-3.6v-5.4h70V-620.6z"/>
		<polygon id="Path_66_" class="st9" points="20,-651 37,-651 37,-646 20,-646 20,-635 15,-635 15,-646 -2,-646 -2,-651 15,-651 
			15,-662 20,-662 		"/>
	</g>
</g>
<g id="nv">
	<g id="Group_31_" transform="translate(6.000000, 6.000000)">
		<path id="Rectangle-3_32_" class="st27" d="M55.4-598H10.6c-4.9,0-6.7,0.6-8.5,1.5c-2,1-3.5,2.6-4.5,4.5c-1,1.8-1.5,3.6-1.5,8.5
			v28.9c0,4.9,0.6,6.7,1.5,8.5c1,2,2.6,3.5,4.5,4.5c1.8,1,3.6,1.5,8.5,1.5h44.9c4.9,0,6.7-0.6,8.5-1.5c2-1,3.5-2.6,4.5-4.5
			c1-1.8,1.5-3.6,1.5-8.5v-28.9c0-4.9-0.6-6.7-1.5-8.5c-1-2-2.6-3.5-4.5-4.5C62.1-597.4,60.4-598,55.4-598z"/>
		<path id="Star_3_" class="st23" d="M32-583l-0.6,8.7c0,0.6-0.6,1.1-1.2,1c0,0,0,0,0,0l-1.9-0.2c-0.6,0-1.1,0.4-1.2,1
			c0,0.3,0.1,0.6,0.2,0.8l1.2,1.5c0.3,0.4,0.3,1.1-0.1,1.5l-1.4,1.4c-0.4,0.4-0.4,1.1,0,1.6c0.2,0.2,0.5,0.3,0.8,0.3l2.1,0.1
			c0.4,0,0.8,0.3,1,0.6l1.2,2.5c0.3,0.6,0.9,0.8,1.5,0.5c0.2-0.1,0.4-0.3,0.5-0.5l1.3-2.5c0.2-0.4,0.6-0.6,1-0.6H38
			c0.6,0,1.1-0.5,1.1-1.1c0-0.3-0.1-0.5-0.3-0.7l-1.4-1.6c-0.3-0.4-0.3-0.9-0.1-1.3l1.1-1.7c0.3-0.5,0.2-1.2-0.4-1.5
			c-0.2-0.1-0.4-0.2-0.7-0.2l-1.6,0.1c-0.6,0.1-1.2-0.4-1.2-1l0,0l-0.8-8.7c0-0.3,0.1-0.7,0.3-0.9l3.1-3c0.7-0.6,1.7-0.6,2.4,0
			c0.2,0.2,0.3,0.4,0.4,0.6l1.3,3.6c0.2,0.6,0.8,1.1,1.5,1.1l4.2,0.2c0.9,0,1.6,0.8,1.6,1.7c0,0.1,0,0.3-0.1,0.4l-1.1,4.1
			c-0.2,0.6,0,1.3,0.6,1.7l3.3,2.7c0.7,0.6,0.8,1.6,0.3,2.3c-0.1,0.1-0.2,0.2-0.3,0.3l-3.3,2.7c-0.5,0.4-0.7,1.1-0.6,1.7l1.1,4.1
			c0.2,0.9-0.3,1.8-1.2,2.1c-0.1,0-0.2,0.1-0.4,0.1l-4.2,0.2c-0.7,0-1.3,0.5-1.5,1.1l-1.5,4c-0.3,0.9-1.3,1.3-2.1,1
			c-0.1,0-0.2-0.1-0.4-0.2l-3.5-2.3c-0.6-0.4-1.3-0.4-1.9,0l-3.5,2.3c-0.8,0.5-1.8,0.3-2.3-0.5c-0.1-0.1-0.1-0.2-0.2-0.4l-1.5-4
			c-0.2-0.6-0.8-1.1-1.5-1.1l-4.2-0.2c-0.9,0-1.6-0.8-1.6-1.7c0-0.1,0-0.3,0.1-0.4l1.1-4.1c0.2-0.6,0-1.3-0.6-1.7l-3.3-2.7
			c-0.7-0.6-0.8-1.6-0.3-2.3c0.1-0.1,0.2-0.2,0.3-0.3l3.3-2.7c0.5-0.4,0.7-1.1,0.6-1.7l-1.1-4.1c-0.2-0.9,0.3-1.8,1.2-2.1
			c0.1,0,0.2-0.1,0.4-0.1l4.2-0.2c0.7,0,1.3-0.5,1.5-1.1l1.3-3.5c0.3-0.9,1.3-1.3,2.1-1c0.2,0.1,0.4,0.2,0.6,0.4l3,3
			C31.9-583.6,32-583.3,32-583L32-583z"/>
		<path id="Path_67_" class="st9" d="M19.5-568.9c0-6.2,4.2-11.6,10.1-13.2c0.5-0.1,0.9,0.2,0.9,0.7l0,3.5c0,0.3-0.2,0.6-0.5,0.7
			c-3.4,1.3-5.7,4.6-5.7,8.3c0,4.9,3.9,8.8,8.7,8.8s8.7-3.9,8.7-8.8c0-3.7-2.3-7-5.7-8.3c-0.3-0.1-0.5-0.4-0.5-0.7l0-3.5
			c0-0.5,0.4-0.8,0.9-0.7c5.9,1.5,10.1,7,10.1,13.2c0,7.5-6,13.6-13.5,13.6S19.5-561.4,19.5-568.9z"/>
	</g>
</g>
<g id="ar">
	<g id="Group_32_" transform="translate(6.000000, 6.000000)">
		<path id="Rectangle-3_33_" class="st24" d="M55.4-532H10.6c-4.9,0-6.7,0.6-8.5,1.5c-2,1-3.5,2.6-4.5,4.5c-1,1.8-1.5,3.6-1.5,8.5
			v28.9c0,4.9,0.6,6.7,1.5,8.5c1,2,2.6,3.5,4.5,4.5c1.8,1,3.6,1.5,8.5,1.5h44.9c4.9,0,6.7-0.6,8.5-1.5c2-1,3.5-2.6,4.5-4.5
			c1-1.8,1.5-3.6,1.5-8.5v-28.9c0-4.9-0.6-6.7-1.5-8.5c-1-2-2.6-3.5-4.5-4.5C62.1-531.4,60.4-532,55.4-532z"/>
	</g>
	<g id="Group-3_1_" transform="translate(27.000000, 12.000000)">
		<g id="Group_33_" transform="translate(0.000000, 5.000000)">
			<path id="Oval_2_" class="st28" d="M12.5-499.9c8,0,14.5-6.3,14.5-14c0-7.7-6.5-14-14.5-14S-2-521.7-2-513.9
				C-2-506.2,4.5-499.9,12.5-499.9z"/>
			<path id="Path-6-Copy" class="st29" d="M13.3-527.3c2.2,0,4.1,0.1,4.7-2.7"/>
			<path id="Triangle_3_" class="st6" d="M14-498.6l-9,2.5c-1.1,0.3-2.2-0.3-2.5-1.4c-0.1-0.4-0.1-0.8,0.1-1.2l0.9-2.4
				c0.3-0.8,1.2-1.3,2.1-0.9c0,0,0,0,0.1,0L14-498.6L14-498.6z"/>
			<path id="Triangle-Copy" class="st6" d="M11-498.6l9,2.5c1.1,0.3,2.2-0.3,2.5-1.4c0.1-0.4,0.1-0.8-0.1-1.2l-0.9-2.4
				c-0.3-0.8-1.2-1.3-2.1-0.9c0,0,0,0-0.1,0L11-498.6L11-498.6z"/>
			<path id="Path-8" class="st30" d="M13.1-528.1l-3.9,0.8l-0.4,0.9c1.1-0.2,2.4-0.3,4-0.4c1.4-0.1,2.5-0.6,3.4-1.6L13.1-528.1z"/>
		</g>
		<g id="Group-2_1_" transform="translate(5.000000, 9.000000)">
			<circle id="Oval_3_" class="st6" cx="7.5" cy="-518.5" r="9.5"/>
			<circle id="Oval-Copy" class="st31" cx="7.5" cy="-522.5" r="7.5"/>
		</g>
		<path id="Combined-Shape_2_" class="st32" d="M12.2-522.2c-0.2-1.6,0.3-3.2,1.5-4.3c1.1-1.1,2.7-1.6,4.2-1.4
			c0.2,1.6-0.3,3.2-1.5,4.3C15.2-522.4,13.7-522,12.2-522.2L12.2-522.2z"/>
		<path id="Combined-Shape-Copy" class="st32" d="M12.8-522.2c0.2-1.6-0.3-3.2-1.5-4.3c-1.1-1.1-2.7-1.6-4.2-1.4
			c-0.2,1.6,0.3,3.2,1.5,4.3C9.8-522.4,11.3-522,12.8-522.2L12.8-522.2z"/>
	</g>
</g>
<g id="ca">
	<g id="Group_34_" transform="translate(6.000000, 6.000000)">
		<path id="Rectangle-3_34_" class="st4" d="M55.4-466H10.6c-4.9,0-6.7,0.6-8.5,1.5c-2,1-3.5,2.6-4.5,4.5c-1,1.8-1.5,3.6-1.5,8.5
			v28.9c0,4.9,0.6,6.7,1.5,8.5c1,2,2.6,3.5,4.5,4.5c1.8,1,3.6,1.5,8.5,1.5h44.9c4.9,0,6.7-0.6,8.5-1.5c2-1,3.5-2.6,4.5-4.5
			c1-1.8,1.5-3.6,1.5-8.5v-28.9c0-4.9-0.6-6.7-1.5-8.5c-1-2-2.6-3.5-4.5-4.5C62.1-465.4,60.4-466,55.4-466z"/>
		<path id="Path_68_" class="st33" d="M10.6-464h44.9c4.4,0,6,0.5,7.5,1.3c1.6,0.9,2.9,2.1,3.7,3.7c0.2,0.3,0.3,0.6,0.5,1H-1.2
			c0.1-0.3,0.3-0.7,0.5-1c0.9-1.6,2.1-2.9,3.7-3.7S6.2-464,10.6-464z"/>
		<path id="Path_69_" class="st33" d="M68-452c0,0.2,0,0.4,0,0.6v5.4H-2v-5.4c0-0.2,0-0.4,0-0.6H68z"/>
		<polygon id="Path_70_" class="st33" points="68,-440 68,-434 -2,-434 -2,-440 		"/>
		<path id="Path_71_" class="st33" d="M68-422.6c0,0.2,0,0.4,0,0.6H-2c0-0.2,0-0.4,0-0.6v-5.4h70V-422.6z"/>
		<path id="Path_72_" class="st33" d="M67.2-416c-0.1,0.3-0.3,0.7-0.5,1c-0.9,1.6-2.1,2.9-3.7,3.7c-1.6,0.9-3.2,1.3-7.5,1.3H10.6
			c-4.4,0-6-0.5-7.5-1.3c-1.6-0.9-2.9-2.1-3.7-3.7c-0.2-0.3-0.3-0.6-0.5-1H67.2z"/>
	</g>
</g>
<g id="th">
	<g id="Group_35_" transform="translate(6.000000, 6.000000)">
		<path id="Rectangle-3_35_" class="st16" d="M10.6-398h44.9c4.4,0,6,0.5,7.5,1.3c1.6,0.9,2.9,2.1,3.7,3.7c0.9,1.6,1.3,3.2,1.3,7.5
			v28.9c0,4.4-0.5,6-1.3,7.5c-0.9,1.6-2.1,2.9-3.7,3.7c-1.6,0.9-3.2,1.3-7.5,1.3H10.6c-4.4,0-6-0.5-7.5-1.3
			c-1.6-0.9-2.9-2.1-3.7-3.7c-0.9-1.6-1.3-3.2-1.3-7.5v-28.9c0-4.4,0.5-6,1.3-7.5c0.9-1.6,2.1-2.9,3.7-3.7S6.2-398,10.6-398z"/>
		<path id="Rectangle-3_36_" class="st7" d="M55.4-400H10.6c-4.9,0-6.7,0.6-8.5,1.5c-2,1-3.5,2.6-4.5,4.5c-1,1.8-1.5,3.6-1.5,8.5
			v28.9c0,4.9,0.6,6.7,1.5,8.5c1,2,2.6,3.5,4.5,4.5c1.8,1,3.6,1.5,8.5,1.5h44.9c4.9,0,6.7-0.6,8.5-1.5c2-1,3.5-2.6,4.5-4.5
			c1-1.8,1.5-3.6,1.5-8.5v-28.9c0-4.9-0.6-6.7-1.5-8.5c-1-2-2.6-3.5-4.5-4.5C62.1-399.4,60.4-400,55.4-400z"/>
		<path id="Path_73_" class="st9" d="M67.7-352c-0.2,1.3-0.6,2.1-1,3c-0.9,1.6-2.1,2.9-3.7,3.7c-1.6,0.9-3.2,1.3-7.5,1.3H10.6
			c-4.4,0-6-0.5-7.5-1.3c-1.6-0.9-2.9-2.1-3.7-3.7c-0.5-0.9-0.8-1.7-1-3H67.7L67.7-352z"/>
		<polygon id="Rectangle-4_1_" class="st2" points="68,-382 68,-360 -2,-360 -2,-382 		"/>
		<path id="Path_74_" class="st9" d="M10.6-398h44.9c4.4,0,6,0.5,7.5,1.3c1.6,0.9,2.9,2.1,3.7,3.7c0.5,0.9,0.8,1.7,1,3H-1.7
			c0.2-1.3,0.6-2.1,1-3c0.9-1.6,2.1-2.9,3.7-3.7S6.2-398,10.6-398z"/>
	</g>
</g>
<g id="gn">
	<g id="Group_36_" transform="translate(6.000000, 6.000000)">
		<path id="Rectangle-3_37_" class="st7" d="M55.4-334H10.6c-4.9,0-6.7,0.6-8.5,1.5c-2,1-3.5,2.6-4.5,4.5c-1,1.8-1.5,3.6-1.5,8.5
			v28.9c0,4.9,0.6,6.7,1.5,8.5c1,2,2.6,3.5,4.5,4.5c1.8,1,3.6,1.5,8.5,1.5h44.9c4.9,0,6.7-0.6,8.5-1.5c2-1,3.5-2.6,4.5-4.5
			c1-1.8,1.5-3.6,1.5-8.5v-28.9c0-4.9-0.6-6.7-1.5-8.5c-1-2-2.6-3.5-4.5-4.5C62.1-333.4,60.4-334,55.4-334z"/>
		<path id="Path_75_" class="st8" d="M68-294v3.4c0,4.4-0.5,6-1.3,7.5c-0.9,1.6-2.1,2.9-3.7,3.7c-1.6,0.9-3.2,1.3-7.5,1.3H10.6
			c-4.4,0-6-0.5-7.5-1.3c-1.6-0.9-2.9-2.1-3.7-3.7c-0.9-1.6-1.3-3.2-1.3-7.5v-3.4H68z"/>
		<path id="Path_76_" class="st9" d="M10.6-332h44.9c4.4,0,6,0.5,7.5,1.3c1.6,0.9,2.9,2.1,3.7,3.7c0.9,1.6,1.3,3.2,1.3,7.5v3.4H-2
			v-3.4c0-4.4,0.5-6,1.3-7.5c0.9-1.6,2.1-2.9,3.7-3.7S6.2-332,10.6-332z"/>
		<path id="Oval_4_" class="st9" d="M33-296c-5,0-9-4-9-9c0-5,4-9,9-9s9,4,9,9C42-300,38-296,33-296z M33-300c2.8,0,5-2.2,5-5
			c0-2.8-2.2-5-5-5s-5,2.2-5,5C28-302.2,30.2-300,33-300z"/>
		<circle id="Oval_5_" class="st2" cx="33" cy="-305" r="3"/>
	</g>
</g>
<g id="ambassador">
	<g id="Group-5-Copy" transform="translate(6.000000, 6.000000)">
		<path id="Rectangle-3_38_" class="st34" d="M55.4-268H10.6c-4.9,0-6.7,0.6-8.5,1.5c-2,1-3.5,2.6-4.5,4.5c-1,1.8-1.5,3.6-1.5,8.5
			v28.9c0,4.9,0.6,6.7,1.5,8.5c1,2,2.6,3.5,4.5,4.5c1.8,1,3.6,1.5,8.5,1.5h44.9c4.9,0,6.7-0.6,8.5-1.5c2-1,3.5-2.6,4.5-4.5
			c1-1.8,1.5-3.6,1.5-8.5v-28.9c0-4.9-0.6-6.7-1.5-8.5c-1-2-2.6-3.5-4.5-4.5C62.1-267.4,60.4-268,55.4-268z"/>
		<path id="Path_77_" class="st18" d="M29.5-266l6.3,3.4l-6.3,8.2l-2.5,9.5l-7-4.8v7l22.8,9.6L27.4-212h-3.8l1.5-12.6l-6.3-5.6v-8.3
			l-8.3-8.3L2-260.5l2.4-4.8c1.3-0.5,3-0.7,6.2-0.7H29.5z"/>
		<path id="Combined-Shape_3_" class="st35" d="M55.4-266c4.4,0,6,0.5,7.5,1.3c1.6,0.9,2.9,2.1,3.7,3.7c0.9,1.6,1.3,3.2,1.3,7.5
			v28.9c0,3.4-0.3,5.1-0.8,6.5l-5.8-1.9l-1.3-13l-8.7-5.6v-13h8.3l-4.1-6.4h-5.9l3.1-8H55.4z"/>
		<g id="Group-7" transform="translate(4.000000, 0.000000)">
		</g>
	</g>
</g>
<g id="duolingo">
	<g id="Group-5-Copy-2" transform="translate(6.000000, 6.000000)">
		<path id="Rectangle-3_39_" class="st17" d="M55.4-202H10.6c-4.9,0-6.7,0.6-8.5,1.5c-2,1-3.5,2.6-4.5,4.5c-1,1.8-1.5,3.6-1.5,8.5
			v28.9c0,4.9,0.6,6.7,1.5,8.5c1,2,2.6,3.5,4.5,4.5c1.8,1,3.6,1.5,8.5,1.5h44.9c4.9,0,6.7-0.6,8.5-1.5c2-1,3.5-2.6,4.5-4.5
			c1-1.8,1.5-3.6,1.5-8.5v-28.9c0-4.9-0.6-6.7-1.5-8.5c-1-2-2.6-3.5-4.5-4.5C62.1-201.4,60.4-202,55.4-202z"/>
		<g id="Icon" transform="translate(4.000000, 0.000000)">
			<g id="Glyph-Copy-3" transform="translate(0.867188, 5.550781)">
				<g id="Group_37_" transform="translate(0.035890, 0.000000)">
					<path id="Combined-Shape-Copy-57" class="st36" d="M22.2-188c0.9,0.9,0.6,2.4-0.5,2.9c-3.7,1.8-8.1,1-11-2
						c-2.9-3-3.5-7.5-1.6-11.1c0.6-1.1,1.8-1.3,2.7-0.4L22.2-188z"/>
					<path id="Path-12" class="st37" d="M21-189.2c3.7,3.7,10.1,3.7,14.2,0s-0.6,21.5-0.6,21.5c0,0-2.2,0-6.5,0c-1.2,0-3.3,0-6.3,0
						C18.8-184.5,18.5-191.6,21-189.2z"/>
					<path id="Combined-Shape-Copy-58" class="st36" d="M6.1-194.7l9.9,11c0.8,0.9,0.5,2.4-0.6,2.9c-3.7,1.7-8.2,0.7-11-2.4
						c-2.8-3.1-3.3-7.6-1.2-11.1C3.8-195.4,5.2-195.6,6.1-194.7z"/>
					
						<g id="Group-4" transform="translate(47.352758, 11.848706) scale(-1, 1) translate(-47.352758, -11.848706) translate(34.738341, 0.039135)">
						<path id="Combined-Shape-Copy-57_1_" class="st36" d="M25.9-188c0.9,0.9,0.6,2.4-0.5,2.9c-3.7,1.8-8.1,1-11-2
							c-2.9-3-3.5-7.5-1.6-11.1c0.6-1.1,1.8-1.3,2.7-0.4L25.9-188z"/>
						<path id="Combined-Shape-Copy-58_1_" class="st36" d="M9.8-194.7l9.9,11c0.8,0.9,0.5,2.4-0.6,2.9c-3.7,1.7-8.2,0.7-11-2.4
							c-2.8-3.1-3.3-7.6-1.2-11.1C7.5-195.5,9-195.6,9.8-194.7z"/>
					</g>
					<path id="Rectangle-130-Copy-36" class="st37" d="M11.1-193h0.6c7.3,0,13.1,5.9,13.1,13.1v6.8c0,7.3-5.9,13.1-13.1,13.1h-0.6
						c-7.3,0-13.1-5.9-13.1-13.1v-6.8C-2-187.1,3.9-193,11.1-193z"/>
					<path id="Rectangle-130-Copy-37" class="st37" d="M44.5-193h0.5c7.3,0,13.1,5.9,13.1,13.1v6.8c0,7.3-5.9,13.1-13.1,13.1h-0.4
						c-7.2,0-13.1-5.8-13.1-13l-0.1-6.8c-0.1-7.3,5.8-13.2,13-13.3C44.4-193,44.4-193,44.5-193z"/>
					<path id="Rectangle-130-Copy-38" class="st6" d="M12-188.3c5.1,0,9.2,4.1,9.2,9.2v5.4c0,5.1-4.1,9.2-9.2,9.2s-9.2-4.1-9.2-9.2
						v-5.4C2.8-184.2,6.9-188.3,12-188.3z"/>
					<path id="Rectangle-130-Copy-39" class="st6" d="M44.1-188.3c5.1,0,9.2,4.1,9.2,9.2v5.4c0,5.1-4.1,9.2-9.2,9.2
						s-9.2-4.1-9.2-9.2v-5.4C35-184.2,39.1-188.3,44.1-188.3z"/>
					<path id="Rectangle-130-Copy-40" class="st38" d="M13.4-183.1c2.4,0,4.3,1.9,4.3,4.3v4.6c0,2.4-1.9,4.3-4.3,4.3
						S9-171.7,9-174.1v-4.6C9-181.1,11-183.1,13.4-183.1z"/>
					<g id="Group-3_2_" transform="translate(23.234280, 27.443651)">
						<g id="Group-2_2_">
							<path id="Rectangle-2-Copy-9" class="st39" d="M4.9-200c2.7,0,5,2.2,5,5v1.7c0,2.7-2.2,5-5,5s-5-2.2-5-5v-1.7
								C-0.1-197.8,2.1-200,4.9-200z"/>
							<path id="Combined-Shape-Copy-61" class="st40" d="M-2-194.5c0.6-3.2,3.5-5.5,7.1-5.5c3.2,0,6.1,2.3,6.7,5.5l0,0v0.3
								c0,0.2-0.1,0.3-0.3,0.3l-6.4,1.1c-0.2,0-0.2,0-0.4,0l-6.4-1.1c-0.2,0-0.3-0.1-0.3-0.3V-194.5L-2-194.5z"/>
							<path id="Rectangle_8_" class="st41" d="M3.8-198.9c0.3-0.1,0.7-0.1,1-0.1c0.4,0,0.7,0,1.1,0.1c0.7,0.2,1.3,0.9,1.3,1.6
								c0,0.6-0.5,1.1-1.1,1.1H3.6c-0.6,0-1.1-0.5-1.1-1.1C2.5-198,3-198.7,3.8-198.9z"/>
						</g>
					</g>
					<path id="Rectangle-130-Copy-41" class="st38" d="M42.7-183.1c2.4,0,4.3,1.9,4.3,4.3v4.6c0,2.4-1.9,4.3-4.3,4.3
						c-2.4,0-4.3-1.9-4.3-4.3v-4.6C38.4-181.1,40.3-183.1,42.7-183.1z"/>
					<ellipse id="Oval-10-Copy-4" class="st6" cx="9.7" cy="-180.6" rx="2.8" ry="2.8"/>
					<ellipse id="Oval-10-Copy-5" class="st6" cx="38.6" cy="-180.6" rx="2.8" ry="2.8"/>
				</g>
			</g>
		</g>
	</g>
</g>
<g id="troubleshooting">
	<g id="Group-5-Copy-3" transform="translate(6.000000, 6.000000)">
		<path id="Rectangle-3_40_" class="st15" d="M55.4-136H10.6c-4.9,0-6.7,0.6-8.5,1.5c-2,1-3.5,2.6-4.5,4.5c-1,1.8-1.5,3.6-1.5,8.5
			v28.9c0,4.9,0.6,6.7,1.5,8.5c1,2,2.6,3.5,4.5,4.5c1.8,1,3.6,1.5,8.5,1.5h44.9c4.9,0,6.7-0.6,8.5-1.5c2-1,3.5-2.6,4.5-4.5
			c1-1.8,1.5-3.6,1.5-8.5v-28.9c0-4.9-0.6-6.7-1.5-8.5c-1-2-2.6-3.5-4.5-4.5C62.1-135.4,60.4-136,55.4-136z"/>
		
			<g id="Group_38_" transform="translate(33.627417, 26.627417) scale(-1, 1) rotate(45.000000) translate(-33.627417, -26.627417) translate(26.627417, 1.627417)">
			<path id="Rectangle_9_" class="st42" d="M-86.6-88.4L-86.6-88.4c1.2,0,2.2,1,2.2,2.2v31.1c0,1.2-1,2.2-2.2,2.2l0,0
				c-1.2,0-2.2-1-2.2-2.2v-31.1C-88.9-87.4-87.9-88.4-86.6-88.4z"/>
			<path id="Combined-Shape_4_" class="st43" d="M-81-73.7c0.9,0,1.7,0.7,1.7,1.7v0.8c0,1.3-1.1,2.4-2.4,2.4l-0.3,0
				c1.7,1.2,2.7,3.2,2.7,5.4v10.6c0,3.7-3,6.7-6.7,6.7h-0.6c-3.7,0-6.7-3-6.7-6.7v-10.6c0-2.2,1.1-4.2,2.7-5.4l-0.3,0
				c-1.3,0-2.4-1.1-2.4-2.4v-0.8c0-0.9,0.7-1.7,1.7-1.7H-81z"/>
			<path id="Rectangle_10_" class="st42" d="M-87.9-95.8h2.7c0.4,0,0.7,0.3,0.8,0.6l1.8,6.5c0.1,0.2,0,0.4-0.1,0.6l-1.6,3.3
				c-0.1,0.3-0.4,0.5-0.7,0.5H-88c-0.3,0-0.6-0.2-0.7-0.5l-1.6-3.3c-0.1-0.2-0.1-0.4-0.1-0.6l1.8-6.5
				C-88.6-95.5-88.3-95.8-87.9-95.8z"/>
			<path id="Rectangle_11_" class="st44" d="M-86.2-66.4L-86.2-66.4c0.6,0,1.2,0.5,1.2,1.2v14.6c0,0.6-0.5,1.2-1.2,1.2l0,0
				c-0.6,0-1.2-0.5-1.2-1.2v-14.6C-87.4-65.9-86.9-66.4-86.2-66.4z"/>
			<path id="Rectangle-Copy-2_1_" class="st44" d="M-82.4-64.7L-82.4-64.7c0.6,0,1.2,0.5,1.2,1.2v10.9c0,0.6-0.5,1.2-1.2,1.2h0
				c-0.6,0-1.2-0.5-1.2-1.2v-10.9C-83.6-64.2-83.1-64.7-82.4-64.7z"/>
			<path id="Rectangle-Copy-3_1_" class="st44" d="M-90.5-64.7L-90.5-64.7c0.6,0,1.2,0.5,1.2,1.2v10.9c0,0.6-0.5,1.2-1.2,1.2l0,0
				c-0.6,0-1.2-0.5-1.2-1.2v-10.9C-91.6-64.2-91.1-64.7-90.5-64.7z"/>
		</g>
		
			<g id="Group_39_" transform="translate(34.000000, 28.000000) rotate(45.000000) translate(-34.000000, -28.000000) translate(24.000000, 6.000000)">
			<path id="Combined-Shape_5_" class="st45" d="M-83.1-81.1c1.7,0,3.2,1.4,3.2,3.2v22c0,3.3-2.7,5.9-5.9,5.9s-5.9-2.7-5.9-5.9v-22
				c0-1.7,1.4-3.2,3.2-3.2H-83.1z M-85.5-58.6h-0.3c-0.1,0-0.2,0-0.3,0c-1.4,0.2-2.4,1.4-2.2,2.8l0,0l0.1,0.4c0,0,0,0,0,0
				c0.2,1.4,1.5,2.3,2.8,2.1C-84-53.4-83-54.6-83-56l0,0v0C-83-57.5-84.1-58.6-85.5-58.6L-85.5-58.6z"/>
			<path id="Rectangle_12_" class="st42" d="M-86.2-78.7L-86.2-78.7c0.9,0,1.6,0.7,1.6,1.6V-64c0,0.9-0.7,1.6-1.6,1.6l0,0
				c-0.9,0-1.6-0.7-1.6-1.6v-13.2C-87.8-78-87-78.7-86.2-78.7z"/>
			<path id="Combined-Shape_6_" class="st45" d="M-91.2-93.1c0.5,0,0.9,0.4,0.9,0.9l0,0v8.3c0,0.8,0.6,1.4,1.4,1.4l0,0h5.5
				c0.8,0,1.4-0.6,1.4-1.4l0,0v-8.3c0-0.2,0-0.3,0.1-0.4c0.2-0.4,0.8-0.6,1.2-0.3l0,0l0.8,0.4c2.3,1.7,3.7,4.4,3.7,7.5
				c0,5.2-4.2,9.4-9.4,9.4h-1.2c-5.2,0-9.4-4.2-9.4-9.4c0-3.1,1.5-5.8,3.7-7.5l0.8-0.4C-91.5-93.1-91.4-93.1-91.2-93.1z"/>
		</g>
	</g>
</g>
<g id="teachers">
	<g id="Group-5-Copy-4" transform="translate(1.000000, 6.000000)">
		<path id="Rectangle-3_41_" class="st17" d="M60.4-70H15.6c-4.9,0-6.7,0.6-8.5,1.5c-2,1-3.5,2.6-4.5,4.5c-1,1.8-1.5,3.6-1.5,8.5
			v28.9c0,4.9,0.6,6.7,1.5,8.5c1,2,2.6,3.5,4.5,4.5c1.8,1,3.6,1.5,8.5,1.5h44.9c4.9,0,6.7-0.6,8.5-1.5c2-1,3.5-2.6,4.5-4.5
			c1-1.8,1.5-3.6,1.5-8.5v-28.9c0-4.9-0.6-6.7-1.5-8.5c-1-2-2.6-3.5-4.5-4.5C67.1-69.4,65.4-70,60.4-70z"/>
		<path id="Rectangle-3-Copy-4" class="st17" d="M60.4-70H15.6c-4.9,0-6.7,0.6-8.5,1.5c-2,1-3.5,2.6-4.5,4.5c-1,1.8-1.5,3.6-1.5,8.5
			v28.9c0,4.9,0.6,6.7,1.5,8.5c1,2,2.6,3.5,4.5,4.5c1.8,1,3.6,1.5,8.5,1.5h44.9c4.9,0,6.7-0.6,8.5-1.5c2-1,3.5-2.6,4.5-4.5
			c1-1.8,1.5-3.6,1.5-8.5v-28.9c0-4.9-0.6-6.7-1.5-8.5c-1-2-2.6-3.5-4.5-4.5C67.1-69.4,65.4-70,60.4-70z"/>
		<g id="Page-1" transform="translate(0.000000, 2.000000)">
			<g id="Group-112" transform="translate(0.000000, 1.148238)">
				<path id="Fill-82" class="st46" d="M50.3-61.2h-2.2c-0.8,0-1.5,0.7-1.5,1.5c0,0.8,0.7,1.5,1.5,1.5h2.2c0.8,0,1.5-0.7,1.5-1.5
					C51.8-60.5,51.2-61.2,50.3-61.2"/>
				<path id="Fill-83" class="st46" d="M50.3-56.9h-2.2c-0.5,0-0.9,0.4-0.9,0.9c0,0.5,0.4,0.9,0.9,0.9h2.2c0.5,0,0.9-0.4,0.9-0.9
					C51.2-56.5,50.8-56.9,50.3-56.9"/>
				<path id="Fill-84" class="st47" d="M50.3-41.8h-2.2c-0.5,0-0.9,0.4-0.9,0.9c0,0.5,0.4,0.9,0.9,0.9h2.2c0.5,0,0.9-0.4,0.9-0.9
					C51.2-41.4,50.8-41.8,50.3-41.8"/>
				<path id="Fill-87" class="st48" d="M32.1-61.2h-2.2c-0.8,0-1.5,0.7-1.5,1.5c0,0.8,0.7,1.5,1.5,1.5h2.2c0.8,0,1.5-0.7,1.5-1.5
					C33.7-60.5,33-61.2,32.1-61.2"/>
				<path id="Fill-88" class="st48" d="M32.1-56.9h-2.2c-0.5,0-0.9,0.4-0.9,0.9c0,0.5,0.4,0.9,0.9,0.9h2.2c0.5,0,0.9-0.4,0.9-0.9
					C33-56.5,32.6-56.9,32.1-56.9"/>
				<path id="Fill-89" class="st49" d="M31.5-45.1h-0.9c-0.8,0-1.5,0.7-1.5,1.5v2.1c0,0.8,0.7,1.5,1.5,1.5h0.9
					c0.8,0,1.5-0.7,1.5-1.5v-2.1C33-44.5,32.3-45.1,31.5-45.1"/>
				<path id="Fill-94" class="st50" d="M23.5-45.1h-0.9c-0.8,0-1.5,0.7-1.5,1.5v2.1c0,0.8,0.7,1.5,1.5,1.5h0.9
					c0.8,0,1.5-0.7,1.5-1.5v-2.1C24.9-44.5,24.3-45.1,23.5-45.1"/>
				<path id="Fill-105" class="st51" d="M43-67.4h-5.7c-1.2,0-2.1,1-2.1,2.1v26.2c0,1.2,0.9,2.1,2.1,2.1H43c1.2,0,2.1-1,2.1-2.1
					v-26.2C45.1-66.4,44.2-67.4,43-67.4"/>
				<path id="Fill-106" class="st50" d="M40.3-60.9H40c-0.8,0-1.5,0.7-1.5,1.5v8.3c0,0.8,0.7,1.5,1.5,1.5h0.3c0.8,0,1.5-0.7,1.5-1.5
					v-8.3C41.8-60.2,41.1-60.9,40.3-60.9"/>
				<polygon id="Fill-107" class="st50" points="35.5,-62.8 45.1,-62.8 45.1,-64.1 35.5,-64.1 				"/>
				<path id="Fill-108" class="st50" d="M41.6-41.8h-2.9c-0.5,0-0.9,0.4-0.9,0.9c0,0.5,0.4,0.9,0.9,0.9h2.9c0.5,0,0.9-0.4,0.9-0.9
					C42.5-41.4,42.1-41.8,41.6-41.8"/>
			</g>
			<g id="Group-145" transform="translate(11.459259, 0.342475)">
				<path id="Fill-113" class="st52" d="M43-55.8c0,6.7-5.4,12.2-12,12.2c-6.7,0-12-5.4-12-12.2S24.3-68,30.9-68
					C37.6-68,43-62.5,43-55.8"/>
				<path id="Fill-115" class="st53" d="M39.9-46.2c0,8.9-7.2,16.1-16,16.1S8-37.3,8-46.2s7.2-16.1,16-16.1S39.9-55.2,39.9-46.2"/>
				<path id="Fill-117" class="st53" d="M44.7-43.2c0,9.2-7.4,16.7-16.5,16.7c-9.1,0-16.5-7.5-16.5-16.7s7.4-16.7,16.5-16.7
					C37.4-59.8,44.7-52.4,44.7-43.2"/>
				<path id="Fill-125" class="st54" d="M4.5-37.1c0,3.4,2.8,6.2,6.2,6.2s6.2-2.8,6.2-6.2s-2.8-6.2-6.2-6.2S4.5-40.5,4.5-37.1"/>
				<path id="Fill-127" class="st53" d="M31.7-61.4c2.1,2.2,1.9,5.9-0.6,8.4c-2.5,2.4-6.2,2.7-8.3,0.5L31.7-61.4z"/>
				<path id="Stroke-129" class="st55" d="M31.7-61.4c2.1,2.2,1.9,5.9-0.6,8.4c-2.5,2.4-6.2,2.7-8.3,0.5L31.7-61.4z"/>
				<path id="Fill-135" class="st53" d="M31.4-47.5c-2.9-0.8-4.6-4.1-3.8-7.5c0.9-3.4,3.9-5.5,6.9-4.7L31.4-47.5z"/>
				<path id="Stroke-137" class="st56" d="M31.4-47.5c-2.9-0.8-4.6-4.1-3.8-7.5c0.9-3.4,3.9-5.5,6.9-4.7L31.4-47.5z"/>
				<path id="Fill-141" class="st54" d="M36.2-37.1c0,3.4,2.8,6.2,6.2,6.2s6.2-2.8,6.2-6.2s-2.8-6.2-6.2-6.2S36.2-40.5,36.2-37.1"/>
			</g>
			<g id="Group-213" transform="translate(14.437037, 6.589681)">
				<path id="Fill-157" class="st57" d="M23.5-26.4H23c-8.7,0-15.9-7.2-15.9-16v-5.8c0-8.8,7.1-16,15.9-16h0.6
					c8.7,0,15.9,7.2,15.9,16v5.8C39.4-33.6,32.3-26.4,23.5-26.4"/>
				<path id="Fill-159" class="st58" d="M30-44.5L30-44.5c-1.2,0-2.1-1-2.1-2.1v-4c0-1.2,1-2.1,2.1-2.1c1.2,0,2.1,1,2.1,2.1v4
					C32.1-45.4,31.2-44.5,30-44.5"/>
				<path id="Fill-161" class="st57" d="M31.3-44.2h-2.6c-0.9,0-1.7-0.8-1.7-1.7s0.7-1.7,1.7-1.7h2.6c0.9,0,1.7,0.8,1.7,1.7
					S32.2-44.2,31.3-44.2"/>
				<path id="Fill-163" class="st58" d="M16.7-44.5L16.7-44.5c-1.2,0-2.1-1-2.1-2.1v-4c0-1.2,1-2.1,2.1-2.1c1.2,0,2.1,1,2.1,2.1v4
					C18.8-45.4,17.9-44.5,16.7-44.5"/>
				<path id="Fill-165" class="st57" d="M18-44.2h-2.6c-0.9,0-1.7-0.8-1.7-1.7s0.7-1.7,1.7-1.7H18c0.9,0,1.7,0.8,1.7,1.7
					S18.9-44.2,18-44.2"/>
				<path id="Fill-167" class="st59" d="M10.6-41.1c0,0.3,0.2,0.5,0.4,0.5c0.2,0,0.4-0.2,0.4-0.5c0-0.3-0.2-0.5-0.4-0.5
					C10.8-41.5,10.6-41.3,10.6-41.1"/>
				<path id="Fill-169" class="st59" d="M36.1-40.8c0.2,0.1,0.5,0.1,0.6-0.1c0.1-0.2,0.1-0.5-0.1-0.6c-0.2-0.1-0.5-0.1-0.6,0.1
					C35.8-41.3,35.9-41,36.1-40.8"/>
				<path id="Fill-171" class="st54" d="M24.8-37.6h-2.9c-1,0-1.8-0.6-1.8-1.3v-7.3c0-0.7,0.8-1.3,1.8-1.3h2.9c1,0,1.8,0.6,1.8,1.3
					v7.3C26.6-38.1,25.8-37.6,24.8-37.6"/>
				<path id="Fill-173" class="st59" d="M12.3-42.7c0,0.4,0.3,0.7,0.6,0.7c0.4,0,0.6-0.3,0.6-0.7c0-0.4-0.3-0.7-0.6-0.7
					C12.5-43.4,12.3-43.1,12.3-42.7"/>
				<path id="Fill-175" class="st59" d="M9.8-44.6c0,0.4,0.3,0.7,0.6,0.7c0.4,0,0.6-0.3,0.6-0.7s-0.3-0.7-0.6-0.7
					C10.1-45.3,9.8-45,9.8-44.6"/>
				<path id="Fill-177" class="st59" d="M33.1-42.7c0,0.4,0.3,0.7,0.6,0.7c0.4,0,0.6-0.3,0.6-0.7c0-0.4-0.3-0.7-0.6-0.7
					C33.4-43.4,33.1-43.1,33.1-42.7"/>
				<path id="Fill-179" class="st59" d="M35.3-44c0,0.4,0.3,0.7,0.6,0.7c0.4,0,0.6-0.3,0.6-0.7c0-0.4-0.3-0.7-0.6-0.7
					C35.6-44.7,35.3-44.4,35.3-44"/>
				<line id="Stroke-197" class="st60" x1="20.5" y1="-46.9" x2="26.2" y2="-46.9"/>
				<path id="Fill-199" class="st53" d="M38.1-49.8c1.1,0.6,2.2,0.2,2.9-0.7c-0.5-8-6.4-14.6-14-16.1C27.6-59.3,31.9-53,38.1-49.8"
					/>
				<path id="Fill-201" class="st53" d="M30.2-64.3c-2.5-2-5.7-3.2-9.2-3.2c-8.2,0-14.9,6.7-14.9,15c0,0.7,0.1,1.5,0.2,2.2
					C15.9-51.9,24.3-57,30.2-64.3"/>
				<g id="Group-9" transform="translate(11.853553, 15.557367)">
					<path id="Stroke-207" class="st61" d="M3.6-69.5c-1.9,0-3.7,0.8-4.9,2.1c-1.3,1.3-2,3-2,5s0.8,3.7,2,5c1.3,1.3,3,2.1,4.9,2.1
						s3.7-0.8,4.9-2.1c1.3-1.3,2-3,2-5s-0.8-3.7-2-5C7.3-68.7,5.6-69.5,3.6-69.5z"/>
					<path id="Combined-Shape_7_" class="st62" d="M3.6-68c1.3,0,2.5,0.5,3.4,1.2L-0.6-59c-0.7-0.9-1.2-2.1-1.2-3.4
						C-1.8-65.5,0.6-68,3.6-68z"/>
				</g>
				<g id="Group-9-Copy" transform="translate(27.853553, 15.557367)">
					<path id="Stroke-207_1_" class="st61" d="M3.6-69.5c-1.9,0-3.7,0.8-4.9,2.1c-1.3,1.3-2,3-2,5s0.8,3.7,2,5
						c1.3,1.3,3,2.1,4.9,2.1s3.7-0.8,4.9-2.1c1.3-1.3,2-3,2-5s-0.8-3.7-2-5C7.3-68.7,5.6-69.5,3.6-69.5z"/>
					<path id="Combined-Shape_8_" class="st62" d="M3.6-68c1.3,0,2.5,0.5,3.4,1.2L-0.6-59c-0.7-0.9-1.2-2.1-1.2-3.4
						C-1.8-65.5,0.6-68,3.6-68z"/>
				</g>
			</g>
		</g>
		<path id="Combined-Shape-Copy_1_" class="st63" d="M59.1-32l0.1,4.3l1.4,12.3c-1,0.3-2.3,0.4-4.3,0.4H19.5c-2.3,0-3.7-0.2-4.7-0.5
			l1.9-11.8L16.6-32l19.6,8c1,0.4,2.1,0.4,3,0L59.1-32z"/>
		<path id="Combined-Shape_9_" class="st3" d="M63.8-31l0.1,4.3l1.8,12.3c-1.2,0.3-2.8,0.4-5.2,0.4H15.6c-2.8,0-4.5-0.2-5.7-0.5
			l2.3-11.8L12-31l24.5,8.2c0.8,0.3,1.7,0.3,2.5,0L63.8-31z"/>
		<path id="Combined-Shape_10_" class="st8" d="M10-28.6c0.4,0,0.8,0.1,1.2,0.2l25.9,8c0.8,0.2,1.6,0.2,2.4,0l25.3-8
			c2.1-0.7,4.4,0.5,5,2.6c0.1,0.4,0.2,0.8,0.2,1.2l0,7.8c-0.6,0.6-1.3,1.1-2,1.5c-1.6,0.9-3.2,1.3-7.5,1.3H15.6
			c-4.4,0-6-0.5-7.5-1.3c-0.7-0.4-1.4-0.9-2-1.5l0-7.8C6-26.8,7.8-28.6,10-28.6z"/>
		<path id="Combined-Shape_11_" class="st64" d="M69.8-25.7c0.1,0.4,0.2,0.8,0.2,1.2v7.8c-0.6,0.6-1.3,1.1-2,1.5
			c-1.6,0.9-3.2,1.3-7.5,1.3L38-14l0-6.2c0.5,0,1,0,1.5-0.2l25.3-8C66.9-29,69.1-27.8,69.8-25.7z"/>
	</g>
</g>
<g id="la">
	<g id="Group_40_" transform="translate(6.000000, 6.000000)">
		<path id="Rectangle-3_42_" class="st10" d="M55.4-4H10.6C5.6-4,3.9-3.4,2.1-2.4c-2,1-3.5,2.6-4.5,4.5C-3.4,3.9-4,5.6-4,10.6v28.9
			c0,4.9,0.6,6.7,1.5,8.5c1,2,2.6,3.5,4.5,4.5c1.8,1,3.6,1.5,8.5,1.5h44.9c4.9,0,6.7-0.6,8.5-1.5c2-1,3.5-2.6,4.5-4.5
			c1-1.8,1.5-3.6,1.5-8.5V10.6c0-4.9-0.6-6.7-1.5-8.5c-1-2-2.6-3.5-4.5-4.5C62.1-3.4,60.4-4,55.4-4z"/>
	</g>
	<g id="Group-7_1_" transform="translate(19.000000, 15.000000)">
		<g id="Group_42_" transform="translate(0.806452, 0.096774)">
			<g id="Group-5">
				<g id="Group-4_1_">
					<g id="Group-3_3_">
						<g id="Group-2_3_">
							<path id="Shape_2_" class="st65" d="M4.7,10.1c-0.2,1-0.3,2.1-0.3,3.2c0,1.3,0.2,2.6,0.5,3.9 M10,24.9c2.5,1.9,5.6,3.1,9,3.1
								c3.9,0.5,7.1,2.5,9.8,5.9"/>
							<path id="Rectangle_13_" class="st33" d="M7,5l0.1-0.6c0.3-3.5,3.4-6.2,7-5.9l0.6,0.1l0,0l-0.1,0.6c-0.3,3.5-3.4,6.2-7,5.9
								L7,5L7,5z"/>
							<path id="Rectangle-Copy_1_" class="st33" d="M3.7,12.2l-0.6-0.5c-2.8-2.2-3.2-6.3-1-9.1L2.6,2l0,0l0.6,0.5
								c2.8,2.2,3.2,6.3,1,9.1L3.7,12.2L3.7,12.2z"/>
							<path id="Rectangle-Copy_2_" class="st33" d="M10.1,25.9l-0.7,0.2c-3.4,1.1-7-0.8-8.1-4.1L1,21.2l0,0L1.7,21
								c3.4-1.1,7,0.8,8.1,4.1L10.1,25.9L10.1,25.9z"/>
							<path id="Rectangle-Copy_3_" class="st33" d="M11.2,25.8l0.4-0.7c1.7-3.1,0.5-7.1-2.7-8.7L8.2,16l0,0l-0.4,0.7
								c-1.7,3.1-0.5,7.1,2.7,8.7L11.2,25.8L11.2,25.8z"/>
							<path id="Rectangle-Copy_4_" class="st33" d="M3.2,13.5l0.1-0.8c0.5-3.5,3.8-6,7.3-5.5l0.8,0.1l0,0l-0.1,0.8
								c-0.5,3.5-3.8,6-7.3,5.5L3.2,13.5L3.2,13.5z"/>
						</g>
					</g>
				</g>
				
					<g id="Group_41_" transform="translate(27.000000, 17.935484) scale(-1, 1) translate(-27.000000, -17.935484) translate(11.612903, 0.000000)">
					<g id="Group-4_2_">
						<g id="Group-3_4_">
							<g id="Group-2_4_">
								<path id="Shape_3_" class="st65" d="M8.7,10.1c-0.2,1-0.3,2.1-0.3,3.2c0,1.3,0.2,2.6,0.5,3.9 M14,24.9
									c2.5,1.9,5.6,3.1,9,3.1c3.9,0.5,7.1,2.5,9.8,5.9"/>
								<path id="Rectangle_14_" class="st33" d="M11,5l0.1-0.6c0.3-3.5,3.4-6.2,7-5.9l0.6,0.1l0,0l-0.1,0.6c-0.3,3.5-3.4,6.2-7,5.9
									L11,5L11,5z"/>
								<path id="Rectangle-Copy_5_" class="st33" d="M7.7,12.2l-0.6-0.5c-2.8-2.2-3.2-6.3-1-9.1L6.6,2l0,0l0.6,0.5
									c2.8,2.2,3.2,6.3,1,9.1L7.7,12.2L7.7,12.2z"/>
								<path id="Rectangle-Copy_6_" class="st33" d="M14.1,25.9l-0.7,0.2c-3.4,1.1-7-0.8-8.1-4.1L5,21.2l0,0L5.7,21
									c3.4-1.1,7,0.8,8.1,4.1L14.1,25.9L14.1,25.9z"/>
								<path id="Rectangle-Copy_7_" class="st33" d="M15.2,25.8l0.4-0.7c1.7-3.1,0.5-7.1-2.7-8.7L12.2,16l0,0l-0.4,0.7
									c-1.7,3.1-0.5,7.1,2.7,8.7L15.2,25.8L15.2,25.8z"/>
								<path id="Rectangle-Copy_8_" class="st33" d="M7.2,13.5l0.1-0.8c0.5-3.5,3.8-6,7.3-5.5l0.8,0.1l0,0l-0.1,0.8
									c-0.5,3.5-3.8,6-7.3,5.5L7.2,13.5L7.2,13.5z"/>
							</g>
						</g>
					</g>
				</g>
			</g>
		</g>
	</g>
</g>
<g id="gd">
	<g id="Group_43_" transform="translate(6.000000, 6.000000)">
		<path id="Rectangle-3_43_" class="st15" d="M55.4,62H10.6c-4.9,0-6.7,0.6-8.5,1.5c-2,1-3.5,2.6-4.5,4.5c-1,1.8-1.5,3.6-1.5,8.5
			v28.9c0,4.9,0.6,6.7,1.5,8.5c1,2,2.6,3.5,4.5,4.5c1.8,1,3.6,1.5,8.5,1.5h44.9c4.9,0,6.7-0.6,8.5-1.5c2-1,3.5-2.6,4.5-4.5
			c1-1.8,1.5-3.6,1.5-8.5V76.6c0-4.9-0.6-6.7-1.5-8.5c-1-2-2.6-3.5-4.5-4.5C62.1,62.6,60.4,62,55.4,62z"/>
	</g>
	<g id="Group-10_1_" transform="translate(6.000000, 6.000000)">
		<g id="Group-6">
			<path class="st66" d="M55.4,62H10.6c-4.9,0-6.7,0.6-8.5,1.5c-2,1-3.5,2.6-4.5,4.5c-1,1.8-1.5,3.6-1.5,8.5v28.9
				c0,4.9,0.6,6.7,1.5,8.5c1,2,2.6,3.5,4.5,4.5c1.8,1,3.6,1.5,8.5,1.5h44.9c4.9,0,6.7-0.6,8.5-1.5c2-1,3.5-2.6,4.5-4.5
				c1-1.8,1.5-3.6,1.5-8.5V76.6c0-4.9-0.6-6.7-1.5-8.5c-1-2-2.6-3.5-4.5-4.5C62.1,62.6,60.4,62,55.4,62z"/>
			<defs>
				<filter id="Adobe_OpacityMaskFilter" filterUnits="userSpaceOnUse" x="-1.8" y="64.5" width="69.7" height="53.1">
					<feColorMatrix  type="matrix" values="1 0 0 0 0  0 1 0 0 0  0 0 1 0 0  0 0 0 1 0"/>
				</filter>
			</defs>
			<mask maskUnits="userSpaceOnUse" x="-1.8" y="64.5" width="69.7" height="53.1" id="mask-2_1_">
				<g class="st67">
					<path id="path-1_1_" class="st6" d="M10.6,64h44.9c4.4,0,6,0.5,7.5,1.3c1.6,0.9,2.9,2.1,3.7,3.7s1.3,3.2,1.3,7.5v28.9
						c0,4.4-0.5,6-1.3,7.5c-0.9,1.6-2.1,2.9-3.7,3.7c-1.6,0.9-3.2,1.3-7.5,1.3H10.6c-4.4,0-6-0.5-7.5-1.3c-1.6-0.9-2.9-2.1-3.7-3.7
						c-0.9-1.6-1.3-3.2-1.3-7.5V76.6c0-4.4,0.5-6,1.3-7.5s2.1-2.9,3.7-3.7S6.2,64,10.6,64z"/>
				</g>
			</mask>
			<path id="Path_78_" class="st68" d="M61.5,64.7c0.5,0.2,1,0.4,1.5,0.6c1.6,0.9,2.9,2.1,3.7,3.7c0.6,1.2,1,2.3,1.2,4.6L43.1,91
				l24.8,17.4c-0.2,2.3-0.6,3.4-1.2,4.6c-0.9,1.6-2.1,2.9-3.7,3.7c-0.5,0.2-0.9,0.5-1.5,0.6l-28-19.6L5.2,117.6
				c-0.9-0.2-1.5-0.5-2.2-0.9c-1.6-0.9-2.9-2.1-3.7-3.7c-0.6-1.1-1-2.1-1.2-4l25.8-18L-1.8,73c0.2-1.8,0.6-2.9,1.2-4
				c0.9-1.6,2.1-2.9,3.7-3.7c0.7-0.4,1.3-0.6,2.2-0.9l28.3,19.8L61.5,64.7z"/>
		</g>
	</g>
</g>
<g id="fi">
	<g id="Group_44_" transform="translate(6.000000, 6.000000)">
		<path id="Rectangle-3_44_" class="st7" d="M55.4,128H10.6c-4.9,0-6.7,0.6-8.5,1.5c-2,1-3.5,2.6-4.5,4.5c-1,1.8-1.5,3.6-1.5,8.5
			v28.9c0,4.9,0.6,6.7,1.5,8.5c1,2,2.6,3.5,4.5,4.5c1.8,1,3.6,1.5,8.5,1.5h44.9c4.9,0,6.7-0.6,8.5-1.5c2-1,3.5-2.6,4.5-4.5
			c1-1.8,1.5-3.6,1.5-8.5v-28.9c0-4.9-0.6-6.7-1.5-8.5c-1-2-2.6-3.5-4.5-4.5C62.1,128.6,60.4,128,55.4,128z"/>
		<polygon id="Path_79_" class="st25" points="29,151 68,151 68,163 29,163 29,184 17,184 17,163 -2,163 -2,151 17,151 17,130 
			29,130 		"/>
	</g>
</g>
<g id="Yiddish">
	<path id="Rectangle-3_45_" class="st69" d="M63.1,200c0.3,0,0.5,0,0.8,0l0,0l0.7,0l1,0c0.2,0,0.4,0,0.6,0l0,0l0.6,0.1
		c1.3,0.1,2.3,0.4,3.1,0.7c3.7,1.8,5.1,3.4,6.1,5.2c0.8,1.8,1,2.5,1.2,3.4c0.2,1.3,0.2,1.4,0.2,1.6l0,0l0,0.6l0,0.6l0,1l0,1.2v28.7
		l0,0.8l0,1.1l0,0.7c0,0.5-0.1,1-0.1,1.5c-0.3,2-0.6,2.7-0.8,3.4c-1.6,3.1-3.1,4.5-5,5.6c-2.7,1-3.6,1.2-4.4,1.3l-0.2,0l0,0l-0.1,0
		l-0.6,0.1l-0.6,0l-1,0l-0.7,0l-45.8,0l-0.8,0l-1,0l-0.9-0.1l-0.6-0.1c-1-0.1-1.8-0.3-2.5-0.5c-4.4-2-5.8-3.6-6.8-5.4
		c-1.1-2.5-1.2-3.5-1.4-4.7l0,0l-0.1-0.6L4,245.5c0-0.2,0-0.5,0-0.7l0,0l0-0.7l0-0.8v-28.7c0-0.3,0-0.5,0-0.8l0,0l0-0.7l0-1
		c0-0.2,0-0.4,0-0.6l0,0l0.1-0.6c0.1-1.3,0.4-2.3,0.7-3.1c1.8-3.7,3.4-5.1,5.2-6.1c2.5-1.1,3.5-1.2,4.7-1.4l0,0l0.6-0.1l0.9-0.1
		c0.2,0,0.5,0,0.7,0l0,0l0.7,0L63.1,200z"/>
	<path id="Path_80_" class="st19" d="M28.3,209c0.2,0,0.3,0.1,0.5,0.2l23.7,17.1c1.2,0.9,2,2.3,2,3.9v6.3c0,0.4-0.4,0.8-0.8,0.8
		c-0.2,0-0.3-0.1-0.5-0.2l-16.9-12.2c0.1,0.3,0.2,0.7,0.2,1.1v11.2c0,0.4-0.4,0.8-0.8,0.8H32c-2.5,0-4.5-2-4.5-4.5v-5.8
		c0-2.5,2-4.5,4.5-4.5h1.7c0.1,0,0.1,0,0.2,0l-4.4-3.1c-1.2-0.9-2-2.3-2-3.9v-6.3C27.5,209.4,27.9,209,28.3,209z"/>
	<path id="Path_81_" class="st16" d="M47.1,207.2l-2.7,3.8c-1.6,2.3-1.1,5.5,1.2,7.1l5.4,3.8c0.3,0.2,0.6,0.1,0.8-0.1l2.7-3.8
		c1.6-2.3,1.1-5.5-1.2-7.1l-5.4-3.8C47.6,206.9,47.3,207,47.1,207.2z"/>
	<path id="Path_82_" class="st19" d="M46.6,243c1.1,0,1.9,0.9,1.9,2s-0.9,2-1.9,2l-3,0l0.4,2.5c0.2,1.2-0.6,2.2-1.7,2.4
		c-0.1,0-0.2,0-0.3,0c-1.1,0-2-0.9-2-2.1c0-0.1,0-0.2,0-0.3l0.4-2.5l-2.9,0c-1.1,0-1.9-0.9-1.9-2s0.9-2,1.9-2H46.6z"/>
</g>
</svg>
