<?xml version="1.0" encoding="utf-8"?>
<!-- Generator: Adobe Illustrator 25.0.1, SVG Export Plug-In . SVG Version: 6.00 Build 0)  -->
<svg version="1.1" id="katman_1" xmlns="http://www.w3.org/2000/svg" xmlns:xlink="http://www.w3.org/1999/xlink" x="0px" y="0px"
	 viewBox="0 0 78 62" style="enable-background:new 0 0 78 62;" xml:space="preserve">
<style type="text/css">
	.st0{fill-rule:evenodd;clip-rule:evenodd;fill:#EEEEEE;stroke:#FFFFFF;stroke-width:4;}
	.st1{fill-rule:evenodd;clip-rule:evenodd;fill:#FF4B4B;}
	.st2{fill-rule:evenodd;clip-rule:evenodd;fill:#1CB0F6;}
	.st3{fill:#FFFFFF;}
	.st4{fill-rule:evenodd;clip-rule:evenodd;fill:#FF4B4B;stroke:#FFFFFF;stroke-width:4;}
	.st5{fill-rule:evenodd;clip-rule:evenodd;fill:#FFC800;}
	.st6{fill-rule:evenodd;clip-rule:evenodd;fill:#FFFFFF;}
	.st7{fill:#EEEEEE;stroke:#FFFFFF;stroke-width:4;}
	.st8{fill:#1CB0F6;}
	.st9{fill:#FF4B4B;}
	.st10{fill:#FF4B4B;stroke:#FFFFFF;stroke-width:4;}
	.st11{fill:#FFC800;}
	.st12{fill:#4C4C4C;}
	.st13{fill:#78C800;}
	.st14{fill:#FFC300;}
	.st15{fill:#1CB0F6;stroke:#FFFFFF;stroke-width:4;}
	.st16{fill:#EEEEEE;}
	.st17{fill:#78C800;stroke:#FFFFFF;stroke-width:4;}
	.st18{fill:#FF9600;}
	.st19{fill-rule:evenodd;clip-rule:evenodd;fill:#EEEEEE;}
	.st20{fill:#4B4B4B;stroke:#FFFFFF;stroke-width:4;}
	.st21{fill:#FFC300;stroke:#FFFFFF;stroke-width:4;}
	.st22{fill:#7AC70C;}
	.st23{fill:#4B4B4B;}
	.st24{fill:#7AC70C;stroke:#FFFFFF;stroke-width:4;}
	.st25{fill-rule:evenodd;clip-rule:evenodd;fill:#1899D6;}
	.st26{fill:#1899D6;}
	.st27{fill:#FFCE8E;stroke:#FFFFFF;stroke-width:4;}
	.st28{fill:none;stroke:#FFFFFF;stroke-width:3.2;}
	.st29{fill:none;stroke:#7AC70C;stroke-width:6.4;stroke-linecap:round;stroke-linejoin:round;}
	.st30{fill:none;stroke:#FFFFFF;}
	.st31{fill-rule:evenodd;clip-rule:evenodd;fill:#7AC70C;}
	
		.st32{fill-rule:evenodd;clip-rule:evenodd;fill:#FFFFFF;stroke:#FFFFFF;stroke-width:0.7587;stroke-linecap:round;stroke-linejoin:round;}
	.st33{fill-rule:evenodd;clip-rule:evenodd;fill:#FFD300;}
	.st34{fill:#FFC800;stroke:#FFFFFF;stroke-width:4;}
	.st35{fill-rule:evenodd;clip-rule:evenodd;fill:#FF9600;}
	.st36{fill:#8EE000;}
	.st37{fill-rule:evenodd;clip-rule:evenodd;fill:#8EE000;}
	.st38{fill-rule:evenodd;clip-rule:evenodd;fill:#4B4B4B;}
	.st39{fill-rule:evenodd;clip-rule:evenodd;fill:#F48000;}
	.st40{fill:#FFC200;}
	.st41{fill-rule:evenodd;clip-rule:evenodd;fill:#FFE747;}
	.st42{fill:#C7C7C7;}
	.st43{fill:#F34848;}
	.st44{fill:#D73A3A;}
	.st45{fill:#D8D8D8;}
	.st46{fill-rule:evenodd;clip-rule:evenodd;fill:#A560E8;}
	.st47{fill-rule:evenodd;clip-rule:evenodd;fill:#8F50D8;}
	.st48{fill-rule:evenodd;clip-rule:evenodd;fill:#FFD836;}
	.st49{fill-rule:evenodd;clip-rule:evenodd;fill:#FFC715;}
	.st50{fill-rule:evenodd;clip-rule:evenodd;fill:#2788E0;}
	.st51{fill-rule:evenodd;clip-rule:evenodd;fill:#4495FF;}
	.st52{fill-rule:evenodd;clip-rule:evenodd;fill:#723A0F;}
	.st53{fill-rule:evenodd;clip-rule:evenodd;fill:#97501A;}
	.st54{fill-rule:evenodd;clip-rule:evenodd;fill:#FD937E;}
	.st55{fill:none;stroke:#97501A;stroke-width:2.3306;stroke-linecap:round;stroke-linejoin:round;}
	.st56{fill:none;stroke:#97501A;stroke-width:1.4568;stroke-linecap:round;stroke-linejoin:round;}
	.st57{fill-rule:evenodd;clip-rule:evenodd;fill:#FFB5A1;}
	.st58{fill-rule:evenodd;clip-rule:evenodd;fill:#E58D7F;}
	.st59{fill-rule:evenodd;clip-rule:evenodd;fill:#FF9D8A;}
	.st60{fill:none;stroke:#97501A;stroke-width:2;}
	.st61{fill-rule:evenodd;clip-rule:evenodd;fill:#FFB5A1;stroke:#97501A;stroke-width:3;}
	.st62{fill-rule:evenodd;clip-rule:evenodd;fill:#FFCBBD;}
	.st63{fill:#F9F9F9;}
	.st64{fill:#039CE5;}
	.st65{fill:none;stroke:#FFD300;stroke-width:2.6452;stroke-linecap:round;stroke-linejoin:round;}
	.st66{fill:none;stroke:#FFFFFF;stroke-width:4;}
	.st67{filter:url(#Adobe_OpacityMaskFilter);}
	.st68{mask:url(#mask-2_1_);fill:#EEEEEE;}
	.st69{fill:#1254A9;stroke:#FFFFFF;stroke-width:4;}
</style>
<g id="en">
	<g id="Group" transform="translate(6.000000, 6.000000)">
		<path id="Rectangle-3" class="st0" d="M55.4-1192H10.6c-4.9,0-6.7,0.6-8.5,1.5c-2,1-3.5,2.6-4.5,4.5c-1,1.8-1.5,3.6-1.5,8.5v28.9
			c0,4.9,0.6,6.7,1.5,8.5c1,2,2.6,3.5,4.5,4.5c1.8,1,3.6,1.5,8.5,1.5h44.9c4.9,0,6.7-0.6,8.5-1.5c2-1,3.5-2.6,4.5-4.5
			c1-1.8,1.5-3.6,1.5-8.5v-28.9c0-4.9-0.6-6.7-1.5-8.5c-1-2-2.6-3.5-4.5-4.5C62.1-1191.4,60.4-1192,55.4-1192z"/>
		<path id="Path" class="st1" d="M10.6-1190h44.9c4.4,0,6,0.5,7.5,1.3c1.6,0.9,2.9,2.1,3.7,3.7c0.2,0.3,0.3,0.6,0.5,1H-1.2
			c0.1-0.3,0.3-0.7,0.5-1c0.9-1.6,2.1-2.9,3.7-3.7S6.2-1190,10.6-1190z"/>
		<path id="Path_1_" class="st1" d="M68-1178c0,0.2,0,0.4,0,0.6v5.4H-2v-5.4c0-0.2,0-0.4,0-0.6H68z"/>
		<polygon id="Path_2_" class="st1" points="68,-1166 68,-1160 -2,-1160 -2,-1166 		"/>
		<path id="Path_3_" class="st1" d="M68-1148.6c0,0.2,0,0.4,0,0.6H-2c0-0.2,0-0.4,0-0.6v-5.4h70V-1148.6z"/>
		<path id="Path_4_" class="st1" d="M67.2-1142c-0.1,0.3-0.3,0.7-0.5,1c-0.9,1.6-2.1,2.9-3.7,3.7c-1.6,0.9-3.2,1.3-7.5,1.3H10.6
			c-4.4,0-6-0.5-7.5-1.3s-2.9-2.1-3.7-3.7c-0.2-0.3-0.3-0.6-0.5-1H67.2z"/>
		<path id="Path_5_" class="st2" d="M10.6-1190H33v24H-2v-11.4c0-4.4,0.5-6,1.3-7.5s2.1-2.9,3.7-3.7S6.2-1190,10.6-1190z"/>
		<path id="Star-Copy" class="st3" d="M25.8-1180.4l-1.3,0.7c-0.4,0.2-0.9,0.1-1.1-0.3c-0.1-0.2-0.1-0.3-0.1-0.5l0.2-1.4
			c0-0.1,0-0.3-0.1-0.4l-1-1c-0.3-0.3-0.3-0.8,0-1.2c0.1-0.1,0.3-0.2,0.5-0.2l1.4-0.2c0.1,0,0.3-0.1,0.3-0.2l0.6-1.3
			c0.2-0.4,0.7-0.6,1.1-0.4c0.2,0.1,0.3,0.2,0.4,0.4l0.6,1.3c0.1,0.1,0.2,0.2,0.3,0.2l1.4,0.2c0.4,0.1,0.8,0.5,0.7,0.9
			c0,0.2-0.1,0.3-0.2,0.5l-1,1c-0.1,0.1-0.1,0.2-0.1,0.4l0.2,1.4c0.1,0.4-0.2,0.9-0.7,0.9c-0.2,0-0.4,0-0.5-0.1l-1.3-0.7
			C26.1-1180.5,25.9-1180.5,25.8-1180.4z"/>
		<path id="Star-Copy-4" class="st3" d="M25.8-1170.4l-1.3,0.7c-0.4,0.2-0.9,0.1-1.1-0.3c-0.1-0.2-0.1-0.3-0.1-0.5l0.2-1.4
			c0-0.1,0-0.3-0.1-0.4l-1-1c-0.3-0.3-0.3-0.8,0-1.2c0.1-0.1,0.3-0.2,0.5-0.2l1.4-0.2c0.1,0,0.3-0.1,0.3-0.2l0.6-1.3
			c0.2-0.4,0.7-0.6,1.1-0.4c0.2,0.1,0.3,0.2,0.4,0.4l0.6,1.3c0.1,0.1,0.2,0.2,0.3,0.2l1.4,0.2c0.4,0.1,0.8,0.5,0.7,0.9
			c0,0.2-0.1,0.3-0.2,0.5l-1,1c-0.1,0.1-0.1,0.2-0.1,0.4l0.2,1.4c0.1,0.4-0.2,0.9-0.7,0.9c-0.2,0-0.4,0-0.5-0.1l-1.3-0.7
			C26.1-1170.5,25.9-1170.5,25.8-1170.4z"/>
		<path id="Star-Copy-2" class="st3" d="M15.8-1180.4l-1.3,0.7c-0.4,0.2-0.9,0.1-1.1-0.3c-0.1-0.2-0.1-0.3-0.1-0.5l0.2-1.4
			c0-0.1,0-0.3-0.1-0.4l-1-1c-0.3-0.3-0.3-0.8,0-1.2c0.1-0.1,0.3-0.2,0.5-0.2l1.4-0.2c0.1,0,0.3-0.1,0.3-0.2l0.6-1.3
			c0.2-0.4,0.7-0.6,1.1-0.4c0.2,0.1,0.3,0.2,0.4,0.4l0.6,1.3c0.1,0.1,0.2,0.2,0.3,0.2l1.4,0.2c0.4,0.1,0.8,0.5,0.7,0.9
			c0,0.2-0.1,0.3-0.2,0.5l-1,1c-0.1,0.1-0.1,0.2-0.1,0.4l0.2,1.4c0.1,0.4-0.2,0.9-0.7,0.9c-0.2,0-0.4,0-0.5-0.1l-1.3-0.7
			C16.1-1180.5,15.9-1180.5,15.8-1180.4z"/>
		<path id="Star-Copy-5" class="st3" d="M15.8-1170.4l-1.3,0.7c-0.4,0.2-0.9,0.1-1.1-0.3c-0.1-0.2-0.1-0.3-0.1-0.5l0.2-1.4
			c0-0.1,0-0.3-0.1-0.4l-1-1c-0.3-0.3-0.3-0.8,0-1.2c0.1-0.1,0.3-0.2,0.5-0.2l1.4-0.2c0.1,0,0.3-0.1,0.3-0.2l0.6-1.3
			c0.2-0.4,0.7-0.6,1.1-0.4c0.2,0.1,0.3,0.2,0.4,0.4l0.6,1.3c0.1,0.1,0.2,0.2,0.3,0.2l1.4,0.2c0.4,0.1,0.8,0.5,0.7,0.9
			c0,0.2-0.1,0.3-0.2,0.5l-1,1c-0.1,0.1-0.1,0.2-0.1,0.4l0.2,1.4c0.1,0.4-0.2,0.9-0.7,0.9c-0.2,0-0.4,0-0.5-0.1l-1.3-0.7
			C16.1-1170.5,15.9-1170.5,15.8-1170.4z"/>
		<path id="Star-Copy-3" class="st3" d="M5.8-1180.4l-1.3,0.7c-0.4,0.2-0.9,0.1-1.1-0.3c-0.1-0.2-0.1-0.3-0.1-0.5l0.2-1.4
			c0-0.1,0-0.3-0.1-0.4l-1-1c-0.3-0.3-0.3-0.8,0-1.2c0.1-0.1,0.3-0.2,0.5-0.2l1.4-0.2c0.1,0,0.3-0.1,0.3-0.2l0.6-1.3
			c0.2-0.4,0.7-0.6,1.1-0.4c0.2,0.1,0.3,0.2,0.4,0.4l0.6,1.3c0.1,0.1,0.2,0.2,0.3,0.2l1.4,0.2c0.4,0.1,0.8,0.5,0.7,0.9
			c0,0.2-0.1,0.3-0.2,0.5l-1,1c-0.1,0.1-0.1,0.2-0.1,0.4l0.2,1.4c0.1,0.4-0.2,0.9-0.7,0.9c-0.2,0-0.4,0-0.5-0.1l-1.3-0.7
			C6.1-1180.5,5.9-1180.5,5.8-1180.4z"/>
		<path id="Star-Copy-6" class="st3" d="M5.8-1170.4l-1.3,0.7c-0.4,0.2-0.9,0.1-1.1-0.3c-0.1-0.2-0.1-0.3-0.1-0.5l0.2-1.4
			c0-0.1,0-0.3-0.1-0.4l-1-1c-0.3-0.3-0.3-0.8,0-1.2c0.1-0.1,0.3-0.2,0.5-0.2l1.4-0.2c0.1,0,0.3-0.1,0.3-0.2l0.6-1.3
			c0.2-0.4,0.7-0.6,1.1-0.4c0.2,0.1,0.3,0.2,0.4,0.4l0.6,1.3c0.1,0.1,0.2,0.2,0.3,0.2l1.4,0.2c0.4,0.1,0.8,0.5,0.7,0.9
			c0,0.2-0.1,0.3-0.2,0.5l-1,1c-0.1,0.1-0.1,0.2-0.1,0.4l0.2,1.4c0.1,0.4-0.2,0.9-0.7,0.9c-0.2,0-0.4,0-0.5-0.1l-1.3-0.7
			C6.1-1170.5,5.9-1170.5,5.8-1170.4z"/>
	</g>
</g>
<g id="es">
	<g id="Group_1_" transform="translate(6.000000, 6.000000)">
		<path id="Rectangle-3_1_" class="st4" d="M55.4-1126H10.6c-4.9,0-6.7,0.6-8.5,1.5c-2,1-3.5,2.6-4.5,4.5c-1,1.8-1.5,3.6-1.5,8.5
			v28.9c0,4.9,0.6,6.7,1.5,8.5c1,2,2.6,3.5,4.5,4.5c1.8,1,3.6,1.5,8.5,1.5h44.9c4.9,0,6.7-0.6,8.5-1.5c2-1,3.5-2.6,4.5-4.5
			c1-1.8,1.5-3.6,1.5-8.5v-28.9c0-4.9-0.6-6.7-1.5-8.5c-1-2-2.6-3.5-4.5-4.5C62.1-1125.4,60.4-1126,55.4-1126z"/>
		<polygon id="Rectangle-4" class="st5" points="-2,-1108.6 68,-1108.6 68,-1085.4 -2,-1085.4 		"/>
		<path id="Rectangle-14" class="st6" d="M25.2-1102.8c1.1,0,1.9,0.9,1.9,1.9v7.7c0,1.1-0.9,1.9-1.9,1.9c-1.1,0-1.9-0.9-1.9-1.9
			v-7.7C23.3-1101.9,24.1-1102.8,25.2-1102.8z"/>
		<path id="Rectangle-14-Copy" class="st6" d="M5.8-1102.8c1.1,0,1.9,0.9,1.9,1.9v7.7c0,1.1-0.9,1.9-1.9,1.9s-1.9-0.9-1.9-1.9v-7.7
			C3.8-1101.9,4.7-1102.8,5.8-1102.8z"/>
		<path id="Rectangle-15" class="st1" d="M11.4-1104.7h8.2c1,0,1.8,0.8,1.8,1.8v7.8c0,3.2-2.6,5.8-5.8,5.8s-5.8-2.6-5.8-5.8v-7.8
			C9.7-1103.9,10.4-1104.7,11.4-1104.7z"/>
	</g>
</g>
<g id="fr">
	<g id="Group_2_" transform="translate(6.000000, 6.000000)">
		<path id="Rectangle-3_2_" class="st7" d="M55.4-1060H10.6c-4.9,0-6.7,0.6-8.5,1.5c-2,1-3.5,2.6-4.5,4.5c-1,1.8-1.5,3.6-1.5,8.5
			v28.9c0,4.9,0.6,6.7,1.5,8.5c1,2,2.6,3.5,4.5,4.5c1.8,1,3.6,1.5,8.5,1.5h44.9c4.9,0,6.7-0.6,8.5-1.5c2-1,3.5-2.6,4.5-4.5
			c1-1.8,1.5-3.6,1.5-8.5v-28.9c0-4.9-0.6-6.7-1.5-8.5c-1-2-2.6-3.5-4.5-4.5C62.1-1059.4,60.4-1060,55.4-1060z"/>
		<path id="Path_6_" class="st8" d="M21.6-1058v54H10.6c-4.4,0-6-0.5-7.5-1.3s-2.9-2.1-3.7-3.7s-1.3-3.2-1.3-7.5v-28.9
			c0-4.4,0.5-6,1.3-7.5s2.1-2.9,3.7-3.7s3.2-1.3,7.5-1.3H21.6z"/>
		<path id="Path_7_" class="st9" d="M44.4-1058h11.1c4.4,0,6,0.5,7.5,1.3c1.6,0.9,2.9,2.1,3.7,3.7s1.3,3.2,1.3,7.5v28.9
			c0,4.4-0.5,6-1.3,7.5s-2.1,2.9-3.7,3.7c-1.6,0.9-3.2,1.3-7.5,1.3H44.4V-1058z"/>
	</g>
</g>
<g id="de">
	<g id="Group_3_" transform="translate(6.000000, 6.000000)">
		<path id="Rectangle-3_3_" class="st10" d="M55.4-994H10.6c-4.9,0-6.7,0.6-8.5,1.5c-2,1-3.5,2.6-4.5,4.5c-1,1.8-1.5,3.6-1.5,8.5
			v28.9c0,4.9,0.6,6.7,1.5,8.5c1,2,2.6,3.5,4.5,4.5c1.8,1,3.6,1.5,8.5,1.5h44.9c4.9,0,6.7-0.6,8.5-1.5c2-1,3.5-2.6,4.5-4.5
			c1-1.8,1.5-3.6,1.5-8.5v-28.9c0-4.9-0.6-6.7-1.5-8.5c-1-2-2.6-3.5-4.5-4.5C62.1-993.4,60.4-994,55.4-994z"/>
		<path id="Path_8_" class="st11" d="M68-956v5.4c0,4.4-0.5,6-1.3,7.5s-2.1,2.9-3.7,3.7c-1.6,0.9-3.2,1.3-7.5,1.3H10.6
			c-4.4,0-6-0.5-7.5-1.3s-2.9-2.1-3.7-3.7s-1.3-3.2-1.3-7.5v-5.4H68z"/>
		<path id="Path_9_" class="st12" d="M10.6-992h44.9c4.4,0,6,0.5,7.5,1.3c1.6,0.9,2.9,2.1,3.7,3.7s1.3,3.2,1.3,7.5v5.4H-2v-5.4
			c0-4.4,0.5-6,1.3-7.5s2.1-2.9,3.7-3.7C4.6-991.6,6.2-992,10.6-992z"/>
	</g>
</g>
<g id="ja">
	<g id="Group_4_" transform="translate(6.000000, 6.000000)">
		<path id="Rectangle-3_4_" class="st0" d="M55.4-928H10.6c-4.9,0-6.7,0.6-8.5,1.5c-2,1-3.5,2.6-4.5,4.5c-1,1.8-1.5,3.6-1.5,8.5
			v28.9c0,4.9,0.6,6.7,1.5,8.5c1,2,2.6,3.5,4.5,4.5c1.8,1,3.6,1.5,8.5,1.5h44.9c4.9,0,6.7-0.6,8.5-1.5c2-1,3.5-2.6,4.5-4.5
			c1-1.8,1.5-3.6,1.5-8.5v-28.9c0-4.9-0.6-6.7-1.5-8.5c-1-2-2.6-3.5-4.5-4.5C62.1-927.4,60.4-928,55.4-928z"/>
		<circle id="Oval-19" class="st9" cx="33" cy="-899" r="14"/>
	</g>
</g>
<g id="it">
	<g id="Group_5_" transform="translate(6.000000, 6.000000)">
		<path id="Rectangle-3_5_" class="st7" d="M55.4-862H10.6c-4.9,0-6.7,0.6-8.5,1.5c-2,1-3.5,2.6-4.5,4.5c-1,1.8-1.5,3.6-1.5,8.5
			v28.9c0,4.9,0.6,6.7,1.5,8.5c1,2,2.6,3.5,4.5,4.5c1.8,1,3.6,1.5,8.5,1.5h44.9c4.9,0,6.7-0.6,8.5-1.5c2-1,3.5-2.6,4.5-4.5
			c1-1.8,1.5-3.6,1.5-8.5v-28.9c0-4.9-0.6-6.7-1.5-8.5c-1-2-2.6-3.5-4.5-4.5C62.1-861.4,60.4-862,55.4-862z"/>
		<path id="Path_10_" class="st13" d="M21.6-860v54H10.6c-4.4,0-6-0.5-7.5-1.3s-2.9-2.1-3.7-3.7s-1.3-3.2-1.3-7.5v-28.9
			c0-4.4,0.5-6,1.3-7.5s2.1-2.9,3.7-3.7c1.6-0.9,3.2-1.3,7.5-1.3H21.6z"/>
		<path id="Path_11_" class="st9" d="M44.4-860h11.1c4.4,0,6,0.5,7.5,1.3c1.6,0.9,2.9,2.1,3.7,3.7s1.3,3.2,1.3,7.5v28.9
			c0,4.4-0.5,6-1.3,7.5s-2.1,2.9-3.7,3.7c-1.6,0.9-3.2,1.3-7.5,1.3H44.4V-860z"/>
	</g>
</g>
<g id="ko">
	<g id="Group_6_" transform="translate(6.000000, 6.000000)">
		<path id="Rectangle-3_6_" class="st0" d="M55.4-796H10.6c-4.9,0-6.7,0.6-8.5,1.5c-2,1-3.5,2.6-4.5,4.5c-1,1.8-1.5,3.6-1.5,8.5
			v28.9c0,4.9,0.6,6.7,1.5,8.5c1,2,2.6,3.5,4.5,4.5c1.8,1,3.6,1.5,8.5,1.5h44.9c4.9,0,6.7-0.6,8.5-1.5c2-1,3.5-2.6,4.5-4.5
			c1-1.8,1.5-3.6,1.5-8.5v-28.9c0-4.9-0.6-6.7-1.5-8.5c-1-2-2.6-3.5-4.5-4.5C62.1-795.4,60.4-796,55.4-796z"/>
		<circle id="Oval-19_1_" class="st9" cx="33" cy="-767" r="13"/>
		<path id="Path_12_" class="st8" d="M20-766.5c2.2,2.3,4.4,3.5,6.6,3.5c2.2,0,4.3-1.2,6.4-3.5c2-2.3,4.1-3.5,6.3-3.5
			c2.2,0,4.4,1.1,6.6,3.2c-0.1,7.1-5.9,12.8-13,12.8C26-754,20.3-759.6,20-766.5z"/>
		<path id="Path_13_" class="st12" d="M15.1-746.4l-8.8-8.8c-0.5-0.5-0.5-1.3,0-1.9s1.3-0.5,1.9,0l8.8,8.8c0.5,0.5,0.5,1.3,0,1.9
			C16.4-745.9,15.6-745.9,15.1-746.4z"/>
		<path id="Path_14_" class="st12" d="M54.5-773.6l-3.2-3.2c-0.5-0.5-0.5-1.3,0-1.9s1.3-0.5,1.9,0l3.2,3.2c0.5,0.5,0.5,1.3,0,1.9
			C55.9-773.1,55-773.1,54.5-773.6z"/>
		<path id="Path_15_" class="st12" d="M7.2-776.9c-0.5,0.5-1.3,0.5-1.9,0c-0.5-0.5-0.5-1.3,0-1.9l8.8-8.8c0.5-0.5,1.3-0.5,1.9,0
			c0.5,0.5,0.5,1.3,0,1.9L7.2-776.9z"/>
		<path id="Path_16_" class="st12" d="M48.7-779.4l-3-3c-0.5-0.5-0.5-1.3,0-1.9s1.3-0.5,1.9,0l3,3c0.5,0.5,0.5,1.3,0,1.9
			C50-778.9,49.2-778.9,48.7-779.4z"/>
		<path id="Path_17_" class="st12" d="M12.7-755.7l-3-3c-0.5-0.5-0.5-1.3,0-1.9s1.3-0.5,1.9,0l3,3c0.5,0.5,0.5,1.3,0,1.9
			C14-755.2,13.2-755.2,12.7-755.7z"/>
		<path id="Path_18_" class="st12" d="M47.5-749.9c-0.5,0.5-1.3,0.5-1.9,0s-0.5-1.3,0-1.9l8.8-8.8c0.5-0.5,1.3-0.5,1.9,0
			c0.5,0.5,0.5,1.3,0,1.9L47.5-749.9z"/>
		<path id="Path_19_" class="st12" d="M58-777.1l-3.2-3.2c-0.5-0.5-0.5-1.3,0-1.9s1.3-0.5,1.9,0l3.2,3.2c0.5,0.5,0.5,1.3,0,1.9
			C59.4-776.5,58.5-776.5,58-777.1z"/>
		<path id="Path_20_" class="st12" d="M10.7-773.4c-0.5,0.5-1.3,0.5-1.9,0c-0.5-0.5-0.5-1.3,0-1.9l8.8-8.8c0.5-0.5,1.3-0.5,1.9,0
			c0.5,0.5,0.5,1.3,0,1.9L10.7-773.4z"/>
		<path id="Path_21_" class="st12" d="M51-746.4c-0.5,0.5-1.3,0.5-1.9,0s-0.5-1.3,0-1.9l8.8-8.8c0.5-0.5,1.3-0.5,1.9,0
			c0.5,0.5,0.5,1.3,0,1.9L51-746.4z"/>
		<path id="Path_22_" class="st12" d="M52.2-782.9l-3-3c-0.5-0.5-0.5-1.3,0-1.9c0.5-0.5,1.3-0.5,1.9,0l3,3c0.5,0.5,0.5,1.3,0,1.9
			C53.5-782.3,52.7-782.3,52.2-782.9z"/>
		<path id="Path_23_" class="st12" d="M18.5-749.9l-3.2-3.2c-0.5-0.5-0.5-1.3,0-1.9s1.3-0.5,1.9,0l3.2,3.2c0.5,0.5,0.5,1.3,0,1.9
			S19-749.4,18.5-749.9z"/>
	</g>
</g>
<g id="zh">
	<g id="Group-3" transform="translate(6.000000, 6.000000)">
		<path id="Rectangle-3_7_" class="st4" d="M55.4-730H10.6c-4.9,0-6.7,0.6-8.5,1.5c-2,1-3.5,2.6-4.5,4.5c-1,1.8-1.5,3.6-1.5,8.5
			v28.9c0,4.9,0.6,6.7,1.5,8.5c1,2,2.6,3.5,4.5,4.5c1.8,1,3.6,1.5,8.5,1.5h44.9c4.9,0,6.7-0.6,8.5-1.5c2-1,3.5-2.6,4.5-4.5
			c1-1.8,1.5-3.6,1.5-8.5v-28.9c0-4.9-0.6-6.7-1.5-8.5c-1-2-2.6-3.5-4.5-4.5C62.1-729.4,60.4-730,55.4-730z"/>
		<g id="Group-2" transform="translate(8.000000, 4.000000)">
			<g id="Group_7_" transform="translate(14.000000, 0.000000)">
				<path id="Star-Copy_1_" class="st14" d="M1.6-721l-1.3,0.2c-0.4,0.1-0.8-0.2-0.8-0.6c0-0.2,0-0.3,0.1-0.5l0.6-1.1
					c0.1-0.1,0.1-0.2,0-0.3l-0.6-1.2c-0.2-0.4,0-0.8,0.3-1c0.1-0.1,0.3-0.1,0.5-0.1l1.3,0.2c0.1,0,0.2,0,0.3-0.1l0.9-0.9
					c0.3-0.3,0.8-0.3,1,0c0.1,0.1,0.2,0.3,0.2,0.4l0.2,1.3c0,0.1,0.1,0.2,0.2,0.3l1.2,0.6c0.4,0.2,0.5,0.6,0.3,1
					c-0.1,0.1-0.2,0.3-0.3,0.3l-1.2,0.6c-0.1,0.1-0.2,0.2-0.2,0.3l-0.2,1.3c-0.1,0.4-0.4,0.7-0.8,0.6c-0.2,0-0.3-0.1-0.4-0.2
					l-0.9-0.9C1.8-721,1.7-721.1,1.6-721z"/>
				<path id="Star-Copy_2_" class="st14" d="M10.7-714.3l-0.9,0.9c-0.3,0.3-0.7,0.3-1,0c-0.1-0.1-0.2-0.3-0.2-0.4L8.3-715
					c0-0.1-0.1-0.2-0.2-0.3l-1.2-0.6c-0.4-0.2-0.5-0.6-0.4-1c0.1-0.1,0.2-0.3,0.3-0.3l1.2-0.6c0.1-0.1,0.2-0.2,0.2-0.3l0.2-1.3
					c0.1-0.4,0.4-0.7,0.8-0.6c0.2,0,0.3,0.1,0.4,0.2l0.9,0.9c0.1,0.1,0.2,0.1,0.3,0.1l1.3-0.2c0.4-0.1,0.8,0.2,0.9,0.6
					c0,0.2,0,0.3-0.1,0.5l-0.6,1.2c-0.1,0.1-0.1,0.2,0,0.3l0.6,1.1c0.2,0.4,0.1,0.8-0.3,1c-0.1,0.1-0.3,0.1-0.5,0.1l-1.3-0.2
					C10.9-714.5,10.8-714.4,10.7-714.3z"/>
				<path id="Star-Copy_3_" class="st14" d="M1.6-698.4l-1.3,0.2c-0.4,0.1-0.8-0.2-0.8-0.6c0-0.2,0-0.3,0.1-0.5l0.6-1.1
					c0.1-0.1,0.1-0.2,0-0.3l-0.6-1.2c-0.2-0.4,0-0.8,0.3-1c0.1-0.1,0.3-0.1,0.5-0.1l1.3,0.2c0.1,0,0.2,0,0.3-0.1l0.9-0.9
					c0.3-0.3,0.8-0.3,1,0c0.1,0.1,0.2,0.3,0.2,0.4l0.2,1.3c0,0.1,0.1,0.2,0.2,0.3l1.2,0.6c0.4,0.2,0.5,0.6,0.3,1
					c-0.1,0.1-0.2,0.3-0.3,0.3l-1.2,0.6c-0.1,0.1-0.2,0.2-0.2,0.3l-0.2,1.3c-0.1,0.4-0.4,0.7-0.8,0.6c-0.2,0-0.3-0.1-0.4-0.2
					l-0.9-0.9C1.8-698.3,1.7-698.4,1.6-698.4z"/>
				<path id="Star-Copy_4_" class="st14" d="M9.8-704.6L8.7-704c-0.4,0.2-0.8,0.1-1-0.3c-0.1-0.1-0.1-0.3-0.1-0.5l0.2-1.3
					c0-0.1,0-0.2-0.1-0.3l-0.9-0.9c-0.3-0.3-0.3-0.8,0-1c0.1-0.1,0.3-0.2,0.4-0.2l1.3-0.2c0.1,0,0.2-0.1,0.3-0.2l0.6-1.2
					c0.2-0.4,0.6-0.5,1-0.3c0.1,0.1,0.3,0.2,0.3,0.3l0.6,1.2c0.1,0.1,0.2,0.2,0.3,0.2l1.3,0.2c0.4,0.1,0.7,0.4,0.6,0.8
					c0,0.2-0.1,0.3-0.2,0.4l-0.9,0.9c-0.1,0.1-0.1,0.2-0.1,0.3l0.2,1.3c0.1,0.4-0.2,0.8-0.6,0.9c-0.2,0-0.3,0-0.5-0.1l-1.1-0.6
					C10.1-704.7,9.9-704.7,9.8-704.6z"/>
			</g>
			<path id="Star" class="st14" d="M5.6-706.8l-2.6,1.3c-0.8,0.4-1.8,0.1-2.2-0.7c-0.2-0.3-0.2-0.7-0.2-1l0.5-2.8
				c0-0.3,0-0.5-0.2-0.7l-2.1-2c-0.6-0.6-0.7-1.7,0-2.3c0.3-0.3,0.6-0.4,0.9-0.5l2.9-0.4c0.3,0,0.5-0.2,0.6-0.5l1.3-2.6
				c0.4-0.8,1.4-1.1,2.2-0.7c0.3,0.2,0.6,0.4,0.7,0.7l1.3,2.6c0.1,0.2,0.4,0.4,0.6,0.5l2.9,0.4c0.9,0.1,1.5,1,1.4,1.9
				c-0.1,0.4-0.2,0.7-0.5,0.9l-2.1,2c-0.2,0.2-0.3,0.5-0.2,0.7l0.5,2.8c0.2,0.9-0.4,1.7-1.3,1.9c-0.4,0.1-0.7,0-1-0.2l-2.6-1.3
				C6.1-706.9,5.9-706.9,5.6-706.8z"/>
		</g>
	</g>
</g>
<g id="ru">
	<g id="Group_8_" transform="translate(6.000000, 6.000000)">
		<path id="Rectangle-3_8_" class="st15" d="M55.4-664H10.6c-4.9,0-6.7,0.6-8.5,1.5c-2,1-3.5,2.6-4.5,4.5c-1,1.8-1.5,3.6-1.5,8.5
			v28.9c0,4.9,0.6,6.7,1.5,8.5c1,2,2.6,3.5,4.5,4.5c1.8,1,3.6,1.5,8.5,1.5h44.9c4.9,0,6.7-0.6,8.5-1.5c2-1,3.5-2.6,4.5-4.5
			c1-1.8,1.5-3.6,1.5-8.5v-28.9c0-4.9-0.6-6.7-1.5-8.5c-1-2-2.6-3.5-4.5-4.5C62.1-663.4,60.4-664,55.4-664z"/>
		<path id="Path_24_" class="st9" d="M68-626v5.4c0,4.4-0.5,6-1.3,7.5s-2.1,2.9-3.7,3.7c-1.6,0.9-3.2,1.3-7.5,1.3H10.6
			c-4.4,0-6-0.5-7.5-1.3s-2.9-2.1-3.7-3.7s-1.3-3.2-1.3-7.5v-5.4H68z"/>
		<path id="Path_25_" class="st16" d="M10.6-662h44.9c4.4,0,6,0.5,7.5,1.3c1.6,0.9,2.9,2.1,3.7,3.7s1.3,3.2,1.3,7.5v5.4H-2v-5.4
			c0-4.4,0.5-6,1.3-7.5s2.1-2.9,3.7-3.7C4.6-661.6,6.2-662,10.6-662z"/>
	</g>
</g>
<g id="pt-copy">
	<g id="Group_9_" transform="translate(6.000000, 2.000000)">
		<path id="Rectangle-3_9_" class="st17" d="M55.4-594H10.6c-4.9,0-6.7,0.6-8.5,1.5c-2,1-3.5,2.6-4.5,4.5c-1,1.8-1.5,3.6-1.5,8.5
			v28.9c0,4.9,0.6,6.7,1.5,8.5c1,2,2.6,3.5,4.5,4.5c1.8,1,3.6,1.5,8.5,1.5h44.9c4.9,0,6.7-0.6,8.5-1.5c2-1,3.5-2.6,4.5-4.5
			c1-1.8,1.5-3.6,1.5-8.5v-28.9c0-4.9-0.6-6.7-1.5-8.5c-1-2-2.6-3.5-4.5-4.5C62.1-593.4,60.4-594,55.4-594z"/>
		<path id="Rectangle" class="st5" d="M4.1-565.6l27.7-20.2c0.7-0.5,1.7-0.5,2.4,0l27.7,20.2c0.9,0.7,1.1,1.9,0.4,2.8
			c-0.1,0.2-0.3,0.3-0.4,0.4l-27.7,20.1c-0.7,0.5-1.6,0.5-2.3,0L4.1-562.4c-0.9-0.6-1.1-1.9-0.4-2.8C3.8-565.4,3.9-565.5,4.1-565.6z
			"/>
		<circle id="Mask" class="st2" cx="33" cy="-564" r="12"/>
		<path id="Path_26_" class="st6" d="M21-564.8c0.1-1.5,0.5-3,1.1-4.3l22.8,5.7c-0.1,1.5-0.4,3-1,4.4L21-564.8z"/>
	</g>
</g>
<g id="tr">
	<g id="Group_10_" transform="translate(6.000000, 6.000000)">
		<path id="Rectangle-3_10_" class="st4" d="M55.4-532H10.6c-4.9,0-6.7,0.6-8.5,1.5c-2,1-3.5,2.6-4.5,4.5c-1,1.8-1.5,3.6-1.5,8.5
			v28.7c0,4.9,0.6,6.7,1.5,8.5c1,2,2.6,3.5,4.5,4.5c1.8,1,3.6,1.5,8.5,1.5h44.9c4.9,0,6.7-0.6,8.5-1.5c2-1,3.5-2.6,4.5-4.5
			c1-1.8,1.5-3.6,1.5-8.5v-28.7c0-4.9-0.6-6.7-1.5-8.5c-1-2-2.6-3.5-4.5-4.5C62.1-531.4,60.4-532,55.4-532z"/>
		<path id="Path_27_" class="st3" d="M40.3-514.7c-0.9-0.2-1.6-0.3-2.3-0.3c-6.6,0-12,5.4-12,12c0,6.6,5.4,12,12,12
			c0.7,0,1.4-0.1,2.3-0.3l0,0c0.5-0.1,1.1,0.2,1.2,0.7c0.1,0.4-0.1,0.8-0.4,1.1c-2.4,1.7-5.5,2.5-9.1,2.5c-8.8,0-16-7.2-16-16
			c0-8.8,7.2-16,16-16c3.7,0,6.7,0.8,9.1,2.5l0,0c0.5,0.3,0.6,0.9,0.2,1.4C41.1-514.7,40.7-514.6,40.3-514.7z"/>
		<path id="Star-2" class="st3" d="M45.8-498.1l-1.7,1.6c-0.6,0.5-1.4,0.5-2-0.1c-0.2-0.2-0.3-0.5-0.4-0.8l-0.2-2.3
			c0-0.3-0.2-0.6-0.5-0.8l-2-1.1c-0.7-0.4-0.9-1.2-0.5-1.9c0.2-0.3,0.4-0.5,0.7-0.6l2.1-0.9c0.3-0.1,0.5-0.4,0.6-0.7l0.4-2.3
			c0.1-0.8,0.9-1.2,1.6-1.1c0.3,0.1,0.6,0.2,0.8,0.5l1.5,1.7c0.2,0.2,0.5,0.4,0.9,0.3l2.3-0.3c0.8-0.1,1.5,0.5,1.6,1.2
			c0,0.3,0,0.6-0.2,0.9l-1.2,2c-0.2,0.3-0.2,0.6,0,0.9l1,2.1c0.3,0.7,0,1.5-0.7,1.8c-0.3,0.1-0.6,0.2-0.9,0.1l-2.2-0.5
			C46.3-498.4,46-498.3,45.8-498.1z"/>
	</g>
</g>
<g id="nl">
	<g id="Group_11_" transform="translate(6.000000, 6.000000)">
		<path id="Rectangle-3_11_" class="st7" d="M55.4-466H10.6c-4.9,0-6.7,0.6-8.5,1.5c-2,1-3.5,2.6-4.5,4.5c-1,1.8-1.5,3.6-1.5,8.5
			v28.9c0,4.9,0.6,6.7,1.5,8.5c1,2,2.6,3.5,4.5,4.5c1.8,1,3.6,1.5,8.5,1.5h44.9c4.9,0,6.7-0.6,8.5-1.5c2-1,3.5-2.6,4.5-4.5
			c1-1.8,1.5-3.6,1.5-8.5v-28.9c0-4.9-0.6-6.7-1.5-8.5c-1-2-2.6-3.5-4.5-4.5C62.1-465.4,60.4-466,55.4-466z"/>
		<path id="Path_28_" class="st8" d="M68-428v5.4c0,4.4-0.5,6-1.3,7.5c-0.9,1.6-2.1,2.9-3.7,3.7c-1.6,0.9-3.2,1.3-7.5,1.3H10.6
			c-4.4,0-6-0.5-7.5-1.3c-1.6-0.9-2.9-2.1-3.7-3.7c-0.9-1.6-1.3-3.2-1.3-7.5v-5.4H68z"/>
		<path id="Path_29_" class="st9" d="M10.6-464h44.9c4.4,0,6,0.5,7.5,1.3c1.6,0.9,2.9,2.1,3.7,3.7c0.9,1.6,1.3,3.2,1.3,7.5v5.4H-2
			v-5.4c0-4.4,0.5-6,1.3-7.5c0.9-1.6,2.1-2.9,3.7-3.7S6.2-464,10.6-464z"/>
	</g>
</g>
<g id="sv">
	<g id="Group-10" transform="translate(6.000000, 6.000000)">
		<path id="Rectangle-3_12_" class="st15" d="M55.4-400H10.6c-4.9,0-6.7,0.6-8.5,1.5c-2,1-3.5,2.6-4.5,4.5c-1,1.8-1.5,3.6-1.5,8.5
			v28.9c0,4.9,0.6,6.7,1.5,8.5c1,2,2.6,3.5,4.5,4.5c1.8,1,3.6,1.5,8.5,1.5h44.9c4.9,0,6.7-0.6,8.5-1.5c2-1,3.5-2.6,4.5-4.5
			c1-1.8,1.5-3.6,1.5-8.5v-28.9c0-4.9-0.6-6.7-1.5-8.5c-1-2-2.6-3.5-4.5-4.5C62.1-399.4,60.4-400,55.4-400z"/>
		<path id="Combined-Shape" class="st11" d="M27-398v20l41,0v14l-41,0v20H13v-20l-15,0v-14l15,0v-20H27z"/>
	</g>
</g>
<g id="ga">
	<g id="Group_12_" transform="translate(6.000000, 6.000000)">
		<path id="Rectangle-3_13_" class="st7" d="M55.4-334H10.6c-4.9,0-6.7,0.6-8.5,1.5c-2,1-3.5,2.6-4.5,4.5c-1,1.8-1.5,3.6-1.5,8.5
			v28.9c0,4.9,0.6,6.7,1.5,8.5c1,2,2.6,3.5,4.5,4.5c1.8,1,3.6,1.5,8.5,1.5h44.9c4.9,0,6.7-0.6,8.5-1.5c2-1,3.5-2.6,4.5-4.5
			c1-1.8,1.5-3.6,1.5-8.5v-28.9c0-4.9-0.6-6.7-1.5-8.5c-1-2-2.6-3.5-4.5-4.5C62.1-333.4,60.4-334,55.4-334z"/>
		<path id="Path_30_" class="st13" d="M21.6-332v54H10.6c-4.4,0-6-0.5-7.5-1.3c-1.6-0.9-2.9-2.1-3.7-3.7c-0.9-1.6-1.3-3.2-1.3-7.5
			v-28.9c0-4.4,0.5-6,1.3-7.5c0.9-1.6,2.1-2.9,3.7-3.7s3.2-1.3,7.5-1.3H21.6z"/>
		<path id="Path_31_" class="st18" d="M44.4-332h11.1c4.4,0,6,0.5,7.5,1.3c1.6,0.9,2.9,2.1,3.7,3.7c0.9,1.6,1.3,3.2,1.3,7.5v28.9
			c0,4.4-0.5,6-1.3,7.5c-0.9,1.6-2.1,2.9-3.7,3.7c-1.6,0.9-3.2,1.3-7.5,1.3H44.4V-332z"/>
	</g>
</g>
<g id="el">
	<g id="Group_13_" transform="translate(6.000000, 6.000000)">
		<path id="Rectangle-3_14_" class="st7" d="M55.4-268H10.6c-4.9,0-6.7,0.6-8.5,1.5c-2,1-3.5,2.6-4.5,4.5c-1,1.8-1.5,3.6-1.5,8.5
			v28.9c0,4.9,0.6,6.7,1.5,8.5c1,2,2.6,3.5,4.5,4.5c1.8,1,3.6,1.5,8.5,1.5h44.9c4.9,0,6.7-0.6,8.5-1.5c2-1,3.5-2.6,4.5-4.5
			c1-1.8,1.5-3.6,1.5-8.5v-28.9c0-4.9-0.6-6.7-1.5-8.5c-1-2-2.6-3.5-4.5-4.5C62.1-267.4,60.4-268,55.4-268z"/>
		<path id="Path_32_" class="st8" d="M10.6-266H33v30H-2v-17.4c0-4.4,0.5-6,1.3-7.5c0.9-1.6,2.1-2.9,3.7-3.7S6.2-266,10.6-266z"/>
		<path id="Path_33_" class="st8" d="M55.4-266c4.4,0,6,0.5,7.5,1.3c1.6,0.9,2.9,2.1,3.7,3.7c0.2,0.3,0.3,0.6,0.5,1H25v-6H55.4z"/>
		<path id="Path_34_" class="st8" d="M68-254c0,0.2,0,0.4,0,0.6v5.4H23v-6H68L68-254z"/>
		<polygon id="Path_35_" class="st8" points="68,-242 68,-236 -2,-236 -2,-242 		"/>
		<path id="Path_36_" class="st8" d="M68-230v5.4c0,0.2,0,0.4,0,0.6H-2c0-0.2,0-0.4,0-0.6v-5.4H68z"/>
		<path id="Path_37_" class="st8" d="M67.2-218c-0.1,0.3-0.3,0.7-0.5,1c-0.9,1.6-2.1,2.9-3.7,3.7c-1.6,0.9-3.2,1.3-7.5,1.3H10.6
			c-4.4,0-6-0.5-7.5-1.3c-1.6-0.9-2.9-2.1-3.7-3.7c-0.2-0.3-0.3-0.6-0.5-1H67.2L67.2-218z"/>
		<polygon id="Rectangle-Copy-4" class="st16" points="-2,-254 33,-254 33,-248 -2,-248 		"/>
		<polygon id="Rectangle-5" class="st16" points="12,-266 18,-266 18,-234 12,-234 		"/>
	</g>
</g>
<g id="he">
	<g id="Group_14_" transform="translate(6.000000, 6.000000)">
		<path id="Rectangle-3_15_" class="st7" d="M55.4-202H10.6c-4.9,0-6.7,0.6-8.5,1.5c-2,1-3.5,2.6-4.5,4.5c-1,1.8-1.5,3.6-1.5,8.5
			v28.9c0,4.9,0.6,6.7,1.5,8.5c1,2,2.6,3.5,4.5,4.5c1.8,1,3.6,1.5,8.5,1.5h44.9c4.9,0,6.7-0.6,8.5-1.5c2-1,3.5-2.6,4.5-4.5
			c1-1.8,1.5-3.6,1.5-8.5v-28.9c0-4.9-0.6-6.7-1.5-8.5c-1-2-2.6-3.5-4.5-4.5C62.1-201.4,60.4-202,55.4-202z"/>
		<path id="Path_38_" class="st8" d="M68-158c0,3.9-0.5,5.5-1.3,7c-0.2,0.4-0.4,0.7-0.6,1H-0.1c-0.2-0.3-0.4-0.7-0.6-1
			c-0.8-1.5-1.3-3-1.3-7H68L68-158z"/>
		<path id="Path_39_" class="st8" d="M66.1-196c0.2,0.3,0.4,0.7,0.6,1c0.8,1.5,1.3,3,1.3,7H-2c0-3.9,0.5-5.5,1.3-7
			c0.2-0.4,0.4-0.7,0.6-1H66.1L66.1-196z"/>
		<path id="Triangle" class="st8" d="M33.5-183C33.5-183,33.5-183,33.5-183C33.5-183,33.5-183,33.5-183l-9.2,14.8c0,0,0,0,0,0
			c0,0,0,0,0,0h18.4c0,0,0,0,0,0c0,0,0,0,0,0L33.5-183z M35.7-184.4l9.2,14.8c0.8,1.2,0.4,2.9-0.8,3.6c-0.4,0.3-0.9,0.4-1.4,0.4
			H24.3c-1.5,0-2.6-1.2-2.6-2.6c0-0.5,0.1-1,0.4-1.4l9.2-14.8c0.8-1.2,2.4-1.6,3.6-0.8C35.2-185,35.5-184.7,35.7-184.4z"/>
		<path id="Shape" class="st8" d="M33.5-163.3C33.5-163.3,33.5-163.3,33.5-163.3C33.5-163.3,33.5-163.3,33.5-163.3l9.2-14.8
			c0,0,0,0,0,0c0,0,0,0,0,0H24.3c0,0,0,0,0,0c0,0,0,0,0,0L33.5-163.3z M31.3-162l-9.2-14.8c-0.8-1.2-0.4-2.9,0.8-3.6
			c0.4-0.3,0.9-0.4,1.4-0.4h18.4c1.5,0,2.6,1.2,2.6,2.6c0,0.5-0.1,1-0.4,1.4L35.7-162c-0.8,1.2-2.4,1.6-3.6,0.8
			C31.8-161.3,31.5-161.6,31.3-162z"/>
	</g>
</g>
<g id="pl">
	<g id="Group_15_" transform="translate(6.000000, 6.000000)">
		<path id="Rectangle-3_16_" class="st7" d="M55.4-136H10.6c-4.9,0-6.7,0.6-8.5,1.5c-2,1-3.5,2.6-4.5,4.5c-1,1.8-1.5,3.6-1.5,8.5
			v28.9c0,4.9,0.6,6.7,1.5,8.5c1,2,2.6,3.5,4.5,4.5c1.8,1,3.6,1.5,8.5,1.5h44.9c4.9,0,6.7-0.6,8.5-1.5c2-1,3.5-2.6,4.5-4.5
			c1-1.8,1.5-3.6,1.5-8.5v-28.9c0-4.9-0.6-6.7-1.5-8.5c-1-2-2.6-3.5-4.5-4.5C62.1-135.4,60.4-136,55.4-136z"/>
		<path id="Path_40_" class="st9" d="M68-107v14.4c0,4.4-0.5,6-1.3,7.5s-2.1,2.9-3.7,3.7c-1.6,0.9-3.2,1.3-7.5,1.3H10.6
			c-4.4,0-6-0.5-7.5-1.3S0.2-83.4-0.7-85S-2-88.2-2-92.6V-107H68z"/>
	</g>
</g>
<g id="no-copy">
	<g id="Group_16_" transform="translate(6.000000, 6.000000)">
		<path id="Rectangle-3_17_" class="st10" d="M55.4-70H10.6c-4.9,0-6.7,0.6-8.5,1.5c-2,1-3.5,2.6-4.5,4.5c-1,1.8-1.5,3.6-1.5,8.5
			v28.9c0,4.9,0.6,6.7,1.5,8.5c1,2,2.6,3.5,4.5,4.5c1.8,1,3.6,1.5,8.5,1.5h44.9c4.9,0,6.7-0.6,8.5-1.5c2-1,3.5-2.6,4.5-4.5
			c1-1.8,1.5-3.6,1.5-8.5v-28.9c0-4.9-0.6-6.7-1.5-8.5c-1-2-2.6-3.5-4.5-4.5C62.1-69.4,60.4-70,55.4-70z"/>
		<polygon id="Path_41_" class="st3" points="13,-68 27,-68 27,-48 68,-48 68,-34 27,-34 27,-14 13,-14 13,-34 -2,-34 -2,-48 
			13,-48 		"/>
		<polygon id="Path_42_" class="st2" points="24,-45 68,-45 68,-37 24,-37 24,-14 16,-14 16,-37 -2,-37 -2,-45 16,-45 16,-68 
			24,-68 		"/>
	</g>
</g>
<g id="vi">
	<g id="Group_17_" transform="translate(6.000000, 6.000000)">
		<path id="Rectangle-3_18_" class="st10" d="M55.4-4H10.6C5.6-4,3.9-3.4,2.1-2.5c-2,1-3.5,2.6-4.5,4.5C-3.4,3.9-4,5.6-4,10.6v28.9
			c0,4.9,0.6,6.7,1.5,8.5c1,2,2.6,3.5,4.5,4.5c1.8,1,3.6,1.5,8.5,1.5h44.9c4.9,0,6.7-0.6,8.5-1.5c2-1,3.5-2.6,4.5-4.5
			c1-1.8,1.5-3.6,1.5-8.5V10.6c0-4.9-0.6-6.7-1.5-8.5c-1-2-2.6-3.5-4.5-4.5C62.1-3.4,60.4-4,55.4-4z"/>
		<path id="Star_1_" class="st14" d="M32.5,32.7l-3.9,2.1c-1.2,0.6-2.7,0.2-3.3-1c-0.3-0.5-0.3-1-0.2-1.6l0.8-4.4
			c0.1-0.3-0.1-0.7-0.3-0.9l-3.2-3.1c-1-0.9-1-2.5,0-3.5c0.4-0.4,0.9-0.6,1.4-0.7l4.4-0.6c0.3,0,0.6-0.3,0.8-0.5l2-4
			c0.6-1.2,2.1-1.7,3.3-1.1c0.5,0.2,0.9,0.6,1.1,1.1l2,4c0.1,0.3,0.4,0.5,0.8,0.5l4.4,0.6c1.3,0.2,2.3,1.4,2.1,2.8
			c-0.1,0.5-0.3,1-0.7,1.4l-3.2,3.1c-0.2,0.2-0.3,0.6-0.3,0.9l0.8,4.4c0.2,1.3-0.7,2.6-2,2.8c-0.5,0.1-1.1,0-1.6-0.2l-3.9-2.1
			C33.2,32.6,32.8,32.6,32.5,32.7z"/>
	</g>
</g>
<g id="da">
	<g id="Group_18_" transform="translate(6.000000, 6.000000)">
		<path id="Rectangle-3_19_" class="st10" d="M55.4,62H10.6c-4.9,0-6.7,0.6-8.5,1.5c-2,1-3.5,2.6-4.5,4.5c-1,1.8-1.5,3.6-1.5,8.5
			v28.9c0,4.9,0.6,6.7,1.5,8.5c1,2,2.6,3.5,4.5,4.5c1.8,1,3.6,1.5,8.5,1.5h44.9c4.9,0,6.7-0.6,8.5-1.5c2-1,3.5-2.6,4.5-4.5
			c1-1.8,1.5-3.6,1.5-8.5V76.6c0-4.9-0.6-6.7-1.5-8.5c-1-2-2.6-3.5-4.5-4.5C62.1,62.6,60.4,62,55.4,62z"/>
		<rect id="Rectangle_1_" x="17" y="64" class="st19" width="12" height="54"/>
		<rect id="Rectangle_2_" x="-2" y="85" class="st19" width="70" height="12"/>
	</g>
</g>
<g id="hv">
	<g id="Group_19_" transform="translate(6.000000, 6.000000)">
		<path id="Rectangle-3_20_" class="st20" d="M55.4,128H10.6c-4.9,0-6.7,0.6-8.5,1.5c-2,1-3.5,2.6-4.5,4.5c-1,1.8-1.5,3.6-1.5,8.5
			v28.9c0,4.9,0.6,6.7,1.5,8.5c1,2,2.6,3.5,4.5,4.5c1.8,1,3.6,1.5,8.5,1.5h44.9c4.9,0,6.7-0.6,8.5-1.5c2-1,3.5-2.6,4.5-4.5
			c1-1.8,1.5-3.6,1.5-8.5v-28.9c0-4.9-0.6-6.7-1.5-8.5c-1-2-2.6-3.5-4.5-4.5C62.1,128.6,60.4,128,55.4,128z"/>
		<path id="Path_43_" class="st9" d="M33.1,140l5.7-2.8c0.6-0.3,1.4,0.2,1.3,0.9l-0.4,2.9H45c9.9,0,18,8.1,18,18c0,9.9-8.1,18-18,18
			h-6.5c-1.9,0-3.5,1.6-3.5,3.5s1.6,3.5,3.5,3.5H48H21.3c-0.2-1.1-0.3-2.3-0.3-3.5c0-9.7,7.8-17.5,17.5-17.5H45c2.2,0,4-1.8,4-4
			s-1.8-4-4-4h-8.7l0.6,2.1c0.1,0.6-0.3,1.1-0.8,1.1l-7.1,0.3l1.3,2c0.4,0.6,0,1.4-0.7,1.4l-10.6,0.6c-1.4,0.1-2.7-0.2-3.9-0.9
			l-2.8,1.4c-0.5,0.2-1,0-1.2-0.4c-2.4-5.1-0.8-11.1,3.8-14.3l16.8-11.9c0.6-0.4,1.4,0,1.4,0.7L33.1,140z"/>
		<path id="Rectangle-Copy-4_1_" class="st18" d="M11.5,168.8l-5.2,3c-0.5,0.3-1.1,0.1-1.4-0.4c-1.1-1.9-0.4-4.4,1.5-5.5
			s4.4-0.4,5.5,1.5C12.1,167.9,12,168.5,11.5,168.8z"/>
		<path id="Rectangle_3_" class="st14" d="M8.5,168l6.1-3.5c0.5-0.3,1.1-0.1,1.4,0.4c1.1,1.9,0.4,4.4-1.5,5.5l-0.9,0.5
			c-1.9,1.1-4.4,0.4-5.5-1.5C7.8,168.9,8,168.2,8.5,168z"/>
		<path id="Rectangle-Copy-5" class="st14" d="M5.5,175.1l3.5-2c0.5-0.3,1.1-0.1,1.4,0.4c0.8,1.4,0.3,3.3-1.1,4.1s-3.3,0.3-4.1-1.1
			C4.9,176,5,175.4,5.5,175.1z"/>
		<path id="Rectangle_4_" class="st14" d="M17.9,151.8l3.8-3.8c0.4-0.4,0.9-0.4,1.3,0c1.1,1.1,1.1,2.8,0,3.8l-1.3,1.3
			c-1.1,1.1-2.8,1.1-3.8,0l0,0C17.6,152.7,17.6,152.2,17.9,151.8z"/>
	</g>
</g>
<g id="ro">
	<g id="Group_20_" transform="translate(6.000000, 6.000000)">
		<path id="Rectangle-3_21_" class="st21" d="M55.4,194H10.6c-4.9,0-6.7,0.6-8.5,1.5c-2,1-3.5,2.6-4.5,4.5c-1,1.8-1.5,3.6-1.5,8.5
			v28.9c0,4.9,0.6,6.7,1.5,8.5c1,2,2.6,3.5,4.5,4.5c1.8,1,3.6,1.5,8.5,1.5h44.9c4.9,0,6.7-0.6,8.5-1.5c2-1,3.5-2.6,4.5-4.5
			c1-1.8,1.5-3.6,1.5-8.5v-28.9c0-4.9-0.6-6.7-1.5-8.5c-1-2-2.6-3.5-4.5-4.5C62.1,194.6,60.4,194,55.4,194z"/>
		<path id="Path_44_" class="st8" d="M21.6,196v54H10.6c-4.4,0-6-0.5-7.5-1.3c-1.6-0.9-2.9-2.1-3.7-3.7s-1.3-3.2-1.3-7.5v-28.9
			c0-4.4,0.5-6,1.3-7.5c0.9-1.6,2.1-2.9,3.7-3.7c1.6-0.9,3.2-1.3,7.5-1.3H21.6z"/>
		<path id="Path_45_" class="st9" d="M44.4,196h11.1c4.4,0,6,0.5,7.5,1.3c1.6,0.9,2.9,2.1,3.7,3.7c0.9,1.6,1.3,3.2,1.3,7.5v28.9
			c0,4.4-0.5,6-1.3,7.5s-2.1,2.9-3.7,3.7c-1.6,0.9-3.2,1.3-7.5,1.3H44.4V196z"/>
	</g>
</g>
<g id="sw">
	<g id="Group_21_" transform="translate(6.000000, 6.000000)">
		<path id="Rectangle-3_22_" class="st15" d="M55.4,260H10.6c-4.9,0-6.7,0.6-8.5,1.5c-2,1-3.5,2.6-4.5,4.5c-1,1.8-1.5,3.6-1.5,8.5
			v28.9c0,4.9,0.6,6.7,1.5,8.5c1,2,2.6,3.5,4.5,4.5c1.8,1,3.6,1.5,8.5,1.5h44.9c4.9,0,6.7-0.6,8.5-1.5c2-1,3.5-2.6,4.5-4.5
			c1-1.8,1.5-3.6,1.5-8.5v-28.9c0-4.9-0.6-6.7-1.5-8.5c-1-2-2.6-3.5-4.5-4.5C62.1,260.6,60.4,260,55.4,260z"/>
		<path id="Path_46_" class="st22" d="M63.4,263.6L-1.5,309c-0.3-1.2-0.5-2.9-0.5-5.6v-28.9c0-4.4,0.5-6,1.3-7.5
			c0.9-1.6,2.1-2.9,3.7-3.7s3.2-1.3,7.5-1.3h44.9c4.4,0,6,0.5,7.5,1.3C63.1,263.4,63.3,263.5,63.4,263.6z"/>
		<path id="Path_47_" class="st14" d="M54.2,262h1.2c4.4,0,6,0.5,7.5,1.3c1.6,0.9,2.9,2.1,3.7,3.7c0.9,1.6,1.3,3.2,1.3,7.5v2.5
			L12.4,316h-1.9c-4.4,0-6-0.5-7.5-1.3c-1.6-0.9-2.9-2.1-3.7-3.7c-0.9-1.6-1.3-3.2-1.3-7.5v-2.1L54.2,262L54.2,262z"/>
		<path id="Path_48_" class="st23" d="M60.5,262.4c1,0.2,1.7,0.5,2.5,0.9c1.6,0.9,2.9,2.1,3.7,3.7c0.7,1.3,1.1,2.5,1.2,5.2
			L5.8,315.7c-1.2-0.2-2-0.6-2.8-1c-1.6-0.9-2.9-2.1-3.7-3.7c-0.7-1.2-1.1-2.4-1.2-4.9L60.5,262.4L60.5,262.4z"/>
	</g>
</g>
<g id="eo">
	<g id="Group_22_" transform="translate(6.000000, 6.000000)">
		<path id="Rectangle-3_23_" class="st24" d="M55.4,326H10.6c-4.9,0-6.7,0.6-8.5,1.5c-2,1-3.5,2.6-4.5,4.5c-1,1.8-1.5,3.6-1.5,8.5
			v28.9c0,4.9,0.6,6.7,1.5,8.5c1,2,2.6,3.5,4.5,4.5c1.8,1,3.6,1.5,8.5,1.5h44.9c4.9,0,6.7-0.6,8.5-1.5c2-1,3.5-2.6,4.5-4.5
			c1-1.8,1.5-3.6,1.5-8.5v-28.9c0-4.9-0.6-6.7-1.5-8.5c-1-2-2.6-3.5-4.5-4.5C62.1,326.6,60.4,326,55.4,326z"/>
		<path id="Path_49_" class="st16" d="M10.6,328H33v27c0,2.2-1.8,4-4,4H-2v-18.4c0-4.4,0.5-6,1.3-7.5c0.9-1.6,2.1-2.9,3.7-3.7
			S6.2,328,10.6,328z"/>
		<path id="Star_2_" class="st22" d="M14.6,350.7l-3.4,1.8c-1,0.5-2.3,0.1-2.9-0.9c-0.2-0.4-0.3-0.9-0.2-1.4l0.7-3.8
			c0-0.3,0-0.6-0.2-0.8L5.7,343c-0.8-0.8-0.9-2.2,0-3c0.3-0.3,0.8-0.6,1.2-0.6l3.8-0.6c0.3,0,0.5-0.2,0.7-0.5l1.7-3.5
			c0.5-1.1,1.8-1.5,2.9-1c0.4,0.2,0.8,0.5,1,1l1.7,3.5c0.1,0.3,0.4,0.4,0.7,0.5l3.8,0.6c1.2,0.2,2,1.3,1.8,2.4
			c-0.1,0.5-0.3,0.9-0.6,1.2l-2.8,2.7c-0.2,0.2-0.3,0.5-0.2,0.8l0.7,3.8c0.2,1.2-0.6,2.3-1.7,2.5c-0.5,0.1-0.9,0-1.4-0.2l-3.4-1.8
			C15.1,350.6,14.8,350.6,14.6,350.7z"/>
	</g>
</g>
<g id="hu">
	<g id="Group_23_" transform="translate(6.000000, 6.000000)">
		<path id="Rectangle-3_24_" class="st7" d="M55.4,392H10.6c-4.9,0-6.7,0.6-8.5,1.5c-2,1-3.5,2.6-4.5,4.5c-1,1.8-1.5,3.6-1.5,8.5
			v28.9c0,4.9,0.6,6.7,1.5,8.5c1,2,2.6,3.5,4.5,4.5c1.8,1,3.6,1.5,8.5,1.5h44.9c4.9,0,6.7-0.6,8.5-1.5c2-1,3.5-2.6,4.5-4.5
			c1-1.8,1.5-3.6,1.5-8.5v-28.9c0-4.9-0.6-6.7-1.5-8.5c-1-2-2.6-3.5-4.5-4.5C62.1,392.6,60.4,392,55.4,392z"/>
		<path id="Path_50_" class="st22" d="M68,430v5.4c0,4.4-0.5,6-1.3,7.5c-0.9,1.6-2.1,2.9-3.7,3.7c-1.6,0.9-3.2,1.3-7.5,1.3H10.6
			c-4.4,0-6-0.5-7.5-1.3c-1.6-0.9-2.9-2.1-3.7-3.7c-0.9-1.6-1.3-3.2-1.3-7.5V430H68z"/>
		<path id="Path_51_" class="st9" d="M10.6,394h44.9c4.4,0,6,0.5,7.5,1.3c1.6,0.9,2.9,2.1,3.7,3.7c0.9,1.6,1.3,3.2,1.3,7.5v5.4H-2
			v-5.4c0-4.4,0.5-6,1.3-7.5c0.9-1.6,2.1-2.9,3.7-3.7S6.2,394,10.6,394z"/>
	</g>
</g>
<g id="cy">
	<g id="Group_24_" transform="translate(6.000000, 6.000000)">
		<path id="Rectangle-3_25_" class="st7" d="M55.4,458H10.6c-4.9,0-6.7,0.6-8.5,1.5c-2,1-3.5,2.6-4.5,4.5c-1,1.8-1.5,3.6-1.5,8.5
			v28.9c0,4.9,0.6,6.7,1.5,8.5c1,2,2.6,3.5,4.5,4.5c1.8,1,3.6,1.5,8.5,1.5h44.9c4.9,0,6.7-0.6,8.5-1.5c2-1,3.5-2.6,4.5-4.5
			c1-1.8,1.5-3.6,1.5-8.5v-28.9c0-4.9-0.6-6.7-1.5-8.5c-1-2-2.6-3.5-4.5-4.5C62.1,458.6,60.4,458,55.4,458z"/>
		<path id="Combined-Shape_1_" class="st22" d="M68,487v14.4c0,4.4-0.5,6-1.3,7.5c-0.9,1.6-2.1,2.9-3.7,3.7
			c-1.6,0.9-3.2,1.3-7.5,1.3H10.6c-4.4,0-6-0.5-7.5-1.3s-2.9-2.1-3.7-3.7c-0.9-1.6-1.3-3.2-1.3-7.5V487H68z"/>
		<path id="Rectangle_5_" class="st9" d="M35.2,474h13.8c1.1,0,2,0.9,2,2c0,0.3-0.1,0.5-0.2,0.8l-3.6,8.2c-2.9,6.7-9.5,11-16.8,11
			H25c-3.9,0-7-3.1-7-7v-5l0,0l10-4v0.4c0,0.9,0.7,1.6,1.6,1.6c0.9,0,1.6-0.7,1.6-1.6V478C31.2,475.8,33,474,35.2,474z"/>
		<path id="Rectangle-Copy" class="st9" d="M21,472h4c1.7,0,3,1.3,3,3v9l0,0H18v-9C18,473.3,19.3,472,21,472z"/>
		<path id="Rectangle-Copy-2" class="st9" d="M16,475h5l0,0v5H11C11,477.2,13.2,475,16,475z"/>
		<path id="Rectangle-Copy-4_2_" class="st9" d="M21,472h10c0,2.2-1.8,4-4,4h-6l0,0V472z"/>
		<path id="Rectangle-Copy-3" class="st9" d="M17,482c-1.7,0-3-1.8-3-4h10v4H17z"/>
		<path id="Path_52_" class="st9" d="M29,495.9v-5h19.5c1.4,0,2.5-1.1,2.5-2.5V485h5v3.4c0,4.1-3.4,7.5-7.5,7.5H29z"/>
		<path id="Triangle_1_" class="st9" d="M54.3,481l4,5.7c0.3,0.5,0.2,1.1-0.3,1.4c-0.3,0.2-0.6,0.2-0.9,0.1l-3.7-1.2l0,0l-3.7,1.2
			c-0.5,0.2-1.1-0.1-1.3-0.6c-0.1-0.3,0-0.6,0.1-0.9l4-5.7c0.3-0.5,0.9-0.6,1.4-0.3C54.2,480.9,54.3,480.9,54.3,481z"/>
		<path id="Path_53_" class="st9" d="M24,498h3c2.2,0,4,1.8,4,4c0,0.6-0.4,1-1,1h-9c-0.6,0-1-0.4-1-1C20,499.8,21.8,498,24,498z"/>
		<rect id="Rectangle_6_" x="26" y="492" class="st9" width="5" height="10"/>
		<path id="Path_54_" class="st9" d="M16,491.9v2c0,2.2-1.8,4-4,4c-0.6,0-1-0.4-1-1v-8c0-0.6,0.4-1,1-1
			C14.2,487.9,16,489.6,16,491.9z"/>
		
			<rect id="Rectangle_7_" x="11.5" y="490.9" transform="matrix(0.9659 -0.2588 0.2588 0.9659 -127.0598 21.7349)" class="st9" width="15" height="5"/>
		<path id="Path_55_" class="st9" d="M40,498h4c2.2,0,4,1.8,4,4c0,0.6-0.4,1-1,1H37c-0.6,0-1-0.4-1-1C36,499.8,37.8,498,40,498z"/>
		
			<rect id="Rectangle-Copy-7" x="40.2" y="491.6" transform="matrix(0.866 -0.5 0.5 0.866 -242.5707 87.8602)" class="st9" width="5" height="10"/>
	</g>
</g>
<g id="uk">
	<g id="Group_25_" transform="translate(6.000000, 6.000000)">
		<path id="Rectangle-3_26_" class="st15" d="M55.4,524H10.6c-4.9,0-6.7,0.6-8.5,1.5c-2,1-3.5,2.6-4.5,4.5c-1,1.8-1.5,3.6-1.5,8.5
			v28.9c0,4.9,0.6,6.7,1.5,8.5c1,2,2.6,3.5,4.5,4.5c1.8,1,3.6,1.5,8.5,1.5h44.9c4.9,0,6.7-0.6,8.5-1.5c2-1,3.5-2.6,4.5-4.5
			c1-1.8,1.5-3.6,1.5-8.5v-28.9c0-4.9-0.6-6.7-1.5-8.5c-1-2-2.6-3.5-4.5-4.5C62.1,524.6,60.4,524,55.4,524z"/>
		<path id="Path_56_" class="st14" d="M68,553v14.4c0,4.4-0.5,6-1.3,7.5s-2.1,2.9-3.7,3.7c-1.6,0.9-3.2,1.3-7.5,1.3H10.6
			c-4.4,0-6-0.5-7.5-1.3s-2.9-2.1-3.7-3.7s-1.3-3.2-1.3-7.5V553H68z"/>
	</g>
</g>
<g id="kl">
	<g id="Group_26_" transform="translate(6.000000, 6.000000)">
		<path id="Rectangle-3_27_" class="st10" d="M55.4,590H10.6c-4.9,0-6.7,0.6-8.5,1.5c-2,1-3.5,2.6-4.5,4.5c-1,1.8-1.5,3.6-1.5,8.5
			v28.9c0,4.9,0.6,6.7,1.5,8.5c1,2,2.6,3.5,4.5,4.5c1.8,1,3.6,1.5,8.5,1.5h44.9c4.9,0,6.7-0.6,8.5-1.5c2-1,3.5-2.6,4.5-4.5
			c1-1.8,1.5-3.6,1.5-8.5v-28.9c0-4.9-0.6-6.7-1.5-8.5c-1-2-2.6-3.5-4.5-4.5C62.1,590.6,60.4,590,55.4,590z"/>
		<circle id="Oval" class="st16" cx="33" cy="619" r="16"/>
		<path id="Triangle_2_" class="st23" d="M34.8,601.4l4.9,16.8c0.3,0.9,0,2-0.7,2.7L35,625c-1,1.1-2.8,1.1-3.8,0c0,0,0,0,0,0
			l-4.1-4.1c-0.7-0.7-0.9-1.7-0.7-2.7l4.9-16.8c0.3-1,1.3-1.5,2.2-1.2C34.2,600.3,34.7,600.8,34.8,601.4z"/>
		<path id="Path-3" class="st23" d="M24.9,622.1c0.5,0.6,4.4,4.5,5,5.1c0.9,0.8,0.3,2.4-1,2.4c-2.8-0.1-5.3,0.8-7.3,2.5
			c-0.7,0.5-1.3,1.1-1.8,1.7c-0.3,0.3-0.5,0.6-0.6,0.7c-0.4,0.7-1.3,0.8-2,0.3c-4-3.2-1-11.1,6.2-13.1
			C24,621.6,24.6,621.7,24.9,622.1z"/>
		<path id="Shape_1_" class="st23" d="M36.1,628.6c-0.1-0.1-0.2-0.3-0.3-0.4c-0.1-0.5,0.1-1,0.5-1.3c0,0,0.1-0.1,0.1-0.1
			c0.1-0.1,0.3-0.3,0.6-0.6c0.2-0.2,0.5-0.5,0.9-0.9c0.2-0.2,0.5-0.5,1-1l0,0c1.6-1.7,2.4-2.4,2.7-2.7c0.6-0.6,1.7-0.3,2,0.5
			c0.8,2.1,2.2,3.6,4.1,4.6c0.7,0.4,1.3,0.6,2,0.8c0.4,0.1,0.6,0.2,0.8,0.2c0.8,0.1,1.2,1,0.9,1.7c-0.8,1.9-3.2,3.4-5.9,3.6
			C42.1,633.3,38.9,631.9,36.1,628.6L36.1,628.6L36.1,628.6z M37.2,626.7c0.1,0,0.1,0,0.2,0.1C37.4,626.7,37.3,626.7,37.2,626.7
			L37.2,626.7z"/>
	</g>
</g>
<g id="cs">
	<g id="Group_27_" transform="translate(6.000000, 6.000000)">
		<path id="Rectangle-3_28_" class="st7" d="M55.4,656H10.6c-4.9,0-6.7,0.6-8.5,1.5c-2,1-3.5,2.6-4.5,4.5c-1,1.8-1.5,3.6-1.5,8.5
			v28.9c0,4.9,0.6,6.7,1.5,8.5c1,2,2.6,3.5,4.5,4.5c1.8,1,3.6,1.5,8.5,1.5h44.9c4.9,0,6.7-0.6,8.5-1.5c2-1,3.5-2.6,4.5-4.5
			c1-1.8,1.5-3.6,1.5-8.5v-28.9c0-4.9-0.6-6.7-1.5-8.5c-1-2-2.6-3.5-4.5-4.5C62.1,656.6,60.4,656,55.4,656z"/>
		<path id="Path_57_" class="st9" d="M68,685v14.4c0,4.4-0.5,6-1.3,7.5s-2.1,2.9-3.7,3.7c-1.6,0.9-3.2,1.3-7.5,1.3H10.6
			c-4.4,0-6-0.5-7.5-1.3s-2.9-2.1-3.7-3.7s-1.3-3.2-1.3-7.5V685H68z"/>
		<path id="Path_58_" class="st8" d="M1.3,709.5c-0.8-0.7-1.4-1.5-2-2.5c-0.9-1.6-1.3-3.2-1.3-7.5v-28.9c0-4.4,0.5-6,1.3-7.5
			c0.5-1,1.2-1.8,2-2.5L33,685L1.3,709.5L1.3,709.5z"/>
	</g>
</g>
<g id="hi">
	<g id="Group_28_" transform="translate(6.000000, 6.000000)">
		<path id="Rectangle-3_29_" class="st7" d="M55.4,722H10.6c-4.9,0-6.7,0.6-8.5,1.5c-2,1-3.5,2.6-4.5,4.5c-1,1.8-1.5,3.6-1.5,8.5
			v28.9c0,4.9,0.6,6.7,1.5,8.5c1,2,2.6,3.5,4.5,4.5c1.8,1,3.6,1.5,8.5,1.5h44.9c4.9,0,6.7-0.6,8.5-1.5c2-1,3.5-2.6,4.5-4.5
			c1-1.8,1.5-3.6,1.5-8.5v-28.9c0-4.9-0.6-6.7-1.5-8.5c-1-2-2.6-3.5-4.5-4.5C62.1,722.6,60.4,722,55.4,722z"/>
		<path id="Path_59_" class="st18" d="M10.6,724h44.9c4.4,0,6,0.5,7.5,1.3c1.6,0.9,2.9,2.1,3.7,3.7s1.3,3.2,1.3,7.5v3.4H-2v-3.4
			c0-4.4,0.5-6,1.3-7.5s2.1-2.9,3.7-3.7C4.6,724.4,6.2,724,10.6,724z"/>
		<path id="Path_60_" class="st22" d="M68,762v3.4c0,4.4-0.5,6-1.3,7.5s-2.1,2.9-3.7,3.7c-1.6,0.9-3.2,1.3-7.5,1.3H10.6
			c-4.4,0-6-0.5-7.5-1.3s-2.9-2.1-3.7-3.7s-1.3-3.2-1.3-7.5V762H68z"/>
		<path id="Oval_1_" class="st8" d="M33,759c-4.4,0-8-3.6-8-8s3.6-8,8-8s8,3.6,8,8S37.4,759,33,759z M33,755c2.2,0,4-1.8,4-4
			c0-2.2-1.8-4-4-4s-4,1.8-4,4C29,753.2,30.8,755,33,755z"/>
	</g>
</g>
<g id="id">
	<g id="Group_29_" transform="translate(6.000000, 6.000000)">
		<path id="Rectangle-3_30_" class="st10" d="M55.4,788H10.6c-4.9,0-6.7,0.6-8.5,1.5c-2,1-3.5,2.6-4.5,4.5c-1,1.8-1.5,3.6-1.5,8.5
			v28.9c0,4.9,0.6,6.7,1.5,8.5c1,2,2.6,3.5,4.5,4.5c1.8,1,3.6,1.5,8.5,1.5h44.9c4.9,0,6.7-0.6,8.5-1.5c2-1,3.5-2.6,4.5-4.5
			c1-1.8,1.5-3.6,1.5-8.5v-28.9c0-4.9-0.6-6.7-1.5-8.5c-1-2-2.6-3.5-4.5-4.5C62.1,788.6,60.4,788,55.4,788z"/>
		<path id="Path_61_" class="st16" d="M68,817v14.4c0,4.4-0.5,6-1.3,7.5s-2.1,2.9-3.7,3.7c-1.6,0.9-3.2,1.3-7.5,1.3H10.6
			c-4.4,0-6-0.5-7.5-1.3s-2.9-2.1-3.7-3.7s-1.3-3.2-1.3-7.5V817H68z"/>
	</g>
</g>
<g id="ha">
	<g id="Group_30_" transform="translate(6.000000, 6.000000)">
		<path id="Rectangle-3_31_" class="st7" d="M55.4,854H10.6c-4.9,0-6.7,0.6-8.5,1.5c-2,1-3.5,2.6-4.5,4.5c-1,1.8-1.5,3.6-1.5,8.5
			v28.9c0,4.9,0.6,6.7,1.5,8.5c1,2,2.6,3.5,4.5,4.5c1.8,1,3.6,1.5,8.5,1.5h44.9c4.9,0,6.7-0.6,8.5-1.5c2-1,3.5-2.6,4.5-4.5
			c1-1.8,1.5-3.6,1.5-8.5v-28.9c0-4.9-0.6-6.7-1.5-8.5c-1-2-2.6-3.5-4.5-4.5C62.1,854.6,60.4,854,55.4,854z"/>
		<rect id="Rectangle-4-Copy-5" x="-2" y="865" class="st1" width="70" height="9"/>
		<rect id="Rectangle-4-Copy" x="-2" y="874" class="st25" width="70" height="9"/>
		<path id="Path_62_" class="st26" d="M37,856v27H-2v-14.4c0-4.4,0.5-6,1.3-7.5s2.1-2.9,3.7-3.7l0.4-0.2c1.5-0.7,3.1-1.1,7.1-1.1H37
			z"/>
		<path id="Path_63_" class="st16" d="M15,856v8.9l2.5,1.8l2.5-1.8V856h3v6.7l9.3-6.7H37v2.7l-7.2,5.3H37v3H25.6l-3.9,2.8l3,2.2H37
			v3h-8.2l8.2,5.9v2.1h-5.7l-8.3-6.1v6.1h-3v-8.2l-2.5-1.8l-2.5,1.8v8.3h-3v-6.1L3.6,883H-2v-2.1l8.1-5.9H-2v-3h12.2l3-2.2L9.3,867
			L-2,867c0-1.2,0.1-2.2,0.3-3l6.9,0l-5.3-3.9c0.8-1.2,1.9-2.1,3.2-2.8c0.3-0.2,0.6-0.3,0.9-0.4l8.1,5.9V856H15z"/>
		<path id="Path_64_" class="st26" d="M67.8,901c-0.2,1.9-0.6,2.9-1.2,4c-0.9,1.6-2.1,2.9-3.7,3.7c-1.6,0.9-3.2,1.3-7.5,1.3H10.6
			c-4.4,0-6-0.5-7.5-1.3s-2.9-2.1-3.7-3.7c-0.6-1.1-1-2.1-1.2-4H67.8z"/>
		<path id="Path_65_" class="st9" d="M68,897.4c0,1.5-0.1,2.6-0.2,3.6H-1.8c-0.1-0.9-0.2-2.1-0.2-3.6V892h70V897.4z"/>
		<polygon id="Path_66_" class="st9" points="20,867 37,867 37,872 20,872 20,883 15,883 15,872 -2,872 -2,867 15,867 15,856 
			20,856 		"/>
	</g>
</g>
<g id="nv">
	<g id="Group_31_" transform="translate(6.000000, 6.000000)">
		<path id="Rectangle-3_32_" class="st27" d="M55.4,920H10.6c-4.9,0-6.7,0.6-8.5,1.5c-2,1-3.5,2.6-4.5,4.5c-1,1.8-1.5,3.6-1.5,8.5
			v28.9c0,4.9,0.6,6.7,1.5,8.5c1,2,2.6,3.5,4.5,4.5c1.8,1,3.6,1.5,8.5,1.5h44.9c4.9,0,6.7-0.6,8.5-1.5c2-1,3.5-2.6,4.5-4.5
			c1-1.8,1.5-3.6,1.5-8.5v-28.9c0-4.9-0.6-6.7-1.5-8.5c-1-2-2.6-3.5-4.5-4.5C62.1,920.6,60.4,920,55.4,920z"/>
		<path id="Star_3_" class="st23" d="M32,935l-0.6,8.7c0,0.6-0.6,1.1-1.2,1c0,0,0,0,0,0l-1.9-0.2c-0.6-0.1-1.1,0.4-1.2,1
			c0,0.3,0.1,0.6,0.2,0.8l1.2,1.5c0.3,0.4,0.3,1.1-0.1,1.5l-1.4,1.4c-0.4,0.4-0.4,1.1,0,1.6c0.2,0.2,0.5,0.3,0.8,0.3l2.1,0.1
			c0.4,0,0.8,0.3,1,0.6l1.2,2.5c0.3,0.6,0.9,0.8,1.5,0.5c0.2-0.1,0.4-0.3,0.5-0.5l1.3-2.5c0.2-0.4,0.6-0.6,1-0.6H38
			c0.6,0,1.1-0.5,1.1-1.1c0-0.3-0.1-0.5-0.3-0.7l-1.4-1.6c-0.3-0.4-0.3-0.9-0.1-1.3l1.1-1.7c0.3-0.5,0.2-1.2-0.4-1.5
			c-0.2-0.1-0.4-0.2-0.7-0.2l-1.6,0.1c-0.6,0.1-1.2-0.4-1.2-1l0,0l-0.8-8.7c0-0.3,0.1-0.7,0.3-0.9l3.1-3c0.7-0.6,1.7-0.6,2.4,0
			c0.2,0.2,0.3,0.4,0.4,0.6l1.3,3.6c0.2,0.6,0.8,1.1,1.5,1.1l4.2,0.2c0.9,0,1.6,0.8,1.6,1.7c0,0.1,0,0.3-0.1,0.4l-1.1,4.1
			c-0.2,0.6,0,1.3,0.6,1.7l3.3,2.7c0.7,0.6,0.8,1.6,0.3,2.3c-0.1,0.1-0.2,0.2-0.3,0.3l-3.3,2.7c-0.5,0.4-0.7,1.1-0.6,1.7l1.1,4.1
			c0.2,0.9-0.3,1.8-1.2,2.1c-0.1,0-0.2,0.1-0.4,0.1l-4.2,0.2c-0.7,0-1.3,0.5-1.5,1.1l-1.5,4c-0.3,0.9-1.3,1.3-2.1,1
			c-0.1,0-0.2-0.1-0.4-0.2l-3.5-2.3c-0.6-0.4-1.3-0.4-1.9,0l-3.5,2.3c-0.8,0.5-1.8,0.3-2.3-0.5c-0.1-0.1-0.1-0.2-0.2-0.4l-1.5-4
			c-0.2-0.6-0.8-1.1-1.5-1.1l-4.2-0.2c-0.9,0-1.6-0.8-1.6-1.7c0-0.1,0-0.3,0.1-0.4l1.1-4.1c0.2-0.6,0-1.3-0.6-1.7l-3.3-2.7
			c-0.7-0.6-0.8-1.6-0.3-2.3c0.1-0.1,0.2-0.2,0.3-0.3l3.3-2.7c0.5-0.4,0.7-1.1,0.6-1.7l-1.1-4.1c-0.2-0.9,0.3-1.8,1.2-2.1
			c0.1,0,0.2-0.1,0.4-0.1l4.2-0.2c0.7,0,1.3-0.5,1.5-1.1l1.3-3.5c0.3-0.9,1.3-1.3,2.1-1c0.2,0.1,0.4,0.2,0.6,0.4l3,3
			C31.9,934.3,32,934.7,32,935L32,935z"/>
		<path id="Path_67_" class="st9" d="M19.5,949.1c0-6.2,4.2-11.6,10.1-13.2c0.5-0.1,0.9,0.2,0.9,0.7l0,3.5c0,0.3-0.2,0.6-0.5,0.7
			c-3.4,1.3-5.7,4.6-5.7,8.3c0,4.9,3.9,8.8,8.7,8.8s8.7-3.9,8.7-8.8c0-3.7-2.3-7-5.7-8.3c-0.3-0.1-0.5-0.4-0.5-0.7l0-3.5
			c0-0.5,0.4-0.8,0.9-0.7c5.9,1.5,10.1,7,10.1,13.2c0,7.5-6,13.6-13.5,13.6S19.5,956.6,19.5,949.1z"/>
	</g>
</g>
<g id="ar">
	<g id="Group_32_" transform="translate(6.000000, 6.000000)">
		<path id="Rectangle-3_33_" class="st24" d="M55.4,986H10.6c-4.9,0-6.7,0.6-8.5,1.5c-2,1-3.5,2.6-4.5,4.5c-1,1.8-1.5,3.6-1.5,8.5
			v28.9c0,4.9,0.6,6.7,1.5,8.5c1,2,2.6,3.5,4.5,4.5c1.8,1,3.6,1.5,8.5,1.5h44.9c4.9,0,6.7-0.6,8.5-1.5c2-1,3.5-2.6,4.5-4.5
			c1-1.8,1.5-3.6,1.5-8.5v-28.9c0-4.9-0.6-6.7-1.5-8.5c-1-2-2.6-3.5-4.5-4.5C62.1,986.6,60.4,986,55.4,986z"/>
	</g>
	<g id="Group-3_1_" transform="translate(27.000000, 12.000000)">
		<g id="Group_33_" transform="translate(0.000000, 5.000000)">
			<path id="Oval_2_" class="st28" d="M12.5,1018c8,0,14.5-6.3,14.5-14s-6.5-14-14.5-14S-2,996.3-2,1004S4.5,1018,12.5,1018z"/>
			<path id="Path-6-Copy" class="st29" d="M13.3,990.7c2.2,0,4.1,0.1,4.7-2.7"/>
			<path id="Triangle_3_" class="st6" d="M14,1019.4l-9,2.5c-1.1,0.3-2.2-0.3-2.5-1.4c-0.1-0.4-0.1-0.8,0.1-1.2l0.9-2.4
				c0.3-0.8,1.2-1.3,2.1-0.9c0,0,0,0,0.1,0L14,1019.4L14,1019.4z"/>
			<path id="Triangle-Copy" class="st6" d="M11,1019.4l9,2.5c1.1,0.3,2.2-0.3,2.5-1.4c0.1-0.4,0.1-0.8-0.1-1.2l-0.9-2.4
				c-0.3-0.8-1.2-1.3-2.1-0.9c0,0,0,0-0.1,0L11,1019.4L11,1019.4z"/>
			<path id="Path-8" class="st30" d="M13.1,989.9l-3.9,0.8l-0.4,0.9c1.1-0.2,2.4-0.3,4-0.4c1.4-0.1,2.5-0.6,3.4-1.6L13.1,989.9z"/>
		</g>
		<g id="Group-2_1_" transform="translate(5.000000, 9.000000)">
			<circle id="Oval_3_" class="st6" cx="7.5" cy="999.5" r="9.5"/>
			<circle id="Oval-Copy" class="st31" cx="7.5" cy="995.5" r="7.5"/>
		</g>
		<path id="Combined-Shape_2_" class="st32" d="M12.2,995.8c-0.2-1.6,0.3-3.2,1.5-4.3c1.1-1.1,2.7-1.6,4.2-1.4
			c0.2,1.6-0.3,3.2-1.5,4.3C15.2,995.6,13.7,996,12.2,995.8L12.2,995.8z"/>
		<path id="Combined-Shape-Copy" class="st32" d="M12.8,995.8c0.2-1.6-0.3-3.2-1.5-4.3c-1.1-1.1-2.7-1.6-4.2-1.4
			c-0.2,1.6,0.3,3.2,1.5,4.3C9.8,995.6,11.3,996,12.8,995.8L12.8,995.8z"/>
	</g>
</g>
<g id="ca">
	<g id="Group_34_" transform="translate(6.000000, 6.000000)">
		<path id="Rectangle-3_34_" class="st4" d="M55.4,1052H10.6c-4.9,0-6.7,0.6-8.5,1.5c-2,1-3.5,2.6-4.5,4.5c-1,1.8-1.5,3.6-1.5,8.5
			v28.9c0,4.9,0.6,6.7,1.5,8.5c1,2,2.6,3.5,4.5,4.5c1.8,1,3.6,1.5,8.5,1.5h44.9c4.9,0,6.7-0.6,8.5-1.5c2-1,3.5-2.6,4.5-4.5
			c1-1.8,1.5-3.6,1.5-8.5v-28.9c0-4.9-0.6-6.7-1.5-8.5c-1-2-2.6-3.5-4.5-4.5C62.1,1052.6,60.4,1052,55.4,1052z"/>
		<path id="Path_68_" class="st33" d="M10.6,1054h44.9c4.4,0,6,0.5,7.5,1.3c1.6,0.9,2.9,2.1,3.7,3.7c0.2,0.3,0.3,0.6,0.5,1H-1.2
			c0.1-0.3,0.3-0.7,0.5-1c0.9-1.6,2.1-2.9,3.7-3.7S6.2,1054,10.6,1054z"/>
		<path id="Path_69_" class="st33" d="M68,1066c0,0.2,0,0.4,0,0.6v5.4H-2v-5.4c0-0.2,0-0.4,0-0.6H68z"/>
		<polygon id="Path_70_" class="st33" points="68,1078 68,1084 -2,1084 -2,1078 		"/>
		<path id="Path_71_" class="st33" d="M68,1095.4c0,0.2,0,0.4,0,0.6H-2c0-0.2,0-0.4,0-0.6v-5.4h70V1095.4z"/>
		<path id="Path_72_" class="st33" d="M67.2,1102c-0.1,0.3-0.3,0.7-0.5,1c-0.9,1.6-2.1,2.9-3.7,3.7c-1.6,0.9-3.2,1.3-7.5,1.3H10.6
			c-4.4,0-6-0.5-7.5-1.3s-2.9-2.1-3.7-3.7c-0.2-0.3-0.3-0.6-0.5-1H67.2z"/>
	</g>
</g>
<g id="th">
	<g id="Group_35_" transform="translate(6.000000, 6.000000)">
		<path id="Rectangle-3_35_" class="st16" d="M10.6,1120h44.9c4.4,0,6,0.5,7.5,1.3c1.6,0.9,2.9,2.1,3.7,3.7s1.3,3.2,1.3,7.5v28.9
			c0,4.4-0.5,6-1.3,7.5s-2.1,2.9-3.7,3.7c-1.6,0.9-3.2,1.3-7.5,1.3H10.6c-4.4,0-6-0.5-7.5-1.3s-2.9-2.1-3.7-3.7s-1.3-3.2-1.3-7.5
			v-28.9c0-4.4,0.5-6,1.3-7.5s2.1-2.9,3.7-3.7S6.2,1120,10.6,1120z"/>
		<path id="Rectangle-3_36_" class="st7" d="M55.4,1118H10.6c-4.9,0-6.7,0.6-8.5,1.5c-2,1-3.5,2.6-4.5,4.5c-1,1.8-1.5,3.6-1.5,8.5
			v28.9c0,4.9,0.6,6.7,1.5,8.5c1,2,2.6,3.5,4.5,4.5c1.8,1,3.6,1.5,8.5,1.5h44.9c4.9,0,6.7-0.6,8.5-1.5c2-1,3.5-2.6,4.5-4.5
			c1-1.8,1.5-3.6,1.5-8.5v-28.9c0-4.9-0.6-6.7-1.5-8.5c-1-2-2.6-3.5-4.5-4.5C62.1,1118.6,60.4,1118,55.4,1118z"/>
		<path id="Path_73_" class="st9" d="M67.7,1166c-0.2,1.3-0.6,2.1-1,3c-0.9,1.6-2.1,2.9-3.7,3.7c-1.6,0.9-3.2,1.3-7.5,1.3H10.6
			c-4.4,0-6-0.5-7.5-1.3s-2.9-2.1-3.7-3.7c-0.5-0.9-0.8-1.7-1-3H67.7L67.7,1166z"/>
		<polygon id="Rectangle-4_1_" class="st2" points="68,1136 68,1158 -2,1158 -2,1136 		"/>
		<path id="Path_74_" class="st9" d="M10.6,1120h44.9c4.4,0,6,0.5,7.5,1.3c1.6,0.9,2.9,2.1,3.7,3.7c0.5,0.9,0.8,1.7,1,3H-1.7
			c0.2-1.3,0.6-2.1,1-3c0.9-1.6,2.1-2.9,3.7-3.7S6.2,1120,10.6,1120z"/>
	</g>
</g>
<g id="gn">
	<g id="Group_36_" transform="translate(6.000000, 6.000000)">
		<path id="Rectangle-3_37_" class="st7" d="M55.4,1184H10.6c-4.9,0-6.7,0.6-8.5,1.5c-2,1-3.5,2.6-4.5,4.5c-1,1.8-1.5,3.6-1.5,8.5
			v28.9c0,4.9,0.6,6.7,1.5,8.5c1,2,2.6,3.5,4.5,4.5c1.8,1,3.6,1.5,8.5,1.5h44.9c4.9,0,6.7-0.6,8.5-1.5c2-1,3.5-2.6,4.5-4.5
			c1-1.8,1.5-3.6,1.5-8.5v-28.9c0-4.9-0.6-6.7-1.5-8.5c-1-2-2.6-3.5-4.5-4.5C62.1,1184.6,60.4,1184,55.4,1184z"/>
		<path id="Path_75_" class="st8" d="M68,1224v3.4c0,4.4-0.5,6-1.3,7.5s-2.1,2.9-3.7,3.7c-1.6,0.9-3.2,1.3-7.5,1.3H10.6
			c-4.4,0-6-0.5-7.5-1.3s-2.9-2.1-3.7-3.7s-1.3-3.2-1.3-7.5v-3.4H68z"/>
		<path id="Path_76_" class="st9" d="M10.6,1186h44.9c4.4,0,6,0.5,7.5,1.3c1.6,0.9,2.9,2.1,3.7,3.7s1.3,3.2,1.3,7.5v3.4H-2v-3.4
			c0-4.4,0.5-6,1.3-7.5s2.1-2.9,3.7-3.7S6.2,1186,10.6,1186z"/>
		<path id="Oval_4_" class="st9" d="M33,1222c-5,0-9-4-9-9s4-9,9-9s9,4,9,9S38,1222,33,1222z M33,1218c2.8,0,5-2.2,5-5
			c0-2.8-2.2-5-5-5s-5,2.2-5,5C28,1215.8,30.2,1218,33,1218z"/>
		<circle id="Oval_5_" class="st2" cx="33" cy="1213" r="3"/>
	</g>
</g>
<g id="ambassador">
	<g id="Group-5-Copy" transform="translate(6.000000, 6.000000)">
		<path id="Rectangle-3_38_" class="st34" d="M55.4,1250H10.6c-4.9,0-6.7,0.6-8.5,1.5c-2,1-3.5,2.6-4.5,4.5c-1,1.8-1.5,3.6-1.5,8.5
			v28.9c0,4.9,0.6,6.7,1.5,8.5c1,2,2.6,3.5,4.5,4.5c1.8,1,3.6,1.5,8.5,1.5h44.9c4.9,0,6.7-0.6,8.5-1.5c2-1,3.5-2.6,4.5-4.5
			c1-1.8,1.5-3.6,1.5-8.5v-28.9c0-4.9-0.6-6.7-1.5-8.5c-1-2-2.6-3.5-4.5-4.5C62.1,1250.6,60.4,1250,55.4,1250z"/>
		<path id="Path_77_" class="st18" d="M29.5,1252l6.3,3.4l-6.3,8.2l-2.5,9.5l-7-4.8v7l22.8,9.6L27.4,1306h-3.8l1.5-12.6l-6.3-5.6
			v-8.3l-8.3-8.3L2,1257.5l2.4-4.8c1.3-0.5,3-0.7,6.2-0.7H29.5z"/>
		<path id="Combined-Shape_3_" class="st35" d="M55.4,1252c4.4,0,6,0.5,7.5,1.3c1.6,0.9,2.9,2.1,3.7,3.7s1.3,3.2,1.3,7.5v28.9
			c0,3.4-0.3,5.1-0.8,6.5l-5.8-1.9l-1.3-13l-8.7-5.6v-13h8.3l-4.1-6.4h-5.9l3.1-8H55.4z"/>
		<g id="Group-7" transform="translate(4.000000, 0.000000)">
		</g>
	</g>
</g>
<g id="duolingo">
	<g id="Group-5-Copy-2" transform="translate(6.000000, 6.000000)">
		<path id="Rectangle-3_39_" class="st17" d="M55.4,1316H10.6c-4.9,0-6.7,0.6-8.5,1.5c-2,1-3.5,2.6-4.5,4.5c-1,1.8-1.5,3.6-1.5,8.5
			v28.9c0,4.9,0.6,6.7,1.5,8.5c1,2,2.6,3.5,4.5,4.5c1.8,1,3.6,1.5,8.5,1.5h44.9c4.9,0,6.7-0.6,8.5-1.5c2-1,3.5-2.6,4.5-4.5
			c1-1.8,1.5-3.6,1.5-8.5v-28.9c0-4.9-0.6-6.7-1.5-8.5c-1-2-2.6-3.5-4.5-4.5C62.1,1316.6,60.4,1316,55.4,1316z"/>
		<g id="Icon" transform="translate(4.000000, 0.000000)">
			<g id="Glyph-Copy-3" transform="translate(0.867188, 5.550781)">
				<g id="Group_37_" transform="translate(0.035890, 0.000000)">
					<path id="Combined-Shape-Copy-57" class="st36" d="M22.2,1330c0.9,0.9,0.6,2.4-0.5,2.9c-3.7,1.8-8.1,1-11-2
						c-2.9-3-3.5-7.5-1.6-11.1c0.6-1.1,1.8-1.3,2.7-0.4L22.2,1330z"/>
					<path id="Path-12" class="st37" d="M21,1328.8c3.7,3.7,10.1,3.7,14.2,0s-0.6,21.5-0.6,21.5c0,0-2.2,0-6.5,0c-1.2,0-3.3,0-6.3,0
						C18.8,1333.5,18.5,1326.4,21,1328.8z"/>
					<path id="Combined-Shape-Copy-58" class="st36" d="M6.1,1323.3l9.9,11c0.8,0.9,0.5,2.4-0.6,2.9c-3.7,1.7-8.2,0.7-11-2.4
						c-2.8-3.1-3.3-7.6-1.2-11.1C3.8,1322.6,5.2,1322.4,6.1,1323.3z"/>
					
						<g id="Group-4" transform="translate(47.352758, 11.848706) scale(-1, 1) translate(-47.352758, -11.848706) translate(34.738341, 0.039135)">
						<path id="Combined-Shape-Copy-57_1_" class="st36" d="M25.9,1330c0.9,0.9,0.6,2.4-0.5,2.9c-3.7,1.8-8.1,1-11-2
							c-2.9-3-3.5-7.5-1.6-11.1c0.6-1.1,1.8-1.3,2.7-0.4L25.9,1330z"/>
						<path id="Combined-Shape-Copy-58_1_" class="st36" d="M9.8,1323.3l9.9,11c0.8,0.9,0.5,2.4-0.6,2.9c-3.7,1.7-8.2,0.7-11-2.4
							c-2.8-3.1-3.3-7.6-1.2-11.1C7.5,1322.5,9,1322.4,9.8,1323.3z"/>
					</g>
					<path id="Rectangle-130-Copy-36" class="st37" d="M11.1,1325h0.6c7.3,0,13.1,5.9,13.1,13.1v6.8c0,7.3-5.9,13.1-13.1,13.1h-0.6
						c-7.3,0-13.1-5.9-13.1-13.1v-6.8C-2,1330.9,3.9,1325,11.1,1325z"/>
					<path id="Rectangle-130-Copy-37" class="st37" d="M44.5,1325h0.5c7.3,0,13.1,5.9,13.1,13.1v6.8c0,7.3-5.9,13.1-13.1,13.1h-0.4
						c-7.2,0-13.1-5.8-13.1-13l-0.1-6.8c-0.1-7.3,5.8-13.2,13-13.3C44.4,1325,44.4,1325,44.5,1325z"/>
					<path id="Rectangle-130-Copy-38" class="st6" d="M12,1329.7c5.1,0,9.2,4.1,9.2,9.2v5.4c0,5.1-4.1,9.2-9.2,9.2s-9.2-4.1-9.2-9.2
						v-5.4C2.8,1333.8,6.9,1329.7,12,1329.7z"/>
					<path id="Rectangle-130-Copy-39" class="st6" d="M44.1,1329.7c5.1,0,9.2,4.1,9.2,9.2v5.4c0,5.1-4.1,9.2-9.2,9.2
						s-9.2-4.1-9.2-9.2v-5.4C35,1333.8,39.1,1329.7,44.1,1329.7z"/>
					<path id="Rectangle-130-Copy-40" class="st38" d="M13.4,1334.9c2.4,0,4.3,1.9,4.3,4.3v4.6c0,2.4-1.9,4.3-4.3,4.3
						s-4.3-1.9-4.3-4.3v-4.6C9,1336.9,11,1334.9,13.4,1334.9z"/>
					<g id="Group-3_2_" transform="translate(23.234280, 27.443651)">
						<g id="Group-2_2_">
							<path id="Rectangle-2-Copy-9" class="st39" d="M4.9,1318c2.7,0,5,2.2,5,5v1.7c0,2.7-2.2,5-5,5s-5-2.2-5-5v-1.7
								C-0.1,1320.2,2.1,1318,4.9,1318z"/>
							<path id="Combined-Shape-Copy-61" class="st40" d="M-2,1323.5c0.6-3.2,3.5-5.5,7.1-5.5c3.2,0,6.1,2.3,6.7,5.5l0,0v0.3
								c0,0.2-0.1,0.3-0.3,0.3l-6.4,1.1c-0.2,0-0.2,0-0.4,0l-6.4-1.1c-0.2,0-0.3-0.1-0.3-0.3V1323.5L-2,1323.5z"/>
							<path id="Rectangle_8_" class="st41" d="M3.8,1319.1c0.3-0.1,0.7-0.1,1-0.1c0.4,0,0.7,0,1.1,0.1c0.7,0.2,1.3,0.9,1.3,1.6
								c0,0.6-0.5,1.1-1.1,1.1H3.6c-0.6,0-1.1-0.5-1.1-1.1C2.5,1320,3,1319.3,3.8,1319.1z"/>
						</g>
					</g>
					<path id="Rectangle-130-Copy-41" class="st38" d="M42.7,1334.9c2.4,0,4.3,1.9,4.3,4.3v4.6c0,2.4-1.9,4.3-4.3,4.3
						c-2.4,0-4.3-1.9-4.3-4.3v-4.6C38.4,1336.9,40.3,1334.9,42.7,1334.9z"/>
					<ellipse id="Oval-10-Copy-4" class="st6" cx="9.7" cy="1337.4" rx="2.8" ry="2.8"/>
					<ellipse id="Oval-10-Copy-5" class="st6" cx="38.6" cy="1337.4" rx="2.8" ry="2.8"/>
				</g>
			</g>
		</g>
	</g>
</g>
<g id="troubleshooting">
	<g id="Group-5-Copy-3" transform="translate(6.000000, 6.000000)">
		<path id="Rectangle-3_40_" class="st15" d="M55.4,1382H10.6c-4.9,0-6.7,0.6-8.5,1.5c-2,1-3.5,2.6-4.5,4.5c-1,1.8-1.5,3.6-1.5,8.5
			v28.9c0,4.9,0.6,6.7,1.5,8.5c1,2,2.6,3.5,4.5,4.5c1.8,1,3.6,1.5,8.5,1.5h44.9c4.9,0,6.7-0.6,8.5-1.5c2-1,3.5-2.6,4.5-4.5
			c1-1.8,1.5-3.6,1.5-8.5v-28.9c0-4.9-0.6-6.7-1.5-8.5c-1-2-2.6-3.5-4.5-4.5C62.1,1382.6,60.4,1382,55.4,1382z"/>
		
			<g id="Group_38_" transform="translate(33.627417, 26.627417) scale(-1, 1) rotate(45.000000) translate(-33.627417, -26.627417) translate(26.627417, 1.627417)">
			<path id="Rectangle_9_" class="st42" d="M986.7,985L986.7,985c1.2,0,2.2,1,2.2,2.2v31.1c0,1.2-1,2.2-2.2,2.2l0,0
				c-1.2,0-2.2-1-2.2-2.2v-31.1C984.5,986,985.5,985,986.7,985z"/>
			<path id="Combined-Shape_4_" class="st43" d="M992.4,999.6c0.9,0,1.7,0.7,1.7,1.7v0.8c0,1.3-1.1,2.4-2.4,2.4l-0.3,0
				c1.7,1.2,2.7,3.2,2.7,5.4v10.6c0,3.7-3,6.7-6.7,6.7h-0.6c-3.7,0-6.7-3-6.7-6.7v-10.6c0-2.2,1.1-4.2,2.7-5.4l-0.3,0
				c-1.3,0-2.4-1.1-2.4-2.4v-0.8c0-0.9,0.7-1.7,1.7-1.7H992.4z"/>
			<path id="Rectangle_10_" class="st42" d="M985.5,977.6h2.7c0.4,0,0.7,0.3,0.8,0.6l1.8,6.5c0.1,0.2,0,0.4-0.1,0.6l-1.6,3.3
				c-0.1,0.3-0.4,0.5-0.7,0.5h-2.9c-0.3,0-0.6-0.2-0.7-0.5l-1.6-3.3c-0.1-0.2-0.1-0.4-0.1-0.6l1.8-6.5
				C984.8,977.8,985.1,977.6,985.5,977.6z"/>
			<path id="Rectangle_11_" class="st44" d="M987.1,1007L987.1,1007c0.6,0,1.2,0.5,1.2,1.2v14.6c0,0.6-0.5,1.2-1.2,1.2l0,0
				c-0.6,0-1.2-0.5-1.2-1.2v-14.6C986,1007.5,986.5,1007,987.1,1007z"/>
			<path id="Rectangle-Copy-2_1_" class="st44" d="M991,1008.6L991,1008.6c0.6,0,1.2,0.5,1.2,1.2v10.9c0,0.6-0.5,1.2-1.2,1.2l0,0
				c-0.6,0-1.2-0.5-1.2-1.2v-10.9C989.8,1009.2,990.3,1008.6,991,1008.6z"/>
			<path id="Rectangle-Copy-3_1_" class="st44" d="M982.9,1008.6L982.9,1008.6c0.6,0,1.2,0.5,1.2,1.2v10.9c0,0.6-0.5,1.2-1.2,1.2
				l0,0c-0.6,0-1.2-0.5-1.2-1.2v-10.9C981.7,1009.2,982.3,1008.6,982.9,1008.6z"/>
		</g>
		
			<g id="Group_39_" transform="translate(34.000000, 28.000000) rotate(45.000000) translate(-34.000000, -28.000000) translate(24.000000, 6.000000)">
			<path id="Combined-Shape_5_" class="st45" d="M990.3,992.3c1.7,0,3.2,1.4,3.2,3.2v22c0,3.3-2.7,5.9-5.9,5.9s-5.9-2.7-5.9-5.9v-22
				c0-1.7,1.4-3.2,3.2-3.2H990.3z M987.9,1014.8h-0.3c-0.1,0-0.2,0-0.3,0c-1.4,0.2-2.4,1.4-2.2,2.8l0,0l0.1,0.4c0,0,0,0,0,0
				c0.2,1.4,1.5,2.3,2.8,2.1c1.4-0.2,2.5-1.4,2.5-2.9l0,0v0C990.4,1015.9,989.3,1014.8,987.9,1014.8L987.9,1014.8z"/>
			<path id="Rectangle_12_" class="st42" d="M987.2,994.6L987.2,994.6c0.9,0,1.6,0.7,1.6,1.6v13.2c0,0.9-0.7,1.6-1.6,1.6l0,0
				c-0.9,0-1.6-0.7-1.6-1.6v-13.2C985.6,995.3,986.3,994.6,987.2,994.6z"/>
			<path id="Combined-Shape_6_" class="st45" d="M982.1,980.2c0.5,0,0.9,0.4,0.9,0.9l0,0v8.3c0,0.8,0.6,1.4,1.4,1.4l0,0h5.5
				c0.8,0,1.4-0.6,1.4-1.4l0,0v-8.3c0-0.2,0-0.3,0.1-0.4c0.2-0.4,0.8-0.6,1.2-0.3l0,0l0.8,0.4c2.3,1.7,3.7,4.4,3.7,7.5
				c0,5.2-4.2,9.4-9.4,9.4h-1.2c-5.2,0-9.4-4.2-9.4-9.4c0-3.1,1.5-5.8,3.7-7.5l0.8-0.4C981.8,980.3,982,980.2,982.1,980.2z"/>
		</g>
	</g>
</g>
<g id="teachers">
	<g id="Group-5-Copy-4" transform="translate(1.000000, 6.000000)">
		<path id="Rectangle-3_41_" class="st17" d="M60.4,1448H15.6c-4.9,0-6.7,0.6-8.5,1.5c-2,1-3.5,2.6-4.5,4.5c-1,1.8-1.5,3.6-1.5,8.5
			v28.9c0,4.9,0.6,6.7,1.5,8.5c1,2,2.6,3.5,4.5,4.5c1.8,1,3.6,1.5,8.5,1.5h44.9c4.9,0,6.7-0.6,8.5-1.5c2-1,3.5-2.6,4.5-4.5
			c1-1.8,1.5-3.6,1.5-8.5v-28.9c0-4.9-0.6-6.7-1.5-8.5c-1-2-2.6-3.5-4.5-4.5C67.1,1448.6,65.4,1448,60.4,1448z"/>
		<path id="Rectangle-3-Copy-4" class="st17" d="M60.4,1448H15.6c-4.9,0-6.7,0.6-8.5,1.5c-2,1-3.5,2.6-4.5,4.5
			c-1,1.8-1.5,3.6-1.5,8.5v28.9c0,4.9,0.6,6.7,1.5,8.5c1,2,2.6,3.5,4.5,4.5c1.8,1,3.6,1.5,8.5,1.5h44.9c4.9,0,6.7-0.6,8.5-1.5
			c2-1,3.5-2.6,4.5-4.5c1-1.8,1.5-3.6,1.5-8.5v-28.9c0-4.9-0.6-6.7-1.5-8.5c-1-2-2.6-3.5-4.5-4.5C67.1,1448.6,65.4,1448,60.4,1448z"
			/>
		<g id="Page-1" transform="translate(0.000000, 2.000000)">
			<g id="Group-112" transform="translate(0.000000, 1.148238)">
				<path id="Fill-82" class="st46" d="M50.3,1456.8h-2.2c-0.8,0-1.5,0.7-1.5,1.5c0,0.8,0.7,1.5,1.5,1.5h2.2c0.8,0,1.5-0.7,1.5-1.5
					C51.8,1457.4,51.2,1456.8,50.3,1456.8"/>
				<path id="Fill-83" class="st46" d="M50.3,1461h-2.2c-0.5,0-0.9,0.4-0.9,0.9c0,0.5,0.4,0.9,0.9,0.9h2.2c0.5,0,0.9-0.4,0.9-0.9
					C51.2,1461.4,50.8,1461,50.3,1461"/>
				<path id="Fill-84" class="st47" d="M50.3,1476.2h-2.2c-0.5,0-0.9,0.4-0.9,0.9c0,0.5,0.4,0.9,0.9,0.9h2.2c0.5,0,0.9-0.4,0.9-0.9
					C51.2,1476.6,50.8,1476.2,50.3,1476.2"/>
				<path id="Fill-87" class="st48" d="M32.1,1456.8h-2.2c-0.8,0-1.5,0.7-1.5,1.5c0,0.8,0.7,1.5,1.5,1.5h2.2c0.8,0,1.5-0.7,1.5-1.5
					C33.7,1457.4,33,1456.8,32.1,1456.8"/>
				<path id="Fill-88" class="st48" d="M32.1,1461h-2.2c-0.5,0-0.9,0.4-0.9,0.9c0,0.5,0.4,0.9,0.9,0.9h2.2c0.5,0,0.9-0.4,0.9-0.9
					C33,1461.4,32.6,1461,32.1,1461"/>
				<path id="Fill-89" class="st49" d="M31.5,1472.9h-0.9c-0.8,0-1.5,0.7-1.5,1.5v2.1c0,0.8,0.7,1.5,1.5,1.5h0.9
					c0.8,0,1.5-0.7,1.5-1.5v-2.1C33,1473.5,32.3,1472.9,31.5,1472.9"/>
				<path id="Fill-94" class="st50" d="M23.5,1472.9h-0.9c-0.8,0-1.5,0.7-1.5,1.5v2.1c0,0.8,0.7,1.5,1.5,1.5h0.9
					c0.8,0,1.5-0.7,1.5-1.5v-2.1C24.9,1473.5,24.3,1472.9,23.5,1472.9"/>
				<path id="Fill-105" class="st51" d="M43,1450.6h-5.7c-1.2,0-2.1,1-2.1,2.1v26.2c0,1.2,0.9,2.1,2.1,2.1H43c1.2,0,2.1-1,2.1-2.1
					v-26.2C45.1,1451.5,44.2,1450.6,43,1450.6"/>
				<path id="Fill-106" class="st50" d="M40.3,1457.1H40c-0.8,0-1.5,0.7-1.5,1.5v8.3c0,0.8,0.7,1.5,1.5,1.5h0.3
					c0.8,0,1.5-0.7,1.5-1.5v-8.3C41.8,1457.8,41.1,1457.1,40.3,1457.1"/>
				<polygon id="Fill-107" class="st50" points="35.5,1455.2 45.1,1455.2 45.1,1453.8 35.5,1453.8 				"/>
				<path id="Fill-108" class="st50" d="M41.6,1476.2h-2.9c-0.5,0-0.9,0.4-0.9,0.9c0,0.5,0.4,0.9,0.9,0.9h2.9c0.5,0,0.9-0.4,0.9-0.9
					C42.5,1476.6,42.1,1476.2,41.6,1476.2"/>
			</g>
			<g id="Group-145" transform="translate(11.459259, 0.342475)">
				<path id="Fill-113" class="st52" d="M43,1462.2c0,6.7-5.4,12.2-12,12.2c-6.7,0-12-5.4-12-12.2s5.4-12.2,12-12.2
					C37.6,1450,43,1455.4,43,1462.2"/>
				<path id="Fill-115" class="st53" d="M39.9,1471.7c0,8.9-7.2,16.1-16,16.1s-16-7.2-16-16.1c0-8.9,7.2-16.1,16-16.1
					S39.9,1462.8,39.9,1471.7"/>
				<path id="Fill-117" class="st53" d="M44.7,1474.8c0,9.2-7.4,16.7-16.5,16.7c-9.1,0-16.5-7.5-16.5-16.7s7.4-16.7,16.5-16.7
					C37.4,1458.1,44.7,1465.6,44.7,1474.8"/>
				<path id="Fill-125" class="st54" d="M4.5,1480.9c0,3.4,2.8,6.2,6.2,6.2s6.2-2.8,6.2-6.2s-2.8-6.2-6.2-6.2S4.5,1477.5,4.5,1480.9
					"/>
				<path id="Fill-127" class="st53" d="M31.7,1456.5c2.1,2.2,1.9,5.9-0.6,8.4s-6.2,2.7-8.3,0.5L31.7,1456.5z"/>
				<path id="Stroke-129" class="st55" d="M31.7,1456.5c2.1,2.2,1.9,5.9-0.6,8.4s-6.2,2.7-8.3,0.5L31.7,1456.5z"/>
				<path id="Fill-135" class="st53" d="M31.4,1470.5c-2.9-0.8-4.6-4.1-3.8-7.5s3.9-5.5,6.9-4.7L31.4,1470.5z"/>
				<path id="Stroke-137" class="st56" d="M31.4,1470.5c-2.9-0.8-4.6-4.1-3.8-7.5s3.9-5.5,6.9-4.7L31.4,1470.5z"/>
				<path id="Fill-141" class="st54" d="M36.2,1480.9c0,3.4,2.8,6.2,6.2,6.2s6.2-2.8,6.2-6.2s-2.8-6.2-6.2-6.2
					S36.2,1477.5,36.2,1480.9"/>
			</g>
			<g id="Group-213" transform="translate(14.437037, 6.589681)">
				<path id="Fill-157" class="st57" d="M23.5,1491.6H23c-8.7,0-15.9-7.2-15.9-16v-5.8c0-8.8,7.1-16,15.9-16h0.6
					c8.7,0,15.9,7.2,15.9,16v5.8C39.4,1484.4,32.3,1491.6,23.5,1491.6"/>
				<path id="Fill-159" class="st58" d="M30,1473.5L30,1473.5c-1.2,0-2.1-1-2.1-2.1v-4c0-1.2,1-2.1,2.1-2.1c1.2,0,2.1,1,2.1,2.1v4
					C32.1,1472.6,31.2,1473.5,30,1473.5"/>
				<path id="Fill-161" class="st57" d="M31.3,1473.8h-2.6c-0.9,0-1.7-0.8-1.7-1.7s0.7-1.7,1.7-1.7h2.6c0.9,0,1.7,0.8,1.7,1.7
					S32.2,1473.8,31.3,1473.8"/>
				<path id="Fill-163" class="st58" d="M16.7,1473.5L16.7,1473.5c-1.2,0-2.1-1-2.1-2.1v-4c0-1.2,1-2.1,2.1-2.1c1.2,0,2.1,1,2.1,2.1
					v4C18.8,1472.6,17.9,1473.5,16.7,1473.5"/>
				<path id="Fill-165" class="st57" d="M18,1473.8h-2.6c-0.9,0-1.7-0.8-1.7-1.7s0.7-1.7,1.7-1.7H18c0.9,0,1.7,0.8,1.7,1.7
					S18.9,1473.8,18,1473.8"/>
				<path id="Fill-167" class="st59" d="M10.6,1476.9c0,0.3,0.2,0.5,0.4,0.5c0.2,0,0.4-0.2,0.4-0.5c0-0.3-0.2-0.5-0.4-0.5
					C10.8,1476.4,10.6,1476.6,10.6,1476.9"/>
				<path id="Fill-169" class="st59" d="M36.1,1477.1c0.2,0.1,0.5,0.1,0.6-0.1s0.1-0.5-0.1-0.6c-0.2-0.1-0.5-0.1-0.6,0.1
					C35.8,1476.7,35.9,1477,36.1,1477.1"/>
				<path id="Fill-171" class="st54" d="M24.8,1480.4h-2.9c-1,0-1.8-0.6-1.8-1.3v-7.3c0-0.7,0.8-1.3,1.8-1.3h2.9
					c1,0,1.8,0.6,1.8,1.3v7.3C26.6,1479.8,25.8,1480.4,24.8,1480.4"/>
				<path id="Fill-173" class="st59" d="M12.3,1475.2c0,0.4,0.3,0.7,0.6,0.7c0.4,0,0.6-0.3,0.6-0.7c0-0.4-0.3-0.7-0.6-0.7
					C12.5,1474.6,12.3,1474.9,12.3,1475.2"/>
				<path id="Fill-175" class="st59" d="M9.8,1473.4c0,0.4,0.3,0.7,0.6,0.7c0.4,0,0.6-0.3,0.6-0.7c0-0.4-0.3-0.7-0.6-0.7
					C10.1,1472.7,9.8,1473,9.8,1473.4"/>
				<path id="Fill-177" class="st59" d="M33.1,1475.2c0,0.4,0.3,0.7,0.6,0.7c0.4,0,0.6-0.3,0.6-0.7c0-0.4-0.3-0.7-0.6-0.7
					C33.4,1474.6,33.1,1474.9,33.1,1475.2"/>
				<path id="Fill-179" class="st59" d="M35.3,1474c0,0.4,0.3,0.7,0.6,0.7c0.4,0,0.6-0.3,0.6-0.7c0-0.4-0.3-0.7-0.6-0.7
					C35.6,1473.3,35.3,1473.6,35.3,1474"/>
				<line id="Stroke-197" class="st60" x1="20.5" y1="1471" x2="26.2" y2="1471"/>
				<path id="Fill-199" class="st53" d="M38.1,1468.2c1.1,0.6,2.2,0.2,2.9-0.7c-0.5-8-6.4-14.6-14-16.1
					C27.6,1458.7,31.9,1465,38.1,1468.2"/>
				<path id="Fill-201" class="st53" d="M30.2,1453.6c-2.5-2-5.7-3.2-9.2-3.2c-8.2,0-14.9,6.7-14.9,15c0,0.7,0.1,1.5,0.2,2.2
					C15.9,1466.1,24.3,1461,30.2,1453.6"/>
				<g id="Group-9" transform="translate(11.853553, 15.557367)">
					<path id="Stroke-207" class="st61" d="M3.6,1448.5c-1.9,0-3.7,0.8-4.9,2.1c-1.3,1.3-2,3-2,5c0,1.9,0.8,3.7,2,5
						c1.3,1.3,3,2.1,4.9,2.1s3.7-0.8,4.9-2.1c1.3-1.3,2-3,2-5c0-1.9-0.8-3.7-2-5C7.3,1449.3,5.6,1448.5,3.6,1448.5z"/>
					<path id="Combined-Shape_7_" class="st62" d="M3.6,1450c1.3,0,2.5,0.5,3.4,1.2l-7.7,7.7c-0.7-0.9-1.2-2.1-1.2-3.4
						C-1.8,1452.5,0.6,1450,3.6,1450z"/>
				</g>
				<g id="Group-9-Copy" transform="translate(27.853553, 15.557367)">
					<path id="Stroke-207_1_" class="st61" d="M3.6,1448.5c-1.9,0-3.7,0.8-4.9,2.1c-1.3,1.3-2,3-2,5c0,1.9,0.8,3.7,2,5
						c1.3,1.3,3,2.1,4.9,2.1s3.7-0.8,4.9-2.1c1.3-1.3,2-3,2-5c0-1.9-0.8-3.7-2-5C7.3,1449.3,5.6,1448.5,3.6,1448.5z"/>
					<path id="Combined-Shape_8_" class="st62" d="M3.6,1450c1.3,0,2.5,0.5,3.4,1.2l-7.7,7.7c-0.7-0.9-1.2-2.1-1.2-3.4
						C-1.8,1452.5,0.6,1450,3.6,1450z"/>
				</g>
			</g>
		</g>
		<path id="Combined-Shape-Copy_1_" class="st63" d="M59.1,1486l0.1,4.3l1.4,12.3c-1,0.3-2.3,0.4-4.3,0.4H19.5
			c-2.3,0-3.7-0.2-4.7-0.5l1.9-11.8l-0.1-4.6l19.6,8c1,0.4,2.1,0.4,3,0L59.1,1486z"/>
		<path id="Combined-Shape_9_" class="st3" d="M63.8,1487l0.1,4.3l1.8,12.3c-1.2,0.3-2.8,0.4-5.2,0.4H15.6c-2.8,0-4.5-0.2-5.7-0.5
			l2.3-11.8L12,1487l24.5,8.2c0.8,0.3,1.7,0.3,2.5,0L63.8,1487z"/>
		<path id="Combined-Shape_10_" class="st8" d="M10,1489.4c0.4,0,0.8,0.1,1.2,0.2l25.9,8c0.8,0.2,1.6,0.2,2.4,0l25.3-8
			c2.1-0.7,4.4,0.5,5,2.6c0.1,0.4,0.2,0.8,0.2,1.2l0,7.8c-0.6,0.6-1.3,1.1-2,1.5c-1.6,0.9-3.2,1.3-7.5,1.3H15.6
			c-4.4,0-6-0.5-7.5-1.3c-0.7-0.4-1.4-0.9-2-1.5l0-7.8C6,1491.2,7.8,1489.4,10,1489.4z"/>
		<path id="Combined-Shape_11_" class="st64" d="M69.8,1492.2c0.1,0.4,0.2,0.8,0.2,1.2v7.8c-0.6,0.6-1.3,1.1-2,1.5
			c-1.6,0.9-3.2,1.3-7.5,1.3l-22.4,0l0-6.2c0.5,0,1,0,1.5-0.2l25.3-8C66.9,1489,69.1,1490.1,69.8,1492.2z"/>
	</g>
</g>
<g id="la">
	<g id="Group_40_" transform="translate(6.000000, 6.000000)">
		<path id="Rectangle-3_42_" class="st10" d="M55.4,1514H10.6c-4.9,0-6.7,0.6-8.5,1.5c-2,1-3.5,2.6-4.5,4.5c-1,1.8-1.5,3.6-1.5,8.5
			v28.9c0,4.9,0.6,6.7,1.5,8.5c1,2,2.6,3.5,4.5,4.5c1.8,1,3.6,1.5,8.5,1.5h44.9c4.9,0,6.7-0.6,8.5-1.5c2-1,3.5-2.6,4.5-4.5
			c1-1.8,1.5-3.6,1.5-8.5v-28.9c0-4.9-0.6-6.7-1.5-8.5c-1-2-2.6-3.5-4.5-4.5C62.1,1514.6,60.4,1514,55.4,1514z"/>
	</g>
	<g id="Group-7_1_" transform="translate(19.000000, 15.000000)">
		<g id="Group_42_" transform="translate(0.806452, 0.096774)">
			<g id="Group-5">
				<g id="Group-4_1_">
					<g id="Group-3_3_">
						<g id="Group-2_3_">
							<path id="Shape_2_" class="st65" d="M4.7,1528.1c-0.2,1-0.3,2.1-0.3,3.2c0,1.3,0.2,2.6,0.5,3.9 M10,1542.9
								c2.5,1.9,5.6,3.1,9,3.1c3.9,0.5,7.1,2.5,9.8,5.9"/>
							<path id="Rectangle_13_" class="st33" d="M7,1523l0.1-0.6c0.3-3.5,3.4-6.2,7-5.9l0.6,0.1l0,0l-0.1,0.6
								c-0.3,3.5-3.4,6.2-7,5.9L7,1523L7,1523z"/>
							<path id="Rectangle-Copy_1_" class="st33" d="M3.7,1530.2l-0.6-0.5c-2.8-2.2-3.2-6.3-1-9.1l0.5-0.6l0,0l0.6,0.5
								c2.8,2.2,3.2,6.3,1,9.1L3.7,1530.2L3.7,1530.2z"/>
							<path id="Rectangle-Copy_2_" class="st33" d="M10.1,1543.9l-0.7,0.2c-3.4,1.1-7-0.8-8.1-4.1l-0.2-0.7l0,0l0.7-0.2
								c3.4-1.1,7,0.8,8.1,4.1L10.1,1543.9L10.1,1543.9z"/>
							<path id="Rectangle-Copy_3_" class="st33" d="M11.2,1543.8l0.4-0.7c1.7-3.1,0.5-7.1-2.7-8.7l-0.7-0.4l0,0l-0.4,0.7
								c-1.7,3.1-0.5,7.1,2.7,8.7L11.2,1543.8L11.2,1543.8z"/>
							<path id="Rectangle-Copy_4_" class="st33" d="M3.2,1531.5l0.1-0.8c0.5-3.5,3.8-6,7.3-5.5l0.8,0.1l0,0l-0.1,0.8
								c-0.5,3.5-3.8,6-7.3,5.5L3.2,1531.5L3.2,1531.5z"/>
						</g>
					</g>
				</g>
				
					<g id="Group_41_" transform="translate(27.000000, 17.935484) scale(-1, 1) translate(-27.000000, -17.935484) translate(11.612903, 0.000000)">
					<g id="Group-4_2_">
						<g id="Group-3_4_">
							<g id="Group-2_4_">
								<path id="Shape_3_" class="st65" d="M8.7,1528.1c-0.2,1-0.3,2.1-0.3,3.2c0,1.3,0.2,2.6,0.5,3.9 M14,1542.9
									c2.5,1.9,5.6,3.1,9,3.1c3.9,0.5,7.1,2.5,9.8,5.9"/>
								<path id="Rectangle_14_" class="st33" d="M11,1523l0.1-0.6c0.3-3.5,3.4-6.2,7-5.9l0.6,0.1l0,0l-0.1,0.6
									c-0.3,3.5-3.4,6.2-7,5.9L11,1523L11,1523z"/>
								<path id="Rectangle-Copy_5_" class="st33" d="M7.7,1530.2l-0.6-0.5c-2.8-2.2-3.2-6.3-1-9.1l0.5-0.6l0,0l0.6,0.5
									c2.8,2.2,3.2,6.3,1,9.1L7.7,1530.2L7.7,1530.2z"/>
								<path id="Rectangle-Copy_6_" class="st33" d="M14.1,1543.9l-0.7,0.2c-3.4,1.1-7-0.8-8.1-4.1l-0.2-0.7l0,0l0.7-0.2
									c3.4-1.1,7,0.8,8.1,4.1L14.1,1543.9L14.1,1543.9z"/>
								<path id="Rectangle-Copy_7_" class="st33" d="M15.2,1543.8l0.4-0.7c1.7-3.1,0.5-7.1-2.7-8.7l-0.7-0.4l0,0l-0.4,0.7
									c-1.7,3.1-0.5,7.1,2.7,8.7L15.2,1543.8L15.2,1543.8z"/>
								<path id="Rectangle-Copy_8_" class="st33" d="M7.2,1531.5l0.1-0.8c0.5-3.5,3.8-6,7.3-5.5l0.8,0.1l0,0l-0.1,0.8
									c-0.5,3.5-3.8,6-7.3,5.5L7.2,1531.5L7.2,1531.5z"/>
							</g>
						</g>
					</g>
				</g>
			</g>
		</g>
	</g>
</g>
<g id="gd">
	<g id="Group_43_" transform="translate(6.000000, 6.000000)">
		<path id="Rectangle-3_43_" class="st15" d="M55.4,1580H10.6c-4.9,0-6.7,0.6-8.5,1.5c-2,1-3.5,2.6-4.5,4.5c-1,1.8-1.5,3.6-1.5,8.5
			v28.9c0,4.9,0.6,6.7,1.5,8.5c1,2,2.6,3.5,4.5,4.5c1.8,1,3.6,1.5,8.5,1.5h44.9c4.9,0,6.7-0.6,8.5-1.5c2-1,3.5-2.6,4.5-4.5
			c1-1.8,1.5-3.6,1.5-8.5v-28.9c0-4.9-0.6-6.7-1.5-8.5c-1-2-2.6-3.5-4.5-4.5C62.1,1580.6,60.4,1580,55.4,1580z"/>
	</g>
	<g id="Group-10_1_" transform="translate(6.000000, 6.000000)">
		<g id="Group-6">
			<path class="st66" d="M55.4,1580H10.6c-4.9,0-6.7,0.6-8.5,1.5c-2,1-3.5,2.6-4.5,4.5c-1,1.8-1.5,3.6-1.5,8.5v28.9
				c0,4.9,0.6,6.7,1.5,8.5c1,2,2.6,3.5,4.5,4.5c1.8,1,3.6,1.5,8.5,1.5h44.9c4.9,0,6.7-0.6,8.5-1.5c2-1,3.5-2.6,4.5-4.5
				c1-1.8,1.5-3.6,1.5-8.5v-28.9c0-4.9-0.6-6.7-1.5-8.5c-1-2-2.6-3.5-4.5-4.5C62.1,1580.6,60.4,1580,55.4,1580z"/>
			<defs>
				<filter id="Adobe_OpacityMaskFilter" filterUnits="userSpaceOnUse" x="-1.8" y="1582.5" width="69.7" height="53.1">
					<feColorMatrix  type="matrix" values="1 0 0 0 0  0 1 0 0 0  0 0 1 0 0  0 0 0 1 0"/>
				</filter>
			</defs>
			<mask maskUnits="userSpaceOnUse" x="-1.8" y="1582.5" width="69.7" height="53.1" id="mask-2_1_">
				<g class="st67">
					<path id="path-1_1_" class="st6" d="M10.6,1582h44.9c4.4,0,6,0.5,7.5,1.3c1.6,0.9,2.9,2.1,3.7,3.7s1.3,3.2,1.3,7.5v28.9
						c0,4.4-0.5,6-1.3,7.5s-2.1,2.9-3.7,3.7c-1.6,0.9-3.2,1.3-7.5,1.3H10.6c-4.4,0-6-0.5-7.5-1.3s-2.9-2.1-3.7-3.7s-1.3-3.2-1.3-7.5
						v-28.9c0-4.4,0.5-6,1.3-7.5s2.1-2.9,3.7-3.7S6.2,1582,10.6,1582z"/>
				</g>
			</mask>
			<path id="Path_78_" class="st68" d="M61.5,1582.7c0.5,0.2,1,0.4,1.5,0.6c1.6,0.9,2.9,2.1,3.7,3.7c0.6,1.2,1,2.3,1.2,4.6
				L43.1,1609l24.8,17.4c-0.2,2.3-0.6,3.4-1.2,4.6c-0.9,1.6-2.1,2.9-3.7,3.7c-0.5,0.2-0.9,0.5-1.5,0.6l-28-19.6l-28.3,19.8
				c-0.9-0.2-1.5-0.5-2.2-0.9c-1.6-0.9-2.9-2.1-3.7-3.7c-0.6-1.1-1-2.1-1.2-4l25.8-18l-25.8-18c0.2-1.8,0.6-2.9,1.2-4
				c0.9-1.6,2.1-2.9,3.7-3.7c0.7-0.4,1.3-0.6,2.2-0.9l28.3,19.8L61.5,1582.7z"/>
		</g>
	</g>
</g>
<g id="fi">
	<g id="Group_44_" transform="translate(6.000000, 6.000000)">
		<path id="Rectangle-3_44_" class="st7" d="M55.4,1646H10.6c-4.9,0-6.7,0.6-8.5,1.5c-2,1-3.5,2.6-4.5,4.5c-1,1.8-1.5,3.6-1.5,8.5
			v28.9c0,4.9,0.6,6.7,1.5,8.5c1,2,2.6,3.5,4.5,4.5c1.8,1,3.6,1.5,8.5,1.5h44.9c4.9,0,6.7-0.6,8.5-1.5c2-1,3.5-2.6,4.5-4.5
			c1-1.8,1.5-3.6,1.5-8.5v-28.9c0-4.9-0.6-6.7-1.5-8.5c-1-2-2.6-3.5-4.5-4.5C62.1,1646.6,60.4,1646,55.4,1646z"/>
		<polygon id="Path_79_" class="st25" points="29,1669 68,1669 68,1681 29,1681 29,1702 17,1702 17,1681 -2,1681 -2,1669 17,1669 
			17,1648 29,1648 		"/>
	</g>
</g>
<g id="Yiddish">
	<path id="Rectangle-3_45_" class="st69" d="M63.1,1718c0.3,0,0.5,0,0.8,0l0,0l0.7,0l1,0c0.2,0,0.4,0,0.6,0l0,0l0.6,0.1
		c1.3,0.1,2.3,0.4,3.1,0.7c3.7,1.8,5.1,3.4,6.1,5.2c0.8,1.8,1,2.5,1.2,3.4c0.2,1.3,0.2,1.4,0.2,1.6l0,0l0,0.6l0,0.6l0,1l0,1.2v28.7
		l0,0.8l0,1.1l0,0.7c0,0.5-0.1,1-0.1,1.5c-0.3,2-0.6,2.7-0.8,3.4c-1.6,3.1-3.1,4.5-5,5.6c-2.7,1-3.6,1.2-4.4,1.3l-0.2,0l0,0l-0.1,0
		l-0.6,0.1l-0.6,0l-1,0l-0.7,0l-45.8,0l-0.8,0l-1,0l-0.9-0.1l-0.6-0.1c-1-0.1-1.8-0.3-2.5-0.5c-4.4-2-5.8-3.6-6.8-5.4
		c-1.1-2.5-1.2-3.5-1.4-4.7l0,0l-0.1-0.6l-0.1-0.9c0-0.2,0-0.5,0-0.7l0,0l0-0.7l0-0.8v-28.7c0-0.3,0-0.5,0-0.8l0,0l0-0.7l0-1
		c0-0.2,0-0.4,0-0.6l0,0l0.1-0.6c0.1-1.3,0.4-2.3,0.7-3.1c1.8-3.7,3.4-5.1,5.2-6.1c2.5-1.1,3.5-1.2,4.7-1.4l0,0l0.6-0.1l0.9-0.1
		c0.2,0,0.5,0,0.7,0l0,0l0.7,0L63.1,1718z"/>
	<path id="Path_80_" class="st19" d="M28.3,1727c0.2,0,0.3,0.1,0.5,0.2l23.7,17.1c1.2,0.9,2,2.3,2,3.9v6.3c0,0.4-0.4,0.8-0.8,0.8
		c-0.2,0-0.3-0.1-0.5-0.2l-16.9-12.2c0.1,0.3,0.2,0.7,0.2,1.1v11.2c0,0.4-0.4,0.8-0.8,0.8H32c-2.5,0-4.5-2-4.5-4.5v-5.8
		c0-2.5,2-4.5,4.5-4.5h1.7c0.1,0,0.1,0,0.2,0l-4.4-3.1c-1.2-0.9-2-2.3-2-3.9v-6.3C27.5,1727.4,27.9,1727,28.3,1727z"/>
	<path id="Path_81_" class="st16" d="M47.1,1725.2l-2.7,3.8c-1.6,2.3-1.1,5.5,1.2,7.1l5.4,3.8c0.3,0.2,0.6,0.1,0.8-0.1l2.7-3.8
		c1.6-2.3,1.1-5.5-1.2-7.1l-5.4-3.8C47.6,1724.9,47.3,1725,47.1,1725.2z"/>
	<path id="Path_82_" class="st19" d="M46.6,1761c1.1,0,1.9,0.9,1.9,2c0,1.1-0.9,2-1.9,2l-3,0l0.4,2.5c0.2,1.2-0.6,2.2-1.7,2.4
		c-0.1,0-0.2,0-0.3,0c-1.1,0-2-0.9-2-2.1c0-0.1,0-0.2,0-0.3l0.4-2.5l-2.9,0c-1.1,0-1.9-0.9-1.9-2c0-1.1,0.9-2,1.9-2H46.6z"/>
</g>
</svg>
