<svg width="40" height="40" viewBox="0 0 40 40" fill="none" xmlns="http://www.w3.org/2000/svg"><path fill-rule="evenodd" clip-rule="evenodd" d="M18.7421 8.10358L22.5186 15.1351L17.3731 18.4374C16.2745 19.1425 15.9033 20.5742 16.521 21.7242L18.7025 25.786C19.0944 26.5158 20.0038 26.7897 20.7337 26.3977C21.4635 26.0058 21.7374 25.0964 21.3454 24.3665L19.3828 20.7123L24.5282 17.41C25.6269 16.7049 25.998 15.2732 25.3804 14.1231L21.9151 7.67104C23.4107 6.76987 25.1723 6.25 27.058 6.25C32.4798 6.25 36.8751 10.5477 36.8751 15.8491C36.8751 18.8596 35.4578 21.5464 33.24 23.3063L22.4494 33.0211C21.1922 34.1529 19.2878 34.1677 18.0131 33.0556L7.2836 23.6942C4.76779 21.9561 3.125 19.0902 3.125 15.8491C3.125 10.5477 7.52027 6.25 12.9421 6.25C15.1118 6.25 17.1171 6.93822 18.7421 8.10358Z" fill="#2B70C9"/></svg>