<svg width="23" height="22" viewBox="0 0 23 22" version="1.1" xmlns="http://www.w3.org/2000/svg"><g stroke="none" stroke-width="1" fill="none" fill-rule="evenodd"><g fill="#FFF" fill-rule="nonzero"><g><g><g><path d="M10.728 20.213a6 6 0 1 1-8.485-8.485 6 6 0 0 1 8.485 8.485zM9.314 18.8a4 4 0 1 0-5.657-5.657A4 4 0 0 0 9.314 18.8z"/><path d="M19.167 4.703l-1.415 1.415 1.591 1.59a1 1 0 1 1-1.414 1.415l-1.59-1.591-4.894 4.893a1 1 0 0 1-1.414-1.414L20.213.828a1 1 0 0 1 1.414 1.415l-1.046 1.046 1.59 1.591a1 1 0 1 1-1.413 1.414l-1.591-1.59z"/></g></g></g></g></g></svg>