<svg width="36" height="29" viewBox="0 0 36 29" version="1.1" xmlns="http://www.w3.org/2000/svg"><title>add course</title><g stroke="none" stroke-width="1" fill="none" fill-rule="evenodd"><g stroke="#AFAFAF"><path d="M7.743 3c-1.67 0-2.315.125-2.98.48A3.071 3.071 0 0 0 3.48 4.763c-.355.665-.48 1.31-.48 2.98v13.514c0 1.67.125 2.315.48 2.98.297.555.728.986 1.283 1.283.665.355 1.31.48 2.98.48h20.514c1.67 0 2.315-.125 2.98-.48a3.071 3.071 0 0 0 1.283-1.283c.355-.665.48-1.31.48-2.98V7.743c0-1.67-.125-2.315-.48-2.98a3.071 3.071 0 0 0-1.283-1.283c-.665-.355-1.31-.48-2.98-.48H7.743z" stroke-width="2"/><g stroke-linecap="round" stroke-width="3"><path d="M18 10v9M13.5 14.5h9"/></g></g></g></svg>