<svg width="129" height="30" viewBox="0 0 129 30" fill="none" xmlns="http://www.w3.org/2000/svg"><g clip-path="url(#clip0)"><path d="M111.235 15C111.235 10.256 114.849 6.91265 119.639 6.91265C124.428 6.91265 128.042 10.256 128.042 15C128.042 19.6536 124.428 23.0873 119.639 23.0873C114.849 23.0873 111.235 19.6988 111.235 15ZM123.298 15C123.298 12.7861 121.898 11.1596 119.684 11.1596C117.47 11.1596 116.069 12.7861 116.069 15C116.069 17.2139 117.47 18.8404 119.684 18.8404C121.898 18.8404 123.298 17.259 123.298 15ZM108.072 11.25C108.389 11.8825 108.524 12.5602 108.524 13.2831C108.524 15 107.62 16.5813 106.175 17.8012C108.163 18.75 109.337 21.0542 109.337 23.2229C109.337 27.2892 106.039 30 101.024 30C96.009 30 92.7108 27.3343 92.7108 23.2229C92.7108 21.009 93.8855 18.7952 95.8735 17.8012C94.3825 16.5813 93.5241 15 93.5241 13.2831C93.5241 9.71386 96.3253 7.09337 100.753 7.09337C103.373 7.09337 104.142 7.54518 105.633 7.54518C106.627 7.54518 107.304 7.40964 108.524 6.77711C108.931 6.5512 109.247 6.46084 109.518 6.46084C110.105 6.46084 110.422 7.04819 110.422 7.77108C110.467 9.35241 109.744 10.6627 108.072 11.25ZM104.684 23.0873C104.684 21.2801 103.283 20.0151 101.069 20.0151C98.8554 20.0151 97.4548 21.2349 97.4548 23.0873C97.4548 24.8042 98.991 26.1596 101.069 26.1596C103.102 26.1596 104.684 24.8042 104.684 23.0873ZM98.1325 13.5542C98.1325 15.0904 99.4428 16.3102 101.024 16.3102C102.651 16.3102 103.916 15.0904 103.916 13.5542C103.916 11.9277 102.741 10.7982 101.024 10.7982C99.3524 10.7982 98.1325 11.8825 98.1325 13.5542ZM90.5422 15.3163V20.9639C90.5422 22.0482 90.1355 22.5 88.9608 22.5H87.3795C86.2048 22.5 85.7982 22.0482 85.7982 20.9639V15.4518C85.7982 14.0512 85.5723 13.0572 85.0753 12.4247C84.5331 11.747 83.7199 11.3855 82.6807 11.3855C81.6867 11.3855 80.7831 11.747 80.1958 12.4247C79.6536 13.0572 79.2922 14.0512 79.2922 15.4066V20.9187C79.2922 22.0482 78.8404 22.4548 77.7108 22.4548H76.1295C75.0452 22.4548 74.5482 22.0482 74.5482 20.9187V8.26807C74.5482 7.54518 74.9096 7.22892 75.4518 7.22892C76.2651 7.22892 77.3946 7.90663 78.253 9.21687C79.5181 7.7259 81.4608 6.95783 83.3584 6.95783C85.6626 6.95783 87.5151 7.77108 88.7349 9.12651C89.9548 10.5271 90.5422 12.3343 90.5422 15.3163ZM65.8735 2.5753C65.8735 1.12952 67.0482 0 68.5843 0C70.0301 0 71.2952 1.12952 71.2952 2.5753C71.2952 3.9759 70.0301 5.1506 68.5843 5.1506C67.0482 5.1506 65.8735 3.9759 65.8735 2.5753ZM66.1898 20.9639V9.08133C66.1898 7.99699 66.5964 7.54518 67.7711 7.54518H69.3524C70.5271 7.54518 70.9337 7.99699 70.9337 9.08133V20.9639C70.9337 22.0482 70.5271 22.5 69.3524 22.5H67.7711C66.5964 22.5 66.1898 22.0482 66.1898 20.9639ZM57.8313 20.9639V6.05422C57.8313 2.30422 59.9548 0.180723 61.6717 0.180723C62.2139 0.180723 62.5753 0.542169 62.5753 1.21988V20.9187C62.5753 22.0482 62.1235 22.4548 60.994 22.4548H59.4126C58.3283 22.5 57.8313 22.0934 57.8313 20.9639ZM38.3133 15C38.3133 10.256 41.9277 6.91265 46.7169 6.91265C51.506 6.91265 55.1205 10.256 55.1205 15C55.1205 19.6536 51.506 23.0873 46.7169 23.0873C41.9277 23.0873 38.3133 19.6988 38.3133 15ZM50.3313 15C50.3313 12.7861 48.9307 11.1596 46.7169 11.1596C44.503 11.1596 43.1024 12.7861 43.1024 15C43.1024 17.2139 44.503 18.8404 46.7169 18.8404C48.9307 18.8404 50.3313 17.259 50.3313 15ZM35.8735 9.08133V21.7319C35.8735 22.4548 35.512 22.7711 34.9699 22.7711C34.1566 22.7711 33.0271 22.0934 32.2139 20.8283C31.0392 22.2289 29.2319 23.0422 27.1988 23.0422C25.1657 23.0422 23.5392 22.3193 22.3193 21.2349C20.9187 19.8795 20.1506 17.8012 20.1506 14.8193V9.08133C20.1506 7.99699 20.5572 7.54518 21.7319 7.54518H23.3133C24.4879 7.54518 24.8946 7.99699 24.8946 9.08133V14.4127C24.8946 16.2199 25.2108 17.1687 25.7982 17.8012C26.2952 18.3434 27.0181 18.6145 27.9217 18.6145C28.8253 18.6145 29.6837 18.253 30.1807 17.6657C30.7681 17.0331 31.0843 16.0392 31.0843 14.503V9.08133C31.0843 7.95181 31.5361 7.54518 32.6657 7.54518H34.247C35.3765 7.5 35.8735 7.95181 35.8735 9.08133ZM16.8976 1.21988V21.7319C16.8976 22.4548 16.5361 22.7711 15.994 22.7711C15.1807 22.7711 14.0512 22.0934 13.238 20.8735C12.244 22.0482 10.2108 23.0873 7.86145 23.0873C3.16265 23.0873 0 19.6536 0 15C0 10.4367 3.20783 6.91265 7.86145 6.91265C9.57831 6.91265 11.0693 7.45482 12.1988 8.22289V6.05422C12.1988 2.30422 14.3223 0.180723 16.0392 0.180723C16.5813 0.180723 16.8976 0.542169 16.8976 1.21988ZM12.1988 15C12.1988 12.6958 10.5723 11.1596 8.53916 11.1596C6.46084 11.1596 4.83434 12.6958 4.83434 15C4.83434 17.3042 6.46084 18.8404 8.53916 18.8404C10.5723 18.8404 12.1988 17.3494 12.1988 15Z" fill="#58CC02"></path></g><defs><clipPath id="clip0"><rect width="128.042" height="30" fill="white"></rect></clipPath></defs></svg>