<svg width="164" height="164" viewBox="0 0 164 164" fill="none" xmlns="http://www.w3.org/2000/svg"><mask id="mask0" mask-type="alpha" maskUnits="userSpaceOnUse" x="0" y="0" width="164" height="164"><rect width="164" height="164" rx="37.4857" fill="white"/></mask><g mask="url(#mask0)"><rect width="164" height="164" fill="white"/><path d="M171.223 110.568L81.8145 150.259C77.0222 152.387 75.7058 158.557 79.2149 162.445C96.0745 181.125 123.492 187.022 147.113 176.535C170.735 166.049 184.685 141.787 182.044 116.795C181.495 111.594 176.015 108.44 171.223 110.568Z" fill="#58CC02"/><path d="M-7.22271 110.568L82.1858 150.259C86.9781 152.387 88.2944 158.557 84.7854 162.445C67.9258 181.125 40.5087 187.022 16.8872 176.535C-6.73438 166.049 -20.6852 141.787 -18.0442 116.795C-17.4945 111.594 -12.015 108.44 -7.22271 110.568Z" fill="#58CC02"/><path fill-rule="evenodd" clip-rule="evenodd" d="M50.4336 76.8253C65.9036 83.3638 76.5032 86.6331 82.2323 86.6331C87.9236 86.6331 98.3547 83.4069 113.525 76.9544C123.662 72.6429 135.375 77.3653 139.687 87.5024C140.737 89.9711 141.278 92.6263 141.278 95.3091V156.738C141.278 189.476 114.738 216.016 82.0002 216.016C49.262 216.016 22.7224 189.476 22.7224 156.738L22.7224 95.1976C22.7224 84.1817 31.6525 75.2516 42.6683 75.2516C45.3359 75.2516 47.9764 75.7867 50.4336 76.8253Z" fill="#58CC02"/><path d="M53.7495 86.0889L71.7056 105.568C72.6476 106.612 72.2968 108.268 71.0127 108.838C64.8432 111.577 57.4821 110.032 52.8388 104.885C48.1956 99.7391 47.4251 92.2717 50.7996 86.4349C51.502 85.2201 52.8075 85.0448 53.7495 86.0889Z" fill="#8EE000"/><path fill-rule="evenodd" clip-rule="evenodd" d="M69.3197 103.054C75.8328 109.646 87.3179 109.646 94.5725 103.054C101.827 96.4624 93.4821 141.444 93.4821 141.328C93.4821 141.273 89.6046 141.257 81.8496 141.28C78.7312 141.29 70.6136 141.328 70.6136 141.328C70.6136 141.328 62.8066 96.4624 69.3197 103.054Z" fill="#8EE000"/><path d="M43.882 90.7196L61.4569 110.199C62.3989 111.243 62.0481 112.898 60.764 113.468C54.5945 116.208 47.2334 114.662 42.5901 109.516C37.9469 104.37 37.1764 96.9023 40.551 91.0655C41.2533 89.8507 42.94 89.6755 43.882 90.7196Z" fill="#8EE000"/><path fill-rule="evenodd" clip-rule="evenodd" d="M52.1797 96.143H52.6732C65.6406 96.143 76.1527 106.655 76.1527 119.622V131.671C76.1527 144.638 65.6406 155.15 52.6732 155.15H52.1797C39.2123 155.15 28.7002 144.638 28.7002 131.671V119.622C28.7002 106.655 39.2123 96.143 52.1797 96.143Z" fill="#8EE000"/><path d="M110.001 86.0734L92.4265 105.552C91.4845 106.596 91.8353 108.252 93.1194 108.822C99.2889 111.561 106.65 110.016 111.293 104.87C115.937 99.7235 116.707 92.2561 113.332 86.4193C112.63 85.2044 110.943 85.0293 110.001 86.0734Z" fill="#8EE000"/><path d="M120.236 90.7196L102.661 110.199C101.719 111.243 102.07 112.898 103.354 113.468C109.524 116.208 116.885 114.662 121.528 109.516C126.171 104.37 126.942 96.9023 123.567 91.0655C122.865 89.8507 121.178 89.6755 120.236 90.7196Z" fill="#8EE000"/><path fill-rule="evenodd" clip-rule="evenodd" d="M111.269 96.143H111.768C124.734 96.143 135.245 106.654 135.245 119.62V131.673C135.245 144.639 124.734 155.15 111.768 155.15H111.364C98.4702 155.15 87.9894 144.752 87.8879 131.858L87.7931 119.804C87.6911 106.839 98.119 96.2457 111.084 96.1437C111.146 96.1432 111.208 96.143 111.269 96.143Z" fill="#8EE000"/><path fill-rule="evenodd" clip-rule="evenodd" d="M53.3568 104.506C62.3495 104.506 69.6395 111.796 69.6395 120.789V130.504C69.6395 139.497 62.3495 146.787 53.3568 146.787C44.3641 146.787 37.0741 139.497 37.0741 130.504V120.789C37.0741 111.796 44.3641 104.506 53.3568 104.506Z" fill="white"/><path fill-rule="evenodd" clip-rule="evenodd" d="M110.579 104.506C119.572 104.506 126.862 111.796 126.862 120.789V130.504C126.862 139.497 119.572 146.787 110.579 146.787C101.586 146.787 94.2961 139.497 94.2961 130.504V120.789C94.2961 111.796 101.586 104.506 110.579 104.506Z" fill="white"/><path fill-rule="evenodd" clip-rule="evenodd" d="M55.9156 113.799C60.155 113.799 63.5918 117.235 63.5918 121.475V129.818C63.5918 134.058 60.155 137.495 55.9156 137.495C51.6762 137.495 48.2395 134.058 48.2395 129.818V121.475C48.2395 117.235 51.6762 113.799 55.9156 113.799Z" fill="#4B4B4B"/><path fill-rule="evenodd" clip-rule="evenodd" d="M82.1373 131.919C86.7272 131.919 90.4481 135.64 90.4481 140.23V151.139C90.4481 155.729 86.7272 159.449 82.1373 159.449C77.5474 159.449 73.8265 155.729 73.8265 151.139V140.23C73.8265 135.64 77.5474 131.919 82.1373 131.919Z" fill="#F49000"/><path fill-rule="evenodd" clip-rule="evenodd" d="M82.1374 131.919C85.7035 131.919 88.5944 134.81 88.5944 138.376V148.345C88.5944 151.911 85.7035 154.802 82.1374 154.802C78.5713 154.802 75.6804 151.911 75.6804 148.345V138.376C75.6804 134.81 78.5713 131.919 82.1374 131.919Z" fill="#B86D00"/><mask id="mask1" mask-type="alpha" maskUnits="userSpaceOnUse" x="75" y="131" width="14" height="24"><path fill-rule="evenodd" clip-rule="evenodd" d="M82.1374 131.919C85.7035 131.919 88.5944 134.81 88.5944 138.376V148.345C88.5944 151.911 85.7035 154.802 82.1374 154.802C78.5713 154.802 75.6804 151.911 75.6804 148.345V138.376C75.6804 134.81 78.5713 131.919 82.1374 131.919Z" fill="white"/></mask><g mask="url(#mask1)"/><path d="M70.5699 140.747C71.5552 135.662 76.4372 131.919 82.2005 131.919C87.5972 131.919 92.3976 135.751 93.3657 140.747V141.211C93.3657 141.573 93.2487 141.709 92.9005 141.676L82.2005 143.535C81.9858 143.536 81.9498 143.536 81.7352 143.535L71.0352 141.676C70.687 141.709 70.5699 141.573 70.5699 141.211V140.747Z" fill="#FFC200"/><path d="M80.0258 137.18C79.1733 137.52 78.2062 137.105 77.8656 136.253C77.5251 135.4 77.9401 134.433 78.7926 134.092C80.7776 133.299 82.8978 133.299 85.0792 134.068C85.945 134.374 86.3994 135.323 86.0942 136.189C85.7891 137.054 84.8398 137.509 83.974 137.204C82.5306 136.695 81.2392 136.695 80.0258 137.18Z" fill="#FFDE00"/><path fill-rule="evenodd" clip-rule="evenodd" d="M108.02 113.799C112.26 113.799 115.697 117.235 115.697 121.475V129.818C115.697 134.058 112.26 137.495 108.02 137.495C103.781 137.495 100.344 134.058 100.344 129.818V121.475C100.344 117.235 103.781 113.799 108.02 113.799Z" fill="#4B4B4B"/><path fill-rule="evenodd" clip-rule="evenodd" d="M49.5042 123.29C52.2581 123.29 54.4906 121.061 54.4906 118.312C54.4906 115.563 52.2581 113.334 49.5042 113.334C46.7502 113.334 44.5177 115.563 44.5177 118.312C44.5177 121.061 46.7502 123.29 49.5042 123.29Z" fill="white"/><path fill-rule="evenodd" clip-rule="evenodd" d="M100.678 123.29C103.432 123.29 105.665 121.061 105.665 118.312C105.665 115.563 103.432 113.334 100.678 113.334C97.9244 113.334 95.6919 115.563 95.6919 118.312C95.6919 121.061 97.9244 123.29 100.678 123.29Z" fill="white"/><path d="M32.6051 144.184V130.229C46.1186 130.229 57.8569 134.406 67.5083 142.719L58.4013 153.292C51.3357 147.206 42.8409 144.184 32.6051 144.184Z" fill="#8EE000"/><path d="M131.339 144.184V130.229C117.826 130.229 106.088 134.406 96.4361 142.719L105.543 153.292C112.609 147.206 121.104 144.184 131.339 144.184Z" fill="#8EE000"/><mask id="mask2" mask-type="alpha" maskUnits="userSpaceOnUse" x="10" y="24" width="47" height="46"><path fill-rule="evenodd" clip-rule="evenodd" d="M10.2502 24.8694H56.0792V69.073H10.2502V24.8694Z" fill="white"/></mask><g mask="url(#mask2)"><path fill-rule="evenodd" clip-rule="evenodd" d="M40.9498 46.9714C40.9498 51.791 37.7945 55.1566 33.2766 55.1566C28.7148 55.1566 25.5289 51.791 25.5289 46.9714C25.5289 42.1521 28.7148 38.7865 33.2766 38.7865C37.7945 38.7865 40.9498 42.1521 40.9498 46.9714ZM52.1745 25.6155C49.8516 25.6155 47.1945 27.1488 45.0683 29.6336C41.7442 26.6976 36.6885 24.8694 31.6331 24.8694C19.2429 24.8694 10.2502 34.1646 10.2502 46.9714C10.2502 59.7781 19.2429 69.073 31.6331 69.073C36.6891 69.073 41.7442 67.2454 45.0683 64.3095C47.1945 66.7939 49.8516 68.3276 52.1745 68.3276C54.5466 68.3276 56.0792 66.6503 56.0792 64.0547V29.8884C56.0792 27.2928 54.5466 25.6155 52.1745 25.6155Z" fill="#1CB0F6"/></g><mask id="mask3" mask-type="alpha" maskUnits="userSpaceOnUse" x="64" y="7" width="47" height="63"><path fill-rule="evenodd" clip-rule="evenodd" d="M64.2136 7.71167H110.044V69.0729H64.2136V7.71167Z" fill="white"/></mask><g mask="url(#mask3)"><path fill-rule="evenodd" clip-rule="evenodd" d="M94.7645 46.9712C94.7645 51.7908 91.5786 55.1564 87.0169 55.1564C82.4989 55.1564 79.3439 51.7908 79.3439 46.9712C79.3439 42.1519 82.4989 38.7864 87.0169 38.7864C91.5786 38.7864 94.7645 42.1519 94.7645 46.9712ZM88.6598 24.8693C85.3583 24.8693 82.1395 25.6031 79.3439 26.9676V11.9846C79.3439 8.8343 77.3648 7.71167 75.5133 7.71167C70.0792 7.71167 64.2136 14.0228 64.2136 24.2188V64.0546C64.2136 66.6502 65.7466 68.3275 68.1187 68.3275C70.4413 68.3275 73.0983 66.7939 75.2246 64.3094C78.549 67.2454 83.6037 69.073 88.6598 69.073C101.051 69.073 110.044 59.7781 110.044 46.9713C110.044 34.1645 101.051 24.8693 88.6598 24.8693Z" fill="#FFC800"/></g><mask id="mask4" mask-type="alpha" maskUnits="userSpaceOnUse" x="116" y="24" width="38" height="46"><path fill-rule="evenodd" clip-rule="evenodd" d="M116.959 24.8694H153.75V69.073H116.959V24.8694Z" fill="white"/></mask><g mask="url(#mask4)"><path fill-rule="evenodd" clip-rule="evenodd" d="M140.882 38.7865C143.245 38.7865 144.845 39.2168 146.256 39.5969C147.416 39.9091 148.511 40.2034 149.771 40.2034C152.299 40.2034 153.75 38.619 153.75 35.8562V32.0514C153.75 29.7407 153.141 28.0425 150.103 26.7152C147.186 25.4556 143.805 24.8694 139.463 24.8694C133.694 24.8694 128.022 27.026 123.9 30.7867C119.424 34.8699 116.959 40.6181 116.959 46.9714C116.959 60.8059 128.287 69.073 139.239 69.073C143.852 69.073 147.304 68.5104 150.109 67.2985C153.141 65.9745 153.75 64.2763 153.75 61.9657V58.4598C153.75 54.2661 151.176 53.8136 150.069 53.8136C149.182 53.8136 148.35 54.027 147.387 54.2748C145.857 54.6676 143.953 55.1566 140.658 55.1566C135.464 55.1566 132.238 52.0205 132.238 46.9714C132.238 41.9991 135.631 38.7865 140.882 38.7865Z" fill="#FF5C5C"/></g></g></svg>