<svg width="710" height="743" xmlns="http://www.w3.org/2000/svg" xmlns:xlink="http://www.w3.org/1999/xlink"><defs><ellipse id="c" cx="78.442" cy="78.573" rx="77.949" ry="77.788"/><ellipse id="d" cx="78.325" cy="78.553" rx="78.325" ry="78.553"/><ellipse id="f" cx="98.459" cy="98.671" rx="70.367" ry="70.954"/><path id="a" d="M0 375h768v768H0z"/></defs><g transform="translate(-58 -375)" fill="none" fill-rule="evenodd"><mask id="b" fill="#fff"><use xlink:href="#a"/></mask><g mask="url(#b)"><g transform="translate(58)"><ellipse fill="#26365A" cx="577.759" cy="538.952" rx="539.241" ry="538.952"/><g stroke-linecap="round" stroke-linejoin="round" stroke-opacity=".15" stroke="#FFF" stroke-width="16.5"><path d="M408.18 429.182l255.993 12.081M402.78 429.182L447.9 684.14M664.173 868.836L447.9 684.14M205.603 868.836L447.9 684.14M205.603 868.836L178.28 600.547M664.173 868.836l-183.815 203.192M178.28 600.547L28.613 502.656"/></g><g transform="translate(0 347.57)"><use fill="#FFC800" xlink:href="#c" transform="translate(98.985 172.144)"/><g transform="translate(323.842)"><mask id="e" fill="#fff"><use xlink:href="#d"/></mask><use fill="#7AC70C" xlink:href="#d"/><g mask="url(#e)"><path d="M38.677 89.128c.075-.71.292-1.407.565-1.953L56.124 52.38c1.755-3.695 4.126-5.745 7.823-5.356 3.697.388 5.662 2.894 6.61 6.873l9.066 37.523c.153.59.22 1.316.146 2.027-.314 2.984-2.933 4.649-5.563 4.372-2.275-.239-3.982-1.783-4.517-4.21l-1.37-6.108-17.276-1.815-2.54 5.696c-1.028 2.263-3.019 3.419-5.294 3.18-2.63-.277-4.846-2.45-4.532-5.434zm16.285-12.011l11.375 1.195-3.768-17.495-.213-.022-7.394 16.322z" fill="#FFF"/><path d="M119.777 94.742c.472.983.651 2.008.547 3.003-.276 2.63-2.69 4.387-5.462 4.096-1.706-.18-3.061-.968-3.85-2.345l-.727-1.297-.071-.008c-2.009 2.016-5.84 2.907-10.106 2.459-8.815-.927-12.663-5.355-11.975-11.892.799-7.604 6.852-10.488 15.383-9.591l6.185.65c.285.03.442-.098.472-.382l.037-.355c.336-3.198-1.737-5.356-6.5-5.856-2.133-.225-4.318.049-5.65.412-.883.194-1.688.325-2.399.25-2.346-.246-3.816-1.981-3.563-4.397.157-1.493 1.033-2.981 2.978-3.71 2.395-.899 5.968-1.385 10.731-.885 10.38 1.091 14.803 6.873 13.9 15.471l-.986 9.38c-.172 1.635-.112 2.431.296 3.336l.76 1.66zm-17.534-1.412c4.195.441 6.563-.89 6.9-4.088l.246-2.345c.03-.285-.098-.442-.382-.472l-4.835-.508c-4.194-.44-6.248.637-6.524 3.266-.254 2.416 1.325 3.803 4.595 4.147z" fill="#ADE756"/></g></g><g transform="translate(124.356 432.362)"><ellipse fill="#1CB0F6" transform="rotate(4 83.36 84.162)" cx="83.359" cy="84.162" rx="78.085" ry="77.917"/><path d="M76.001 43.716c19.35-5.184 39.229 6.265 44.402 25.573L85.37 78.677 76 43.717z" fill="#7AF0F2"/><path d="M71.227 54.363l8.928 33.322 33.393-8.948c4.93 18.403-6.022 37.328-24.464 42.27-18.442 4.94-37.39-5.972-42.321-24.375-4.931-18.403 6.022-37.327 24.464-42.269z" fill="#FFF"/></g><g transform="translate(366 228)"><ellipse fill="#FF4B4B" cx="93.241" cy="95.113" rx="93.217" ry="94.25"/><path d="M75.885 102.907l-9.48 12.18a3.478 3.478 0 01-6.188-1.653l-1.152-8.197c-5.75.365-10.898-3.758-11.713-9.558l-2.95-20.985c-.855-6.086 3.386-11.714 9.472-12.569l34.392-4.834c6.087-.855 11.714 3.386 12.57 9.472l2.948 20.985c.856 6.086-3.385 11.713-9.471 12.569l-18.428 2.59z" fill="#FFC1C1"/><path d="M112.697 121.176l14.138 10.179a3.478 3.478 0 005.476-3.307l-1.333-9.483c5.575-1.274 9.34-6.629 8.529-12.395l-3.493-24.85c-.855-6.086-6.482-10.326-12.569-9.471l-41.232 5.795c-6.086.855-10.327 6.483-9.471 12.569l3.492 24.85c.855 6.085 6.483 10.326 12.569 9.47l23.894-3.357z" fill="#FFF"/></g><g transform="translate(564.047 422.73)"><mask id="g" fill="#fff"><use xlink:href="#f"/></mask><use fill="#FF9600" transform="rotate(35 98.459 98.67)" xlink:href="#f"/><g mask="url(#g)"><g transform="rotate(12 -228.259 374.372)"><rect fill="#FFF" y="21.463" width="19.009" height="39.349" rx="3.797"/><rect fill="#FFF" x="24.44" width="19.009" height="60.812" rx="3.797"/><rect fill="#FFCE8E" x="47.976" y="8.943" width="19.009" height="51.869" rx="3.797"/></g></g></g><ellipse fill="#FFC800" transform="rotate(29 480.358 724.459)" cx="480.358" cy="724.459" rx="44.753" ry="45.202"/><ellipse fill="#1CB0F6" transform="rotate(35 664.173 92.96)" cx="664.173" cy="92.96" rx="32.817" ry="32.781"/><ellipse fill="#CE82FF" cx="29.148" cy="154.475" rx="29.148" ry="29.086"/></g><g stroke-linecap="round"><path d="M210.566 618.827a4.427 4.427 0 00.884 4.88l.16.162a5.365 5.365 0 010 7.59 5.36 5.36 0 01-7.584 0l-.161-.162a4.42 4.42 0 00-4.879-.885 4.425 4.425 0 00-2.68 4.05v.456c0 2.962-2.4 5.363-5.36 5.363a5.362 5.362 0 01-5.361-5.363v-.242a4.425 4.425 0 00-2.895-4.05 4.42 4.42 0 00-4.878.886l-.16.16a5.36 5.36 0 01-7.586 0 5.365 5.365 0 010-7.589l.16-.16a4.427 4.427 0 00.885-4.882 4.422 4.422 0 00-4.047-2.682h-.456a5.362 5.362 0 01-5.36-5.363c0-2.962 2.4-5.364 5.36-5.364h.241a4.423 4.423 0 004.048-2.896 4.427 4.427 0 00-.885-4.881l-.16-.161a5.365 5.365 0 010-7.59 5.36 5.36 0 017.585 0l.16.161a4.42 4.42 0 004.879.885h.214a4.425 4.425 0 002.68-4.05v-.455c0-2.962 2.4-5.364 5.361-5.364 2.96 0 5.36 2.402 5.36 5.364v.241a4.425 4.425 0 002.681 4.05 4.42 4.42 0 004.878-.885l.161-.161a5.36 5.36 0 017.585 0 5.365 5.365 0 010 7.59l-.16.16a4.427 4.427 0 00-.885 4.881v.215a4.422 4.422 0 004.047 2.682h.456c2.96 0 5.36 2.401 5.36 5.363 0 2.963-2.4 5.364-5.36 5.364h-.241a4.422 4.422 0 00-4.047 2.682zm-19.335 2.454c5.52 0 9.994-4.477 9.994-10s-4.474-10-9.994-10-9.995 4.477-9.995 10 4.475 10 9.995 10z" fill="#FFF" stroke-linejoin="bevel"/><path d="M165.828 585.428a2.942 2.942 0 00-.5 3.261l.067.136a3.567 3.567 0 01-1.644 4.773 3.57 3.57 0 01-4.776-1.644l-.066-.136a2.946 2.946 0 00-2.88-1.614 2.943 2.943 0 00-2.564 1.965l-.1.287a3.569 3.569 0 01-4.536 2.211 3.569 3.569 0 01-2.213-4.535l.052-.152a2.943 2.943 0 00-.946-3.175 2.946 2.946 0 00-3.263-.5l-.136.066a3.57 3.57 0 01-3.132-6.418l.136-.066a2.942 2.942 0 001.614-2.878 2.945 2.945 0 00-1.968-2.564l-.287-.099a3.569 3.569 0 112.323-6.746l.152.052a2.945 2.945 0 003.176-.944 2.942 2.942 0 00.5-3.262l-.067-.136a3.567 3.567 0 011.644-4.773 3.57 3.57 0 014.776 1.645l.066.136a2.946 2.946 0 002.88 1.614l.135.046a2.943 2.943 0 002.564-1.965l.1-.287a3.569 3.569 0 014.536-2.211 3.569 3.569 0 012.213 4.535l-.052.152a2.943 2.943 0 00.81 3.128 2.946 2.946 0 003.264.5l.136-.065a3.57 3.57 0 013.132 6.417l-.136.067a2.942 2.942 0 00-1.614 2.877l-.046.135a2.945 2.945 0 001.967 2.564l.287.1a3.569 3.569 0 11-2.323 6.746l-.152-.053a2.945 2.945 0 00-3.129.81zm-12.917-2.126a7.247 7.247 0 009.213-4.49 7.247 7.247 0 00-4.495-9.21 7.247 7.247 0 00-9.213 4.49 7.247 7.247 0 004.495 9.21z" fill="#FFE896" stroke-linejoin="round"/></g></g></g></g></svg>