<svg version="1.1" id="Layer_1" xmlns="http://www.w3.org/2000/svg" x="0" y="0" viewBox="0 0 812.1 100"
     xml:space="preserve"><style>.st1{fill:#1bb0f6}</style>
    <path d="M370.8 50c0-15.8 12-27 28-27s28 11.1 28 27-12 27-28 27-28-11.3-28-27zm40.2 0c0-7.4-4.7-12.8-12-12.8s-12 5.4-12 12.8 4.7 12.8 12 12.8 12-5.3 12-12.8zm-50.8-12.5c1.1 2.1 1.5 4.4 1.5 6.8 0 5.7-3 11-7.8 15.1 6.6 3.2 10.5 10.8 10.5 18.1 0 13.6-11 22.6-27.7 22.6s-27.7-9-27.7-22.7c-.2-7.5 3.9-14.5 10.5-18.1-5-4.1-7.8-9.3-7.8-15.1 0-11.9 9.3-20.6 24.1-20.6 8.7 0 11.3 1.5 16.3 1.5 3.3.2 6.8-.8 9.6-2.6 1.1-.6 2.1-1.1 3.3-1.1 2 0 3 2 3 4.4.5 5.4-2.8 10-7.8 11.7zM348.9 77c0-6-4.7-10.2-12-10.2s-12 4.1-12 10.2c0 5.7 5.1 10.2 12 10.2s12-4.5 12-10.2zm-21.8-31.8c.2 5.3 4.7 9.5 10.1 9.3 5.1-.2 9-4.2 9.3-9.3 0-5.4-3.9-9.2-9.6-9.2s-9.8 3.6-9.8 9.2zm-25.3 5.9v18.8c0 3.6-1.4 5.1-5.3 5.1h-5.3c-3.9 0-5.3-1.5-5.3-5.1V51.5c0-4.7-.8-8-2.4-10.1-2-2.4-5-3.6-8-3.5-3.2-.2-6.2 1.2-8.3 3.5-1.8 2.1-3 5.4-3 9.9v18.4c0 3.8-1.7 5.1-5.3 5.1h-5.3c-3.6 0-5.3-1.4-5.3-5.1V27.6c0-2.4 1.2-3.5 3-3.5 2.7 0 6.5 2.3 9.3 6.6 4.4-4.8 10.5-7.5 17-7.5 7.7 0 13.9 2.7 17.9 7.2 4.3 4.5 6.3 10.7 6.3 20.7zM219.6 8.6c0-4.8 4.1-8.6 8.7-8.6h.3c4.7.3 8.3 4.4 8 9s-4.4 8.3-9 8c-4.6-.1-8-3.9-8-8.4zm1 61.3V30.3c0-3.6 1.4-5.3 5.3-5.3h5.3c3.9 0 5.3 1.5 5.3 5.3v39.6c0 3.6-1.4 5.1-5.3 5.1h-5.3c-3.9 0-5.3-1.5-5.3-5.1zm-27.8 0V20.2c0-12.5 6.9-19.6 12.8-19.6 1.8 0 3 1.2 3 3.5v65.8c0 3.8-1.5 5.1-5.3 5.1H198c-3.6 0-5.2-1.4-5.2-5.1zM127.7 50c0-15.8 12-27 28-27s28 11.1 28 27-12 27-28 27-28-11.3-28-27zm40.1 0c0-7.4-4.7-12.8-12-12.8-7.4 0-12 5.4-12 12.8s4.7 12.8 12 12.8 12-5.3 12-12.8zm-48.2-19.7v42.2c0 2.4-1.2 3.5-3 3.5-2.7 0-6.5-2.3-9.2-6.5-4.2 4.8-10.2 7.5-16.7 7.4-6 .2-11.7-2-16.3-6-4.7-4.5-7.2-11.4-7.2-21.4V30.3c0-3.6 1.4-5.3 5.3-5.3h5.3c3.9 0 5.3 1.5 5.3 5.3V48c0 6 1.1 9.2 3 11.3 1.8 1.8 4.5 2.9 7.1 2.7 2.9 0 5.6-1.1 7.5-3.2s3-5.4 3-10.5v-18c0-3.8 1.7-5.3 5.3-5.3h5.3c3.6 0 5.3 1.5 5.3 5.3zM56.3 4.1v68.4c0 2.4-1.2 3.5-3 3.5-2.7 0-6.5-2.3-9.2-6.3C40.8 73.5 34 77 26.2 77 10.5 77 0 65.5 0 50s10.8-27 26.2-27c5.1 0 10.1 1.5 14.5 4.4v-7.2C40.7 7.7 47.8.6 53.5.6c1.8 0 2.8 1.2 2.8 3.5zM40.7 50c0-7.7-5.4-12.8-12.2-12.8S16.1 42.3 16.1 50s5.4 12.8 12.3 12.8 12.3-5 12.3-12.8z"
          fill="#454545"/>
    <path class="st1"
          d="M453.7 70.3V29.7c0-2.8 1.8-4.6 4.3-4.6s4.3 1.7 4.3 4.6V32h.1c2-4.4 6.5-7.4 12.5-7.4 3.4 0 5.6.8 7.2 1.7 1.7.9 2.4 2.2 2.4 3.7 0 2.4-1.7 4.3-4.3 4.3-.6 0-1.4-.2-2.1-.5-1.8-.7-3.6-1.2-5.6-1.2-7.3 0-10.3 6.1-10.3 14.2v23.6c0 2.8-1.8 4.6-4.3 4.6s-4.2-1.8-4.2-4.7zM491.5 62.3c-1-3.1-1.6-6.5-1.6-12.3s.5-9.3 1.5-12.3c2.7-8.4 9.8-13.1 19-13.1 9.6 0 16.5 4.7 19.1 13 1.1 3.3 1.6 7 1.6 11.8 0 1.9-1.3 3.3-3.4 3.3h-28.6c-.4 0-.6.2-.6.6 0 2.3.2 4 .8 5.9 1.8 5.6 6.3 8.4 12.3 8.4 4.8 0 8-1.4 11.7-4.2 1-.8 1.9-1.2 3-1.2 2 0 3.6 1.5 3.6 3.6 0 1.2-.5 2.2-1.3 3.1-4.2 3.9-10 6.7-17.5 6.7-10.1-.1-16.9-4.8-19.6-13.3zm30.3-16.5c.4 0 .6-.2.6-.6 0-2.2-.2-4-.7-5.5-1.6-4.9-5.7-7.6-11.2-7.6-5.5 0-9.6 2.7-11.2 7.6-.5 1.5-.7 3.3-.7 5.5 0 .4.2.6.6.6h22.6zM541.1 70.1c-1.3-.9-2-2.1-2-3.6 0-2 1.6-3.9 4-3.9.8 0 1.6.2 2.8.9 4 2.3 8.1 4.3 13.6 4.3 7 0 10.7-3.1 10.7-7.3 0-4.1-1.8-6.1-9.6-6.9l-5.1-.5c-9.6-1-14.5-5.9-14.5-13.7 0-9.3 6.6-14.9 18-14.9 5.7 0 10.8 1.4 14.5 3.6 1.7.9 2.5 2 2.5 3.6 0 2-1.6 3.7-3.7 3.7-.8 0-1.7-.2-3.1-.8-3.3-1.5-6.9-2.5-10.8-2.5-6.1 0-9.3 2.7-9.3 6.7 0 3.9 2.2 5.9 9.6 6.6l5.1.5c10.2 1.1 14.6 5.9 14.6 13.8 0 9.6-6.9 15.9-19.8 15.9-7.2-.1-13.4-2.6-17.5-5.5zM588.7 62.3c-1-3.1-1.6-6.5-1.6-12.3s.5-9.3 1.5-12.3c2.7-8.4 9.8-13.1 19-13.1 9.6 0 16.5 4.7 19.1 13 1.1 3.3 1.6 7 1.6 11.8 0 1.9-1.3 3.3-3.4 3.3h-28.6c-.4 0-.6.2-.6.6 0 2.3.2 4 .8 5.9 1.8 5.6 6.3 8.4 12.3 8.4 4.8 0 8-1.4 11.7-4.2 1-.8 1.9-1.2 3-1.2 2 0 3.6 1.5 3.6 3.6 0 1.2-.5 2.2-1.3 3.1-4.2 3.9-10 6.7-17.5 6.7-10-.1-16.9-4.8-19.6-13.3zM619 45.8c.4 0 .6-.2.6-.6 0-2.2-.2-4-.7-5.5-1.6-4.9-5.7-7.6-11.2-7.6s-9.6 2.7-11.2 7.6c-.5 1.5-.7 3.3-.7 5.5 0 .4.2.6.6.6H619zM678.9 70.8c0 2.3-1.8 4.1-4.4 4.1-1.5 0-2.7-.7-3.8-2.1l-1.9-3.1h-.1c-3.3 3.7-7.8 5.8-15 5.8-10.9 0-17.2-5.4-17.2-14.6 0-10.1 6.9-15.1 19-15.1h11.1c.4 0 .6-.2.6-.6v-2.3c0-6.8-3.2-10.7-11.7-10.7-3.8 0-7.6 1.2-10 2.4-.8.4-1.7.7-2.4.7-2.2 0-3.7-1.4-3.7-3.7 0-1.3.6-2.6 2-3.5 3.1-2 8.1-3.7 14.9-3.7 13 0 19.1 6.2 19.1 18.2v17.5c0 2.5.2 3.6.9 5l1.7 3.2c.6.8.9 1.7.9 2.5zm-11.6-12.2v-5.4c0-.4-.2-.6-.6-.6h-9.8c-8.3 0-12.1 2.4-12.1 7.9 0 5.1 3.7 7.6 10.2 7.6 7.5.1 12.3-3.5 12.3-9.5zM689 70.3V29.7c0-2.8 1.8-4.6 4.3-4.6s4.3 1.7 4.3 4.6V32h.1c2-4.4 6.5-7.4 12.5-7.4 3.4 0 5.6.8 7.2 1.7 1.7.9 2.4 2.2 2.4 3.7 0 2.4-1.7 4.3-4.3 4.3-.6 0-1.4-.2-2.1-.5-1.8-.7-3.6-1.2-5.6-1.2-7.3 0-10.3 6.1-10.3 14.2v23.6c0 2.8-1.8 4.6-4.3 4.6s-4.2-1.8-4.2-4.7zM726.7 62.4c-.9-3-1.5-6.9-1.5-12.4 0-5.4.6-9.4 1.5-12.3 2.7-8.4 9.9-13.1 19.2-13.1 7.3 0 12.5 3.2 15.6 7.1.8 1.1 1.2 2 1.2 3.2 0 2.1-1.6 3.8-3.8 3.8-1.5 0-2.6-.8-3.8-2-2.2-2.4-4.9-4.1-9.3-4.1-5.3 0-9.3 2.5-10.9 7.6-.8 2.5-1.1 5.6-1.1 9.9 0 4.4.3 7.4 1.1 10 1.6 5.1 5.6 7.6 10.9 7.6 4.4 0 7-1.6 9.3-4.1 1.1-1.2 2.2-2 3.8-2 2.1 0 3.8 1.6 3.8 3.8 0 1.1-.4 2-1.2 3.2-3.1 4-8.2 7.1-15.6 7.1-9.4-.2-16.5-4.9-19.2-13.3zM773 9.3c0-2.8 1.8-4.6 4.3-4.6 2.4 0 4.3 1.7 4.3 4.6v21.9h.1c2.3-3.8 7-6.6 13.6-6.6 10.6 0 16.9 7.2 16.9 18.3v27.5c0 2.8-1.8 4.6-4.3 4.6-2.4 0-4.3-1.7-4.3-4.6V44.9c0-7.8-3.6-12.4-10.9-12.4-6.6 0-11.2 4.7-11.2 11.9v25.9c0 2.8-1.8 4.6-4.3 4.6-2.4 0-4.3-1.7-4.3-4.6v-61z"/></svg>