<svg width="291" height="181" viewBox="0 0 291 181" fill="none" xmlns="http://www.w3.org/2000/svg"><path d="M193.893 4.85318L39.2547 52.1308C37.2309 52.7495 36.0919 54.8917 36.7107 56.9155L66.7353 155.122C67.354 157.145 69.4962 158.285 71.52 157.666L226.158 110.388C228.182 109.769 229.321 107.627 228.702 105.603L198.678 7.39727C198.059 5.37347 195.917 4.23444 193.893 4.85318Z" fill="white"/><rect x="129" y="34" width="30" height="8" rx="2" transform="rotate(-16.9049 129 34)" fill="#1CB0F6"/><circle cx="176.616" cy="25.9931" r="4.5" transform="rotate(-16.945 176.616 25.9931)" fill="#58CC02"/><path d="M175.104 26.3115L176.612 27.1504L178.273 24.2331" stroke="white" stroke-width="1.3" stroke-linecap="round" stroke-linejoin="round"/><circle cx="180.616" cy="37.9931" r="4.5" transform="rotate(-16.945 180.616 37.9931)" fill="#FFC800"/><rect x="179" y="36" width="1" height="3" rx="0.5" transform="rotate(-16.945 179 36)" fill="white"/><path d="M180.123 38.5498C179.802 38.3786 179.68 37.9795 179.851 37.6583C180.022 37.3371 180.421 37.2155 180.743 37.3867L182.487 38.3165C182.809 38.4877 182.93 38.8868 182.759 39.208C182.588 39.5292 182.189 39.6508 181.867 39.4796L180.123 38.5498Z" fill="white"/><circle cx="183.644" cy="49.9401" r="4.5" transform="rotate(-17.484 183.644 49.9401)" fill="#FF4B4B"/><rect x="183" y="48" width="1" height="3" rx="0.5" transform="rotate(-17.484 183 48)" fill="white"/><path d="M183.848 50.5746C183.525 50.4064 183.4 50.0085 183.568 49.6857C183.736 49.3629 184.134 49.2375 184.457 49.4057L186.21 50.319C186.533 50.4872 186.658 50.8852 186.49 51.2079C186.322 51.5307 185.924 51.6561 185.601 51.4879L183.848 50.5746Z" fill="white"/><path d="M69.7378 45.054L40.9854 53.8445C40.4182 54.0179 43.7979 66.7165 48.534 82.2076L62.8264 128.956C67.5625 144.447 71.8617 156.865 72.4288 156.691L101.181 147.901C101.748 147.727 98.3688 135.029 93.6326 119.538L79.3402 72.7892C74.6041 57.2981 70.305 44.8806 69.7378 45.054Z" fill="#F7F7F7" stroke="#F7F7F7" stroke-width="1.66135"/><path d="M114.01 64.3239C113.688 63.2676 114.283 62.1501 115.339 61.8277L155.97 49.4273C157.027 49.1048 158.145 49.7001 158.467 50.7569L160.68 58.0153C161.002 59.0716 160.407 60.1891 159.351 60.5115L118.72 72.9119C117.663 73.2344 116.545 72.6391 116.223 71.5823L114.01 64.3239Z" fill="#F2F2F2"/><path d="M182.622 20.9505C182.3 19.8948 182.895 18.7778 183.95 18.4548L188.542 17.0491C189.599 16.7256 190.718 17.3209 191.04 18.3782L192.52 23.23C192.842 24.2857 192.248 25.4026 191.192 25.7257L186.6 27.1313C185.543 27.4549 184.424 26.8596 184.102 25.8022L182.622 20.9505Z" fill="#F2F2F2"/><path d="M186.313 32.9562C185.991 31.9004 186.585 30.7835 187.64 30.4604L192.273 29.0424C193.33 28.7189 194.449 29.3142 194.771 30.3715L196.251 35.2233C196.572 36.279 195.978 37.396 194.923 37.719L190.29 39.137C189.233 39.4606 188.114 38.8653 187.792 37.8079L186.313 32.9562Z" fill="#F2F2F2"/><path d="M190.003 44.9502C189.681 43.8945 190.275 42.7776 191.331 42.4545L195.963 41.0365C197.02 40.713 198.139 41.3083 198.462 42.3656L199.941 47.2174C200.263 48.2731 199.669 49.39 198.613 49.7131L193.981 51.1311C192.924 51.4546 191.805 50.8594 191.482 49.802L190.003 44.9502Z" fill="#F2F2F2"/><path d="M118.553 79.2232C118.231 78.1669 118.826 77.0494 119.883 76.727L160.387 64.3653C161.443 64.0428 162.561 64.6381 162.883 65.6948L165.097 72.9532C165.419 74.0096 164.824 75.1271 163.767 75.4494L123.264 87.8112C122.207 88.1337 121.089 87.5384 120.767 86.4816L118.553 79.2232Z" fill="#F2F2F2"/><path d="M123.321 94.8599C122.999 93.8035 123.594 92.6861 124.651 92.3637L164.844 80.0965C165.901 79.774 167.019 80.3694 167.341 81.4261L169.554 88.6845C169.876 89.7409 169.281 90.8583 168.225 91.1807L128.031 103.448C126.975 103.77 125.857 103.175 125.534 102.118L123.321 94.8599Z" fill="#F2F2F2"/><path d="M128.089 110.496C127.767 109.44 128.362 108.322 129.419 108L169.444 95.7839C170.501 95.4614 171.619 96.0568 171.941 97.1135L174.155 104.372C174.477 105.428 173.882 106.546 172.825 106.868L132.799 119.084C131.743 119.407 130.625 118.811 130.303 117.755L128.089 110.496Z" fill="#F2F2F2"/><rect x="86.9998" y="62" width="78" height="77" rx="2" transform="rotate(-16.877 86.9998 62)" stroke="#F0F0F0" stroke-width="2"/><path d="M191.74 4.70991L41.3067 50.7021C39.2829 51.3208 38.1439 53.463 38.7627 55.4868L69.2354 155.159C69.8542 157.183 71.9964 158.322 74.0202 157.703L224.454 111.711C226.478 111.092 227.617 108.95 226.998 106.926L196.525 7.254C195.906 5.2302 193.764 4.09117 191.74 4.70991Z" stroke="#C4C4C4" stroke-width="8.30673"/><path d="M111.314 70.4189C111.13 66.8569 108.093 64.1186 104.531 64.3026C100.969 64.4867 98.2308 67.5234 98.4148 71.0854C98.5989 74.6474 101.636 77.3857 105.198 77.2016C108.76 77.0176 111.498 73.9808 111.314 70.4189Z" fill="#FF4B4B"/><path d="M115.888 85.4208C115.704 81.8589 112.667 79.1205 109.106 79.3046C105.544 79.4886 102.805 82.5254 102.989 86.0874C103.173 89.6493 106.21 92.3877 109.772 92.2036C113.334 92.0195 116.072 88.9828 115.888 85.4208Z" fill="#FBE56D"/><path d="M120.732 101.306C120.548 97.7438 117.511 95.0054 113.949 95.1895C110.387 95.3736 107.649 98.4103 107.833 101.972C108.017 105.534 111.054 108.273 114.616 108.089C118.178 107.904 120.916 104.868 120.732 101.306Z" fill="#1CB0F6"/><path d="M125.576 117.19C125.392 113.628 122.355 110.89 118.793 111.074C115.231 111.258 112.493 114.295 112.677 117.857C112.861 121.419 115.898 124.157 119.46 123.973C123.022 123.789 125.76 120.752 125.576 117.19Z" fill="#E5E5E5"/><line x1="164.251" y1="18.6599" x2="191.434" y2="106.552" stroke="#F0F0F0" stroke-width="2" stroke-linecap="round"/><path d="M72.4782 46.5991L102.233 143.781" stroke="#F0F0F0" stroke-width="2" stroke-linecap="round"/><path d="M247.152 65.2545L192.622 51.6587C190.138 51.0394 187.622 52.5509 187.003 55.0347L161.213 158.473C160.594 160.957 162.105 163.472 164.589 164.092L219.119 177.687C221.603 178.307 224.118 176.795 224.738 174.311L250.528 70.8731C251.147 68.3893 249.635 65.8738 247.152 65.2545Z" fill="white"/><path d="M247.152 65.2545L192.622 51.6587C190.138 51.0394 187.622 52.5509 187.003 55.0347L161.213 158.473C160.594 160.957 162.105 163.472 164.589 164.092L219.119 177.687C221.603 178.307 224.118 176.795 224.738 174.311L250.528 70.8731C251.147 68.3893 249.635 65.8738 247.152 65.2545Z" fill="white"/><path d="M237.739 88.0492L231.249 86.4311C230.318 86.1989 229.374 86.7657 229.142 87.6971L228.672 89.5842C228.44 90.5156 229.006 91.4589 229.938 91.6912L236.427 93.3092C237.359 93.5414 238.302 92.9746 238.534 92.0432L239.005 90.1562C239.237 89.2247 238.67 88.2814 237.739 88.0492Z" fill="#2B70C9"/><path d="M219.421 99.8397C220.698 94.7169 217.581 89.5286 212.458 88.2513C207.335 86.9741 202.147 90.0915 200.869 95.2143C199.592 100.337 202.71 105.525 207.832 106.803C212.955 108.08 218.144 104.963 219.421 99.8397Z" fill="#FFD900"/><path d="M208.208 144.813C209.485 139.69 206.368 134.502 201.245 133.224C196.122 131.947 190.934 135.065 189.656 140.187C188.379 145.31 191.496 150.499 196.619 151.776C201.742 153.053 206.93 149.936 208.208 144.813Z" fill="#E5E5E5"/><path d="M226.511 164.805L164.11 149.247C163.179 149.015 162.236 149.582 162.003 150.513L159.06 162.318C158.828 163.25 159.394 164.193 160.326 164.425L222.726 179.984C223.658 180.216 224.601 179.649 224.833 178.718L227.777 166.912C228.009 165.981 227.442 165.037 226.511 164.805Z" fill="white" stroke="#DEDEDE" stroke-width="1.88397"/><path d="M251.367 65.1114L188.967 49.5532C188.035 49.321 187.092 49.8878 186.86 50.8192L182.514 68.2464C182.282 69.1778 182.849 70.1211 183.78 70.3533L246.181 85.9115C247.112 86.1437 248.056 85.5769 248.288 84.6455L252.633 67.2184C252.865 66.2869 252.298 65.3436 251.367 65.1114Z" fill="white" stroke="#DEDEDE" stroke-width="1.88397"/><path d="M201.447 119.243C202.724 114.12 199.607 108.932 194.484 107.654C189.361 106.377 184.173 109.495 182.895 114.617C181.618 119.74 184.735 124.929 189.858 126.206C194.981 127.483 200.169 124.366 201.447 119.243Z" fill="#FF4B4B"/><path d="M226.182 125.41C227.459 120.287 224.342 115.099 219.219 113.821C214.096 112.544 208.908 115.662 207.63 120.784C206.353 125.907 209.471 131.096 214.593 132.373C219.716 133.65 224.905 130.533 226.182 125.41Z" fill="#1CB0F6"/><path d="M232.535 61.6102L207.238 55.3029C206.306 55.0706 205.363 55.6375 205.131 56.5689L204.15 60.504C203.917 61.4355 204.484 62.3788 205.416 62.611L230.713 68.9184C231.644 69.1506 232.588 68.5838 232.82 67.6524L233.801 63.7172C234.033 62.7858 233.467 61.8425 232.535 61.6102Z" fill="#4B4B4B"/><path d="M247.152 65.2545L192.622 51.6587C190.138 51.0394 187.622 52.5509 187.003 55.0347L161.213 158.473C160.594 160.957 162.105 163.472 164.589 164.092L219.119 177.687C221.603 178.307 224.118 176.795 224.738 174.311L250.528 70.8731C251.147 68.3893 249.635 65.8738 247.152 65.2545Z" stroke="#4B4B4B" stroke-width="6.27989"/><path d="M201.2 62.7543L193.33 60.792C192.398 60.5598 191.455 61.1266 191.223 62.058L190.102 66.5553C189.869 67.4867 190.436 68.4301 191.368 68.6623L199.238 70.6246C200.169 70.8568 201.113 70.29 201.345 69.3586L202.466 64.8613C202.698 63.9298 202.132 62.9865 201.2 62.7543Z" fill="#DEDEDE"/><path d="M216.522 70.7541C216.832 69.5122 216.076 68.2544 214.834 67.9447C213.592 67.6351 212.334 68.3909 212.025 69.6328C211.715 70.8747 212.471 72.1324 213.713 72.4421C214.954 72.7517 216.212 71.996 216.522 70.7541Z" fill="#FFD900"/><path d="M198.533 66.2689C198.842 65.027 198.087 63.7692 196.845 63.4595C195.603 63.1499 194.345 63.9057 194.035 65.1476C193.726 66.3895 194.481 67.6472 195.723 67.9569C196.965 68.2665 198.223 67.5108 198.533 66.2689Z" fill="#FF4B4B"/><path d="M227.765 73.5573C228.075 72.3154 227.319 71.0577 226.077 70.748C224.835 70.4384 223.578 71.1941 223.268 72.436C222.958 73.6779 223.714 74.9357 224.956 75.2453C226.198 75.555 227.456 74.7992 227.765 73.5573Z" fill="#FF9600"/><path d="M239.008 76.3607C239.318 75.1188 238.562 73.861 237.32 73.5514C236.078 73.2417 234.821 73.9975 234.511 75.2394C234.201 76.4813 234.957 77.7391 236.199 78.0487C237.441 78.3583 238.699 77.6026 239.008 76.3607Z" fill="#1CB0F6"/><path d="M48.0749 72.9268L78.6369 63.5219L81.5892 73.1269L51.0272 82.5318L48.0749 72.9268Z" fill="#BBF2FF"/><path d="M39.1414 15.5673L33.0683 9.05472C31.5438 7.41983 28.9825 7.33039 27.3476 8.85495L20.8351 14.928C19.2002 16.4526 19.1108 19.0138 20.6353 20.6487L26.7084 27.1612C28.2329 28.7961 30.7942 28.8856 32.4291 27.361L38.9416 21.288C40.5765 19.7634 40.6659 17.2022 39.1414 15.5673Z" fill="#FFF5D3"/><path d="M14.4165 46.9641L11.1206 43.6034C9.71049 42.1656 7.40182 42.1431 5.96402 43.5532L2.60331 46.8491C1.16551 48.2592 1.14305 50.5679 2.55314 52.0057L5.84908 55.3664C7.25917 56.8042 9.56784 56.8267 11.0056 55.4166L14.3663 52.1206C15.8041 50.7105 15.8266 48.4019 14.4165 46.9641Z" fill="#FFB2B2"/><path d="M288.823 56.7434L285.888 50.448C284.715 47.9318 281.724 46.8432 279.208 48.0165L272.912 50.9521C270.396 52.1255 269.307 55.1163 270.481 57.6325L273.416 63.9279C274.59 66.4441 277.58 67.5327 280.097 66.3594L286.392 63.4238C288.908 62.2505 289.997 59.2596 288.823 56.7434Z" fill="#DDF4FF"/><path d="M274.756 88.7223L271.82 84.7954C270.646 83.2259 268.423 82.905 266.853 84.0785L262.926 87.0148C261.357 88.1883 261.036 90.412 262.209 91.9815L265.146 95.9083C266.319 97.4778 268.543 97.7988 270.112 96.6252L274.039 93.689C275.609 92.5154 275.93 90.2917 274.756 88.7223Z" fill="#84D8FF"/></svg>