<svg width="252" height="179" viewBox="0 0 252 179" fill="none" xmlns="http://www.w3.org/2000/svg"><path d="M98.9837 4.34542L28.9987 28.4432C26.2379 29.3938 24.7704 32.4026 25.721 35.1634L65.3102 150.139C66.2609 152.9 69.2696 154.367 72.0304 153.416L142.015 129.319C144.776 128.368 146.244 125.359 145.293 122.598L105.704 7.62308C104.753 4.86225 101.745 3.39479 98.9837 4.34542Z" fill="#F7F7F7" stroke="#4B4B4B" stroke-width="8.03455"/><path d="M46.4922 22.4238L81.4847 10.3749L84.9272 20.3728C85.8779 23.1336 84.4104 26.1424 81.6496 27.093L56.6549 35.6994C53.8941 36.65 50.8854 35.1825 49.9347 32.4217L46.4922 22.4238Z" fill="#4B4B4B"/><path d="M102.838 56.1453L57.8476 71.6367C56.4672 72.1121 55.7335 73.6164 56.2088 74.9968L71.7002 119.987C72.1755 121.368 73.6799 122.101 75.0603 121.626L120.051 106.135C121.431 105.659 122.165 104.155 121.69 102.775L106.198 57.7841C105.723 56.4037 104.218 55.67 102.838 56.1453Z" fill="#EBE3E3"/><path d="M55.1854 55.782L50.1865 57.5032C48.8061 57.9785 48.0723 59.4829 48.5476 60.8633L50.2689 65.8623C50.7442 67.2427 52.2486 67.9764 53.629 67.5011L58.6279 65.7798C60.0084 65.3045 60.7421 63.8001 60.2668 62.4197L58.5455 57.4208C58.0702 56.0404 56.5658 55.3066 55.1854 55.782Z" fill="#47D7FF"/><path d="M91.0385 46.2294L63.5444 55.6963C62.164 56.1717 61.4302 57.676 61.9056 59.0564C62.3809 60.4369 63.8852 61.1706 65.2657 60.6953L92.7598 51.2283C94.1402 50.753 94.8739 49.2486 94.3986 47.8682C93.9233 46.4878 92.4189 45.754 91.0385 46.2294Z" fill="#EBE3E3"/><path d="M82.0629 68.8881L64.5666 74.9125C63.1862 75.3879 62.4525 76.8922 62.9278 78.2726C63.4031 79.6531 64.9075 80.3868 66.2879 79.9115L83.7841 73.887C85.1645 73.4117 85.8983 71.9073 85.423 70.5269C84.9476 69.1465 83.4433 68.4128 82.0629 68.8881Z" fill="#D9CDCD"/><path d="M64.2043 122.563L129.19 100.187C130.571 99.7115 132.075 100.445 132.55 101.826L140.296 124.321L70.3112 148.419L62.5655 125.923C62.0902 124.543 62.8239 123.039 64.2043 122.563Z" fill="#89E219"/><path d="M91.0015 127.315C89.5756 123.174 85.0625 120.973 80.9212 122.398C76.78 123.824 74.5788 128.338 76.0048 132.479C77.4307 136.62 81.9438 138.821 86.0851 137.395C90.2263 135.969 92.4275 131.456 91.0015 127.315Z" fill="#A1F735"/><path d="M95.8687 27.786L45.8793 44.9987C44.4989 45.474 43.7652 46.9784 44.2405 48.3588C44.7158 49.7393 46.2202 50.473 47.6006 49.9977L97.59 32.785C98.9704 32.3096 99.7041 30.8053 99.2288 29.4249C98.7535 28.0444 97.2491 27.3107 95.8687 27.786Z" fill="#EBE3E3"/><path d="M68.3745 37.253L45.8793 44.9987C44.4989 45.474 43.7652 46.9784 44.2405 48.3588C44.7158 49.7393 46.2202 50.473 47.6006 49.9977L70.0958 42.2519C71.4762 41.7766 72.21 40.2723 71.7346 38.8918C71.2593 37.5114 69.755 36.7777 68.3745 37.253Z" fill="#89E219"/><path d="M178.118 41.1286L211.281 47.5749C213.219 47.9516 214.485 49.8282 214.108 51.7663L191.628 167.416C191.252 169.354 189.375 170.62 187.437 170.243L154.273 163.797C152.335 163.42 151.07 161.544 151.446 159.605L173.926 43.9557C174.303 42.0176 176.18 40.7518 178.118 41.1286Z" fill="#A56644"/><path d="M214.444 68.1847L167.101 58.9821C156.764 56.9729 146.756 63.7236 144.747 74.0604L135.783 120.175C133.774 130.512 140.524 140.52 150.861 142.529L198.204 151.732C208.541 153.741 218.55 146.991 220.559 136.654L229.523 90.5392C231.532 80.2024 224.781 70.194 214.444 68.1847Z" fill="white" stroke="#FFBC00" stroke-width="6.33837"/><path d="M164.888 87.7731C166.007 86.9604 167.572 87.2084 168.385 88.3269L183.099 108.579C183.911 109.697 183.664 111.263 182.545 112.075C181.427 112.888 179.861 112.64 179.048 111.521L164.335 91.2696C163.522 90.1512 163.77 88.5857 164.888 87.7731Z" fill="#FC4848"/><path d="M186.175 86.4521L186.528 86.5208C188.466 86.8975 189.732 88.7741 189.355 90.7123L185.509 110.5C185.132 112.438 183.255 113.704 181.317 113.327L180.964 113.259C179.026 112.882 177.76 111.005 178.137 109.067L181.983 89.2793C182.36 87.3412 184.236 86.0754 186.175 86.4521Z" fill="#4B4B4B"/><path d="M179.687 107.063L179.974 106.846C181.551 105.658 183.793 105.973 184.981 107.55L191.874 116.697C193.062 118.274 192.747 120.516 191.17 121.704L190.883 121.921C189.306 123.109 187.065 122.794 185.876 121.217L178.983 112.07C177.795 110.493 178.11 108.251 179.687 107.063Z" fill="#4B4B4B"/><path d="M202.547 133.162L206.011 138.298" stroke="#D4D4D4" stroke-width="4.52741" stroke-linecap="round" stroke-linejoin="round"/><path d="M206.17 110.45L212.251 111.632" stroke="#D4D4D4" stroke-width="4.52741" stroke-linecap="round" stroke-linejoin="round"/><path d="M153.505 100.213L159.587 101.395" stroke="#D4D4D4" stroke-width="4.52741" stroke-linecap="round" stroke-linejoin="round"/><path d="M189.21 74.4557L188.028 80.5372" stroke="#D4D4D4" stroke-width="4.52741" stroke-linecap="round" stroke-linejoin="round"/><path d="M178.876 128.664L177.694 134.746" stroke="#D4D4D4" stroke-width="4.52741" stroke-linecap="round" stroke-linejoin="round"/><path d="M160.637 71.0273L164.102 76.1634" stroke="#D4D4D4" stroke-width="4.52741" stroke-linecap="round" stroke-linejoin="round"/><path d="M153.651 124.349L148.67 127.664" stroke="#D4D4D4" stroke-width="4.52741" stroke-linecap="round" stroke-linejoin="round"/><path d="M216.552 81.9279L211.57 85.243" stroke="#D4D4D4" stroke-width="4.52741" stroke-linecap="round" stroke-linejoin="round"/><path d="M239.103 102.971L234.607 102.097C232.834 101.753 231.117 102.911 230.772 104.684L227.027 123.952C226.682 125.725 227.84 127.442 229.614 127.787L234.11 128.661C235.883 129.006 237.6 127.848 237.945 126.074L241.69 106.807C242.035 105.033 240.877 103.316 239.103 102.971Z" fill="#FFA600"/><path d="M171.729 11.5054L166.125 15.0075C164.887 15.7812 164.51 17.4121 165.284 18.6502L168.786 24.2547C169.56 25.4928 171.19 25.8693 172.429 25.0956L178.033 21.5936C179.271 20.8199 179.648 19.189 178.874 17.9509L175.372 12.3464C174.598 11.1083 172.967 10.7318 171.729 11.5054Z" fill="#FFEF97"/><path d="M142.436 23.1523L135.504 31.7122C134.432 33.0359 134.636 34.9779 135.96 36.0498L144.52 42.9815C145.843 44.0534 147.785 43.8493 148.857 42.5256L155.789 33.9657C156.861 32.642 156.657 30.7 155.333 29.6281L146.773 22.6964C145.449 21.6245 143.507 21.8286 142.436 23.1523Z" fill="#FFEF97"/><path d="M42.164 169.667L47.4673 165.75C48.6389 164.885 48.8879 163.233 48.0236 162.059L44.1109 156.749C43.2466 155.575 41.5961 155.326 40.4246 156.191L35.1213 160.107C33.9497 160.973 33.7006 162.625 34.565 163.798L38.4776 169.109C39.342 170.283 40.9924 170.532 42.164 169.667Z" fill="#A5ED6E"/><path d="M15.8532 157.954L22.0874 148.9C23.0515 147.5 22.6993 145.582 21.3008 144.617L12.2574 138.372C10.8589 137.407 8.94374 137.759 7.97968 139.159L1.74547 148.213C0.781411 149.613 1.13357 151.531 2.53205 152.497L11.5755 158.741C12.9739 159.706 14.8892 159.354 15.8532 157.954Z" fill="#D7FFB8"/></svg>