<svg width="195" height="261" viewBox="0 0 195 261" fill="none" xmlns="http://www.w3.org/2000/svg"><path fill-rule="evenodd" clip-rule="evenodd" d="M26.1337 273.404L90.4419 334.588C100.914 344.788 117.156 344.575 127.357 334.103L185.646 274.263C195.846 263.791 195.633 247.549 185.161 237.348L120.833 174.688C110.362 164.487 94.1189 164.7 83.9184 175.172L25.6296 235.012C15.4485 246.961 15.6617 263.203 26.1337 273.404Z" fill="#DDF4FF"/><path fill-rule="evenodd" clip-rule="evenodd" d="M5.12235 131.83L11.7843 138.375C18.4463 144.92 28.9151 144.92 34.6254 138.375L41.2874 131.83C47.9494 125.285 47.9494 114.999 41.2874 108.454L34.6254 101.909C27.9634 95.3639 17.4946 95.3639 10.8326 101.909L4.17058 108.454C-1.53969 114.999 -1.53963 125.285 5.12235 131.83Z" fill="#DDF4FF"/><path fill-rule="evenodd" clip-rule="evenodd" d="M89.8898 58.0589L119.223 87.9044C121.973 90.7024 126.556 92.5677 130.222 92.5677C134.806 92.5677 138.472 90.7024 141.222 87.9044L171.471 58.0589C177.888 51.5301 177.888 41.2707 171.471 34.742L142.139 4.89653C135.722 -1.63218 125.639 -1.63218 119.223 4.89653L89.8898 34.742C83.4733 40.3381 83.4733 51.5302 89.8898 58.0589Z" fill="#DDF4FF"/></svg>