<svg width="201" height="264" viewBox="0 0 201 264" fill="none" xmlns="http://www.w3.org/2000/svg"><path fill-rule="evenodd" clip-rule="evenodd" d="M168.142 -10.1286L103.833 -71.3124C93.3614 -81.513 77.1188 -81.2997 66.9183 -70.8278L8.62952 -10.9881C-1.571 -0.51618 -1.35775 15.7265 9.11418 25.927L73.4418 88.5874C83.9137 98.7879 100.156 98.5747 110.357 88.1027L168.646 28.2631C178.827 16.3146 178.614 0.071901 168.142 -10.1286Z" fill="#DDF4FF"/><path fill-rule="evenodd" clip-rule="evenodd" d="M195.162 132.454L188.5 125.909C181.838 119.364 171.369 119.364 165.659 125.909L158.997 132.454C152.335 138.999 152.335 149.285 158.997 155.83L165.659 162.375C172.321 168.92 182.789 168.92 189.451 162.375L196.113 155.83C201.824 149.285 201.824 138.999 195.162 132.454Z" fill="#DDF4FF"/><path fill-rule="evenodd" clip-rule="evenodd" d="M104.385 205.216L75.0526 175.371C72.3026 172.573 67.7194 170.707 64.0528 170.707C59.4696 170.707 55.803 172.573 53.0531 175.371L22.8037 205.216C16.3872 211.745 16.3872 222.004 22.8037 228.533L52.1364 258.378C58.5529 264.907 68.6361 264.907 75.0526 258.378L104.385 228.533C110.802 222.937 110.802 211.745 104.385 205.216Z" fill="#DDF4FF"/></svg>