<svg width="23" height="19" viewBox="0 0 23 19" version="1.1" xmlns="http://www.w3.org/2000/svg"><g stroke="none" stroke-width="1" fill="none" fill-rule="evenodd"><g fill="#1CB0F6" fill-rule="nonzero"><g><g><g><g><g><g><path d="M4.157 17.781a1.5 1.5 0 0 0 2.598-1.5l-3.5-6.062a1.5 1.5 0 0 0-2.598 1.5l3.5 6.062zm4.463-.268a1.5 1.5 0 0 0 2.599-1.5l-5.5-9.526a1.5 1.5 0 0 0-2.598 1.5l5.5 9.526zM18.843 1.219a1.5 1.5 0 0 0-2.598 1.5l3.5 6.062a1.5 1.5 0 0 0 2.598-1.5l-3.5-6.062zm-4.463.268a1.5 1.5 0 0 0-2.599 1.5l5.5 9.526a1.5 1.5 0 0 0 2.598-1.5l-5.5-9.526zm.035 8.062l-1.5-2.598-4.33 2.5 1.5 2.598z"/></g></g></g></g></g></g></g></g></svg>