<svg width="1087" height="398" viewBox="0 0 1087 398" fill="none" xmlns="http://www.w3.org/2000/svg"><rect width="1087" height="398" fill="white"/><rect x="516" y="125" width="70" height="271" transform="rotate(90 516 125)" fill="#1CB0F6"/><rect x="690" y="125" width="70" height="173" transform="rotate(90 690 125)" fill="#84D8FF"/><rect x="508" y="208" width="70" height="263" transform="rotate(90 508 208)" fill="#1CB0F6"/><rect x="603" y="208" width="70" height="94" transform="rotate(90 603 208)" fill="#84D8FF"/><path d="M239.144 67.08C239.688 67.08 240.088 66.696 240.088 66.088V62.984C240.088 62.92 240.12 62.888 240.184 62.888H242.44C244.552 62.888 246.024 61.528 246.024 59.496C246.024 57.48 244.552 56.12 242.44 56.12H239.032C238.52 56.12 238.2 56.456 238.2 56.968V66.088C238.2 66.696 238.6 67.08 239.144 67.08ZM242.328 61.176H240.184C240.12 61.176 240.088 61.144 240.088 61.08V57.912C240.088 57.848 240.12 57.816 240.184 57.816H242.328C243.448 57.816 244.136 58.504 244.136 59.496C244.136 60.504 243.448 61.176 242.328 61.176ZM250.662 67.176C251.91 67.176 252.758 66.808 253.446 66.248C253.686 66.056 253.814 65.848 253.814 65.544C253.814 65.112 253.526 64.792 253.062 64.792C252.822 64.792 252.614 64.904 252.406 65.048C251.91 65.384 251.478 65.576 250.822 65.576C249.942 65.576 249.334 65.16 249.078 64.408C249.014 64.232 248.966 64.04 248.966 63.816C248.966 63.752 248.998 63.72 249.062 63.72H253.366C253.766 63.72 253.99 63.464 253.99 63.096C253.99 62.36 253.894 61.752 253.734 61.24C253.302 59.928 252.15 59.112 250.566 59.112C249.03 59.112 247.846 59.896 247.414 61.24C247.254 61.736 247.158 62.344 247.158 63.144C247.158 63.944 247.27 64.536 247.43 65.032C247.862 66.376 249.014 67.176 250.662 67.176ZM252.182 62.28C252.182 62.344 252.15 62.376 252.086 62.376H249.062C248.998 62.376 248.966 62.344 248.966 62.28C248.966 62.008 248.998 61.816 249.062 61.624C249.27 61 249.846 60.632 250.582 60.632C251.302 60.632 251.878 61 252.086 61.624C252.15 61.816 252.182 62.008 252.182 62.28ZM257.71 60.152C257.71 59.56 257.342 59.208 256.814 59.208C256.286 59.208 255.918 59.56 255.918 60.152V66.136C255.918 66.728 256.302 67.08 256.814 67.08C257.342 67.08 257.71 66.728 257.71 66.136V62.712C257.71 61.544 258.126 60.76 259.118 60.76C259.358 60.76 259.614 60.824 259.838 60.888C259.982 60.936 260.126 60.968 260.254 60.968C260.782 60.968 261.134 60.584 261.134 60.056C261.134 59.752 260.99 59.496 260.654 59.32C260.414 59.208 260.11 59.112 259.678 59.112C258.766 59.112 258.062 59.592 257.726 60.184H257.71V60.152ZM265.348 67.176C266.436 67.176 267.3 66.744 267.78 66.2C268.02 65.944 268.1 65.736 268.1 65.496C268.1 65.048 267.764 64.712 267.316 64.712C267.044 64.712 266.82 64.856 266.58 65.096C266.292 65.416 265.924 65.576 265.364 65.576C264.676 65.576 264.148 65.24 263.924 64.568C263.796 64.184 263.764 63.736 263.764 63.144C263.764 62.552 263.796 62.104 263.924 61.72C264.148 61.048 264.676 60.712 265.364 60.712C265.924 60.712 266.292 60.872 266.58 61.192C266.82 61.432 267.044 61.576 267.316 61.576C267.764 61.576 268.1 61.24 268.1 60.792C268.1 60.552 268.02 60.344 267.78 60.088C267.3 59.544 266.436 59.112 265.348 59.112C263.796 59.112 262.628 59.864 262.18 61.24C262.02 61.72 261.94 62.328 261.94 63.144C261.94 63.96 262.02 64.568 262.18 65.048C262.628 66.424 263.796 67.176 265.348 67.176ZM273.053 67.176C274.301 67.176 275.149 66.808 275.837 66.248C276.077 66.056 276.205 65.848 276.205 65.544C276.205 65.112 275.917 64.792 275.453 64.792C275.213 64.792 275.005 64.904 274.797 65.048C274.301 65.384 273.869 65.576 273.213 65.576C272.333 65.576 271.725 65.16 271.469 64.408C271.405 64.232 271.357 64.04 271.357 63.816C271.357 63.752 271.389 63.72 271.453 63.72H275.757C276.157 63.72 276.381 63.464 276.381 63.096C276.381 62.36 276.285 61.752 276.125 61.24C275.693 59.928 274.541 59.112 272.957 59.112C271.421 59.112 270.237 59.896 269.805 61.24C269.645 61.736 269.549 62.344 269.549 63.144C269.549 63.944 269.661 64.536 269.821 65.032C270.253 66.376 271.405 67.176 273.053 67.176ZM274.573 62.28C274.573 62.344 274.541 62.376 274.477 62.376H271.453C271.389 62.376 271.357 62.344 271.357 62.28C271.357 62.008 271.389 61.816 271.453 61.624C271.661 61 272.237 60.632 272.973 60.632C273.693 60.632 274.269 61 274.477 61.624C274.541 61.816 274.573 62.008 274.573 62.28ZM280.101 60.008C280.021 59.544 279.733 59.208 279.205 59.208C278.677 59.208 278.309 59.56 278.309 60.152V66.136C278.309 66.728 278.677 67.08 279.205 67.08C279.733 67.08 280.101 66.728 280.101 66.136V62.392C280.101 61.4 280.629 60.712 281.573 60.712C282.549 60.712 283.029 61.4 283.029 62.392V66.136C283.029 66.728 283.397 67.08 283.925 67.08C284.453 67.08 284.821 66.728 284.821 66.136V61.976C284.821 60.328 283.797 59.112 282.149 59.112C281.237 59.112 280.517 59.448 280.117 60.008H280.101ZM287.074 60.68C287.138 60.68 287.186 60.712 287.186 60.776V64.664C287.186 66.344 287.826 67.096 289.506 67.096H289.65C290.306 67.096 290.626 66.744 290.626 66.296C290.626 65.896 290.37 65.544 289.81 65.496C289.154 65.432 288.978 65.24 288.978 64.616V60.776C288.978 60.712 289.01 60.68 289.074 60.68H289.89C290.338 60.68 290.626 60.408 290.626 59.992C290.626 59.576 290.338 59.288 289.89 59.288H289.074C289.01 59.288 288.978 59.256 288.978 59.192V57.784C288.978 57.192 288.61 56.84 288.098 56.84C287.57 56.84 287.186 57.192 287.186 57.784V59.192C287.186 59.256 287.138 59.288 287.074 59.288H286.85C286.402 59.288 286.114 59.576 286.114 59.992C286.114 60.408 286.402 60.68 286.85 60.68H287.074ZM299.083 67.176C300.635 67.176 301.819 66.392 302.251 65.048C302.427 64.504 302.507 63.992 302.507 63.144C302.507 62.296 302.427 61.784 302.251 61.24C301.819 59.896 300.635 59.112 299.083 59.112C297.515 59.112 296.331 59.896 295.899 61.24C295.723 61.784 295.643 62.296 295.643 63.144C295.643 63.992 295.723 64.504 295.899 65.048C296.331 66.392 297.515 67.176 299.083 67.176ZM299.083 65.576C298.363 65.576 297.851 65.208 297.627 64.568C297.499 64.168 297.467 63.8 297.467 63.144C297.467 62.488 297.499 62.136 297.627 61.72C297.851 61.08 298.363 60.712 299.083 60.712C299.803 60.712 300.299 61.08 300.523 61.72C300.651 62.136 300.683 62.488 300.683 63.144C300.683 63.8 300.651 64.168 300.523 64.568C300.299 65.208 299.803 65.576 299.083 65.576ZM307.234 56.12C305.474 56.12 304.674 56.808 304.674 58.68V59.192C304.674 59.256 304.626 59.288 304.562 59.288H304.306C303.858 59.288 303.57 59.576 303.57 59.992C303.57 60.408 303.858 60.68 304.306 60.68H304.562C304.626 60.68 304.674 60.712 304.674 60.776V66.136C304.674 66.728 305.042 67.08 305.57 67.08C306.082 67.08 306.466 66.728 306.466 66.136V60.776C306.466 60.712 306.498 60.68 306.562 60.68H307.442C307.89 60.68 308.178 60.408 308.178 59.992C308.178 59.576 307.89 59.288 307.442 59.288H306.562C306.498 59.288 306.466 59.256 306.466 59.192V58.648C306.466 57.928 306.658 57.72 307.394 57.72C307.874 57.72 308.21 57.384 308.21 56.92C308.21 56.424 307.858 56.12 307.298 56.12H307.234ZM315.735 67.096C316.375 67.096 316.663 66.744 316.663 66.28C316.663 65.88 316.439 65.56 315.911 65.496C315.463 65.432 315.287 65.24 315.287 64.696V56.984C315.287 56.392 314.903 56.04 314.391 56.04C313.863 56.04 313.495 56.392 313.495 56.984V64.84C313.495 66.312 314.039 67.096 315.607 67.096H315.735ZM321.272 67.176C322.52 67.176 323.368 66.808 324.056 66.248C324.296 66.056 324.424 65.848 324.424 65.544C324.424 65.112 324.136 64.792 323.672 64.792C323.432 64.792 323.224 64.904 323.016 65.048C322.52 65.384 322.088 65.576 321.432 65.576C320.552 65.576 319.944 65.16 319.688 64.408C319.624 64.232 319.576 64.04 319.576 63.816C319.576 63.752 319.608 63.72 319.672 63.72H323.976C324.376 63.72 324.6 63.464 324.6 63.096C324.6 62.36 324.504 61.752 324.344 61.24C323.912 59.928 322.76 59.112 321.176 59.112C319.64 59.112 318.456 59.896 318.024 61.24C317.864 61.736 317.768 62.344 317.768 63.144C317.768 63.944 317.88 64.536 318.04 65.032C318.472 66.376 319.624 67.176 321.272 67.176ZM322.792 62.28C322.792 62.344 322.76 62.376 322.696 62.376H319.672C319.608 62.376 319.576 62.344 319.576 62.28C319.576 62.008 319.608 61.816 319.672 61.624C319.88 61 320.456 60.632 321.192 60.632C321.912 60.632 322.488 61 322.696 61.624C322.76 61.816 322.792 62.008 322.792 62.28ZM333.023 65.72L332.783 65.304C332.671 65.096 332.623 64.936 332.623 64.536V62.104C332.623 60.2 331.583 59.112 329.391 59.112C328.335 59.112 327.535 59.352 327.039 59.64C326.719 59.8 326.591 60.088 326.591 60.344C326.591 60.792 326.895 61.08 327.327 61.08C327.471 61.08 327.631 61.048 327.791 60.984C328.127 60.824 328.655 60.664 329.199 60.664C330.415 60.664 330.927 61.192 330.927 62.088V62.28C330.927 62.344 330.895 62.376 330.831 62.376H329.247C327.343 62.376 326.175 63.176 326.175 64.84C326.175 66.312 327.151 67.176 328.975 67.176C330.015 67.176 330.799 66.856 331.247 66.328H331.263L331.519 66.712C331.695 66.968 331.951 67.08 332.271 67.08C332.783 67.08 333.167 66.728 333.167 66.248C333.167 66.072 333.119 65.896 333.023 65.72ZM329.231 65.72C328.351 65.72 327.887 65.4 327.887 64.76C327.887 64.056 328.367 63.72 329.551 63.72H330.831C330.895 63.72 330.927 63.752 330.927 63.816V64.504C330.927 65.32 330.271 65.72 329.231 65.72ZM336.694 60.152C336.694 59.56 336.326 59.208 335.798 59.208C335.27 59.208 334.902 59.56 334.902 60.152V66.136C334.902 66.728 335.286 67.08 335.798 67.08C336.326 67.08 336.694 66.728 336.694 66.136V62.712C336.694 61.544 337.11 60.76 338.102 60.76C338.342 60.76 338.598 60.824 338.822 60.888C338.966 60.936 339.11 60.968 339.238 60.968C339.766 60.968 340.118 60.584 340.118 60.056C340.118 59.752 339.974 59.496 339.638 59.32C339.398 59.208 339.094 59.112 338.662 59.112C337.75 59.112 337.046 59.592 336.71 60.184H336.694V60.152ZM343.413 60.008C343.333 59.544 343.045 59.208 342.517 59.208C341.989 59.208 341.621 59.56 341.621 60.152V66.136C341.621 66.728 341.989 67.08 342.517 67.08C343.045 67.08 343.413 66.728 343.413 66.136V62.392C343.413 61.4 343.941 60.712 344.885 60.712C345.861 60.712 346.341 61.4 346.341 62.392V66.136C346.341 66.728 346.709 67.08 347.237 67.08C347.765 67.08 348.133 66.728 348.133 66.136V61.976C348.133 60.328 347.109 59.112 345.461 59.112C344.549 59.112 343.829 59.448 343.429 60.008H343.413ZM353.475 67.176C354.723 67.176 355.571 66.808 356.259 66.248C356.499 66.056 356.627 65.848 356.627 65.544C356.627 65.112 356.339 64.792 355.875 64.792C355.635 64.792 355.427 64.904 355.219 65.048C354.723 65.384 354.291 65.576 353.635 65.576C352.755 65.576 352.147 65.16 351.891 64.408C351.827 64.232 351.779 64.04 351.779 63.816C351.779 63.752 351.811 63.72 351.875 63.72H356.179C356.579 63.72 356.803 63.464 356.803 63.096C356.803 62.36 356.707 61.752 356.547 61.24C356.115 59.928 354.963 59.112 353.379 59.112C351.843 59.112 350.659 59.896 350.227 61.24C350.067 61.736 349.971 62.344 349.971 63.144C349.971 63.944 350.083 64.536 350.243 65.032C350.675 66.376 351.827 67.176 353.475 67.176ZM354.995 62.28C354.995 62.344 354.963 62.376 354.899 62.376H351.875C351.811 62.376 351.779 62.344 351.779 62.28C351.779 62.008 351.811 61.816 351.875 61.624C352.083 61 352.659 60.632 353.395 60.632C354.115 60.632 354.691 61 354.899 61.624C354.963 61.816 354.995 62.008 354.995 62.28ZM360.523 60.152C360.523 59.56 360.155 59.208 359.627 59.208C359.099 59.208 358.731 59.56 358.731 60.152V66.136C358.731 66.728 359.115 67.08 359.627 67.08C360.155 67.08 360.523 66.728 360.523 66.136V62.712C360.523 61.544 360.939 60.76 361.931 60.76C362.171 60.76 362.427 60.824 362.651 60.888C362.795 60.936 362.939 60.968 363.067 60.968C363.595 60.968 363.947 60.584 363.947 60.056C363.947 59.752 363.803 59.496 363.467 59.32C363.227 59.208 362.923 59.112 362.491 59.112C361.579 59.112 360.875 59.592 360.539 60.184H360.523V60.152ZM368.172 67.176C370.268 67.176 371.42 66.12 371.42 64.584C371.42 63.304 370.668 62.472 369.036 62.312L368.204 62.232C367.228 62.136 366.94 61.864 366.94 61.416C366.94 60.968 367.308 60.616 368.108 60.616C368.684 60.616 369.276 60.792 369.772 61.032C370.012 61.16 370.156 61.208 370.332 61.208C370.78 61.208 371.084 60.872 371.084 60.424C371.084 60.104 370.892 59.88 370.54 59.688C369.916 59.352 369.084 59.112 368.204 59.112C366.268 59.112 365.212 60.072 365.212 61.544C365.212 62.856 365.996 63.64 367.58 63.816L368.412 63.896C369.42 63.992 369.692 64.264 369.692 64.744C369.692 65.32 369.148 65.656 368.268 65.656C367.468 65.656 366.892 65.4 366.3 65.032C366.108 64.92 365.916 64.856 365.74 64.856C365.26 64.856 364.924 65.24 364.924 65.672C364.924 65.976 365.052 66.2 365.356 66.392C365.996 66.824 366.988 67.176 368.172 67.176Z" fill="#777777"/><path d="M160.824 165.22C164.364 165.22 166.164 163.4 166.164 160.94C166.164 158.48 164.704 157.22 161.884 156.82L161.164 156.72C159.584 156.5 159.044 155.98 159.044 155.22C159.044 154.36 159.684 153.76 160.884 153.76C161.724 153.76 162.564 154 163.224 154.32C163.504 154.46 163.804 154.54 164.084 154.54C164.804 154.54 165.364 154 165.364 153.26C165.364 152.78 165.144 152.38 164.664 152.08C163.864 151.58 162.364 151.18 160.864 151.18C157.924 151.18 156.044 152.84 156.044 155.34C156.044 157.74 157.564 159.04 160.344 159.42L161.064 159.52C162.684 159.74 163.164 160.24 163.164 161.04C163.164 161.98 162.384 162.64 160.944 162.64C159.944 162.64 159.144 162.38 158.024 161.76C157.784 161.62 157.484 161.52 157.164 161.52C156.404 161.52 155.844 162.1 155.844 162.82C155.844 163.3 156.084 163.76 156.544 164.06C157.444 164.62 158.904 165.22 160.824 165.22ZM169.558 168.72C170.358 168.72 170.958 168.16 170.958 167.24V164.18H170.978C171.358 164.74 172.178 165.22 173.438 165.22C175.018 165.22 176.298 164.28 176.798 162.76C177.038 162.04 177.138 161.24 177.138 160.16C177.138 159.08 177.038 158.28 176.798 157.56C176.298 156.04 175.018 155.1 173.438 155.1C172.178 155.1 171.358 155.6 170.918 156.22H170.898C170.758 155.7 170.338 155.2 169.558 155.2C168.738 155.2 168.158 155.76 168.158 156.68V167.24C168.158 168.16 168.738 168.72 169.558 168.72ZM172.618 162.86C171.878 162.86 171.378 162.48 171.138 161.74C171.018 161.38 170.958 160.84 170.958 160.16C170.958 159.48 171.018 158.94 171.138 158.58C171.378 157.84 171.878 157.46 172.618 157.46C173.358 157.46 173.878 157.84 174.118 158.58C174.238 158.94 174.298 159.48 174.298 160.16C174.298 160.84 174.238 161.38 174.118 161.74C173.878 162.48 173.358 162.86 172.618 162.86ZM187.734 163L187.474 162.56C187.334 162.32 187.294 162.1 187.294 161.64V159C187.294 156.58 185.894 155.1 182.974 155.1C181.634 155.1 180.654 155.34 180.014 155.66C179.494 155.92 179.294 156.36 179.294 156.78C179.294 157.46 179.754 157.9 180.414 157.9C180.614 157.9 180.834 157.84 181.074 157.76C181.434 157.62 182.034 157.48 182.634 157.48C183.974 157.48 184.614 158.02 184.614 158.92V159.02C184.614 159.1 184.574 159.14 184.494 159.14H182.754C180.354 159.14 178.754 160.12 178.754 162.26C178.754 164.1 179.954 165.22 182.434 165.22C183.634 165.22 184.674 164.86 185.174 164.24H185.194L185.434 164.58C185.694 164.94 186.094 165.12 186.574 165.12C187.354 165.12 187.974 164.56 187.974 163.82C187.974 163.54 187.894 163.26 187.734 163ZM182.814 163.12C181.894 163.12 181.414 162.78 181.414 162.1C181.414 161.36 181.954 161 183.134 161H184.494C184.574 161 184.614 161.04 184.614 161.12V161.78C184.614 162.68 183.994 163.12 182.814 163.12ZM196.96 165.12C197.78 165.12 198.36 164.56 198.36 163.64V158.7C198.36 156.6 197.2 155.1 195.06 155.1C193.82 155.1 192.98 155.6 192.5 156.22H192.48C192.32 155.58 191.8 155.2 191.14 155.2C190.32 155.2 189.74 155.76 189.74 156.68V163.64C189.74 164.56 190.32 165.12 191.14 165.12C191.94 165.12 192.54 164.56 192.54 163.64V159.24C192.54 158.18 193.04 157.48 194.04 157.48C195.04 157.48 195.56 158.18 195.56 159.24V163.64C195.56 164.56 196.16 165.12 196.96 165.12ZM202.195 154.34C203.075 154.34 203.775 153.64 203.775 152.76C203.775 151.88 203.075 151.18 202.195 151.18C201.315 151.18 200.615 151.88 200.615 152.76C200.615 153.64 201.315 154.34 202.195 154.34ZM202.195 165.12C202.995 165.12 203.595 164.56 203.595 163.64V156.68C203.595 155.76 202.995 155.2 202.195 155.2C201.375 155.2 200.795 155.76 200.795 156.68V163.64C200.795 164.56 201.375 165.12 202.195 165.12ZM209.848 165.22C212.588 165.22 214.168 163.88 214.168 161.9C214.168 160.28 213.228 159.22 210.948 158.96L209.888 158.84C208.788 158.72 208.548 158.48 208.548 158.04C208.548 157.58 208.908 157.28 209.768 157.28C210.468 157.28 211.128 157.42 211.728 157.7C212.108 157.88 212.328 157.94 212.528 157.94C213.188 157.94 213.628 157.46 213.628 156.84C213.628 156.36 213.348 156.02 212.808 155.74C211.988 155.32 210.948 155.1 209.868 155.1C207.328 155.1 205.868 156.32 205.868 158.22C205.868 159.9 206.928 160.94 209.028 161.18L210.088 161.3C211.228 161.42 211.488 161.66 211.488 162.12C211.488 162.66 211.008 163.02 209.988 163.02C209.048 163.02 208.308 162.72 207.608 162.32C207.288 162.14 207.048 162.06 206.788 162.06C206.148 162.06 205.628 162.56 205.628 163.18C205.628 163.64 205.828 164 206.308 164.3C207.108 164.8 208.328 165.22 209.848 165.22ZM223.425 165.12C224.245 165.12 224.825 164.56 224.825 163.64V158.7C224.825 156.6 223.665 155.1 221.525 155.1C220.285 155.1 219.485 155.6 219.025 156.14H219.005V152.76C219.005 151.84 218.405 151.28 217.605 151.28C216.785 151.28 216.205 151.84 216.205 152.76V163.64C216.205 164.56 216.785 165.12 217.605 165.12C218.405 165.12 219.005 164.56 219.005 163.64V159.24C219.005 158.18 219.505 157.48 220.505 157.48C221.505 157.48 222.025 158.18 222.025 159.24V163.64C222.025 164.56 222.625 165.12 223.425 165.12Z" fill="#4B4B4B"/><path d="M166.382 246.56C166.382 247.5 167.002 248.12 167.862 248.12C168.702 248.12 169.322 247.5 169.322 246.56V242.68C169.322 242.6 169.362 242.56 169.442 242.56H173.282C174.142 242.56 174.642 242.04 174.642 241.3C174.642 240.56 174.142 240.04 173.282 240.04H169.442C169.362 240.04 169.322 240 169.322 239.92V237.06C169.322 236.98 169.362 236.94 169.442 236.94H174.262C175.082 236.94 175.622 236.4 175.622 235.68C175.622 234.94 175.082 234.4 174.262 234.4H167.662C166.862 234.4 166.382 234.92 166.382 235.7V246.56ZM178.269 248.12C179.069 248.12 179.669 247.56 179.669 246.64V242.7C179.669 241.4 180.109 240.66 181.149 240.66C181.369 240.66 181.669 240.7 181.869 240.76C182.069 240.82 182.269 240.86 182.469 240.86C183.289 240.86 183.849 240.26 183.849 239.44C183.849 238.96 183.609 238.54 183.109 238.3C182.849 238.18 182.529 238.1 182.089 238.1C180.989 238.1 180.089 238.66 179.649 239.3H179.629V239.28C179.469 238.58 178.929 238.2 178.269 238.2C177.449 238.2 176.869 238.76 176.869 239.68V246.64C176.869 247.56 177.449 248.12 178.269 248.12ZM189.233 248.22C190.733 248.22 191.813 247.82 192.733 247.18C193.093 246.94 193.293 246.6 193.293 246.18C193.293 245.58 192.853 245.14 192.273 245.14C191.993 245.14 191.653 245.24 191.313 245.44C190.793 245.72 190.153 245.94 189.493 245.94C188.493 245.94 187.753 245.5 187.493 244.68C187.433 244.5 187.393 244.32 187.393 244.12C187.393 244.04 187.433 244 187.513 244H192.653C193.233 244 193.573 243.62 193.573 243.08C193.573 242.18 193.473 241.5 193.253 240.82C192.693 239.1 191.213 238.1 189.073 238.1C187.013 238.1 185.473 239.08 184.893 240.84C184.693 241.44 184.593 242.14 184.593 243.16C184.593 244.16 184.713 244.86 184.913 245.46C185.473 247.2 186.993 248.22 189.233 248.22ZM187.513 242.14C187.433 242.14 187.393 242.1 187.393 242.02C187.393 241.7 187.433 241.5 187.493 241.3C187.713 240.62 188.293 240.24 189.092 240.24C189.893 240.24 190.493 240.62 190.713 241.3C190.773 241.5 190.813 241.7 190.813 242.02C190.813 242.1 190.773 242.14 190.693 242.14H187.513ZM202.839 248.12C203.659 248.12 204.239 247.56 204.239 246.64V241.7C204.239 239.6 203.079 238.1 200.939 238.1C199.699 238.1 198.859 238.6 198.379 239.22H198.359C198.199 238.58 197.679 238.2 197.019 238.2C196.199 238.2 195.619 238.76 195.619 239.68V246.64C195.619 247.56 196.199 248.12 197.019 248.12C197.819 248.12 198.419 247.56 198.419 246.64V242.24C198.419 241.18 198.919 240.48 199.919 240.48C200.919 240.48 201.439 241.18 201.439 242.24V246.64C201.439 247.56 202.039 248.12 202.839 248.12ZM210.634 248.22C211.974 248.22 213.054 247.78 213.674 247.16C214.074 246.76 214.234 246.44 214.234 246.04C214.234 245.34 213.714 244.84 213.014 244.84C212.594 244.84 212.274 245.06 211.874 245.42C211.554 245.72 211.194 245.86 210.674 245.86C209.934 245.86 209.434 245.52 209.214 244.8C209.094 244.42 209.034 243.96 209.034 243.16C209.034 242.36 209.094 241.9 209.214 241.52C209.434 240.8 209.934 240.46 210.674 240.46C211.194 240.46 211.554 240.6 211.874 240.9C212.274 241.26 212.594 241.48 213.014 241.48C213.714 241.48 214.234 240.98 214.234 240.28C214.234 239.88 214.074 239.56 213.674 239.16C213.054 238.54 211.974 238.1 210.634 238.1C208.594 238.1 207.094 239.06 206.514 240.86C206.314 241.44 206.194 242.14 206.194 243.16C206.194 244.18 206.314 244.88 206.514 245.46C207.094 247.26 208.594 248.22 210.634 248.22ZM223.425 248.12C224.245 248.12 224.825 247.56 224.825 246.64V241.7C224.825 239.6 223.665 238.1 221.525 238.1C220.285 238.1 219.485 238.6 219.025 239.14H219.005V235.76C219.005 234.84 218.405 234.28 217.605 234.28C216.785 234.28 216.205 234.84 216.205 235.76V246.64C216.205 247.56 216.785 248.12 217.605 248.12C218.405 248.12 219.005 247.56 219.005 246.64V242.24C219.005 241.18 219.505 240.48 220.505 240.48C221.505 240.48 222.025 241.18 222.025 242.24V246.64C222.025 247.56 222.625 248.12 223.425 248.12Z" fill="#4B4B4B"/><line y1="-0.75" x2="7.39482" y2="-0.75" transform="matrix(-4.37114e-08 1 1 4.37114e-08 246.5 103)" stroke="#777777" stroke-width="1.5"/><path d="M237.655 94.048C238.087 95.408 239.127 96.176 240.743 96.176C242.359 96.176 243.399 95.408 243.847 94.048C243.991 93.6 244.071 93.088 244.071 90.56C244.071 88.032 243.991 87.52 243.847 87.072C243.399 85.712 242.359 84.944 240.743 84.944C239.127 84.944 238.087 85.712 237.655 87.072C237.511 87.52 237.431 88.032 237.431 90.56C237.431 93.088 237.511 93.6 237.655 94.048ZM239.415 93.712C239.303 93.376 239.271 93.008 239.271 90.56C239.271 88.112 239.303 87.744 239.415 87.408C239.623 86.832 240.071 86.544 240.743 86.544C241.415 86.544 241.879 86.832 242.087 87.408C242.199 87.744 242.231 88.112 242.231 90.56C242.231 93.008 242.199 93.376 242.087 93.712C241.879 94.288 241.415 94.576 240.743 94.576C240.071 94.576 239.623 94.288 239.415 93.712ZM247.861 95.68C247.861 96.016 248.101 96.256 248.437 96.256C248.677 96.256 248.869 96.128 248.997 95.888L254.821 85.824C254.885 85.712 254.933 85.584 254.933 85.456C254.933 85.12 254.693 84.88 254.357 84.88C254.101 84.88 253.925 84.992 253.781 85.232L247.957 95.312C247.893 95.424 247.861 95.552 247.861 95.68ZM248.213 90.72C249.173 90.72 249.909 90.224 250.149 89.456C250.261 89.12 250.293 88.848 250.293 87.856C250.293 86.864 250.261 86.592 250.149 86.256C249.909 85.488 249.173 84.992 248.213 84.992C247.253 84.992 246.517 85.488 246.277 86.256C246.165 86.592 246.133 86.864 246.133 87.856C246.133 88.848 246.165 89.12 246.277 89.456C246.517 90.224 247.253 90.72 248.213 90.72ZM248.213 89.568C247.877 89.568 247.605 89.408 247.509 89.104C247.461 88.96 247.429 88.752 247.429 87.856C247.429 86.96 247.461 86.752 247.509 86.608C247.605 86.304 247.877 86.144 248.213 86.144C248.549 86.144 248.821 86.304 248.917 86.608C248.965 86.752 248.997 86.96 248.997 87.856C248.997 88.752 248.965 88.96 248.917 89.104C248.821 89.408 248.549 89.568 248.213 89.568ZM252.629 94.88C252.869 95.648 253.605 96.144 254.565 96.144C255.525 96.144 256.261 95.648 256.501 94.88C256.613 94.544 256.645 94.272 256.645 93.28C256.645 92.288 256.613 92.016 256.501 91.68C256.261 90.912 255.525 90.416 254.565 90.416C253.605 90.416 252.869 90.912 252.629 91.68C252.517 92.016 252.485 92.288 252.485 93.28C252.485 94.272 252.517 94.544 252.629 94.88ZM253.861 94.528C253.813 94.384 253.781 94.176 253.781 93.28C253.781 92.384 253.813 92.176 253.861 92.032C253.957 91.728 254.229 91.568 254.565 91.568C254.901 91.568 255.173 91.728 255.269 92.032C255.317 92.176 255.349 92.384 255.349 93.28C255.349 94.176 255.317 94.384 255.269 94.528C255.173 94.832 254.901 94.992 254.565 94.992C254.229 94.992 253.957 94.832 253.861 94.528Z" fill="#777777"/><line y1="-0.75" x2="7.39482" y2="-0.75" transform="matrix(-4.37114e-08 1 1 4.37114e-08 514.5 103)" stroke="#777777" stroke-width="1.5"/><path d="M502.037 94.24H505.573C505.637 94.24 505.669 94.272 505.669 94.336V95.136C505.669 95.728 506.037 96.08 506.565 96.08C507.093 96.08 507.461 95.728 507.461 95.136V94.336C507.461 94.272 507.493 94.24 507.557 94.24H507.909C508.437 94.24 508.741 93.904 508.741 93.44C508.741 92.976 508.437 92.64 507.909 92.64H507.557C507.493 92.64 507.461 92.608 507.461 92.544V90.592C507.461 90.016 507.045 89.664 506.533 89.664C506.037 89.664 505.669 90.016 505.669 90.592V92.544C505.669 92.608 505.637 92.64 505.573 92.64H503.125V92.608L506.053 86.416C506.149 86.208 506.197 86.016 506.197 85.872C506.197 85.36 505.861 85.04 505.365 85.04C504.949 85.04 504.693 85.248 504.533 85.616L501.381 92.32C501.157 92.816 501.077 93.008 501.077 93.328C501.077 93.872 501.429 94.24 502.037 94.24ZM510.546 94.048C510.978 95.408 512.018 96.176 513.634 96.176C515.25 96.176 516.29 95.408 516.738 94.048C516.882 93.6 516.962 93.088 516.962 90.56C516.962 88.032 516.882 87.52 516.738 87.072C516.29 85.712 515.25 84.944 513.634 84.944C512.018 84.944 510.978 85.712 510.546 87.072C510.402 87.52 510.322 88.032 510.322 90.56C510.322 93.088 510.402 93.6 510.546 94.048ZM512.306 93.712C512.194 93.376 512.162 93.008 512.162 90.56C512.162 88.112 512.194 87.744 512.306 87.408C512.514 86.832 512.962 86.544 513.634 86.544C514.306 86.544 514.77 86.832 514.978 87.408C515.09 87.744 515.122 88.112 515.122 90.56C515.122 93.008 515.09 93.376 514.978 93.712C514.77 94.288 514.306 94.576 513.634 94.576C512.962 94.576 512.514 94.288 512.306 93.712ZM520.751 95.68C520.751 96.016 520.991 96.256 521.327 96.256C521.567 96.256 521.759 96.128 521.887 95.888L527.711 85.824C527.775 85.712 527.823 85.584 527.823 85.456C527.823 85.12 527.583 84.88 527.247 84.88C526.991 84.88 526.815 84.992 526.671 85.232L520.847 95.312C520.783 95.424 520.751 95.552 520.751 95.68ZM521.103 90.72C522.063 90.72 522.799 90.224 523.039 89.456C523.151 89.12 523.183 88.848 523.183 87.856C523.183 86.864 523.151 86.592 523.039 86.256C522.799 85.488 522.063 84.992 521.103 84.992C520.143 84.992 519.407 85.488 519.167 86.256C519.055 86.592 519.023 86.864 519.023 87.856C519.023 88.848 519.055 89.12 519.167 89.456C519.407 90.224 520.143 90.72 521.103 90.72ZM521.103 89.568C520.767 89.568 520.495 89.408 520.399 89.104C520.351 88.96 520.319 88.752 520.319 87.856C520.319 86.96 520.351 86.752 520.399 86.608C520.495 86.304 520.767 86.144 521.103 86.144C521.439 86.144 521.711 86.304 521.807 86.608C521.855 86.752 521.887 86.96 521.887 87.856C521.887 88.752 521.855 88.96 521.807 89.104C521.711 89.408 521.439 89.568 521.103 89.568ZM525.519 94.88C525.759 95.648 526.495 96.144 527.455 96.144C528.415 96.144 529.151 95.648 529.391 94.88C529.503 94.544 529.535 94.272 529.535 93.28C529.535 92.288 529.503 92.016 529.391 91.68C529.151 90.912 528.415 90.416 527.455 90.416C526.495 90.416 525.759 90.912 525.519 91.68C525.407 92.016 525.375 92.288 525.375 93.28C525.375 94.272 525.407 94.544 525.519 94.88ZM526.751 94.528C526.703 94.384 526.671 94.176 526.671 93.28C526.671 92.384 526.703 92.176 526.751 92.032C526.847 91.728 527.119 91.568 527.455 91.568C527.791 91.568 528.063 91.728 528.159 92.032C528.207 92.176 528.239 92.384 528.239 93.28C528.239 94.176 528.207 94.384 528.159 94.528C528.063 94.832 527.791 94.992 527.455 94.992C527.119 94.992 526.847 94.832 526.751 94.528Z" fill="#777777"/><line y1="-0.75" x2="7.39482" y2="-0.75" transform="matrix(-4.37114e-08 1 1 4.37114e-08 648.5 103)" stroke="#777777" stroke-width="1.5"/><path d="M635.397 92.816C635.397 94.96 636.933 96.176 638.869 96.176C640.805 96.176 642.341 94.96 642.341 92.736C642.341 90.736 640.917 89.52 639.237 89.52C638.901 89.52 638.581 89.584 638.421 89.664L638.389 89.632L640.261 86.352C640.357 86.176 640.389 86 640.389 85.84C640.389 85.344 640.005 85.04 639.557 85.04C639.221 85.04 638.933 85.2 638.757 85.536L636.117 90.32C635.701 91.088 635.397 91.952 635.397 92.816ZM637.205 92.848C637.205 91.824 637.845 91.12 638.869 91.12C639.893 91.12 640.533 91.824 640.533 92.848C640.533 93.872 639.893 94.576 638.869 94.576C637.845 94.576 637.205 93.872 637.205 92.848ZM644.546 94.048C644.978 95.408 646.018 96.176 647.634 96.176C649.25 96.176 650.29 95.408 650.738 94.048C650.882 93.6 650.962 93.088 650.962 90.56C650.962 88.032 650.882 87.52 650.738 87.072C650.29 85.712 649.25 84.944 647.634 84.944C646.018 84.944 644.978 85.712 644.546 87.072C644.402 87.52 644.322 88.032 644.322 90.56C644.322 93.088 644.402 93.6 644.546 94.048ZM646.306 93.712C646.194 93.376 646.162 93.008 646.162 90.56C646.162 88.112 646.194 87.744 646.306 87.408C646.514 86.832 646.962 86.544 647.634 86.544C648.306 86.544 648.77 86.832 648.978 87.408C649.09 87.744 649.122 88.112 649.122 90.56C649.122 93.008 649.09 93.376 648.978 93.712C648.77 94.288 648.306 94.576 647.634 94.576C646.962 94.576 646.514 94.288 646.306 93.712ZM654.751 95.68C654.751 96.016 654.991 96.256 655.327 96.256C655.567 96.256 655.759 96.128 655.887 95.888L661.711 85.824C661.775 85.712 661.823 85.584 661.823 85.456C661.823 85.12 661.583 84.88 661.247 84.88C660.991 84.88 660.815 84.992 660.671 85.232L654.847 95.312C654.783 95.424 654.751 95.552 654.751 95.68ZM655.103 90.72C656.063 90.72 656.799 90.224 657.039 89.456C657.151 89.12 657.183 88.848 657.183 87.856C657.183 86.864 657.151 86.592 657.039 86.256C656.799 85.488 656.063 84.992 655.103 84.992C654.143 84.992 653.407 85.488 653.167 86.256C653.055 86.592 653.023 86.864 653.023 87.856C653.023 88.848 653.055 89.12 653.167 89.456C653.407 90.224 654.143 90.72 655.103 90.72ZM655.103 89.568C654.767 89.568 654.495 89.408 654.399 89.104C654.351 88.96 654.319 88.752 654.319 87.856C654.319 86.96 654.351 86.752 654.399 86.608C654.495 86.304 654.767 86.144 655.103 86.144C655.439 86.144 655.711 86.304 655.807 86.608C655.855 86.752 655.887 86.96 655.887 87.856C655.887 88.752 655.855 88.96 655.807 89.104C655.711 89.408 655.439 89.568 655.103 89.568ZM659.519 94.88C659.759 95.648 660.495 96.144 661.455 96.144C662.415 96.144 663.151 95.648 663.391 94.88C663.503 94.544 663.535 94.272 663.535 93.28C663.535 92.288 663.503 92.016 663.391 91.68C663.151 90.912 662.415 90.416 661.455 90.416C660.495 90.416 659.759 90.912 659.519 91.68C659.407 92.016 659.375 92.288 659.375 93.28C659.375 94.272 659.407 94.544 659.519 94.88ZM660.751 94.528C660.703 94.384 660.671 94.176 660.671 93.28C660.671 92.384 660.703 92.176 660.751 92.032C660.847 91.728 661.119 91.568 661.455 91.568C661.791 91.568 662.063 91.728 662.159 92.032C662.207 92.176 662.239 92.384 662.239 93.28C662.239 94.176 662.207 94.384 662.159 94.528C662.063 94.832 661.791 94.992 661.455 94.992C661.119 94.992 660.847 94.832 660.751 94.528Z" fill="#777777"/><line y1="-0.75" x2="7.39482" y2="-0.75" transform="matrix(-4.37114e-08 1 1 4.37114e-08 782.5 103)" stroke="#777777" stroke-width="1.5"/><path d="M769.349 92.912C769.349 94.848 770.805 96.176 772.853 96.176C774.917 96.176 776.373 94.848 776.373 92.912C776.373 91.68 775.749 90.768 775.013 90.304V90.272C775.557 89.904 776.133 89.104 776.133 88.048C776.133 86.416 774.965 84.944 772.853 84.944C770.757 84.944 769.589 86.416 769.589 88.048C769.589 89.104 770.165 89.904 770.709 90.272V90.304C769.973 90.768 769.349 91.68 769.349 92.912ZM772.853 89.488C771.973 89.488 771.397 88.8 771.397 88.016C771.397 87.216 771.973 86.544 772.853 86.544C773.749 86.544 774.325 87.216 774.325 88.016C774.325 88.8 773.749 89.488 772.853 89.488ZM771.157 92.832C771.157 91.824 771.829 91.088 772.853 91.088C773.893 91.088 774.565 91.824 774.565 92.832C774.565 93.856 773.893 94.576 772.853 94.576C771.829 94.576 771.157 93.856 771.157 92.832ZM778.546 94.048C778.978 95.408 780.018 96.176 781.634 96.176C783.25 96.176 784.29 95.408 784.738 94.048C784.882 93.6 784.962 93.088 784.962 90.56C784.962 88.032 784.882 87.52 784.738 87.072C784.29 85.712 783.25 84.944 781.634 84.944C780.018 84.944 778.978 85.712 778.546 87.072C778.402 87.52 778.322 88.032 778.322 90.56C778.322 93.088 778.402 93.6 778.546 94.048ZM780.306 93.712C780.194 93.376 780.162 93.008 780.162 90.56C780.162 88.112 780.194 87.744 780.306 87.408C780.514 86.832 780.962 86.544 781.634 86.544C782.306 86.544 782.77 86.832 782.978 87.408C783.09 87.744 783.122 88.112 783.122 90.56C783.122 93.008 783.09 93.376 782.978 93.712C782.77 94.288 782.306 94.576 781.634 94.576C780.962 94.576 780.514 94.288 780.306 93.712ZM788.751 95.68C788.751 96.016 788.991 96.256 789.327 96.256C789.567 96.256 789.759 96.128 789.887 95.888L795.711 85.824C795.775 85.712 795.823 85.584 795.823 85.456C795.823 85.12 795.583 84.88 795.247 84.88C794.991 84.88 794.815 84.992 794.671 85.232L788.847 95.312C788.783 95.424 788.751 95.552 788.751 95.68ZM789.103 90.72C790.063 90.72 790.799 90.224 791.039 89.456C791.151 89.12 791.183 88.848 791.183 87.856C791.183 86.864 791.151 86.592 791.039 86.256C790.799 85.488 790.063 84.992 789.103 84.992C788.143 84.992 787.407 85.488 787.167 86.256C787.055 86.592 787.023 86.864 787.023 87.856C787.023 88.848 787.055 89.12 787.167 89.456C787.407 90.224 788.143 90.72 789.103 90.72ZM789.103 89.568C788.767 89.568 788.495 89.408 788.399 89.104C788.351 88.96 788.319 88.752 788.319 87.856C788.319 86.96 788.351 86.752 788.399 86.608C788.495 86.304 788.767 86.144 789.103 86.144C789.439 86.144 789.711 86.304 789.807 86.608C789.855 86.752 789.887 86.96 789.887 87.856C789.887 88.752 789.855 88.96 789.807 89.104C789.711 89.408 789.439 89.568 789.103 89.568ZM793.519 94.88C793.759 95.648 794.495 96.144 795.455 96.144C796.415 96.144 797.151 95.648 797.391 94.88C797.503 94.544 797.535 94.272 797.535 93.28C797.535 92.288 797.503 92.016 797.391 91.68C797.151 90.912 796.415 90.416 795.455 90.416C794.495 90.416 793.759 90.912 793.519 91.68C793.407 92.016 793.375 92.288 793.375 93.28C793.375 94.272 793.407 94.544 793.519 94.88ZM794.751 94.528C794.703 94.384 794.671 94.176 794.671 93.28C794.671 92.384 794.703 92.176 794.751 92.032C794.847 91.728 795.119 91.568 795.455 91.568C795.791 91.568 796.063 91.728 796.159 92.032C796.207 92.176 796.239 92.384 796.239 93.28C796.239 94.176 796.207 94.384 796.159 94.528C796.063 94.832 795.791 94.992 795.455 94.992C795.119 94.992 794.847 94.832 794.751 94.528Z" fill="#777777"/><line y1="-0.75" x2="7.39482" y2="-0.75" transform="matrix(-4.37114e-08 1 1 4.37114e-08 917.5 103)" stroke="#777777" stroke-width="1.5"/><path d="M902.03 95.136C902.03 95.728 902.398 96.08 902.926 96.08C903.454 96.08 903.822 95.728 903.822 95.136V86.096C903.822 85.456 903.438 85.04 902.846 85.04C902.446 85.04 902.11 85.184 901.726 85.456L899.982 86.688C899.678 86.912 899.502 87.184 899.502 87.472C899.502 87.904 899.854 88.256 900.254 88.256C900.446 88.256 900.638 88.208 900.798 88.096L901.998 87.248H902.03V95.136ZM908.155 94.048C908.587 95.408 909.627 96.176 911.243 96.176C912.859 96.176 913.899 95.408 914.347 94.048C914.491 93.6 914.571 93.088 914.571 90.56C914.571 88.032 914.491 87.52 914.347 87.072C913.899 85.712 912.859 84.944 911.243 84.944C909.627 84.944 908.587 85.712 908.155 87.072C908.011 87.52 907.931 88.032 907.931 90.56C907.931 93.088 908.011 93.6 908.155 94.048ZM909.915 93.712C909.803 93.376 909.771 93.008 909.771 90.56C909.771 88.112 909.803 87.744 909.915 87.408C910.123 86.832 910.571 86.544 911.243 86.544C911.915 86.544 912.379 86.832 912.587 87.408C912.699 87.744 912.731 88.112 912.731 90.56C912.731 93.008 912.699 93.376 912.587 93.712C912.379 94.288 911.915 94.576 911.243 94.576C910.571 94.576 910.123 94.288 909.915 93.712ZM916.937 94.048C917.369 95.408 918.409 96.176 920.025 96.176C921.641 96.176 922.681 95.408 923.129 94.048C923.273 93.6 923.353 93.088 923.353 90.56C923.353 88.032 923.273 87.52 923.129 87.072C922.681 85.712 921.641 84.944 920.025 84.944C918.409 84.944 917.369 85.712 916.937 87.072C916.793 87.52 916.713 88.032 916.713 90.56C916.713 93.088 916.793 93.6 916.937 94.048ZM918.697 93.712C918.585 93.376 918.553 93.008 918.553 90.56C918.553 88.112 918.585 87.744 918.697 87.408C918.905 86.832 919.353 86.544 920.025 86.544C920.697 86.544 921.161 86.832 921.369 87.408C921.481 87.744 921.513 88.112 921.513 90.56C921.513 93.008 921.481 93.376 921.369 93.712C921.161 94.288 920.697 94.576 920.025 94.576C919.353 94.576 918.905 94.288 918.697 93.712ZM927.142 95.68C927.142 96.016 927.382 96.256 927.718 96.256C927.958 96.256 928.15 96.128 928.278 95.888L934.102 85.824C934.166 85.712 934.214 85.584 934.214 85.456C934.214 85.12 933.974 84.88 933.638 84.88C933.382 84.88 933.206 84.992 933.062 85.232L927.238 95.312C927.174 95.424 927.142 95.552 927.142 95.68ZM927.494 90.72C928.454 90.72 929.19 90.224 929.43 89.456C929.542 89.12 929.574 88.848 929.574 87.856C929.574 86.864 929.542 86.592 929.43 86.256C929.19 85.488 928.454 84.992 927.494 84.992C926.534 84.992 925.798 85.488 925.558 86.256C925.446 86.592 925.414 86.864 925.414 87.856C925.414 88.848 925.446 89.12 925.558 89.456C925.798 90.224 926.534 90.72 927.494 90.72ZM927.494 89.568C927.158 89.568 926.886 89.408 926.79 89.104C926.742 88.96 926.71 88.752 926.71 87.856C926.71 86.96 926.742 86.752 926.79 86.608C926.886 86.304 927.158 86.144 927.494 86.144C927.83 86.144 928.102 86.304 928.198 86.608C928.246 86.752 928.278 86.96 928.278 87.856C928.278 88.752 928.246 88.96 928.198 89.104C928.102 89.408 927.83 89.568 927.494 89.568ZM931.91 94.88C932.15 95.648 932.886 96.144 933.846 96.144C934.806 96.144 935.542 95.648 935.782 94.88C935.894 94.544 935.926 94.272 935.926 93.28C935.926 92.288 935.894 92.016 935.782 91.68C935.542 90.912 934.806 90.416 933.846 90.416C932.886 90.416 932.15 90.912 931.91 91.68C931.798 92.016 931.766 92.288 931.766 93.28C931.766 94.272 931.798 94.544 931.91 94.88ZM933.142 94.528C933.094 94.384 933.062 94.176 933.062 93.28C933.062 92.384 933.094 92.176 933.142 92.032C933.238 91.728 933.51 91.568 933.846 91.568C934.182 91.568 934.454 91.728 934.55 92.032C934.598 92.176 934.63 92.384 934.63 93.28C934.63 94.176 934.598 94.384 934.55 94.528C934.454 94.832 934.182 94.992 933.846 94.992C933.51 94.992 933.238 94.832 933.142 94.528Z" fill="#777777"/><line y1="-0.75" x2="7.39482" y2="-0.75" transform="matrix(-4.37114e-08 1 1 4.37114e-08 380.5 103)" stroke="#777777" stroke-width="1.5"/><path d="M367.477 95.216C367.477 95.68 367.797 96 368.325 96H373.333C373.861 96 374.165 95.664 374.165 95.2C374.165 94.736 373.861 94.4 373.333 94.4H369.877V94.368L372.997 90.624C373.669 89.808 374.085 88.992 374.085 87.968C374.085 86.24 372.885 84.944 370.885 84.944C369.029 84.944 367.909 86.08 367.669 87.184C367.653 87.28 367.637 87.36 367.637 87.44C367.637 87.936 367.989 88.24 368.485 88.24C368.853 88.24 369.157 88.016 369.317 87.6C369.589 86.88 370.053 86.544 370.837 86.544C371.733 86.544 372.293 87.12 372.293 88C372.293 88.608 372.021 89.136 371.573 89.696L368.021 94.096C367.621 94.576 367.477 94.848 367.477 95.216ZM376.546 94.048C376.978 95.408 378.018 96.176 379.634 96.176C381.25 96.176 382.29 95.408 382.738 94.048C382.882 93.6 382.962 93.088 382.962 90.56C382.962 88.032 382.882 87.52 382.738 87.072C382.29 85.712 381.25 84.944 379.634 84.944C378.018 84.944 376.978 85.712 376.546 87.072C376.402 87.52 376.322 88.032 376.322 90.56C376.322 93.088 376.402 93.6 376.546 94.048ZM378.306 93.712C378.194 93.376 378.162 93.008 378.162 90.56C378.162 88.112 378.194 87.744 378.306 87.408C378.514 86.832 378.962 86.544 379.634 86.544C380.306 86.544 380.77 86.832 380.978 87.408C381.09 87.744 381.122 88.112 381.122 90.56C381.122 93.008 381.09 93.376 380.978 93.712C380.77 94.288 380.306 94.576 379.634 94.576C378.962 94.576 378.514 94.288 378.306 93.712ZM386.751 95.68C386.751 96.016 386.991 96.256 387.327 96.256C387.567 96.256 387.759 96.128 387.887 95.888L393.711 85.824C393.775 85.712 393.823 85.584 393.823 85.456C393.823 85.12 393.583 84.88 393.247 84.88C392.991 84.88 392.815 84.992 392.671 85.232L386.847 95.312C386.783 95.424 386.751 95.552 386.751 95.68ZM387.103 90.72C388.063 90.72 388.799 90.224 389.039 89.456C389.151 89.12 389.183 88.848 389.183 87.856C389.183 86.864 389.151 86.592 389.039 86.256C388.799 85.488 388.063 84.992 387.103 84.992C386.143 84.992 385.407 85.488 385.167 86.256C385.055 86.592 385.023 86.864 385.023 87.856C385.023 88.848 385.055 89.12 385.167 89.456C385.407 90.224 386.143 90.72 387.103 90.72ZM387.103 89.568C386.767 89.568 386.495 89.408 386.399 89.104C386.351 88.96 386.319 88.752 386.319 87.856C386.319 86.96 386.351 86.752 386.399 86.608C386.495 86.304 386.767 86.144 387.103 86.144C387.439 86.144 387.711 86.304 387.807 86.608C387.855 86.752 387.887 86.96 387.887 87.856C387.887 88.752 387.855 88.96 387.807 89.104C387.711 89.408 387.439 89.568 387.103 89.568ZM391.519 94.88C391.759 95.648 392.495 96.144 393.455 96.144C394.415 96.144 395.151 95.648 395.391 94.88C395.503 94.544 395.535 94.272 395.535 93.28C395.535 92.288 395.503 92.016 395.391 91.68C395.151 90.912 394.415 90.416 393.455 90.416C392.495 90.416 391.759 90.912 391.519 91.68C391.407 92.016 391.375 92.288 391.375 93.28C391.375 94.272 391.407 94.544 391.519 94.88ZM392.751 94.528C392.703 94.384 392.671 94.176 392.671 93.28C392.671 92.384 392.703 92.176 392.751 92.032C392.847 91.728 393.119 91.568 393.455 91.568C393.791 91.568 394.063 91.728 394.159 92.032C394.207 92.176 394.239 92.384 394.239 93.28C394.239 94.176 394.207 94.384 394.159 94.528C394.063 94.832 393.791 94.992 393.455 94.992C393.119 94.992 392.847 94.832 392.751 94.528Z" fill="#777777"/><line y1="-0.75" x2="672.5" y2="-0.75" transform="matrix(1 -8.74228e-08 -8.74228e-08 -1 245 110)" stroke="#777777" stroke-width="1.5"/><path d="M353.689 336.75C353.689 337.316 354.043 337.669 354.626 337.669H358.268C360.779 337.669 362.3 336.467 362.3 334.204C362.3 332.79 361.575 331.782 360.691 331.428V331.393C361.539 330.951 362.087 330.084 362.087 328.829C362.087 326.92 360.85 325.647 358.339 325.647H354.626C354.043 325.647 353.689 326.018 353.689 326.584V336.75ZM355.881 330.65C355.811 330.65 355.775 330.615 355.775 330.544V327.591C355.775 327.521 355.811 327.485 355.881 327.485H358.286C359.347 327.485 360.001 328.122 360.001 329.077C360.001 330.014 359.347 330.65 358.286 330.65H355.881ZM355.775 335.725V332.595C355.775 332.524 355.811 332.489 355.881 332.489H358.392C359.559 332.489 360.213 333.161 360.213 334.151C360.213 335.159 359.559 335.831 358.392 335.831H355.881C355.811 335.831 355.775 335.795 355.775 335.725ZM367.47 336.715C367.47 337.369 367.876 337.758 368.46 337.758C369.043 337.758 369.45 337.369 369.45 336.715V326.725C369.45 326.018 369.026 325.558 368.372 325.558C367.93 325.558 367.558 325.717 367.134 326.018L365.207 327.379C364.871 327.627 364.676 327.927 364.676 328.246C364.676 328.723 365.065 329.112 365.507 329.112C365.719 329.112 365.932 329.059 366.108 328.935L367.434 327.998H367.47V336.715ZM376.785 335.795C376.785 336.396 377.156 336.732 377.651 336.732C378.164 336.732 378.535 336.396 378.535 335.795V333.744C378.535 333.674 378.57 333.638 378.641 333.638H380.692C381.258 333.638 381.594 333.285 381.594 332.79C381.594 332.295 381.258 331.941 380.692 331.941H378.641C378.57 331.941 378.535 331.906 378.535 331.835V329.784C378.535 329.183 378.164 328.847 377.651 328.847C377.156 328.847 376.785 329.183 376.785 329.784V331.835C376.785 331.906 376.749 331.941 376.678 331.941H374.627C374.062 331.941 373.726 332.295 373.726 332.79C373.726 333.285 374.062 333.638 374.627 333.638H376.678C376.749 333.638 376.785 333.674 376.785 333.744V335.795Z" fill="#777777"/><circle cx="333.363" cy="331" r="11" fill="#84D8FF"/><path d="M274.876 336.785C274.876 337.386 275.353 337.758 275.884 337.758C276.344 337.758 276.715 337.493 276.874 337.033L277.51 335.159H282.107L282.762 337.033C282.921 337.493 283.292 337.758 283.752 337.758C284.282 337.758 284.76 337.386 284.76 336.785C284.76 336.644 284.724 336.502 284.689 336.396L281.223 326.743C280.958 326 280.552 325.558 279.827 325.558C279.102 325.558 278.713 326 278.448 326.743L274.947 336.396C274.911 336.502 274.876 336.644 274.876 336.785ZM278.165 333.302L279.791 328.617H279.844L281.471 333.302H278.165ZM286.389 336.803C286.389 337.316 286.743 337.669 287.327 337.669H292.861C293.444 337.669 293.78 337.298 293.78 336.785C293.78 336.273 293.444 335.901 292.861 335.901H289.042V335.866L292.489 331.729C293.232 330.827 293.692 329.925 293.692 328.794C293.692 326.884 292.366 325.452 290.155 325.452C288.104 325.452 286.867 326.707 286.602 327.927C286.584 328.033 286.566 328.122 286.566 328.21C286.566 328.758 286.955 329.094 287.503 329.094C287.91 329.094 288.246 328.847 288.423 328.387C288.723 327.591 289.236 327.22 290.102 327.22C291.093 327.22 291.711 327.857 291.711 328.829C291.711 329.501 291.411 330.084 290.916 330.703L286.991 335.565C286.549 336.096 286.389 336.396 286.389 336.803Z" fill="#777777"/><circle cx="256" cy="331" r="11" fill="#1CB0F6"/></svg>