<?xml version="1.0" encoding="utf-8"?>
<!-- Generator: Adobe Illustrator 25.0.1, SVG Export Plug-In . SVG Version: 6.00 Build 0)  -->
<svg version="1.1" id="katman_1" xmlns="http://www.w3.org/2000/svg" xmlns:xlink="http://www.w3.org/1999/xlink" x="0px" y="0px"
	 viewBox="0 0 20 20" style="enable-background:new 0 0 20 20;" xml:space="preserve">
<style type="text/css">
	.st0{fill-rule:evenodd;clip-rule:evenodd;fill:#FD1D1D;}
</style>
<path class="st0" d="M13.8,19.6c3,0,5.5-2.5,5.5-5.5V5.9c0-3-2.5-5.5-5.5-5.5H6.2c-3,0-5.5,2.5-5.5,5.5v8.2c0,3,2.5,5.5,5.5,5.5
	H13.8z M17.9,5.9v8.2c0,2.2-1.8,4.1-4.1,4.1H6.2c-2.2,0-4.1-1.8-4.1-4.1V5.9c0-2.2,1.8-4.1,4.1-4.1h7.7C16.1,1.8,17.9,3.6,17.9,5.9z
	"/>
<path class="st0" d="M10,15.1c2.8,0,5-2.3,5.1-5.1c0.1-2.9-1.9-5-5.1-5.1C7.2,4.8,4.9,7.1,4.9,10C4.9,12.8,7.2,15.1,10,15.1z
	 M10,6.6c2.2,0.1,3.4,1.4,3.4,3.4c0,1.9-1.5,3.4-3.4,3.4c-1.9,0-3.4-1.5-3.4-3.4C6.6,8.1,8.2,6.5,10,6.6z"/>
<path class="st0" d="M16.4,4.7c0,0.7-0.5,1.2-1.2,1.2c-0.7,0-1.2-0.5-1.2-1.2s0.5-1.2,1.2-1.2c0.7,0,1.2,0.5,1.2-2.8L16.4,4.7z"/>
</svg>
