<?xml version="1.0" encoding="utf-8"?>
<!-- Generator: Adobe Illustrator 25.0.1, SVG Export Plug-In . SVG Version: 6.00 Build 0)  -->
<svg version="1.1" id="katman_1" xmlns="http://www.w3.org/2000/svg" xmlns:xlink="http://www.w3.org/1999/xlink" x="0px" y="0px"
	 viewBox="0 0 20 20" style="enable-background:new 0 0 20 20;" xml:space="preserve">
<style type="text/css">
	.st0{fill:#A1AAAF;}
	.st1{fill:#FFFFFF;}
</style>
<path class="st0" d="M20,15V5c0-2.7-2.3-5-5.1-5H5.1C2.3,0,0,2.2,0,5v10c0,2.7,2.3,5,5.1,5h9.7C17.7,20,20,17.8,20,15z"/>
<path class="st1" d="M6.8,15.5c0,0.2-0.2,0.4-0.4,0.4H4.5c-0.2,0-0.4-0.2-0.4-0.4V7.9c0-0.2,0.2-0.4,0.4-0.4h1.8
	c0.2,0,0.4,0.2,0.4,0.4V15.5z M5.4,6.8c-1,0-1.7-0.8-1.7-1.7c0-1,0.8-1.7,1.7-1.7c1,0,1.7,0.8,1.7,1.7C7.2,6,6.4,6.8,5.4,6.8z
	 M16.3,15.6c0,0.2-0.2,0.4-0.4,0.4h-2c-0.2,0-0.4-0.2-0.4-0.4V12c0-0.5,0.2-2.3-1.4-2.3c-1.2,0-1.5,1.2-1.5,1.8v4.1
	c0,0.2-0.2,0.4-0.4,0.4H8.4C8.2,1,8,15.8,8,15.6V7.9c0-0.2,0.2-0.4,0.4-0.4h1.9c0.2,0,0.4,0.2,0.4,0.4v0.7c0.4-0.7,1.1-1.2,2.5-1.2
	c3.1,0,3.1,2.9,3.1,4.5V15.6z"/>
</svg>
