<svg width="236" height="26" viewBox="0 0 236 26" fill="none" xmlns="http://www.w3.org/2000/svg"><g clip-path="url(#clip0)"><path d="M10.5714 12.987C10.5714 10.987 9.16883 9.66234 7.4026 9.66234C5.63636 9.66234 4.18182 10.987 4.18182 12.987C4.18182 14.987 5.58442 16.3117 7.37662 16.3117C9.16883 16.3117 10.5714 15.013 10.5714 12.987ZM14.6234 1.06494V18.8312C14.6234 19.4545 14.3117 19.7403 13.8442 19.7403C13.1429 19.7403 12.1558 19.1429 11.4545 18.1039C10.5974 19.0909 8.83117 20 6.8052 20C2.72727 20 0 17.013 0 12.987C0 8.96104 2.8052 5.97403 6.8052 5.97403C8.14565 5.97647 9.45566 6.37399 10.5714 7.11688V5.24675C10.5714 2 12.4156 0.155844 13.8961 0.155844C14.3636 0.155844 14.6234 0.467532 14.6234 1.06494ZM31.0649 7.87013V18.8312C31.0649 19.4545 30.7532 19.7403 30.2857 19.7403C29.5844 19.7403 28.5974 19.1429 27.8961 18.0519C27.3577 18.6702 26.6903 19.1627 25.9408 19.4948C25.1913 19.8269 24.378 19.9905 23.5584 19.974C22.0002 20.013 20.4858 19.4555 19.3247 18.4156C18.1039 17.2468 17.4545 15.4545 17.4545 12.8571V7.87013C17.4545 6.93506 17.8182 6.49351 18.8312 6.49351H20.2078C21.2208 6.49351 21.5844 6.88312 21.5844 7.87013V12.4675C21.5844 14.026 21.8701 14.8571 22.3636 15.4026C22.6047 15.6423 22.8934 15.8286 23.2111 15.9494C23.5288 16.0702 23.8684 16.1229 24.2078 16.1039C24.5727 16.11 24.9347 16.0391 25.2704 15.8959C25.606 15.7527 25.9077 15.5403 26.1558 15.2727C26.6494 14.7273 26.9351 13.8701 26.9351 12.5455V7.87013C26.9351 6.88312 27.3766 6.49351 28.3117 6.49351H29.6883C30.6234 6.49351 31.0649 6.88312 31.0649 7.87013ZM43.5844 12.987C43.5844 11.0649 42.3636 9.66234 40.4675 9.66234C38.5714 9.66234 37.3507 11.0649 37.3507 12.987C37.3507 14.9091 38.5714 16.3117 40.4675 16.3117C42.3636 16.3117 43.5844 14.9351 43.5844 12.987ZM33.1688 12.987C33.1688 8.88312 36.2857 5.97403 40.4416 5.97403C44.5974 5.97403 47.7143 8.85714 47.7143 12.987C47.7143 17.1169 44.5974 20 40.4416 20C36.2857 20 33.1688 17.0649 33.1688 12.987ZM50.0779 18.1558V5.24675C50.0779 2 51.8701 0.155844 53.4026 0.155844C53.8701 0.155844 54.1818 0.467532 54.1818 1.06494V18.1558C54.1818 19.1429 53.7922 19.4805 52.8052 19.4805H51.4286C50.4935 19.4805 50.0779 19.1169 50.0779 18.1558ZM57.2987 18.1558V7.87013C57.2987 6.93506 57.6623 6.49351 58.6753 6.49351H60.0519C61.0649 6.49351 61.4286 6.88312 61.4286 7.87013V18.1558C61.4286 19.0909 61.0649 19.4805 60.0519 19.4805H58.6753C57.6623 19.4805 57.2987 19.0909 57.2987 18.1558ZM57.039 2.23377C57.0491 1.64002 57.2913 1.07384 57.7136 0.656369C58.1359 0.2389 58.7049 0.00330622 59.2987 0L59.3766 0C59.9608 0.0381347 60.5064 0.304852 60.8953 0.742389C61.2843 1.17993 61.4852 1.75306 61.4545 2.33766C61.4119 2.9201 61.1438 3.46295 60.7073 3.85094C60.2708 4.23893 59.7003 4.44148 59.1169 4.41558C58.5529 4.39926 58.0181 4.16086 57.629 3.75226C57.2398 3.34366 57.0278 2.79792 57.039 2.23377ZM78.3896 13.2727V18.1558C78.3896 19.0909 78.026 19.4805 77.013 19.4805H75.6364C74.6234 19.4805 74.2597 19.0909 74.2597 18.1558V13.3766C74.2597 12.1558 74.0519 11.2987 73.6364 10.7532C73.3813 10.4544 73.0618 10.2174 72.7019 10.0599C72.342 9.90245 71.951 9.82868 71.5584 9.84416C71.154 9.82476 70.7503 9.89637 70.3772 10.0537C70.0041 10.211 69.6711 10.4501 69.4026 10.7532C68.9351 11.2987 68.6234 12.1558 68.6234 13.3247V18.1039C68.6234 19.0909 68.1818 19.4286 67.2467 19.4286H65.8701C64.9351 19.4286 64.4935 19.0649 64.4935 18.1039V7.16883C64.4935 6.54545 64.8052 6.25974 65.2727 6.25974C65.974 6.25974 66.961 6.85714 67.6883 7.97403C68.2484 7.36006 68.9303 6.86969 69.6906 6.53426C70.4509 6.19882 71.2729 6.02571 72.1039 6.02597C74.1039 6.02597 75.7143 6.72727 76.7533 7.8961C77.8701 9.06493 78.3896 10.6753 78.3896 13.2727ZM84.961 11.7403C84.9905 12.3887 85.2688 13.0008 85.7381 13.4492C86.2073 13.8977 86.8314 14.1479 87.4805 14.1479C88.1296 14.1479 88.7537 13.8977 89.223 13.4492C89.6922 13.0008 89.9706 12.3887 90 11.7403C90 10.3377 88.987 9.35065 87.5065 9.35065C86.026 9.35065 84.961 10.2857 84.961 11.7403ZM90.6234 20C90.6234 18.4416 89.4026 17.3507 87.5065 17.3507C85.6104 17.3507 84.3896 18.4156 84.3896 20C84.3896 21.4805 85.7143 22.6493 87.5065 22.6493C89.2987 22.6493 90.6234 21.4805 90.6234 20ZM93.5584 9.74026C93.8308 10.2883 93.9645 10.8948 93.9481 11.5065C93.9481 12.987 93.1688 14.3636 91.9221 15.4286C93.6364 16.2597 94.6494 18.2338 94.6494 20.1299C94.6494 23.6623 91.7922 26 87.4546 26C83.1169 26 80.2597 23.6623 80.2597 20.1039C80.2385 19.1453 80.4819 18.1995 80.963 17.3701C81.4441 16.5408 82.1444 15.86 82.987 15.4026C81.6883 14.3377 80.961 12.987 80.961 11.4805C80.961 8.38961 83.3766 6.12987 87.2208 6.12987C89.4805 6.12987 90.1558 6.51948 91.4546 6.51948C92.3356 6.55825 93.207 6.32226 93.9481 5.84416C94.2043 5.67643 94.4996 5.57799 94.8052 5.55844C95.3247 5.55844 95.5844 6.07792 95.5844 6.7013C95.6451 7.36314 95.4771 8.02577 95.1084 8.57876C94.7397 9.13175 94.1927 9.54169 93.5584 9.74026ZM106.753 12.987C106.753 11.0649 105.532 9.66234 103.636 9.66234C101.74 9.66234 100.519 11.0649 100.519 12.987C100.519 14.9091 101.74 16.3117 103.636 16.3117C105.532 16.3117 106.753 14.9351 106.753 12.987ZM96.3117 12.987C96.3117 8.88312 99.4286 5.97403 103.584 5.97403C107.74 5.97403 110.857 8.85714 110.857 12.987C110.857 17.1169 107.74 20 103.584 20C99.4286 20 96.3117 17.0649 96.3117 12.987Z" fill="#58CC02"/><path d="M117.857 22.8156V7.70132C117.857 6.97145 118.327 6.52729 118.953 6.52729C119.579 6.52729 120.049 6.97145 120.049 7.70132V8.05197H120.075C120.675 7.05976 121.771 6.38184 123.626 6.38184C125.74 6.38184 127.28 7.55586 127.932 9.5143C128.262 10.6226 128.412 11.7767 128.376 12.9325C128.411 14.0805 128.261 15.2267 127.932 16.3273C127.273 18.2727 125.74 19.4494 123.636 19.4494C121.756 19.4494 120.66 18.7429 120.085 17.7766H120.06V22.8156C120.06 23.5455 119.589 23.9896 118.963 23.9896C118.337 23.9896 117.857 23.5455 117.857 22.8156ZM125.844 15.4546C126.078 14.7766 126.13 13.9922 126.13 12.9221C126.13 11.852 126.078 11.0442 125.844 10.3637C125.426 9.11171 124.486 8.40781 123.104 8.40781C121.722 8.40781 120.753 9.11171 120.335 10.3637C120.101 11.0442 120.049 11.826 120.049 12.9221C120.049 14.0182 120.101 14.7766 120.335 15.4546C120.753 16.7065 121.693 17.4026 123.117 17.4026C124.54 17.4026 125.426 16.7065 125.844 15.4546Z" fill="#58CC02"/><path d="M131.117 18.1167V7.70116C131.117 6.97129 131.587 6.52714 132.213 6.52714C132.839 6.52714 133.309 6.97129 133.309 7.70116V8.27519H133.335C133.854 7.15311 135.005 6.37129 136.545 6.37129C137.192 6.35173 137.832 6.50505 138.4 6.81545C138.583 6.89492 138.74 7.02566 138.851 7.19199C138.962 7.35831 139.023 7.55315 139.026 7.75311C139.032 7.8993 139.007 8.04513 138.954 8.18132C138.9 8.31751 138.819 8.44109 138.715 8.54418C138.611 8.64727 138.487 8.72763 138.351 8.78015C138.214 8.83266 138.068 8.85618 137.922 8.84921C137.733 8.8404 137.547 8.79635 137.374 8.71934C136.919 8.52422 136.432 8.4184 135.937 8.40766C134.06 8.40766 133.301 9.9661 133.301 12.0622V18.1167C133.301 18.8466 132.831 19.2908 132.205 19.2908C131.579 19.2908 131.117 18.8466 131.117 18.1167Z" fill="#58CC02"/><path d="M140.148 16.0546C139.888 15.2754 139.732 14.3845 139.732 12.8961C139.732 11.4078 139.862 10.5221 140.122 9.73771C140.829 7.57147 142.629 6.36108 145.003 6.36108C147.457 6.36108 149.234 7.56108 149.912 9.70134C150.218 10.6807 150.359 11.7042 150.33 12.7299C150.335 12.8432 150.316 12.9564 150.274 13.0618C150.232 13.1672 150.168 13.2625 150.087 13.3413C150.005 13.4202 149.908 13.4808 149.801 13.5191C149.694 13.5574 149.581 13.5726 149.468 13.5637H142.132C142.111 13.5611 142.089 13.5634 142.069 13.5705C142.049 13.5776 142.031 13.5893 142.016 13.6046C142 13.6199 141.989 13.6384 141.982 13.6588C141.976 13.6792 141.974 13.7009 141.977 13.7221C141.962 14.2349 142.032 14.7466 142.184 15.2364C142.655 16.6702 143.803 17.4026 145.343 17.4026C146.571 17.4026 147.405 17.0364 148.345 16.3325C148.551 16.1469 148.814 16.0393 149.091 16.0286C149.212 16.0258 149.332 16.0475 149.444 16.0924C149.556 16.1374 149.658 16.2046 149.744 16.2901C149.829 16.3755 149.896 16.4775 149.941 16.5897C149.986 16.7019 150.008 16.8221 150.005 16.9429C150.004 17.0891 149.974 17.2335 149.915 17.3675C149.857 17.5014 149.772 17.6221 149.665 17.7221C148.452 18.8513 146.852 19.4699 145.195 19.4494C142.597 19.4494 140.855 18.2468 140.148 16.0546ZM147.927 11.826C147.948 11.8291 147.97 11.8271 147.99 11.8204C148.011 11.8136 148.029 11.8022 148.044 11.7871C148.059 11.772 148.071 11.7535 148.077 11.7332C148.084 11.7129 148.086 11.6913 148.083 11.6702C148.099 11.1933 148.037 10.7171 147.901 10.2598C147.483 9.00784 146.439 8.30134 145.044 8.30134C143.649 8.30134 142.59 9.00784 142.171 10.2598C142.035 10.7171 141.974 11.1933 141.99 11.6702C141.987 11.6913 141.988 11.7129 141.995 11.7332C142.002 11.7535 142.013 11.772 142.028 11.7871C142.044 11.8022 142.062 11.8136 142.082 11.8204C142.103 11.8271 142.124 11.8291 142.145 11.826H147.927Z" fill="#58CC02"/><path d="M152.756 18.0649C152.6 17.9681 152.47 17.8337 152.38 17.6739C152.289 17.5142 152.24 17.3343 152.236 17.1506C152.237 17.019 152.264 16.8888 152.315 16.7675C152.366 16.6462 152.441 16.5363 152.535 16.4441C152.629 16.3518 152.74 16.2791 152.862 16.2301C152.984 16.1811 153.115 16.1567 153.247 16.1584C153.508 16.1657 153.763 16.2477 153.979 16.3948C154.997 16.9948 156.057 17.4909 157.475 17.4909C159.278 17.4909 160.216 16.7117 160.216 15.6104C160.216 14.5714 159.748 14.0519 157.764 13.8363L156.465 13.7065C154.013 13.4467 152.732 12.1922 152.732 10.1818C152.732 7.80776 154.431 6.3714 157.353 6.3714C158.655 6.35266 159.94 6.66741 161.086 7.28568C161.53 7.51945 161.738 7.80516 161.738 8.19737C161.738 8.32082 161.715 8.44318 161.668 8.5574C161.621 8.67162 161.552 8.77543 161.465 8.86284C161.378 8.95026 161.274 9.01954 161.16 9.06671C161.046 9.11387 160.923 9.13797 160.8 9.13763C160.528 9.12653 160.262 9.05558 160.021 8.92984C159.158 8.51076 158.214 8.28726 157.255 8.27529C155.696 8.27529 154.878 8.98178 154.878 9.99997C154.878 11.0181 155.452 11.5117 157.332 11.6961L158.631 11.8259C161.229 12.1143 162.392 13.3402 162.392 15.3766C162.392 17.8285 160.616 19.4493 157.301 19.4493C155.681 19.4572 154.096 18.9746 152.756 18.0649Z" fill="#58CC02"/><path d="M164.764 18.0649C164.608 17.9681 164.478 17.8337 164.387 17.6739C164.297 17.5142 164.247 17.3343 164.244 17.1506C164.245 17.0183 164.272 16.8875 164.324 16.7657C164.375 16.6439 164.451 16.5336 164.545 16.4413C164.64 16.3489 164.752 16.2764 164.875 16.2278C164.999 16.1792 165.13 16.1557 165.262 16.1584C165.523 16.1657 165.777 16.2478 165.992 16.3948C167.01 16.9948 168.07 17.4909 169.491 17.4909C171.293 17.4909 172.231 16.7117 172.231 15.6104C172.231 14.5714 171.761 14.0519 169.779 13.8363L168.481 13.7065C166.029 13.4467 164.748 12.1922 164.748 10.1818C164.748 7.80776 166.444 6.3714 169.369 6.3714C170.671 6.35266 171.956 6.66741 173.101 7.28568C173.545 7.51945 173.753 7.80516 173.753 8.19737C173.754 8.32094 173.729 8.44336 173.682 8.5576C173.635 8.67183 173.566 8.77562 173.479 8.863C173.391 8.95038 173.287 9.01962 173.173 9.06675C173.059 9.11389 172.937 9.13797 172.813 9.13763C172.541 9.12653 172.275 9.05558 172.034 8.92984C171.171 8.51108 170.226 8.2876 169.268 8.27529C167.709 8.27529 166.891 8.98178 166.891 9.99997C166.891 11.0181 167.465 11.5117 169.345 11.6961L170.644 11.8259C173.242 12.1143 174.403 13.3402 174.403 15.3766C174.403 17.8285 172.629 19.4493 169.314 19.4493C167.692 19.4583 166.106 18.9756 164.764 18.0649Z" fill="#58CC02"/><path d="M182.618 18.1167V7.70116C182.618 6.97129 183.088 6.52714 183.714 6.52714C184.34 6.52714 184.81 6.97129 184.81 7.70116V8.27519H184.836C185.356 7.15311 186.506 6.37129 188.047 6.37129C188.693 6.35173 189.334 6.50505 189.901 6.81545C190.085 6.89492 190.241 7.02566 190.352 7.19199C190.464 7.35831 190.524 7.55315 190.527 7.75311C190.533 7.89862 190.509 8.04377 190.456 8.1794C190.403 8.31504 190.322 8.43822 190.219 8.5412C190.116 8.64417 189.993 8.7247 189.857 8.77771C189.722 8.83073 189.577 8.85507 189.431 8.84921C189.242 8.8404 189.056 8.79635 188.883 8.71934C188.429 8.52422 187.941 8.4184 187.447 8.40766C185.569 8.40766 184.81 9.9661 184.81 12.0622V18.1167C184.81 18.8466 184.34 19.2908 183.714 19.2908C183.088 19.2908 182.618 18.8466 182.618 18.1167Z" fill="#58CC02"/><path d="M191.649 16.0806C191.364 15.2208 191.234 14.3585 191.234 12.8961C191.234 11.4338 191.364 10.6 191.649 9.73771C192.33 7.59745 194.156 6.36108 196.585 6.36108C199.013 6.36108 200.839 7.58706 201.52 9.73771C201.808 10.6 201.938 11.4598 201.938 12.8961C201.938 14.3325 201.808 15.2338 201.52 16.0806C200.842 18.1948 199.013 19.4572 196.585 19.4572C194.156 19.4572 192.33 18.1948 191.649 16.0806ZM199.403 15.4546C199.613 14.7767 199.691 14.0961 199.691 12.8961C199.691 11.6961 199.613 11.0442 199.403 10.3637C198.985 9.11173 197.966 8.40784 196.585 8.40784C195.203 8.40784 194.182 9.11173 193.766 10.3637C193.559 11.0442 193.481 11.6961 193.481 12.8961C193.481 14.0961 193.559 14.7767 193.766 15.4546C194.185 16.7065 195.203 17.413 196.587 17.413C197.972 17.413 198.985 16.7065 199.403 15.4546Z" fill="#58CC02"/><path d="M204.338 16.0806C204.049 15.2208 203.919 14.3585 203.919 12.8961C203.919 11.4338 204.049 10.6 204.338 9.73771C205.016 7.59745 206.842 6.36108 209.273 6.36108C211.704 6.36108 213.527 7.58706 214.208 9.73771C214.496 10.6 214.626 11.4598 214.626 12.8961C214.626 14.3325 214.496 15.2338 214.208 16.0806C213.53 18.1948 211.704 19.4572 209.273 19.4572C206.842 19.4572 205.016 18.1948 204.338 16.0806ZM212.088 15.4546C212.299 14.7767 212.377 14.0961 212.377 12.8961C212.377 11.6961 212.299 11.0442 212.088 10.3637C211.67 9.11173 210.654 8.40784 209.27 8.40784C207.886 8.40784 206.867 9.11173 206.452 10.3637C206.242 11.0442 206.164 11.6961 206.164 12.8961C206.164 14.0961 206.242 14.7767 206.452 15.4546C206.867 16.7065 207.886 17.413 209.27 17.413C210.654 17.413 211.67 16.7065 212.088 15.4546Z" fill="#58CC02"/><path d="M217.361 7.70121C217.361 6.97134 217.831 6.52718 218.457 6.52718C219.083 6.52718 219.556 6.97134 219.556 7.70121V8.06744H219.582C220.26 7.04926 221.382 6.37134 223.078 6.37134C224.774 6.37134 226.054 7.10121 226.732 8.32718H226.758C227.595 7.15316 228.836 6.37134 230.805 6.37134C233.623 6.37134 235.267 8.14536 235.267 11.07V18.1168C235.267 18.8467 234.797 19.2908 234.171 19.2908C233.545 19.2908 233.075 18.8467 233.075 18.1168V11.5921C233.075 9.58173 232.161 8.4077 230.283 8.4077C228.587 8.4077 227.41 9.6077 227.41 11.4596V18.1168C227.41 18.8467 226.943 19.2908 226.314 19.2908C225.686 19.2908 225.218 18.8467 225.218 18.1168V11.5921C225.218 9.58173 224.306 8.4077 222.426 8.4077C220.73 8.4077 219.556 9.6077 219.556 11.4596V18.1168C219.556 18.8467 219.086 19.2908 218.457 19.2908C217.828 19.2908 217.361 18.8467 217.361 18.1168V7.70121Z" fill="#58CC02"/></g><defs><clipPath id="clip0"><rect width="235.268" height="26" fill="white"/></clipPath></defs></svg>