<svg width="339" height="371" viewBox="0 0 339 371" fill="none" xmlns="http://www.w3.org/2000/svg"><path d="M90.6099 96.8481C106.98 103.393 117.553 101.599 122.133 97.7693L120.184 94.4239L116.822 89.091L108.052 89.6243C105.47 88.8649 97.7916 87.0844 87.7354 86.0372C75.1653 84.7282 70.293 90.4005 69.2211 91.9519C68.1492 93.5033 69.8545 102.909 75.3113 103.199C78.1859 103.345 83.3503 94.6668 90.6099 96.8481Z" fill="#FFB7E3"/><path d="M86.6745 85.9417C93.4718 93.9187 102.994 98.3963 112.692 100.159L112.517 101.114C111.466 101.198 110.348 101.226 109.164 101.192C99.8022 98.9037 90.7655 94.0353 84.3328 85.8435C85.0799 85.8485 85.8601 85.8801 86.6745 85.9417Z" fill="#FF9BD8"/><path d="M126.665 124.966C126.197 115.037 127.574 104.604 128.321 100.629L131.634 92.969H141.086L157.846 106.35L160.477 116.046C149.401 123.156 127.132 134.895 126.665 124.966Z" fill="#1CB0F6"/><path d="M148.686 101.89C148.102 62.7174 124.91 7.83716 120.818 10.9398C116.725 14.0425 103.472 3.57071 115.556 17.7272C127.639 31.8836 137.513 83.2086 138.552 99.3689C142.125 113.267 149.154 133.228 148.686 101.89Z" fill="#1CB0F6"/><path d="M126.554 110.781C91.5782 92.792 52.5545 47.664 57.1703 45.4025C61.7862 43.1411 58.2764 26.6681 65.6221 43.7427C72.9677 60.8173 114.732 92.4987 128.805 100.631C139.713 110.01 154.534 125.172 126.554 110.781Z" fill="#1CB0F6"/><ellipse cx="114.852" cy="15.9009" rx="8.71507" ry="8.83942" fill="#E18E70"/><ellipse cx="63.6418" cy="41.5115" rx="8.71507" ry="8.83942" fill="#E18E70"/><ellipse cx="114.874" cy="63.5897" rx="36.1514" ry="35.9728" fill="#FFB7E3"/><path d="M112.375 99.4781C111.184 99.3971 110.008 99.2587 108.85 99.0656C114.506 96.5282 119.342 92.5703 123.302 88.2164C129.033 81.9161 132.862 74.8603 134.623 70.3191L136.441 71.0171C134.602 75.7592 130.653 83.0247 124.747 89.5178C121.302 93.3045 117.169 96.8535 112.375 99.4781Z" fill="#FF9BD8"/><path d="M144.74 96.3143C146.494 91.5438 144.009 87.8948 142.547 86.6666L136.603 86.1333L123.546 93.5509L121.061 97.0415C121.288 99.5302 123.127 104.556 127.882 104.556C134.898 93.8418 140.55 93.3569 144.74 96.3143Z" fill="#FFB7E3"/><path d="M141.67 55.9782C141.67 69.5526 130.611 80.5575 116.968 80.5575C103.326 80.5575 92.2666 69.5526 92.2666 55.9782C92.2666 42.4039 103.326 31.399 116.968 31.399C130.611 31.399 141.67 42.4039 141.67 55.9782Z" stroke="black" stroke-width="0.194886"/><path d="M121.423 98.9739C120.597 99.1245 119.76 99.247 118.915 99.3406C123.977 90.897 128.744 86.3736 133.131 84.5134C137.212 82.7825 140.844 83.4035 143.844 85.1109C143.45 85.6355 143.042 86.149 142.62 86.6509C140.113 85.3015 137.196 84.8972 133.895 86.2974C130.271 87.834 126.061 91.5913 121.423 98.9739Z" fill="#FF9BD8"/><ellipse cx="116.968" cy="55.9782" rx="24.7993" ry="24.6767" fill="#E18E70"/><path d="M111.902 49.579C113.558 49.2235 117.495 48.7258 119.989 49.579C118.966 50.4517 115.751 54.6696 115.41 55.6877" stroke="#A55437" stroke-width="1.55909" stroke-linecap="round" stroke-linejoin="round"/><path d="M93.0749 54.7086C100.543 58.062 110.32 52.5713 114.912 42.445C116.611 38.6994 117.362 34.8441 117.256 31.3031C117.161 31.3021 117.065 31.3015 116.969 31.3015C103.845 31.3015 93.1021 41.4455 92.2271 54.2836C92.5018 54.4364 92.7845 54.5782 93.0749 54.7086Z" fill="#3D3D3D"/><path d="M93.0749 54.7086C100.543 58.062 110.32 52.5713 114.912 42.445C116.611 38.6994 117.362 34.8441 117.256 31.3031C117.161 31.3021 117.065 31.3015 116.969 31.3015C103.845 31.3015 93.1021 41.4455 92.2271 54.2836C92.5018 54.4364 92.7845 54.5782 93.0749 54.7086Z" fill="#3D3D3D"/><path d="M91.6815 59.2266C108.588 58.2085 115.068 41.5311 106.688 35.1316L100.208 46.67C96.7163 52.0837 96.6414 40.6875 94.4587 45.8459C91.7303 52.2938 88.1124 54.0876 86.5658 54.0876C85.0193 54.0876 84.5203 53.2998 82.9974 53.2998C81.4745 53.2998 79.2576 59.2266 91.6815 59.2266Z" fill="#3D3D3D"/><path d="M125.252 39.7373C124.586 41.3533 123.342 45.1575 123.692 47.4458C126.031 46.9125 127.736 46.3792 130.903 46.9125" stroke="#A55437" stroke-width="1.55909" stroke-linecap="round" stroke-linejoin="round"/><path d="M127.883 52.294C127.81 49.4821 123.912 49.2878 122.645 49.2881C122.942 50.6938 123.478 52.6651 124.253 53.5901C125.028 54.5151 127.956 55.1059 127.883 52.294Z" fill="#A55437"/><path d="M126.689 58.0879C123.984 58.0879 123.765 56.0759 122.669 56.0759C122.255 56.0759 121.914 56.3911 121.914 57.6516C121.914 66.1599 127.541 71.8322 128.564 71.8322C129.587 71.8322 130.927 71.2262 130.927 67.8083C130.927 64.3904 129.855 57.6516 128.564 57.6516C127.76 57.6516 127.651 58.0879 126.689 58.0879Z" fill="#A41414"/><path d="M130.838 69.2003C129.57 66.9515 127.151 65.4319 124.375 65.4319C124.102 65.4319 123.833 65.4466 123.568 65.4752C125.313 69.4565 127.903 71.8314 128.565 71.8314C129.43 71.8314 130.521 71.3984 130.838 69.2003Z" fill="#D32E2E"/><path d="M138.752 7.04987C138.795 6.44979 139.366 6.0318 139.951 6.17227L143.866 7.11228C144.403 7.24123 144.726 7.79031 144.577 8.32221L141.475 19.4143C141.385 19.7361 141.136 19.9894 140.816 20.0853L139.101 20.599C138.447 20.7946 137.8 20.2759 137.849 19.5956L138.752 7.04987Z" fill="#FFB100"/><path d="M148.529 14.6531C148.805 14.0977 149.524 13.9355 150.011 14.3189L153.121 16.7662C153.556 17.1082 153.617 17.7421 153.256 18.1617L147.706 24.6087C147.489 24.8611 147.157 24.9859 146.827 24.9395L144.986 24.6807C144.328 24.5883 143.954 23.8825 144.248 23.2887L148.529 14.6531Z" fill="#FFB100"/><path opacity="0.5" d="M106.637 18.8603C106.313 17.935 106.137 16.9388 106.137 15.9008C106.137 15.6504 106.147 15.4025 106.167 15.1573C106.173 15.9569 106.349 16.8076 106.717 17.4522C106.972 17.8968 107.302 18.2183 107.708 18.3823C108.061 18.5249 108.517 18.5672 109.106 18.411C108.918 18.1348 108.76 17.8375 108.628 17.5304C107.985 16.0388 107.89 14.1957 107.906 12.9696C107.91 12.7018 108.131 12.4877 108.4 12.4913C108.669 12.4948 108.884 12.7148 108.881 12.9825C108.864 14.1804 108.964 15.8522 109.523 17.1482C109.8 17.7895 110.175 18.3076 110.674 18.6412C111.08 18.9125 111.598 19.0823 112.274 19.0711C111.585 17.789 111.231 16.141 111.171 14.7419C111.16 14.4744 111.368 14.2483 111.637 14.237C111.906 14.2256 112.133 14.4332 112.145 14.7007C112.207 16.166 112.62 17.866 113.363 19.002C113.732 19.5662 114.159 19.9554 114.628 20.1373C115.082 20.3134 115.636 20.3188 116.326 20.0019C116.744 19.8097 116.999 19.4281 117.137 18.9515C117.275 18.4718 117.276 17.9534 117.229 17.6118C117.192 17.3466 117.378 17.1018 117.645 17.0651C117.911 17.0284 118.157 17.2136 118.194 17.4788C118.256 17.925 118.257 18.5838 118.073 19.2198C117.888 19.8589 117.497 20.5318 116.734 20.8822C115.841 21.2925 115.01 21.3263 114.274 21.0407C113.727 20.8285 113.267 20.4538 112.886 19.9936C112.87 19.9972 112.854 20.0001 112.837 20.0022C111.738 20.1355 110.842 19.9212 110.131 19.4462C110.013 19.367 109.901 19.2815 109.795 19.1903C109.758 19.2161 109.717 19.2373 109.672 19.2525C108.786 19.5534 108.004 19.5483 107.342 19.2806C107.079 19.1746 106.845 19.0312 106.637 18.8603Z" fill="#A55437"/><path opacity="0.5" d="M69.6796 35.137C71.2278 36.6459 72.2276 38.7295 72.3454 41.0495C72.2224 41.3884 72.0377 41.7081 71.778 41.9988C71.7686 42.0094 71.7587 42.0195 71.7484 42.0292C70.7039 43.0108 69.4657 43.0105 68.5016 42.5649C67.5817 42.1398 66.8193 41.2629 66.7385 40.3624C66.7146 40.0957 66.9125 39.8602 67.1805 39.8364C67.4485 39.8126 67.6852 40.0095 67.7091 40.2762C67.7501 40.7331 68.2058 41.3591 68.912 41.6855C69.569 41.9891 70.3581 41.991 71.0636 41.339C71.7816 40.5173 71.6901 39.2043 71.0787 37.6906C70.7162 36.793 70.1993 35.9003 69.6796 35.137Z" fill="#A55437"/><path d="M46.6848 97.7951L46.9006 96.63L46.9442 96.6407C47.0904 96.263 47.5131 96.0535 47.9131 96.1833L54.5545 98.339C54.9342 98.4623 55.1589 98.8512 55.0749 99.2397L54.7521 100.732L54.7204 100.722L51.924 112.738C51.8799 114.279 50.6103 115.515 49.0507 115.515C47.4631 115.515 46.1761 114.234 46.1761 112.655C46.1761 111.075 47.4631 109.794 49.0507 109.794C49.8761 109.794 50.6203 110.14 51.1446 110.695L53.0221 100.171L48.2721 98.6289L46.3707 105.83C46.3709 105.843 46.371 105.855 46.371 105.867C46.371 107.447 45.084 108.728 43.4964 108.728C41.9088 108.728 40.6218 107.447 40.6218 105.867C40.6218 104.287 41.9088 103.007 43.4964 103.007C44.3056 103.007 45.0367 103.34 45.5591 103.875L46.6292 98.0956L46.6205 98.0928L46.6848 97.7951Z" fill="#80D8FF"/><path d="M20.094 101.876C19.6372 101.558 19.0021 101.806 18.8848 102.348L18.6612 103.382L18.6863 103.399L17.6049 109.169C17.0822 108.631 16.349 108.296 15.5372 108.296C13.9496 108.296 12.6626 109.577 12.6626 111.156C12.6626 112.736 13.9496 114.017 15.5372 114.017C17.1225 114.017 18.408 112.74 18.4117 111.163L20.2466 104.486L25.2337 107.961L25.5956 106.288C25.6615 105.983 25.5374 105.668 25.2805 105.489L20.094 101.876Z" fill="#80D8FF"/><path d="M206.441 46.2563C211.606 33.3236 225.032 25.6597 238.786 27.7935C253.543 30.0831 264.297 42.9365 263.943 57.8602C263.869 60.9843 263.797 64.0342 263.732 66.7756C263.444 78.9359 258.592 114.845 257.53 122.592C257.415 123.424 256.648 123.98 255.816 123.862L181.643 113.395C180.67 113.258 180.085 112.247 180.449 111.335L206.441 46.2563Z" fill="#A570FF"/><rect x="186.689" y="79.3945" width="67.079" height="51.7533" fill="#8B4CF5"/><path d="M213.657 50.2942C217.168 38.3766 228.996 30.9047 241.262 32.8558C253.57 34.8137 262.456 45.6443 261.968 58.0937L261.219 77.2047C260.94 84.3311 254.484 89.6243 247.438 88.5035L217.732 83.7781C210.665 82.6539 206.204 75.587 208.228 68.72L213.657 50.2942Z" fill="#FFC6B7"/><rect width="13.1702" height="11.0484" rx="5.52421" transform="matrix(0.987584 0.157097 -0.159901 0.987134 255.479 54.6948)" fill="#FFC6B7"/><path d="M238.819 27.8958C237.846 29.6453 237.156 31.5879 236.818 33.6735C235.243 43.393 241.918 52.5371 251.726 54.0973L263.533 55.9754C263.504 42.0494 253.29 30.1917 239.408 27.9834C239.211 27.9521 239.015 27.9229 238.819 27.8958Z" fill="#A570FF"/><path d="M244.523 62.158C245.193 58.0223 249.09 55.2032 253.228 55.8614L259.494 56.8582C259.908 56.9241 260.189 57.3127 260.122 57.7262L258.887 65.3528C258.217 69.4885 254.319 72.3075 250.182 71.6493L246.912 71.1292C244.843 70.8001 243.438 68.857 243.773 66.7892L244.523 62.158Z" fill="white"/><path d="M241.773 61.7202C242.443 57.5845 239.631 53.6984 235.494 53.0402L229.227 52.0434C228.814 51.9776 228.424 52.2595 228.357 52.673L227.121 60.2996C226.452 64.4352 229.263 68.3214 233.4 68.9796L236.67 69.4997C238.739 69.8288 240.687 68.4193 241.022 66.3515L241.773 61.7202Z" fill="white"/><path d="M246.34 71.1518C246.816 72.6045 246.027 74.159 244.58 74.6239C243.133 75.0889 241.574 74.2881 241.099 72.8354C240.624 71.3828 242.033 67.2064 242.142 67.1714C242.251 67.1363 245.865 69.6991 246.34 71.1518Z" fill="#EE9583"/><rect width="4.98563" height="7.91415" rx="2.49281" transform="matrix(0.987482 0.157729 -0.15926 0.987237 246.239 59.1858)" fill="#3D3D3D"/><rect width="6.28637" height="8.11074" rx="3.14318" transform="matrix(0.987482 0.157729 -0.15926 0.987237 233.722 57.5488)" fill="#3D3D3D"/><path d="M258.65 66.3853L244.209 64.0881L244.53 62.1053C245.195 57.9985 249.094 55.2037 253.239 55.8629L259.492 56.8576C259.906 56.9236 260.188 57.3099 260.122 57.7206L258.877 65.4046C258.823 65.7407 258.747 66.068 258.65 66.3853Z" fill="#A570FF"/><path d="M241.458 63.6499L227.017 61.3527C227.026 61.0214 227.057 60.6869 227.112 60.3508L228.356 52.6668C228.423 52.2562 228.813 51.9767 229.227 52.0426L235.48 53.0373C239.625 53.6965 242.445 57.5602 241.78 61.6671L241.458 63.6499Z" fill="#A570FF"/><path d="M236.438 98.9037L235.502 98.7542L224.761 165.334L237.27 167.332C238.702 167.561 239.981 166.41 239.905 164.963L236.438 98.9037Z" fill="#593F86"/><path d="M224.951 86.3711C225.04 85.8196 225.559 85.444 226.111 85.5321L237.845 87.4064C238.396 87.4945 238.771 88.013 238.682 88.5644L233.193 122.595L219.461 120.402L224.951 86.3711Z" fill="#593F86"/><path d="M210.564 175.548C210.475 176.1 210.85 176.618 211.402 176.706L223.136 178.58C223.688 178.669 224.207 178.293 224.296 177.741L233.192 122.594L219.46 120.401L210.564 175.548Z" fill="#A570FF"/><rect width="30.3398" height="7.2977" rx="3.64885" transform="matrix(0.987482 0.157729 -0.15926 0.987237 202.191 179.823)" fill="#593F86"/><path d="M233.123 74.0892C234.131 73.4007 236.59 73.3943 238.369 78.8771" stroke="#EE9583" stroke-width="2.0229" stroke-linecap="round" stroke-linejoin="round"/><path d="M210.126 54.3273C210.935 49.3316 213.226 44.6895 216.701 41.0013L223.452 33.8364L228.516 31.0824L240.933 32.0406L230.736 94.9891C230.602 95.8162 229.823 96.38 228.995 96.2484L203.98 92.2691L210.126 54.3273Z" fill="#A570FF"/><path d="M223.447 98.041C223.707 97.375 224.397 96.98 225.102 97.0927L227.575 97.4877C228.403 97.6198 228.965 98.3976 228.832 99.2248L218.695 162.06C218.495 163.301 217.326 164.146 216.085 163.948L201.58 161.631C200.148 161.402 199.294 159.911 199.822 158.56L223.447 98.041Z" fill="#593F86"/><path d="M281.588 166.078C293.048 143.971 296.562 122.219 296.887 114.107L290.748 104.507L262.392 95.1021L238.129 111.198L220.784 139.704C236.277 157.707 270.129 188.185 281.588 166.078Z" fill="#FFC6B7"/><ellipse cx="275.4" cy="120.07" rx="8.33139" ry="8.29022" fill="white"/><rect x="179.041" y="167.038" width="88.6319" height="66.2464" fill="#D22121"/><ellipse rx="6.96451" ry="8.29343" transform="matrix(0.960665 0.277712 -0.28026 0.959924 287.483 123.658)" fill="white"/><path d="M295.327 168.599C301.564 160.687 304.032 150.435 304.487 146.298L308.19 140.481C311.243 138.671 318.987 135.439 325.535 136.99C330.368 151.263 322.092 170.474 317.349 178.296C307.41 178.36 289.091 176.512 295.327 168.599Z" fill="#FF4B4B"/><path d="M256.253 85.9887C252.745 85.5233 246.736 87.6692 245.729 88.9943L245.437 91.7575L257.568 93.3088L295.035 108.241C295.815 108.726 297.374 108.958 297.374 106.011C295.522 99.7568 286.265 93.3088 276.229 90.2546C268.864 88.0134 259.761 86.4541 256.253 85.9887Z" fill="#FFB100"/><path d="M284.177 130.849C285.228 127.643 282.349 125.843 280.777 125.343C279.028 129.426 279.969 131.471 281.305 131.953C282.64 132.435 283.832 131.795 284.177 130.849Z" fill="#EE9583"/><ellipse cx="312.77" cy="142.159" rx="13.953" ry="13.884" fill="#FFC6B7"/><path d="M263.951 111.78L268.336 98.6902C262.554 94.1654 248.847 87.0742 240.272 94.9087C229.553 104.702 215.619 109.744 213.67 109.938C211.839 110.12 210.437 108.418 210.275 105.074C210.257 104.692 209.98 104.357 209.599 104.382C205.843 104.629 200.943 111.545 198.859 115.174C203.114 126.227 214.411 146.667 225.558 139.996C236.706 133.325 245.859 121.67 249.042 116.677L247.58 111.344C249.48 110.067 253.583 107.863 254.791 109.259C255.863 110.81 254.791 113.175 258.981 113.816C261.214 114.158 263.269 113.816 263.951 111.78Z" fill="#FFB100"/><path d="M285.149 95.5861C282.191 99.4083 276.85 100.778 272.314 98.5936C268.608 96.809 266.438 93.1341 266.409 89.2968C265.974 88.5841 265.624 87.8032 265.377 86.968C264.232 83.0911 265.597 79.0057 268.682 76.8385C269.324 76.3875 270.221 76.7316 270.453 77.5181L270.704 78.3667C271.324 79.6503 272.268 79.6873 273.157 79.4988C275.752 78.5194 278.73 78.563 281.424 79.8606C286.24 82.1794 288.461 87.6895 286.763 92.6004C286.5 93.4655 286.269 94.9343 287.929 95.7336L287.441 96.7362L285.149 95.5861Z" fill="#FFB100"/><path d="M217.957 128.458C212.89 125.898 205.452 128.813 202.366 130.591H184.047C175.277 146.169 165.533 177.675 196.715 179.071C227.896 180.468 257 187.669 267.653 191.095C282.952 188.606 307.04 179.498 281.003 162.976C254.966 146.454 234.36 140.319 227.312 139.317C226.305 136.764 223.024 131.017 217.957 128.458Z" fill="#FF4B4B"/><ellipse cx="269.262" cy="132.869" rx="3.36179" ry="3.34518" fill="#A41414"/><path d="M242.781 94.8357C241.144 94.8357 239.639 95.2235 239.103 95.4175C239.103 95.4175 239.851 90.9298 244.267 88.9937C246.033 88.2197 248.604 88.3351 251.576 88.4123C265.51 88.9937 287.337 97.7685 297.471 105.574C298.754 106.562 299.65 113.192 297.62 115.353C297.319 115.674 296.83 115.582 296.525 115.266C281.25 99.4582 244.805 94.8357 242.781 94.8357Z" fill="#FF4B4B"/><path d="M263.27 131.662C262.974 132.819 262.779 135.457 264.36 136.754" stroke="#EE9583" stroke-width="1.3642" stroke-linecap="round" stroke-linejoin="round"/><ellipse cx="249.724" cy="111.974" rx="5.84659" ry="5.8177" fill="#FFC6B7"/><ellipse cx="279.98" cy="121.961" rx="1.21804" ry="1.21202" fill="#3D3D3D"/><ellipse cx="283.339" cy="122.93" rx="1.21804" ry="1.21202" fill="#3D3D3D"/><path d="M308.033 95.808C307.582 96.943 304.635 99.9324 304.091 99.7186C303.548 99.5048 303.451 95.3182 303.902 94.1832C304.353 93.0482 305.643 92.4919 306.784 92.9406C307.925 93.3893 308.484 94.6731 308.033 95.808Z" fill="#2FE3FF"/><path d="M311.524 108.426C310.327 108.159 306.901 105.728 307.028 105.161C307.156 104.593 311.297 103.846 312.494 104.113C313.691 104.379 314.444 105.56 314.176 106.751C313.908 107.943 312.721 108.692 311.524 108.426Z" fill="#2FE3FF"/><path d="M265.153 153.765C265.394 160.166 264.379 173.232 258.535 186.092L261.376 187.37C266.943 175.119 268.314 162.705 268.303 155.461C267.239 154.877 266.189 154.312 265.153 153.765Z" fill="#EBE3E3"/><path d="M262.716 153.388C263.559 152.894 264.641 153.099 265.245 153.868L266.741 155.771C267.368 156.569 267.275 157.713 266.526 158.399L261.441 163.059C260.567 163.859 259.182 163.703 258.508 162.728L256.311 159.55C255.668 158.62 255.952 157.343 256.929 156.772L262.716 153.388Z" fill="#EBE3E3"/><path d="M275.644 130.3C274.085 125.801 268.303 121.185 265.607 119.44L262.099 123.124L270.577 128.07C272.915 130.687 277.203 134.799 275.644 130.3Z" fill="#FFC6B7"/><path d="M301.858 133.505C302.312 132.939 302.809 132.41 303.344 131.921C303.369 132.016 303.374 132.118 303.354 132.221C303.115 133.466 303.153 135.09 303.841 136.135C304.166 136.63 304.644 137.009 305.365 137.175C306.106 137.345 307.154 137.3 308.613 136.829C308.863 136.748 309.138 136.818 309.319 137.009C309.5 137.199 309.555 137.477 309.459 137.721C309.202 138.376 309.023 139.136 308.991 139.867C308.958 140.603 309.077 141.258 309.36 141.749C309.629 142.215 310.071 142.582 310.817 142.734C311.591 142.892 312.718 142.821 314.314 142.307C314.642 142.201 314.999 142.357 315.143 142.669C315.288 142.981 315.175 143.351 314.881 143.531C313.557 144.34 312.97 145.034 312.745 145.838C312.506 146.69 312.627 147.804 313.089 149.569C313.184 149.932 312.965 150.303 312.6 150.397C312.236 150.491 311.863 150.274 311.769 149.911C311.305 148.137 311.085 146.706 311.431 145.473C311.567 144.987 311.784 144.552 312.081 144.15C311.515 144.188 311.003 144.158 310.543 144.064C309.424 143.836 308.645 143.236 308.177 142.424C307.723 141.636 307.589 140.7 307.628 139.807C307.648 139.35 307.714 138.89 307.814 138.447C306.751 138.668 305.837 138.677 305.058 138.498C303.976 138.249 303.207 137.65 302.7 136.879C302.045 135.885 301.842 134.635 301.858 133.505Z" fill="#EE9583"/><path d="M298.822 141.766C298.839 141.173 298.893 140.589 298.982 140.016C300.723 141.808 302.136 142.732 303.236 143.104C304.313 143.468 305.07 143.301 305.615 142.917C306.192 142.511 306.632 141.789 306.89 140.878C307.145 139.975 307.2 138.955 307.067 138.051C307.012 137.68 307.27 137.335 307.643 137.281C308.016 137.227 308.362 137.483 308.417 137.854C308.576 138.938 308.513 140.151 308.203 141.246C307.895 142.334 307.323 143.378 306.402 144.026C305.449 144.696 304.224 144.872 302.797 144.389C301.621 143.992 300.301 143.148 298.822 141.766Z" fill="#EE9583"/><path d="M311.373 134.856C310.402 135.595 308.357 137.405 307.946 138.735" stroke="#EE9583" stroke-width="1.55909" stroke-linecap="round" stroke-linejoin="round"/><path d="M315.904 142.438C315.096 142.661 313.329 143.295 312.726 144.037" stroke="#EE9583" stroke-width="1.55909" stroke-linecap="round" stroke-linejoin="round"/><ellipse cx="189.763" cy="77.0194" rx="30.7433" ry="30.5914" fill="#0084C2"/><path d="M217.36 63.5243C217.198 64.2181 216.946 64.8737 216.61 65.4926C215.766 67.0508 214.426 68.317 212.791 69.3734C209.545 71.4708 204.954 72.8538 200.151 74.0361L199.73 72.3419C204.538 71.158 208.864 69.8297 211.836 67.9096C213.31 66.9572 214.403 65.888 215.066 64.6641C215.672 63.5475 215.946 62.2523 215.773 60.7029C216.35 61.6121 216.88 62.5537 217.36 63.5243Z" fill="#00699B"/><path d="M176.262 78.9095C173.664 85.1151 168.467 97.6231 168.467 98.011L183.961 107.61L198.967 113.234C200.039 111.78 203.196 106.796 207.249 98.4958C208.029 88.8772 204.196 76.6471 202.182 71.7344L176.262 78.9095Z" fill="#C6775C"/><path d="M206.616 124.676C207.493 110.131 175.288 94.036 163.497 94.569C151.706 95.1021 147.224 104.023 147.711 109.695C148.198 115.367 149.758 123.318 172.072 134.178C194.387 145.038 205.816 137.938 206.616 124.676Z" fill="#3D3D3D"/><ellipse cx="189.368" cy="102.811" rx="3.65412" ry="3.63606" fill="#C6775C"/><path d="M174.216 104.168C174.216 106.447 175.337 109.938 179.184 111.974" stroke="white" stroke-width="6.62613" stroke-linecap="round" stroke-linejoin="round"/><rect width="10.1269" height="16.6572" rx="5.06347" transform="matrix(0.911789 0.41066 -0.414051 0.910254 185.211 79.7971)" fill="white"/><rect width="9.52573" height="16.6572" rx="4.76287" transform="matrix(0.911789 0.41066 -0.414051 0.910254 197.05 85.5461)" fill="white"/><path d="M180.831 89.4259C182.983 90.3972 186.049 88.9609 187.891 86.0341C188.799 84.5913 189.249 83.0401 189.254 81.6582C186.843 80.9027 184.19 82.0419 183.121 84.3911L180.831 89.4259Z" fill="#3D3D3D"/><path d="M192.895 94.6794C195.023 95.3898 197.889 93.9543 199.643 91.1659C200.433 89.9111 200.876 88.5746 200.982 87.3386C198.681 86.545 196.108 87.615 195.084 89.8667L192.895 94.6794Z" fill="#3D3D3D"/><ellipse cx="154.298" cy="152.851" rx="39.7568" ry="39.5603" fill="#CC348D"/><path d="M126.946 220.959C122.425 215.219 109.471 214.689 103.56 215.141V199.434L111.355 190.513L132.598 197.3L155.399 209.324L153.645 225.807L124.412 237.637C127.141 234.469 131.467 226.699 126.946 220.959Z" fill="#744007"/><path d="M151.306 219.408C132.753 215.995 128.894 201.825 129.284 195.167L140.587 179.459L167.871 182.368L176.836 202.148C176.057 209.324 169.859 222.821 151.306 219.408Z" fill="white"/><rect width="19.6452" height="23.2734" rx="9.82262" transform="matrix(0.795209 0.606336 -0.610132 0.792299 156.249 173.996)" fill="#FFCBA3"/><path d="M110.642 236.673C140.949 227.435 159.735 204.081 165.533 193.034L182.098 197.3L198.274 211.845L216.398 219.796C212.955 232.853 200.301 259.084 177.226 259.55C151.615 260.066 121.854 250.492 109.503 241.415C107.622 240.033 108.408 237.354 110.642 236.673Z" fill="#C86902"/><path d="M82.9014 150.565C102.546 154.289 114.343 152.117 117.786 150.565L132.987 155.025C142.991 158.063 160.388 168.212 149.942 184.502C139.496 200.791 111.68 208.354 99.077 210.1C85.4999 188.704 63.2569 146.842 82.9014 150.565Z" fill="#C86902"/><path d="M156.958 190.902C126.4 176.164 124.997 157.999 126.751 151.147L136.885 134.664C142.537 132.919 160.934 133.384 183.853 145.329C212.501 160.261 211.332 176.163 207.434 185.86C203.933 194.569 195.156 209.325 156.958 190.902Z" fill="#FFCBA3"/><path d="M159.376 177.288C158.797 179.518 160.125 182.804 163.504 184.547" stroke="#E89665" stroke-width="1.55909" stroke-linecap="round" stroke-linejoin="round"/><path d="M193.109 174.805C194.522 170.927 191.112 166.563 187.409 166.563C183.707 166.563 182.683 170.151 181.221 173.06C179.76 175.969 177.275 179.556 176.447 180.671C175.619 181.786 175.862 187.168 182.342 187.507C188.822 187.847 191.697 178.684 193.109 174.805Z" fill="white"/><path d="M179.078 166.854C180.491 162.976 177.08 158.613 173.378 158.613C169.675 158.613 167.677 162.636 166.167 165.06C164.656 167.485 163.487 169.23 162.464 171.993C161.982 173.294 161.831 179.217 168.311 179.556C174.791 179.896 177.665 170.733 179.078 166.854Z" fill="white"/><ellipse cx="182.156" cy="179.953" rx="2.75277" ry="2.73917" fill="#3D3D3D"/><ellipse cx="171.16" cy="173.543" rx="2.75277" ry="2.73917" fill="#3D3D3D"/><path d="M164.168 168.335C164.649 167.483 165.168 166.655 165.737 165.747C165.877 165.524 166.02 165.295 166.166 165.06C166.323 164.81 166.484 164.541 166.653 164.262C168.109 161.846 170.058 158.613 173.377 158.613C177.08 158.613 180.49 162.976 179.078 166.854C178.996 167.078 178.91 167.32 178.818 167.576C178.049 169.725 176.908 172.914 175.151 175.463C171.554 174.208 166.929 170.709 164.168 168.335Z" fill="#C86902"/><rect x="82.6577" y="118.761" width="14.8601" height="6.09514" rx="3.04757" fill="#FFCBA3"/><path d="M200.839 157.259C211.627 168.181 210.316 178.606 207.484 185.733C194.777 176.568 197.144 164.577 200.839 157.259Z" fill="#D6C5B9"/><path d="M178.651 177.454C179.543 176.073 180.505 174.485 181.221 173.06C181.437 172.63 181.644 172.186 181.85 171.74C183.044 169.169 184.254 166.563 187.409 166.563C191.112 166.563 194.522 170.927 193.109 174.805C193.028 175.029 192.941 175.27 192.85 175.527C192.133 177.53 191.093 180.435 189.534 182.884C184.171 181.768 180.449 179.207 178.651 177.454Z" fill="#C86902"/><path d="M84.1641 114.477C81.707 111.659 81.8926 107.42 84.5869 104.825C87.3163 102.195 91.6469 102.185 94.3872 104.802L131.409 140.16C134.726 143.327 135.254 148.417 132.657 152.194C129.178 157.254 121.831 157.674 117.793 153.044L84.1641 114.477Z" fill="#C86902"/><path d="M94.3882 104.803L104.453 114.415C100.44 112.945 95.2497 116.975 93.2283 124.872L88.7246 119.707C88.2912 119.727 87.4591 119.768 86.9818 119.792L86.1292 118.761C86.9421 118.761 87.3297 118.385 87.0262 117.759L84.1648 114.477C81.7071 111.659 81.8923 107.42 84.5866 104.824C87.316 102.195 91.6472 102.185 94.3882 104.803Z" fill="#FFCBA3"/><path d="M201.733 156.092C202.903 141.79 170.795 121.574 151.794 121.38C132.792 121.186 127.608 137.708 127.92 143.293C128.31 150.274 139.126 158.346 143.316 161.522C146.738 164.115 151.177 165.239 153.158 165.255C163.721 165.255 173.15 155.559 176.544 150.711C182.732 153.733 195.633 159.825 197.738 160.019C200.369 160.261 201.49 158.565 201.733 156.092Z" fill="#3D3D3D"/><ellipse cx="128.261" cy="150.42" rx="6.47997" ry="6.44795" fill="#FFCBA3"/><ellipse cx="126.507" cy="157.012" rx="2.77713" ry="2.76341" fill="#744007"/><path d="M176.154 184.113C176.669 182.082 175.883 179.563 175.199 178.554C173.812 179.273 172.21 180.873 171.581 182.056C171.064 183.026 170.103 185.258 172.246 186.214C174.388 187.171 175.646 186.116 176.154 184.113Z" fill="#E89665"/><path d="M303.513 267.112C303.513 261.139 290.196 252.665 283.537 249.174L278.178 253.343L281.686 267.985C278.535 270.538 274.124 275.645 281.686 275.645C291.138 275.645 303.513 274.578 303.513 267.112Z" fill="#A46648"/><rect width="30.8189" height="76.6744" transform="matrix(0.734447 -0.678666 0.682286 0.731086 234.179 278.249)" fill="#1CB0F6"/><rect width="36.6383" height="14.2403" rx="3.11818" transform="matrix(0.779242 -0.626723 0.63049 0.776197 276.428 328.069)" fill="#4CC5FF"/><path d="M272.136 272.542L274.28 268.179L266.484 261.295L250.991 256.641V265.27C261.203 271.243 269.343 272.607 272.136 272.542Z" fill="#FF4B4B"/><path d="M282.563 265.173C283.888 257.494 282.595 250.823 282.563 246.847L266.29 236.279C259.469 242.807 244.736 254.488 249.335 258.677C255.084 263.913 280.906 274.772 282.563 265.173Z" fill="#FDB02A"/><path d="M275.06 202.869C274.136 203.007 273.19 203.078 272.227 203.078C261.737 203.078 253.232 194.616 253.232 184.177C253.232 175.572 259.012 168.31 266.919 166.024C268.595 158.962 272.791 153.473 280.517 153.473C290.54 153.473 302.877 162.714 303.956 172.642C307.652 170.711 311.585 170.558 315.596 173.642C323.419 179.656 328.575 195.705 322.531 203.489C317.435 210.051 308.645 212.101 301.324 208.978H275.06V202.869Z" fill="#3D3D3D"/><path d="M262.976 200.791L254.791 215.917C258.072 223.722 264.906 240.361 265.997 244.472C267.089 248.583 270.22 249.837 271.649 249.95C272.883 250.063 278.178 250.416 289.481 250.92C300.784 251.424 304.974 245.894 305.657 243.066L313.062 219.795L318.909 207.19L262.976 200.791Z" fill="#A46648"/><path d="M262.294 217.565L304.682 205.93C306.673 207.586 311.072 212.119 313.956 217.868L318.909 207.19L262.976 200.791L254.791 215.917C255.222 216.941 255.714 218.118 256.246 219.399L262.294 217.565Z" fill="#FDB02A"/><path d="M288.901 216.907C289.672 214.619 291.958 213.088 294.394 213.226C297.695 213.414 299.837 216.518 298.808 219.623L296.924 225.309C296.031 228.005 293.09 229.592 290.347 228.858C287.58 228.118 286.07 225.3 286.986 222.584L288.901 216.907Z" fill="white"/><path d="M293.097 219.125C293.5 217.96 294.716 217.224 295.944 217.4C297.415 217.611 298.309 219.03 297.854 220.433L296.424 224.841C295.993 226.172 294.537 226.954 293.188 226.579C291.844 226.205 291.122 224.827 291.579 223.509L293.097 219.125Z" fill="#3D3D3D"/><path d="M302.294 219.371C302.892 217.587 304.634 216.361 306.539 216.382C309.299 216.412 311.162 218.971 310.307 221.557L307.817 229.089C307.095 231.272 304.714 232.558 302.493 231.964C300.257 231.366 299.035 229.09 299.771 226.894L302.294 219.371Z" fill="white"/><rect width="5.95484" height="4.68588" rx="2.34294" transform="matrix(0.957497 0.288441 -0.291071 0.956701 296.031 228.861)" fill="#86401F"/><path d="M298.87 230.725C298.893 229.173 297.878 227.737 297.34 227.555C296.614 228.361 295.734 229.885 295.524 230.858C295.352 231.657 295.241 233.398 296.651 233.621C298.062 233.845 298.847 232.254 298.87 230.725Z" fill="#86401F"/><path d="M302.407 221.157C302.714 220.238 303.655 219.642 304.625 219.753C305.82 219.89 306.566 221.026 306.208 222.163L304.752 226.782C304.417 227.848 303.261 228.482 302.181 228.193C301.105 227.905 300.516 226.811 300.87 225.754L302.407 221.157Z" fill="#3D3D3D"/><path d="M294.562 230.926C292.867 227.393 288.551 225.162 286.365 224.326L283.439 227.036L291.309 232.055C293.259 233.26 296.257 234.46 294.562 230.926Z" fill="#A46648"/><path d="M289.975 237.52C288.817 237.24 286.533 235.902 286.66 232.797" stroke="white" stroke-width="6.05313" stroke-linecap="round" stroke-linejoin="round"/><ellipse cx="281.378" cy="267.969" rx="7.77965" ry="7.7412" fill="#A46648"/><path d="M288.628 264.61C288.719 264.92 289.044 265.097 289.354 265.006C289.664 264.915 289.841 264.59 289.75 264.28L288.628 264.61ZM283.117 260.448C285.714 260.582 287.948 262.297 288.628 264.61L289.75 264.28C288.92 261.456 286.233 259.438 283.178 259.281L283.117 260.448Z" fill="#86401F"/><path d="M289.288 264.344C290.543 263.86 292.746 263.331 295.571 262.992" stroke="#86401F" stroke-width="1.16932" stroke-linecap="round" stroke-linejoin="round"/><path d="M321.873 313.654C321.688 317.165 320.016 325.222 314.816 329.362" stroke="#FF4B4B" stroke-width="11.4983" stroke-linecap="round" stroke-linejoin="round"/><path d="M177.47 242.338C187.877 233.96 193.565 232.254 195.107 232.448L206.459 242.338L231.697 259.743C238.372 261.553 251.985 266.433 253.037 271.475C254.09 276.517 252.599 285.825 251.722 289.849C248.717 295.522 239.629 308.766 227.312 316.368C214.996 323.97 199.444 319.536 193.207 316.368C183.625 295.182 167.063 250.715 177.47 242.338Z" fill="#FFB100"/><ellipse rx="6.59722" ry="7.78544" transform="matrix(0.954395 0.298547 -0.301251 0.953545 232.726 270.749)" fill="white"/><ellipse rx="4.70744" ry="7.51636" transform="matrix(0.975409 0.220404 -0.222491 0.974935 242.725 273.047)" fill="white"/><path d="M213.909 247.475L206.459 242.338L195.107 232.448C193.565 232.254 187.877 233.96 177.47 242.338C167.616 250.27 181.941 290.557 191.625 312.801C212.967 299.21 226.149 274.323 230.235 262.943C225.869 258.843 219.142 252.493 213.909 247.475Z" fill="#FF9500"/><path d="M249.829 267.489C251.557 268.768 252.754 270.116 253.037 271.476C254.09 276.518 252.599 285.826 251.722 289.85C248.921 295.138 240.831 307.009 229.768 314.752C240.759 298.053 245.721 276.857 246.898 266.822L249.829 267.489Z" fill="#FF9500"/><path d="M200.466 224.595L195.107 232.448C195.448 235.6 197.572 243.357 203.341 249.174C210.552 256.446 225.753 270.021 253.134 271.379C266.543 245.858 266.192 230.105 264.34 225.419L266.484 219.601L243.682 209.032L200.466 224.595Z" fill="#FFCBA3"/><path d="M245.34 218.002C245.729 218.099 248.292 218.962 255.425 221.638C256.974 222.287 260.643 223.858 263.631 225.232C264.017 225.41 264.298 225.76 264.385 226.177C265.582 231.867 265.808 236.459 262.148 249.999C268.239 250.726 275.011 243.405 274.183 232.061C270.967 201.081 229.456 194.294 220.491 194.294C211.721 194.295 196.228 200.936 195.936 214.414C195.644 227.892 208.652 231.285 214.889 232.061C219.878 232.682 223.236 229.023 224.292 227.116C226.273 227.94 230.811 229.569 233.111 229.492C235.985 229.395 238.421 224.207 239.932 220.086C241.14 216.79 244.04 217.323 245.34 218.002Z" fill="#3D3D3D"/><ellipse rx="4.51231" ry="8.22339" transform="matrix(0.967131 0.254279 -0.256645 0.966506 256.305 242.781)" fill="white"/><ellipse rx="5.08518" ry="8.50439" transform="matrix(0.967131 0.254279 -0.256645 0.966506 245.886 238.834)" fill="white"/><path d="M251.868 239.818L239.834 227.649L243.001 224.207L260.735 230.17C262.018 231.608 264.311 234.883 263.22 236.473C262.129 238.063 255.197 239.365 251.868 239.818Z" fill="#FFCBA3"/><path d="M224.282 227.134C206.353 218.971 202.347 213.344 198.222 206.301C196.849 208.656 196.002 211.359 195.936 214.414C195.644 227.892 208.652 231.285 214.889 232.061C219.862 232.68 223.216 229.045 224.282 227.134Z" fill="#9F9F9F"/><path d="M274.251 233.986C273.067 239.396 267.667 240.255 264.476 239.933C263.999 242.66 263.25 245.925 262.148 249.999C267.887 250.684 274.231 244.225 274.251 233.986Z" fill="#9F9F9F"/><path d="M241.344 228.619C243.484 231.064 248.517 236.18 251.466 238.614C252.095 239.132 252.892 239.393 253.705 239.341C256.774 239.144 259.734 238.244 262.051 237.006" stroke="#3D3D3D" stroke-width="3.50795" stroke-linecap="round"/><path d="M238.08 243.066C238.388 245.442 239.92 251.308 248.311 254.362" stroke="#E89665" stroke-width="1.55909" stroke-linecap="round" stroke-linejoin="round"/><path d="M246.261 247.295C245.432 244.754 241.067 240.515 238.988 238.714L238.829 239.866L240.145 245.283L243.48 249.263C244.029 249.322 245.354 249.011 246.261 247.295Z" fill="#FFCBA3"/><path d="M252.574 248.036C252.282 246.387 250.668 245.036 249.933 244.933C249.158 245.909 248.333 247.672 248.263 248.739C248.205 249.614 248.422 251.478 250.298 251.478C252.174 251.478 252.863 249.66 252.574 248.036Z" fill="#E89665"/><path d="M239.152 259.889C240.191 261.667 243.196 264.785 246.898 263.04" stroke="#F7B286" stroke-width="1.55909" stroke-linecap="round" stroke-linejoin="round"/><path d="M236.91 231.916L238.762 235.503L233.987 235.746" stroke="#E89665" stroke-width="1.75398" stroke-linecap="round" stroke-linejoin="round"/><ellipse rx="2.37696" ry="4.27581" transform="matrix(0.954526 0.298127 -0.300828 0.953678 247.896 239.234)" fill="#3D3D3D"/><ellipse rx="1.99271" ry="4.27581" transform="matrix(0.954526 0.298127 -0.300828 0.953678 255.216 241.786)" fill="#3D3D3D"/><ellipse rx="2.28745" ry="3.83414" transform="matrix(0.885076 0.465447 -0.469066 0.883163 232.552 288.539)" fill="white"/><ellipse cx="227.994" cy="180.332" rx="11.206" ry="11.1506" fill="#3D3D3D"/><path d="M208.405 253.926C208.549 253.536 208.677 253.088 208.768 252.596C209.03 251.173 208.981 249.365 208.079 247.509C206.961 245.207 205.109 244.01 203.257 243.462C201.646 242.985 200.026 242.993 198.847 243.181C199.018 243.483 199.196 243.786 199.381 244.088C200.392 243.974 201.693 244.01 202.979 244.391C204.62 244.877 206.224 245.918 207.202 247.931C207.997 249.568 208.041 251.161 207.809 252.421C207.756 252.711 207.688 252.983 207.612 253.232C207.87 253.461 208.135 253.693 208.405 253.926Z" fill="#E89665" fill-opacity="0.5"/><path d="M304.763 203.258C303.121 198.981 305.262 194.195 309.544 192.568L310.368 194.715C312.009 198.992 309.869 203.778 305.587 205.405L304.763 203.258Z" fill="#FDB02A"/><path d="M295.109 201.109C296.966 205.2 301.793 207.024 305.891 205.183L304.957 203.124C303.1 199.033 298.273 197.209 294.175 199.051L295.109 201.109Z" fill="#FDB02A"/><ellipse cx="148.846" cy="235.551" rx="12.0319" ry="11.9725" fill="#FF9600"/><ellipse cx="162.911" cy="239.928" rx="6.57208" ry="6.53961" fill="#FF9600"/><path d="M205.924 280.493C207.444 261.643 206.557 254.701 205.924 253.586L198.372 252.665L197.203 262.264C197.885 265.431 200.584 273.512 205.924 280.493Z" fill="#2FE3FF"/><ellipse cx="200.606" cy="251.182" rx="7.34059" ry="7.30432" fill="#FFC6B7"/><ellipse cx="187.354" cy="255.254" rx="7.34059" ry="7.30432" fill="#FFC6B7"/><path d="M137.178 250.532C131.088 254.096 134.417 265.884 137.178 271.96L138.932 278.166L130.454 285.39L147.556 298.431C153.061 315.108 154.036 323.738 173.134 326.841C197.008 325.095 211.381 317.29 210.65 306.77C207.045 263.04 191.551 237.199 182.684 237.2C173.928 237.2 144.541 246.222 137.178 250.532Z" fill="#FFC6B7"/><path d="M172.532 269.547C172.491 268.937 173.014 268.441 173.621 268.514L178.429 269.094C178.918 269.153 179.287 269.568 179.287 270.061V277.51C179.287 279.224 177.897 280.614 176.182 280.614C174.549 280.614 173.195 279.349 173.085 277.719L172.532 269.547Z" fill="#D04040"/><path d="M137.178 271.96C134.417 265.884 131.088 254.096 137.178 250.532C139.636 249.093 144.55 247.129 150.331 245.15C149.581 247.428 151.964 253.575 153.855 258.452C155.143 261.776 156.203 264.509 155.887 265.027C155.224 266.113 148.14 268.938 144.681 270.215C145.801 273.043 146.961 279.639 142.634 283.402C140.32 285.414 138.135 283.447 136.389 280.333L138.932 278.166L137.178 271.96Z" fill="#FFB67A"/><path d="M193.689 258.107C190.567 243.838 186.485 241.532 183.481 242.016C180.476 242.5 179.501 243.906 179.419 246.485C179.337 249.063 182.028 256.35 183.366 259.783C184.543 262.925 186.24 263.66 188.943 263.207C191.647 262.754 194.199 260.435 193.689 258.107Z" fill="white"/><path d="M180.368 262.008C178.158 247.57 175.203 245.073 172.173 245.368C169.144 245.662 167.303 246.955 167.058 249.523C166.812 252.091 169.035 259.533 170.153 263.044C171.128 266.252 172.775 267.093 175.502 266.811C178.228 266.529 180.728 264.363 180.368 262.008Z" fill="white"/><path d="M186.581 264C186.478 260.816 183.339 260.14 181.782 260.2C181.55 264.385 183.046 265.9 184.388 265.9C185.73 265.9 186.581 264.95 186.581 264Z" fill="#EE9583"/><ellipse cx="145.688" cy="271.605" rx="4.95361" ry="4.92913" fill="#FFC6B7"/><path d="M215.132 303.301C214.765 305.74 213.275 311.167 210.26 313.363" stroke="#3D3D3D" stroke-width="7.79545" stroke-linecap="round" stroke-linejoin="round"/><path d="M206.031 277.551C204.301 279.251 200.115 282.169 191.259 286.601C177.773 293.35 162.318 293.615 156.277 292.904L140.004 280.396L136.584 280.166L130.454 285.389L147.556 298.431C148.83 301.608 149.606 304.839 150.341 307.901C150.714 309.455 151.077 310.966 151.489 312.404L159.492 317.047L200.321 311.133L209.584 296.757C208.671 289.806 207.456 283.391 206.031 277.551Z" fill="#2FE3FF"/><path d="M209.052 292.989C206.213 295.54 200.482 299.317 189.602 303.957C172.1 311.421 156.868 307.501 149.504 304.539C152.233 317.774 155.698 323.94 172.355 326.646C198.033 326.646 211.381 317.289 210.65 306.769C210.253 301.956 209.712 297.359 209.052 292.989Z" fill="#0084C2"/><rect width="9.62713" height="17.1812" rx="4.81356" transform="matrix(0.766546 -0.642189 0.645923 0.763403 160.809 306.344)" fill="#3D3D3D"/><ellipse cx="133.852" cy="279.491" rx="7.34059" ry="7.30432" fill="#FFC6B7"/><path d="M192.234 290.553C192.136 287.256 195.533 285.454 196.229 283.232C196.472 282.457 196.813 281.681 196.643 280.445" stroke="white" stroke-width="2.72841" stroke-linecap="round" stroke-linejoin="round"/><path d="M186.2 292.83C185.615 289.583 188.708 287.303 189.068 285.003C189.194 284.201 189.416 283.383 189.065 282.186" stroke="white" stroke-width="2.72841" stroke-linecap="round" stroke-linejoin="round"/><ellipse cx="169.483" cy="268.091" rx="5.89874" ry="5.86959" fill="#FFC6B7"/><ellipse cx="195.205" cy="260.832" rx="4.8013" ry="4.77757" fill="#FFC6B7"/><ellipse cx="168.433" cy="265.444" rx="1.90014" ry="1.89075" fill="#FFD4C8"/><ellipse cx="195.545" cy="258.68" rx="1.90014" ry="1.89075" fill="#FFD4C8"/><path d="M179.286 277.183V277.525C179.286 279.231 177.897 280.614 176.182 280.614C174.549 280.614 173.195 279.354 173.085 277.733L172.877 274.652C173.332 274.541 173.807 274.483 174.296 274.483C176.388 274.483 178.227 275.558 179.286 277.183Z" fill="#F05C53"/><path d="M173.524 329.75C167.677 329.75 153.207 322.914 150.917 310.115L159.492 316.175L177.422 319.86L198.664 308.03C201.198 311.327 205.203 318.25 201.149 320.732C196.082 323.835 179.371 329.75 173.524 329.75Z" fill="#0084C2"/><rect width="5.75952" height="11.2975" rx="2.87976" transform="matrix(0.971979 -0.235066 0.237276 0.971442 171.798 250.723)" fill="#3D3D3D"/><rect width="4.85291" height="11.2989" rx="2.42645" transform="matrix(0.959253 -0.282548 0.285134 0.958488 180.038 248.751)" fill="#3D3D3D"/><path d="M150.175 276.999C150.493 276.797 150.586 276.376 150.384 276.058C150.182 275.74 149.76 275.646 149.442 275.848L150.175 276.999ZM145.555 277.887C146.429 277.971 148.177 278.269 150.175 276.999L149.442 275.848C147.884 276.838 146.588 276.616 145.683 276.529L145.555 277.887Z" fill="#EE9583" fill-opacity="0.6"/><path d="M195.061 246.395C196.854 249.084 199.351 253.887 201.159 258.465C200.976 258.479 200.792 258.486 200.606 258.486C200.366 258.486 200.129 258.474 199.895 258.452C198.21 254.272 195.985 249.977 194.324 247.4C194.541 247.044 194.788 246.708 195.061 246.395Z" fill="#EE9583" fill-opacity="0.6"/><ellipse cx="34.6917" cy="175.266" rx="17.8565" ry="17.7682" fill="#3D3D3D"/><ellipse cx="40.5705" cy="145.671" rx="21.9369" ry="21.8285" fill="#3D3D3D"/><path d="M75.886 130.227C66.6045 133.496 62.3414 133.184 51.0502 126.494L50.5508 137.681L70.1965 143.244L79.0877 133.496C81.5013 130.706 77.4832 132.108 75.886 130.227Z" fill="#3D3D3D"/><ellipse cx="81.2455" cy="146.753" rx="17.4423" ry="17.3561" fill="#3D3D3D"/><path d="M114.181 202.536C114.181 157.739 83.2914 135.147 64.9719 135.147C46.6524 135.147 22.7792 143.583 31.5489 171.217C40.3186 198.851 44.2165 203.893 44.2165 212.232C42.2678 246.847 73.4494 247.817 75.3009 247.817C77.1523 247.817 114.181 247.332 114.181 202.536Z" fill="#DA8E74"/><path d="M69.5518 148.819C70.4938 151.696 70.994 158.244 65.4592 161.424" stroke="#BE6648" stroke-width="1.94886" stroke-linecap="round" stroke-linejoin="round"/><path d="M40.7592 197.822C40.8106 197.795 40.8587 197.767 40.9035 197.736C44.153 195.508 44.2363 193.831 44.4351 189.83C44.4569 189.392 44.4801 188.926 44.5089 188.428C44.7428 184.394 41.0335 180.283 39.1496 178.732C40.3838 176.631 43.0668 172.468 43.9243 172.623C44.9962 172.817 49.4785 170.102 50.1606 166.611C50.6468 164.123 45.4896 154.665 42.2752 148.77C40.9798 146.394 40 144.597 39.832 144.068C39.2966 142.381 41.4987 141.06 44.6424 139.174C44.9316 139 45.2287 138.822 45.5325 138.638L45.5138 138.635C34.0257 143.3 25.8185 153.16 31.5489 171.217C35.0649 182.296 37.7978 189.744 39.8104 195.229C40.1467 196.145 40.4629 197.007 40.7592 197.822Z" fill="#3D3D3D"/><path d="M84.2974 151.709C81.7489 152.349 76.044 152.394 73.6116 147.458" stroke="#BE6648" stroke-width="1.94886" stroke-linecap="round" stroke-linejoin="round"/><path d="M78.8092 196.621C69.0649 196.621 68.7726 187.895 69.8444 183.531L71.16 172.963L84.802 161.667C88.0501 162.232 94.5463 164.76 94.5463 170.345C94.5463 177.326 90.9896 196.621 78.8092 196.621Z" fill="#BE3030"/><path d="M62.1821 142.953C62.5713 143.985 62.9293 146.701 61.248 149.304" stroke="#3D3D3D" stroke-width="6.04148" stroke-linecap="round" stroke-linejoin="round"/><path d="M75.7402 141.871C74.9902 141.934 73.1022 141.724 71.55 140.384" stroke="#3D3D3D" stroke-width="5.45682" stroke-linecap="round" stroke-linejoin="round"/><path d="M102.244 167.484C102.244 161.327 94.7407 154.588 87.1889 154.588C84.4606 154.855 80.6847 155.267 77.2011 158.321C63.5591 164.478 61.805 177.859 61.805 178.926C61.805 179.992 61.4152 187.192 68.6503 187.192C74.0097 187.192 79.5883 167.072 87.7736 167.072C92.6944 167.072 90.7212 174.417 95.9101 174.417C97.0307 174.417 102.244 173.641 102.244 167.484Z" fill="#3D3D3D"/><ellipse cx="38.4266" cy="176.51" rx="6.22835" ry="6.19757" fill="#DA8E74"/><ellipse cx="77.2987" cy="157.497" rx="3.94645" ry="3.92695" fill="#DA8E74"/><path d="M111.732 181.68C113.294 187.993 114.181 194.946 114.181 202.536C114.181 212.108 112.49 219.656 109.813 225.609L79.1987 234.339L46.6337 229.503C44.8015 224.963 43.8187 219.298 44.2165 212.232C44.2165 209.517 43.8033 207.151 42.9431 204.241C50.5996 206.722 66.6221 209.065 87.5788 204.088C92.2561 206.415 94.4648 206.802 94.9845 206.705L96.8359 200.015C101.605 197.099 109.959 190.002 111.732 181.68Z" fill="#FFAADE"/><path d="M113.865 209.452L109.212 215.529L96.7392 223.092L79.3943 226.777L56.5926 224.644L44.4646 220.898C47.7186 247.017 73.6193 247.818 75.3016 247.818C77.0525 247.818 110.262 247.384 113.865 209.452Z" fill="#2BE69C"/><path d="M114.166 204.072C111.477 212.198 102.29 223.867 80.2708 223.867C61.5188 223.867 50.0446 220.609 44.1887 217.711C44.2868 219.672 44.5039 221.505 44.8239 223.219C51.284 226.324 62.5884 229.685 78.8091 229.685C99.1597 229.685 109.877 219.313 113.448 212.858C113.857 210.145 114.105 207.222 114.166 204.072Z" fill="#A56644"/><path d="M102.634 255.575C101.221 253.151 101.172 249.417 96.6899 249.417C94.2539 249.417 92.4512 251.842 92.4512 255.041C92.4512 263.428 99.2722 266.046 101.757 265.998C104.242 265.949 105.807 264.525 105.947 262.071C106.069 259.938 104.047 257.999 102.634 255.575Z" fill="#1CB0F6"/><path d="M27.7481 232.691C24.978 233.196 20.1518 231.45 18.6377 235.648C17.8149 237.93 19.499 240.631 22.5255 241.711C30.459 244.544 37.235 239.301 38.0284 236.958C38.8218 234.614 37.7199 231.906 35.4461 230.946C33.4695 230.111 30.5183 232.187 27.7481 232.691Z" fill="#1CB0F6"/><path d="M69.469 188.318C69.8109 192.37 72.0075 196.621 78.8088 196.621C81.9749 196.621 84.5583 195.317 86.6481 193.265C85.0546 190.646 86.2214 188.298 87.2357 186.258C87.4882 185.75 87.7311 185.261 87.9198 184.792C88.8438 182.493 87.6762 177.956 85.3863 177.956C83.6593 177.956 82.8879 179.243 81.8495 180.974C80.9544 182.467 79.8608 184.291 77.7857 185.907C75.1984 187.922 71.8249 188.472 69.469 188.318Z" fill="#FD5050"/><path d="M23.656 210.681C36.1287 212.077 42.0402 207.319 43.4369 204.766L49.7704 209.711C51.5893 212.232 51.3684 217.546 37.1028 222.122C23.6563 226.436 22.5843 221.25 23.6563 217.856C18.7517 214.656 11.1833 209.285 23.656 210.681Z" fill="#FFAADE"/><path d="M26.3847 216.499C25.1947 216.546 21.8721 215.646 18.1021 211.668" stroke="#DA8E74" stroke-width="11.3034" stroke-linecap="round" stroke-linejoin="round"/><rect width="6.60026" height="12.4245" rx="3.30013" transform="matrix(0.459228 0.888319 -0.890162 0.455644 27.3667 214.736)" fill="#DA8E74"/><path d="M66.6292 230.655L67.2329 223.531C67.2768 223.013 67.7188 222.621 68.2379 222.639L71.9251 222.768C72.4497 222.786 72.8655 223.217 72.8655 223.742V230.848L66.6292 230.655Z" fill="#2BE69C"/><path d="M106.58 222.074C106.992 219.418 106.271 217.05 105.861 215.983C105.719 215.614 105.776 215.189 106.036 214.892L108.493 212.083C108.8 211.732 109.368 211.866 109.475 212.32C109.81 213.739 110.347 216.313 110.38 218.341C110.429 221.298 106.02 225.686 106.58 222.074Z" fill="#2BE69C"/><path d="M40.6484 147.85L38.7969 141.354L23.4009 147.85L27.7859 162.976L21.7444 183.144L35.1915 192.161H42.11V184.986L39.7714 183.144H35.1915L31.9759 178.878V174.224L35.1915 170.442L42.11 169.182L44.9359 165.594L40.6484 147.85Z" fill="#3D3D3D"/><path d="M277.259 301.22C270.243 301.22 268.099 290.118 256.65 288.857C240.719 287.104 238.087 304.274 238.087 304.274C235.456 309.51 230.038 320.215 226.296 327.351C221.619 336.272 223.909 363.275 254.701 363.275C285.493 363.275 294.068 328.709 295.627 318.576C297.186 308.444 291.778 299.911 287.15 299.911C282.521 299.911 284.275 301.22 277.259 301.22Z" fill="#58CC02"/><path d="M230.389 290.409C232.494 295.994 237.892 301.915 240.328 304.178C239.581 319.885 235.865 347.597 226.978 332.781C215.87 314.262 220.937 296.324 222.204 292.251C223.47 288.179 227.758 283.428 230.389 290.409Z" fill="#58CC02"/><path d="M275.895 283.33C279.793 289.73 284.275 294.966 287.978 303.111C287.231 318.818 277.548 331.45 274.044 314.552C270.243 296.226 269.074 291.378 269.756 286.627C270.361 282.407 272.011 276.954 275.895 283.33Z" fill="#58CC02"/><path d="M279.049 365.845C279.97 365.576 282.2 364.326 283.759 361.482" stroke="#F49000" stroke-width="8.18523" stroke-linecap="round" stroke-linejoin="round"/><path d="M216.455 336.947C215.571 337.318 213.497 338.811 212.272 341.813" stroke="#F49000" stroke-width="8.18523" stroke-linecap="round" stroke-linejoin="round"/><path d="M267.613 346.874C263.891 346.306 263.211 346.166 260.156 345.27C259.771 345.157 259.355 345.357 259.313 345.756C259.195 346.88 259.672 348.545 262.253 349.227C266.144 350.255 268.393 346.993 267.613 346.874Z" fill="#89E219"/><path d="M271.646 351.916C267.867 351.867 267.184 351.826 264.004 351.399C263.622 351.348 263.256 351.581 263.273 351.962C263.317 352.975 264.025 354.38 266.655 354.668C270.649 355.106 272.436 351.926 271.646 351.916Z" fill="#89E219"/><path d="M277.638 347.639C274.442 347.69 273.803 347.667 271.164 347.326C270.74 347.271 270.355 347.561 270.421 347.977C270.59 349.039 271.368 350.454 273.628 350.682C277.124 351.034 278.321 347.629 277.638 347.639Z" fill="#89E219"/><path d="M268.891 299.312L273.982 309.186C274.255 309.715 273.928 310.352 273.337 310.443C270.495 310.88 267.635 309.44 266.29 306.831C264.945 304.223 265.45 301.094 267.482 299.086C267.905 298.668 268.618 298.782 268.891 299.312Z" fill="#89E213"/><path d="M281.355 313.655C279.503 314.624 275.91 315.024 271.854 307.219L269.369 311.424L268.931 326.744C272.699 328.037 280.293 330.642 280.527 330.72C280.761 330.797 284.749 323.771 286.714 320.248L289.248 311.037L287.719 308.207C284.991 311.503 282.836 312.879 281.355 313.655Z" fill="#89E213"/><path d="M264.356 300.934L269.145 310.223C269.402 310.721 269.095 311.32 268.538 311.405C265.865 311.817 263.174 310.462 261.909 308.008C260.643 305.554 261.118 302.611 263.03 300.722C263.428 300.329 264.099 300.436 264.356 300.934Z" fill="#89E213"/><path d="M274.583 318.986C275.562 311.181 272.467 306.706 266.825 305.51C261.182 304.314 255.675 306.573 254.509 309.969C253.343 313.366 250.27 324.319 250.27 324.319C249.17 328.075 251.181 335.096 259.577 336.536C267.972 337.977 273.603 326.791 274.583 318.986Z" fill="#89E213"/><path d="M290.559 304.67L284.678 311.534C284.363 311.902 284.382 312.616 284.716 312.943C286.32 314.517 288.466 314.393 290.02 312.579C291.573 310.766 292.149 307.714 291.48 305.049C291.34 304.494 290.874 304.302 290.559 304.67Z" fill="#89E219"/><path d="M292.858 308.408L287.326 314.866C287.029 315.212 287.047 315.883 287.362 316.191C288.871 317.672 290.889 317.555 292.351 315.849C293.812 314.143 294.354 311.272 293.724 308.764C293.593 308.243 293.155 308.062 292.858 308.408Z" fill="#89E219"/><path d="M293.779 325.483C295.227 318.829 294.26 311.951 289.394 311.23C284.528 310.51 281.464 314.39 280.62 317.658C279.775 320.927 278.355 325.416 277.595 329.018C276.835 332.621 277.765 338.507 282.942 338.637C288.119 338.768 292.202 332.731 293.779 325.483Z" fill="#89E213"/><path d="M271.524 319.317C272.267 313.399 270.158 310.155 265.879 309.248C261.601 308.341 259.012 310.224 258.128 312.8C257.244 315.375 254.566 323.59 254.566 323.59C253.732 326.438 253.955 331.783 260.321 332.876C266.687 333.968 270.781 325.236 271.524 319.317Z" fill="white"/><path d="M267.501 309.748C267.672 310.589 267.692 311.578 267.548 312.72C267.064 316.575 264.398 322.262 260.251 321.551C257.688 321.111 256.654 319.613 256.366 318.095C257.049 316.021 257.752 313.898 258.129 312.8C259.013 310.224 261.601 308.341 265.88 309.248C266.461 309.371 267.002 309.538 267.501 309.748Z" fill="#4B4B4B"/><path d="M291.354 324.749C292.517 319.401 292.059 314.141 288.148 313.562C284.238 312.983 282.238 316.24 281.559 318.867C280.88 321.494 279.739 325.102 279.128 327.997C278.517 330.893 279.264 335.623 283.425 335.728C287.586 335.833 290.087 330.574 291.354 324.749Z" fill="white"/><path d="M287.449 313.498C288.095 314.91 288.033 317.08 287.556 319.271C286.724 323.094 285.083 326.545 282.352 326.477C281.109 326.445 280.33 325.784 279.888 324.895C280.148 323.928 280.426 322.948 280.694 322.003C281.012 320.883 281.316 319.812 281.56 318.867C282.197 316.402 283.997 313.381 287.449 313.498Z" fill="#4B4B4B"/><ellipse cx="274.515" cy="331.327" rx="3.849" ry="3.82998" fill="#F49000"/><path d="M280.381 330.89C280.381 330.332 279.699 326.575 276.236 325.898C272.774 325.221 270.441 328.151 270.441 328.694C270.441 329.372 277.259 333.073 277.868 333.073C278.477 333.073 280.381 331.447 280.381 330.89Z" fill="#FFC200"/><path d="M275.572 327.264C276.27 327.222 276.893 327.39 277.534 328.236" stroke="#FFDE00" stroke-width="1.55909" stroke-linecap="round" stroke-linejoin="round"/></svg>