<svg width="327" height="277" viewBox="0 0 327 277" fill="none" xmlns="http://www.w3.org/2000/svg"><path d="M246 19H231C227.686 19 225 21.6863 225 25V148C225 151.314 227.686 154 231 154H246C249.314 154 252 151.314 252 148V25C252 21.6863 249.314 19 246 19Z" fill="#FFD300"/><path d="M96 19H81C77.6863 19 75 21.6863 75 25V148C75 151.314 77.6863 154 81 154H96C99.3137 154 102 151.314 102 148V25C102 21.6863 99.3137 19 96 19Z" fill="#FFD300"/><path d="M240 145H237C230.373 145 225 150.373 225 157V187C225 193.627 230.373 199 237 199H240C246.627 199 252 193.627 252 187V157C252 150.373 246.627 145 240 145Z" fill="#E5A259"/><path d="M90 145H87C80.3726 145 75 150.373 75 157V187C75 193.627 80.3726 199 87 199H90C96.6274 199 102 193.627 102 187V157C102 150.373 96.6274 145 90 145Z" fill="#E5A259"/><path d="M27 97.75C51.612 97.75 71.8573 77.75 87.7358 37.75C107.437 77.75 132.683 97.75 163.472 97.75C194.26 97.75 219.506 77.75 239.207 37.75C254.085 77.75 274.33 97.75 299.943 97.75" stroke="#FFD300" stroke-width="12" stroke-linecap="round" stroke-linejoin="round"/><path d="M303 130H24C22.3431 130 21 131.343 21 133V139C21 140.657 22.3431 142 24 142H303C304.657 142 306 140.657 306 139V133C306 131.343 304.657 130 303 130Z" fill="#FFD300"/><path d="M303 142H24C22.3431 142 21 143.343 21 145V152.5C21 154.157 22.3431 155.5 24 155.5H303C304.657 155.5 306 154.157 306 152.5V145C306 143.343 304.657 142 303 142Z" fill="#E5A259"/><path d="M105 176.5H70.5C68.8431 176.5 67.5 177.843 67.5 179.5V191.5C67.5 193.157 68.8431 194.5 70.5 194.5H105C106.657 194.5 108 193.157 108 191.5V179.5C108 177.843 106.657 176.5 105 176.5Z" fill="#E5A259"/><path d="M256.5 176.5H222C220.343 176.5 219 177.843 219 179.5V191.5C219 193.157 220.343 194.5 222 194.5H256.5C258.157 194.5 259.5 193.157 259.5 191.5V179.5C259.5 177.843 258.157 176.5 256.5 176.5Z" fill="#E5A259"/><path d="M114 187H63C61.3431 187 60 188.343 60 190V212.5C60 214.157 61.3431 215.5 63 215.5H114C115.657 215.5 117 214.157 117 212.5V190C117 188.343 115.657 187 114 187Z" fill="#A56644"/><path d="M264 187H213C211.343 187 210 188.343 210 190V212.5C210 214.157 211.343 215.5 213 215.5H264C265.657 215.5 267 214.157 267 212.5V190C267 188.343 265.657 187 264 187Z" fill="#A56644"/><path d="M164.25 97V137.257" stroke="#FFD300" stroke-width="9" stroke-linecap="round" stroke-linejoin="round"/><path d="M200.25 91.5183V137.257" stroke="#FFD300" stroke-width="9" stroke-linecap="round" stroke-linejoin="round"/><path d="M278.25 91.5183V137.257" stroke="#FFD300" stroke-width="9" stroke-linecap="round" stroke-linejoin="round"/><path d="M48.75 91.5183V137.257" stroke="#FFD300" stroke-width="9" stroke-linecap="round" stroke-linejoin="round"/><path d="M128.25 91.5183V137.257" stroke="#FFD300" stroke-width="9" stroke-linecap="round" stroke-linejoin="round"/><path d="M290.25 211H36.75C33.0221 211 30 214.022 30 217.75C30 221.478 33.0221 224.5 36.75 224.5H290.25C293.978 224.5 297 221.478 297 217.75C297 214.022 293.978 211 290.25 211Z" fill="#7AF0F2"/><path d="M267 218.5H60C54.201 218.5 49.5 223.201 49.5 229C49.5 234.799 54.201 239.5 60 239.5H267C272.799 239.5 277.5 234.799 277.5 229C277.5 223.201 272.799 218.5 267 218.5Z" fill="#7AF0F2"/><path d="M227.25 229H101.25C93.3799 229 87 235.38 87 243.25C87 251.12 93.3799 257.5 101.25 257.5H227.25C235.12 257.5 241.5 251.12 241.5 243.25C241.5 235.38 235.12 229 227.25 229Z" fill="#7AF0F2"/></svg>