<svg width="114" height="114" viewBox="0 0 114 114" fill="none" xmlns="http://www.w3.org/2000/svg"><mask id="mask0" mask-type="alpha" maskUnits="userSpaceOnUse" x="1" y="2" width="111" height="110"><path fill-rule="evenodd" clip-rule="evenodd" d="M29.7549 2H83.8819C99.3342 2 111.818 14.4841 111.818 29.9365V84.0635C111.818 99.5159 99.3342 112 83.8819 112H29.7549C14.3025 112 1.81836 99.5159 1.81836 84.0635V29.9365C1.81836 14.4841 14.3025 2 29.7549 2Z" fill="white"/></mask><g mask="url(#mask0)"><g clip-path="url(#clip0)"><mask id="mask1" mask-type="alpha" maskUnits="userSpaceOnUse" x="1" y="1" width="111" height="111"><path d="M26.9612 1.99951H86.6755C100.562 1.99951 111.818 13.2563 111.818 27.1424V86.8567C111.818 100.743 100.562 112 86.6755 112H26.9612C13.0752 112 1.81836 100.743 1.81836 86.8567V27.1424C1.81836 13.2563 13.0752 1.99951 26.9612 1.99951Z" fill="white"/></mask><g mask="url(#mask1)"><path d="M1.81885 1.99951H111.819V112H1.81885V1.99951Z" fill="white"/><path d="M116.664 76.1611L56.6947 102.783C53.4803 104.21 52.5974 108.349 54.951 110.957C66.2593 123.486 84.6491 127.441 100.492 120.407C116.336 113.374 125.693 97.1007 123.922 80.3377C123.554 76.8493 119.878 74.7338 116.664 76.1611Z" fill="#58CC02"/><path d="M-3.02586 76.1611L56.9433 102.783C60.1576 104.21 61.0405 108.349 58.6869 110.957C47.3786 123.486 28.9891 127.441 13.1454 120.407C-2.69832 113.374 -12.0556 97.1007 -10.2842 80.3377C-9.91547 76.8493 -6.2402 74.7338 -3.02586 76.1611Z" fill="#58CC02"/><path fill-rule="evenodd" clip-rule="evenodd" d="M35.6459 53.5284C46.0221 57.914 53.1316 60.1068 56.9743 60.1068C60.7916 60.1068 67.7881 57.9429 77.9633 53.615C84.7625 50.7232 92.6188 53.8906 95.5109 60.6899C96.2152 62.3457 96.5781 64.1267 96.5781 65.9261V107.128C96.5781 129.087 78.7769 146.888 56.8186 146.888C34.86 146.888 17.0591 129.087 17.0591 107.128V65.8513C17.0591 58.4626 23.0488 52.4729 30.4374 52.4729C32.2267 52.4729 33.9977 52.8318 35.6459 53.5284Z" fill="#58CC02"/><path d="M37.8702 59.7417L49.9139 72.8069C50.5458 73.5072 50.3105 74.6179 49.4492 75.0002C45.3111 76.8373 40.3738 75.8011 37.2594 72.3488C34.145 68.8973 33.6282 63.8887 35.8916 59.9737C36.3628 59.1589 37.2384 59.0413 37.8702 59.7417Z" fill="#8EE000"/><path fill-rule="evenodd" clip-rule="evenodd" d="M48.3133 71.121C52.6818 75.5424 60.3853 75.5424 65.2512 71.121C70.117 66.6998 64.5198 96.8704 64.5198 96.7927C64.5198 96.7557 61.919 96.7449 56.7175 96.7604C54.6259 96.7671 49.1812 96.7927 49.1812 96.7927C49.1812 96.7927 43.9448 66.6998 48.3133 71.121Z" fill="#8EE000"/><path d="M31.2509 62.8481L43.0389 75.9136C43.6708 76.6138 43.4355 77.7239 42.5742 78.1062C38.4361 79.944 33.4988 78.9071 30.3844 75.4555C27.27 72.0039 26.7532 66.9951 29.0167 63.0801C29.4877 62.2653 30.6191 62.1478 31.2509 62.8481Z" fill="#8EE000"/><path fill-rule="evenodd" clip-rule="evenodd" d="M36.8168 66.4856H37.1478C45.8455 66.4856 52.8963 73.5363 52.8963 82.2337V90.3154C52.8963 99.0127 45.8455 106.063 37.1478 106.063H36.8168C28.1192 106.063 21.0684 99.0127 21.0684 90.3154V82.2337C21.0684 73.5363 28.1192 66.4856 36.8168 66.4856Z" fill="#8EE000"/><path d="M75.5993 59.7319L63.8115 72.7969C63.1797 73.4971 63.415 74.6078 64.2763 74.9901C68.4144 76.8273 73.3517 75.791 76.4659 72.3394C79.5808 68.8875 80.0973 63.8789 77.8335 59.9639C77.3627 59.1491 76.2312 59.0316 75.5993 59.7319Z" fill="#8EE000"/><path d="M82.4648 62.8481L70.6767 75.9136C70.0449 76.6138 70.2803 77.7239 71.1416 78.1062C75.28 79.944 80.2172 78.9071 83.3314 75.4555C86.4456 72.0039 86.9628 66.9951 84.6991 63.0801C84.2282 62.2653 83.0967 62.1478 82.4648 62.8481Z" fill="#8EE000"/><path fill-rule="evenodd" clip-rule="evenodd" d="M76.4506 66.4856H76.7853C85.482 66.4856 92.5321 73.5357 92.5321 82.2324V90.3167C92.5321 99.0134 85.482 106.063 76.7853 106.063H76.5143C67.8661 106.063 60.8363 99.0892 60.7682 90.4408L60.7046 82.3558C60.6362 73.6597 67.6305 66.5545 76.3265 66.4861C76.3681 66.4856 76.4097 66.4856 76.4506 66.4856Z" fill="#8EE000"/><path fill-rule="evenodd" clip-rule="evenodd" d="M37.6069 72.0947C43.6386 72.0947 48.5282 76.9844 48.5282 83.0163V89.5324C48.5282 95.5643 43.6386 100.454 37.6069 100.454C31.5752 100.454 26.6855 95.5643 26.6855 89.5324V83.0163C26.6855 76.9844 31.5752 72.0947 37.6069 72.0947Z" fill="white"/><path fill-rule="evenodd" clip-rule="evenodd" d="M75.9874 72.0947C82.0193 72.0947 86.9089 76.9844 86.9089 83.0163V89.5324C86.9089 95.5643 82.0193 100.454 75.9874 100.454C69.9555 100.454 65.0659 95.5643 65.0659 89.5324V83.0163C65.0659 76.9844 69.9555 72.0947 75.9874 72.0947Z" fill="white"/><path fill-rule="evenodd" clip-rule="evenodd" d="M39.3244 78.3281C42.1679 78.3281 44.4731 80.6328 44.4731 83.4767V89.0726C44.4731 91.9165 42.1679 94.2218 39.3244 94.2218C36.4809 94.2218 34.1758 91.9165 34.1758 89.0726V83.4767C34.1758 80.6328 36.4809 78.3281 39.3244 78.3281Z" fill="#4B4B4B"/><path fill-rule="evenodd" clip-rule="evenodd" d="M56.9098 90.4817C59.9884 90.4817 62.4841 92.9775 62.4841 96.0561V103.373C62.4841 106.452 59.9884 108.947 56.9098 108.947C53.8312 108.947 51.3354 106.452 51.3354 103.373V96.0561C51.3354 92.9775 53.8312 90.4817 56.9098 90.4817Z" fill="#F49000"/><path fill-rule="evenodd" clip-rule="evenodd" d="M56.91 90.4817C59.3019 90.4817 61.2409 92.4208 61.2409 94.8126V101.499C61.2409 103.891 59.3019 105.83 56.91 105.83C54.5181 105.83 52.5791 103.891 52.5791 101.499V94.8126C52.5791 92.4208 54.5181 90.4817 56.91 90.4817Z" fill="#B86D00"/><path d="M49.1519 96.4029C49.8127 92.9922 53.0872 90.4817 56.9529 90.4817C60.5726 90.4817 63.7924 93.0519 64.4417 96.4029V96.7141C64.4417 96.9569 64.3632 97.0481 64.1297 97.026L56.9529 98.2729C56.8089 98.2736 56.7847 98.2736 56.6408 98.2729L49.4639 97.026C49.2304 97.0481 49.1519 96.9569 49.1519 96.7141V96.4029Z" fill="#FFC200"/><path d="M55.4936 94.0103C54.9218 94.2383 54.2731 93.96 54.0447 93.3885C53.8163 92.8164 54.0946 92.1678 54.6664 91.939C55.9978 91.4071 57.4199 91.4071 58.8831 91.9229C59.4638 92.1282 59.7686 92.7647 59.5639 93.3456C59.3592 93.9257 58.7225 94.2309 58.1418 94.0264C57.1736 93.685 56.3075 93.685 55.4936 94.0103Z" fill="#FFDE00"/><path fill-rule="evenodd" clip-rule="evenodd" d="M74.2706 78.3281C77.1145 78.3281 79.4198 80.6328 79.4198 83.4767V89.0726C79.4198 91.9165 77.1145 94.2218 74.2706 94.2218C71.4274 94.2218 69.1221 91.9165 69.1221 89.0726V83.4767C69.1221 80.6328 71.4274 78.3281 74.2706 78.3281Z" fill="#4B4B4B"/><path fill-rule="evenodd" clip-rule="evenodd" d="M35.0228 84.6942C36.87 84.6942 38.3674 83.1991 38.3674 81.3553C38.3674 79.5114 36.87 78.0164 35.0228 78.0164C33.1756 78.0164 31.6782 79.5114 31.6782 81.3553C31.6782 83.1991 33.1756 84.6942 35.0228 84.6942Z" fill="white"/><path fill-rule="evenodd" clip-rule="evenodd" d="M69.3463 84.6942C71.1935 84.6942 72.6912 83.1991 72.6912 81.3553C72.6912 79.5114 71.1935 78.0164 69.3463 78.0164C67.4994 78.0164 66.002 79.5114 66.002 81.3553C66.002 83.1991 67.4994 84.6942 69.3463 84.6942Z" fill="white"/><path d="M23.6875 98.7085V89.3484C32.7514 89.3484 40.6247 92.15 47.0982 97.7258L40.9898 104.817C36.2507 100.735 30.553 98.7085 23.6875 98.7085Z" fill="#8EE000"/><path d="M89.9115 98.7085V89.3484C80.8479 89.3484 72.9748 92.15 66.501 97.7258L72.6093 104.817C77.3487 100.735 83.0465 98.7085 89.9115 98.7085Z" fill="#8EE000"/><mask id="mask2" mask-type="alpha" maskUnits="userSpaceOnUse" x="8" y="18" width="32" height="31"><path d="M8.69385 18.6804H39.4328V48.3292H8.69385V18.6804Z" fill="white"/></mask><g mask="url(#mask2)"><path fill-rule="evenodd" clip-rule="evenodd" d="M29.285 33.5049C29.285 36.7376 27.1687 38.995 24.1384 38.995C21.0786 38.995 18.9418 36.7376 18.9418 33.5049C18.9418 30.2725 21.0786 28.0151 24.1384 28.0151C27.1687 28.0151 29.285 30.2725 29.285 33.5049ZM36.8138 19.1809C35.2558 19.1809 33.4736 20.2093 32.0475 21.8759C29.8179 19.9067 26.4269 18.6804 23.036 18.6804C14.7255 18.6804 8.69385 24.915 8.69385 33.5049C8.69385 42.0948 14.7255 48.3292 23.036 48.3292C26.4273 48.3292 29.8179 47.1033 32.0475 45.1341C33.4736 46.8005 35.2558 47.8292 36.8138 47.8292C38.4049 47.8292 39.4328 46.7042 39.4328 44.9632V22.0468C39.4328 20.3059 38.4049 19.1809 36.8138 19.1809Z" fill="#1CB0F6"/></g><mask id="mask3" mask-type="alpha" maskUnits="userSpaceOnUse" x="44" y="7" width="32" height="42"><path d="M44.8872 7.17212H75.6271V48.329H44.8872V7.17212Z" fill="white"/></mask><g mask="url(#mask3)"><path fill-rule="evenodd" clip-rule="evenodd" d="M65.3787 33.5047C65.3787 36.7374 63.2418 38.9948 60.1821 38.9948C57.1517 38.9948 55.0356 36.7374 55.0356 33.5047C55.0356 30.2723 57.1517 28.0149 60.1821 28.0149C63.2418 28.0149 65.3787 30.2723 65.3787 33.5047ZM61.284 18.6803C59.0696 18.6803 56.9107 19.1725 55.0356 20.0877V10.0381C55.0356 7.9251 53.7081 7.17212 52.4663 7.17212C48.8215 7.17212 44.8872 11.4052 44.8872 18.244V44.9631C44.8872 46.7041 45.9154 47.8291 47.5065 47.8291C49.0643 47.8291 50.8465 46.8004 52.2726 45.134C54.5024 47.1033 57.8928 48.3291 61.284 48.3291C69.5952 48.3291 75.6271 42.0947 75.6271 33.5048C75.6271 24.9149 69.5952 18.6803 61.284 18.6803Z" fill="#FFC800"/></g><mask id="mask4" mask-type="alpha" maskUnits="userSpaceOnUse" x="80" y="18" width="25" height="31"><path d="M80.2666 18.6804H104.943V48.3292H80.2666V18.6804Z" fill="white"/></mask><g mask="url(#mask4)"><path fill-rule="evenodd" clip-rule="evenodd" d="M96.3125 28.0151C97.8975 28.0151 98.9706 28.3037 99.917 28.5586C100.695 28.768 101.43 28.9654 102.275 28.9654C103.97 28.9654 104.943 27.9027 104.943 26.0496V23.4976C104.943 21.9478 104.535 20.8087 102.497 19.9185C100.541 19.0736 98.2731 18.6804 95.3607 18.6804C91.4913 18.6804 87.6869 20.1269 84.9222 22.6493C81.92 25.3881 80.2666 29.2436 80.2666 33.5049C80.2666 42.7842 87.8647 48.3292 95.2105 48.3292C98.3046 48.3292 100.62 47.9518 102.501 47.139C104.535 46.2509 104.943 45.1119 104.943 43.5621V41.2106C104.943 38.3977 103.217 38.0942 102.475 38.0942C101.88 38.0942 101.322 38.2373 100.676 38.4036C99.6494 38.667 98.3723 38.995 96.1623 38.995C92.6785 38.995 90.5147 36.8915 90.5147 33.5049C90.5147 30.1699 92.7905 28.0151 96.3125 28.0151Z" fill="#FF5C5C"/></g></g></g></g><path d="M83.8819 1.25H29.7549C13.8883 1.25 1.06836 14.0699 1.06836 29.9365V84.0635C1.06836 99.9301 13.8883 112.75 29.7549 112.75H83.8819C99.7485 112.75 112.568 99.9301 112.568 84.0635V29.9365C112.568 14.0699 99.7485 1.25 83.8819 1.25Z" stroke="#E5E5E5" stroke-width="1.5"/><defs><clipPath id="clip0"><rect width="110" height="110" fill="white" transform="translate(1.81836 1.99951)"/></clipPath></defs></svg>