<svg width="124" height="123" viewBox="0 0 124 123" fill="none" xmlns="http://www.w3.org/2000/svg"><g clip-path="url(#clip0)"><path d="M99.9378 101.574L96.6328 110.248C95.9357 112.079 94.6286 113.613 92.932 114.592C91.2354 115.571 89.2531 115.935 87.3194 115.623L78.1595 114.153C77.5673 114.057 76.9615 114.087 76.382 114.242C75.8024 114.397 75.2621 114.673 74.7966 115.051L67.6001 120.909C66.0812 122.143 64.1835 122.817 62.226 122.817C60.2686 122.817 58.3709 122.143 56.852 120.909L49.6555 115.046C49.19 114.668 48.6497 114.392 48.0701 114.237C47.4905 114.082 46.8848 114.052 46.2926 114.148L37.1327 115.618C35.199 115.93 33.2167 115.566 31.5201 114.587C29.8235 113.608 28.5164 112.074 27.8193 110.243L24.5218 101.574C24.3069 101.014 23.9767 100.506 23.5526 100.082C23.1285 99.6578 22.62 99.3276 22.0601 99.1127L13.391 95.8077C11.5608 95.1101 10.027 93.8029 9.04807 92.1065C8.06915 90.41 7.70499 88.4279 8.01694 86.4942L9.48947 77.3344C9.58333 76.742 9.55161 76.1365 9.39637 75.5571C9.24113 74.9778 8.96583 74.4376 8.58833 73.9715L2.73347 66.78C1.49755 65.2616 0.822754 63.3637 0.822754 61.4059C0.822754 59.4481 1.49755 57.5502 2.73347 56.0318L8.58833 48.8303C8.96583 48.3642 9.24113 47.824 9.39637 47.2446C9.55161 46.6653 9.58333 46.0598 9.48947 45.4674L8.01694 36.3075C7.70499 34.3739 8.06915 32.3918 9.04807 30.6953C10.027 28.9988 11.5608 27.6916 13.391 26.9941L22.0601 23.6966C22.62 23.4817 23.1285 23.1515 23.5526 22.7274C23.9767 22.3033 24.3069 21.7948 24.5218 21.2349L27.8268 12.5658C28.5244 10.7356 29.8315 9.20179 31.528 8.22288C33.2245 7.24396 35.2066 6.87979 37.1402 7.19175L46.3001 8.66428C46.8913 8.75704 47.4954 8.72478 48.0733 8.56956C48.6513 8.41434 49.1903 8.13962 49.6555 7.76314L56.8545 1.90827C58.3728 0.67236 60.2708 -0.00244141 62.2286 -0.00244141C64.1863 -0.00244141 66.0843 0.67236 67.6026 1.90827L74.8017 7.76314C75.2678 8.14064 75.808 8.41593 76.3873 8.57118C76.9667 8.72642 77.5722 8.75814 78.1646 8.66428L87.3244 7.19175C89.2581 6.87979 91.2402 7.24396 92.9367 8.22288C94.6331 9.20179 95.9403 10.7356 96.6378 12.5658L99.9428 21.2349C100.158 21.7948 100.488 22.3033 100.912 22.7274C101.336 23.1515 101.845 23.4817 102.405 23.6966L111.074 27.0016C112.904 27.6988 114.438 29.0059 115.417 30.7025C116.396 32.3991 116.76 34.3814 116.448 36.3151L114.978 45.4749C114.882 46.0656 114.913 46.6698 115.067 47.2479C115.221 47.8261 115.495 48.3653 115.871 48.8303L121.729 56.0293C122.963 57.5483 123.637 59.446 123.637 61.4034C123.637 63.3608 122.963 65.2585 121.729 66.7775L115.871 73.9765C115.493 74.442 115.217 74.9823 115.062 75.5618C114.907 76.1414 114.877 76.7472 114.973 77.3394L116.443 86.4993C116.755 88.433 116.391 90.4153 115.412 92.1119C114.433 93.8084 112.899 95.1155 111.069 95.8127L102.4 99.1177C101.84 99.332 101.332 99.6615 100.908 100.085C100.484 100.508 100.153 101.015 99.9378 101.574Z" fill="url(#paint0_linear)"/><path d="M85.9733 53.1806C88.2235 58.1771 88.6613 63.8017 87.2114 69.0862C85.7614 74.3708 82.5144 78.9844 78.0293 82.1328C73.5442 85.2812 68.1018 86.7674 62.639 86.3356C57.1763 85.9037 52.035 83.5807 48.1004 79.7666C39.4792 82.8753 29.9166 80.2071 24.2757 73.2472C23.9986 72.9048 23.8065 72.5016 23.7151 72.0707C23.6237 71.6398 23.6355 71.1934 23.7497 70.7679C23.8638 70.3425 24.077 69.9501 24.3719 69.6229C24.6667 69.2956 25.0348 69.0428 25.4461 68.885L36.8689 64.4976L31.0795 56.2339C30.3265 55.159 29.8514 53.9144 29.6966 52.6112C29.5417 51.3079 29.7119 49.9867 30.192 48.7653C30.6721 47.5438 31.4471 46.4603 32.4479 45.6113C33.4487 44.7624 34.6441 44.1744 35.9275 43.8999C42.4469 42.5104 46.6421 41.1629 48.5132 39.8574C50.3843 38.5518 53.039 35.1277 56.4774 29.5849C57.1708 28.4692 58.1303 27.5429 59.2698 26.8892C60.4092 26.2355 61.6931 25.8747 63.0063 25.8393C64.3195 25.8039 65.621 26.0949 66.794 26.6862C67.9671 27.2775 68.9751 28.1507 69.7276 29.2275L75.4617 37.4182L83.3655 28.3263C83.6544 27.9936 84.018 27.734 84.4265 27.5688C84.8351 27.4035 85.2769 27.3374 85.7159 27.3757C86.1549 27.414 86.5786 27.5556 86.9523 27.7891C87.3261 28.0226 87.6392 28.3413 87.8661 28.719C92.4398 36.3434 91.7224 46.1527 85.9733 53.1806ZM65.5341 92.2365L59.4149 91.3706C58.392 91.2439 57.3604 91.5248 56.5429 92.1524C55.7254 92.7801 55.1876 93.7042 55.0458 94.7251C54.9039 95.746 55.1694 96.7817 55.7849 97.6084C56.4004 98.4352 57.3164 98.9866 58.3351 99.1435L64.4567 100.007C65.4796 100.134 66.5113 99.8527 67.3288 99.2251C68.1463 98.5974 68.6841 97.6733 68.8259 96.6524C68.9677 95.6316 68.7022 94.5958 68.0868 93.7691C67.4713 92.9424 66.5553 92.3909 65.5366 92.234L65.5341 92.2365ZM97.683 64.8123C97.1793 64.7045 96.6594 64.6972 96.1529 64.7907C95.6464 64.8843 95.1633 65.0769 94.7314 65.3575C94.2995 65.6381 93.9272 66.0012 93.6359 66.426C93.3446 66.8508 93.14 67.3288 93.0338 67.8328L91.7526 73.874C91.5677 74.8786 91.7817 75.9157 92.3493 76.765C92.9169 77.6143 93.7933 78.2088 94.7923 78.4221C95.7913 78.6355 96.8341 78.4509 97.6991 77.9076C98.5641 77.3643 99.1832 76.5051 99.4248 75.5126L100.704 69.4715C100.921 68.4531 100.725 67.3901 100.158 66.5164C99.5916 65.6426 98.7013 65.0297 97.683 64.8123Z" fill="white"/></g><defs><linearGradient id="paint0_linear" x1="20.0816" y1="19.2564" x2="104.378" y2="103.553" gradientUnits="userSpaceOnUse"><stop stop-color="#FFC100"/><stop offset="1" stop-color="#FFA300"/></linearGradient><clipPath id="clip0"><rect width="122.814" height="122.814" fill="white" transform="translate(0.818359)"/></clipPath></defs></svg>