<?xml version="1.0" encoding="utf-8"?>
<!-- Generator: Adobe Illustrator 25.0.1, SVG Export Plug-In . SVG Version: 6.00 Build 0)  -->
<svg version="1.1" id="katman_1" xmlns="http://www.w3.org/2000/svg" xmlns:xlink="http://www.w3.org/1999/xlink" x="0px" y="0px"
	 viewBox="0 0 20 20" style="enable-background:new 0 0 20 20;" xml:space="preserve">
<style type="text/css">
	.st0{fill-rule:evenodd;clip-rule:evenodd;fill:#1DA1F2;}
</style>
<path class="st0" d="M19.9,4.2c-0.7,0.3-1.5,0.5-2.3,0.6c0.8-0.5,1.5-1.3,1.8-2.2c-0.8,0.5-1.6,0.8-2.6,1c-0.7-0.8-1.8-1.3-3-1.3
	c-2.2,0-4.1,1.8-4.1,4c0,0.3,0,0.6,0.1,0.9C6.5,7,3.5,5.4,1.5,3C1.2,3.6,1,4.3,1,5c0,1.4,0.7,2.6,1.8,3.3c-0.7,0-1.3-0.2-1.8-0.5
	c0,0,0,0,0,0.1c0,1.9,1.4,3.5,3.2,3.9c-0.3,0.1-0.7,0.1-1.1,0.1c-0.3,0-0.5,0-0.8-0.1c0.5,1.6,2,2.7,3.8,2.8c-1.4,1.1-3.1,1.7-5,1.7
	c-0.3,0-0.6,0-1-0.1c1.8,1.1,3.9,1.8,6.2,1.8c7.5,0,11.5-6.1,11.5-11.3c0-0.2,0-0.3,0-0.5C18.6,5.7,19.3,5,19.9,4.2z"/>
</svg>
