<svg width="198" height="187" viewBox="0 0 198 187" fill="none" xmlns="http://www.w3.org/2000/svg"><g filter="url(#filter0_d)"><rect x="106" y="40" width="92" height="113" rx="12" transform="rotate(7.80813 106 40)" fill="white"/><path d="M118.581 134.775C120.568 135.047 122.031 134.27 122.843 132.597C123.226 131.808 123.378 131.074 123.602 129.441C123.826 127.807 123.877 127.059 123.721 126.197C123.389 124.367 122.19 123.224 120.202 122.952C118.232 122.681 116.769 123.459 115.957 125.132C115.574 125.92 115.422 126.654 115.198 128.288C114.974 129.922 114.923 130.67 115.079 131.532C115.411 133.362 116.61 134.505 118.581 134.775ZM118.773 133.377C117.459 133.197 116.798 132.386 116.607 131.278C116.498 130.697 116.506 130.012 116.714 128.496C116.921 126.98 117.098 126.318 117.36 125.788C117.842 124.773 118.697 124.169 120.011 124.349C121.341 124.532 122.002 125.343 122.193 126.45C122.302 127.032 122.294 127.717 122.086 129.233C121.878 130.749 121.702 131.411 121.44 131.941C120.958 132.956 120.103 133.559 118.773 133.377ZM125.907 135.677C126.311 135.732 126.653 135.487 126.718 135.016L127.254 131.108C127.439 129.761 128.066 128.817 129.278 128.983C129.615 129.03 129.89 129.153 130.177 129.313C130.288 129.379 130.418 129.431 130.519 129.445C130.94 129.503 131.268 129.239 131.323 128.835C131.356 128.599 131.268 128.364 131.002 128.173C130.754 127.985 130.402 127.799 129.846 127.723C128.852 127.587 128.042 127.99 127.606 128.668L127.589 128.666L127.64 128.295C127.704 127.824 127.44 127.496 127.036 127.441C126.632 127.385 126.289 127.63 126.225 128.101L125.303 134.822C125.239 135.293 125.503 135.621 125.907 135.677ZM138.279 136.275L138.064 135.714C137.979 135.462 137.968 135.289 138.026 134.867L138.423 131.971C138.696 129.983 137.826 128.817 135.67 128.522C134.559 128.369 133.679 128.523 133.128 128.791C132.874 128.893 132.743 129.098 132.713 129.317C132.662 129.688 132.865 129.956 133.236 130.007C133.354 130.023 133.512 129.993 133.656 129.944C134.071 129.795 134.739 129.681 135.362 129.766C136.777 129.96 137.211 130.672 137.057 131.8L137.003 132.188C136.994 132.255 136.956 132.284 136.888 132.275L135.053 132.023C133.048 131.748 131.79 132.417 131.561 134.084C131.351 135.617 132.273 136.652 134.075 136.9C135.254 137.061 136.06 136.811 136.683 136.279L136.699 136.281L136.95 136.831C137.086 137.089 137.272 137.235 137.525 137.27C137.946 137.327 138.288 137.083 138.341 136.695C138.36 136.561 138.33 136.402 138.279 136.275ZM134.444 135.715C133.366 135.567 132.817 135.063 132.932 134.22C133.057 133.311 133.736 132.992 135.117 133.182L136.734 133.403C136.801 133.413 136.83 133.451 136.821 133.518L136.699 134.411C136.562 135.405 135.69 135.886 134.444 135.715ZM140.501 136.906C140.436 137.377 140.7 137.705 141.104 137.761C141.509 137.816 141.851 137.571 141.916 137.1L142.505 132.805C142.669 131.609 143.533 130.938 144.627 131.088C145.84 131.255 146.326 132.093 146.148 133.39L145.57 137.601C145.506 138.072 145.77 138.4 146.174 138.456C146.578 138.511 146.921 138.266 146.985 137.795L147.609 133.247C147.861 131.412 146.98 130.073 145.229 129.832C144.134 129.682 143.295 130.048 142.822 130.618L142.805 130.615L142.837 130.379C142.902 129.908 142.638 129.58 142.234 129.525C141.83 129.469 141.487 129.714 141.422 130.185L140.501 136.906ZM155.289 132.293C154.985 131.633 154.373 131.086 153.177 130.922C151.83 130.738 150.768 131.347 150.191 132.555C149.927 133.102 149.76 133.697 149.637 134.589C149.515 135.482 149.516 136.1 149.623 136.698C149.854 138.017 150.712 138.889 152.06 139.074C153.239 139.236 153.965 138.941 154.462 138.322L154.479 138.325L154.359 139.201C154.146 140.75 153.301 141.286 152.004 141.108C151.414 141.027 150.886 140.749 150.478 140.35C150.311 140.19 150.137 140.08 149.935 140.052C149.564 140.002 149.256 140.251 149.205 140.622C149.184 140.773 149.228 140.951 149.345 141.104C149.761 141.693 150.712 142.27 151.773 142.415C154.013 142.722 155.459 141.685 155.79 139.277L156.748 132.287C156.813 131.815 156.549 131.488 156.145 131.432C155.74 131.377 155.398 131.621 155.333 132.093L155.306 132.295L155.289 132.293ZM152.608 137.828C151.732 137.708 151.234 137.211 151.063 136.329C150.982 135.923 150.993 135.462 151.086 134.788C151.176 134.131 151.289 133.683 151.477 133.314C151.878 132.512 152.492 132.167 153.368 132.287C154.244 132.407 154.742 132.904 154.912 133.786C154.994 134.191 154.982 134.653 154.892 135.31C154.8 135.984 154.687 136.431 154.499 136.8C154.097 137.603 153.484 137.948 152.608 137.828ZM161.507 140.661C162.753 140.832 163.778 140.492 164.556 139.947C164.71 139.831 164.817 139.674 164.845 139.472C164.891 139.135 164.673 138.848 164.336 138.801C164.168 138.778 164.007 138.825 163.82 138.936C163.151 139.308 162.58 139.47 161.788 139.361C160.795 139.225 160.118 138.652 159.942 137.684C159.885 137.35 159.888 137.076 159.941 136.689C159.951 136.621 159.989 136.592 160.056 136.602L164.789 137.25C165.126 137.297 165.375 137.108 165.419 136.788C165.527 135.996 165.528 135.361 165.417 134.797C165.169 133.356 164.13 132.424 162.546 132.207C161.014 131.997 159.745 132.612 159.099 133.948C158.861 134.43 158.698 134.991 158.567 135.951C158.435 136.911 158.458 137.498 158.557 138.026C158.818 139.503 159.84 140.433 161.507 140.661ZM160.211 135.473C160.144 135.464 160.115 135.426 160.124 135.358C160.175 134.988 160.248 134.706 160.366 134.465C160.747 133.693 161.483 133.331 162.392 133.456C163.302 133.58 163.913 134.128 164.072 134.973C164.121 135.237 164.116 135.528 164.065 135.899C164.056 135.966 164.017 135.995 163.95 135.986L160.211 135.473Z" fill="#4B4B4B"/><path d="M155.784 112.327C168.807 114.113 180.82 104.942 182.616 91.8442C184.412 78.7461 175.311 66.6804 162.289 64.8946C149.266 63.1088 137.253 72.2792 135.457 85.3773C133.661 98.4753 142.762 110.541 155.784 112.327Z" fill="#FF9600"/><path d="M171.476 96.2514C173.075 96.4707 174.551 95.3445 174.771 93.7358C174.992 92.1272 173.874 90.6454 172.275 90.426C170.675 90.2067 169.2 91.333 168.979 92.9416C168.759 94.5502 169.876 96.0321 171.476 96.2514Z" fill="#F58000"/><path d="M164.051 105.831C166.45 106.16 168.663 104.47 168.994 102.057C169.325 99.6445 167.648 97.4218 165.249 97.0928C162.85 96.7638 160.637 98.4532 160.306 100.866C159.975 103.279 161.652 105.502 164.051 105.831Z" fill="#F58000"/><path d="M112.009 81.1787C110.297 93.6608 118.965 105.158 131.369 106.859C143.773 108.56 155.215 99.8203 156.927 87.3382L112.009 81.1787V81.1787Z" fill="white"/><path d="M112.009 81.1787C110.297 93.6608 118.965 105.158 131.369 106.859C143.773 108.56 155.215 99.8203 156.927 87.3382L112.009 81.1787V81.1787Z" fill="#FFC800"/><path fill-rule="evenodd" clip-rule="evenodd" d="M118.433 93.8944L119.819 95.9456L135.239 85.4144L133.852 83.3632L118.433 93.8944Z" fill="white"/><path fill-rule="evenodd" clip-rule="evenodd" d="M147.438 97.8724L145.551 99.4748L133.535 85.1815L135.423 83.5792L147.438 97.8724Z" fill="white"/><path fill-rule="evenodd" clip-rule="evenodd" d="M132.993 104.612L130.547 104.276L133.091 85.7263L135.537 86.0618L132.993 104.612Z" fill="white"/><path d="M115.611 81.6724C114.174 92.1527 121.452 101.806 131.866 103.234C142.281 104.663 151.888 97.3244 153.325 86.8441" stroke="white" stroke-width="3"/><path d="M112.009 81.1787C110.297 93.6608 118.965 105.158 131.369 106.859C143.773 108.56 155.215 99.8203 156.927 87.3382" stroke="#FF9600" stroke-width="4"/><rect x="106.855" y="41.1266" width="90" height="111" rx="11" transform="rotate(7.80813 106.855 41.1266)" stroke="#E5E5E5" stroke-width="2"/></g><g filter="url(#filter1_d)"><rect y="53" width="93" height="114" rx="12" transform="rotate(-12.8413 0 53)" fill="#DDF4FF"/><path d="M46.3966 137.182C46.4911 137.596 46.8665 137.789 47.2477 137.703C47.5792 137.627 47.8028 137.384 47.8395 137.01L48.107 134.665L52.7314 133.61L53.9888 135.608C54.1841 135.93 54.4909 136.051 54.8224 135.976C55.2036 135.889 55.4581 135.552 55.3636 135.138C55.3372 135.022 55.2776 134.913 55.2217 134.821L49.6197 126.003C49.3165 125.514 48.9336 125.287 48.4363 125.401C47.9391 125.514 47.7253 125.877 47.6639 126.449L46.3874 136.835C46.3769 136.942 46.3702 137.066 46.3966 137.182ZM48.2778 133.196L48.9336 127.659L48.9833 127.647L51.9409 132.361L48.2778 133.196ZM58.8078 138.206C59.2056 138.115 59.4398 137.765 59.334 137.301L58.6048 134.102L58.6213 134.099C59.1258 134.629 59.9239 134.918 61.1173 134.646C62.4599 134.34 63.2678 133.371 63.3988 132.033C63.4541 131.358 63.3934 130.709 63.1894 129.814C62.9816 128.903 62.7551 128.292 62.4126 127.707C61.7149 126.558 60.567 126.036 59.2244 126.342C58.0476 126.61 57.4497 127.199 57.212 127.916L57.1955 127.92L57.1463 127.705C57.0406 127.24 56.678 127.027 56.2802 127.117C55.8824 127.208 55.6483 127.558 55.7541 128.022L57.9417 137.619C58.0475 138.083 58.4101 138.297 58.8078 138.206ZM60.4911 133.428C59.5961 133.632 58.8974 133.321 58.4508 132.586C58.2034 132.189 58.0569 131.699 57.902 131.019C57.7433 130.323 57.6631 129.819 57.7141 129.354C57.7979 128.498 58.2926 127.914 59.1876 127.71C60.0661 127.51 60.7648 127.821 61.2113 128.556C61.4587 128.953 61.6052 129.443 61.7639 130.139C61.9188 130.819 61.999 131.324 61.9481 131.788C61.8643 132.645 61.3696 133.228 60.4911 133.428ZM67.7265 136.173C68.1243 136.082 68.3584 135.732 68.2526 135.268L67.5234 132.069L67.54 132.066C68.0445 132.596 68.8426 132.885 70.036 132.613C71.3786 132.306 72.1864 131.338 72.3174 130C72.3728 129.325 72.3121 128.676 72.108 127.781C71.9002 126.87 71.6738 126.259 71.3313 125.674C70.6336 124.525 69.4856 124.003 68.1431 124.309C66.9663 124.577 66.3684 125.166 66.1307 125.883L66.1141 125.887L66.065 125.671C65.9592 125.207 65.5967 124.994 65.1989 125.084C64.8011 125.175 64.5669 125.525 64.6727 125.989L66.8604 135.586C66.9662 136.05 67.3287 136.264 67.7265 136.173ZM69.4098 131.395C68.5148 131.599 67.816 131.288 67.3695 130.553C67.1221 130.156 66.9756 129.666 66.8207 128.986C66.662 128.29 66.5818 127.786 66.6327 127.321C66.7166 126.465 67.2113 125.881 68.1063 125.677C68.9848 125.477 69.6835 125.788 70.13 126.523C70.3774 126.92 70.5239 127.41 70.6826 128.106C70.8375 128.786 70.9177 129.29 70.8668 129.755C70.7829 130.611 70.2883 131.195 69.4098 131.395ZM77.3242 130.847C77.7883 130.741 77.9765 130.419 77.8896 130.038C77.8027 129.656 77.4936 129.448 77.0958 129.539C76.5489 129.663 76.2767 129.464 76.1256 128.801L74.1911 120.314C74.0853 119.85 73.7227 119.637 73.325 119.727C72.9272 119.818 72.693 120.168 72.7988 120.632L74.7522 129.201C75.0771 130.626 75.7496 131.205 77.1751 130.881L77.3242 130.847ZM82.9044 129.679C84.1309 129.4 84.9699 128.72 85.5059 127.935C85.6083 127.773 85.6534 127.588 85.608 127.389C85.5325 127.057 85.2272 126.866 84.8957 126.941C84.7299 126.979 84.5959 127.079 84.4603 127.25C83.9657 127.833 83.4882 128.186 82.7091 128.364C81.7312 128.587 80.8961 128.289 80.39 127.445C80.2188 127.153 80.1252 126.895 80.0383 126.514C80.0231 126.448 80.0487 126.407 80.115 126.392L84.7726 125.33C85.1041 125.255 85.2704 124.99 85.1986 124.675C85.021 123.896 84.7984 123.302 84.4951 122.813C83.7544 121.552 82.4535 121.046 80.8955 121.402C79.3872 121.745 78.4173 122.769 78.2834 124.246C78.231 124.781 78.2766 125.364 78.4919 126.309C78.7073 127.253 78.9352 127.794 79.2143 128.254C79.9792 129.544 81.2635 130.053 82.9044 129.679ZM79.8619 125.281C79.7956 125.296 79.7549 125.271 79.7398 125.205C79.6567 124.84 79.6256 124.551 79.6518 124.283C79.7356 123.427 80.2966 122.828 81.1916 122.624C82.0867 122.42 82.8517 122.717 83.2982 123.452C83.4378 123.682 83.5352 123.956 83.6183 124.32C83.6334 124.387 83.6078 124.427 83.5415 124.443L79.8619 125.281Z" fill="#1899D6"/><path fill-rule="evenodd" clip-rule="evenodd" d="M50.6768 61.6306C51.8616 61.3605 53.0414 62.1039 53.312 63.291C53.3249 63.3475 53.3355 63.4045 53.3439 63.4618L55.236 76.3783C55.3247 76.9841 54.9337 77.556 54.338 77.6918C53.7423 77.8276 53.1421 77.4816 52.9595 76.8973L49.0668 64.4368C48.7038 63.2746 49.3496 62.0385 50.5094 61.6758C50.5646 61.6585 50.6204 61.6434 50.6768 61.6306Z" fill="#743D00"/><path fill-rule="evenodd" clip-rule="evenodd" d="M33.4864 77.9314L33.5309 77.9007C40.6724 71.0338 52.0227 71.2686 58.8871 78.4253L66.1293 85.9508C72.996 93.11 72.7739 104.485 65.6333 111.358C65.6312 111.36 65.6291 111.362 65.627 111.364L65.5765 111.388C58.435 118.255 47.0846 118.02 40.2203 110.864L32.978 103.338C26.1114 96.1791 26.3334 84.804 33.474 77.9312C33.4761 77.9292 33.4782 77.9272 33.4803 77.9251L33.4864 77.9314Z" fill="#FF4B4B"/><path fill-rule="evenodd" clip-rule="evenodd" d="M73.2509 68.867L73.1975 68.8586C63.7855 65.7651 53.6582 70.8958 50.5736 80.3204L47.3083 90.2411C44.2226 99.669 49.3526 109.824 58.7663 112.923C58.7691 112.924 58.7718 112.925 58.7746 112.926L58.8307 112.926C68.2427 116.02 78.37 110.889 81.4546 101.464L84.7199 91.5435C87.8056 82.1157 82.6756 71.9606 73.2619 68.8614C73.2591 68.8605 73.2564 68.8596 73.2536 68.8587L73.2509 68.867Z" fill="#FF4B4B"/><path d="M44.7407 94.9967C48.2371 94.1997 50.4246 90.715 49.6264 87.2136C48.8282 83.7121 45.3467 81.5198 41.8502 82.3168C38.3538 83.1138 36.1663 86.5985 36.9645 90.0999C37.7627 93.6014 41.2442 95.7937 44.7407 94.9967Z" fill="#FF7878"/><path fill-rule="evenodd" clip-rule="evenodd" d="M69.1238 49.9733C68.1891 49.3381 60.9391 51.7258 58.0076 56.1754C55.0761 60.625 55.4398 68.3982 56.2621 68.957C57.0844 69.5159 64.4319 67.0947 67.4764 62.6102C70.521 58.1258 70.0586 50.6086 69.1238 49.9733Z" fill="#5ABB1A"/><path d="M75.2904 95.5915C77.2717 95.1398 78.5113 93.1652 78.059 91.181C77.6067 89.1969 75.6338 87.9546 73.6525 88.4062C71.6711 88.8579 70.4316 90.8325 70.8839 92.8166C71.3362 94.8008 73.309 96.0431 75.2904 95.5915Z" fill="#EA2B2B"/><path d="M71.3631 102.711C72.7617 102.393 73.6367 100.999 73.3174 99.5982C72.9981 98.1977 71.6055 97.3207 70.2069 97.6395C68.8083 97.9583 67.9334 99.3522 68.2526 100.753C68.5719 102.153 69.9645 103.03 71.3631 102.711Z" fill="#EA2B2B"/><rect x="1.19724" y="53.7527" width="91" height="112" rx="11" transform="rotate(-12.8413 1.19724 53.7527)" stroke="#84D8FF" stroke-width="2"/></g><path d="M110.203 14.1985L104.425 8.4217C103.362 7.35827 101.638 7.35827 100.574 8.4217L94.7974 14.1985C93.7342 15.2619 93.7342 16.9861 94.7974 18.0496L100.574 23.8263C101.638 24.8898 103.362 24.8898 104.425 23.8263L110.203 18.0496C111.266 16.9861 111.266 15.2619 110.203 14.1985Z" fill="#DDF4FF"/><path d="M94.7319 175.66L88.9543 169.883C87.8911 168.82 86.1675 168.82 85.1032 169.883L79.3267 175.66C78.2635 176.723 78.2635 178.447 79.3267 179.511L85.1032 185.288C86.1675 186.351 87.8911 186.351 88.9543 185.288L94.7319 179.511C95.7951 178.447 95.7951 176.723 94.7319 175.66Z" fill="#DDF4FF"/><path d="M82.4366 4.64074L78.359 0.563018C77.6088 -0.187673 76.3914 -0.187673 75.6407 0.563018L71.563 4.64074C70.8123 5.39143 70.8123 6.60849 71.563 7.35918L75.6407 11.4369C76.3914 12.1876 77.6088 12.1876 78.359 11.4369L82.4366 7.35918C83.1878 6.60849 83.1878 5.39143 82.4366 4.64074Z" fill="#84D8FF"/><defs><filter id="filter0_d" x="90.6482" y="40" width="106.499" height="128.451" filterUnits="userSpaceOnUse" color-interpolation-filters="sRGB"><feFlood flood-opacity="0" result="BackgroundImageFix"/><feColorMatrix in="SourceAlpha" type="matrix" values="0 0 0 0 0 0 0 0 0 0 0 0 0 0 0 0 0 0 127 0"/><feOffset dy="4"/><feColorMatrix type="matrix" values="0 0 0 0 0.898039 0 0 0 0 0.898039 0 0 0 0 0.898039 0 0 0 1 0"/><feBlend mode="normal" in2="BackgroundImageFix" result="effect1_dropShadow"/><feBlend mode="normal" in="SourceGraphic" in2="effect1_dropShadow" result="shape"/></filter><filter id="filter1_d" x="0" y="32.3306" width="116.011" height="135.818" filterUnits="userSpaceOnUse" color-interpolation-filters="sRGB"><feFlood flood-opacity="0" result="BackgroundImageFix"/><feColorMatrix in="SourceAlpha" type="matrix" values="0 0 0 0 0 0 0 0 0 0 0 0 0 0 0 0 0 0 127 0"/><feOffset dy="4"/><feColorMatrix type="matrix" values="0 0 0 0 0.517795 0 0 0 0 0.845164 0 0 0 0 1 0 0 0 1 0"/><feBlend mode="normal" in2="BackgroundImageFix" result="effect1_dropShadow"/><feBlend mode="normal" in="SourceGraphic" in2="effect1_dropShadow" result="shape"/></filter></defs></svg>