<svg width="492" height="317" viewBox="0 0 492 317" fill="none" xmlns="http://www.w3.org/2000/svg"><path fill-rule="evenodd" clip-rule="evenodd" d="M156.396 190.118C182.543 179.042 187.232 152.656 184.357 137.927L208.052 133.302C212.274 154.929 206.037 195.31 165.812 212.348L156.396 190.118Z" fill="#FFAADE"/><path d="M192.474 141.815C201.633 143.997 210.827 138.34 213.009 129.181C215.191 120.021 209.534 110.827 200.374 108.646C191.215 106.464 182.021 112.121 179.839 121.28C177.657 130.44 183.314 139.634 192.474 141.815Z" fill="#DA8E74"/><path fill-rule="evenodd" clip-rule="evenodd" d="M175.127 94.2251C178.488 92.5952 182.533 93.9982 184.163 97.3587C185.23 99.5597 187.152 104.45 188.866 109.535C190.545 114.516 192.334 120.577 192.768 124.907C193.141 128.623 190.431 131.938 186.715 132.311C182.999 132.684 179.684 129.974 179.311 126.258C179.045 123.614 177.735 118.857 176.049 113.854C174.399 108.956 172.69 104.697 171.994 103.261C170.364 99.9004 171.767 95.8549 175.127 94.2251Z" fill="#DA8E74"/><path d="M175.585 134.688C174.734 130.748 177.239 126.865 181.178 126.014L186.572 124.85C190.512 123.999 194.395 126.504 195.246 130.443C196.097 134.383 193.592 138.266 189.653 139.117L184.258 140.282C180.319 141.132 176.435 138.628 175.585 134.688Z" fill="#DA8E74"/><path d="M118.864 136.806C134.283 132.093 142.961 115.773 138.249 100.355C133.605 85.1636 117.695 76.5149 102.481 80.7699L102.478 80.7621C91.5835 84.0923 84.8873 81.6716 77.4716 72.0256L77.4676 72.0658C68.3282 61.1285 53.2055 56.1139 38.7182 60.5421C19.4135 66.4428 8.5474 86.8758 14.448 106.181C15.1735 108.554 16.1187 110.8 17.2546 112.903C7.37376 119.778 2.58575 132.48 6.29351 144.61C10.8914 159.653 26.8132 168.12 41.8559 163.522C56.2034 159.137 64.5692 144.45 61.3221 130.049C70.2156 126.988 77.2084 120.795 81.4379 113.094C81.6498 114.538 81.9729 115.983 82.4123 117.421C87.1252 132.84 103.445 141.519 118.864 136.806Z" fill="#3D3D3D"/><path fill-rule="evenodd" clip-rule="evenodd" d="M63.8047 99.7902C31.9262 115.76 19.0294 154.548 34.9989 186.427C39.31 195.033 40.5569 200.31 40.8421 203.341C41.0559 205.617 40.9214 208.025 39.1387 211.97C24.4579 244.463 38.8971 282.704 71.3898 297.384C103.882 312.065 142.123 297.626 156.804 265.134C180.302 213.125 168.996 165.635 150.441 128.596C134.472 96.7175 95.6832 83.8208 63.8047 99.7902Z" fill="#DA8E74"/><path d="M167.01 234.233L38.2738 213.983C25.0617 246.028 39.5679 283.008 71.3926 297.388C103.884 312.068 142.126 297.63 156.806 265.137C161.551 254.635 164.877 244.317 167.01 234.233Z" fill="#2BE69C"/><path d="M168.533 227.834L107.657 240.373L37.9218 220.047C37.5751 220.725 37.1756 221.436 36.7162 222.184C36.5962 222.38 36.4777 222.575 36.36 222.772C35.3232 225.873 34.5361 229.007 33.9893 232.153C66.106 256.445 123.385 269.805 162.683 253.675C165.532 244.899 167.436 236.276 168.533 227.834Z" fill="#A56644"/><path d="M100.284 244.586L92.5596 242.98L88.4307 262.843L96.1551 264.449L100.284 244.586Z" fill="#2BE69C"/><path d="M169.909 198.548C158.566 208.585 121.379 218.517 39.0995 195.976C40.2236 199.257 40.6828 201.648 40.8418 203.341C41.0557 205.616 40.9211 208.024 39.1385 211.97C37.4166 215.781 36.0952 222.058 35.157 225.978C71.0688 240.857 128.561 257.712 166.161 240.366C169.421 226.776 170.487 211.206 169.909 198.548Z" fill="#FFAADE"/><path d="M156.388 269.113C164.362 267.696 169.738 260.03 168.395 251.992C167.053 243.954 159.5 238.587 151.525 240.004C143.551 241.422 138.175 249.087 139.518 257.125C140.861 265.163 148.414 270.531 156.388 269.113Z" fill="#FF9600"/><path d="M140.066 200.007L155.676 202.043L145.629 219.667C144.609 221.454 142.244 221.924 140.619 220.664L123.817 207.629L140.066 200.007Z" fill="#DA8E74"/><path d="M96.9074 159.558L139.296 161.066L117.607 191.708C115.249 195.038 111.497 197.107 107.422 197.322C98.9885 197.768 92.2684 190.364 93.5259 182.013L96.9074 159.558Z" fill="#B82C2C"/><path d="M117.398 191.994C115.031 195.157 111.379 197.113 107.422 197.322C98.9885 197.768 92.2684 190.365 93.5259 182.014L93.5294 181.991C95.6245 180.865 97.995 180.172 100.528 180.038C108.399 179.623 115.283 184.741 117.398 191.994Z" fill="#EF4949"/><path d="M145.69 175.591C152.484 169.425 152.805 158.852 146.397 152.285L134.511 140.104C130.959 136.463 126.052 134.856 121.304 135.383C119.471 134.718 117.493 134.395 115.464 134.471L95.9643 135.21C85.0301 135.624 77.2783 146.038 80.0194 156.631C82.3242 165.539 91.2503 171.037 100.242 169.089L106.106 167.819C113.672 166.513 115.37 166.893 120.437 171.92L122.92 174.602C128.954 181.119 139.112 181.56 145.69 175.591Z" fill="#3D3D3D"/><path d="M15.54 190.71L80.7886 179.064L95.4714 261.326L30.2229 272.972L15.54 190.71Z" fill="#AEE5FF"/><path d="M7.9718 214.565C7.69033 213.479 7.69786 212.339 7.99366 211.257L9.94686 204.112C10.5543 201.89 12.3043 200.163 14.5341 199.585L71.4522 184.83C72.3686 184.592 73.304 185.142 73.5416 186.059L90.64 252.014C90.8775 252.93 90.3273 253.866 89.4109 254.103L81.5689 256.136L84.3877 267.01C84.6253 267.926 84.075 268.862 83.1586 269.099L32.1761 282.316C28.7397 283.207 25.2318 281.143 24.3409 277.707L7.9718 214.565Z" fill="#FF4B4B"/><path d="M15.4151 201.571C13.8999 201.964 12.7195 203.152 12.3359 204.669L10.9352 210.21C10.616 211.473 11.7664 212.616 13.0272 212.289L57.3548 200.798L65.0112 198.881C65.9242 198.652 66.8506 199.202 67.0868 200.113L83.5435 263.594C82.4745 259.47 84.9508 255.26 89.0745 254.191L72.0836 188.651L72.0051 188.671L71.575 187.012L15.4151 201.571Z" fill="white"/><path d="M46.4309 227.515L53.7094 216.614C55.2778 214.265 58.4534 213.632 60.8024 215.201C63.1514 216.769 63.7841 219.945 62.2157 222.294L54.9372 233.194L46.4309 227.515Z" fill="#DA8E74"/><path d="M3.9447 247.833C2.21941 240.499 6.76564 233.156 14.099 231.431L50.6766 222.825C58.01 221.1 65.3535 225.646 67.0788 232.979C68.804 240.313 64.2578 247.656 56.9245 249.381L20.3468 257.987C13.0135 259.712 5.67 255.166 3.9447 247.833Z" fill="#FFAADE"/><path d="M49.3672 223.13L63.2921 219.855C70.6241 218.13 77.9658 222.676 79.6904 230.008C81.4149 237.34 76.8693 244.681 69.5374 246.406L55.6124 249.681L49.3672 223.13Z" fill="#DA8E74"/><path d="M170.559 251.754C180.443 249.997 187.107 240.496 185.442 230.532C183.778 220.569 174.416 213.916 164.532 215.673C154.647 217.43 147.984 226.931 149.648 236.895C151.313 246.859 160.675 253.511 170.559 251.754Z" fill="#FF9600"/><path d="M113.747 290.707C108.399 276.515 116.86 260.097 131.822 257.438L178.077 249.216C187.221 247.59 196.329 251.742 200 260.249C204.703 271.144 210.748 288.142 214.375 309.854L120.182 309.854C118.288 303.308 116.026 296.755 113.747 290.707Z" fill="#FFC6B7"/><path d="M184.611 294.631C184.517 292.873 183.014 291.524 181.256 291.618C179.497 291.713 178.148 293.215 178.243 294.973L178.751 304.44C178.846 306.199 180.348 307.548 182.106 307.454C183.865 307.359 185.214 305.857 185.12 304.098L184.611 294.631Z" fill="#CC4C4C"/><path d="M158.531 262.226L158.265 262.3C150.324 264.515 145.607 272.767 147.731 280.733C149.855 288.699 158.014 293.362 165.955 291.148L166.222 291.074C174.163 288.859 178.879 280.607 176.755 272.641C174.631 264.675 166.472 260.012 158.531 262.226Z" fill="white"/><path d="M196.837 266.158C195.094 259.618 188.395 255.79 181.875 257.608C175.356 259.426 171.484 266.202 173.227 272.741L174.136 276.15C175.88 282.69 182.578 286.518 189.098 284.7C195.617 282.882 199.489 276.107 197.746 269.567L196.837 266.158Z" fill="white"/><path d="M192.557 267.698C191.243 262.769 186.194 259.884 181.28 261.254C176.366 262.624 173.448 267.731 174.762 272.66L174.913 273.226C176.227 278.155 181.276 281.04 186.19 279.67C191.104 278.3 194.022 273.193 192.708 268.264L192.557 267.698Z" fill="#3D3D3D"/><path d="M184.895 283.064C186.297 285.087 185.796 287.887 183.776 289.318C181.756 290.75 178.983 290.27 177.581 288.248C176.179 286.225 176.433 279.049 176.585 278.941C176.737 278.833 183.493 281.041 184.895 283.064Z" fill="#EE9583"/><path d="M175.841 272.317C174.464 267.151 169.173 264.127 164.022 265.563C158.872 266.999 155.814 272.351 157.191 277.518L157.349 278.11C158.726 283.277 164.018 286.3 169.168 284.864C174.318 283.428 177.377 278.076 175.999 272.91L175.841 272.317Z" fill="#3D3D3D"/><path d="M147.974 284.241L175.088 289.627L170.944 310.11L143.83 304.724L147.974 284.241Z" fill="#FFC6B7"/><path d="M131.822 257.437C116.86 260.097 108.399 276.515 113.747 290.707C114.164 291.815 114.581 292.939 114.995 294.078L120.838 293.163C131.061 291.562 138.052 281.977 136.451 271.753L134.145 257.024L131.822 257.437Z" fill="#FFB67A"/><path d="M115.318 302.232C119.699 301.453 122.652 297.242 121.914 292.826C121.177 288.411 117.028 285.463 112.647 286.241C108.267 287.02 105.314 291.231 106.051 295.646C106.789 300.062 110.938 303.01 115.318 302.232Z" fill="#FFC6B7"/><path fill-rule="evenodd" clip-rule="evenodd" d="M172.446 274.935C173.356 275.087 173.97 275.948 173.818 276.858C173.559 278.405 172.832 280.158 170.915 281.422C170.145 281.93 169.109 281.717 168.601 280.947C168.093 280.177 168.306 279.141 169.076 278.633C170.01 278.017 170.371 277.216 170.523 276.306C170.675 275.396 171.536 274.782 172.446 274.935Z" fill="white"/><path fill-rule="evenodd" clip-rule="evenodd" d="M189.097 270.184C190.007 270.336 190.621 271.197 190.469 272.107C190.209 273.654 189.483 275.407 187.566 276.671C186.796 277.179 185.76 276.966 185.252 276.196C184.744 275.426 184.957 274.39 185.727 273.882C186.661 273.266 187.021 272.465 187.174 271.555C187.326 270.645 188.187 270.031 189.097 270.184Z" fill="white"/><path d="M158.088 275.484C160.508 275.726 162.665 273.96 162.907 271.54C163.148 269.12 161.382 266.962 158.962 266.721C156.542 266.479 154.385 268.246 154.143 270.666C153.902 273.086 155.668 275.243 158.088 275.484Z" fill="white"/><path d="M174.497 269.31C174.812 266.267 176.62 263.51 179.351 262.032C180.921 262.832 181.92 264.536 181.735 266.395C181.494 268.815 179.336 270.581 176.916 270.34C175.988 270.247 175.157 269.873 174.497 269.31Z" fill="white"/><path fill-rule="evenodd" clip-rule="evenodd" d="M63.7036 192.195C63.803 192.578 63.5733 192.969 63.1905 193.068L26.4345 202.614C26.0518 202.714 25.6609 202.484 25.5615 202.101C25.4621 201.719 25.6918 201.328 26.0745 201.228L62.8306 191.682C63.2133 191.583 63.6042 191.812 63.7036 192.195Z" fill="#E0E0E0"/><path fill-rule="evenodd" clip-rule="evenodd" d="M49.383 199.117C49.4824 199.5 49.2527 199.89 48.8699 199.99L21.3029 207.149C20.9202 207.249 20.5293 207.019 20.4299 206.636C20.3305 206.254 20.5602 205.863 20.9429 205.763L48.51 198.604C48.8927 198.504 49.2836 198.734 49.383 199.117Z" fill="#E0E0E0"/><path d="M206.467 202.009C217.965 179.289 245.704 170.192 268.424 181.69C291.144 193.188 300.241 220.927 288.743 243.647C277.245 266.367 249.506 275.464 226.786 263.966C204.066 252.468 194.969 224.729 206.467 202.009Z" fill="#84D8FF"/><path d="M294.352 246.486C307.373 220.758 297.152 189.365 271.531 176.217L271.262 176.081C269.197 175.036 268.37 172.514 269.415 170.449C270.46 168.384 272.982 167.557 275.047 168.602L275.422 168.791C305.096 184.062 316.925 220.447 301.832 250.272C293.243 267.244 277.778 278.449 260.538 282.214V292.331H268.145C270.246 292.331 271.949 294.034 271.949 296.135C271.949 298.236 270.246 299.939 268.145 299.939H241.518C239.417 299.939 237.714 298.236 237.714 296.135C237.714 294.034 239.417 292.331 241.518 292.331H249.126V283.597C239.523 283.846 229.725 281.816 220.536 277.244L220.161 277.056C218.096 276.011 217.269 273.489 218.314 271.423C219.359 269.358 221.881 268.531 223.946 269.576C249.764 282.642 281.286 272.304 294.352 246.486Z" fill="#FF9600"/><path d="M251.027 268.814C242.927 269.424 234.562 267.901 226.786 263.966C223.048 262.075 219.68 259.744 216.711 257.068C216.401 254.836 216.748 252.49 217.849 250.33C220.71 244.714 227.582 242.482 233.198 245.343L246.755 252.251C252.37 255.112 254.603 261.984 251.742 267.599C251.526 268.024 251.287 268.429 251.027 268.814Z" fill="#58CC02"/><path d="M292.953 214.491C294.722 224.07 293.481 234.285 288.743 243.647C285.912 249.24 282.097 254.008 277.615 257.846L273.666 255.834C262.435 250.111 257.97 236.367 263.692 225.136C269.173 214.379 282.011 209.829 292.953 214.491Z" fill="#58CC02"/><path d="M258.463 178.008C264.919 181.386 267.467 189.34 264.151 195.848C260.813 202.399 252.796 205.004 246.244 201.666L245.801 201.44C245.634 204.767 244.779 208.114 243.169 211.274C237.055 223.273 222.371 228.044 210.371 221.93C207.045 220.236 204.274 217.882 202.137 215.11C202.894 210.661 204.322 206.247 206.467 202.009C216.326 182.528 238.126 173.062 258.463 178.008Z" fill="#58CC02"/><path fill-rule="evenodd" clip-rule="evenodd" d="M121.856 123.055C122.749 122.781 123.694 123.282 123.968 124.174C125.017 127.589 128.114 130.097 130.563 130.539C131.721 130.748 132.487 130.471 132.958 129.931C133.485 129.327 134.004 127.992 133.713 125.339C133.611 124.411 134.28 123.577 135.208 123.475C136.136 123.373 136.971 124.042 137.073 124.97C137.412 128.058 136.923 130.528 135.505 132.153C134.031 133.843 131.916 134.218 129.962 133.865C126.187 133.184 122.132 129.708 120.737 125.167C120.463 124.274 120.964 123.329 121.856 123.055Z" fill="#9E4D31"/><path d="M129.009 147.16C133.407 146.438 136.386 142.287 135.664 137.889C134.942 133.491 130.791 130.512 126.393 131.234C121.995 131.956 119.016 136.107 119.738 140.505C120.46 144.903 124.611 147.882 129.009 147.16Z" fill="#DA8E74"/><path fill-rule="evenodd" clip-rule="evenodd" d="M97.2722 122.842C98.1581 122.548 99.1146 123.027 99.4086 123.913C100.532 127.296 103.865 129.867 106.597 130.334C107.913 130.559 108.805 130.261 109.334 129.696C109.891 129.1 110.437 127.796 110.12 125.168C110.009 124.241 110.669 123.399 111.596 123.288C112.523 123.176 113.364 123.836 113.476 124.763C113.852 127.879 113.325 130.377 111.802 132.005C110.25 133.664 108.053 134.011 106.028 133.666C102.078 132.991 97.7215 129.559 96.2008 124.978C95.9067 124.092 96.3864 123.136 97.2722 122.842Z" fill="#9E4D31"/><path d="M31.3441 177.571C46.2171 172.204 56.1955 157.321 54.6883 140.841C53.8095 131.232 49.1898 122.865 42.3984 117.048C28.9851 133.747 24.4366 156.52 31.3441 177.571Z" fill="#3D3D3D"/><path d="M69.03 97.4517L72.0712 120.571C74.0015 135.245 63.6706 148.705 48.9966 150.636C41.7118 151.594 34.7261 149.53 29.3018 145.414C32.9513 126.357 45.1163 109.152 63.8051 99.7897C65.5281 98.9266 67.2713 98.1478 69.03 97.4517Z" fill="#3D3D3D"/><path d="M67.7192 100.93L71.3428 90.8531L43.314 91.5724L20.0679 136.69L23.4388 161.038L33.1072 166.466L33.8597 154.416L34.0478 143.135L49.2382 139.981L65.0312 126.979L67.7192 100.93Z" fill="#3D3D3D"/><path fill-rule="evenodd" clip-rule="evenodd" d="M15.1089 173.904L10.6822 169.366C9.46335 168.116 9.48836 166.115 10.7381 164.896L49.6609 126.934C49.8176 126.781 50.009 126.668 50.2188 126.606L61.7073 123.194C62.0644 123.088 62.4399 123.291 62.546 123.649C62.5848 123.779 62.5831 123.919 62.541 124.049L58.8429 135.448C58.7753 135.657 58.6582 135.845 58.5016 135.998L19.5787 173.96C18.329 175.179 16.3278 175.154 15.1089 173.904Z" fill="#FFD300"/><path fill-rule="evenodd" clip-rule="evenodd" d="M15.1094 173.904L10.6827 169.365C9.46384 168.115 9.48884 166.114 10.7386 164.895L17.3861 158.411L26.2268 167.476L19.5792 173.959C18.3295 175.178 16.3283 175.153 15.1094 173.904Z" fill="#F5A4A4"/><path fill-rule="evenodd" clip-rule="evenodd" d="M15.1091 173.903L10.6824 169.365C10.1205 168.788 9.82292 168.053 9.78784 167.307L9.92139 167.177C10.7226 166.396 12.0056 166.412 12.787 167.213L17.3123 171.853C18.0937 172.654 18.0777 173.937 17.2765 174.719L17.1433 174.849C16.3991 174.795 15.671 174.479 15.1091 173.903Z" fill="#F39393"/><path fill-rule="evenodd" clip-rule="evenodd" d="M22.8428 170.087L14.6901 161.728C14.2267 161.253 14.3227 160.408 14.9045 159.84C15.4864 159.273 16.3338 159.198 16.7973 159.673L24.95 168.032C25.4134 168.507 25.3174 169.353 24.7356 169.92C24.1537 170.488 23.3063 170.563 22.8428 170.087Z" fill="#C4C4C4"/><path fill-rule="evenodd" clip-rule="evenodd" d="M61.3825 127.62L58.1079 124.262L61.7075 123.193C62.0646 123.087 62.4401 123.29 62.5461 123.647C62.585 123.778 62.5832 123.918 62.5411 124.048L61.3825 127.62Z" fill="#606060"/><path fill-rule="evenodd" clip-rule="evenodd" d="M58.7032 135.747L49.9158 126.738C50.0107 126.681 50.1125 126.637 50.219 126.605L58.9093 124.024L61.6405 126.824L58.8431 135.448C58.8088 135.553 58.7617 135.654 58.7032 135.747Z" fill="#FFD8B4"/><path d="M28.1004 156.804C27.7869 156.483 27.7819 155.975 28.0808 155.647L28.1153 155.612L48.6405 135.593C48.9739 135.268 49.5077 135.275 49.8328 135.608C50.1463 135.93 50.1513 136.437 49.8524 136.765L49.8179 136.8L29.2927 156.819C28.9593 157.144 28.4255 157.137 28.1004 156.804Z" fill="#FFC000"/><path fill-rule="evenodd" clip-rule="evenodd" d="M26.5728 166.449L18.4201 158.09C17.9567 157.615 18.0526 156.77 18.6345 156.202C19.2164 155.635 20.0638 155.56 20.5273 156.035L28.6799 164.394C29.1434 164.869 29.0474 165.714 28.4655 166.282C27.8837 166.849 27.0363 166.924 26.5728 166.449Z" fill="#C4C4C4"/><path fill-rule="evenodd" clip-rule="evenodd" d="M24.708 168.267L16.5554 159.908C16.0919 159.433 16.1879 158.588 16.7698 158.02C17.3516 157.453 18.1991 157.378 18.6625 157.853L26.8152 166.212C27.2787 166.687 27.1827 167.533 26.6008 168.1C26.0189 168.668 25.1715 168.742 24.708 168.267Z" fill="#C4C4C4"/><path d="M16.4942 163.09C16.1691 162.756 16.1757 162.223 16.5091 161.897C16.8305 161.584 17.3384 161.579 17.6658 161.878L17.7014 161.912L19.1122 163.359C19.4374 163.692 19.4307 164.226 19.0973 164.551C18.7759 164.865 18.268 164.87 17.9406 164.571L17.905 164.536L16.4942 163.09Z" fill="#DFDFDF"/><path d="M18.3592 161.27C18.034 160.936 18.0407 160.402 18.3741 160.077C18.6955 159.764 19.2034 159.759 19.5308 160.058L19.5664 160.092L20.9772 161.539C21.3023 161.872 21.2957 162.406 20.9623 162.731C20.6409 163.045 20.133 163.05 19.8056 162.751L19.77 162.716L18.3592 161.27Z" fill="#DFDFDF"/><path d="M20.2242 159.452C19.899 159.118 19.9057 158.584 20.2391 158.259C20.5605 157.946 21.0684 157.941 21.3958 158.24L21.4314 158.274L22.8422 159.721C23.1673 160.054 23.1607 160.588 22.8273 160.913C22.5058 161.226 21.998 161.231 21.6706 160.933L21.635 160.898L20.2242 159.452Z" fill="#DFDFDF"/><path d="M43.5717 162.514C49.0102 163.369 54.1125 159.654 54.968 154.216C55.8235 148.777 52.1082 143.675 46.6697 142.819C41.2312 141.964 36.1289 145.679 35.2734 151.118C34.4179 156.556 38.1332 161.659 43.5717 162.514Z" fill="#DA8E74"/><path fill-rule="evenodd" clip-rule="evenodd" d="M284.294 133.968L294.709 115.408L315.107 126.855L301.462 151.169C297.16 158.835 287.597 161.771 279.735 157.84L261.132 148.538L271.592 127.617L284.294 133.968Z" fill="#1CB0F6"/><path d="M245.597 134.617C245.597 126.708 252.009 120.296 259.918 120.296C267.827 120.296 274.238 126.708 274.238 134.617C274.238 142.526 267.827 148.937 259.918 148.937C252.009 148.937 245.597 142.526 245.597 134.617Z" fill="#E18E70"/><path fill-rule="evenodd" clip-rule="evenodd" d="M245.239 154.307C242.273 154.307 239.869 151.903 239.869 148.937C239.869 141.026 242.012 132.721 248.173 126.714C250.297 124.644 253.697 124.687 255.767 126.81C257.838 128.934 257.795 132.334 255.671 134.404C252.285 137.705 250.609 142.767 250.609 148.937C250.609 151.903 248.205 154.307 245.239 154.307Z" fill="#E18E70"/><path d="M381.357 191.07C398.105 176.724 400.092 151.563 385.795 134.873C371.498 118.183 346.331 116.284 329.583 130.63C312.835 144.977 310.848 170.137 325.145 186.827C339.442 203.518 364.609 205.417 381.357 191.07Z" fill="#FFB7E3"/><path d="M373.596 192.973C371.379 191.546 370.738 188.592 372.165 186.375L389.086 160.083C390.512 157.866 393.466 157.226 395.683 158.652L433.616 183.065C442.484 188.772 445.046 200.587 439.339 209.454L437.918 211.662C432.211 220.53 420.396 223.092 411.529 217.385L373.596 192.973Z" fill="#FFB7E3"/><path d="M445.798 219.126C440.333 228.144 428.591 231.024 419.573 225.559L417.327 224.198C408.309 218.732 405.429 206.99 410.895 197.972L434.276 159.395C435.642 157.14 438.578 156.42 440.832 157.787L467.571 173.992C469.826 175.359 470.546 178.294 469.179 180.549L445.798 219.126Z" fill="#FFB7E3"/><path d="M323.797 218.143C325.851 193.799 346.21 175.086 370.64 175.086C392.449 175.086 411.394 190.086 416.396 211.313L434.139 286.614C434.509 288.184 433.318 289.688 431.706 289.688H320.482C319.018 289.688 317.867 288.436 317.99 286.977L323.797 218.143Z" fill="#A570FF"/><path d="M360.429 245.452L392.174 251.194L439.296 284.297C446.225 289.164 442.781 300.057 434.314 300.057H318.516C310.395 300.057 306.734 289.89 312.99 284.712L360.429 245.452Z" fill="#593F86"/><path d="M325.792 298.109C325.792 297.582 326.219 297.155 326.747 297.155H403.6C404.127 297.155 404.555 297.582 404.555 298.109V299.303C404.555 299.83 404.127 300.257 403.6 300.257H326.747C326.219 300.257 325.792 299.83 325.792 299.303V298.109Z" fill="white"/><path d="M330.805 209.291C335.911 189.509 354.942 176.62 375.206 179.221C395.54 181.83 410.723 199.214 410.573 219.714L410.338 251.945C410.252 263.694 399.913 272.724 388.259 271.229L339.194 264.931C327.504 263.431 319.777 252.021 322.722 240.61L330.805 209.291Z" fill="#FFC6B7"/><path d="M399.841 225.943C400.812 220.974 405.628 217.732 410.597 218.704L413.869 219.343C418.839 220.314 422.08 225.13 421.109 230.099C420.138 235.069 415.322 238.31 410.353 237.339L407.081 236.7C402.111 235.728 398.87 230.913 399.841 225.943Z" fill="#FFC6B7"/><path d="M412.957 219.433C412.75 219.379 412.542 219.322 412.335 219.262L381.08 210.333C365.578 205.904 356.514 189.903 360.586 174.386C364.924 173.903 369.39 174.019 373.877 174.797C395.903 178.62 412.101 197.325 412.957 219.433Z" fill="#A570FF"/><path d="M372.904 225.595C373.737 218.741 379.953 213.978 386.788 214.957L397.142 216.44C397.825 216.538 398.312 217.173 398.229 217.858L396.691 230.511C395.858 237.365 389.642 242.128 382.807 241.149L377.404 240.375C373.986 239.886 371.554 236.711 371.97 233.284L372.904 225.595Z" fill="white"/><path d="M396.179 237.935C387.173 235.233 375.154 240.341 370.271 243.232L397.613 253.517C400.887 249.449 405.185 240.638 396.179 237.935Z" fill="#FFC6B7"/><path fill-rule="evenodd" clip-rule="evenodd" d="M364.481 231.791C365.195 231.21 365.303 230.16 364.722 229.446C361.612 225.624 355.821 222.155 347.37 221.917C346.45 221.892 345.683 222.617 345.657 223.537C345.631 224.457 346.356 225.224 347.276 225.25C354.828 225.462 359.681 228.534 362.136 231.55C362.717 232.265 363.767 232.372 364.481 231.791Z" fill="#C9705E"/><path d="M369.047 240.988C367.772 243.346 364.851 244.237 362.523 242.978C360.195 241.719 359.341 238.787 360.616 236.429C361.891 234.071 368.889 230.786 369.065 230.881C369.24 230.976 370.322 238.63 369.047 240.988Z" fill="#EE9583"/><path d="M377.415 223.033C377.758 220.434 380.143 218.605 382.742 218.948C385.341 219.291 387.17 221.676 386.827 224.275L386.621 225.837C386.278 228.436 383.893 230.265 381.294 229.922C378.695 229.579 376.866 227.194 377.209 224.595L377.415 223.033Z" fill="#3D3D3D"/><path d="M397.492 223.936C393.263 222.85 388.389 221.853 384.231 221.67C377.621 221.378 374.595 222.133 373.729 222.41C375.793 217.334 381.075 214.138 386.79 214.956L397.144 216.439C397.828 216.537 398.314 217.172 398.231 217.858L397.492 223.936Z" fill="#A570FF"/><path d="M323.346 226.359C323.847 220.766 325.474 215.331 328.128 210.382L341.048 186.292L351.528 179.83L366.715 178.831C366.715 178.831 359.881 191.291 359.068 200.045C355.309 240.526 358.841 262.83 360.378 270.046C360.644 271.295 359.579 272.485 358.313 272.314L319.696 267.091L323.346 226.359Z" fill="#A570FF"/><path d="M325.853 255.318L319.314 261.962L337.878 280.232L344.416 273.588L325.853 255.318Z" fill="#A7E2FF"/><path d="M330.923 263.083C330.7 262.864 330.341 262.867 330.121 263.09L327.152 266.107C326.932 266.33 326.935 266.689 327.159 266.909L346.125 285.574C346.348 285.794 346.707 285.791 346.926 285.568L349.896 282.551C350.115 282.327 350.112 281.968 349.889 281.749L330.923 263.083Z" fill="#0B6189"/><path fill-rule="evenodd" clip-rule="evenodd" d="M352.269 282.349C352.076 282.037 351.641 281.988 351.383 282.25L346.652 287.057C346.394 287.32 346.451 287.756 346.768 287.943L355.814 293.279C356.039 293.411 356.324 293.374 356.507 293.188L357.716 291.959C357.9 291.773 357.932 291.485 357.794 291.263L352.269 282.349Z" fill="#A7E2FF"/><path fill-rule="evenodd" clip-rule="evenodd" d="M349.257 280.138C349.058 279.838 348.633 279.798 348.381 280.054L347.069 281.387C346.857 281.602 346.851 281.946 347.055 282.168L355.018 290.839C355.49 291.354 356.294 290.724 355.907 290.142L349.257 280.138Z" fill="#D7F2FF"/><path d="M341.181 269.612C340.847 269.282 340.308 269.286 339.979 269.621L333.841 275.858C333.511 276.193 333.516 276.731 333.85 277.061L345.148 288.18C345.483 288.509 346.022 288.505 346.351 288.17L352.489 281.933C352.819 281.598 352.814 281.06 352.48 280.731L341.181 269.612Z" fill="#1899D6"/><path d="M340.601 271.815C340.378 271.595 340.019 271.598 339.799 271.821L338.613 273.027C338.394 273.25 338.397 273.609 338.62 273.828L348.304 283.359C348.527 283.579 348.886 283.576 349.106 283.353L350.292 282.148C350.511 281.924 350.509 281.565 350.285 281.346L340.601 271.815Z" fill="#1CB0F6"/><path d="M323.581 278.367C323.321 271.72 328.498 266.121 335.145 265.86C341.792 265.599 347.392 270.777 347.652 277.424C347.913 284.071 342.736 289.67 336.089 289.931C329.442 290.192 323.842 285.014 323.581 278.367Z" fill="#FFC6B7"/><path fill-rule="evenodd" clip-rule="evenodd" d="M334.669 270.086C334.584 267.923 336.269 266.101 338.432 266.016C341.856 265.882 344.566 266.071 347.238 267.613C348.463 268.32 349.535 269.226 350.571 270.193C351.274 270.85 352.07 271.64 352.946 272.511C353.331 272.893 353.732 273.291 354.147 273.699C355.689 275.218 355.708 277.7 354.19 279.242C352.671 280.785 350.189 280.804 348.646 279.285C348.153 278.8 347.713 278.362 347.311 277.963C346.492 277.149 345.834 276.496 345.221 275.924C344.333 275.095 343.774 274.665 343.32 274.403C342.636 274.008 341.796 273.73 338.74 273.85C336.576 273.935 334.754 272.25 334.669 270.086Z" fill="#FFC6B7"/><path d="M392.7 265.717C396.584 260.404 404.041 259.245 409.354 263.13L421.556 272.051C426.87 275.936 428.028 283.392 424.143 288.706C420.258 294.019 412.802 295.177 407.489 291.293L395.287 282.371C389.973 278.487 388.815 271.03 392.7 265.717Z" fill="#593F86"/><path d="M383.506 298.108C383.506 290.928 389.327 285.107 396.507 285.107H407.125V300.058H383.506V298.108Z" fill="#FFC6B7"/><path d="M0 302.917C0 301.274 1.33225 299.941 2.97566 299.941H472.943C474.587 299.941 475.919 301.274 475.919 302.917V313.828C475.919 315.471 474.587 316.803 472.943 316.803H2.97567C1.33226 316.803 0 315.471 0 313.828V302.917Z" fill="#CD7900"/><path d="M317.904 250.271C316.847 249.231 315.148 249.245 314.109 250.301C313.069 251.357 313.083 253.056 314.139 254.096L319.595 259.466C320.652 260.506 322.351 260.492 323.39 259.436C324.43 258.379 324.416 256.68 323.36 255.641L317.904 250.271Z" fill="#1487BD"/><path d="M322.618 251.342C322.283 251.013 321.745 251.017 321.415 251.352L315.277 257.589C314.948 257.924 314.952 258.462 315.287 258.791L321.137 264.549C321.472 264.878 322.01 264.874 322.34 264.539L328.478 258.302C328.807 257.967 328.803 257.429 328.468 257.099L322.618 251.342Z" fill="#1899D6"/><path fill-rule="evenodd" clip-rule="evenodd" d="M315.232 260.149C314.616 259.424 313.511 259.383 312.844 260.061C312.217 260.699 312.225 261.724 312.862 262.351L321.172 270.529C321.621 270.971 322.349 270.944 322.766 270.471C323.125 270.062 323.13 269.451 322.778 269.036L315.232 260.149Z" fill="#1899D6"/><path d="M317.671 257.175C317.114 256.626 316.218 256.633 315.669 257.191L312.702 260.206C312.153 260.763 312.16 261.66 312.718 262.208C313.275 262.756 314.171 262.749 314.719 262.192L317.687 259.176C318.235 258.619 318.228 257.723 317.671 257.175Z" fill="#1899D6"/><path d="M321.836 253.347C321.613 253.128 321.254 253.131 321.034 253.354L319.848 254.559C319.629 254.782 319.631 255.141 319.855 255.361L324.494 259.927C324.718 260.147 325.077 260.144 325.296 259.921L326.482 258.715C326.702 258.492 326.699 258.133 326.476 257.914L321.836 253.347Z" fill="#1CB0F6"/><path fill-rule="evenodd" clip-rule="evenodd" d="M386.449 243.559C387.364 243.664 388.235 244.033 389.064 244.631C389.81 245.169 389.979 246.211 389.441 246.958C388.903 247.705 387.861 247.874 387.114 247.335C386.66 247.008 386.319 246.9 386.069 246.871C385.82 246.843 385.547 246.88 385.207 247.02C384.437 247.337 383.612 248.042 382.471 249.084C382.408 249.142 382.344 249.2 382.279 249.26C381.271 250.183 380.052 251.299 378.666 252.073C377.121 252.936 375.278 253.43 373.133 252.899C372.239 252.678 371.694 251.774 371.915 250.88C372.136 249.986 373.04 249.441 373.934 249.663C375.069 249.943 376.044 249.719 377.041 249.162C378.077 248.584 379.033 247.711 380.125 246.712C380.158 246.682 380.19 246.653 380.222 246.623L380.228 246.617C381.264 245.671 382.524 244.519 383.937 243.937C384.69 243.627 385.534 243.454 386.449 243.559Z" fill="#EE9583"/><path d="M309.085 125.224L348.181 121.706C354.12 121.172 359.542 125.105 360.877 130.916L351.107 146.435C342.983 159.34 323.755 157.983 317.522 144.066L309.085 125.224Z" fill="#FF86D0"/><path fill-rule="evenodd" clip-rule="evenodd" d="M142.646 106.491C143.893 109.291 142.634 112.572 139.834 113.819C137.196 114.994 134.443 115.9 131.277 115.831C128.146 115.762 125.219 114.753 122.153 113.251C119.4 111.902 118.262 108.578 119.61 105.825C120.959 103.072 124.283 101.934 127.036 103.283C129.427 104.454 130.681 104.715 131.521 104.733C132.326 104.751 133.335 104.562 135.317 103.679C138.117 102.432 141.398 103.691 142.646 106.491Z" fill="#3D3D3D"/><path d="M298.103 117.179C295.228 109.816 300.177 101.742 308.043 100.963L336.18 98.1749C341.011 97.6963 345.65 100.191 347.914 104.486L360.4 128.172L339.8 145.668C328.556 155.218 311.252 150.851 305.885 137.109L298.103 117.179Z" fill="#1CB0F6"/><path fill-rule="evenodd" clip-rule="evenodd" d="M108.807 100.821C109.248 103.854 107.147 106.671 104.114 107.112C100.594 107.624 98.8246 108.434 96.4932 110.634C94.2639 112.738 90.7513 112.636 88.6475 110.407C86.5436 108.178 86.6453 104.665 88.8746 102.561C93.0677 98.6042 97.0284 96.9254 102.516 96.1272C105.549 95.6861 108.366 97.7874 108.807 100.821Z" fill="#3D3D3D"/><path d="M282.592 100.402L318.589 78.4587C324.169 75.0577 331.446 76.7761 334.914 82.3137L342.261 94.0419L323.46 119.018C315.103 130.119 298.067 128.862 291.43 116.656L282.592 100.402Z" fill="#FFB7E3"/><path d="M334.218 94.0579C328.725 92.6854 330.214 82.1258 335.867 82.448C363.211 84.0068 379.16 61.9216 385.028 51.731C386.442 49.276 389.806 48.5161 391.998 50.3105L412.767 67.3108C414.496 68.7264 414.826 71.2024 413.337 72.8693C405.541 81.5971 379.442 105.358 334.218 94.0579Z" fill="#FFB7E3"/><path d="M236.118 59.7485C236.118 26.7503 262.993 1.13034e-06 295.991 0C328.99 -1.13034e-06 355.865 26.7503 355.865 59.7485C355.865 92.7466 328.99 119.497 295.991 119.497C262.993 119.497 236.118 92.7466 236.118 59.7485Z" fill="#FFB7E3"/><path d="M302.531 119.143C300.383 119.377 298.201 119.497 295.991 119.497C293.967 119.497 291.966 119.396 289.993 119.2C300.878 114.858 309.465 108.963 315.973 101.733C323.805 93.0326 328.365 82.7091 330.269 71.4331C330.516 69.9732 331.9 68.9896 333.359 69.2362C334.819 69.4829 335.803 70.8663 335.556 72.3262C333.491 84.5512 328.518 95.8112 319.958 105.32C315.174 110.635 309.382 115.266 302.531 119.143Z" fill="#FF9BD8"/><path fill-rule="evenodd" clip-rule="evenodd" d="M277.621 23.7562C301.671 16.8244 326.787 30.7013 333.718 54.7512C340.65 78.801 326.773 103.917 302.724 110.848C278.674 117.78 253.558 103.903 246.626 79.8535C239.694 55.8037 253.571 30.6881 277.621 23.7562Z" fill="#E18E70"/><path d="M286.688 66.5185C284.553 71.849 287.144 77.8978 292.475 80.029C295.989 81.4338 299.816 80.7856 302.628 78.6538L302.627 78.703L302.849 78.4803C303.421 78.0236 303.949 77.501 304.419 76.9201L305.807 75.5648C307.164 74.2536 308.424 73.0748 309.589 72.0275C310.226 71.5826 310.805 71.0691 311.318 70.502C311.518 70.312 311.671 70.1307 311.777 69.9577C313.794 67.3988 314.58 63.935 313.588 60.5745C311.963 55.0695 306.181 51.9264 300.673 53.554C294.129 55.4883 289.273 60.064 286.688 66.5185Z" fill="white"/><path fill-rule="evenodd" clip-rule="evenodd" d="M294.914 63.3023C298.573 62.2478 302.393 64.3587 303.447 68.017L304.367 71.2063C305.421 74.8646 303.31 78.685 299.652 79.7394C295.994 80.7938 292.173 78.6829 291.119 75.0247L290.2 71.8354C290.162 71.7061 290.129 71.5766 290.1 71.4471C290.237 71.4251 290.373 71.3932 290.509 71.354C292.724 70.7156 294 68.3977 293.36 66.1767C293.183 65.5627 292.878 65.0204 292.483 64.5706C293.178 64.0044 293.998 63.5665 294.914 63.3023Z" fill="#3D3D3D"/><path fill-rule="evenodd" clip-rule="evenodd" d="M277.621 23.7562C286.608 21.1659 295.744 21.4813 304.025 24.1476L303.604 24.9264L303.168 25.7268C296.077 38.7003 283.157 59.5416 252.034 67.3742C249.843 67.9256 246.967 67.9572 244.845 67.7157C244.652 47.867 257.618 29.5218 277.621 23.7562Z" fill="#3D3D3D"/><path d="M281.085 68.1335C285.729 71.5099 286.755 78.0097 283.377 82.6512C281.149 85.7108 277.564 87.1991 274.049 86.8911L274.076 86.9321L273.77 86.8616C273.042 86.7795 272.317 86.618 271.61 86.3766L269.713 85.968C267.867 85.5798 266.173 85.2526 264.629 84.986C263.853 84.9486 263.09 84.8218 262.353 84.6149C262.083 84.5605 261.857 84.4884 261.675 84.3983C258.606 83.3054 256.096 80.7915 255.147 77.4186C253.593 71.8931 256.816 66.1547 262.345 64.6012C268.914 62.7559 275.461 64.045 281.085 68.1335Z" fill="white"/><path fill-rule="evenodd" clip-rule="evenodd" d="M271.843 69.8072C275.396 68.7829 279.103 70.7456 280.279 74.2122L280.376 74.5219L281.295 77.7112C282.349 81.3695 280.239 85.1899 276.58 86.2443C273.026 87.2686 269.32 85.3059 268.144 81.8393L268.047 81.5296L267.128 78.3403C267.033 78.0111 266.964 77.6807 266.919 77.351C267.644 77.5593 268.433 77.5718 269.21 77.3479C271.425 76.7095 272.702 74.3916 272.061 72.1706C271.833 71.3767 271.39 70.7027 270.814 70.1935C271.141 70.0403 271.484 69.9105 271.843 69.8072Z" fill="#3D3D3D"/><path d="M257.209 92.8283L254.238 85.4922L254.491 85.3934L254.667 85.328L254.85 85.2609L255.099 85.1728L255.362 85.0818L255.499 85.0354L255.858 84.9168L255.933 84.8926C257.194 84.486 258.614 84.0971 260.169 83.756C264.612 82.7811 269.291 82.3722 274.022 82.7884C280.874 83.3913 287.229 85.686 292.731 90.0189L292.918 90.1674L287.978 96.3514C283.725 92.9539 278.782 91.1527 273.328 90.6728C269.467 90.3331 265.573 90.6733 261.865 91.4869C260.648 91.754 259.537 92.054 258.556 92.3636L258.246 92.4631L258.026 92.536L257.82 92.6061L257.628 92.6731L257.315 92.7874L257.209 92.8283Z" fill="#E18E70"/><path fill-rule="evenodd" clip-rule="evenodd" d="M285.432 90.5954C287.822 90.7881 289.913 89.0309 290.103 86.6708C290.294 84.3106 286.417 78.3798 286.417 78.3798C286.417 78.3798 281.641 83.613 281.451 85.9731C281.26 88.3333 283.043 90.4028 285.432 90.5954Z" fill="#9E4D31"/><path d="M325.76 76.0295L323.827 65.1871L323.643 65.2217L323.466 65.2571L323.256 65.301L322.993 65.3584C322.903 65.3785 322.811 65.3996 322.716 65.4217L322.425 65.4908L322.041 65.5856L321.962 65.6057C320.631 65.9446 319.175 66.3853 317.629 66.9414C313.21 68.5307 308.893 70.7456 304.974 73.7189C299.263 78.0511 294.916 83.619 292.458 90.5196L292.377 90.7476L302.776 94.374C304.462 89.5394 307.499 85.6271 311.63 82.4931C314.583 80.2536 317.922 78.5399 321.356 77.3049C322.483 76.8995 323.539 76.576 324.491 76.3272L324.791 76.2504L325.003 76.1982L325.202 76.151L325.387 76.1087L325.633 76.0552L325.76 76.0295Z" fill="#E18E70"/><path d="M291.882 94.8425C291.208 94.1185 291.599 92.936 292.572 92.756C296.697 91.9928 300.167 89.2164 301.816 85.3591L302.704 83.2836C303.189 82.1477 304.671 81.923 305.415 82.9092C308.678 87.2337 315.195 97.2204 310.272 102.411C306.166 106.741 299.645 103.184 295.579 98.815L291.882 94.8425Z" fill="#881B1B"/><path d="M310.476 91.276C312.232 95.2804 312.97 99.5658 310.272 102.411C308.849 103.912 307.135 104.465 305.333 104.365C304.648 103.072 304.26 101.596 304.26 100.031C304.26 95.9811 306.857 92.5379 310.476 91.276Z" fill="#B12E2E"/><path d="M327.335 95.2073C325.146 89.1303 328.298 82.4299 334.375 80.2414C340.452 78.053 347.153 81.2053 349.341 87.2823L377.819 166.361L355.812 174.286L327.335 95.2073Z" fill="#1CB0F6"/><path d="M391.174 172.225C390.549 171.915 389.928 171.62 389.311 171.34C388.9 169.549 387.58 168.015 385.702 167.418C382.668 166.452 379.932 165.916 377.169 165.991C375.214 166.043 373.43 166.397 371.703 166.931C367.695 166.691 363.714 166.915 359.648 167.41C359.301 167.452 358.966 167.527 358.645 167.63C358.455 167.624 358.264 167.627 358.071 167.641C354.89 167.871 351.885 168.945 349.57 170.023C347.228 171.114 345.243 172.375 344.021 173.305C341.661 175.1 341.203 178.47 342.999 180.83C344.795 183.19 348.164 183.648 350.525 181.852C351.128 181.393 352.452 180.529 354.105 179.759C355.785 178.977 357.459 178.454 358.845 178.354C359.139 178.333 359.426 178.288 359.703 178.222C359.905 178.276 360.111 178.318 360.322 178.348C363.141 178.752 365.025 179.306 366.714 180.221C368.431 181.152 370.288 182.641 372.76 185.385C374.745 187.588 378.14 187.765 380.344 185.78C382.047 184.246 382.54 181.87 381.759 179.852C383.276 180.4 384.816 181.059 386.394 181.844C389.05 183.163 392.273 182.08 393.593 179.424C394.913 176.768 393.83 173.545 391.174 172.225Z" fill="#DA8E74"/><path fill-rule="evenodd" clip-rule="evenodd" d="M453.728 155.138C453.804 151.982 456.424 149.485 459.58 149.561L486.087 150.202C489.243 150.278 491.739 152.899 491.663 156.055C491.587 159.211 488.966 161.708 485.81 161.631L459.304 160.991C456.148 160.914 453.651 158.294 453.728 155.138Z" fill="#FF86D0"/><path opacity="0.4" d="M146.599 87.6531C145.779 86.8331 145.779 85.5036 146.599 84.6837L151.796 79.4872C152.616 78.6672 153.945 78.6672 154.765 79.4872L159.962 84.6837C160.782 85.5037 160.782 86.8331 159.962 87.6531L154.765 92.8496C153.945 93.6696 152.616 93.6696 151.796 92.8496L146.599 87.6531Z" fill="#EBF9FF"/><path d="M231.617 53.8449L260.529 53.0258C262.064 52.9987 263.182 54.4777 262.738 55.9467C260.601 63.0045 254.072 67.9674 246.506 68.1008C238.939 68.2341 232.217 63.5047 229.799 56.5271C229.296 55.0748 230.082 53.8719 231.617 53.8449Z" fill="#3D3D3D"/><path fill-rule="evenodd" clip-rule="evenodd" d="M236.507 53.7499C246.395 53.3204 249.095 47.1148 252.356 42.4161C254.53 39.2836 258.526 40.3871 264.345 45.7265L255.587 57.2352L239.444 58.7551C230.894 55.7047 229.915 54.0363 236.507 53.7499Z" fill="#3D3D3D"/><path opacity="0.5" fill-rule="evenodd" clip-rule="evenodd" d="M173.821 33.7881L177.712 46.325L186.35 50.2972C187.23 50.7015 187.615 51.7419 187.21 52.621C187.035 53.0011 186.73 53.3061 186.35 53.4808L177.712 57.4531L173.821 69.9899C173.535 70.9141 172.553 71.4307 171.629 71.1439C171.078 70.9728 170.646 70.5412 170.475 69.9899L166.584 57.4531L157.946 53.4808C157.067 53.0766 156.682 52.0362 157.086 51.1571C157.261 50.777 157.566 50.472 157.946 50.2972L166.584 46.325L170.475 33.7881C170.762 32.864 171.743 32.3473 172.667 32.6341C173.219 32.8052 173.65 33.2369 173.821 33.7881Z" fill="#EBF9FF"/><path opacity="0.25" d="M186.356 69.6674C185.741 69.0525 185.741 68.0554 186.356 67.4404L190.438 63.3574C191.053 62.7424 192.051 62.7424 192.666 63.3574L196.748 67.4404C197.363 68.0554 197.363 69.0525 196.748 69.6674L192.666 73.7504C192.051 74.3654 191.053 74.3654 190.438 73.7504L186.356 69.6674Z" fill="#EBF9FF"/></svg>