<svg width="229" height="26" viewBox="0 0 229 26" fill="none" xmlns="http://www.w3.org/2000/svg"><path d="M121.134 6.65715C121.255 6.64427 121.377 6.65798 121.493 6.69733C121.608 6.73668 121.713 6.80074 121.801 6.88513C121.89 6.96951 121.959 7.07221 122.004 7.18619C122.05 7.30017 122.07 7.42273 122.064 7.54547C122.07 7.6682 122.05 7.79076 122.004 7.90474C121.959 8.01872 121.89 8.12142 121.801 8.20581C121.713 8.29019 121.608 8.35425 121.493 8.3936C121.377 8.43295 121.255 8.44666 121.134 8.43378H119.303C119.282 8.43074 119.26 8.43267 119.24 8.43942C119.22 8.44618 119.202 8.45757 119.187 8.4727C119.172 8.48782 119.161 8.50627 119.154 8.52656C119.148 8.54686 119.146 8.56845 119.149 8.58962V18.1169C119.149 18.8468 118.684 19.2909 118.065 19.2909C117.445 19.2909 116.98 18.8468 116.98 18.1169V8.58962C116.983 8.56831 116.981 8.54668 116.974 8.52642C116.967 8.50615 116.955 8.48778 116.94 8.47272C116.925 8.45767 116.906 8.44632 116.886 8.43957C116.866 8.43282 116.845 8.43084 116.824 8.43378H116.117C115.996 8.44666 115.874 8.43295 115.759 8.3936C115.644 8.35425 115.539 8.29019 115.45 8.20581C115.362 8.12142 115.293 8.01872 115.247 7.90474C115.202 7.79076 115.181 7.6682 115.187 7.54547C115.181 7.42273 115.202 7.30017 115.247 7.18619C115.293 7.07221 115.362 6.96951 115.45 6.88513C115.539 6.80074 115.644 6.73668 115.759 6.69733C115.874 6.65798 115.996 6.64427 116.117 6.65715H116.813C116.834 6.66009 116.856 6.65811 116.876 6.65136C116.896 6.64461 116.915 6.63327 116.93 6.61821C116.945 6.60315 116.956 6.58478 116.963 6.56452C116.97 6.54425 116.973 6.52262 116.97 6.50131V5.40521C116.97 2.40261 118.208 1.4104 120.79 1.4104H120.97C121.72 1.4104 122.106 1.82858 122.106 2.42858C122.106 3.02858 121.72 3.44676 121.047 3.44676C119.447 3.44676 119.138 3.76105 119.138 5.26495V6.49352C119.135 6.51469 119.137 6.53628 119.144 6.55658C119.151 6.57687 119.162 6.59532 119.177 6.61044C119.192 6.62557 119.21 6.63696 119.23 6.64372C119.25 6.65047 119.272 6.6524 119.292 6.64936L121.134 6.65715Z" fill="#1CB0F6"/><path d="M123.588 16.0806C123.305 15.2182 123.174 14.3585 123.174 12.8961C123.174 11.4338 123.305 10.6 123.588 9.73771C124.258 7.59745 126.067 6.36108 128.469 6.36108C130.871 6.36108 132.677 7.58706 133.35 9.73771C133.632 10.6 133.763 11.4598 133.763 12.8961C133.763 14.3325 133.632 15.2182 133.35 16.0806C132.679 18.1948 130.871 19.4572 128.469 19.4572C126.067 19.4572 124.258 18.1948 123.588 16.0806ZM131.256 15.4546C131.462 14.7767 131.539 14.0961 131.539 12.8961C131.539 11.6961 131.462 11.0442 131.256 10.3637C130.842 9.11173 129.835 8.40784 128.469 8.40784C127.102 8.40784 126.092 9.11173 125.679 10.3637C125.473 11.0442 125.396 11.6961 125.396 12.8961C125.396 14.0961 125.473 14.7767 125.679 15.4546C126.092 16.7065 127.099 17.413 128.469 17.413C129.838 17.413 130.842 16.7065 131.256 15.4546Z" fill="#1CB0F6"/><path d="M136.471 18.1169V7.70128C136.471 6.97141 136.936 6.52726 137.555 6.52726C138.174 6.52726 138.639 6.97141 138.639 7.70128V8.27531H138.665C139.179 7.15323 140.317 6.37141 141.84 6.37141C142.48 6.35185 143.113 6.50517 143.675 6.81557C143.856 6.89504 144.011 7.02579 144.121 7.19211C144.231 7.35844 144.291 7.55327 144.294 7.75323C144.299 7.89874 144.275 8.04389 144.223 8.17952C144.171 8.31516 144.091 8.43835 143.989 8.54132C143.887 8.6443 143.765 8.72483 143.631 8.77784C143.497 8.83085 143.353 8.85519 143.21 8.84934C143.022 8.84052 142.839 8.79647 142.668 8.71947C142.218 8.52434 141.736 8.41852 141.247 8.40778C139.387 8.40778 138.639 9.96622 138.639 12.0623V18.1169C138.639 18.8467 138.174 19.2909 137.555 19.2909C136.936 19.2909 136.471 18.8467 136.471 18.1169Z" fill="#1CB0F6"/><path d="M151.369 18.0649C151.214 17.9684 151.086 17.8341 150.996 17.6743C150.906 17.5145 150.857 17.3344 150.855 17.1506C150.855 17.0184 150.881 16.8876 150.932 16.7659C150.983 16.6441 151.058 16.5338 151.151 16.4414C151.245 16.349 151.355 16.2764 151.477 16.2278C151.599 16.1793 151.728 16.1556 151.859 16.1584C152.118 16.1657 152.369 16.2477 152.584 16.3948C153.591 16.9948 154.639 17.4909 156.044 17.4909C157.824 17.4909 158.754 16.7117 158.754 15.6104C158.754 14.5714 158.289 14.0519 156.327 13.8363L155.042 13.7065C152.614 13.4467 151.351 12.1922 151.351 10.1818C151.351 7.80516 153.028 6.3714 155.918 6.3714C157.206 6.35266 158.477 6.66741 159.61 7.28568C160.049 7.51945 160.257 7.80516 160.257 8.19737C160.257 8.32094 160.234 8.44336 160.187 8.5576C160.14 8.67183 160.072 8.77562 159.986 8.863C159.899 8.95038 159.796 9.01962 159.683 9.06675C159.57 9.11388 159.449 9.13797 159.327 9.13763C159.058 9.12628 158.795 9.05534 158.557 8.92984C157.703 8.51076 156.769 8.28726 155.821 8.27529C154.279 8.27529 153.473 8.98178 153.473 9.99997C153.473 11.0181 154.04 11.5117 155.898 11.6961L157.182 11.8259C159.751 12.1143 160.899 13.3402 160.899 15.3766C160.899 17.8285 159.142 19.4493 155.864 19.4493C154.262 19.4574 152.694 18.9747 151.369 18.0649Z" fill="#1CB0F6"/><path d="M163.191 16.0806C162.907 15.0443 162.777 13.9711 162.806 12.8962C162.779 11.8299 162.909 10.7655 163.191 9.73771C163.89 7.57147 165.696 6.36108 168.072 6.36108C169.929 6.36108 171.247 7.16888 172.02 8.17927C172.212 8.40593 172.322 8.6917 172.331 8.98966C172.334 9.11722 172.311 9.24398 172.264 9.36232C172.216 9.48067 172.146 9.58817 172.057 9.67839C171.968 9.76861 171.861 9.83969 171.744 9.88737C171.627 9.93506 171.502 9.95836 171.376 9.95589C171.189 9.94504 171.006 9.89292 170.841 9.80318C170.676 9.71344 170.532 9.58825 170.42 9.43641C170.133 9.09414 169.772 8.82266 169.365 8.64263C168.958 8.46259 168.516 8.37874 168.072 8.39745C166.728 8.39745 165.721 9.0494 165.308 10.3533C165.086 11.178 164.991 12.032 165.025 12.8858C164.99 13.7482 165.085 14.611 165.308 15.4442C165.721 16.7429 166.728 17.4026 168.072 17.4026C168.516 17.4208 168.958 17.3367 169.364 17.1567C169.771 16.9767 170.132 16.7055 170.42 16.3637C170.532 16.2118 170.676 16.0867 170.841 15.9969C171.006 15.9072 171.189 15.855 171.376 15.8442C171.502 15.8414 171.627 15.8644 171.744 15.9117C171.861 15.9591 171.967 16.03 172.057 16.12C172.146 16.21 172.216 16.3173 172.264 16.4355C172.311 16.5538 172.334 16.6804 172.331 16.8078C172.323 17.106 172.213 17.3922 172.02 17.6182C171.25 18.6364 169.929 19.4364 168.072 19.4364C165.698 19.4494 163.9 18.2468 163.191 16.0806Z" fill="#1CB0F6"/><path d="M174.964 2.45454C174.964 1.72467 175.429 1.28052 176.048 1.28052C176.668 1.28052 177.133 1.72467 177.133 2.45454V8.06753H177.158C177.752 7.1013 178.941 6.37143 180.619 6.37143C183.303 6.37143 184.904 8.22337 184.904 11.0701V18.1169C184.904 18.8468 184.439 19.2909 183.82 19.2909C183.2 19.2909 182.735 18.8468 182.735 18.1169V11.5922C182.735 9.58182 181.831 8.40779 179.974 8.40779C178.294 8.40779 177.133 9.60779 177.133 11.4597V18.1169C177.133 18.8468 176.668 19.2909 176.048 19.2909C175.429 19.2909 174.964 18.8468 174.964 18.1169V2.45454Z" fill="#1CB0F6"/><path d="M187.925 16.0806C187.64 15.2182 187.511 14.3585 187.511 12.8961C187.511 11.4338 187.64 10.6 187.925 9.73771C188.595 7.59745 190.404 6.36108 192.806 6.36108C195.208 6.36108 197.014 7.58706 197.687 9.73771C197.969 10.6 198.101 11.4598 198.101 12.8961C198.101 14.3325 197.969 15.2182 197.687 16.0806C197.014 18.1948 195.208 19.4572 192.806 19.4572C190.404 19.4572 188.595 18.1948 187.925 16.0806ZM195.593 15.4546C195.799 14.7767 195.876 14.0961 195.876 12.8961C195.876 11.6961 195.799 11.0442 195.593 10.3637C195.18 9.11173 194.173 8.40784 192.803 8.40784C191.434 8.40784 190.43 9.11173 190.016 10.3637C189.81 11.0442 189.731 11.6961 189.731 12.8961C189.731 14.0961 189.81 14.7767 190.016 15.4546C190.43 16.7065 191.437 17.413 192.803 17.413C194.17 17.413 195.18 16.7065 195.593 15.4546Z" fill="#1CB0F6"/><path d="M200.472 16.0806C200.189 15.2182 200.058 14.3585 200.058 12.8961C200.058 11.4338 200.189 10.6 200.472 9.73771C201.142 7.59745 202.951 6.36108 205.353 6.36108C207.755 6.36108 209.561 7.58706 210.234 9.73771C210.516 10.6 210.647 11.4598 210.647 12.8961C210.647 14.3325 210.516 15.2182 210.234 16.0806C209.563 18.1948 207.755 19.4572 205.353 19.4572C202.951 19.4572 201.15 18.1948 200.472 16.0806ZM208.14 15.4546C208.346 14.7767 208.423 14.0961 208.423 12.8961C208.423 11.6961 208.346 11.0442 208.14 10.3637C207.726 9.11173 206.719 8.40784 205.353 8.40784C203.986 8.40784 202.976 9.11173 202.563 10.3637C202.357 11.0442 202.28 11.6961 202.28 12.8961C202.28 14.0961 202.357 14.7767 202.563 15.4546C202.976 16.7065 203.976 17.4026 205.353 17.4026C206.73 17.4026 207.726 16.7065 208.14 15.4546Z" fill="#1CB0F6"/><path d="M216.325 19.2909C214.103 19.2909 213.304 18.1948 213.304 15.9507V2.44417C213.304 1.7143 213.769 1.27014 214.388 1.27014C215.007 1.27014 215.472 1.7143 215.472 2.44417V15.8208C215.472 16.8598 215.808 17.2546 216.659 17.2546C216.793 17.2458 216.928 17.2661 217.054 17.3142C217.18 17.3622 217.295 17.4369 217.39 17.5333C217.485 17.6296 217.559 17.7454 217.607 17.8729C217.654 18.0005 217.674 18.1368 217.666 18.2727C217.666 18.8727 217.28 19.2909 216.556 19.2909H216.325Z" fill="#1CB0F6"/><path d="M219.474 18.0649C219.32 17.9685 219.191 17.8341 219.102 17.6743C219.012 17.5145 218.963 17.3344 218.96 17.1506C218.961 17.0183 218.988 16.8875 219.039 16.7657C219.09 16.6439 219.165 16.5336 219.258 16.4413C219.352 16.349 219.463 16.2764 219.585 16.2278C219.707 16.1793 219.837 16.1557 219.967 16.1584C220.225 16.1662 220.476 16.2482 220.689 16.3948C221.696 16.9948 222.745 17.4909 224.15 17.4909C225.93 17.4909 226.86 16.7117 226.86 15.6104C226.86 14.5714 226.395 14.0519 224.432 13.8364L223.148 13.7065C220.72 13.4467 219.456 12.1922 219.456 10.1818C219.456 7.80519 221.134 6.37142 224.024 6.37142C225.311 6.35235 226.582 6.66711 227.716 7.28571C228.155 7.51948 228.363 7.80519 228.363 8.1974C228.363 8.32097 228.339 8.44339 228.293 8.55762C228.246 8.67186 228.178 8.77565 228.091 8.86303C228.005 8.95041 227.902 9.01965 227.789 9.06678C227.676 9.11391 227.555 9.138 227.433 9.13766C227.164 9.12656 226.901 9.05561 226.662 8.92987C225.809 8.51079 224.875 8.28729 223.926 8.27532C222.385 8.27532 221.578 8.98181 221.578 10C221.578 11.0182 222.146 11.5117 224.003 11.6961L225.288 11.826C227.857 12.1143 229.005 13.3403 229.005 15.3766C229.005 17.8286 227.251 19.4493 223.97 19.4493C222.368 19.4574 220.8 18.9748 219.474 18.0649Z" fill="#1CB0F6"/><path d="M10.4557 12.987C10.4557 10.987 9.06844 9.66234 7.32155 9.66234C5.57465 9.66234 4.13603 10.987 4.13603 12.987C4.13603 14.987 5.52327 16.3117 7.29586 16.3117C9.06844 16.3117 10.4557 15.013 10.4557 12.987ZM14.4633 1.06494V18.8312C14.4633 19.4545 14.155 19.7403 13.6926 19.7403C12.999 19.7403 12.0228 19.1429 11.3291 18.1039C10.4814 19.0909 8.73448 20 6.73069 20C2.69741 20 0 17.013 0 12.987C0 8.96104 2.77448 5.97403 6.73069 5.97403C8.05647 5.97647 9.35213 6.37399 10.4557 7.11688V5.24675C10.4557 2 12.2796 0.155844 13.744 0.155844C14.2064 0.155844 14.4633 0.467532 14.4633 1.06494ZM30.7248 7.87013V18.8312C30.7248 19.4545 30.4165 19.7403 29.9541 19.7403C29.2605 19.7403 28.2843 19.1429 27.5907 18.0519C27.0582 18.6702 26.398 19.1627 25.6568 19.4948C24.9155 19.8269 24.1111 19.9905 23.3005 19.974C21.7593 20.013 20.2615 19.4555 19.1131 18.4156C17.9057 17.2468 17.2634 15.4545 17.2634 12.8571V7.87013C17.2634 6.93506 17.6231 6.49351 18.625 6.49351H19.9865C20.9884 6.49351 21.3481 6.88312 21.3481 7.87013V12.4675C21.3481 14.026 21.6307 14.8571 22.1188 15.4026C22.3572 15.6423 22.6427 15.8286 22.957 15.9494C23.2712 16.0702 23.6071 16.1229 23.9427 16.1039C24.3036 16.11 24.6617 16.0391 24.9937 15.8959C25.3257 15.7527 25.6241 15.5403 25.8695 15.2727C26.3576 14.7273 26.6402 13.8701 26.6402 12.5455V7.87013C26.6402 6.88312 27.0769 6.49351 28.0017 6.49351H29.3633C30.2881 6.49351 30.7248 6.88312 30.7248 7.87013ZM43.1072 12.987C43.1072 11.0649 41.8998 9.66234 40.0245 9.66234C38.1491 9.66234 36.9417 11.0649 36.9417 12.987C36.9417 14.9091 38.1491 16.3117 40.0245 16.3117C41.8998 16.3117 43.1072 14.9351 43.1072 12.987ZM32.8057 12.987C32.8057 8.88312 35.8884 5.97403 39.9988 5.97403C44.1091 5.97403 47.1919 8.85714 47.1919 12.987C47.1919 17.1169 44.1091 20 39.9988 20C35.8884 20 32.8057 17.0649 32.8057 12.987ZM49.5296 18.1558V5.24675C49.5296 2 51.3022 0.155844 52.8179 0.155844C53.2803 0.155844 53.5886 0.467532 53.5886 1.06494V18.1558C53.5886 19.1429 53.2032 19.4805 52.227 19.4805H50.8655C49.9407 19.4805 49.5296 19.1169 49.5296 18.1558ZM56.6713 18.1558V7.87013C56.6713 6.93506 57.031 6.49351 58.0329 6.49351H59.3944C60.3963 6.49351 60.756 6.88312 60.756 7.87013V18.1558C60.756 19.0909 60.3963 19.4805 59.3944 19.4805H58.0329C57.031 19.4805 56.6713 19.0909 56.6713 18.1558ZM56.4145 2.23377C56.4245 1.64002 56.664 1.07384 57.0817 0.656369C57.4994 0.2389 58.0621 0.00330622 58.6495 0L58.7265 0C59.3043 0.0381347 59.8439 0.304852 60.2286 0.742389C60.6133 1.17993 60.812 1.75306 60.7817 2.33766C60.7395 2.9201 60.4744 3.46295 60.0427 3.85094C59.6109 4.23893 59.0467 4.44148 58.4696 4.41558C57.9118 4.39926 57.3829 4.16086 56.998 3.75226C56.6131 3.34366 56.4034 2.79792 56.4145 2.23377ZM77.5313 13.2727V18.1558C77.5313 19.0909 77.1717 19.4805 76.1698 19.4805H74.8082C73.8063 19.4805 73.4467 19.0909 73.4467 18.1558V13.3766C73.4467 12.1558 73.2412 11.2987 72.8301 10.7532C72.5779 10.4544 72.2619 10.2174 71.9059 10.0599C71.5499 9.90245 71.1632 9.82868 70.775 9.84416C70.3749 9.82476 69.9757 9.89637 69.6067 10.0537C69.2376 10.211 68.9082 10.4501 68.6427 10.7532C68.1803 11.2987 67.872 12.1558 67.872 13.3247V18.1039C67.872 19.0909 67.4353 19.4286 66.5105 19.4286H65.1489C64.2241 19.4286 63.7874 19.0649 63.7874 18.1039V7.16883C63.7874 6.54545 64.0957 6.25974 64.5581 6.25974C65.2517 6.25974 66.2279 6.85714 66.9472 7.97403C67.5011 7.36006 68.1756 6.86969 68.9276 6.53426C69.6796 6.19882 70.4925 6.02571 71.3144 6.02597C73.2925 6.02597 74.8853 6.72727 75.9129 7.8961C77.0175 9.06493 77.5313 10.6753 77.5313 13.2727ZM84.0308 11.7403C84.0599 12.3887 84.3352 13.0008 84.7993 13.4492C85.2635 13.8977 85.8807 14.1479 86.5227 14.1479C87.1647 14.1479 87.7819 13.8977 88.2461 13.4492C88.7102 13.0008 88.9855 12.3887 89.0146 11.7403C89.0146 10.3377 88.0127 9.35065 86.5484 9.35065C85.0841 9.35065 84.0308 10.2857 84.0308 11.7403ZM89.6312 20C89.6312 18.4416 88.4237 17.3507 86.5484 17.3507C84.6731 17.3507 83.4656 18.4156 83.4656 20C83.4656 21.4805 84.7758 22.6493 86.5484 22.6493C88.321 22.6493 89.6312 21.4805 89.6312 20ZM92.5341 9.74026C92.8034 10.2883 92.9357 10.8948 92.9194 11.5065C92.9194 12.987 92.1487 14.3636 90.9156 15.4286C92.6112 16.2597 93.6131 18.2338 93.6131 20.1299C93.6131 23.6623 90.7872 26 86.497 26C82.2069 26 79.381 23.6623 79.381 20.1039C79.36 19.1453 79.6007 18.1995 80.0765 17.3701C80.5524 16.5408 81.245 15.86 82.0784 15.4026C80.7939 14.3377 80.0746 12.987 80.0746 11.4805C80.0746 8.38961 82.4637 6.12987 86.2658 6.12987C88.5008 6.12987 89.1687 6.51948 90.4532 6.51948C91.3247 6.55825 92.1865 6.32226 92.9194 5.84416C93.1728 5.67643 93.4649 5.57799 93.7672 5.55844C94.281 5.55844 94.5379 6.07792 94.5379 6.7013C94.5979 7.36314 94.4317 8.02577 94.0671 8.57876C93.7024 9.13175 93.1614 9.54169 92.5341 9.74026ZM105.584 12.987C105.584 11.0649 104.377 9.66234 102.502 9.66234C100.626 9.66234 99.4189 11.0649 99.4189 12.987C99.4189 14.9091 100.626 16.3117 102.502 16.3117C104.377 16.3117 105.584 14.9351 105.584 12.987ZM95.2572 12.987C95.2572 8.88312 98.3399 5.97403 102.45 5.97403C106.561 5.97403 109.643 8.85714 109.643 12.987C109.643 17.1169 106.561 20 102.45 20C98.3399 20 95.2572 17.0649 95.2572 12.987Z" fill="#1CB0F6"/></svg>