<svg width="202" height="32" viewBox="0 0 202 32" fill="none" xmlns="http://www.w3.org/2000/svg"><path d="M161.922 7.64114C161.022 7.64114 159.975 8.24951 159.148 9.19856C157.858 8.05483 155.887 7.34912 153.916 7.34912C149.074 7.34912 145.569 10.975 145.569 15.9879C145.569 21.0008 149.074 24.6267 153.916 24.6267C155.887 24.6267 157.858 23.921 159.148 22.7773C159.975 23.7506 161.022 24.3347 161.922 24.3347C162.847 24.3347 163.455 23.6776 163.455 22.6556V9.32023C163.455 8.29818 162.871 7.64114 161.922 7.64114ZM157.566 15.9879C157.566 17.8617 156.325 19.1757 154.573 19.1757C152.797 19.1757 151.556 17.8617 151.556 15.9879C151.556 14.1141 152.797 12.8001 154.573 12.8001C156.325 12.8001 157.566 14.1141 157.566 15.9879Z" fill="#1CB0F6"/><path d="M176.158 7.37341C174.868 7.37341 173.603 7.66542 172.532 8.20078V2.36047C172.532 1.11941 171.753 0.681396 171.048 0.681396C168.931 0.681396 166.643 3.13919 166.643 7.13007V22.6799C166.643 23.7019 167.251 24.3589 168.176 24.3589C169.077 24.3589 170.123 23.7506 170.95 22.8015C172.24 23.9453 174.211 24.651 176.182 24.651C181.025 24.651 184.529 21.0251 184.529 16.0122C184.505 10.9993 181 7.37341 176.158 7.37341ZM178.543 15.9879C178.543 17.8616 177.302 19.1757 175.525 19.1757C173.773 19.1757 172.532 17.8616 172.532 15.9879C172.532 14.1141 173.773 12.8 175.525 12.8C177.302 12.8 178.543 14.1141 178.543 15.9879Z" fill="#FFC800"/><path d="M196.526 12.8001C197.451 12.8001 198.083 12.9704 198.619 13.1164C199.081 13.2381 199.495 13.3598 199.981 13.3598C200.979 13.3598 201.539 12.7514 201.539 11.6563V10.1719C201.539 9.27156 201.296 8.61452 200.127 8.07916C198.984 7.59247 197.67 7.34912 195.966 7.34912C193.727 7.34912 191.513 8.20083 189.907 9.66091C188.155 11.267 187.206 13.5058 187.206 15.9879C187.206 21.3902 191.635 24.6267 195.893 24.6267C197.694 24.6267 199.032 24.4077 200.127 23.9453C201.32 23.4343 201.539 22.7529 201.539 21.8526V20.4898C201.539 18.8594 200.541 18.6647 200.103 18.6647C199.762 18.6647 199.422 18.7377 199.057 18.8351C198.448 18.9811 197.718 19.1757 196.429 19.1757C194.409 19.1757 193.143 17.959 193.143 15.9879C193.168 14.0411 194.482 12.8001 196.526 12.8001Z" fill="#FF5C5C"/><path d="M118.68 15.9878C118.68 10.9262 122.525 7.34905 127.635 7.34905C132.745 7.34905 136.59 10.9262 136.59 15.9878C136.59 20.9521 132.745 24.6266 127.635 24.6266C122.549 24.6266 118.68 21.0008 118.68 15.9878ZM131.553 15.9878C131.553 13.6274 130.068 11.8996 127.708 11.8996C125.348 11.8996 123.863 13.6274 123.863 15.9878C123.863 18.3483 125.348 20.076 127.708 20.076C130.068 20.076 131.553 18.397 131.553 15.9878ZM115.322 11.997C115.662 12.6783 115.808 13.384 115.808 14.1627C115.808 15.9878 114.835 17.6913 113.302 18.981C115.419 20.003 116.684 22.4608 116.684 24.7726C116.684 29.1042 113.156 32 107.827 32C102.473 32 98.9688 29.1529 98.9688 24.7726C98.9688 22.4122 100.21 20.0517 102.351 18.981C100.77 17.6913 99.8449 15.9878 99.8449 14.1627C99.8449 10.3665 102.838 7.56807 107.559 7.56807C110.357 7.56807 111.185 8.05476 112.767 8.05476C113.837 8.05476 114.543 7.90875 115.857 7.22738C116.295 6.98403 116.636 6.8867 116.928 6.8867C117.56 6.8867 117.901 7.51939 117.901 8.27376C117.877 9.97719 117.098 11.3643 115.322 11.997ZM111.696 24.6266C111.696 22.7042 110.211 21.3414 107.851 21.3414C105.491 21.3414 104.006 22.6312 104.006 24.6266C104.006 26.4517 105.637 27.9118 107.851 27.9118C110.017 27.9118 111.696 26.4517 111.696 24.6266ZM104.712 14.4548C104.712 16.0852 106.099 17.3992 107.802 17.3992C109.53 17.3992 110.893 16.1095 110.893 14.4548C110.893 12.727 109.652 11.5103 107.802 11.5103C106.002 11.5103 104.712 12.6783 104.712 14.4548ZM96.6084 16.3285V22.3635C96.6084 23.5316 96.1703 23.9939 94.9293 23.9939H93.2502C92.0091 23.9939 91.5711 23.5072 91.5711 22.3635V16.4745C91.5711 14.9901 91.3278 13.9194 90.7924 13.238C90.2084 12.508 89.3567 12.1186 88.2373 12.1186C87.1665 12.1186 86.2175 12.508 85.5848 13.238C85.0008 13.9194 84.6114 14.9658 84.6114 16.4259V22.3148C84.6114 23.5316 84.1247 23.9453 82.9323 23.9453H81.2532C80.0852 23.9453 79.5742 23.5072 79.5742 22.3148V8.80913C79.5742 8.03042 79.9635 7.68974 80.5475 7.68974C81.4236 7.68974 82.616 8.41978 83.5407 9.80686C84.8791 8.22511 86.9719 7.39772 88.9916 7.39772C91.4494 7.39772 93.4205 8.27377 94.7346 9.70951C95.9757 11.2183 96.6084 13.1407 96.6084 16.3285ZM70.3027 2.74982C70.3027 1.21674 71.5437 0 73.1985 0C74.7316 0 76.0943 1.21674 76.0943 2.74982C76.0943 4.23423 74.7559 5.49963 73.1985 5.49963C71.5437 5.49963 70.3027 4.23423 70.3027 2.74982ZM70.6434 22.3635V9.68518C70.6434 8.51712 71.0814 8.05476 72.3224 8.05476H74.0015C75.2426 8.05476 75.6806 8.54146 75.6806 9.68518V22.3635C75.6806 23.5316 75.2426 23.9939 74.0015 23.9939H72.3224C71.057 23.9939 70.6434 23.5072 70.6434 22.3635ZM61.7126 22.3635V6.44867C61.7126 2.45779 63.9757 0.194689 65.8008 0.194689C66.3848 0.194689 66.7741 0.584036 66.7741 1.31407V22.3392C66.7741 23.5559 66.2875 23.9696 65.0951 23.9696H63.416C62.2479 23.9939 61.7126 23.5559 61.7126 22.3635ZM40.9065 15.9878C40.9065 10.9262 44.7513 7.34905 49.8616 7.34905C54.9719 7.34905 58.8167 10.9262 58.8167 15.9878C58.8167 20.9521 54.9719 24.6266 49.8616 24.6266C44.7513 24.6266 40.9065 21.0008 40.9065 15.9878ZM53.7065 15.9878C53.7065 13.6274 52.2221 11.8996 49.8616 11.8996C47.5011 11.8996 46.0167 13.6274 46.0167 15.9878C46.0167 18.3483 47.5011 20.076 49.8616 20.076C52.2221 20.1004 53.7065 18.397 53.7065 15.9878ZM38.3027 9.68518V23.1909C38.3027 23.9696 37.9133 24.3103 37.3293 24.3103C36.4532 24.3103 35.2608 23.5802 34.3848 22.2418C33.1437 23.7262 31.197 24.6023 29.0312 24.6023C26.8654 24.6023 25.1376 23.8236 23.8236 22.6799C22.3392 21.2441 21.5118 19.0053 21.5118 15.8418V9.70951C21.5118 8.54145 21.9498 8.07909 23.1909 8.07909H24.87C26.111 8.07909 26.5491 8.56579 26.5491 9.70951V15.4038C26.5491 17.3262 26.8897 18.3483 27.5224 19.0297C28.0578 19.6137 28.8122 19.9057 29.7856 19.9057C30.7589 19.9057 31.6593 19.5164 32.1947 18.8837C32.8274 18.2023 33.1681 17.1559 33.1681 15.5011V9.70951C33.1681 8.49278 33.6548 8.07909 34.8472 8.07909H36.5262C37.7673 8.00609 38.3027 8.46845 38.3027 9.68518ZM18.0563 1.28975V23.1666C18.0563 23.9453 17.6669 24.2859 17.0829 24.2859C16.2068 24.2859 15.0144 23.5559 14.1384 22.2662C13.0677 23.5072 10.9019 24.6266 8.39544 24.6266C3.38251 24.6266 0 20.9521 0 15.9878C0 11.1209 3.43118 7.34905 8.39544 7.34905C10.2205 7.34905 11.8266 7.93309 13.019 8.73613V6.42434C13.019 2.43347 15.2821 0.170345 17.1072 0.170345C17.7156 0.19468 18.0563 0.584042 18.0563 1.28975ZM13.0433 15.9878C13.0433 13.53 11.3156 11.8996 9.14981 11.8996C6.93536 11.8996 5.2076 13.53 5.2076 15.9878C5.2076 18.4456 6.93536 20.076 9.14981 20.076C11.2913 20.1004 13.0433 18.4943 13.0433 15.9878Z" fill="#58CC02"/></svg>