<svg viewBox="0 0 37 37"  version="1.1" xmlns="http://www.w3.org/2000/svg"><title>badge-app-store</title><g stroke="none" stroke-width="1" fill="none" fill-rule="evenodd"><g fill="white" fill-rule="nonzero"><g><path d="M27.217 19.184a7.314 7.314 0 0 1 3.488-6.138 7.501 7.501 0 0 0-5.908-3.19c-2.485-.26-4.895 1.486-6.162 1.486-1.29 0-3.241-1.46-5.341-1.417a7.87 7.87 0 0 0-6.621 4.033c-2.863 4.95-.728 12.224 2.015 16.225 1.372 1.96 2.975 4.148 5.073 4.07 2.054-.085 2.82-1.307 5.299-1.307 2.455 0 3.175 1.307 5.315 1.258 2.204-.036 3.592-1.968 4.916-3.946a16.196 16.196 0 0 0 2.247-4.571 7.069 7.069 0 0 1-4.32-6.503zM23.174 7.225a7.196 7.196 0 0 0 1.65-5.16 7.342 7.342 0 0 0-4.749 2.453 6.848 6.848 0 0 0-1.693 4.97 6.07 6.07 0 0 0 4.792-2.263z"></path></g></g></g></svg>