<svg width="100" height="100" viewBox="0 0 100 100" fill="none" xmlns="http://www.w3.org/2000/svg"><path fill-rule="evenodd" clip-rule="evenodd" d="M66.2557 57.282C66.4053 60.2343 65.2674 62.9231 63.3541 64.8364C61.5533 66.6372 59.0655 67.751 56.3175 67.751H10.6447C7.89673 67.751 5.40889 66.6372 3.60805 64.8364C1.69476 62.9231 0.556939 60.2343 0.706492 57.282H66.2557Z" fill="#FFB100" stroke="#FFB100" stroke-width="1.0354" stroke-linejoin="round"/><path fill-rule="evenodd" clip-rule="evenodd" d="M18.468 12.8171H48.8397C54.1769 12.8171 58.5035 17.1437 58.5035 22.4809V58.4899H8.8042V22.4809C8.8042 17.1437 13.1308 12.8171 18.468 12.8171Z" fill="#FFB100"/><path fill-rule="evenodd" clip-rule="evenodd" d="M21.2287 19.4897H45.273C50.2925 19.4897 54.3615 23.5588 54.3615 28.5783V64.1708H12.1401V28.5783C12.1401 23.5588 16.2092 19.4897 21.2287 19.4897Z" fill="#FFC6B7"/><path d="M18.558 22.5385C18.558 19.9017 16.4204 17.7642 13.7836 17.7642C11.1468 17.7642 9.00928 19.9017 9.00928 22.5385V29.3261C9.00928 31.963 11.1468 34.1005 13.7836 34.1005C16.4204 34.1005 18.558 31.963 18.558 29.3261V22.5385Z" fill="#FFB100"/><path d="M57.953 22.5385C57.953 19.9017 55.8155 17.7642 53.1786 17.7642C50.5418 17.7642 48.4043 19.9017 48.4043 22.5385V29.3261C48.4043 31.963 50.5418 34.1005 53.1786 34.1005C55.8155 34.1005 57.953 31.963 57.953 29.3261V22.5385Z" fill="#FFB100"/><path fill-rule="evenodd" clip-rule="evenodd" d="M28.1128 25.4185C31.1086 25.4185 33.5372 27.847 33.5372 30.8428V34.1423C33.5372 37.1381 31.1086 39.5666 28.1128 39.5666C25.117 39.5666 22.6885 37.1381 22.6885 34.1423V30.8428C22.6885 27.847 25.117 25.4185 28.1128 25.4185Z" fill="white"/><path fill-rule="evenodd" clip-rule="evenodd" d="M29.6105 28.6396C30.9555 28.6396 32.0458 29.7299 32.0458 31.0749V34.1336C32.0458 35.4786 30.9555 36.5689 29.6105 36.5689C28.2656 36.5689 27.1753 35.4786 27.1753 34.1336V31.0749C27.1753 29.7299 28.2656 28.6396 29.6105 28.6396Z" fill="#3D3D3D"/><path d="M27.4629 30.9407C28.4477 30.9407 29.2461 30.1423 29.2461 29.1575C29.2461 28.1726 28.4477 27.3743 27.4629 27.3743C26.478 27.3743 25.6797 28.1726 25.6797 29.1575C25.6797 30.1423 26.478 30.9407 27.4629 30.9407Z" fill="white"/><path d="M27.4629 30.9407C28.4477 30.9407 29.2461 30.1423 29.2461 29.1575C29.2461 28.1726 28.4477 27.3743 27.4629 27.3743C26.478 27.3743 25.6797 28.1726 25.6797 29.1575C25.6797 30.1423 26.478 30.9407 27.4629 30.9407Z" fill="white"/><path fill-rule="evenodd" clip-rule="evenodd" d="M40.8823 25.4185C37.8865 25.4185 35.4579 27.847 35.4579 30.8428V34.1423C35.4579 37.1381 37.8865 39.5666 40.8823 39.5666C43.8781 39.5666 46.3066 37.1381 46.3066 34.1423V30.8428C46.3066 27.847 43.8781 25.4185 40.8823 25.4185Z" fill="white"/><path fill-rule="evenodd" clip-rule="evenodd" d="M39.7298 28.6396C38.3848 28.6396 37.2945 29.7299 37.2945 31.0749V34.1336C37.2945 35.4786 38.3848 36.5689 39.7298 36.5689C41.0747 36.5689 42.165 35.4786 42.165 34.1336V31.0749C42.165 29.7299 41.0747 28.6396 39.7298 28.6396Z" fill="#3D3D3D"/><path d="M37.9658 30.9407C36.981 30.9407 36.1826 30.1423 36.1826 29.1575C36.1826 28.1726 36.981 27.3743 37.9658 27.3743C38.9507 27.3743 39.749 28.1726 39.749 29.1575C39.749 30.1423 38.9507 30.9407 37.9658 30.9407Z" fill="white"/><path fill-rule="evenodd" clip-rule="evenodd" d="M34.4589 42.4986C35.7932 42.4986 36.8748 41.4175 36.8748 40.0838C36.8748 38.7502 34.4589 35.5959 34.4589 35.5959C34.4589 35.5959 32.043 38.7502 32.043 40.0838C32.043 41.4175 33.1246 42.4986 34.4589 42.4986Z" fill="#F3A577"/><path d="M22.9546 37.5518C25.7539 37.7143 27.9781 38.9031 29.6272 41.1181" stroke="#FFC6B7" stroke-width="2.18585"/><path d="M10.2418 39.9678C12.8151 39.9678 14.9011 37.8817 14.9011 35.3085C14.9011 32.7352 12.8151 30.6492 10.2418 30.6492C7.66856 30.6492 5.58252 32.7352 5.58252 35.3085C5.58252 37.8817 7.66856 39.9678 10.2418 39.9678Z" fill="#FFC6B7"/><path d="M56.6051 39.9678C59.1784 39.9678 61.2644 37.8817 61.2644 35.3085C61.2644 32.7352 59.1784 30.6492 56.6051 30.6492C54.0318 30.6492 51.9458 32.7352 51.9458 35.3085C51.9458 37.8817 54.0318 39.9678 56.6051 39.9678Z" fill="#FFC6B7"/><path d="M23.1494 39.8916C24.9734 39.2876 26.9257 40.1005 27.8129 41.7306C28.4003 42.5352 29.2528 43.2858 30.445 43.5507C30.5738 43.5668 30.7076 43.5811 30.847 43.5933L30.9114 43.5995C33.0307 43.8196 34.5891 45.7003 34.4027 47.8309C34.2145 49.9829 32.3172 51.5749 30.1652 51.3866C25.415 50.971 21.9754 48.79 20.6656 44.8343C19.9866 42.7836 21.0986 40.5706 23.1494 39.8916Z" fill="#702323"/><path d="M57.8129 17.4189H8.91892C8.09293 17.4189 7.42334 18.0885 7.42334 18.9145V22.0207C7.42334 22.8467 8.09293 23.5163 8.91892 23.5163H57.8129C58.6389 23.5163 59.3085 22.8467 59.3085 22.0207V18.9145C59.3085 18.0885 58.6389 17.4189 57.8129 17.4189Z" fill="#FF4B4B"/><path d="M44.0078 12.012C44.0078 6.29361 39.3722 1.65796 33.6538 1.65796C27.9355 1.65796 23.2998 6.29361 23.2998 12.012C23.2998 17.7303 27.9355 22.366 33.6538 22.366C39.3722 22.366 44.0078 17.7303 44.0078 12.012Z" fill="#FFB100"/><path d="M22.7914 4.39109L32.688 15.175C33.2072 15.753 33.0136 16.6699 32.3057 16.9857C28.9042 18.5031 24.8463 17.6483 22.2872 14.7992C19.728 11.9501 19.3042 7.81538 21.1652 4.58301C21.5525 3.91025 22.2722 3.81307 22.7914 4.39109Z" fill="#FFB100"/><path fill-rule="evenodd" clip-rule="evenodd" d="M8.80423 53.4621C8.80423 54.3749 8.79118 56.7747 6.1582 56.7747C7.29764 57.8885 7.92667 58.3757 8.0453 58.2365L9.27536 57.5858L9.60954 54.824C9.07267 53.3075 8.80423 52.8535 8.80423 53.4621Z" fill="#FFB100"/><path fill-rule="evenodd" clip-rule="evenodd" d="M58.5034 53.4621C58.5034 54.3749 58.5164 56.7747 61.1494 56.7747C60.01 57.8885 59.3809 58.3757 59.2623 58.2365L58.0323 57.5858L57.6981 54.824C58.2349 53.3075 58.5034 52.8535 58.5034 53.4621Z" fill="#FFB100"/><path d="M55.1708 61.4424H11.3387C10.6398 61.4424 10.0732 62.009 10.0732 62.7079V67.0796C10.0732 67.7785 10.6398 68.3451 11.3387 68.3451H55.1708C55.8697 68.3451 56.4362 67.7785 56.4362 67.0796V62.7079C56.4362 62.009 55.8697 61.4424 55.1708 61.4424Z" fill="#FF4B4B"/><path d="M32.7908 47.2156C33.3503 47.2156 33.8947 47.2805 34.4167 47.4033C34.4196 47.545 34.415 47.6874 34.4024 47.8309C34.2141 49.983 32.3169 51.5749 30.1649 51.3867C28.9137 51.2772 27.7535 51.0453 26.6992 50.6907C27.9309 48.6103 30.198 47.2156 32.7908 47.2156Z" fill="#B23232"/><path d="M26.0799 40.0827L26.119 40.1668C26.2303 40.4209 26.292 40.7016 26.292 40.9968V42.0322C26.292 43.1758 25.3649 44.103 24.2212 44.103H22.6106C21.651 44.103 20.8438 43.4502 20.6089 42.5646C20.9446 41.3486 21.862 40.3179 23.1493 39.8917C24.1537 39.5591 25.197 39.6562 26.0799 40.0827Z" fill="white"/><path d="M27.8128 41.7308C28.4001 42.5353 29.2527 43.2859 30.4449 43.5508L30.6418 43.5736L30.8468 43.5934L30.9112 43.5996L30.9725 43.6074C30.6108 43.9164 30.1413 44.103 29.6282 44.103H28.0176C26.8739 44.103 25.9468 43.1758 25.9468 42.0322L25.9468 40.0215C26.7247 40.3622 27.3898 40.9536 27.8128 41.7308Z" fill="white"/><path fill-rule="evenodd" clip-rule="evenodd" d="M65.7491 35.2446C75.1997 35.2446 83.7434 40.87 87.4779 49.5514L97.0803 71.8731C100.392 79.5706 96.8358 88.4949 89.1384 91.8061C87.2445 92.6208 85.2045 93.041 83.1428 93.041H48.3554C39.976 93.041 33.1831 86.2481 33.1831 77.8687C33.1831 75.807 33.6033 73.767 34.418 71.8731L44.0203 49.5514C47.7549 40.87 56.2985 35.2446 65.7491 35.2446Z" fill="#F69100"/><path d="M84.2083 63.0444C87.0177 63.0444 89.2951 60.7545 89.2951 57.9297C89.2951 55.1049 87.0177 52.8149 84.2083 52.8149C81.399 52.8149 79.1216 55.1049 79.1216 57.9297C79.1216 60.7545 81.399 63.0444 84.2083 63.0444Z" fill="#FFB5A1"/><path d="M47.6351 63.0444C50.4444 63.0444 52.7218 60.7545 52.7218 57.9297C52.7218 55.1049 50.4444 52.8149 47.6351 52.8149C44.8258 52.8149 42.5483 55.1049 42.5483 57.9297C42.5483 60.7545 44.8258 63.0444 47.6351 63.0444Z" fill="#FFB5A1"/><path fill-rule="evenodd" clip-rule="evenodd" d="M59.4612 43.5305H72.2413C77.5278 43.5305 81.9988 47.4417 82.7018 52.6812L84.477 65.9115C85.8573 76.1982 78.6371 85.6562 68.3504 87.0364C67.522 87.1475 66.6871 87.2033 65.8513 87.2033C55.4724 87.2033 47.0586 78.7895 47.0586 68.4106C47.0586 67.5748 47.1144 66.7399 47.2255 65.9115L49.0007 52.6812C49.7037 47.4417 54.1747 43.5305 59.4612 43.5305Z" fill="#FFB5A1"/><path d="M77.4814 54.5781C77.4814 52.0358 75.4205 49.9749 72.8782 49.9749C70.3358 49.9749 68.2749 52.0358 68.2749 54.5781V59.6417C68.2749 62.184 70.3358 64.2449 72.8782 64.2449C75.4205 64.2449 77.4814 62.184 77.4814 59.6417V54.5781Z" fill="white"/><path d="M62.7509 54.5781C62.7509 52.0358 60.69 49.9749 58.1477 49.9749C55.6054 49.9749 53.5444 52.0358 53.5444 54.5781V59.6417C53.5444 62.184 55.6054 64.2449 58.1477 64.2449C60.69 64.2449 62.7509 62.184 62.7509 59.6417V54.5781Z" fill="white"/><path d="M73.7991 54.4759C73.7991 53.2048 72.7686 52.1743 71.4974 52.1743C70.2263 52.1743 69.1958 53.2048 69.1958 54.4759V57.6982C69.1958 58.9694 70.2263 59.9998 71.4974 59.9998C72.7686 59.9998 73.7991 58.9694 73.7991 57.6982V54.4759Z" fill="#363636"/><path d="M61.8303 54.4759C61.8303 53.2048 60.7998 52.1743 59.5287 52.1743C58.2575 52.1743 57.2271 53.2048 57.2271 54.4759V57.6982C57.2271 58.9694 58.2575 59.9998 59.5287 59.9998C60.7998 59.9998 61.8303 58.9694 61.8303 57.6982V54.4759Z" fill="#363636"/><path fill-rule="evenodd" clip-rule="evenodd" d="M65.5682 51.356C66.6154 51.356 67.4644 52.205 67.4644 53.2522V62.1799C67.4644 63.2272 66.6154 64.0762 65.5682 64.0762C64.5209 64.0762 63.6719 63.2272 63.6719 62.1799V53.2522C63.6719 52.205 64.5209 51.356 65.5682 51.356Z" fill="#F68D70"/><path d="M52.3408 59.1248C55.0646 57.4161 60.8947 59.4138 63.2112 62.0833L63.3298 62.2229L61.048 66.0225L52.2069 64.0744L52.3408 59.1248Z" fill="#FFB5A1"/><path d="M78.6239 59.1247C75.9001 57.416 70.07 59.4137 67.7535 62.0832L67.6349 62.2228L69.9167 66.0907L78.7578 64.1426L78.6239 59.1247Z" fill="#FFB5A1"/><path d="M78.2077 63.1657C77.6576 62.9763 77.3662 62.374 77.5567 61.8205C77.7473 61.2669 78.3478 60.9717 78.898 61.1612C79.4481 61.3506 79.7395 61.9529 79.5489 62.5064C79.3583 63.06 78.7579 63.3551 78.2077 63.1657Z" fill="#F68D70"/><path d="M79.9079 65.9933C79.3578 65.8039 79.0663 65.2016 79.2569 64.6481C79.4475 64.0946 80.048 63.7994 80.5981 63.9888C81.1483 64.1782 81.4397 64.7805 81.2491 65.3341C81.0585 65.8876 80.4581 66.1828 79.9079 65.9933Z" fill="#F68D70"/><path d="M75.9904 65.9933C75.4403 65.8039 75.1489 65.2016 75.3395 64.6481C75.5301 64.0946 76.1305 63.7994 76.6807 63.9888C77.2308 64.1782 77.5222 64.7805 77.3316 65.3341C77.1411 65.8876 76.5406 66.1828 75.9904 65.9933Z" fill="#F68D70"/><path d="M52.6599 63.1657C53.2101 62.9763 53.5015 62.374 53.3109 61.8205C53.1203 61.2669 52.5199 60.9717 51.9697 61.1612C51.4196 61.3506 51.1281 61.9529 51.3187 62.5064C51.5093 63.06 52.1098 63.3551 52.6599 63.1657Z" fill="#F68D70"/><path d="M50.9597 65.9933C51.5099 65.8039 51.8013 65.2016 51.6107 64.6481C51.4201 64.0946 50.8197 63.7994 50.2695 63.9888C49.7194 64.1782 49.4279 64.7805 49.6185 65.3341C49.8091 65.8876 50.4096 66.1828 50.9597 65.9933Z" fill="#F68D70"/><path d="M54.6873 65.9933C55.2374 65.8039 55.5289 65.2016 55.3383 64.6481C55.1477 64.0946 54.5472 63.7994 53.9971 63.9888C53.4469 64.1782 53.1555 64.7805 53.3461 65.3341C53.5367 65.8876 54.1372 66.1828 54.6873 65.9933Z" fill="#F68D70"/><path d="M59.6714 67.2117C63.067 70.6073 68.5724 70.6073 71.968 67.2117" stroke="#F68D70" stroke-width="2.04589" stroke-linecap="round" stroke-linejoin="round"/><path d="M57.6363 55.2058C58.625 55.2058 59.4265 54.4043 59.4265 53.4156C59.4265 52.427 58.625 51.6255 57.6363 51.6255C56.6477 51.6255 55.8462 52.427 55.8462 53.4156C55.8462 54.4043 56.6477 55.2058 57.6363 55.2058Z" fill="white"/><path fill-rule="evenodd" clip-rule="evenodd" d="M68.6426 55.0382C68.8727 55.1459 69.1295 55.206 69.4003 55.206C70.389 55.206 71.1904 54.4045 71.1904 53.4158C71.1904 52.8403 70.9189 52.3282 70.4968 52.0007L69.4003 52.6998L68.6426 53.9245V55.0382Z" fill="white"/><path d="M91.2337 41.3823H63.422C61.808 41.3823 60.7911 43.1202 61.5818 44.5273C64.7233 50.1176 70.7123 53.6598 77.3279 53.6598C83.9434 53.6598 89.9324 50.1176 93.0739 44.5273C93.8646 43.1202 92.8478 41.3823 91.2337 41.3823Z" fill="#F69100"/><path d="M44.9313 78.2009H6.58616C3.81787 78.2009 1.57373 80.4451 1.57373 83.2134C1.57373 85.9816 3.81787 88.2258 6.58616 88.2258H44.9313C47.6995 88.2258 49.9437 85.9816 49.9437 83.2134C49.9437 80.4451 47.6995 78.2009 44.9313 78.2009Z" fill="#FFC6B7"/><path d="M27.8887 68.7041C29.4112 68.7041 30.6455 67.4698 30.6455 65.9473C30.6455 64.4247 29.4112 63.1904 27.8887 63.1904C26.3661 63.1904 25.1318 64.4247 25.1318 65.9473C25.1318 67.4698 26.3661 68.7041 27.8887 68.7041Z" fill="#FF9600"/><path d="M23.8788 66.699C25.8166 66.699 27.3875 65.1281 27.3875 63.1903C27.3875 61.2525 25.8166 59.6816 23.8788 59.6816C21.941 59.6816 20.3701 61.2525 20.3701 63.1903C20.3701 65.1281 21.941 66.699 23.8788 66.699Z" fill="#FF9600"/><path fill-rule="evenodd" clip-rule="evenodd" d="M20.1195 65.6697H30.8962C37.8169 65.6697 43.4273 71.28 43.4273 78.2008V85.4688C43.4273 92.3895 37.8169 97.9999 30.8962 97.9999H20.1195C13.1987 97.9999 7.58838 92.3895 7.58838 85.4688V78.2008C7.58838 71.28 13.1987 65.6697 20.1195 65.6697Z" fill="#FFC6B7"/><path d="M36.3173 76.143C36.3173 73.2654 33.9845 70.9326 31.1069 70.9326C28.2293 70.9326 25.8965 73.2654 25.8965 76.143L25.8965 78.9851C25.8965 81.8627 28.2293 84.1955 31.1069 84.1955C33.9845 84.1955 36.3173 81.8627 36.3173 78.9851V76.143Z" fill="white"/><path d="M24.475 76.1762C24.475 73.2986 22.1423 70.9658 19.2646 70.9658C16.387 70.9658 14.0542 73.2986 14.0542 76.1762V79.0183C14.0542 81.8959 16.387 84.2287 19.2646 84.2287C22.1423 84.2287 24.475 81.8959 24.475 79.0183V76.1762Z" fill="white"/><path d="M32.2612 76.3801C32.2612 74.8105 30.9888 73.5381 29.4192 73.5381C27.8496 73.5381 26.5771 74.8105 26.5771 76.3801V79.2222C26.5771 80.7918 27.8496 82.0642 29.4192 82.0642C30.9888 82.0642 32.2612 80.7918 32.2612 79.2222V76.3801Z" fill="#363636"/><path fill-rule="evenodd" clip-rule="evenodd" d="M26.1433 76.2984C26.3789 76.4162 26.643 76.4864 26.9234 76.4962C27.9692 76.5327 28.8466 75.7146 28.8831 74.6688C28.9076 73.9674 28.5476 73.3418 27.9924 72.9948L26.5777 74.3051L26.1433 76.2984Z" fill="white"/><path d="M23.7241 76.5559C23.7241 74.9863 22.4517 73.7139 20.8821 73.7139C19.3125 73.7139 18.04 74.9863 18.04 76.5559V79.398C18.04 80.9676 19.3125 82.24 20.8821 82.24C22.4517 82.24 23.7241 80.9676 23.7241 79.398V76.5559Z" fill="#363636"/><path d="M18.4024 76.1987C19.4482 76.2352 20.3256 75.417 20.3621 74.3713C20.3986 73.3255 19.5804 72.4481 18.5347 72.4116C17.4889 72.3751 16.6115 73.1932 16.575 74.239C16.5385 75.2848 17.3566 76.1622 18.4024 76.1987Z" fill="white"/><path fill-rule="evenodd" clip-rule="evenodd" d="M36.4958 82.4572L33.1468 90.3471L26.5299 83.9991L27.5364 83.5669C30.3574 82.3556 33.4645 81.9708 36.4958 82.4572Z" fill="#FFC6B7"/><path fill-rule="evenodd" clip-rule="evenodd" d="M13.6223 82.4572L16.9714 90.3471L23.5883 83.9991L22.5817 83.5669C19.7607 82.3556 16.6536 81.9708 13.6223 82.4572Z" fill="#FFC6B7"/><mask id="mask0" mask-type="alpha" maskUnits="userSpaceOnUse" x="19" y="86" width="13" height="6"><path d="M27.6873 86.5477C28.8218 85.8828 30.2804 86.2634 30.9454 87.3978C31.5984 88.512 31.2429 89.9389 30.1553 90.6194L30.0953 90.6558L29.9098 90.7645C27.0238 92.4561 23.4359 92.399 20.6052 90.6165C19.4925 89.9158 19.1585 88.4457 19.8592 87.333C20.5471 86.2406 21.9767 85.8987 23.0816 86.5498L23.1426 86.587C24.4412 87.4048 26.0799 87.4474 27.4169 86.7049L27.5019 86.6564L27.6873 86.5477Z" fill="white"/></mask><g mask="url(#mask0)"><path d="M27.6873 86.5477C28.8218 85.8828 30.2804 86.2634 30.9454 87.3978C31.5984 88.512 31.2429 89.9389 30.1553 90.6194L30.0953 90.6558L29.9098 90.7645C27.0238 92.4561 23.4359 92.399 20.6052 90.6165C19.4925 89.9158 19.1585 88.4457 19.8592 87.333C20.5471 86.2406 21.9767 85.8987 23.0816 86.5498L23.1426 86.587C24.4412 87.4048 26.0799 87.4474 27.4169 86.7049L27.5019 86.6564L27.6873 86.5477Z" fill="#9A3333"/><path d="M23.3777 84.2158H21.6233C21.3465 84.2158 21.1221 84.4402 21.1221 84.7171V87.4739C21.1221 87.7507 21.3465 87.9751 21.6233 87.9751H23.3777C23.6545 87.9751 23.8789 87.7507 23.8789 87.4739V84.7171C23.8789 84.4402 23.6545 84.2158 23.3777 84.2158Z" fill="white"/></g><path fill-rule="evenodd" clip-rule="evenodd" d="M25.2195 86.5342C26.2784 86.5342 27.1368 85.651 27.1368 84.5615C27.1368 83.472 25.2195 80.8953 25.2195 80.8953C25.2195 80.8953 23.3022 83.472 23.3022 84.5615C23.3022 85.651 24.1606 86.5342 25.2195 86.5342Z" fill="#EE9583"/><path d="M29.4396 91.0202L29.3367 91.0729C26.7269 92.3584 23.649 92.2961 21.0918 90.9017C21.4022 90.6229 21.7461 90.3726 22.1215 90.1558C24.5402 88.7594 27.5125 89.1903 29.4396 91.0202Z" fill="#E15F3C"/></svg>