<svg width="100" height="100" viewBox="0 0 100 100" fill="none" xmlns="http://www.w3.org/2000/svg"><path fill-rule="evenodd" clip-rule="evenodd" d="M18.6602 11.3301H29.2451C30.0423 11.3301 30.6885 11.9763 30.6885 12.7735V45.0093C30.6885 45.8065 30.0423 46.4527 29.2451 46.4527H18.6602C17.863 46.4527 17.2168 45.8065 17.2168 45.0093V12.7735C17.2168 11.9763 17.863 11.3301 18.6602 11.3301Z" fill="#CD7900"/><path fill-rule="evenodd" clip-rule="evenodd" d="M16.7359 7H31.1698C31.967 7 32.6132 7.64623 32.6132 8.4434V12.7736C32.6132 13.5708 31.967 14.217 31.1698 14.217H16.7359C15.9387 14.217 15.2925 13.5708 15.2925 12.7736V8.4434C15.2925 7.64623 15.9387 7 16.7359 7Z" fill="#CD7900"/><path fill-rule="evenodd" clip-rule="evenodd" d="M12.8867 34.9057L50.4975 13.7358L87.9433 34.9057V89.7547C87.9433 91.0833 86.8663 92.1604 85.5377 92.1604H15.2924C13.9638 92.1604 12.8867 91.0833 12.8867 89.7547V34.9057Z" fill="#A977F8"/><path opacity="0.675618" fill-rule="evenodd" clip-rule="evenodd" d="M66.7738 36.8301H84.5757C85.1071 36.8301 85.5379 37.2609 85.5379 37.7923V41.1603C85.5379 41.6917 85.1071 42.1225 84.5757 42.1225H66.7738C66.2423 42.1225 65.8115 41.6917 65.8115 41.1603V37.7923C65.8115 37.2609 66.2423 36.8301 66.7738 36.8301Z" fill="#CE82FF"/><path opacity="0.675618" fill-rule="evenodd" clip-rule="evenodd" d="M82.1698 60.8867H86.9811C87.5125 60.8867 87.9434 61.3175 87.9434 61.849V65.2169C87.9434 65.7484 87.5125 66.1792 86.9811 66.1792H82.1698C81.6383 66.1792 81.2075 65.7484 81.2075 65.2169V61.849C81.2075 61.3175 81.6383 60.8867 82.1698 60.8867Z" fill="#CE82FF"/><path opacity="0.675618" fill-rule="evenodd" clip-rule="evenodd" d="M52.8207 60.8867H57.632C58.1634 60.8867 58.5942 61.3175 58.5942 61.849V65.2169C58.5942 65.7484 58.1634 66.1792 57.632 66.1792H52.8207C52.2892 66.1792 51.8584 65.7484 51.8584 65.2169V61.849C51.8584 61.3175 52.2892 60.8867 52.8207 60.8867Z" fill="#CE82FF"/><path opacity="0.675618" fill-rule="evenodd" clip-rule="evenodd" d="M13.849 79.1697H22.0282C22.5597 79.1697 22.9905 79.6005 22.9905 80.1319V83.4999C22.9905 84.0313 22.5597 84.4621 22.0282 84.4621H13.849C13.3175 84.4621 12.8867 84.0313 12.8867 83.4999V80.1319C12.8867 79.6005 13.3175 79.1697 13.849 79.1697Z" fill="#CE82FF"/><path opacity="0.675618" fill-rule="evenodd" clip-rule="evenodd" d="M13.849 41.6414H31.6509C32.1823 41.6414 32.6131 42.0722 32.6131 42.6036V45.9715C32.6131 46.503 32.1823 46.9338 31.6509 46.9338H13.849C13.3175 46.9338 12.8867 46.503 12.8867 45.9715V42.6036C12.8867 42.0722 13.3175 41.6414 13.849 41.6414Z" fill="#CE82FF"/><path opacity="0.675618" fill-rule="evenodd" clip-rule="evenodd" d="M19.1415 32.0188H36.9433C37.4748 32.0188 37.9056 32.4496 37.9056 32.9811V36.349C37.9056 36.8804 37.4748 37.3113 36.9433 37.3113H19.1415C18.61 37.3113 18.1792 36.8804 18.1792 36.349V32.9811C18.1792 32.4496 18.61 32.0188 19.1415 32.0188Z" fill="#CE82FF"/><path fill-rule="evenodd" clip-rule="evenodd" d="M21.5474 81.0942H49.9342C50.7314 81.0942 51.3776 81.7405 51.3776 82.5376V90.7169C51.3776 91.514 50.7314 92.1603 49.9342 92.1603H21.5474C20.7502 92.1603 20.104 91.514 20.104 90.7169V82.5376C20.104 81.7405 20.7502 81.0942 21.5474 81.0942Z" fill="#78C800"/><path fill-rule="evenodd" clip-rule="evenodd" d="M61 53.6697H78.8019C79.5991 53.6697 80.2453 54.3159 80.2453 55.1131V82.5376C80.2453 83.3348 79.5991 83.981 78.8019 83.981H61C60.2029 83.981 59.5566 83.3348 59.5566 82.5376V55.1131C59.5566 54.3159 60.2029 53.6697 61 53.6697Z" fill="#A56644" stroke="white" stroke-width="1.92453"/><path d="M64.6086 71.9529C66.0701 71.9529 67.2549 70.7681 67.2549 69.3066C67.2549 67.8452 66.0701 66.6604 64.6086 66.6604C63.1472 66.6604 61.9624 67.8452 61.9624 69.3066C61.9624 70.7681 63.1472 71.9529 64.6086 71.9529Z" fill="#FFD900"/><path fill-rule="evenodd" clip-rule="evenodd" d="M59.5565 83.0188H80.2452C80.7766 83.0188 81.2074 83.4496 81.2074 83.9811V91.198C81.2074 91.7295 80.7766 92.1603 80.2452 92.1603H59.5565C59.0251 92.1603 58.5942 91.7295 58.5942 91.198V83.9811C58.5942 83.4496 59.0251 83.0188 59.5565 83.0188Z" fill="#D8D8D8"/><path fill-rule="evenodd" clip-rule="evenodd" d="M57.6322 87.3491H82.1699C82.7014 87.3491 83.1322 87.7799 83.1322 88.3114V91.1982C83.1322 91.7296 82.7014 92.1604 82.1699 92.1604H57.6322C57.1007 92.1604 56.6699 91.7296 56.6699 91.1982V88.3114C56.6699 87.7799 57.1007 87.3491 57.6322 87.3491Z" fill="#D8D8D8"/><path d="M49.6932 45.0093C54.3434 45.0093 58.1131 41.2396 58.1131 36.5895C58.1131 31.9394 54.3434 28.1697 49.6932 28.1697C45.0431 28.1697 41.2734 31.9394 41.2734 36.5895C41.2734 41.2396 45.0431 45.0093 49.6932 45.0093Z" fill="#52D2FF" stroke="white" stroke-width="1.92453"/><path fill-rule="evenodd" clip-rule="evenodd" d="M50.8964 29.1321V44.0472H48.4907V29.1321H50.8964Z" fill="white"/><path fill-rule="evenodd" clip-rule="evenodd" d="M57.1509 37.7924H42.2358V35.3867H57.1509V37.7924Z" fill="white"/><path fill-rule="evenodd" clip-rule="evenodd" d="M45.6036 53.1887H50.4149C51.212 53.1887 51.8583 53.835 51.8583 54.6321V76.7642C51.8583 77.5614 51.212 78.2076 50.4149 78.2076H45.6036C44.8064 78.2076 44.1602 77.5614 44.1602 76.7642V54.6321C44.1602 53.835 44.8064 53.1887 45.6036 53.1887Z" fill="#474646"/><path fill-rule="evenodd" clip-rule="evenodd" d="M21.066 53.1887H25.8773C26.6744 53.1887 27.3207 53.835 27.3207 54.6321V76.7642C27.3207 77.5614 26.6744 78.2076 25.8773 78.2076H21.066C20.2688 78.2076 19.6226 77.5614 19.6226 76.7642V54.6321C19.6226 53.835 20.2688 53.1887 21.066 53.1887Z" fill="#474646"/><path fill-rule="evenodd" clip-rule="evenodd" d="M12.543 36.687L48.8741 11.8972L52.2806 17.624L13.0727 42.6137C12.8487 42.7565 12.5512 42.6906 12.4084 42.4665C12.3592 42.3893 12.333 42.2996 12.333 42.2079V37.0845C12.333 36.9254 12.4116 36.7767 12.543 36.687Z" fill="white"/><path fill-rule="evenodd" clip-rule="evenodd" d="M88.4789 37.5887C88.609 37.6786 88.6867 37.8266 88.6867 37.9847V42.9047C88.6867 42.9969 88.6602 43.0871 88.6104 43.1646C88.4669 43.3882 88.1692 43.4531 87.9456 43.3096L47.0474 17.0569L50.4539 11.3301L88.4789 37.5887Z" fill="white"/><path d="M50.1743 10.6084L90.3488 36.5895" stroke="#474646" stroke-width="5.29245" stroke-linecap="round" stroke-linejoin="round"/><path fill-rule="evenodd" clip-rule="evenodd" d="M50.1745 10.6084L10 36.5895L50.1745 10.6084Z" stroke="#474646" stroke-width="5.29245" stroke-linecap="round" stroke-linejoin="round"/><path fill-rule="evenodd" clip-rule="evenodd" d="M30.2077 53.6697H41.2738C42.3367 53.6697 43.1983 54.5313 43.1983 55.5942V73.8772C43.1983 74.9401 42.3367 75.8018 41.2738 75.8018H30.2077C29.1448 75.8018 28.2832 74.9401 28.2832 73.8772V55.5942C28.2832 54.5313 29.1448 53.6697 30.2077 53.6697Z" fill="#52D2FF" stroke="white" stroke-width="1.92453"/><path fill-rule="evenodd" clip-rule="evenodd" d="M29.2451 66.6604H42.2357V73.8774C42.2357 74.4088 41.8049 74.8396 41.2734 74.8396H30.2074C29.6759 74.8396 29.2451 74.4088 29.2451 73.8774V66.6604Z" fill="#2689AC"/><path fill-rule="evenodd" clip-rule="evenodd" d="M28.2832 64.7358H43.1983V67.1415H28.2832V64.7358Z" fill="white"/><path fill-rule="evenodd" clip-rule="evenodd" d="M28.2832 56.5566H43.1983V58.9623H28.2832V56.5566Z" fill="white"/><path fill-rule="evenodd" clip-rule="evenodd" d="M36.9433 53.1887V66.6604H34.5376V53.1887H36.9433Z" fill="white"/></svg>