<svg width="100" height="100" viewBox="0 0 100 100" fill="none" xmlns="http://www.w3.org/2000/svg"><g clip-path="url(#clip0)"><mask id="mask0" mask-type="alpha" maskUnits="userSpaceOnUse" x="23" y="7" width="58" height="91"><path fill-rule="evenodd" clip-rule="evenodd" d="M63.2313 41.1688C63.1519 41.4214 63.0489 41.6704 62.9216 41.913L54.3703 58.2024C55.5669 60.5739 55.6399 63.469 54.3132 65.9963L39.9041 93.4443C37.7274 97.5908 32.6069 99.177 28.4673 96.987C24.3277 94.7971 22.7365 89.6604 24.9133 85.5139L39.3223 58.0659C40.6639 55.5102 43.1238 53.9272 45.783 53.6014L54.3103 37.3575C54.4401 37.1103 54.5897 36.8803 54.7561 36.6684C53.1533 35.2005 52.6705 32.7833 53.7271 30.7708L64.4964 10.2562C65.7516 7.86496 68.7044 6.95027 71.0916 8.21314L77.4378 11.5704C79.8249 12.8332 80.7425 15.7954 79.4873 18.1865L68.718 38.7012C67.6516 40.7324 65.3603 41.6982 63.2313 41.1688Z" fill="white"/></mask><g mask="url(#mask0)"><path fill-rule="evenodd" clip-rule="evenodd" d="M25.2604 103.096L102.389 79.204L78.4494 1.92069L1.32031 25.813L25.2604 103.096Z" fill="#DD3333"/></g><mask id="mask1" mask-type="alpha" maskUnits="userSpaceOnUse" x="50" y="6" width="28" height="35"><path fill-rule="evenodd" clip-rule="evenodd" d="M68.861 7.03646L75.2071 10.3936C77.5943 11.6565 78.5119 14.6187 77.2567 17.0099L66.4873 37.5244C65.2321 39.9156 62.2793 40.8303 59.8921 39.5674L53.546 36.2103C51.1588 34.9474 50.2412 31.9852 51.4965 29.594L62.2658 9.07946C63.521 6.68827 66.4739 5.77357 68.861 7.03646Z" fill="white"/></mask><g mask="url(#mask1)"><path fill-rule="evenodd" clip-rule="evenodd" d="M63.5337 1.5092L82.7592 11.6798L65.2174 45.0953L45.992 34.9247L63.5337 1.5092Z" fill="#FC4848"/></g><mask id="mask2" mask-type="alpha" maskUnits="userSpaceOnUse" x="53" y="8" width="20" height="27"><path fill-rule="evenodd" clip-rule="evenodd" d="M67.413 9.32896L70.9582 11.2044C72.7088 12.1305 73.3817 14.3028 72.4612 16.0563L63.5775 32.979C62.6569 34.7325 60.4916 35.4033 58.741 34.4772L55.1958 32.6018C53.4452 31.6757 52.7723 29.5034 53.6928 27.7499L62.5765 10.8272C63.4971 9.07363 65.6624 8.40286 67.413 9.32896Z" fill="white"/></mask><g mask="url(#mask2)"><path fill-rule="evenodd" clip-rule="evenodd" d="M63.2394 4.41121L77.3587 11.8805L62.9147 39.395L48.7955 31.9257L63.2394 4.41121Z" fill="#EAEAEA"/></g><mask id="mask3" mask-type="alpha" maskUnits="userSpaceOnUse" x="21" y="52" width="33" height="45"><path fill-rule="evenodd" clip-rule="evenodd" d="M48.5282 53.3469C52.6678 55.5368 54.259 60.6735 52.0822 64.82L37.5661 92.4719C35.3894 96.6185 30.2689 98.2046 26.1293 96.0147C21.9897 93.8248 20.3985 88.6881 22.5753 84.5415L37.0914 56.8896C39.2681 52.7431 44.3886 51.1569 48.5282 53.3469Z" fill="white"/></mask><g mask="url(#mask3)"><path fill-rule="evenodd" clip-rule="evenodd" d="M40.0287 46.1407L59.2542 56.3112L34.6286 103.221L15.4031 93.0503L40.0287 46.1407Z" fill="#FC4848"/></g><mask id="mask4" mask-type="alpha" maskUnits="userSpaceOnUse" x="48" y="6" width="22" height="28"><path fill-rule="evenodd" clip-rule="evenodd" d="M62.9458 6.95769L67.5263 9.36219C68.8335 10.0484 69.5891 11.4668 69.4301 12.9362L68.9853 17.047L62.8695 21.8695L62.7536 28.8272L59.3079 32.0558C58.1946 33.0989 56.5433 33.3195 55.1934 32.6054L50.7334 30.246C48.9827 29.3199 48.3098 27.1476 49.2304 25.3941L58.1194 8.46124C59.0378 6.71167 61.1962 6.03931 62.9458 6.95769Z" fill="white"/></mask><g mask="url(#mask4)"><path fill-rule="evenodd" clip-rule="evenodd" d="M58.7901 2.0306L75.0564 10.6357L60.5994 38.1751L44.3331 29.5699L58.7901 2.0306Z" fill="white"/></g><mask id="mask5" mask-type="alpha" maskUnits="userSpaceOnUse" x="45" y="3" width="21" height="29"><path fill-rule="evenodd" clip-rule="evenodd" d="M45.621 20.369C45.9008 19.471 46.2421 18.6214 46.645 17.8202C48.5473 14.0376 53.0942 12.4672 54.0612 10.6784C54.6653 9.5609 55.4718 7.34785 56.4806 4.03945C56.6252 3.56555 57.1256 3.29956 57.5985 3.44527C57.6471 3.46026 57.6943 3.47933 57.7397 3.50235L61.6278 5.47311C65.2616 7.31507 66.8376 11.6759 65.2213 15.4169C65.1127 15.6683 64.9972 15.9158 64.8746 16.1595C63.3307 19.2296 61.1217 18.9854 57.846 23.85C57.1599 24.869 56.1093 27.2813 54.6944 31.0871L54.6944 31.087C54.5218 31.5513 54.0062 31.7867 53.5429 31.6128C53.5121 31.6013 53.4819 31.588 53.4526 31.5731L49.5078 29.5736C46.1425 27.8678 44.498 23.9733 45.621 20.369Z" fill="white"/></mask><g mask="url(#mask5)"><path fill-rule="evenodd" clip-rule="evenodd" d="M39.3024 27.0874L53.5749 -1.29318L71.7088 7.89852L57.4363 36.2792L39.3024 27.0874Z" fill="#8CE4EC"/></g><mask id="mask6" mask-type="alpha" maskUnits="userSpaceOnUse" x="42" y="33" width="20" height="27"><path fill-rule="evenodd" clip-rule="evenodd" d="M57.3329 33.8892L59.6046 35.091C61.3552 36.0171 62.0281 38.1894 61.1076 39.9429L51.636 57.9854C50.7155 59.739 48.5501 60.4097 46.7995 59.4837L44.5277 58.2819C42.7771 57.3558 42.1042 55.1835 43.0248 53.43L52.4963 35.3874C53.4169 33.6339 55.5823 32.9631 57.3329 33.8892Z" fill="white"/></mask><g mask="url(#mask6)"><path fill-rule="evenodd" clip-rule="evenodd" d="M53.1593 28.9715L66.0052 35.7671L50.9733 64.4015L38.1274 57.6059L53.1593 28.9715Z" fill="#FC4848"/></g><path d="M58.3447 9.813C58.1284 12.2114 56.7769 14.154 54.2903 15.6409" stroke="#B0F8FF" stroke-width="4.50024" stroke-linecap="round" stroke-linejoin="round"/></g><defs><clipPath id="clip0"><rect width="100" height="100" fill="white"/></clipPath></defs></svg>