<svg width="100" height="100" viewBox="0 0 100 100" fill="none" xmlns="http://www.w3.org/2000/svg"><path d="M49.8693 28.1401C57.129 28.1401 63.014 22.2884 63.014 15.07C63.014 7.85165 57.129 2 49.8693 2C42.6097 2 36.7246 7.85165 36.7246 15.07C36.7246 22.2884 42.6097 28.1401 49.8693 28.1401Z" fill="#3D3D3D"/><mask id="mask0" mask-type="alpha" maskUnits="userSpaceOnUse" x="7" y="29" width="86" height="55"><path d="M34.1857 29.5583H65.5537C80.568 29.5583 92.7394 41.7298 92.7394 56.744C92.7394 71.7582 80.568 83.9297 65.5537 83.9297H34.1857C19.1714 83.9297 7 71.7582 7 56.744C7 41.7298 19.1714 29.5583 34.1857 29.5583Z" fill="white"/></mask><g mask="url(#mask0)"><path d="M34.1857 29.5583H65.5537C80.568 29.5583 92.7394 41.7298 92.7394 56.744C92.7394 71.7582 80.568 83.9297 65.5537 83.9297H34.1857C19.1714 83.9297 7 71.7582 7 56.744C7 41.7298 19.1714 29.5583 34.1857 29.5583Z" fill="#3D3D3D"/><path d="M111.261 60.1797H-13.3149V84.5273H111.261V60.1797Z" fill="#D8D8D8"/></g><path d="M50.3137 41.7402C31.048 41.7402 15.4302 57.3821 15.4302 76.6774V95.6944C15.4302 96.984 16.4755 98.0293 17.7651 98.0293H82.8623C84.1518 98.0293 85.1972 96.984 85.1972 95.6944V76.6774C85.1972 57.3821 69.5793 41.7402 50.3137 41.7402Z" fill="#FFCBA3"/><path fill-rule="evenodd" clip-rule="evenodd" d="M42.2514 53.3086C46.1287 53.3086 49.2719 56.4518 49.2719 60.3291V64.6608C49.2719 68.5381 46.1287 71.6813 42.2514 71.6813C38.3741 71.6813 35.231 68.5381 35.231 64.6608V60.3291C35.231 56.4518 38.3741 53.3086 42.2514 53.3086Z" fill="white"/><path fill-rule="evenodd" clip-rule="evenodd" d="M44.1716 57.4211C45.9179 57.4211 47.3335 58.8368 47.3335 60.583V64.5544C47.3335 66.3006 45.9179 67.7163 44.1716 67.7163C42.4254 67.7163 41.0098 66.3006 41.0098 64.5544V60.583C41.0098 58.8368 42.4254 57.4211 44.1716 57.4211Z" fill="#3D3D3D"/><path d="M41.3831 60.4086C42.6618 60.4086 43.6984 59.372 43.6984 58.0933C43.6984 56.8147 42.6618 55.7781 41.3831 55.7781C40.1044 55.7781 39.0679 56.8147 39.0679 58.0933C39.0679 59.372 40.1044 60.4086 41.3831 60.4086Z" fill="white"/><path fill-rule="evenodd" clip-rule="evenodd" d="M58.8765 53.3086C54.9992 53.3086 51.856 56.4518 51.856 60.3291V64.6608C51.856 68.5381 54.9992 71.6813 58.8765 71.6813C62.7538 71.6813 65.897 68.5381 65.897 64.6608V60.3291C65.897 56.4518 62.7538 53.3086 58.8765 53.3086Z" fill="white"/><path fill-rule="evenodd" clip-rule="evenodd" d="M57.3103 57.4211C55.564 57.4211 54.1484 58.8368 54.1484 60.583V64.5544C54.1484 66.3006 55.564 67.7163 57.3103 67.7163C59.0565 67.7163 60.4722 66.3006 60.4722 64.5544V60.583C60.4722 58.8368 59.0565 57.4211 57.3103 57.4211Z" fill="#3D3D3D"/><path d="M55.0202 60.4086C53.7415 60.4086 52.7049 59.372 52.7049 58.0933C52.7049 56.8147 53.7415 55.7781 55.0202 55.7781C56.2989 55.7781 57.3354 56.8147 57.3354 58.0933C57.3354 59.372 56.2989 60.4086 55.0202 60.4086Z" fill="white"/><path fill-rule="evenodd" clip-rule="evenodd" d="M34.1854 67.4988C42.1038 68.0482 47.5559 69.2415 50.5416 71.0787C53.5274 72.9159 51.013 78.2345 42.9984 87.0346L29.6074 75.5598L34.1854 67.4988Z" fill="#FFCBA3"/><path fill-rule="evenodd" clip-rule="evenodd" d="M68.0914 67.9468C60.1731 68.4962 54.721 69.6895 51.7352 71.5267C48.7494 73.3639 51.2639 78.6825 59.2785 87.4826L72.6694 76.0078L68.0914 67.9468Z" fill="#FFCBA3"/><path fill-rule="evenodd" clip-rule="evenodd" d="M50.6165 74.2206C52.507 74.2206 54.0396 72.6765 54.0396 70.7717C54.0396 68.867 50.6165 64.3621 50.6165 64.3621C50.6165 64.3621 47.1934 68.867 47.1934 70.7717C47.1934 72.6765 48.7259 74.2206 50.6165 74.2206Z" fill="#E89665"/><path d="M40.2368 73.8574C45.0332 79.759 50.8193 80.7793 57.5949 76.9181" stroke="#E89665" stroke-width="1.94183" stroke-linecap="round" stroke-linejoin="round"/><path d="M44.5273 86.7144C48.3114 89.1495 52.0955 89.1495 55.8796 86.7144" stroke="#F7B286" stroke-width="1.49372" stroke-linecap="round" stroke-linejoin="round"/><path fill-rule="evenodd" clip-rule="evenodd" d="M32.6919 60.2985C40.9247 60.2985 46.6506 60.2985 49.8696 60.2985C52.601 60.2985 51.3422 52.5139 46.9977 49.9038C43.662 47.8997 37.3422 50.6094 36.6934 50.6094C35.6976 50.6094 34.3638 53.8391 32.6919 60.2985Z" fill="#FFCBA3"/><path fill-rule="evenodd" clip-rule="evenodd" d="M48.6748 60.2983C56.9076 60.2983 62.6335 60.2983 65.8526 60.2983C68.5839 60.2983 67.3251 52.8125 62.9806 50.2024C59.6449 48.1983 53.3251 50.908 52.6763 50.908C51.6805 50.908 50.3467 54.0381 48.6748 60.2983Z" fill="#FFCBA3"/><path opacity="0.625535" d="M73.1175 62.1216L67.7412 64.3622L73.1175 66.7521" stroke="#F3A577" stroke-width="1.49372" stroke-linecap="round" stroke-linejoin="round"/><path opacity="0.625535" d="M27.0158 62.1216L32.3921 64.3622L27.0158 66.7521" stroke="#F3A577" stroke-width="1.49372" stroke-linecap="round" stroke-linejoin="round"/><path d="M47.4032 47.5711L41.2249 48.6605C39.9657 48.8825 39.1248 50.0833 39.3469 51.3426C39.5689 52.6018 40.7697 53.4427 42.029 53.2206L48.2073 52.1312C49.4666 51.9092 50.3074 50.7084 50.0853 49.4491C49.8633 48.1898 48.6625 47.349 47.4032 47.5711Z" fill="#3D3D3D"/><path d="M53.8297 50.8572L60.008 51.9466C61.2673 52.1686 62.1081 53.3695 61.886 54.6287C61.664 55.888 60.4632 56.7288 59.2039 56.5068L53.0256 55.4174C51.7664 55.1953 50.9255 53.9945 51.1476 52.7352C51.3696 51.476 52.5704 50.6351 53.8297 50.8572Z" fill="#3D3D3D"/><path d="M24.7007 41.6575H17.9789C14.0604 41.6575 10.8838 44.8341 10.8838 48.7526V53.2338C10.8838 57.1523 14.0604 60.3289 17.9789 60.3289H24.7007C28.6192 60.3289 31.7958 57.1523 31.7958 53.2338V48.7526C31.7958 44.8341 28.6192 41.6575 24.7007 41.6575Z" fill="#3D3D3D"/><path d="M81.4617 41.6575H75.6362C71.7176 41.6575 68.541 44.8341 68.541 48.7526V53.2338C68.541 57.1523 71.7176 60.3289 75.6362 60.3289H81.4617C85.3802 60.3289 88.5568 57.1523 88.5568 53.2338V48.7526C88.5568 44.8341 85.3802 41.6575 81.4617 41.6575Z" fill="#3D3D3D"/></svg>