<svg width="100" height="100" viewBox="0 0 100 100" fill="none" xmlns="http://www.w3.org/2000/svg"><path d="M29.6709 14.432L6.95594 27.5465C5.66453 28.2921 5.22206 29.9434 5.96766 31.2348C10.3347 38.7988 20.0067 41.3904 27.5707 37.0234C35.1347 32.6563 37.7263 22.9843 33.3593 15.4203C32.6137 14.1289 30.9623 13.6864 29.6709 14.432Z" fill="#2B70C9"/><path d="M70.2355 14.432L92.9505 27.5465C94.2419 28.2921 94.6844 29.9434 93.9388 31.2348C89.5717 38.7988 79.8997 41.3904 72.3357 37.0234C64.7717 32.6563 62.1801 22.9843 66.5472 15.4203C67.2928 14.1289 68.9441 13.6864 70.2355 14.432Z" fill="#2B70C9"/><path fill-rule="evenodd" clip-rule="evenodd" d="M43.3222 23.071H55.9382C72.1993 23.071 85.3815 36.2533 85.3815 52.5144V81.2665C85.3815 82.5452 84.345 83.5818 83.0663 83.5818H16.1942C14.9155 83.5818 13.8789 82.5452 13.8789 81.2665V52.5144C13.8789 36.2533 27.0611 23.071 43.3222 23.071Z" fill="#07DAFF"/><path fill-rule="evenodd" clip-rule="evenodd" d="M85.3813 52.5145L85.3807 64.0819H71.7427C59.5234 64.0819 49.6177 54.1762 49.6177 41.9569C49.6177 34.133 53.6787 27.2577 59.8078 23.3237C74.2401 25.218 85.3813 37.5651 85.3813 52.5145Z" fill="#09B1FD"/><path fill-rule="evenodd" clip-rule="evenodd" d="M63.4849 29.3804C69.9944 29.3804 75.2863 34.5938 75.4128 41.073L75.4152 41.4501C75.4152 48.039 70.0738 53.3804 63.4849 53.3804C56.896 53.3804 51.5547 48.039 51.5547 41.4501V41.3106C51.5547 34.7217 56.896 29.3804 63.4849 29.3804Z" fill="#F9F9F9"/><path fill-rule="evenodd" clip-rule="evenodd" d="M35.2344 29.3804C41.7439 29.3804 47.0358 34.5938 47.1624 41.073L47.1647 41.4501C47.1647 48.039 41.8233 53.3804 35.2344 53.3804C28.6456 53.3804 23.3042 48.039 23.3042 41.4501V41.3106C23.3042 34.7217 28.6456 29.3804 35.2344 29.3804Z" fill="#F9F9F9"/><path fill-rule="evenodd" clip-rule="evenodd" d="M59.8564 37.082C63.3773 37.082 66.2314 39.9362 66.2314 43.457V44.4828C66.2314 48.0036 63.3773 50.8578 59.8564 50.8578C56.3356 50.8578 53.4814 48.0036 53.4814 44.4828V43.457C53.4814 42.954 53.5397 42.4645 53.6499 41.9951C54.1766 42.453 54.8646 42.7303 55.6174 42.7303C57.2742 42.7303 58.6174 41.3871 58.6174 39.7303C58.6174 38.839 58.2287 38.0385 57.6116 37.489C58.3095 37.2258 59.0662 37.082 59.8564 37.082Z" fill="#4B4B4B"/><path fill-rule="evenodd" clip-rule="evenodd" d="M38.7427 37.082C42.2635 37.082 45.1177 39.9362 45.1177 43.457V44.4828C45.1177 48.0036 42.2635 50.8578 38.7427 50.8578C35.2219 50.8578 32.3677 48.0036 32.3677 44.4828V43.457C32.3677 42.9236 32.4332 42.4054 32.5566 41.9102C33.0941 42.4186 33.8195 42.7303 34.6177 42.7303C36.2745 42.7303 37.6177 41.3871 37.6177 39.7303C37.6177 38.8227 37.2147 38.0093 36.5778 37.4591C37.2536 37.215 37.9826 37.082 38.7427 37.082Z" fill="#4B4B4B"/><path fill-rule="evenodd" clip-rule="evenodd" d="M45.1328 57.332H53.3983V63.3015C53.3983 65.584 51.548 67.4342 49.2655 67.4342C46.9831 67.4342 45.1328 65.584 45.1328 63.3015V57.332Z" fill="#FF7878"/><path fill-rule="evenodd" clip-rule="evenodd" d="M49.3452 56.8857C49.9665 56.8857 50.4702 57.3894 50.4702 58.0107V63.2607C50.4702 63.8821 49.9665 64.3857 49.3452 64.3857C48.7239 64.3857 48.2202 63.8821 48.2202 63.2607V58.0107C48.2202 57.3894 48.7239 56.8857 49.3452 56.8857Z" fill="#E75252"/><path fill-rule="evenodd" clip-rule="evenodd" d="M57.0747 50.9662L57.4359 50.8025C63.0327 48.2675 69.0911 46.9179 75.2303 46.836L75.8247 46.832V54.3752L75.4371 54.5349L74.6803 54.8391L73.9479 55.1231L73.2399 55.3867L72.5563 55.6301L71.8971 55.8531C69.6327 56.5984 67.8169 56.9711 66.4497 56.9711C65.0825 56.9711 63.2667 56.5984 61.0023 55.8531L60.3431 55.6301L59.6595 55.3867L58.9515 55.1231L58.2191 54.8391L57.4623 54.5349C57.3341 54.4826 57.2049 54.4293 57.0747 54.3752V50.9662Z" fill="#09B1FD"/><path fill-rule="evenodd" clip-rule="evenodd" d="M42.2646 51.0094L41.9034 50.8457C36.3067 48.3107 30.2483 46.9611 24.109 46.8792L23.5146 46.8752V54.4185C25.9479 56.1196 28.8423 56.9701 32.1979 56.9701C35.5535 56.9701 38.9091 56.1196 42.2646 54.4185V51.0094Z" fill="#07DAFF"/><path fill-rule="evenodd" clip-rule="evenodd" d="M58.1185 52.0896C58.1185 55.6104 55.2643 58.4646 51.7435 58.4646H47.2646C43.7438 58.4646 40.8896 55.6104 40.8896 52.0896C40.8896 48.5688 43.7438 45.7146 47.2646 45.7146H51.7435C55.2643 45.7146 58.1185 48.5688 58.1185 52.0896Z" fill="#1899D6"/><path fill-rule="evenodd" clip-rule="evenodd" d="M47.9419 45.332H51.0669C53.138 45.332 54.8169 47.011 54.8169 49.082C54.8169 51.1531 53.138 52.832 51.0669 52.832H47.9419C45.8708 52.832 44.1919 51.1531 44.1919 49.082C44.1919 47.011 45.8708 45.332 47.9419 45.332Z" fill="#4B4B4B"/></svg>