<svg width="100" height="100" viewBox="0 0 100 100" fill="none" xmlns="http://www.w3.org/2000/svg"><path d="M37.2292 40.2083H7.9375C7.28166 40.2083 6.75 40.7399 6.75 41.3958C6.75 42.0516 7.28166 42.5833 7.9375 42.5833H37.2292C37.885 42.5833 38.4167 42.0516 38.4167 41.3958C38.4167 40.7399 37.885 40.2083 37.2292 40.2083Z" fill="#CCCCCC"/><path d="M62.958 71.0833L92.2497 54.4583" stroke="#EEEEEE" stroke-width="3.16667" stroke-linecap="round"/><path d="M76.4165 78.2083L78.7915 45.75" stroke="#EEEEEE" stroke-width="3.16667" stroke-linecap="round"/><path d="M91.4583 71.8748L63.75 53.6665" stroke="#EEEEEE" stroke-width="3.16667" stroke-linecap="round"/><path d="M6.75 71.0833L36.0417 54.4583" stroke="#EEEEEE" stroke-width="3.16667" stroke-linecap="round"/><path d="M20.2085 78.2083L22.5835 45.75" stroke="#EEEEEE" stroke-width="3.16667" stroke-linecap="round"/><path d="M35.2498 71.8748L7.5415 53.6665" stroke="#EEEEEE" stroke-width="3.16667" stroke-linecap="round"/><path d="M36.0415 32.2917L39.2082 42.5834" stroke="#CCCCCC" stroke-width="3.16667" stroke-linecap="round"/><path d="M21.3957 80.1873C31.0146 80.1873 38.8123 72.3896 38.8123 62.7707C38.8123 53.1517 31.0146 45.354 21.3957 45.354C11.7767 45.354 3.979 53.1517 3.979 62.7707C3.979 72.3896 11.7767 80.1873 21.3957 80.1873Z" stroke="#4C4C4C" stroke-width="3.95833"/><path d="M21.396 77.0208C29.2661 77.0208 35.646 70.6408 35.646 62.7708C35.646 54.9007 29.2661 48.5208 21.396 48.5208C13.5259 48.5208 7.146 54.9007 7.146 62.7708C7.146 70.6408 13.5259 77.0208 21.396 77.0208Z" stroke="#CCCCCC" stroke-width="2.375"/><path d="M77.6042 80.1873C87.2231 80.1873 95.0208 72.3896 95.0208 62.7707C95.0208 53.1517 87.2231 45.354 77.6042 45.354C67.9852 45.354 60.1875 53.1517 60.1875 62.7707C60.1875 72.3896 67.9852 80.1873 77.6042 80.1873Z" stroke="#4C4C4C" stroke-width="3.95833"/><path d="M77.6045 77.0208C85.4746 77.0208 91.8545 70.6408 91.8545 62.7708C91.8545 54.9007 85.4746 48.5208 77.6045 48.5208C69.7344 48.5208 63.3545 54.9007 63.3545 62.7708C63.3545 70.6408 69.7344 77.0208 77.6045 77.0208Z" stroke="#CCCCCC" stroke-width="2.375"/><path d="M39.208 42.5833L47.1247 66.3333" stroke="#FFD02E" stroke-width="4.75" stroke-linecap="round"/><path d="M67.3125 25.5625L70.875 37.8333" stroke="#CCCCCC" stroke-width="3.16667" stroke-linecap="round"/><path d="M67.3125 25.5625L70.875 37.8333" stroke="#CCCCCC" stroke-width="3.16667" stroke-linecap="round"/><path d="M76.8127 23.9792L67.7085 25.4306" stroke="#CCCCCC" stroke-width="3.95833" stroke-linecap="round"/><path d="M69.2915 32.2917L77.2082 62.3751" stroke="#FFD02E" stroke-width="4.75" stroke-linecap="round"/><path d="M70.083 35.458L46.333 66.333" stroke="#FFD02E" stroke-width="4.75" stroke-linecap="round"/><path d="M70.083 35.458L39.208 41.7913" stroke="#FFD02E" stroke-width="4.75" stroke-linecap="round"/><path d="M20.2085 61.5834L39.2085 41.7917" stroke="#FFD02E" stroke-width="4.75" stroke-linecap="round"/><path fill-rule="evenodd" clip-rule="evenodd" d="M30.3075 25.2078L43.7658 28.7186C44.8116 28.9915 45.5413 29.9359 45.5413 31.0167V31.5568C45.5413 32.8685 44.478 33.9318 43.1663 33.9318H29.708C28.3963 33.9318 27.333 32.8685 27.333 31.5568V27.5059C27.333 26.1942 28.3963 25.1309 29.708 25.1309C29.9103 25.1309 30.1118 25.1567 30.3075 25.2078Z" fill="#9F5F29"/><path fill-rule="evenodd" clip-rule="evenodd" d="M20.5998 59.9608L43.4698 58.4361C48.2703 58.1161 52.4214 61.7483 52.7414 66.5488C52.7827 67.1684 52.7577 67.7907 52.6667 68.4049L20.5882 64.3019C19.4658 64.1583 18.625 63.2031 18.625 62.0716C18.625 60.9579 19.4885 60.0349 20.5998 59.9608Z" fill="#F9C525" stroke="#F9C525" stroke-width="2.375" stroke-linecap="round" stroke-linejoin="round"/><path d="M44.7498 70.2917C46.936 70.2917 48.7082 68.5195 48.7082 66.3333C48.7082 64.1472 46.936 62.375 44.7498 62.375C42.5637 62.375 40.7915 64.1472 40.7915 66.3333C40.7915 68.5195 42.5637 70.2917 44.7498 70.2917Z" fill="#D9D9D9" stroke="#CCCCCC" stroke-width="3.16667"/><path d="M44.75 66.3333L51.4792 74.6458" stroke="#D9D9D9" stroke-width="3.16667" stroke-linecap="round"/><path d="M54.2497 73.4583H47.9163C47.0419 73.4583 46.333 74.1671 46.333 75.0416V75.8333C46.333 76.7077 47.0419 77.4166 47.9163 77.4166H54.2497C55.1241 77.4166 55.833 76.7077 55.833 75.8333V75.0416C55.833 74.1671 55.1241 73.4583 54.2497 73.4583Z" fill="#4C4C4C"/><path fill-rule="evenodd" clip-rule="evenodd" d="M5.16634 28.729C4.94773 28.729 4.77051 28.9062 4.77051 29.1248V35.4582C4.77051 36.9885 6.01105 38.229 7.54134 38.229H20.9997C22.53 38.229 23.7705 36.9885 23.7705 35.4582V29.1248C23.7705 28.9062 23.5933 28.729 23.3747 28.729H5.16634Z" stroke="#7B4E29" stroke-width="2.375"/><path d="M14.271 28.729V37.4732" stroke="#7B4E29" stroke-width="2.375" stroke-linecap="square"/><path d="M19.021 28.729V37.4732" stroke="#7B4E29" stroke-width="2.375" stroke-linecap="square"/><path d="M9.52051 28.729V37.4732" stroke="#7B4E29" stroke-width="2.375" stroke-linecap="square"/><path d="M22.1988 31.9316H5.5625" stroke="#7B4E29" stroke-width="2.375" stroke-linecap="square"/><path d="M22.1988 35.0981H5.5625" stroke="#7B4E29" stroke-width="2.375" stroke-linecap="square"/><path d="M74.8333 24.2259C77.7896 23.4338 80.8283 25.1882 81.6204 28.1445C82.4125 31.1008 80.6581 34.1395 77.7018 34.9316" stroke="#9F5F29" stroke-width="3.95833" stroke-linecap="round"/></svg>