<svg width="100" height="100" viewBox="0 0 100 100" fill="none" xmlns="http://www.w3.org/2000/svg"><path d="M33.7281 82.948C43.6296 82.948 51.6564 74.9205 51.6564 65.0181C51.6564 55.1156 43.6296 47.0881 33.7281 47.0881C23.8266 47.0881 15.7998 55.1156 15.7998 65.0181C15.7998 74.9205 23.8266 82.948 33.7281 82.948Z" fill="#FFAADE"/><path d="M47.8424 69.4372C50.0906 70.6326 50.9441 73.4241 49.7488 75.6723L42.5341 89.2423C41.3389 91.4904 38.5476 92.3439 36.2995 91.1487C36.2994 91.1486 36.2994 91.1486 36.2993 91.1486C34.0512 89.9532 33.1977 87.1617 34.393 84.9135L41.6076 71.3435C42.8028 69.0955 45.5942 68.2419 47.8423 69.4372C47.8423 69.4372 47.8424 69.4372 47.8424 69.4372Z" fill="#FFAADE"/><mask id="mask0" mask-type="alpha" maskUnits="userSpaceOnUse" x="7" y="7" width="86" height="75"><path d="M46.9152 7.75642C47.3588 7.82019 47.8032 7.89804 48.2481 7.99029C49.7788 8.30779 51.2706 8.79061 52.6971 9.43025L75.2111 19.5254C85.813 24.2793 92.6355 34.8154 92.6355 46.4344C92.6355 56.9808 84.086 65.5303 73.5396 65.5303H71.666C71.5818 67.4326 71.1623 69.3523 70.3746 71.208C66.8372 79.5416 57.2139 83.4296 48.8804 79.8922C48.8802 79.8922 48.88 79.8921 48.8799 79.892L28.6066 71.2857C27.3197 70.7394 26.1388 70.048 25.0749 69.2387C14.3527 63.8239 7 52.7081 7 39.8748C7 21.7186 21.7172 7 39.8718 7C42.2895 7 44.6461 7.26102 46.9152 7.75642L46.9152 7.75642Z" fill="white"/></mask><g mask="url(#mask0)"><path d="M46.9152 7.75642C47.3588 7.82019 47.8032 7.89804 48.2481 7.99029C49.7788 8.30779 51.2706 8.79061 52.6971 9.43025L75.2111 19.5254C85.813 24.2793 92.6355 34.8154 92.6355 46.4344C92.6355 56.9808 84.086 65.5303 73.5396 65.5303H71.666C71.5818 67.4326 71.1623 69.3523 70.3746 71.208C66.8372 79.5416 57.2139 83.4296 48.8804 79.8922C48.8802 79.8922 48.88 79.8921 48.8799 79.892L28.6066 71.2857C27.3197 70.7394 26.1388 70.048 25.0749 69.2387C14.3527 63.8239 7 52.7081 7 39.8748C7 21.7186 21.7172 7 39.8718 7C42.2895 7 44.6461 7.26102 46.9152 7.75642L46.9152 7.75642Z" fill="#FFAADE"/><path d="M75.3284 65.33C75.5499 66.4432 74.827 67.5253 73.7137 67.7468C72.6004 67.9683 71.5184 67.2454 71.2969 66.1321C70.5132 62.1934 68.609 59.27 65.5354 57.2439C62.1585 55.0178 57.6597 52.9598 52.0455 51.0867C50.9688 50.7275 50.3871 49.5634 50.7463 48.4867C51.1056 47.4099 52.2697 46.8283 53.3464 47.1875C59.276 49.1658 64.091 51.3684 67.7978 53.812C71.8079 56.4555 74.3344 60.3342 75.3284 65.33Z" fill="#E889C4"/><path d="M27.7915 43.1659C28.4957 42.2757 29.7883 42.1249 30.6785 42.8292C31.5687 43.5335 31.7194 44.826 31.0151 45.7162C28.4968 48.8994 29.0358 53.5214 32.219 56.0398C33.5728 57.1107 35.2602 57.671 36.9857 57.6225L37.2703 57.6145C38.4049 57.5825 39.3506 58.4764 39.3825 59.6111C39.4145 60.7457 38.5206 61.6914 37.3859 61.7233L37.1013 61.7314C34.4109 61.8071 31.7796 60.9334 29.6687 59.2634C24.7051 55.3366 23.8646 48.1295 27.7915 43.1659Z" fill="#E889C4"/><path d="M24.9905 48.4016C26.0854 48.1023 27.2156 48.7473 27.5149 49.8422C27.8142 50.9371 27.1692 52.0674 26.0743 52.3667L8.14603 57.2673C7.05111 57.5666 5.92088 56.9216 5.62159 55.8267C5.32229 54.7318 5.96727 53.6016 7.06219 53.3023L24.9905 48.4016Z" fill="#E889C4"/><path d="M72.155 45.0736C72.7902 44.1329 74.0677 43.8852 75.0084 44.5203C75.9492 45.1555 76.1969 46.433 75.5617 47.3737L70.1358 55.4101C69.5006 56.3508 68.2231 56.5986 67.2823 55.9634C66.3416 55.3282 66.0939 54.0507 66.7291 53.11L72.155 45.0736Z" fill="#E889C4"/><path d="M45.4266 14.541C46.0577 13.5975 47.3341 13.3442 48.2776 13.9753C49.2211 14.6064 49.4744 15.8828 48.8433 16.8263C45.9647 21.1301 47.12 26.9527 51.4238 29.8313C53.6666 31.3315 56.4471 31.7925 59.0541 31.0966L62.2394 30.2463C63.3361 29.9535 64.4624 30.6052 64.7552 31.7019C65.0479 32.7986 64.3962 33.925 63.2996 34.2177L60.1143 35.068C56.3642 36.0691 52.3647 35.4059 49.1385 33.248C42.9477 29.1072 41.2858 20.7318 45.4266 14.541Z" fill="#E889C4"/></g></svg>