<svg width="411" height="261" viewBox="0 0 411 261" fill="none" xmlns="http://www.w3.org/2000/svg"><path d="M338.575 249.584L338.626 249.731C341.394 257.538 349.696 262.111 357.899 260.066L374.671 255.884L375.019 255.793C383.576 253.424 388.663 244.722 386.526 236.153L386.424 235.763C386.139 234.728 385.756 233.735 385.286 232.796L385.191 232.612L385.273 232.567C391.158 229.166 394.656 222.458 393.661 215.377L390.205 190.791L390.504 190.554C394.732 187.143 397.87 182.688 399.535 177.668L399.666 177.261L399.989 177.036C403.997 174.163 406.933 170.044 408.306 165.255L409.824 159.961L409.923 159.602L410.031 159.184L410.116 158.828C412.421 148.735 407.371 138.548 398.273 134.176L398.026 134.06L397.972 133.905C396.549 130.034 393.742 126.837 390.079 124.952L389.885 124.855L389.959 124.371L390.042 123.739L390.108 123.182L390.164 122.644C391.754 106.327 383.495 90.8615 369.61 82.9682L369.448 82.8781L369.543 82.3509C369.577 82.1427 369.609 81.9342 369.639 81.725L369.69 81.3366L369.747 80.841L369.79 80.393C370.466 72.6332 367.644 65.1552 362.329 59.8077L362.179 59.6601L362.282 59.4282L362.428 59.0824L362.607 58.6413L362.774 58.1974L362.882 57.8911L362.967 57.6303L363.084 57.245L363.165 56.9474C365.595 47.723 359.065 38.5188 349.51 37.8389L347.601 37.7021L347.669 37.4827L347.787 37.0704C350.756 26.11 344.636 14.7924 333.878 11.3058C331.947 10.6804 329.938 10.3355 327.911 10.2811L325.698 10.2155L324.129 10.1606L322.13 10.0794L320.256 9.99019L318.935 9.91844L316.871 9.78889L315.377 9.67884L314.345 9.59288L313.382 9.50367L312.791 9.44378L311.679 9.31769L310.966 9.22469L310.545 9.1639L310.151 9.10202L309.996 9.07405L309.961 9.02218C303.347 -0.408826 290.391 -2.83245 280.807 3.59199L280.661 3.69188L280.224 3.998L279.778 4.32771L279.672 4.40879L279.316 4.68912L278.937 5.00396C277.935 5.85358 277.022 6.78312 276.204 7.78181L275.992 8.04605L275.847 7.98403C269.111 5.16886 260.937 7.48362 256.913 14.2048L256.661 14.6319L256.386 15.1153L256.148 15.5473C251.943 23.319 250.787 32.2009 252.557 40.5739L252.691 41.1821L252.566 41.151C251.853 40.9807 251.133 40.8638 250.41 40.8L249.85 40.7611L249.67 40.6475C248.341 39.8294 246.923 39.2327 245.421 38.8582L245.08 38.7778L244.672 38.6918L244.348 38.6332C237.435 37.4592 230.755 41.1618 228.016 47.3752L227.974 47.4721L227.865 47.4838C227.263 47.5569 226.666 47.6662 226.078 47.8113L225.815 47.8801L225.301 47.6868L225.146 47.6301L221.331 46.5136L221.17 46.4778L220.472 46.3305C219.305 46.098 218.126 45.9293 216.939 45.8253L216.422 45.7851L216.4 45.7557C208.869 36.1308 197.326 30.4195 184.949 30.4195H168.131L167.647 30.4225L167.071 30.4335L166.55 30.4511C154.752 30.925 143.918 36.5582 136.765 45.6408L136.467 46.0241L135.962 45.8839C121.746 42.0384 106.678 44.343 94.3267 52.1071L93.6841 52.5171L93.6666 52.5138C87.2953 51.0486 80.6731 54.4709 78.2096 60.8949L77.9843 61.5082L77.8172 61.9985L77.642 62.5584C76.9124 64.9893 76.5696 67.4793 76.6111 69.9656L76.6301 70.6011L76.1615 71.4459C74.764 74.0192 73.5897 76.6896 72.6366 79.4577L71.2182 83.577L71.0025 84.2169L70.7349 85.0507L70.4787 85.8983C70.1469 87.0298 69.8539 88.1668 69.5996 89.3083L69.5561 89.5091L64.0711 85.5231L67.1543 76.0386L67.2558 75.7117C69.4258 68.3128 65.3561 60.5875 58.0771 58.2224L43.3325 53.4316L42.8672 53.2895L42.6092 53.2179L42.2919 53.1385C35.4148 51.4997 28.4446 55.133 25.8482 61.5963L25.7791 61.7731L25.617 61.8338C14.7184 66.0174 9.21914 78.1618 13.2067 89.0865L13.3969 89.5904L13.6229 90.154L13.8136 90.5976L14.0594 91.1291C14.6467 92.3571 15.3305 93.5007 16.1091 94.5646L16.2391 94.7361L16.267 95.014C16.8741 100.485 20.5875 105.19 25.949 106.933L40.6936 111.723L41.1322 111.857L41.3921 111.929L70.5371 133.104L70.4296 133.458L70.288 133.975L70.1571 134.513L70.1472 134.518C56.2118 140.465 46.9617 154.197 46.9617 169.589L46.9711 170.43L46.9921 171.115L47.0331 171.921C47.0819 172.723 47.1544 173.511 47.2506 174.291L47.2671 174.414L16.6421 219.353L16.5131 219.547L16.2527 219.953L16.1544 220.114L15.9378 220.483L15.7031 220.914C15.4753 221.346 15.2683 221.782 15.0818 222.223L15.0471 222.307L14.8918 222.328C9.1102 223.155 4.02906 227.162 1.92208 232.951C-1.12904 241.333 3.01047 250.668 11.39 253.718L27.1488 259.454L27.4935 259.574C35.8415 262.362 44.7552 257.861 47.7507 249.631L47.9164 249.153C48.0219 248.834 48.1173 248.512 48.2028 248.188L48.3181 247.722L48.3923 247.684C50.7479 246.456 52.7961 244.662 54.3388 242.419L81.1951 203.362L83.4137 200.454L83.4691 200.383L83.583 200.251L83.6978 200.13C84.3335 199.512 85.3334 199.299 86.2262 199.604L86.3841 199.664L94.0771 209.51L86.1112 227.707L85.927 228.148C85.1933 230.009 84.8346 231.899 84.8346 233.806L84.8399 234.211C84.9181 237.177 85.8521 239.997 87.4776 242.376L87.6601 242.637L87.6263 243.062C87.603 243.42 87.5913 243.781 87.5913 244.142C87.5913 253.063 94.6738 260.419 103.591 260.419H120.361L120.721 260.414C129.52 260.182 136.361 252.903 136.361 244.142L136.357 243.786C136.256 239.049 134.137 234.686 130.717 231.726L130.565 231.597L137.767 215.15L137.893 214.847L138.217 215.021L138.366 215.098L138.719 215.273L139.143 215.464C140.131 215.895 141.13 216.214 142.139 216.425L142.452 216.485L142.636 216.639C144.492 218.15 146.652 219.19 149.005 219.69L149.503 219.787L149.862 219.846L150.27 219.901C152.84 220.213 155.364 219.877 157.671 218.964L158.085 218.791L158.228 218.806C158.538 218.831 158.843 218.845 159.149 218.85L159.493 218.852L159.977 218.842L160.382 218.82C161.279 218.759 162.157 218.621 163.009 218.413L163.529 218.274L164.569 221.133L164.56 221.15C163.057 223.99 162.571 227.262 163.252 230.467L163.888 233.462L163.882 233.47C161.328 236.38 159.858 240.154 159.858 244.162C159.858 253.115 167.115 260.372 176.068 260.372H190.813L191.29 260.364L191.677 260.349L191.969 260.331C200.475 259.694 207.024 252.651 207.024 244.162L207.018 243.739C206.971 241.911 206.619 240.131 205.991 238.46L205.859 238.122L205.875 238.1C207.795 235.106 208.528 231.417 207.756 227.785L206.348 221.162L206.302 220.966L206.165 220.427L206.008 219.92L205.946 219.734L205.832 219.41L205.685 219.032C204.77 216.782 203.336 214.872 201.525 213.416L201.333 213.266L200.424 210.767L200.566 210.79C203.508 211.244 206.514 211.32 209.52 211.004L210.136 210.933L210.971 210.821L211.715 210.702L212.098 210.632L219.074 224.324L219.031 224.551C218.419 227.923 219.053 231.392 220.895 234.339L224.487 240.087L224.603 240.265L224.859 240.639L224.984 240.812L225.074 240.932L225.291 241.214L225.398 241.347L225.608 241.6L225.872 241.897C227.296 243.459 229.004 244.646 230.877 245.415L231.206 245.544L232.671 249.082L233.289 249.893L233.549 250.214C235.743 252.862 238.662 254.715 241.894 255.579L242.037 255.614L242.26 255.83C245.291 258.69 249.273 260.313 253.508 260.313H279.072L279.429 260.309L279.751 260.297C284.995 260.064 289.576 257.404 292.413 253.427L292.495 253.308L292.638 253.515C295.585 257.691 300.447 260.419 305.947 260.419H323.232L323.587 260.415C330.394 260.242 336.124 255.96 338.426 249.99L338.575 249.584Z" fill="white"/><path d="M299.309 50.9357L272.414 19.9195C270.973 18.257 268.337 18.4844 267.209 20.3686C261.79 29.4215 262.792 41.1452 269.898 49.3396C277.003 57.534 288.445 60.161 298.141 56.0407C300.16 55.1831 300.751 52.5982 299.309 50.9357Z" fill="#58CC02"/><path d="M348.658 49.8086L307.709 46.8945C305.514 46.7383 303.811 48.7628 304.346 50.8927C306.915 61.1263 315.914 68.7072 326.732 69.4771C337.551 70.247 347.499 64.0144 351.442 54.2443C352.263 52.2108 350.853 49.9648 348.658 49.8086Z" fill="#58CC02"/><path d="M327.59 22.277L325.177 22.2053L322.892 22.123L321.26 22.0542L319.701 21.9795L318.212 21.8988L317.26 21.8416L316.338 21.7818L315.016 21.6871L314.174 21.6206L312.971 21.5159L311.839 21.4052L310.778 21.2884L310.111 21.2073L309.169 21.0806L308.58 20.9928L308.024 20.9023L307.499 20.8092L307.005 20.7134L306.544 20.615L306.114 20.5138L305.715 20.41L305.349 20.3036C305.29 20.2856 305.233 20.2675 305.177 20.2494C303.455 19.6883 301.89 18.4108 300.483 16.4168L300.25 16.0778C297.421 11.8587 291.708 10.7313 287.489 13.5596C285.775 14.7087 284.497 16.4007 283.861 18.3638L275.326 44.7031C270.676 59.0532 278.525 74.4584 292.868 79.1312C307.039 83.7478 322.258 76.1265 327.086 62.085L327.242 61.6168L336.092 34.3058C337.658 29.4738 335.01 24.2874 330.178 22.7215C329.341 22.4503 328.469 22.3005 327.59 22.277Z" fill="#58CC02"/><path d="M306.749 29.125L306.669 29.1677C303.74 30.8322 300.349 29.3618 299.087 26.8224L298.94 26.5122L298.815 26.2684C298.794 26.2299 298.774 26.1924 298.753 26.156L298.627 25.9501C297.958 24.9196 297.271 24.9673 296.566 26.0931L296.434 26.3168L296.301 26.5658L296.168 26.8401L296.034 27.1396L295.968 27.2988L295.8 27.7246L295.631 28.1898L295.496 28.5904L295.293 29.2387L295.156 29.7025L294.951 30.4455L294.814 30.9725L294.676 31.5247L294.538 32.1022L294.33 33.0158L294.122 33.9863L293.842 35.3687L293.631 36.4718L293.348 38.0311L293.064 39.6914L292.992 40.1223L303.758 43.6298L304.071 42.769L304.516 41.5269L305.064 39.962L305.56 38.5016L305.897 37.4748L306.205 36.5067L306.484 35.5973L306.734 34.7467L306.955 33.9549L307.146 33.2217L307.257 32.7656L307.355 32.3356L307.44 31.9317L307.529 31.4635L307.596 31.0361L307.636 30.7235L307.663 30.4371L307.676 30.1767C307.706 29.1463 307.397 28.7958 306.749 29.125Z" fill="#89E117"/><path d="M316.745 28.3441L316.005 28.1031C310.733 26.3855 305.073 29.1904 303.225 34.3822L303.13 34.6635L301.227 40.5346C299.491 45.8929 302.422 51.6451 307.777 53.3899L308.517 53.6309C313.789 55.3485 319.449 52.5437 321.297 47.3518L321.393 47.0705L323.295 41.1995C325.032 35.8412 322.101 30.0889 316.745 28.3441Z" fill="#89E117"/><path d="M316.137 23.6998L305.571 29.6565C305.014 29.9787 304.933 30.7514 305.411 31.1826C307.708 33.2541 311.129 33.6241 313.877 32.0361C316.625 30.448 318.015 27.2969 317.372 24.2695C317.238 23.6394 316.695 23.3776 316.137 23.6998Z" fill="#89E117"/><path d="M319.282 27.013L308.875 33.0279C308.317 33.3503 308.236 34.1232 308.714 34.5543C311.012 36.6255 314.435 36.9946 317.184 35.4055C319.934 33.8163 321.326 30.6642 320.683 27.6364C320.55 27.0063 319.84 26.6906 319.282 27.013Z" fill="#89E117"/><path d="M294.719 17.2513C294.466 16.6862 293.904 16.6153 293.454 17.0691C292.476 18.0555 291.805 19.2845 291.479 20.5926L290.472 18.3387C290.219 17.7732 289.498 17.6588 289.049 18.1127C286.888 20.2937 286.227 23.6613 287.473 26.4487C288.719 29.2362 291.562 30.7502 294.473 30.247C295.041 30.1489 295.394 29.5385 295.228 28.9966L295.188 28.8893L295.108 28.7096C296.255 29.2382 297.557 29.4229 298.874 29.195C299.439 29.0972 299.793 28.492 299.632 27.9523L299.59 27.8379L294.719 17.2513Z" fill="#89E117"/><path d="M293.361 20.7559C289.23 19.4102 284.797 21.5998 283.335 25.6589L283.251 25.9072L280.004 35.9267C278.636 40.1473 280.945 44.6783 285.163 46.0526C289.294 47.3983 293.727 45.2087 295.188 41.1496L295.273 40.9013L298.52 30.8818C299.888 26.6612 297.579 22.1302 293.361 20.7559Z" fill="#89E117"/><path d="M292.97 24.6927C289.819 23.6688 286.434 25.3934 285.41 28.5449L283.109 35.6279C282.085 38.7794 283.809 42.1642 286.961 43.1882C290.112 44.2122 293.497 42.4875 294.521 39.3361L296.822 32.253C297.846 29.1016 296.122 25.7167 292.97 24.6927Z" fill="white"/><path d="M289.698 30.7232L289.714 30.7628C289.922 31.2974 289.954 31.9051 289.763 32.4939C289.341 33.792 287.988 34.5266 286.687 34.1954L286.503 34.141L285.298 37.6422C284.775 39.1611 285.582 40.8162 287.101 41.3393C288.565 41.8436 290.157 41.1111 290.737 39.6964L290.798 39.5362L292.504 34.579C293.027 33.0601 292.22 31.405 290.701 30.8819C290.369 30.7675 290.03 30.7168 289.698 30.7232Z" fill="#4B4B4B"/><path d="M287.47 63.5729C287.585 65.2557 288.835 66.7318 290.588 67.2021C292.34 67.6724 294.16 67.02 295.1 65.6203C295.295 65.329 295.131 64.9323 294.776 64.8369L288.141 63.0567C287.786 62.9613 287.446 63.2227 287.47 63.5729Z" fill="#89E117"/><path d="M294.758 59.5294C294.873 61.2122 296.123 62.6883 297.876 63.1587C299.629 63.629 301.448 62.9765 302.388 61.5768C302.584 61.2855 302.42 60.8888 302.064 60.7934L295.43 59.0132C295.074 58.9178 294.734 59.1792 294.758 59.5294Z" fill="#89E117"/><path d="M283.8 56.5932C283.915 58.2759 285.165 59.7521 286.918 60.2224C288.67 60.6927 290.49 60.0402 291.43 58.6406C291.625 58.3492 291.461 57.9525 291.106 57.8571L284.472 56.077C284.116 55.9815 283.776 56.2429 283.8 56.5932Z" fill="#89E117"/><path d="M314.939 31.5773C311.084 30.3213 306.946 32.3611 305.576 36.1458L305.492 36.3909L304.059 40.8132C302.781 44.7571 304.938 48.9911 308.88 50.2753C312.735 51.5313 316.873 49.4915 318.243 45.7068L318.327 45.4617L319.76 41.0395C321.039 37.0955 318.881 32.8615 314.939 31.5773Z" fill="white"/><path d="M309.932 37.5268C310.009 37.7416 310.059 37.9605 310.079 38.1889C310.203 39.6052 309.157 40.8536 307.744 40.9772C307.371 41.0099 307.009 40.9607 306.676 40.8445L305.74 43.7337C305.14 45.5835 306.152 47.5693 308.001 48.1716C309.785 48.7527 311.697 47.8297 312.365 46.1009L312.432 45.914L313.662 42.1177C314.261 40.268 313.25 38.2822 311.401 37.6799C310.911 37.5205 310.412 37.4742 309.932 37.5268Z" fill="#4B4B4B"/><path d="M298.779 39.7578C296.558 39.079 294.208 40.3286 293.529 42.5489L291.898 47.8839C291.219 50.1041 292.469 52.4543 294.689 53.1331C296.91 53.8119 299.26 52.5623 299.939 50.342L301.57 45.0071C302.248 42.7868 300.999 40.4366 298.779 39.7578Z" fill="#F49000"/><path d="M297.769 41.3232C296.186 40.8392 294.51 41.7301 294.026 43.313L292.858 47.1346C292.374 48.7175 293.265 50.393 294.848 50.877C296.431 51.3609 298.106 50.47 298.59 48.8871L299.758 45.0656C300.242 43.4826 299.352 41.8071 297.769 41.3232Z" fill="#A56644"/><path d="M294.115 50.2964L294.049 50.4969C294.289 50.6586 294.556 50.788 294.848 50.877C296.431 51.361 298.106 50.4701 298.59 48.8872L298.719 48.4652C298.559 48.3859 298.39 48.3186 298.213 48.2646C296.576 47.7639 294.849 48.5874 294.184 50.1229L294.115 50.2964Z" fill="#FFAADE"/><path d="M302.369 44.3259C302.712 41.764 300.733 39.8357 298.192 39.0588C295.651 38.2819 292.944 39.4397 291.795 41.7555L291.717 41.9145L293.97 43.5504L302.346 44.5018L302.369 44.3259Z" fill="#FFC200"/><path d="M298.264 41.6616C298.609 41.9066 299.087 41.8252 299.332 41.4799C299.577 41.1345 299.496 40.6559 299.152 40.4108C298.316 39.8162 297.373 39.528 296.348 39.5536C295.925 39.5641 295.591 39.9158 295.601 40.3392C295.611 40.7625 295.961 41.0972 296.384 41.0866C297.079 41.0693 297.698 41.2585 298.264 41.6616Z" fill="#FFDE00"/><path d="M312.943 80.9842C314.505 79.5283 316.951 79.6137 318.407 81.175L322.554 85.6219C323.96 87.1291 323.929 89.4609 322.52 90.9304L322.364 91.0849C320.802 92.5408 318.356 92.4554 316.9 90.8941L312.752 86.4472C311.347 84.94 311.378 82.6082 312.786 81.1387L312.943 80.9842Z" fill="#F49000"/><path d="M195.134 74.1268C207.662 72.81 218.886 81.8988 220.203 94.4272L228.566 174.001C229.883 186.529 220.794 197.753 208.266 199.07C195.737 200.386 184.514 191.298 183.197 178.769L174.833 99.1957C173.517 86.6673 182.605 75.4436 195.134 74.1268Z" fill="#3D3D3D"/><path d="M167.871 125.282C177.142 123.814 185.848 130.139 187.317 139.411L191.767 167.507C193.235 176.779 186.91 185.485 177.638 186.953C168.367 188.422 159.661 182.096 158.192 172.825L153.742 144.728C152.274 135.457 158.599 126.75 167.871 125.282Z" fill="#3D3D3D"/><path d="M168.131 42.4194H184.949C200.363 42.4194 212.859 54.9153 212.859 70.3297V134.738C212.859 150.152 200.363 162.648 184.949 162.648H168.131C152.717 162.648 140.221 150.152 140.221 134.738V70.3297C140.221 54.9153 152.717 42.4194 168.131 42.4194Z" fill="#3D3D3D"/><path d="M204.44 58.8512L211.173 57.905C222.523 56.3098 233.018 64.218 234.613 75.5684L244.996 149.449C245.891 155.819 243.793 161.919 239.773 166.328L239.327 166.803C236.227 169.996 232.081 172.221 227.333 172.889L220.6 173.835C209.25 175.43 198.755 167.522 197.16 156.171L186.777 82.2913C185.182 70.9409 193.09 60.4464 204.44 58.8512Z" fill="#3D3D3D"/><path d="M184.156 130.449L201.437 125.166C203.327 124.588 205.405 125.907 206.079 128.111L215.048 157.449C215.722 159.653 214.737 161.909 212.847 162.487L195.566 167.77C193.677 168.348 191.598 167.029 190.924 164.825L181.955 135.487C181.281 133.283 182.266 131.027 184.156 130.449Z" fill="#FFB100"/><path d="M191.368 166.268L215.36 158.472L219.701 171.831C220.311 173.711 219.283 175.729 217.403 176.34L200.218 181.924C198.338 182.535 196.319 181.506 195.709 179.627L191.368 166.268Z" fill="#1CB0F6"/><path d="M202.181 170.933C199.423 168.535 195.242 168.827 192.844 171.586L171.95 195.621C169.552 198.38 169.844 202.561 172.603 204.959C175.362 207.357 179.543 207.065 181.941 204.306L202.834 180.271C205.233 177.512 204.94 173.331 202.181 170.933Z" fill="#1CB0F6"/><path d="M174.531 194.063C171.096 195.313 169.325 199.112 170.575 202.547L180.762 230.536C181.387 232.253 183.286 233.139 185.004 232.514L191.223 230.25C192.941 229.625 193.827 227.726 193.201 226.008L183.014 198.019C181.764 194.584 177.966 192.813 174.531 194.063Z" fill="#1CB0F6"/><path d="M210.08 165.659C206.823 167.319 205.528 171.304 207.187 174.562L233.746 226.686C234.576 228.314 236.568 228.962 238.197 228.132L244.095 225.127C245.723 224.297 246.371 222.304 245.541 220.676L218.982 168.552C217.323 165.295 213.337 164 210.08 165.659Z" fill="#1CB0F6"/><path d="M245.639 216.764L231.641 225.511C230.802 226.035 230.547 227.141 231.071 227.98L234.584 233.602C235.109 234.441 236.214 234.696 237.053 234.172L251.051 225.425C251.89 224.901 252.145 223.796 251.621 222.956L248.108 217.334C247.583 216.495 246.478 216.24 245.639 216.764Z" fill="#4CC5FF"/><path d="M192.515 222.415L176.37 225.847C175.402 226.053 174.784 227.004 174.99 227.972L176.369 234.457C176.574 235.425 177.526 236.043 178.494 235.837L194.638 232.405C195.606 232.2 196.224 231.248 196.019 230.28L194.64 223.796C194.434 222.828 193.483 222.21 192.515 222.415Z" fill="#4CC5FF"/><path d="M149.972 185.287L182.68 138.575C184.966 135.31 189.466 134.517 192.731 136.803C195.996 139.089 196.79 143.59 194.504 146.855L161.796 193.566C159.51 196.831 155.01 197.624 151.745 195.338C148.48 193.052 147.686 188.552 149.972 185.287Z" fill="#FFB100"/><path d="M168.359 69.343L198.948 65.044C206.826 63.9369 214.137 69.6231 215.279 77.7446L219.935 110.875C221.076 118.997 215.616 126.478 207.738 127.585L177.149 131.884C169.271 132.991 161.96 127.305 160.819 119.184L156.163 86.0528C155.021 77.9314 160.482 70.4502 168.359 69.343Z" fill="#A56644"/><path d="M212.016 70.2533L157.234 77.9523C159.172 73.4482 163.259 70.0598 168.359 69.343L198.948 65.044C204.048 64.3273 208.911 66.4579 212.016 70.2533Z" fill="#FFB100"/><path d="M172.959 83.15C177.573 82.5016 181.839 85.7161 182.487 90.3296L183.201 95.4109C183.85 100.024 180.635 104.29 176.022 104.938C171.408 105.587 167.142 102.372 166.494 97.7589L165.78 92.6776C165.132 88.0641 168.346 83.7984 172.959 83.15Z" fill="white"/><path d="M171.366 87.5947C173.437 87.3036 175.352 88.7467 175.643 90.8179L176.305 95.5284C176.596 97.5996 175.153 99.5147 173.082 99.8058C171.011 100.097 169.096 98.6538 168.805 96.5825L168.136 91.8217C168.254 91.819 168.373 91.8094 168.493 91.7926C170.156 91.5588 171.315 90.0208 171.081 88.3574C171.049 88.123 170.99 87.8987 170.908 87.6868C171.056 87.648 171.209 87.6167 171.366 87.5947Z" fill="#3D3D3D"/><path d="M193.157 80.3117C197.77 79.6633 202.036 82.8777 202.684 87.4912L203.398 92.5725C204.047 97.186 200.832 101.452 196.219 102.1C191.605 102.748 187.34 99.5341 186.691 94.9205L185.977 89.8393C185.329 85.2257 188.543 80.9601 193.157 80.3117Z" fill="white"/><path d="M190.67 85.0322C192.741 84.7411 194.656 86.1842 194.947 88.2554L195.609 92.9659C195.9 95.0372 194.457 96.9522 192.386 97.2433C190.315 97.5344 188.4 96.0913 188.108 94.02L187.439 89.2592C187.558 89.2565 187.677 89.2469 187.797 89.2301C189.46 88.9963 190.619 87.4583 190.385 85.7949C190.352 85.5605 190.293 85.3362 190.212 85.1243C190.36 85.0855 190.513 85.0542 190.67 85.0322Z" fill="#3D3D3D"/><path d="M204.902 96.3619C206.428 96.3702 207.658 97.6136 207.649 99.139C207.641 100.664 206.398 101.894 204.872 101.886C200.467 101.862 196.847 103.408 193.838 106.597C192.791 107.707 191.043 107.757 189.933 106.71C188.824 105.663 188.773 103.915 189.82 102.806C193.881 98.5019 198.967 96.3296 204.902 96.3619Z" fill="#A56644"/><path d="M166.688 99.9259C165.163 99.9342 163.933 101.178 163.941 102.703C163.949 104.228 165.193 105.458 166.718 105.45C171.124 105.426 174.743 106.972 177.752 110.161C178.799 111.27 180.548 111.321 181.657 110.274C182.767 109.227 182.817 107.479 181.77 106.37C177.709 102.066 172.623 99.8935 166.688 99.9259Z" fill="#A56644"/><path d="M199.027 106.127C196.627 105.278 193.999 106.476 193.05 108.81L192.971 109.019C192.037 111.658 190.672 112.777 188.231 112.97L187.965 112.987C185.348 113.12 183.333 115.349 183.466 117.966C183.598 120.584 185.827 122.598 188.445 122.466C194.957 122.137 199.688 118.487 201.918 112.184C202.792 109.713 201.498 107.002 199.027 106.127Z" fill="white"/><path d="M182.61 103.113L186.331 102.59C188.092 102.342 189.72 103.569 189.968 105.331C190.215 107.092 188.988 108.72 187.227 108.968L183.506 109.491C181.745 109.738 180.117 108.511 179.869 106.75C179.622 104.989 180.849 103.36 182.61 103.113Z" fill="#87401A"/><path d="M185.807 99.1641L189.084 106.236L180.916 105.233L185.807 99.1641Z" fill="#87401A"/><path d="M160.976 61.1664C166.554 60.3826 171.71 64.2685 172.494 69.8459L173.714 78.5272C174.498 84.1046 170.612 89.2614 165.035 90.0452C159.458 90.8291 154.301 86.9432 153.517 81.3658L152.297 72.6844C151.513 67.1071 155.399 61.9503 160.976 61.1664Z" fill="#3D3D3D"/><path d="M242.192 241.56C241.284 239.419 242.282 236.947 244.423 236.039L257.996 230.277C260.136 229.369 262.608 230.367 263.517 232.508C264.426 234.649 263.427 237.12 261.286 238.029L247.713 243.79C245.573 244.699 243.101 243.7 242.192 241.56Z" fill="#FF4B4B"/><path d="M195.024 244.162C195.024 241.836 193.139 239.951 190.813 239.951H176.068C173.743 239.951 171.857 241.836 171.857 244.162C171.857 246.487 173.743 248.372 176.068 248.372H190.813C193.139 248.372 195.024 246.487 195.024 244.162Z" fill="#FF4B4B"/><path d="M196.79 134.961L233.99 70.5297C235.982 67.0778 240.396 65.8951 243.848 67.888C247.3 69.881 248.483 74.2949 246.49 77.7468L209.291 142.178C208.7 143.201 207.392 143.551 206.37 142.96L197.573 137.882C196.55 137.291 196.2 135.983 196.79 134.961Z" fill="#FFB100"/><path d="M235.01 73.5273C238.573 76.8498 244.154 76.6549 247.477 73.092C250.799 69.5291 250.604 63.9474 247.041 60.6249C246.62 60.2317 246.115 59.8421 245.559 59.4771L245.181 59.2377C244.989 59.12 244.792 59.0056 244.591 58.8952L244.185 58.6801C243.912 58.5405 243.634 58.4091 243.353 58.2876L242.931 58.113C240.396 57.1129 237.807 56.9921 237.264 59.095L236.849 60.7333L236.735 61.1606C236.716 61.2293 236.697 61.2971 236.677 61.3643L236.555 61.7657L236.415 62.1773L236.248 62.621C235.77 63.8376 234.879 63.748 233.574 62.3521C231.34 65.8673 231.853 70.5839 235.01 73.5273Z" fill="#A56644"/><path d="M227.788 60.0478C226.48 61.1069 226.278 63.0258 227.337 64.3336L233.696 72.1859C234.755 73.4938 236.674 73.6954 237.982 72.6363C239.29 71.5772 239.491 69.6584 238.432 68.3505L232.074 60.4983C231.015 59.1904 229.096 58.9887 227.788 60.0478Z" fill="#A56644"/><path d="M242.518 50.5019C240.885 50.0947 239.231 51.0884 238.824 52.7214L236.224 63.1477C235.817 64.7806 236.811 66.4344 238.444 66.8416C240.077 67.2487 241.73 66.255 242.137 64.622L244.737 54.1958C245.144 52.5628 244.15 50.909 242.518 50.5019Z" fill="#A56644"/><path d="M250.665 53.1791C249.222 52.3123 247.35 52.7791 246.483 54.2217L240.949 63.4323C240.082 64.8749 240.549 66.7469 241.991 67.6137C243.434 68.4805 245.306 68.0137 246.173 66.5712L251.707 57.3605C252.574 55.918 252.107 54.0459 250.665 53.1791Z" fill="#A56644"/><path d="M255.662 59.3435C254.411 58.2174 252.484 58.3184 251.358 59.569L244.168 67.5545C243.042 68.8051 243.143 70.7319 244.394 71.858C245.644 72.9841 247.571 72.8831 248.697 71.6325L255.887 63.647C257.013 62.3964 256.912 60.4696 255.662 59.3435Z" fill="#A56644"/><path d="M153.928 182.395C158.8 182.395 162.749 186.344 162.749 191.215C162.749 196.087 158.8 200.036 153.928 200.036C150.212 200.036 144.063 197.562 145.734 194.487C146.571 192.946 146.935 192.382 147.396 191.215C147.876 190 147.163 189.458 145.257 189.589C146.02 185.494 149.612 182.395 153.928 182.395Z" fill="#A56644"/><path d="M139.453 187.327C139.219 185.661 140.38 184.12 142.047 183.886L152.052 182.479C153.719 182.245 155.26 183.406 155.494 185.073C155.728 186.74 154.567 188.28 152.901 188.515L142.895 189.921C141.228 190.155 139.688 188.994 139.453 187.327Z" fill="#A56644"/><path d="M143.715 204.355C142.244 203.539 141.712 201.684 142.528 200.212L147.737 190.814C148.553 189.342 150.408 188.81 151.88 189.626C153.352 190.442 153.883 192.297 153.067 193.769L147.858 203.167C147.042 204.639 145.187 205.17 143.715 204.355Z" fill="#A56644"/><path d="M151.5 207.953C149.854 207.603 148.803 205.985 149.153 204.339L151.387 193.828C151.737 192.182 153.355 191.131 155.001 191.481C156.647 191.831 157.698 193.449 157.348 195.095L155.114 205.606C154.764 207.252 153.146 208.303 151.5 207.953Z" fill="#A56644"/><path d="M159.358 206.852C157.676 206.823 156.335 205.435 156.365 203.752L156.552 193.008C156.582 191.326 157.97 189.986 159.652 190.015C161.335 190.044 162.675 191.432 162.646 193.115L162.458 203.859C162.429 205.541 161.041 206.882 159.358 206.852Z" fill="#A56644"/><path d="M285.506 133.17L305.335 139.613C311.887 141.742 315.473 148.779 313.344 155.331L310.315 164.652C308.186 171.204 301.149 174.79 294.597 172.661L274.768 166.218C268.216 164.089 264.63 157.052 266.759 150.5L269.788 141.179C271.917 134.627 278.954 131.041 285.506 133.17Z" fill="#FFB100"/><path d="M314.404 145.965L328.652 143.962C351.861 140.7 373.32 156.871 376.582 180.08L381.778 217.047C382.17 219.84 380.224 222.423 377.431 222.815L289.25 235.208C286.456 235.601 283.874 233.655 283.481 230.861L278.286 193.895C276.975 184.568 278.803 175.523 282.964 167.828C288.494 155.862 298.974 148.574 314.404 145.965Z" fill="#FFB100"/><path d="M300.078 150.396L308.919 213.301C309.244 215.617 307.788 217.736 305.666 218.034L282.143 221.34L278.286 193.895C276.975 184.568 278.803 175.523 282.964 167.828C286.567 160.032 292.272 154.221 300.078 150.396Z" fill="#FF9500"/><path d="M376.582 180.08L380.439 207.525L344.728 212.544C342.606 212.842 340.622 211.207 340.297 208.891L331.133 143.686C353.372 141.865 373.437 157.7 376.582 180.08Z" fill="#FF9500"/><path d="M319.972 180.772C322.154 180.465 323.675 178.448 323.368 176.265C323.061 174.083 321.043 172.563 318.861 172.869C316.679 173.176 315.159 175.194 315.465 177.376C315.772 179.558 317.79 181.079 319.972 180.772Z" fill="white"/><path d="M307.989 144.539C312.719 143.874 317.092 147.17 317.757 151.9L318.571 157.688C319.235 162.418 315.94 166.791 311.209 167.456C306.479 168.121 302.106 164.825 301.441 160.095L300.627 154.308C299.963 149.577 303.258 145.204 307.989 144.539Z" fill="white"/><path d="M322.237 142.537C326.967 141.872 331.341 145.168 332.006 149.898L332.819 155.685C333.484 160.415 330.188 164.789 325.458 165.454C320.728 166.119 316.354 162.823 315.689 158.093L314.876 152.305C314.211 147.575 317.507 143.201 322.237 142.537Z" fill="white"/><path d="M341.881 91.9454C349.573 93.0265 356.681 87.7029 357.755 80.0549C358.83 72.4069 353.466 65.3306 345.774 64.2495C338.081 63.1685 330.974 68.492 329.9 76.14C328.825 83.788 334.189 90.8643 341.881 91.9454Z" fill="#3D3D3D"/><path d="M320.163 85.2282L353.353 89.8928C369.24 92.1255 380.308 106.814 378.076 122.7C375.843 138.587 361.154 149.656 345.268 147.423L312.078 142.758C296.191 140.526 285.122 125.837 287.355 109.951C289.588 94.0641 304.276 82.9955 320.163 85.2282Z" fill="#3D3D3D"/><path d="M287.467 109.223L378.169 121.971C378.141 122.214 378.11 122.457 378.076 122.7C376.567 133.432 369.375 141.966 359.969 145.685L298.425 137.035C290.409 130.867 285.847 120.682 287.355 109.95C287.389 109.707 287.427 109.465 287.467 109.223Z" fill="#CAC9C9"/><path d="M332.789 92.7054C352.461 95.4702 366.168 113.659 363.403 133.332L359.35 158.605L356.548 158.217L353.815 157.853L351.15 157.514L349.412 157.302L347.704 157.101L346.026 156.91L344.379 156.731L342.762 156.563L341.176 156.405C340.914 156.38 340.654 156.355 340.395 156.331L338.095 156.124L336.601 155.999L335.136 155.886L333.703 155.784L332.299 155.692L330.926 155.612L329.584 155.542L328.272 155.484L326.991 155.436L325.74 155.4L324.519 155.374L323.329 155.359L322.17 155.356C321.979 155.356 321.789 155.357 321.601 155.358L320.487 155.371L319.404 155.395C319.226 155.4 319.049 155.405 318.874 155.411L317.836 155.451L316.829 155.502C307.074 156.06 297.185 157.899 287.162 161.017L288.11 152.157L292.162 123.32C294.927 103.647 313.116 89.9406 332.789 92.7054Z" fill="#FFCBA3"/><path d="M330.08 126.867L330.369 126.521C332.102 124.379 335.244 124.047 337.386 125.781C339.528 127.514 339.86 130.656 338.127 132.798C333.023 139.107 325.932 141.47 317.67 139.723C314.974 139.153 313.25 136.506 313.82 133.81C314.385 131.14 316.985 129.425 319.653 129.944L319.734 129.96C324.233 130.911 327.438 129.93 330.08 126.867Z" fill="#A54944"/><path d="M337.386 125.781C339.099 127.166 339.654 129.452 338.923 131.408L320.486 133.346C318.92 133.51 317.517 132.374 317.353 130.808L317.274 130.06C318.023 129.835 318.835 129.784 319.654 129.944L319.734 129.96C324.352 130.936 327.606 129.877 330.288 126.621L330.369 126.521C332.102 124.379 335.244 124.047 337.386 125.781Z" fill="white"/><path d="M327.565 135.565C329.477 135.732 331.185 136.523 332.505 137.719C328.688 139.96 324.244 140.74 319.351 140.024C320.897 137.116 324.076 135.26 327.565 135.565Z" fill="#E45951"/><path d="M308.497 86.6792L360.527 93.9915L359.334 102.476L307.304 95.1641L308.497 86.6792Z" fill="#3D3D3D"/><path d="M327.424 147.412C327.849 147.293 328.289 147.541 328.408 147.966C328.526 148.39 328.279 148.83 327.854 148.949C322.933 150.325 318.747 149.045 315.436 145.152C315.151 144.817 315.191 144.313 315.527 144.028C315.863 143.742 316.366 143.783 316.652 144.118C319.559 147.537 323.103 148.62 327.424 147.412Z" fill="#F7B286"/><path d="M304.321 112.902C303.886 112.971 303.589 113.38 303.658 113.815C303.727 114.25 304.136 114.547 304.571 114.478C306.026 114.248 307.385 114.415 308.665 114.985L308.872 115.082L308.452 115.299C307.038 116.048 305.861 116.885 304.924 117.812L304.649 118.093C304.347 118.413 304.362 118.919 304.683 119.221C305.004 119.523 305.509 119.508 305.811 119.187C306.981 117.946 308.671 116.85 310.886 115.909C311.458 115.666 311.545 114.891 311.041 114.528C309.01 113.063 306.755 112.516 304.321 112.902Z" fill="#F3A577"/><path d="M299.791 92.9494L307.133 90.8283C308.938 90.5585 310.62 91.803 310.89 93.608C310.937 93.9223 310.938 94.2417 310.894 94.5564L309.46 104.759C308.877 108.906 305.044 111.794 300.897 111.212L293.819 110.217C291.598 109.905 291.257 108.873 291.509 107.345L291.567 107.033C291.578 106.98 291.589 106.926 291.601 106.872L291.721 106.37L292.222 104.51L292.324 104.106L292.421 103.693L292.511 103.27C292.554 103.057 292.594 102.84 292.628 102.62L292.699 102.132C293.347 97.5211 295.186 93.6377 299.791 92.9494Z" fill="#3D3D3D"/><path d="M354.58 96.7504L363.268 100.84C367.709 102.931 370.271 107.67 369.588 112.53L369.494 113.197C368.911 117.343 365.078 120.232 360.932 119.649L354.814 118.789C350.668 118.207 347.779 114.373 348.362 110.227L349.9 99.2804C350.154 97.4731 351.826 96.2139 353.633 96.4679C353.961 96.514 354.28 96.6093 354.58 96.7504Z" fill="#3D3D3D"/><path d="M319.182 101.115C326.69 100.022 333.638 100.998 339.964 104.055C341.17 104.637 341.675 106.087 341.093 107.293C340.51 108.499 339.06 109.004 337.854 108.422C332.421 105.797 326.451 104.958 319.881 105.915C318.556 106.108 317.325 105.19 317.132 103.864C316.939 102.539 317.857 101.308 319.182 101.115Z" fill="#3D3D3D"/><path d="M327.83 119.245C328.986 115.784 332.728 113.915 336.19 115.07C337.704 115.576 338.983 116.612 339.792 117.988C340.101 118.512 339.926 119.187 339.401 119.496C338.877 119.804 338.202 119.629 337.893 119.105C337.354 118.188 336.501 117.497 335.492 117.16C333.185 116.39 330.69 117.636 329.92 119.943C329.727 120.52 329.103 120.831 328.526 120.639C327.949 120.446 327.637 119.822 327.83 119.245Z" fill="#CC7C4D"/><path d="M313.151 114.243C315.797 111.73 319.979 111.837 322.492 114.482C323.592 115.639 324.235 117.155 324.304 118.749C324.33 119.357 323.858 119.871 323.25 119.897C322.643 119.923 322.129 119.452 322.103 118.844C322.057 117.781 321.628 116.771 320.895 116C319.22 114.236 316.432 114.165 314.669 115.841C314.228 116.26 313.53 116.242 313.111 115.801C312.692 115.36 312.71 114.663 313.151 114.243Z" fill="#CC7C4D"/><path d="M320.38 127.134C322.12 128.138 324.353 127.527 325.368 125.769C325.77 125.074 325.895 123.719 325.9 122.335L325.897 121.846L325.877 121.122L325.856 120.655L325.83 120.206L325.77 119.39L325.671 118.355L325.634 118.033L324.974 118.324L324.402 118.589L323.715 118.92L323.213 119.172C323.127 119.216 323.04 119.261 322.953 119.306L322.423 119.589C321 120.366 319.541 121.312 319.068 122.131C318.053 123.889 318.64 126.129 320.38 127.134Z" fill="#E89665"/><path d="M348.834 119.158C349.233 119.344 349.406 119.819 349.22 120.218C349.033 120.618 348.559 120.79 348.159 120.604C346.824 119.982 345.472 119.768 344.084 119.963L343.859 119.999L344.203 120.323C345.355 121.434 346.255 122.562 346.901 123.712L347.088 124.057C347.29 124.449 347.136 124.93 346.744 125.132C346.353 125.334 345.871 125.181 345.669 124.789C344.887 123.273 343.565 121.754 341.695 120.239C341.212 119.848 341.342 119.079 341.927 118.868C344.283 118.02 346.601 118.117 348.834 119.158Z" fill="#F3A577"/><path d="M371.154 146.725C380.946 146.725 388.884 153.876 388.884 162.697V169.307C388.884 178.128 380.946 185.279 371.154 185.279C361.361 185.279 353.423 178.128 353.423 169.307V162.697C353.423 153.876 361.361 146.725 371.154 146.725Z" fill="#FFB100"/><path d="M378.334 138.326C379.005 135.987 381.445 134.634 383.784 135.305C386.123 135.976 387.475 138.416 386.805 140.755L386.181 142.931C386.539 142.992 386.898 143.073 387.256 143.176L391.492 144.391C396.755 145.9 399.798 151.39 398.289 156.653L396.771 161.947C395.262 167.21 389.772 170.253 384.508 168.744L380.273 167.53C375.01 166.021 371.967 160.531 373.476 155.267L378.334 138.326Z" fill="#FFCBA3"/><path d="M261.675 243.941C261.675 241.527 263.632 239.569 266.046 239.569H279.072C281.487 239.569 283.444 241.527 283.444 243.941C283.444 246.355 281.487 248.313 279.072 248.313H266.046C263.632 248.313 261.675 246.355 261.675 243.941Z" fill="#593F86"/><path d="M249.137 243.941C249.137 241.527 251.094 239.569 253.508 239.569H266.534C268.949 239.569 270.906 241.527 270.906 243.941C270.906 246.355 268.949 248.313 266.534 248.313H253.508C251.094 248.313 249.137 246.355 249.137 243.941Z" fill="#593F86"/><path d="M269.335 58.7668C286.606 59.37 300.869 72.4557 302.954 89.6118L309.209 141.079C309.325 142.033 308.645 142.901 307.69 143.017C307.601 143.028 307.51 143.032 307.419 143.029L229.095 140.294C228.133 140.26 227.382 139.454 227.415 138.493C227.417 138.428 227.423 138.363 227.433 138.299L234.95 87.4136C237.448 70.5038 252.252 58.1703 269.335 58.7668Z" fill="#A570FF"/><path d="M264.502 121.299L278.609 123.786C279.216 123.893 279.644 124.34 279.566 124.785L272.702 163.713C272.623 164.158 272.068 164.432 271.461 164.325L257.354 161.837C256.747 161.73 256.319 161.283 256.397 160.838L263.261 121.91C263.339 121.465 263.895 121.192 264.502 121.299Z" fill="#593F86"/><path d="M295.797 83.317L298.351 82.958C301.97 82.4495 305.316 84.9707 305.824 88.5894C306.333 92.2081 303.812 95.5539 300.193 96.0624L297.639 96.4214C294.02 96.9299 290.675 94.4087 290.166 90.79C289.657 87.1713 292.179 83.8255 295.797 83.317Z" fill="#FFC6B7"/><path d="M265.791 64.0973C280.256 62.0644 293.941 71.2185 297.584 85.364L303.488 108.29C305.44 115.871 300.878 123.598 293.297 125.551C292.783 125.683 292.261 125.787 291.735 125.861L256.393 130.828C248.642 131.917 241.474 126.516 240.385 118.765C240.291 118.097 240.245 117.424 240.247 116.75L240.317 93.3128C240.362 78.5945 251.216 66.1457 265.791 64.0973Z" fill="#FFC6B7"/><path d="M296.921 83.1552L296.922 83.1587L276.933 85.968C265.662 87.5521 255.229 79.8279 253.405 68.6511C257.028 66.1378 261.232 64.3777 265.791 63.6172C280.209 61.2121 292.727 70.0383 296.921 83.1552Z" fill="#A570FF"/><path d="M285.562 86.4761L277.982 87.5415C273.185 88.2156 269.843 92.6509 270.517 97.4479L271.367 103.496C271.696 105.836 273.859 107.466 276.199 107.137L280.648 106.512C285.445 105.838 288.787 101.403 288.113 96.6055L286.823 87.426C286.737 86.8156 286.173 86.3903 285.562 86.4761Z" fill="white"/><path d="M285.465 88.6274L286.139 93.4213C286.442 95.5749 284.941 97.5661 282.788 97.8688C280.634 98.1714 278.643 96.671 278.34 94.5173L277.669 89.7422C277.869 89.7014 278.072 89.6665 278.277 89.6377L285.465 88.6274Z" fill="#3D3D3D"/><path d="M285.563 86.4761C286.173 86.3903 286.737 86.8156 286.823 87.426L287.626 93.1419L270.456 95.5551C270.757 91.5807 273.755 88.2044 277.839 87.5628L277.982 87.5415L285.563 86.4761Z" fill="#A570FF"/><path d="M250.82 91.3589L258.401 90.2935C263.198 89.6193 267.633 92.9615 268.307 97.7585L269.131 103.622C269.475 106.064 267.773 108.322 265.332 108.665L261.067 109.264C256.27 109.938 251.835 106.596 251.16 101.799L249.87 92.6195C249.785 92.0091 250.21 91.4446 250.82 91.3589Z" fill="white"/><path d="M267.241 95.2591L267.372 96.1929C267.674 98.3465 266.174 100.338 264.02 100.64C261.866 100.943 259.875 99.4426 259.573 97.289L258.884 92.3912C258.837 92.0552 258.834 91.7232 258.87 91.4009C262.334 91.0289 265.553 92.6174 267.241 95.2591Z" fill="#3D3D3D"/><path d="M267.845 95.9219L250.674 98.3351L249.87 92.6195C249.785 92.009 250.21 91.4446 250.82 91.3589L258.401 90.2935C262.558 89.7093 266.443 92.141 267.845 95.9219Z" fill="#A570FF"/><path d="M275.963 108.871C278.763 104.985 283.692 102.823 290.583 102.242C291.858 102.135 292.978 103.082 293.086 104.356C293.193 105.631 292.246 106.752 290.972 106.859C285.306 107.336 281.612 108.957 279.722 111.579C278.974 112.617 277.527 112.853 276.489 112.105C275.451 111.357 275.215 109.909 275.963 108.871Z" fill="#FFC6B7"/><path d="M276.733 117.447C278.561 112.261 281.139 109.895 284.436 111C285.038 111.202 285.362 111.853 285.161 112.455C284.959 113.057 284.308 113.381 283.706 113.18C281.957 112.593 280.366 114.053 278.901 118.211C278.69 118.809 278.034 119.123 277.435 118.913C276.836 118.702 276.522 118.045 276.733 117.447Z" fill="#EE9583"/><path d="M269.177 113.318C271.127 113.386 272.764 111.869 272.832 109.929C272.855 109.25 272.458 108.232 271.931 107.195L271.698 106.75L271.454 106.309C271.413 106.236 271.371 106.163 271.33 106.091L271.08 105.665L270.831 105.257L270.474 104.689L269.877 103.784L269.527 103.278L269.083 103.834L268.835 104.155L268.397 104.736L268.076 105.178L267.742 105.652C267.574 105.895 267.404 106.147 267.239 106.403L266.917 106.917C266.29 107.948 265.791 108.98 265.767 109.682C265.699 111.622 267.226 113.249 269.177 113.318Z" fill="#EE9583"/><path d="M244.379 71.0113L244.805 70.5933L254.87 66.411C255.935 65.9682 257.158 66.4731 257.601 67.5387C257.707 67.7928 257.761 68.0653 257.761 68.3405V132.001C257.761 132.962 256.981 133.742 256.02 133.742H236.254C235.1 133.742 234.165 132.806 234.165 131.652V95.6506C234.165 86.4 237.845 77.5376 244.379 71.0113Z" fill="#A570FF"/><path d="M254.508 162.883H268.939C269.506 162.883 269.975 163.326 270.006 163.893L273.809 232.856C273.841 233.446 273.39 233.95 272.8 233.983C272.78 233.984 272.761 233.984 272.741 233.984H258.31C257.743 233.984 257.274 233.541 257.243 232.974L253.44 164.011C253.408 163.421 253.859 162.917 254.449 162.884C254.468 162.883 254.488 162.883 254.508 162.883Z" fill="#A570FF"/><path d="M270.027 133.48L270.642 133.656C273.427 134.455 275.63 136.591 276.514 139.35L284.629 164.68C285.743 168.156 283.827 171.877 280.351 172.991C279.106 173.39 277.77 173.41 276.513 173.05L244.172 163.776C240.664 162.77 238.635 159.11 239.641 155.601C240.001 154.344 240.727 153.222 241.725 152.378L262.03 135.197C264.242 133.325 267.242 132.681 270.027 133.48Z" fill="#593F86"/><path d="M251.798 151.712C254.572 149.841 258.338 150.573 260.209 153.347C262.08 156.121 261.348 159.887 258.574 161.758C255.8 163.629 252.034 162.897 250.163 160.123C248.292 157.349 249.024 153.583 251.798 151.712Z" fill="#FFC6B7"/><path d="M247.175 153.404L277.881 162.209C280.805 163.047 282.496 166.097 281.658 169.021C280.819 171.945 277.769 173.636 274.845 172.797L244.138 163.992C241.214 163.154 239.524 160.104 240.362 157.18C241.201 154.256 244.251 152.565 247.175 153.404Z" fill="#593F86"/><path d="M281.769 162.58L269.137 153.735C264.239 150.306 257.521 151.416 253.979 156.185L253.795 156.44L275.451 171.603C277.943 173.348 281.377 172.742 283.122 170.251C284.866 167.759 284.261 164.325 281.769 162.58Z" fill="#593F86"/><path d="M276.758 162.913C275.458 163.893 273.61 163.633 272.63 162.333C272.562 162.243 272.5 162.15 272.443 162.053L268.271 154.96L270.903 154.882C273.32 154.809 275.621 155.914 277.077 157.845L277.408 158.285C278.506 159.743 278.215 161.815 276.758 162.913Z" fill="#FFC6B7"/><path d="M39.4514 82.4701L103.75 129.186C104.705 129.88 104.917 131.217 104.223 132.173L100.452 137.363C99.7579 138.318 98.4206 138.53 97.4652 137.836L33.1668 91.1201C32.2113 90.4259 31.9995 89.0886 32.6937 88.1332L36.4645 82.9432C37.1586 81.9877 38.4959 81.7759 39.4514 82.4701Z" fill="#1CB0F6"/><path d="M137.191 165.152L125.928 138.619C124.76 135.866 121.58 134.582 118.828 135.75C116.075 136.919 114.79 140.098 115.959 142.851L127.221 169.384C128.39 172.137 131.569 173.422 134.322 172.253C137.075 171.084 138.359 167.905 137.191 165.152Z" fill="#1CB0F6"/><path d="M142.818 137.644L127.72 164.663C126.261 167.276 127.206 170.564 129.833 172.008C132.459 173.452 135.772 172.505 137.231 169.893L150.762 145.679C152.221 143.067 151.275 139.779 148.649 138.335L145.828 136.784C144.76 136.196 143.412 136.582 142.818 137.644Z" fill="#1CB0F6"/><path d="M99.5913 244.142C99.5913 241.78 101.382 239.865 103.591 239.865H120.361C122.57 239.865 124.361 241.78 124.361 244.142C124.361 246.504 122.57 248.419 120.361 248.419H103.591C101.382 248.419 99.5913 246.504 99.5913 244.142Z" fill="#FF86D0"/><path d="M13.1985 237.055C14.0064 234.835 16.3441 233.648 18.4199 234.404L34.1787 240.14C36.2545 240.895 37.2824 243.307 36.4745 245.527C35.6667 247.746 33.329 248.933 31.2532 248.177L15.4944 242.442C13.4186 241.686 12.3907 239.274 13.1985 237.055Z" fill="#FF86D0"/><path d="M85.1573 143.459C99.6246 143.459 111.353 155.158 111.353 169.589C111.353 179.452 105.875 188.039 97.7879 192.487L92.8973 189.546C86.5206 185.712 78.329 187.333 73.8725 193.177C65.0538 188.971 58.9619 179.99 58.9619 169.589C58.9619 155.158 70.69 143.459 85.1573 143.459Z" fill="#FFB7E3"/><path d="M113.358 124.791L113.427 147.416C113.438 151.226 110.36 154.324 106.55 154.336C105.495 154.339 104.453 154.1 103.505 153.637L85.5642 144.887C82.1401 143.217 80.7181 139.088 82.3882 135.663C82.8507 134.715 83.5245 133.886 84.3579 133.239L102.229 119.364C105.239 117.027 109.572 117.573 111.908 120.582C112.843 121.787 113.353 123.267 113.358 124.791Z" fill="#1CB0F6"/><path d="M81.8669 140.226L107.712 154.208L107.218 155.669L79.4126 144.181L81.8669 140.226Z" fill="#FF86D0"/><path d="M89.4437 144.323L86.5968 150.717L83.1143 149.167L86.0811 142.503L89.4437 144.323Z" fill="#FFB7E3"/><path d="M101.936 151.078L99.5323 156.476L96.0498 154.926L98.5715 149.262L101.936 151.078Z" fill="#FFB7E3"/><path d="M120.968 138.618L116.016 137.745C114.334 137.448 112.731 138.564 112.436 140.237C112.409 140.393 112.394 140.55 112.39 140.708L112.044 158.103C112.014 159.62 113.1 160.935 114.602 161.2L122.192 162.538C123.874 162.835 125.477 161.719 125.772 160.045C125.825 159.741 125.833 159.431 125.793 159.124L123.501 141.263C123.329 139.925 122.302 138.853 120.968 138.618Z" fill="#FFB7E3"/><path d="M135.438 58.2685C156.577 65.5472 167.812 88.5842 160.534 109.723L159.115 113.842C151.837 134.981 128.8 146.217 107.661 138.939C86.5218 131.66 75.2859 108.623 82.5646 87.4839L83.983 83.3646C91.2617 62.2257 114.299 50.9898 135.438 58.2685Z" fill="#FFB7E3"/><path fill-rule="evenodd" clip-rule="evenodd" d="M145.584 115.904C146.332 116.644 146.339 117.851 145.599 118.6C132.438 131.915 114.558 136.808 91.7478 128.822C89.9886 127.004 88.4131 125.031 87.0347 122.936C87.1831 122.96 87.3306 123.003 87.4747 123.065C111.576 133.419 129.704 129.258 142.888 115.92C143.628 115.171 144.835 115.164 145.584 115.904Z" fill="#FF9BD8"/><path d="M129.353 66.0712C146.619 70.3762 157.127 87.8636 152.822 105.13C148.517 122.397 131.029 132.905 113.762 128.599C96.4957 124.294 85.9883 106.807 90.2933 89.5403C94.5984 72.2736 112.086 61.7661 129.353 66.0712Z" fill="#E18E70"/><path d="M129.353 66.0712C136.553 67.8665 142.578 71.9543 146.844 77.3627C138.465 80.7491 120.017 91.2888 95.2398 80.2821C94.9829 80.168 94.7212 80.0357 94.4585 79.8895C101.721 68.6042 115.607 62.644 129.353 66.0712Z" fill="#3D3D3D"/><path d="M122.896 93.0911C119.683 95.6099 119.122 100.255 121.642 103.465C123.303 105.582 125.889 106.547 128.379 106.237L128.361 106.267L128.577 106.209C129.091 106.132 129.602 105.999 130.099 105.809L131.436 105.47L131.987 105.334L133.051 105.08L134.063 104.849C134.391 104.776 134.711 104.706 135.023 104.641C135.573 104.594 136.112 104.484 136.63 104.318C136.821 104.273 136.98 104.216 137.107 104.147C139.259 103.291 140.977 101.441 141.565 99.0196C142.526 95.0535 140.089 91.0593 136.12 90.0977C131.405 88.9563 126.787 90.0411 122.896 93.0911Z" fill="white"/><path d="M118.873 92.0881C120.527 95.8204 118.842 100.185 115.11 101.837C112.649 102.926 109.913 102.564 107.86 101.121L107.862 101.156L107.699 101.004C107.28 100.694 106.892 100.336 106.543 99.9358L105.521 99.0087C105.236 98.7525 104.957 98.5038 104.684 98.2625L103.882 97.5611L103.114 96.9045C102.989 96.7987 102.865 96.6949 102.743 96.5929C102.279 96.2931 101.855 95.9432 101.475 95.5535C101.328 95.4237 101.215 95.2988 101.135 95.1786C99.6364 93.4125 98.9883 90.9717 99.606 88.5583C100.619 84.605 104.646 82.2226 108.602 83.2367C113.301 84.4427 116.87 87.5686 118.873 92.0881Z" fill="white"/><path d="M114.374 90.6C116.926 91.2361 118.507 93.7645 117.995 96.3162L117.944 96.5414L117.373 98.8311C116.719 101.458 114.059 103.056 111.432 102.401C108.881 101.765 107.299 99.2365 107.811 96.6848L107.862 96.4597L108.433 94.1699C108.492 93.9336 108.567 93.7056 108.657 93.4868C109.029 93.8734 109.51 94.1623 110.068 94.3014C111.658 94.6978 113.269 93.7266 113.667 92.132C113.809 91.5621 113.777 90.9896 113.604 90.4712C113.86 90.4933 114.117 90.5358 114.374 90.6Z" fill="#3D3D3D"/><path d="M127.739 93.8075C130.291 94.4436 131.872 96.972 131.36 99.5237L131.309 99.7489L130.738 102.039C130.083 104.665 127.423 106.263 124.797 105.609C122.245 104.972 120.664 102.444 121.176 99.8924L121.227 99.6672L121.798 97.3774C121.857 97.1411 121.932 96.9131 122.022 96.6943C122.394 97.0809 122.875 97.3698 123.433 97.5089C125.023 97.9054 126.634 96.9341 127.032 95.3395C127.174 94.7696 127.142 94.1971 126.969 93.6787C127.224 93.7008 127.482 93.7433 127.739 93.8075Z" fill="#3D3D3D"/><path d="M95.2617 96.8142L95.7552 91.2085L96.1559 91.25L96.6154 91.31L97.1312 91.3899L97.7003 91.4909C97.7994 91.5096 97.9006 91.5292 98.0039 91.5498L98.6478 91.6848L99.3381 91.8441L100.072 92.029C103.2 92.8498 106.295 94.1055 109.155 95.8999C113.195 98.4349 116.415 101.836 118.502 106.198L118.729 106.687L113.6 109.003C112.008 105.476 109.461 102.736 106.164 100.667C103.829 99.2019 101.254 98.1572 98.6436 97.4721C97.7296 97.2322 96.8803 97.0554 96.1219 96.9324L95.5166 96.8432L95.2617 96.8142Z" fill="#E18E70"/><path d="M117.91 102.191C124.951 99.7458 132.124 99.7552 139.293 102.21C141.248 102.88 142.291 105.008 141.621 106.963C140.952 108.918 138.824 109.961 136.868 109.291C131.273 107.375 125.817 107.368 120.365 109.261C118.413 109.939 116.281 108.906 115.603 106.954C114.925 105.001 115.958 102.869 117.91 102.191Z" fill="#E18E70"/><path d="M113.657 106.937C115.118 107.815 117.005 107.356 117.872 105.913C118.153 105.445 118.281 104.603 118.325 103.678L118.34 103.21C118.341 103.132 118.342 103.053 118.343 102.974L118.341 102.501L118.33 102.034L118.301 101.364L118.262 100.754L118.207 100.083L118.145 99.468L117.58 99.6981L117.028 99.9356L116.591 100.131C116.515 100.166 116.437 100.202 116.357 100.239L115.869 100.471C114.54 101.119 113.036 101.979 112.582 102.735C111.715 104.178 112.196 106.059 113.657 106.937Z" fill="#9E4D31"/><path d="M108.912 104.621C107.624 103.754 105.933 103.778 104.67 104.68C103.056 105.832 102.637 108.036 103.681 109.692L103.803 109.874L104.104 110.295L103.71 110.631C102.588 111.588 102.142 113.111 102.554 114.513L102.627 114.733C103.328 116.666 105.463 117.665 107.396 116.963C107.935 116.768 108.213 116.173 108.018 115.634C107.838 115.137 107.317 114.862 106.814 114.976L106.689 115.013C105.833 115.323 104.888 114.881 104.577 114.025C104.361 113.429 104.507 112.766 104.942 112.317L105.057 112.209L106.174 111.256C106.55 110.935 106.643 110.401 106.415 109.976L106.345 109.864L105.492 108.668C104.963 107.927 105.134 106.898 105.875 106.369C106.392 106 107.069 105.963 107.619 106.261L107.753 106.342C108.229 106.662 108.873 106.536 109.193 106.061C109.513 105.586 109.387 104.941 108.912 104.621Z" fill="#B66447"/><path d="M113.071 75.1383L106.711 76.5679L107.672 77.3323C108.516 78.0194 108.445 79.3372 107.532 79.9349C103.144 82.8064 97.3341 82.5277 93.1721 79.1409C89.0101 75.7542 87.531 70.1017 89.4139 65.1916C89.8058 64.1696 90.7826 63.8732 91.627 64.5603L95.3278 67.5065C98.8154 69.7771 101.8 69.5687 104.519 68.8931L105.01 68.7656L105.496 68.6304L106.452 68.348L107.39 68.0674L107.852 67.9345C107.929 67.913 108.006 67.8919 108.082 67.8711C110.691 67.1636 112.354 69.586 113.071 75.1383Z" fill="#3D3D3D"/><path d="M77.4344 175.841L64.2024 174.838C62.6137 174.718 61.0817 175.455 60.1845 176.772L26.5583 226.111C25.1726 228.144 25.6975 230.916 27.7307 232.301C27.9723 232.466 28.2296 232.607 28.4987 232.721L39.0394 237.196C40.9887 238.023 43.2511 237.364 44.4511 235.619L80.7686 182.807C82.1628 180.78 81.6495 178.006 79.6222 176.612C78.9738 176.166 78.219 175.9 77.4344 175.841Z" fill="#FFB7E3"/><path d="M112.915 201.196H120.797C124.4 201.196 127.322 204.117 127.322 207.72C127.322 208.621 127.135 209.512 126.774 210.337L116.356 234.132C115.59 235.883 113.86 237.014 111.949 237.014H100.042C98.2706 237.014 96.8345 235.578 96.8345 233.806C96.8345 233.363 96.9261 232.925 97.1037 232.52L109.977 203.117C110.488 201.95 111.641 201.196 112.915 201.196Z" fill="#FFB7E3"/><path d="M94.0385 173.761C98.3815 170.368 104.653 171.138 108.046 175.481L126.039 198.511C129.432 202.854 128.662 209.125 124.319 212.518C119.976 215.911 113.704 215.141 110.311 210.798L92.3186 187.769C88.9254 183.426 89.6955 177.155 94.0385 173.761Z" fill="#FFB7E3"/><path d="M157.041 137.682L157.105 137.849C158.957 142.672 156.548 148.084 151.724 149.935C146.9 151.787 141.489 149.378 139.637 144.554L139.573 144.388C137.721 139.564 140.131 134.153 144.955 132.301C149.778 130.449 155.19 132.859 157.041 137.682Z" fill="#D88669"/><path d="M151.816 133.312L153.855 123.852C154.21 122.209 153.158 120.595 151.505 120.249C149.853 119.903 148.226 120.955 147.872 122.599L145.832 132.059C145.478 133.703 146.53 135.316 148.182 135.662C149.835 136.008 151.461 134.956 151.816 133.312Z" fill="#D88669"/><path d="M154.655 137.305L161.276 130.247C162.426 129.02 162.355 127.096 161.117 125.948C159.879 124.8 157.943 124.864 156.793 126.09L150.172 133.149C149.022 134.375 149.093 136.3 150.331 137.448C151.569 138.595 153.505 138.531 154.655 137.305Z" fill="#D88669"/><path d="M39.6245 64.8443L54.3691 69.6351C55.4923 70 56.107 71.2064 55.742 72.3296L47.0965 98.9377C46.7316 100.061 45.5252 100.676 44.402 100.311L29.6574 95.5198C28.5342 95.1549 27.9195 93.9485 28.2844 92.8253L36.9299 66.2172C37.2949 65.094 38.5013 64.4793 39.6245 64.8443Z" fill="#3D3D3D"/><path d="M40.323 74.1994L38.9345 73.1429C38.5429 72.8449 38.467 72.2859 38.765 71.8943C38.8836 71.7383 39.0504 71.6259 39.2394 71.5743L40.9226 71.1148L41.4983 69.4678C41.6607 69.0033 42.1689 68.7584 42.6334 68.9208C42.8184 68.9854 42.9769 69.1093 43.0844 69.2731L44.0415 70.7319L45.7858 70.7705C46.2777 70.7814 46.6677 71.189 46.6568 71.681C46.6525 71.8769 46.5837 72.0659 46.4611 72.2188L45.3695 73.5798L45.8718 75.2506C46.0134 75.7219 45.7463 76.2188 45.275 76.3604C45.0874 76.4168 44.8863 76.4098 44.7031 76.3405L43.0713 75.7228L41.6375 76.7169C41.2331 76.9972 40.6779 76.8967 40.3976 76.4923C40.2859 76.3312 40.2305 76.1379 40.2398 75.9421L40.323 74.1994Z" fill="#FF72C8"/><path d="M45.7426 75.2339L47.3576 74.4808C47.8928 74.2312 48.529 74.4628 48.7785 74.998L49.5316 76.613C49.7812 77.1482 49.5496 77.7843 49.0145 78.0339L47.3994 78.787C46.8642 79.0366 46.2281 78.805 45.9785 78.2698L45.2254 76.6548C44.9759 76.1196 45.2074 75.4835 45.7426 75.2339Z" fill="#47D7FF"/><path d="M38.0297 93.2395C37.6292 92.0763 38.2474 90.8087 39.4106 90.4082L41.601 89.6539C42.7642 89.2534 44.0318 89.8717 44.4324 91.0349C44.8329 92.1981 44.2146 93.4657 43.0514 93.8662L40.861 94.6204C39.6978 95.021 38.4302 94.4027 38.0297 93.2395Z" fill="#9069CD"/><path d="M41.1437 82.408L44.7655 80.7955C45.1652 80.6175 45.6335 80.7973 45.8115 81.197C45.8727 81.3346 45.8935 81.4867 45.8714 81.6356L45.7197 82.6583L48.1632 83.2809C48.5872 83.3889 48.8434 83.8202 48.7353 84.2443C48.72 84.3042 48.6978 84.3622 48.669 84.417L46.6381 88.2842C46.628 88.3034 46.6172 88.322 46.6057 88.34C46.1883 89.1485 45.5089 89.8222 44.6207 90.2176C42.511 91.1569 40.0223 90.1702 39.0621 88.0136C38.1019 85.8571 39.0339 83.3473 41.1437 82.408Z" fill="#FF9600"/><path d="M42.4978 84.8074L42.688 84.8489L44.4791 85.3108C44.6606 85.3575 44.7697 85.5426 44.723 85.724C44.7165 85.7491 44.7072 85.7733 44.6953 85.7962L43.8331 87.4487L43.8258 87.4607C43.6496 87.8075 43.3606 88.0963 42.9818 88.2649C42.0867 88.6635 41.029 88.2404 40.6192 87.3201C40.2095 86.3998 40.6029 85.3307 41.498 84.9322C41.8227 84.7876 42.1689 84.7512 42.4978 84.8074Z" fill="#FFC800"/><path d="M42.0042 78.4182L42.0681 78.5845C43.9198 83.4082 41.5104 88.8197 36.6867 90.6713C31.863 92.523 26.4515 90.1137 24.5999 85.2899L24.536 85.1236C22.6844 80.2999 25.0937 74.8884 29.9174 73.0368C34.7411 71.1851 40.1526 73.5944 42.0042 78.4182Z" fill="#D88669"/><path d="M242.66 125.194L249.058 123.599C255.742 121.933 262.512 126 264.179 132.685C265.846 139.37 261.778 146.14 255.093 147.806L248.696 149.401C242.011 151.068 235.241 147 233.575 140.316C231.908 133.631 235.976 126.861 242.66 125.194Z" fill="#FFB100"/><path d="M267.652 131.25C270.66 135.39 269.742 141.185 265.602 144.193L263.151 145.974C259.01 148.982 253.215 148.064 250.207 143.924C247.199 139.784 248.117 133.989 252.257 130.981L254.708 129.2C258.849 126.192 264.643 127.11 267.652 131.25Z" fill="#FFCBA3"/><path d="M305.947 239.865H323.232C325.594 239.865 327.509 241.78 327.509 244.142C327.509 246.504 325.594 248.419 323.232 248.419H305.947C303.585 248.419 301.67 246.504 301.67 244.142C301.67 241.78 303.585 239.865 305.947 239.865Z" fill="#FF9500"/><path d="M352.927 240.123L369.698 235.941C371.99 235.37 374.311 236.764 374.883 239.056C375.454 241.348 374.06 243.669 371.768 244.241L354.996 248.422C352.704 248.994 350.383 247.599 349.811 245.307C349.24 243.015 350.635 240.694 352.927 240.123Z" fill="#FF9500"/></svg>