<svg width="751" height="324" viewBox="0 0 751 324" fill="none" xmlns="http://www.w3.org/2000/svg"><path opacity="0.2" d="M689.579 180.09C729.222 189.796 742.5 235.074 713.479 261.591L603.29 362.271C574.269 388.788 524.715 376.655 514.092 340.433L473.76 202.901C463.138 166.679 499.414 133.533 539.057 143.238L689.579 180.09Z" fill="#84D8FF"/><path opacity="0.2" d="M675.853 11.4373C682.596 -1.77472 702.463 -3.36292 711.614 8.57858L746.36 53.9189C755.511 65.8604 747.083 82.3755 731.189 83.6461L670.842 88.4702C654.948 89.7407 643.509 74.8138 650.251 61.6018L675.853 11.4373Z" fill="#84D8FF"/><path opacity="0.2" d="M27.8528 160.437C34.5955 147.225 54.463 145.637 63.6142 157.579L98.3603 202.919C107.511 214.86 99.0831 231.376 83.1891 232.646L22.8417 237.47C6.94777 238.741 -4.49129 223.814 2.25145 210.602L27.8528 160.437Z" fill="#84D8FF"/><path opacity="0.2" d="M261.508 158.924C241.403 175.98 208.63 166.754 202.516 142.317L179.304 49.5333C173.191 25.0965 198.322 3.77652 224.54 11.1574L324.088 39.1816C350.307 46.5625 357.948 77.1085 337.844 94.1645L261.508 158.924Z" fill="#84D8FF"/></svg>