<svg width="402" height="311" viewBox="0 0 402 311" fill="none" xmlns="http://www.w3.org/2000/svg"><rect x="1" y="1" width="400" height="309" rx="11.9379" fill="white" stroke="#E5E5E5" stroke-width="2"/><path d="M29.8072 39.2609C30.4394 41.2099 31.9845 42.1932 34.074 42.1932C35.865 42.1932 37.1819 41.3679 37.7789 40.2968C37.9193 40.051 38.0071 39.8052 38.0071 39.5242C38.0071 38.8395 37.4804 38.3654 36.8307 38.3654C36.3917 38.3654 36.0406 38.541 35.6894 39.0326C35.2504 39.6296 34.829 39.9105 34.074 39.9105C33.1083 39.9105 32.5464 39.4013 32.283 38.5936C32.1425 38.1547 32.0899 37.7333 32.0899 36.0301C32.0899 34.3269 32.1425 33.9055 32.283 33.4665C32.5464 32.6588 33.1083 32.1496 34.074 32.1496C34.829 32.1496 35.2504 32.4306 35.6894 33.0276C36.0406 33.5192 36.3917 33.6948 36.8307 33.6948C37.4804 33.6948 38.0071 33.2207 38.0071 32.5359C38.0071 32.255 37.9193 32.0092 37.7789 31.7633C37.1819 30.6923 35.865 29.867 34.074 29.867C31.9845 29.867 30.4394 30.8503 29.8072 32.7993C29.5614 33.5894 29.4736 34.204 29.4736 36.0301C29.4736 37.8562 29.5614 38.4707 29.8072 39.2609Z" fill="#AFAFAF"/><path d="M39.8893 40.8587C39.8893 41.5435 40.3107 42 41.0131 42H46.8074C47.5273 42 48.0014 41.5259 48.0014 40.8763C48.0014 40.2442 47.5273 39.7701 46.8074 39.7701H42.5758C42.5056 39.7701 42.4704 39.7349 42.4704 39.6647V37.189C42.4704 37.1187 42.5056 37.0836 42.5758 37.0836H45.9646C46.6845 37.0836 47.141 36.6271 47.141 35.9774C47.141 35.3277 46.6845 34.8712 45.9646 34.8712H42.5758C42.5056 34.8712 42.4704 34.8361 42.4704 34.7659V32.3954C42.4704 32.3252 42.5056 32.2901 42.5758 32.2901H46.8074C47.5273 32.2901 48.0014 31.816 48.0014 31.1839C48.0014 30.5342 47.5273 30.0601 46.8074 30.0601H41.0131C40.3107 30.0601 39.8893 30.5167 39.8893 31.2015V40.8587Z" fill="#AFAFAF"/><path d="M49.8175 40.7358C49.8175 41.561 50.3618 42.1054 51.1168 42.1054C51.8543 42.1054 52.3986 41.561 52.3986 40.7358V37.3294C52.3986 37.2592 52.4337 37.2241 52.504 37.2241H55.8752C56.6302 37.2241 57.0692 36.7675 57.0692 36.1179C57.0692 35.4682 56.6302 35.0117 55.8752 35.0117H52.504C52.4337 35.0117 52.3986 34.9766 52.3986 34.9063V32.3954C52.3986 32.3252 52.4337 32.2901 52.504 32.2901H56.7356C57.4555 32.2901 57.9296 31.816 57.9296 31.1839C57.9296 30.5342 57.4555 30.0601 56.7356 30.0601H50.9412C50.2389 30.0601 49.8175 30.5167 49.8175 31.2015V40.7358Z" fill="#AFAFAF"/><path d="M67.2996 42.1054C68.0721 42.1054 68.5287 41.5435 68.5287 40.8763C68.5287 40.6304 68.476 40.3846 68.3531 40.1564L66.6148 36.9958C67.8439 36.3813 68.5813 35.2224 68.5813 33.765C68.5813 31.5877 66.966 30.0601 64.5077 30.0601H60.7151C60.0127 30.0601 59.5913 30.5167 59.5913 31.2015V40.7358C59.5913 41.561 60.1356 42.1054 60.8907 42.1054C61.6457 42.1054 62.1724 41.561 62.1724 40.7358V37.5577C62.1724 37.4874 62.2076 37.4523 62.2778 37.4523H64.0337L66.0353 41.2977C66.3338 41.8595 66.7728 42.1054 67.2996 42.1054ZM64.3848 35.2575H62.2778C62.2076 35.2575 62.1724 35.2224 62.1724 35.1521V32.3954C62.1724 32.3252 62.2076 32.2901 62.2778 32.2901H64.3848C65.3681 32.2901 66.0002 32.8695 66.0002 33.7826C66.0002 34.6781 65.3681 35.2575 64.3848 35.2575Z" fill="#AFAFAF"/><path d="M75.0315 41.2274C75.0315 41.7015 75.3125 42 75.7866 42H81.8794C82.3535 42 82.652 41.684 82.652 41.2625C82.652 40.8587 82.3535 40.5426 81.8794 40.5426H76.6996C76.6294 40.5426 76.5942 40.5075 76.5942 40.4373V30.8152C76.5942 30.2884 76.2606 29.9724 75.8041 29.9724C75.3476 29.9724 75.0315 30.2884 75.0315 30.8152V41.2274Z" fill="#AFAFAF"/><path d="M87.605 42.1932C88.9044 42.1932 89.9052 41.7015 90.6251 41.0343C90.7656 40.8938 90.8534 40.7182 90.8534 40.5075C90.8534 40.1564 90.59 39.893 90.2388 39.893C90.0632 39.893 89.9052 39.9632 89.7296 40.1037C89.0975 40.5778 88.5356 40.8236 87.7104 40.8236C86.6744 40.8236 85.9018 40.3319 85.5858 39.3662C85.4804 39.0326 85.4453 38.7517 85.4453 38.3478C85.4453 38.2776 85.4804 38.2425 85.5507 38.2425H90.4846C90.8358 38.2425 91.0641 38.0142 91.0641 37.6806C91.0641 36.8553 90.9763 36.2057 90.7831 35.6438C90.3266 34.204 89.1326 33.3963 87.4821 33.3963C85.8843 33.3963 84.6727 34.204 84.1986 35.6613C84.0231 36.1881 83.9353 36.7851 83.9353 37.7859C83.9353 38.7868 84.0406 39.3838 84.2162 39.9105C84.6903 41.3855 85.8667 42.1932 87.605 42.1932ZM85.5507 37.066C85.4804 37.066 85.4453 37.0309 85.4453 36.9607C85.4453 36.5744 85.4804 36.2759 85.5682 36.0125C85.8492 35.1697 86.5515 34.6956 87.4997 34.6956C88.4478 34.6956 89.1502 35.1697 89.4311 36.0125C89.5189 36.2759 89.554 36.5744 89.554 36.9607C89.554 37.0309 89.5189 37.066 89.4487 37.066H85.5507Z" fill="#AFAFAF"/><path d="M96.1862 42.0878C96.6603 42.0878 96.8886 41.8595 97.152 41.1748L99.7155 34.5727C99.7682 34.4322 99.7858 34.3269 99.7858 34.204C99.7858 33.8177 99.5048 33.5016 99.0658 33.5016C98.7147 33.5016 98.4864 33.7123 98.3635 34.0284L96.2389 39.8754H96.2038L94.0265 34.0284C93.9036 33.7123 93.6754 33.5016 93.3242 33.5016C92.8852 33.5016 92.6043 33.8177 92.6043 34.204C92.6043 34.3269 92.6218 34.4322 92.6745 34.5727L95.2205 41.1748C95.4839 41.8595 95.7122 42.0878 96.1862 42.0878Z" fill="#AFAFAF"/><path d="M104.958 42.1932C106.257 42.1932 107.258 41.7015 107.978 41.0343C108.118 40.8938 108.206 40.7182 108.206 40.5075C108.206 40.1564 107.943 39.893 107.592 39.893C107.416 39.893 107.258 39.9632 107.082 40.1037C106.45 40.5778 105.888 40.8236 105.063 40.8236C104.027 40.8236 103.255 40.3319 102.939 39.3662C102.833 39.0326 102.798 38.7517 102.798 38.3478C102.798 38.2776 102.833 38.2425 102.904 38.2425H107.837C108.189 38.2425 108.417 38.0142 108.417 37.6806C108.417 36.8553 108.329 36.2057 108.136 35.6438C107.679 34.204 106.485 33.3963 104.835 33.3963C103.237 33.3963 102.026 34.204 101.551 35.6613C101.376 36.1881 101.288 36.7851 101.288 37.7859C101.288 38.7868 101.393 39.3838 101.569 39.9105C102.043 41.3855 103.22 42.1932 104.958 42.1932ZM102.904 37.066C102.833 37.066 102.798 37.0309 102.798 36.9607C102.798 36.5744 102.833 36.2759 102.921 36.0125C103.202 35.1697 103.904 34.6956 104.853 34.6956C105.801 34.6956 106.503 35.1697 106.784 36.0125C106.872 36.2759 106.907 36.5744 106.907 36.9607C106.907 37.0309 106.872 37.066 106.802 37.066H102.904Z" fill="#AFAFAF"/><path d="M112.96 42.0878C113.451 42.0878 113.715 41.8069 113.715 41.403C113.715 40.9992 113.451 40.7182 113.03 40.7182C112.45 40.7182 112.222 40.4549 112.222 39.7525V30.7625C112.222 30.2709 111.906 29.9724 111.485 29.9724C111.063 29.9724 110.747 30.2709 110.747 30.7625V39.8403C110.747 41.3503 111.292 42.0878 112.802 42.0878H112.96Z" fill="#AFAFAF"/><path d="M118.531 42.1932C120.761 42.1932 121.955 41.1045 121.955 39.454C121.955 38.0844 121.182 37.2592 119.426 37.066L118.549 36.9782C117.284 36.8553 116.898 36.5042 116.898 35.8369C116.898 35.1521 117.442 34.6781 118.496 34.6781C119.163 34.6781 119.795 34.8537 120.357 35.117C120.585 35.2224 120.743 35.2575 120.884 35.2575C121.235 35.2575 121.516 34.9766 121.516 34.6254C121.516 34.362 121.375 34.1689 121.077 34.0108C120.427 33.6421 119.549 33.3963 118.566 33.3963C116.6 33.3963 115.458 34.362 115.458 35.9598C115.458 37.3119 116.319 38.1547 117.969 38.3303L118.847 38.4181C120.181 38.5585 120.498 38.9097 120.498 39.612C120.498 40.3495 119.865 40.8763 118.654 40.8763C117.706 40.8763 116.986 40.5426 116.301 40.1388C116.09 40.0159 115.95 39.9808 115.809 39.9808C115.406 39.9808 115.125 40.2968 115.125 40.648C115.125 40.8938 115.247 41.1045 115.476 41.2625C116.178 41.7542 117.249 42.1932 118.531 42.1932Z" fill="#AFAFAF"/><path d="M287.068 277.181C287.068 277.727 287.51 278.078 287.991 278.078C288.407 278.078 288.745 277.831 288.888 277.402L289.239 276.323H292.398L292.762 277.402C292.905 277.831 293.243 278.078 293.659 278.078C294.14 278.078 294.582 277.727 294.582 277.181C294.582 277.051 294.556 276.921 294.517 276.817L292.164 270.2C291.917 269.498 291.514 269.082 290.838 269.082C290.162 269.082 289.772 269.498 289.525 270.2L287.133 276.817C287.094 276.921 287.068 277.051 287.068 277.181ZM289.785 274.698L290.812 271.604H290.851L291.865 274.698H289.785Z" fill="#AFAFAF"/><path d="M296.631 277.168C296.631 277.675 296.943 278 297.463 278H299.556C301.441 278 302.611 277.402 303.079 275.959C303.248 275.452 303.339 274.841 303.339 273.58C303.339 272.319 303.248 271.708 303.079 271.201C302.611 269.758 301.441 269.16 299.556 269.16H297.463C296.943 269.16 296.631 269.498 296.631 270.005V277.168ZM298.542 276.219V270.941C298.542 270.889 298.568 270.863 298.62 270.863H299.504C300.388 270.863 301.025 271.162 301.246 271.864C301.337 272.163 301.402 272.683 301.402 273.58C301.402 274.477 301.337 274.997 301.246 275.296C301.025 275.998 300.388 276.297 299.504 276.297H298.62C298.568 276.297 298.542 276.271 298.542 276.219Z" fill="#AFAFAF"/><path d="M308.349 278.078C308.908 278.078 309.272 277.779 309.558 276.96L311.807 270.382C311.846 270.252 311.872 270.109 311.872 269.979C311.872 269.485 311.495 269.082 310.949 269.082C310.507 269.082 310.182 269.316 310.026 269.823L308.414 275.088H308.375L306.672 269.823C306.503 269.316 306.191 269.082 305.749 269.082C305.203 269.082 304.813 269.485 304.813 269.979C304.813 270.109 304.839 270.252 304.878 270.382L307.127 276.96C307.413 277.779 307.777 278.078 308.349 278.078Z" fill="#AFAFAF"/><path d="M312.793 277.181C312.793 277.727 313.235 278.078 313.716 278.078C314.132 278.078 314.47 277.831 314.613 277.402L314.964 276.323H318.123L318.487 277.402C318.63 277.831 318.968 278.078 319.384 278.078C319.865 278.078 320.307 277.727 320.307 277.181C320.307 277.051 320.281 276.921 320.242 276.817L317.889 270.2C317.642 269.498 317.239 269.082 316.563 269.082C315.887 269.082 315.497 269.498 315.25 270.2L312.858 276.817C312.819 276.921 312.793 277.051 312.793 277.181ZM315.51 274.698L316.537 271.604H316.576L317.59 274.698H315.51Z" fill="#AFAFAF"/><path d="M322.355 277.155C322.355 277.74 322.706 278.078 323.226 278.078C323.746 278.078 324.097 277.74 324.097 277.155V272.332H324.149L326.853 277.142C327.204 277.753 327.568 278.078 328.114 278.078C328.764 278.078 329.18 277.636 329.18 276.934V270.005C329.18 269.42 328.829 269.082 328.309 269.082C327.789 269.082 327.438 269.42 327.438 270.005V274.841H327.386L324.682 270.018C324.331 269.407 323.967 269.082 323.421 269.082C322.771 269.082 322.355 269.524 322.355 270.226V277.155Z" fill="#AFAFAF"/><path d="M331.667 275.972C332.135 277.415 333.279 278.143 334.826 278.143C336.152 278.143 337.127 277.532 337.569 276.739C337.673 276.557 337.738 276.375 337.738 276.167C337.738 275.66 337.348 275.309 336.867 275.309C336.542 275.309 336.282 275.439 336.022 275.803C335.697 276.245 335.385 276.453 334.826 276.453C334.111 276.453 333.695 276.076 333.5 275.478C333.396 275.153 333.357 274.841 333.357 273.58C333.357 272.319 333.396 272.007 333.5 271.682C333.695 271.084 334.111 270.707 334.826 270.707C335.385 270.707 335.697 270.915 336.022 271.357C336.282 271.721 336.542 271.851 336.867 271.851C337.348 271.851 337.738 271.5 337.738 270.993C337.738 270.785 337.673 270.603 337.569 270.421C337.127 269.628 336.152 269.017 334.826 269.017C333.279 269.017 332.135 269.745 331.667 271.188C331.485 271.773 331.42 272.228 331.42 273.58C331.42 274.932 331.485 275.387 331.667 275.972Z" fill="#AFAFAF"/><path d="M339.911 277.155C339.911 277.662 340.223 278 340.743 278H345.033C345.566 278 345.917 277.649 345.917 277.168C345.917 276.7 345.566 276.349 345.033 276.349H341.9C341.848 276.349 341.822 276.323 341.822 276.271V274.438C341.822 274.386 341.848 274.36 341.9 274.36H344.409C344.942 274.36 345.28 274.022 345.28 273.541C345.28 273.06 344.942 272.722 344.409 272.722H341.9C341.848 272.722 341.822 272.696 341.822 272.644V270.889C341.822 270.837 341.848 270.811 341.9 270.811H345.033C345.566 270.811 345.917 270.46 345.917 269.992C345.917 269.511 345.566 269.16 345.033 269.16H340.743C340.223 269.16 339.911 269.498 339.911 270.005V277.155Z" fill="#AFAFAF"/><path d="M348.042 277.168C348.042 277.675 348.354 278 348.874 278H350.967C352.852 278 354.022 277.402 354.49 275.959C354.659 275.452 354.75 274.841 354.75 273.58C354.75 272.319 354.659 271.708 354.49 271.201C354.022 269.758 352.852 269.16 350.967 269.16H348.874C348.354 269.16 348.042 269.498 348.042 270.005V277.168ZM349.953 276.219V270.941C349.953 270.889 349.979 270.863 350.031 270.863H350.915C351.799 270.863 352.436 271.162 352.657 271.864C352.748 272.163 352.813 272.683 352.813 273.58C352.813 274.477 352.748 274.997 352.657 275.296C352.436 275.998 351.799 276.297 350.915 276.297H350.031C349.979 276.297 349.953 276.271 349.953 276.219Z" fill="#AFAFAF"/><rect x="28.6484" y="169.366" width="46.2069" height="46.2069" rx="5.54483" fill="#CE82FF"/><rect x="28.6484" y="220.193" width="46.2069" height="18.4828" rx="5.54483" fill="#CE82FF"/><rect x="87.793" y="197.09" width="46.2069" height="18.4828" rx="5.54483" fill="#1CB0F6"/><rect x="87.793" y="220.193" width="46.2069" height="18.4828" rx="5.54483" fill="#1CB0F6"/><rect x="147.862" y="220.193" width="46.2069" height="18.4828" rx="5.54483" fill="#58CC02"/><rect x="147.862" y="197.09" width="46.2069" height="18.4828" rx="5.54483" fill="#58CC02"/><rect x="147.862" y="173.062" width="46.2069" height="18.4828" rx="5.54483" fill="#58CC02"/><rect x="207.932" y="149.959" width="46.2069" height="18.4828" rx="5.54483" fill="#FF4B4B"/><rect x="268" y="220.193" width="46.2069" height="18.4828" rx="5.54483" fill="#FF9600"/><rect x="268" y="197.09" width="46.2069" height="18.4828" rx="5.54483" fill="#FF9600"/><rect x="268" y="173.062" width="46.2069" height="18.4828" rx="5.54483" fill="#FF9600"/><rect x="268" y="149.959" width="46.2069" height="18.4828" rx="5.54483" fill="#FF9600"/><rect x="268" y="125.931" width="46.2069" height="18.4828" rx="5.54483" fill="#FF9600"/><rect x="328.069" y="220.193" width="46.2069" height="18.4828" rx="5.54483" fill="#FFD900"/><rect x="328.069" y="197.09" width="46.2069" height="18.4828" rx="5.54483" fill="#FFD900"/><rect x="328.069" y="173.062" width="46.2069" height="18.4828" rx="5.54483" fill="#FFD900"/><rect x="328.069" y="149.959" width="46.2069" height="18.4828" rx="5.54483" fill="#FFD900"/><rect x="328.069" y="125.931" width="46.2069" height="18.4828" rx="5.54483" fill="#FFD900"/><rect x="328.069" y="102.828" width="46.2069" height="18.4828" rx="5.54483" fill="#FFD900"/><rect x="207.932" y="173.062" width="46.2069" height="18.4828" rx="5.54483" fill="#FF4B4B"/><rect x="207.932" y="197.09" width="46.2069" height="18.4828" rx="5.54483" fill="#FF4B4B"/><rect x="207.932" y="220.193" width="46.2069" height="18.4828" rx="5.54483" fill="#FF4B4B"/><rect x="87.793" y="146.262" width="46.2069" height="46.2069" rx="5.54483" fill="#1CB0F6"/><rect x="147.862" y="122.234" width="46.2069" height="46.2069" rx="5.54483" fill="#58CC02"/><rect x="207.932" y="99.131" width="46.2069" height="46.2069" rx="5.54483" fill="#FF4B4B"/><rect x="268" y="75.1035" width="46.2069" height="46.2069" rx="5.54483" fill="#FF9600"/><rect x="328.069" y="52" width="46.2069" height="46.2069" rx="5.54483" fill="#FFD900"/><path d="M46.8447 277.168C46.8447 277.675 47.1567 278 47.6767 278H50.3287C52.2397 278 53.3967 277.168 53.3967 275.426C53.3967 274.373 52.7987 273.658 52.2137 273.424V273.398C52.8117 273.073 53.2407 272.462 53.2407 271.513C53.2407 270.109 52.3437 269.16 50.4197 269.16H47.6767C47.1567 269.16 46.8447 269.498 46.8447 270.005V277.168ZM48.8337 272.774C48.7817 272.774 48.7557 272.748 48.7557 272.696V270.785C48.7557 270.733 48.7817 270.707 48.8337 270.707H50.1727C50.9137 270.707 51.3427 271.071 51.3427 271.734C51.3427 272.397 50.9007 272.774 50.1727 272.774H48.8337ZM48.7557 276.375V274.321C48.7557 274.269 48.7817 274.243 48.8337 274.243H50.2767C51.0567 274.243 51.4857 274.672 51.4857 275.335C51.4857 276.037 51.0567 276.453 50.2767 276.453H48.8337C48.7817 276.453 48.7557 276.427 48.7557 276.375Z" fill="#AFAFAF"/><path d="M55.5593 277.155C55.5593 277.662 55.8713 278 56.3913 278H60.6813C61.2143 278 61.5653 277.649 61.5653 277.168C61.5653 276.7 61.2143 276.349 60.6813 276.349H57.5483C57.4963 276.349 57.4703 276.323 57.4703 276.271V274.438C57.4703 274.386 57.4963 274.36 57.5483 274.36H60.0573C60.5903 274.36 60.9283 274.022 60.9283 273.541C60.9283 273.06 60.5903 272.722 60.0573 272.722H57.5483C57.4963 272.722 57.4703 272.696 57.4703 272.644V270.889C57.4703 270.837 57.4963 270.811 57.5483 270.811H60.6813C61.2143 270.811 61.5653 270.46 61.5653 269.992C61.5653 269.511 61.2143 269.16 60.6813 269.16H56.3913C55.8713 269.16 55.5593 269.498 55.5593 270.005V277.155Z" fill="#AFAFAF"/><path d="M63.7029 275.998C64.1579 277.428 65.3799 278.143 66.9529 278.143C68.5259 278.143 69.7219 277.35 70.1769 275.933C70.3329 275.439 70.3979 274.711 70.3979 273.931V273.84C70.3979 273.359 70.1249 273.086 69.6439 273.086H67.8239C67.3299 273.086 67.0179 273.385 67.0179 273.84C67.0179 274.295 67.3299 274.594 67.8239 274.594H68.4219C68.4739 274.594 68.4999 274.62 68.4999 274.672C68.4999 275.01 68.4739 275.309 68.3959 275.543C68.2139 276.102 67.6549 276.453 66.9789 276.453C66.2119 276.453 65.7309 276.076 65.5359 275.478C65.4319 275.153 65.3929 274.724 65.3929 273.58C65.3929 272.436 65.4319 272.02 65.5359 271.695C65.7309 271.084 66.1989 270.707 66.9529 270.707C67.5249 270.707 67.9539 270.889 68.2919 271.357C68.5519 271.721 68.8119 271.825 69.1369 271.825C69.6179 271.825 70.0079 271.474 70.0079 270.967C70.0079 270.759 69.9429 270.577 69.8389 270.395C69.3709 269.602 68.3829 269.017 66.9529 269.017C65.3799 269.017 64.1579 269.732 63.7029 271.162C63.5079 271.786 63.4559 272.28 63.4559 273.58C63.4559 274.88 63.5079 275.374 63.7029 275.998Z" fill="#AFAFAF"/><path d="M72.633 277.064C72.633 277.675 73.036 278.078 73.595 278.078C74.141 278.078 74.544 277.675 74.544 277.064V270.096C74.544 269.485 74.141 269.082 73.595 269.082C73.036 269.082 72.633 269.485 72.633 270.096V277.064Z" fill="#AFAFAF"/><path d="M77.0184 277.155C77.0184 277.74 77.3694 278.078 77.8894 278.078C78.4094 278.078 78.7604 277.74 78.7604 277.155V272.332H78.8124L81.5164 277.142C81.8674 277.753 82.2314 278.078 82.7774 278.078C83.4274 278.078 83.8434 277.636 83.8434 276.934V270.005C83.8434 269.42 83.4924 269.082 82.9724 269.082C82.4524 269.082 82.1014 269.42 82.1014 270.005V274.841H82.0494L79.3454 270.018C78.9944 269.407 78.6304 269.082 78.0844 269.082C77.4344 269.082 77.0184 269.524 77.0184 270.226V277.155Z" fill="#AFAFAF"/><path d="M86.317 277.155C86.317 277.74 86.668 278.078 87.188 278.078C87.708 278.078 88.059 277.74 88.059 277.155V272.332H88.111L90.815 277.142C91.166 277.753 91.53 278.078 92.076 278.078C92.726 278.078 93.142 277.636 93.142 276.934V270.005C93.142 269.42 92.791 269.082 92.271 269.082C91.751 269.082 91.4 269.42 91.4 270.005V274.841H91.348L88.644 270.018C88.293 269.407 87.929 269.082 87.383 269.082C86.733 269.082 86.317 269.524 86.317 270.226V277.155Z" fill="#AFAFAF"/><path d="M95.6155 277.155C95.6155 277.662 95.9275 278 96.4475 278H100.738C101.271 278 101.622 277.649 101.622 277.168C101.622 276.7 101.271 276.349 100.738 276.349H97.6045C97.5525 276.349 97.5265 276.323 97.5265 276.271V274.438C97.5265 274.386 97.5525 274.36 97.6045 274.36H100.114C100.647 274.36 100.985 274.022 100.985 273.541C100.985 273.06 100.647 272.722 100.114 272.722H97.6045C97.5525 272.722 97.5265 272.696 97.5265 272.644V270.889C97.5265 270.837 97.5525 270.811 97.6045 270.811H100.738C101.271 270.811 101.622 270.46 101.622 269.992C101.622 269.511 101.271 269.16 100.738 269.16H96.4475C95.9275 269.16 95.6155 269.498 95.6155 270.005V277.155Z" fill="#AFAFAF"/><path d="M109.453 278.078C110.025 278.078 110.363 277.662 110.363 277.168C110.363 276.986 110.324 276.804 110.233 276.635L108.946 274.295C109.856 273.84 110.402 272.982 110.402 271.903C110.402 270.291 109.206 269.16 107.386 269.16H104.578C104.058 269.16 103.746 269.498 103.746 270.005V277.064C103.746 277.675 104.149 278.078 104.708 278.078C105.267 278.078 105.657 277.675 105.657 277.064V274.711C105.657 274.659 105.683 274.633 105.735 274.633H107.035L108.517 277.48C108.738 277.896 109.063 278.078 109.453 278.078ZM107.295 273.008H105.735C105.683 273.008 105.657 272.982 105.657 272.93V270.889C105.657 270.837 105.683 270.811 105.735 270.811H107.295C108.023 270.811 108.491 271.24 108.491 271.916C108.491 272.579 108.023 273.008 107.295 273.008Z" fill="#AFAFAF"/><path d="M153.845 277.064C153.845 277.675 154.248 278.078 154.807 278.078C155.353 278.078 155.756 277.675 155.756 277.064V270.096C155.756 269.485 155.353 269.082 154.807 269.082C154.248 269.082 153.845 269.485 153.845 270.096V277.064Z" fill="#AFAFAF"/><path d="M158.23 277.155C158.23 277.74 158.581 278.078 159.101 278.078C159.621 278.078 159.972 277.74 159.972 277.155V272.332H160.024L162.728 277.142C163.079 277.753 163.443 278.078 163.989 278.078C164.639 278.078 165.055 277.636 165.055 276.934V270.005C165.055 269.42 164.704 269.082 164.184 269.082C163.664 269.082 163.313 269.42 163.313 270.005V274.841H163.261L160.557 270.018C160.206 269.407 159.842 269.082 159.296 269.082C158.646 269.082 158.23 269.524 158.23 270.226V277.155Z" fill="#AFAFAF"/><path d="M170.311 278.078C170.87 278.078 171.273 277.675 171.273 277.064V270.941C171.273 270.889 171.299 270.863 171.351 270.863H172.846C173.431 270.863 173.808 270.512 173.808 270.018C173.808 269.511 173.431 269.16 172.846 269.16H167.789C167.204 269.16 166.827 269.511 166.827 270.018C166.827 270.512 167.204 270.863 167.789 270.863H169.284C169.336 270.863 169.362 270.889 169.362 270.941V277.064C169.362 277.675 169.765 278.078 170.311 278.078Z" fill="#AFAFAF"/><path d="M175.57 277.155C175.57 277.662 175.882 278 176.402 278H180.692C181.225 278 181.576 277.649 181.576 277.168C181.576 276.7 181.225 276.349 180.692 276.349H177.559C177.507 276.349 177.481 276.323 177.481 276.271V274.438C177.481 274.386 177.507 274.36 177.559 274.36H180.068C180.601 274.36 180.939 274.022 180.939 273.541C180.939 273.06 180.601 272.722 180.068 272.722H177.559C177.507 272.722 177.481 272.696 177.481 272.644V270.889C177.481 270.837 177.507 270.811 177.559 270.811H180.692C181.225 270.811 181.576 270.46 181.576 269.992C181.576 269.511 181.225 269.16 180.692 269.16H176.402C175.882 269.16 175.57 269.498 175.57 270.005V277.155Z" fill="#AFAFAF"/><path d="M189.408 278.078C189.98 278.078 190.318 277.662 190.318 277.168C190.318 276.986 190.279 276.804 190.188 276.635L188.901 274.295C189.811 273.84 190.357 272.982 190.357 271.903C190.357 270.291 189.161 269.16 187.341 269.16H184.533C184.013 269.16 183.701 269.498 183.701 270.005V277.064C183.701 277.675 184.104 278.078 184.663 278.078C185.222 278.078 185.612 277.675 185.612 277.064V274.711C185.612 274.659 185.638 274.633 185.69 274.633H186.99L188.472 277.48C188.693 277.896 189.018 278.078 189.408 278.078ZM187.25 273.008H185.69C185.638 273.008 185.612 272.982 185.612 272.93V270.889C185.612 270.837 185.638 270.811 185.69 270.811H187.25C187.978 270.811 188.446 271.24 188.446 271.916C188.446 272.579 187.978 273.008 187.25 273.008Z" fill="#AFAFAF"/><path d="M192.593 277.155C192.593 277.74 192.957 278.078 193.477 278.078C193.971 278.078 194.335 277.74 194.335 277.155V272.891H194.4L195.778 276.063C196.051 276.687 196.272 276.869 196.714 276.869C197.156 276.869 197.377 276.687 197.65 276.063L199.015 272.891H199.08V277.155C199.08 277.74 199.431 278.078 199.951 278.078C200.471 278.078 200.822 277.74 200.822 277.155V270.226C200.822 269.524 200.419 269.082 199.782 269.082C199.21 269.082 198.898 269.394 198.612 270.07L196.766 274.334H196.714L194.829 270.07C194.53 269.394 194.218 269.082 193.646 269.082C193.009 269.082 192.593 269.524 192.593 270.226V277.155Z" fill="#AFAFAF"/><path d="M203.288 277.155C203.288 277.662 203.6 278 204.12 278H208.41C208.943 278 209.294 277.649 209.294 277.168C209.294 276.7 208.943 276.349 208.41 276.349H205.277C205.225 276.349 205.199 276.323 205.199 276.271V274.438C205.199 274.386 205.225 274.36 205.277 274.36H207.786C208.319 274.36 208.657 274.022 208.657 273.541C208.657 273.06 208.319 272.722 207.786 272.722H205.277C205.225 272.722 205.199 272.696 205.199 272.644V270.889C205.199 270.837 205.225 270.811 205.277 270.811H208.41C208.943 270.811 209.294 270.46 209.294 269.992C209.294 269.511 208.943 269.16 208.41 269.16H204.12C203.6 269.16 203.288 269.498 203.288 270.005V277.155Z" fill="#AFAFAF"/><path d="M211.419 277.168C211.419 277.675 211.731 278 212.251 278H214.344C216.229 278 217.399 277.402 217.867 275.959C218.036 275.452 218.127 274.841 218.127 273.58C218.127 272.319 218.036 271.708 217.867 271.201C217.399 269.758 216.229 269.16 214.344 269.16H212.251C211.731 269.16 211.419 269.498 211.419 270.005V277.168ZM213.33 276.219V270.941C213.33 270.889 213.356 270.863 213.408 270.863H214.292C215.176 270.863 215.813 271.162 216.034 271.864C216.125 272.163 216.19 272.683 216.19 273.58C216.19 274.477 216.125 274.997 216.034 275.296C215.813 275.998 215.176 276.297 214.292 276.297H213.408C213.356 276.297 213.33 276.271 213.33 276.219Z" fill="#AFAFAF"/><path d="M220.362 277.064C220.362 277.675 220.765 278.078 221.324 278.078C221.87 278.078 222.273 277.675 222.273 277.064V270.096C222.273 269.485 221.87 269.082 221.324 269.082C220.765 269.082 220.362 269.485 220.362 270.096V277.064Z" fill="#AFAFAF"/><path d="M224.332 277.181C224.332 277.727 224.774 278.078 225.255 278.078C225.671 278.078 226.009 277.831 226.152 277.402L226.503 276.323H229.662L230.026 277.402C230.169 277.831 230.507 278.078 230.923 278.078C231.404 278.078 231.846 277.727 231.846 277.181C231.846 277.051 231.82 276.921 231.781 276.817L229.428 270.2C229.181 269.498 228.778 269.082 228.102 269.082C227.426 269.082 227.036 269.498 226.789 270.2L224.397 276.817C224.358 276.921 224.332 277.051 224.332 277.181ZM227.049 274.698L228.076 271.604H228.115L229.129 274.698H227.049Z" fill="#AFAFAF"/><path d="M235.736 278.078C236.295 278.078 236.698 277.675 236.698 277.064V270.941C236.698 270.889 236.724 270.863 236.776 270.863H238.271C238.856 270.863 239.233 270.512 239.233 270.018C239.233 269.511 238.856 269.16 238.271 269.16H233.214C232.629 269.16 232.252 269.511 232.252 270.018C232.252 270.512 232.629 270.863 233.214 270.863H234.709C234.761 270.863 234.787 270.889 234.787 270.941V277.064C234.787 277.675 235.19 278.078 235.736 278.078Z" fill="#AFAFAF"/><path d="M240.996 277.155C240.996 277.662 241.308 278 241.828 278H246.118C246.651 278 247.002 277.649 247.002 277.168C247.002 276.7 246.651 276.349 246.118 276.349H242.985C242.933 276.349 242.907 276.323 242.907 276.271V274.438C242.907 274.386 242.933 274.36 242.985 274.36H245.494C246.027 274.36 246.365 274.022 246.365 273.541C246.365 273.06 246.027 272.722 245.494 272.722H242.985C242.933 272.722 242.907 272.696 242.907 272.644V270.889C242.907 270.837 242.933 270.811 242.985 270.811H246.118C246.651 270.811 247.002 270.46 247.002 269.992C247.002 269.511 246.651 269.16 246.118 269.16H241.828C241.308 269.16 240.996 269.498 240.996 270.005V277.155Z" fill="#AFAFAF"/><path d="M97.7969 175.745C97.7969 176.715 98.5824 177.339 99.4372 177.339C100.177 177.339 100.777 176.9 101.031 176.137L101.655 174.22H107.269L107.916 176.137C108.17 176.9 108.771 177.339 109.51 177.339C110.365 177.339 111.151 176.715 111.151 175.745C111.151 175.513 111.104 175.282 111.035 175.098L106.853 163.338C106.414 162.09 105.698 161.351 104.497 161.351C103.295 161.351 102.602 162.09 102.163 163.338L97.9124 175.098C97.8431 175.282 97.7969 175.513 97.7969 175.745ZM102.625 171.332L104.451 165.833H104.52L106.322 171.332H102.625Z" fill="white"/><path d="M113.197 175.814C113.197 176.622 113.774 177.2 114.698 177.2H121.907C122.854 177.2 123.385 176.646 123.385 175.837C123.385 175.005 122.854 174.451 121.907 174.451H117.494V174.405L121.629 169.53C122.6 168.375 123.223 167.219 123.223 165.718C123.223 163.176 121.375 161.236 118.395 161.236C115.599 161.236 113.843 162.807 113.497 164.493C113.474 164.632 113.451 164.77 113.451 164.886C113.451 165.741 114.075 166.318 114.906 166.318C115.553 166.318 116.038 165.949 116.362 165.279C116.778 164.424 117.355 163.962 118.256 163.962C119.365 163.962 119.989 164.724 119.989 165.764C119.989 166.572 119.666 167.219 119.065 167.936L114.167 173.804C113.451 174.659 113.197 175.144 113.197 175.814Z" fill="white"/><path d="M159.529 151.694C159.529 152.595 160.084 153.172 161.008 153.172H165.721C169.117 153.172 171.173 151.694 171.173 148.598C171.173 146.727 170.111 145.456 169.071 145.04V144.994C170.134 144.416 170.896 143.33 170.896 141.644C170.896 139.149 169.302 137.462 165.883 137.462H161.008C160.084 137.462 159.529 138.063 159.529 138.964V151.694ZM163.064 143.885C162.972 143.885 162.926 143.839 162.926 143.746V140.35C162.926 140.258 162.972 140.211 163.064 140.211H165.444C166.761 140.211 167.523 140.858 167.523 142.037C167.523 143.215 166.738 143.885 165.444 143.885H163.064ZM162.926 150.284V146.634C162.926 146.542 162.972 146.495 163.064 146.495H165.629C167.015 146.495 167.777 147.258 167.777 148.436C167.777 149.684 167.015 150.423 165.629 150.423H163.064C162.972 150.423 162.926 150.377 162.926 150.284Z" fill="white"/><path d="M177.835 151.601C177.835 152.664 178.505 153.311 179.453 153.311C180.377 153.311 181.07 152.664 181.07 151.601V139.287C181.07 138.109 180.377 137.323 179.268 137.323C178.528 137.323 177.905 137.624 177.304 138.04L174.832 139.749C174.277 140.119 174.023 140.627 174.023 141.112C174.023 141.898 174.624 142.475 175.363 142.475C175.687 142.475 176.033 142.383 176.334 142.175L177.789 141.182H177.835V151.601Z" fill="white"/><path d="M218.674 129.514C218.674 130.416 219.228 130.993 220.152 130.993H224.866C228.262 130.993 230.318 129.514 230.318 126.419C230.318 124.547 229.255 123.277 228.216 122.861V122.814C229.278 122.237 230.041 121.151 230.041 119.464C230.041 116.969 228.447 115.283 225.027 115.283H220.152C219.228 115.283 218.674 115.883 218.674 116.784V129.514ZM222.209 121.706C222.116 121.706 222.07 121.659 222.07 121.567V118.171C222.07 118.078 222.116 118.032 222.209 118.032H224.588C225.905 118.032 226.668 118.679 226.668 119.857C226.668 121.036 225.882 121.706 224.588 121.706H222.209ZM222.07 128.105V124.455C222.07 124.362 222.116 124.316 222.209 124.316H224.773C226.159 124.316 226.922 125.079 226.922 126.257C226.922 127.504 226.159 128.244 224.773 128.244H222.209C222.116 128.244 222.07 128.198 222.07 128.105Z" fill="white"/><path d="M232.567 129.607C232.567 130.416 233.145 130.993 234.069 130.993H241.277C242.224 130.993 242.756 130.439 242.756 129.63C242.756 128.798 242.224 128.244 241.277 128.244H236.864V128.198L241 123.323C241.97 122.168 242.594 121.012 242.594 119.511C242.594 116.969 240.746 115.029 237.765 115.029C234.97 115.029 233.214 116.6 232.867 118.286C232.844 118.425 232.821 118.563 232.821 118.679C232.821 119.534 233.445 120.111 234.277 120.111C234.924 120.111 235.409 119.742 235.732 119.072C236.148 118.217 236.726 117.755 237.627 117.755C238.736 117.755 239.36 118.517 239.36 119.557C239.36 120.366 239.036 121.012 238.435 121.729L233.537 127.597C232.821 128.452 232.567 128.937 232.567 129.607Z" fill="white"/><path d="M280.615 104.286C281.446 106.85 283.48 108.144 286.229 108.144C288.585 108.144 290.318 107.058 291.104 105.649C291.289 105.325 291.404 105.002 291.404 104.632C291.404 103.731 290.711 103.107 289.856 103.107C289.279 103.107 288.816 103.338 288.354 103.985C287.777 104.771 287.222 105.14 286.229 105.14C284.958 105.14 284.219 104.47 283.872 103.408C283.688 102.83 283.618 102.276 283.618 100.034C283.618 97.7934 283.688 97.239 283.872 96.6614C284.219 95.5986 284.958 94.9286 286.229 94.9286C287.222 94.9286 287.777 95.2983 288.354 96.0838C288.816 96.7307 289.279 96.9617 289.856 96.9617C290.711 96.9617 291.404 96.3379 291.404 95.4369C291.404 95.0672 291.289 94.7438 291.104 94.4203C290.318 93.011 288.585 91.9252 286.229 91.9252C283.48 91.9252 281.446 93.219 280.615 95.7834C280.291 96.8231 280.176 97.6317 280.176 100.034C280.176 102.437 280.291 103.246 280.615 104.286Z" fill="white"/><path d="M298.085 106.319C298.085 107.381 298.755 108.028 299.703 108.028C300.627 108.028 301.32 107.381 301.32 106.319V94.0045C301.32 92.8262 300.627 92.0407 299.518 92.0407C298.779 92.0407 298.155 92.341 297.554 92.7569L295.082 94.4666C294.528 94.8362 294.273 95.3445 294.273 95.8297C294.273 96.6152 294.874 97.1928 295.613 97.1928C295.937 97.1928 296.283 97.1003 296.584 96.8924L298.039 95.899H298.085V106.319Z" fill="white"/><path d="M338.835 79.3338C339.667 81.8983 341.7 83.1921 344.45 83.1921C346.806 83.1921 348.539 82.1062 349.324 80.6969C349.509 80.3735 349.625 80.05 349.625 79.6803C349.625 78.7793 348.932 78.1555 348.077 78.1555C347.499 78.1555 347.037 78.3866 346.575 79.0335C345.998 79.819 345.443 80.1886 344.45 80.1886C343.179 80.1886 342.44 79.5186 342.093 78.4559C341.908 77.8783 341.839 77.3238 341.839 75.0828C341.839 72.8417 341.908 72.2872 342.093 71.7097C342.44 70.6469 343.179 69.9769 344.45 69.9769C345.443 69.9769 345.998 70.3466 346.575 71.1321C347.037 71.779 347.499 72.01 348.077 72.01C348.932 72.01 349.625 71.3862 349.625 70.4852C349.625 70.1155 349.509 69.7921 349.324 69.4686C348.539 68.0593 346.806 66.9734 344.45 66.9734C341.7 66.9734 339.667 68.2672 338.835 70.8317C338.512 71.8714 338.396 72.68 338.396 75.0828C338.396 77.4855 338.512 78.2941 338.835 79.3338Z" fill="white"/><path d="M351.893 81.5517C351.893 82.3603 352.471 82.9379 353.395 82.9379H360.603C361.551 82.9379 362.082 82.3835 362.082 81.5748C362.082 80.7431 361.551 80.1886 360.603 80.1886H356.191V80.1424L360.326 75.2676C361.297 74.1124 361.92 72.9572 361.92 71.4555C361.92 68.9141 360.072 66.9734 357.092 66.9734C354.296 66.9734 352.54 68.5445 352.194 70.231C352.171 70.3697 352.148 70.5083 352.148 70.6238C352.148 71.4786 352.771 72.0562 353.603 72.0562C354.25 72.0562 354.735 71.6866 355.059 71.0166C355.474 70.1617 356.052 69.6997 356.953 69.6997C358.062 69.6997 358.686 70.4621 358.686 71.5017C358.686 72.3103 358.362 72.9572 357.762 73.6735L352.864 79.5417C352.148 80.3966 351.893 80.8817 351.893 81.5517Z" fill="white"/><path d="M38.6523 197.924C38.6523 198.894 39.4379 199.518 40.2927 199.518C41.032 199.518 41.6327 199.079 41.8868 198.317L42.5106 196.399H48.1248L48.7717 198.317C49.0258 199.079 49.6265 199.518 50.3658 199.518C51.2206 199.518 52.0061 198.894 52.0061 197.924C52.0061 197.693 51.9599 197.462 51.8906 197.277L47.7089 185.517C47.2699 184.27 46.5537 183.53 45.3523 183.53C44.151 183.53 43.4579 184.27 43.0189 185.517L38.7679 197.277C38.6986 197.462 38.6523 197.693 38.6523 197.924ZM43.481 193.511L45.3061 188.012H45.3754L47.1775 193.511H43.481Z" fill="white"/><path d="M58.4648 197.808C58.4648 198.871 59.1348 199.518 60.0821 199.518C61.0062 199.518 61.6993 198.871 61.6993 197.808V185.494C61.6993 184.316 61.0062 183.53 59.8972 183.53C59.1579 183.53 58.5341 183.831 57.9334 184.247L55.4614 185.956C54.9069 186.326 54.6527 186.834 54.6527 187.319C54.6527 188.105 55.2534 188.682 55.9927 188.682C56.3162 188.682 56.6627 188.59 56.9631 188.382L58.4186 187.389H58.4648V197.808Z" fill="white"/><g filter="url(#filter0_dd)"><rect x="28.6484" y="244.068" width="101.655" height="12.0138" rx="1.84828" fill="white"/></g><g filter="url(#filter1_dd)"><rect x="148.786" y="244.068" width="101.655" height="12.0138" rx="1.84828" fill="white"/></g><g filter="url(#filter2_dd)"><rect x="267.076" y="244.068" width="101.655" height="12.0138" rx="1.84828" fill="white"/></g><defs><filter id="filter0_dd" x="26.8002" y="244.068" width="105.352" height="13.8621" filterUnits="userSpaceOnUse" color-interpolation-filters="sRGB"><feFlood flood-opacity="0" result="BackgroundImageFix"/><feColorMatrix in="SourceAlpha" type="matrix" values="0 0 0 0 0 0 0 0 0 0 0 0 0 0 0 0 0 0 127 0"/><feOffset dx="-1.84828" dy="1.84828"/><feColorMatrix type="matrix" values="0 0 0 0 0.686275 0 0 0 0 0.686275 0 0 0 0 0.686275 0 0 0 1 0"/><feBlend mode="normal" in2="BackgroundImageFix" result="effect1_dropShadow"/><feColorMatrix in="SourceAlpha" type="matrix" values="0 0 0 0 0 0 0 0 0 0 0 0 0 0 0 0 0 0 127 0"/><feOffset dx="1.84828" dy="1.84828"/><feColorMatrix type="matrix" values="0 0 0 0 0.686275 0 0 0 0 0.686275 0 0 0 0 0.686275 0 0 0 1 0"/><feBlend mode="normal" in2="effect1_dropShadow" result="effect2_dropShadow"/><feBlend mode="normal" in="SourceGraphic" in2="effect2_dropShadow" result="shape"/></filter><filter id="filter1_dd" x="146.938" y="244.068" width="105.352" height="13.8621" filterUnits="userSpaceOnUse" color-interpolation-filters="sRGB"><feFlood flood-opacity="0" result="BackgroundImageFix"/><feColorMatrix in="SourceAlpha" type="matrix" values="0 0 0 0 0 0 0 0 0 0 0 0 0 0 0 0 0 0 127 0"/><feOffset dx="-1.84828" dy="1.84828"/><feColorMatrix type="matrix" values="0 0 0 0 0.686275 0 0 0 0 0.686275 0 0 0 0 0.686275 0 0 0 1 0"/><feBlend mode="normal" in2="BackgroundImageFix" result="effect1_dropShadow"/><feColorMatrix in="SourceAlpha" type="matrix" values="0 0 0 0 0 0 0 0 0 0 0 0 0 0 0 0 0 0 127 0"/><feOffset dx="1.84828" dy="1.84828"/><feColorMatrix type="matrix" values="0 0 0 0 0.686275 0 0 0 0 0.686275 0 0 0 0 0.686275 0 0 0 1 0"/><feBlend mode="normal" in2="effect1_dropShadow" result="effect2_dropShadow"/><feBlend mode="normal" in="SourceGraphic" in2="effect2_dropShadow" result="shape"/></filter><filter id="filter2_dd" x="265.228" y="244.068" width="105.352" height="13.8621" filterUnits="userSpaceOnUse" color-interpolation-filters="sRGB"><feFlood flood-opacity="0" result="BackgroundImageFix"/><feColorMatrix in="SourceAlpha" type="matrix" values="0 0 0 0 0 0 0 0 0 0 0 0 0 0 0 0 0 0 127 0"/><feOffset dx="-1.84828" dy="1.84828"/><feColorMatrix type="matrix" values="0 0 0 0 0.686275 0 0 0 0 0.686275 0 0 0 0 0.686275 0 0 0 1 0"/><feBlend mode="normal" in2="BackgroundImageFix" result="effect1_dropShadow"/><feColorMatrix in="SourceAlpha" type="matrix" values="0 0 0 0 0 0 0 0 0 0 0 0 0 0 0 0 0 0 127 0"/><feOffset dx="1.84828" dy="1.84828"/><feColorMatrix type="matrix" values="0 0 0 0 0.686275 0 0 0 0 0.686275 0 0 0 0 0.686275 0 0 0 1 0"/><feBlend mode="normal" in2="effect1_dropShadow" result="effect2_dropShadow"/><feBlend mode="normal" in="SourceGraphic" in2="effect2_dropShadow" result="shape"/></filter></defs></svg>