<svg width="399" height="311" viewBox="0 0 399 311" fill="none" xmlns="http://www.w3.org/2000/svg"><rect x="1" y="1" width="397" height="309" rx="13" fill="white" stroke="#E5E5E5" stroke-width="2"/><g clip-path="url(#clip0)"><path d="M250.919 87.8784C250.919 86.5296 252.013 85.4362 253.362 85.4362C254.711 85.4362 255.804 86.5296 255.804 87.8784V116.275C255.804 117.047 255.178 117.673 254.406 117.673H252.318C251.545 117.673 250.919 117.047 250.919 116.275V87.8784Z" fill="#CD7900"/><path d="M237.94 109C239.954 109 241.587 110.633 241.587 112.647L241.587 116.512H245.867L245.867 112.647C245.867 110.633 247.5 109 249.514 109H256.486C258.5 109 260.133 110.633 260.133 112.647L260.132 116.512H264.412L264.412 112.647C264.412 110.633 266.045 109 268.059 109H275.031C277.045 109 278.678 110.633 278.678 112.647V122.184C278.678 124.198 277.045 125.831 275.031 125.831L272.638 125.83L273.134 140.279L273.63 144.728L232.764 150.724L234.019 125.83L230.968 125.831C228.954 125.831 227.321 124.198 227.321 122.184V112.647C227.321 110.633 228.954 109 230.968 109H237.94Z" fill="#FFC700"/><path d="M272.867 132H268.635C266.153 132 263.99 133.36 262.848 135.374C261.706 133.36 259.542 132 257.061 132H250.089C247.608 132 245.444 133.36 244.302 135.374C243.16 133.36 240.997 132 238.515 132H233.691L233.571 135H238.515C240.53 135 242.162 136.633 242.162 138.647L242.162 142.512H246.442L246.442 138.647C246.442 136.633 248.075 135 250.089 135H257.061C259.075 135 260.708 136.633 260.708 138.647L260.708 142.512H264.988L264.988 138.647C264.988 136.633 266.62 135 268.635 135H273.018L272.867 132Z" fill="#FFB800"/><path d="M252.81 78.252C253.146 77.916 253.691 77.916 254.027 78.252L256.264 80.4891C256.6 80.8251 256.6 81.3698 256.264 81.7058L254.027 83.9429C253.691 84.2789 253.146 84.2789 252.81 83.9429L250.573 81.7058C250.237 81.3698 250.237 80.8251 250.573 80.4891L252.81 78.252Z" fill="#FFD300"/><path d="M257.321 87L274.956 92.0385C275.923 92.3148 275.923 93.6852 274.956 93.9615L257.321 99V87Z" fill="#1CB0F6"/><path d="M197.919 71.8784C197.919 70.5296 199.013 69.4362 200.362 69.4362C201.711 69.4362 202.804 70.5296 202.804 71.8784V100.275C202.804 101.047 202.178 101.673 201.406 101.673H199.318C198.545 101.673 197.919 101.047 197.919 100.275V71.8784Z" fill="#CD7900"/><path d="M199.81 62.252C200.146 61.916 200.691 61.916 201.027 62.252L203.264 64.4891C203.6 64.8251 203.6 65.3698 203.264 65.7058L201.027 67.9429C200.691 68.2789 200.146 68.2789 199.81 67.9429L197.573 65.7058C197.237 65.3698 197.237 64.8251 197.573 64.4891L199.81 62.252Z" fill="#FFD300"/><path d="M204.321 71L221.956 76.0385C222.923 76.3148 222.923 77.6852 221.956 77.9615L204.321 83V71Z" fill="#1CB0F6"/><path d="M149.723 87.8784C149.723 86.5296 148.63 85.4362 147.281 85.4362C145.932 85.4362 144.839 86.5296 144.839 87.8784V116.275C144.839 117.047 145.465 117.673 146.237 117.673H148.325C149.097 117.673 149.723 117.047 149.723 116.275V87.8784Z" fill="#CD7900"/><path d="M147.833 78.252C147.497 77.916 146.952 77.916 146.616 78.252L144.379 80.4891C144.043 80.8251 144.043 81.3698 144.379 81.7058L146.616 83.9429C146.952 84.2789 147.497 84.2789 147.833 83.9429L150.07 81.7058C150.406 81.3698 150.406 80.8251 150.07 80.4891L147.833 78.252Z" fill="#FFD300"/><path d="M143.321 87L125.686 92.0385C124.719 92.3148 124.719 93.6852 125.686 93.9615L143.321 99V87Z" fill="#1CB0F6"/><path fill-rule="evenodd" clip-rule="evenodd" d="M184.94 93C186.954 93 188.587 94.6328 188.587 96.6469L188.587 100.512H192.867L192.867 96.6469C192.867 94.6328 194.5 93 196.514 93H203.486C205.5 93 207.133 94.6328 207.133 96.6469L207.132 100.512H211.412L211.412 96.6469C211.412 94.6328 213.045 93 215.059 93H222.031C224.045 93 225.678 94.6328 225.678 96.6469V106.184C225.678 108.198 224.045 109.831 222.031 109.831L219.638 109.83L223.63 168.728L176.764 168.724L181.019 109.83L177.968 109.831C175.954 109.831 174.321 108.198 174.321 106.184V96.6469C174.321 94.6328 175.954 93 177.968 93H184.94Z" fill="#FFC700"/><path fill-rule="evenodd" clip-rule="evenodd" d="M181.321 97C181.321 96.4477 181.769 96 182.321 96H185.321C185.874 96 186.321 96.4477 186.321 97V103L195.321 103V97C195.321 96.4477 195.769 96 196.321 96H199.321C199.874 96 200.321 96.4477 200.321 97V104V107C200.321 107.552 199.874 108 199.321 108H196.321C196.321 108 196.32 108 196.32 108L185.322 108C185.322 108 185.321 108 185.321 108H182.321C182.287 108 182.253 107.998 182.219 107.995C181.715 107.944 181.321 107.518 181.321 107V104V97Z" fill="#FFDE00"/><path d="M131.94 109C133.954 109 135.587 110.633 135.587 112.647L135.587 116.512H139.867L139.867 112.647C139.867 110.633 141.5 109 143.514 109H150.486C152.5 109 154.133 110.633 154.133 112.647L154.132 116.512H158.412L158.412 112.647C158.412 110.633 160.045 109 162.059 109H169.031C171.045 109 172.678 110.633 172.678 112.647V122.184C172.678 124.198 171.045 125.831 169.031 125.831L166.638 125.83L167.63 150.728L126.764 150.724L128.019 125.83L124.968 125.831C122.954 125.831 121.321 124.198 121.321 122.184V112.647C121.321 110.633 122.954 109 124.968 109H131.94Z" fill="#FFC700"/><path d="M166.867 132H162.635C160.153 132 157.99 133.36 156.848 135.374C155.706 133.36 153.542 132 151.061 132H144.089C141.608 132 139.444 133.36 138.302 135.374C137.16 133.36 134.997 132 132.515 132H127.691L127.571 135H132.515C134.53 135 136.162 136.633 136.162 138.647L136.162 142.512H140.442L140.442 138.647C140.442 136.633 142.075 135 144.089 135H151.061C153.075 135 154.708 136.633 154.708 138.647L154.708 142.512H158.988L158.988 138.647C158.988 136.633 160.62 135 162.635 135H167.018L166.867 132Z" fill="#FFB800"/><path d="M163.321 159.5H236.321V212.5H163.321V159.5Z" fill="#FFC700"/><path fill-rule="evenodd" clip-rule="evenodd" d="M241.587 138.647C241.587 136.633 239.954 135 237.94 135H230.968C228.954 135 227.321 136.633 227.321 138.647V148.184C227.321 150.198 228.954 151.831 230.968 151.831L234.019 151.83L231.51 197.617C229.576 197.707 228.035 199.303 228.035 201.26V208.835C228.035 210.85 229.667 212.482 231.681 212.482H274.318C276.332 212.482 277.965 210.85 277.965 208.835V201.26C277.965 199.348 276.493 197.78 274.621 197.626L272.638 151.83L275.031 151.831C277.045 151.831 278.678 150.198 278.678 148.184V138.647C278.678 136.633 277.045 135 275.031 135H268.059C266.045 135 264.412 136.633 264.412 138.647L264.412 142.512H260.132L260.133 138.647C260.133 136.633 258.5 135 256.486 135H249.514C247.5 135 245.867 136.633 245.867 138.647L245.867 142.512H241.587L241.587 138.647Z" fill="#FFC800"/><path fill-rule="evenodd" clip-rule="evenodd" d="M234.321 139C234.321 138.448 234.769 138 235.321 138H238.321C238.874 138 239.321 138.448 239.321 139V145L248.321 145V139C248.321 138.448 248.769 138 249.321 138H252.321C252.874 138 253.321 138.448 253.321 139V146V149C253.321 149.552 252.874 150 252.321 150H249.321C249.321 150 249.32 150 249.32 150L238.322 150C238.322 150 238.321 150 238.321 150H235.321C235.287 150 235.253 149.998 235.219 149.995C234.715 149.944 234.321 149.518 234.321 149V146V139Z" fill="#FFDE00"/><path fill-rule="evenodd" clip-rule="evenodd" d="M235.807 200.135H252.668C253.339 200.135 253.884 200.679 253.884 201.35V207.779C253.884 208.451 253.339 208.995 252.668 208.995H235.807C235.136 208.995 234.592 208.451 234.592 207.779V201.35C234.592 200.679 235.136 200.135 235.807 200.135Z" fill="#FFDE00"/><path fill-rule="evenodd" clip-rule="evenodd" d="M240.88 152.813H252.682C253.353 152.813 253.897 153.357 253.897 154.028V195.726C253.897 196.397 253.353 196.941 252.682 196.941H239.06C238.388 196.941 237.844 196.397 237.844 195.726C237.844 195.7 237.845 195.674 237.847 195.649L239.667 153.951C239.707 153.311 240.239 152.813 240.88 152.813Z" fill="#FFDE00"/><path fill-rule="evenodd" clip-rule="evenodd" d="M135.587 138.647C135.587 136.633 133.954 135 131.94 135H124.968C122.954 135 121.321 136.633 121.321 138.647V148.184C121.321 150.198 122.954 151.831 124.968 151.831L128.019 151.83L125.51 197.617C123.576 197.707 122.035 199.303 122.035 201.26V208.835C122.035 210.85 123.667 212.482 125.681 212.482H168.318C170.332 212.482 171.965 210.85 171.965 208.835V201.26C171.965 199.348 170.493 197.78 168.621 197.626L166.638 151.83L169.031 151.831C171.045 151.831 172.678 150.198 172.678 148.184V138.647C172.678 136.633 171.045 135 169.031 135H162.059C160.045 135 158.412 136.633 158.412 138.647L158.412 142.512H154.132L154.133 138.647C154.133 136.633 152.5 135 150.486 135H143.514C141.5 135 139.867 136.633 139.867 138.647L139.867 142.512H135.587L135.587 138.647Z" fill="#FFC800"/><path fill-rule="evenodd" clip-rule="evenodd" d="M128.321 139C128.321 138.448 128.769 138 129.321 138H132.321C132.874 138 133.321 138.448 133.321 139V145L142.321 145V139C142.321 138.448 142.769 138 143.321 138H146.321C146.874 138 147.321 138.448 147.321 139V146V149C147.321 149.552 146.874 150 146.321 150H143.321C143.321 150 143.32 150 143.32 150L132.322 150C132.322 150 132.321 150 132.321 150H129.321C129.287 150 129.253 149.998 129.219 149.995C128.715 149.944 128.321 149.518 128.321 149V146V139Z" fill="#FFDE00"/><path fill-rule="evenodd" clip-rule="evenodd" d="M129.807 200.135H146.668C147.339 200.135 147.884 200.679 147.884 201.35V207.779C147.884 208.451 147.339 208.995 146.668 208.995H129.807C129.136 208.995 128.592 208.451 128.592 207.779V201.35C128.592 200.679 129.136 200.135 129.807 200.135Z" fill="#FFDE00"/><path fill-rule="evenodd" clip-rule="evenodd" d="M134.881 152.813H146.682C147.353 152.813 147.898 153.357 147.898 154.028V195.726C147.898 196.397 147.353 196.941 146.682 196.941H133.06C132.389 196.941 131.845 196.397 131.845 195.726C131.845 195.7 131.846 195.674 131.847 195.649L133.667 153.951C133.708 153.311 134.239 152.813 134.881 152.813Z" fill="#FFDE00"/><path d="M139.321 172.368C139.321 168.444 142.502 165.263 146.427 165.263H147.216C151.14 165.263 154.321 168.444 154.321 172.368V182.632C154.321 183.504 153.614 184.211 152.742 184.211H140.9C140.028 184.211 139.321 183.504 139.321 182.632V172.368Z" fill="#DF9500"/><path d="M246.321 172.368C246.321 168.444 249.502 165.263 253.427 165.263H254.216C258.14 165.263 261.321 168.444 261.321 172.368V182.632C261.321 183.504 260.614 184.211 259.742 184.211H247.9C247.028 184.211 246.321 183.504 246.321 182.632V172.368Z" fill="#DF9500"/><path d="M185.321 184.487C185.321 176.9 191.472 170.75 199.058 170.75H200.585C208.171 170.75 214.322 176.9 214.322 184.487V212.382H185.321V184.487Z" fill="#DF9500"/><path d="M192.37 127.105C192.37 123.181 195.551 120 199.475 120H200.265C204.189 120 207.37 123.181 207.37 127.105V137.368C207.37 138.24 206.663 138.947 205.791 138.947H193.949C193.077 138.947 192.37 138.24 192.37 137.368V127.105Z" fill="#DF9500"/><rect opacity="0.35" x="293.079" y="177.864" width="10.484" height="10.484" rx="2.54506" transform="rotate(60 293.079 177.864)" fill="#FFC700"/><rect opacity="0.2" x="95.0771" y="125.864" width="14.1535" height="14.1535" rx="3.43588" transform="rotate(30 95.0771 125.864)" fill="#FFC700"/><rect opacity="0.35" x="102.576" y="158.241" width="9.59081" height="9.59081" rx="2.83074" transform="rotate(30 102.576 158.241)" fill="#FFC700"/></g><path d="M276 221C276 218.791 277.791 217 280 217H303.047C305.889 217 307.824 219.88 306.75 222.512L302.882 231.988C302.487 232.957 302.487 234.043 302.882 235.012L306.75 244.488C307.824 247.12 305.889 250 303.047 250H280C277.791 250 276 248.209 276 246V221Z" fill="#E7A601"/><path d="M121 221C121 218.791 119.209 217 117 217H93.953C91.1112 217 89.1757 219.88 90.2496 222.512L94.1177 231.988C94.5132 232.957 94.5132 234.043 94.1177 235.012L90.2496 244.488C89.1757 247.12 91.1112 250 93.953 250H117C119.209 250 121 248.209 121 246V221Z" fill="#E7A601"/><rect x="108" y="211" width="182" height="33" rx="4" fill="#FFC800"/><path d="M176.501 234.209C179.408 234.209 181.441 232.461 181.441 229.231V222.448C181.441 221.555 180.852 220.966 180.035 220.966C179.237 220.966 178.648 221.555 178.648 222.448V229.326C178.648 230.865 177.793 231.739 176.501 231.739C175.266 231.739 174.335 230.884 174.335 229.326V222.448C174.335 221.555 173.746 220.966 172.948 220.966C172.131 220.966 171.542 221.555 171.542 222.448V229.231C171.542 232.461 173.48 234.209 176.501 234.209Z" fill="#CD7900"/><path d="M184.415 232.765C184.415 233.62 184.928 234.114 185.688 234.114C186.448 234.114 186.961 233.62 186.961 232.765V225.716H187.037L190.989 232.746C191.502 233.639 192.034 234.114 192.832 234.114C193.782 234.114 194.39 233.468 194.39 232.442V222.315C194.39 221.46 193.877 220.966 193.117 220.966C192.357 220.966 191.844 221.46 191.844 222.315V229.383H191.768L187.816 222.334C187.303 221.441 186.771 220.966 185.973 220.966C185.023 220.966 184.415 221.612 184.415 222.638V232.765Z" fill="#CD7900"/><path d="M197.435 232.632C197.435 233.525 198.024 234.114 198.841 234.114C199.639 234.114 200.228 233.525 200.228 232.632V222.448C200.228 221.555 199.639 220.966 198.841 220.966C198.024 220.966 197.435 221.555 197.435 222.448V232.632Z" fill="#CD7900"/><path d="M207.341 234.114C208.158 234.114 208.747 233.525 208.747 232.632V223.683C208.747 223.607 208.785 223.569 208.861 223.569H211.046C211.901 223.569 212.452 223.056 212.452 222.334C212.452 221.593 211.901 221.08 211.046 221.08H203.655C202.8 221.08 202.249 221.593 202.249 222.334C202.249 223.056 202.8 223.569 203.655 223.569H205.84C205.916 223.569 205.954 223.607 205.954 223.683V232.632C205.954 233.525 206.543 234.114 207.341 234.114Z" fill="#CD7900"/><path d="M219.58 232.252C219.922 233.316 221.328 234.209 223.304 234.209C225.128 234.209 226.705 233.354 227.218 231.758C227.389 231.245 227.503 230.618 227.503 229.801C227.503 228.718 227.408 228.091 227.237 227.54C226.762 226.115 225.565 225.393 223.912 225.393C222.943 225.393 222.297 225.697 221.974 226.02H221.917V223.493C221.917 223.417 221.955 223.379 222.031 223.379H226.078C226.819 223.379 227.294 222.904 227.294 222.22C227.294 221.555 226.819 221.08 226.078 221.08H220.739C220.017 221.08 219.58 221.517 219.58 222.22V227.445C219.58 228.3 220.093 228.813 220.872 228.813C221.442 228.813 221.822 228.642 222.183 228.186C222.449 227.844 222.829 227.635 223.361 227.635C223.969 227.635 224.482 227.882 224.71 228.528C224.805 228.832 224.862 229.193 224.862 229.801C224.862 230.39 224.786 230.751 224.691 231.036C224.482 231.625 223.969 231.948 223.285 231.948C222.677 231.948 222.126 231.587 221.841 231.226C221.48 230.789 221.119 230.599 220.682 230.599C219.979 230.599 219.485 231.093 219.485 231.758C219.485 231.91 219.523 232.081 219.58 232.252Z" fill="#CD7900"/><defs><clipPath id="clip0"><rect width="222" height="151" fill="white" transform="translate(89 62)"/></clipPath></defs></svg>