<svg width="196" height="26" viewBox="0 0 196 26" fill="none" xmlns="http://www.w3.org/2000/svg"><g clip-path="url(#clip0)"><path d="M10.5714 12.987C10.5714 10.987 9.16883 9.66234 7.4026 9.66234C5.63636 9.66234 4.18182 10.987 4.18182 12.987C4.18182 14.987 5.58442 16.3117 7.37663 16.3117C9.16883 16.3117 10.5714 15.013 10.5714 12.987ZM14.6234 1.06494V18.8312C14.6234 19.4545 14.3117 19.7403 13.8442 19.7403C13.1429 19.7403 12.1558 19.1429 11.4545 18.1039C10.5974 19.0909 8.83117 20 6.8052 20C2.72727 20 0 17.013 0 12.987C0 8.96104 2.8052 5.97403 6.8052 5.97403C8.12987 5.97403 9.42857 6.36364 10.5714 7.11688V5.24675C10.5714 2 12.4156 0.155844 13.8961 0.155844C14.3636 0.155844 14.6234 0.467532 14.6234 1.06494ZM31.0649 7.87013V18.8312C31.0649 19.4545 30.7533 19.7403 30.2857 19.7403C29.5844 19.7403 28.5974 19.1429 27.8961 18.0519C26.8052 19.2987 25.2468 20 23.5584 19.974C22 20.026 20.5195 19.4545 19.3247 18.4156C18.1039 17.2468 17.4545 15.4545 17.4545 12.8571V7.87013C17.4545 6.93506 17.8182 6.49351 18.8312 6.49351H20.2078C21.2208 6.49351 21.5844 6.88312 21.5844 7.87013V12.4675C21.5844 14.026 21.8701 14.8571 22.3636 15.4026C22.8312 15.8701 23.5325 16.1558 24.2078 16.1039C24.961 16.1039 25.6623 15.8182 26.1558 15.2727C26.6494 14.7273 26.9351 13.8701 26.9351 12.5455V7.87013C26.9351 6.88312 27.3766 6.49351 28.3117 6.49351H29.6883C30.6234 6.49351 31.0649 6.88312 31.0649 7.87013ZM43.5844 12.987C43.5844 11.0649 42.3636 9.66234 40.4675 9.66234C38.5455 9.66234 37.3507 11.0649 37.3507 12.987C37.3507 14.9091 38.5714 16.3117 40.4675 16.3117C42.3636 16.3117 43.5844 14.9351 43.5844 12.987ZM33.1688 12.987C33.1688 8.88312 36.2857 5.97403 40.4416 5.97403C44.5974 5.97403 47.7143 8.85714 47.7143 12.987C47.7143 17.1169 44.5974 20 40.4416 20C36.2857 20 33.1688 17.0649 33.1688 12.987ZM50.0779 18.1558V5.24675C50.0779 2 51.8701 0.155844 53.4026 0.155844C53.8701 0.155844 54.1818 0.467532 54.1818 1.06494V18.1558C54.1818 19.1429 53.7922 19.4805 52.8052 19.4805H51.4286C50.4935 19.4805 50.0779 19.1169 50.0779 18.1558ZM57.2987 18.1558V7.87013C57.2987 6.93506 57.6623 6.49351 58.6753 6.49351H60.052C61.0649 6.49351 61.4286 6.88312 61.4286 7.87013V18.1558C61.4286 19.0909 61.0649 19.4805 60.052 19.4805H58.6753C57.6623 19.4805 57.2987 19.0909 57.2987 18.1558ZM57.039 2.23377C57.039 0.987013 58.1039 0 59.2987 0C59.3507 0 59.3507 0 59.3766 0C60.5974 0.0779221 61.5325 1.14286 61.4546 2.33766C61.3766 3.53247 60.3117 4.49351 59.1169 4.41558C57.9221 4.38961 57.039 3.4026 57.039 2.23377ZM78.3896 13.2727V18.1558C78.3896 19.0909 78.026 19.4805 77.013 19.4805H75.6364C74.6234 19.4805 74.2598 19.0909 74.2598 18.1558V13.3766C74.2598 12.1558 74.052 11.2987 73.6364 10.7532C73.1169 10.1299 72.3377 9.81818 71.5585 9.84416C70.7273 9.79221 69.9481 10.1558 69.4026 10.7532C68.9351 11.2987 68.6234 12.1558 68.6234 13.3247V18.1039C68.6234 19.0909 68.1818 19.4286 67.2468 19.4286H65.8701C64.9351 19.4286 64.4935 19.0649 64.4935 18.1039V7.16883C64.4935 6.54545 64.8052 6.25974 65.2727 6.25974C65.974 6.25974 66.9611 6.85714 67.6883 7.97403C68.8312 6.72727 70.4156 6.02597 72.1039 6.02597C74.1039 6.02597 75.7143 6.72727 76.7533 7.8961C77.8701 9.06493 78.3896 10.6753 78.3896 13.2727ZM84.9611 11.7403C85.013 13.1169 86.1818 14.2078 87.5844 14.1558C88.9091 14.1039 89.9221 13.0649 90 11.7403C90 10.3377 88.987 9.35065 87.5065 9.35065C86.026 9.35065 84.9611 10.2857 84.9611 11.7403ZM90.6234 20C90.6234 18.4416 89.4026 17.3507 87.5065 17.3507C85.6104 17.3507 84.3896 18.4156 84.3896 20C84.3896 21.4805 85.7143 22.6493 87.5065 22.6493C89.2987 22.6493 90.6234 21.4805 90.6234 20ZM93.5585 9.74026C93.8442 10.2857 93.9481 10.8831 93.9481 11.5065C93.9481 12.987 93.1689 14.3636 91.9221 15.4286C93.6364 16.2597 94.6494 18.2338 94.6494 20.1299C94.6494 23.6623 91.7922 26 87.4546 26C83.1169 26 80.2598 23.6623 80.2598 20.1039C80.2078 18.1558 81.2727 16.3377 82.987 15.4026C81.6883 14.3377 80.9611 12.987 80.9611 11.4805C80.9611 8.38961 83.3766 6.12987 87.2208 6.12987C89.4805 6.12987 90.1559 6.51948 91.4546 6.51948C92.3117 6.57143 93.2208 6.31169 93.9481 5.84416C94.2338 5.68831 94.4935 5.55844 94.8052 5.55844C95.3247 5.55844 95.5844 6.07792 95.5844 6.7013C95.7143 8.1039 94.8572 9.2987 93.5585 9.74026ZM106.753 12.987C106.753 11.0649 105.532 9.66234 103.636 9.66234C101.74 9.66234 100.52 11.0649 100.52 12.987C100.52 14.9091 101.74 16.3117 103.636 16.3117C105.532 16.3117 106.753 14.9351 106.753 12.987ZM96.3117 12.987C96.3117 8.88312 99.4286 5.97403 103.584 5.97403C107.74 5.97403 110.857 8.85714 110.857 12.987C110.857 17.1169 107.74 20 103.584 20C99.4286 20 96.3117 17.0649 96.3117 12.987Z" fill="#58CC02"/><path d="M117.456 16.0781C117.222 15.3249 117.066 14.3119 117.066 12.8833C117.066 11.5067 117.222 10.4678 117.456 9.71451C118.157 7.5327 120.001 6.33789 122.391 6.33789C124.287 6.33789 125.612 7.14309 126.391 8.15607C126.599 8.44179 126.703 8.67555 126.703 8.96127C126.703 9.50672 126.287 9.92231 125.742 9.92231C125.352 9.92231 125.066 9.71451 124.781 9.40282C124.209 8.77945 123.534 8.36386 122.391 8.36386C121.04 8.36386 120.001 9.01321 119.586 10.3379C119.378 10.9872 119.3 11.7665 119.3 12.8833C119.3 14.0002 119.378 14.8054 119.586 15.4548C120.001 16.7535 121.014 17.4288 122.391 17.4288C123.508 17.4288 124.183 17.0132 124.781 16.3898C125.066 16.0781 125.352 15.8704 125.742 15.8704C126.287 15.8704 126.703 16.2859 126.703 16.8314C126.703 17.1171 126.599 17.3509 126.391 17.6366C125.612 18.6496 124.261 19.4548 122.391 19.4548C120.001 19.4548 118.157 18.26 117.456 16.0781Z" fill="#58CC02"/><path d="M139.377 18.2599C139.377 18.8573 138.909 19.2988 138.26 19.2988C137.87 19.2988 137.559 19.117 137.299 18.7534L136.805 17.9742H136.779C135.948 18.9092 134.753 19.4547 132.935 19.4547C130.13 19.4547 128.52 18.0781 128.52 15.6884C128.52 13.091 130.286 11.8183 133.403 11.8183H136.26C136.364 11.8183 136.416 11.7664 136.416 11.6625V11.0651C136.416 9.32481 135.61 8.31182 133.403 8.31182C132.442 8.31182 131.429 8.62351 130.831 8.9352C130.623 9.03909 130.39 9.11702 130.208 9.11702C129.636 9.11702 129.273 8.75338 129.273 8.18195C129.273 7.84429 129.429 7.50663 129.792 7.29883C130.571 6.77935 131.896 6.36377 133.61 6.36377C136.961 6.36377 138.52 7.94819 138.52 11.0391V15.5326C138.52 16.182 138.572 16.4417 138.753 16.8053L139.195 17.6105C139.299 17.8183 139.377 18.0521 139.377 18.2599ZM136.39 15.117V13.7404C136.39 13.6365 136.338 13.5845 136.234 13.5845H133.714C131.558 13.5845 130.597 14.2079 130.597 15.6365C130.597 16.9352 131.533 17.6105 133.221 17.6105C135.169 17.5845 136.39 16.6755 136.39 15.117Z" fill="#58CC02"/><path d="M142 18.1301V7.68854C142 6.96127 142.468 6.51971 143.091 6.51971C143.714 6.51971 144.182 6.96127 144.182 7.68854V8.25997H144.208C144.727 7.14309 145.87 6.33789 147.429 6.33789C148.286 6.33789 148.857 6.54568 149.299 6.77945C149.74 7.01322 149.922 7.35088 149.922 7.71451C149.922 8.33789 149.481 8.80542 148.831 8.80542C148.675 8.80542 148.468 8.75348 148.286 8.67555C147.818 8.49374 147.377 8.36387 146.857 8.36387C144.961 8.36387 144.208 9.92231 144.208 12.0262V18.1041C144.208 18.8314 143.74 19.273 143.117 19.273C142.468 19.2989 142 18.8574 142 18.1301Z" fill="#58CC02"/><path d="M151.091 16.0522C150.832 15.273 150.676 14.3898 150.676 12.8833C150.676 11.3769 150.806 10.4937 151.065 9.71451C151.767 7.5327 153.585 6.33789 155.949 6.33789C158.416 6.33789 160.182 7.5327 160.858 9.68854C161.143 10.5197 161.273 11.4807 161.273 12.7275C161.273 13.221 160.936 13.5587 160.416 13.5587H153.065C152.961 13.5587 152.91 13.6106 152.91 13.7145C152.91 14.3119 152.962 14.7275 153.117 15.221C153.585 16.6496 154.728 17.4028 156.286 17.4028C157.507 17.4028 158.364 17.0392 159.299 16.3379C159.559 16.1301 159.793 16.0262 160.052 16.0262C160.572 16.0262 160.962 16.4158 160.962 16.9353C160.962 17.247 160.832 17.5067 160.624 17.7145C159.559 18.7015 158.052 19.4288 156.13 19.4288C153.559 19.4548 151.793 18.26 151.091 16.0522ZM158.884 11.8184C158.987 11.8184 159.039 11.7665 159.039 11.6626C159.039 11.0911 158.987 10.6496 158.858 10.26C158.442 9.01321 157.403 8.28594 155.974 8.28594C154.546 8.28594 153.507 8.98724 153.091 10.26C152.962 10.6496 152.91 11.0911 152.91 11.6626C152.91 11.7665 152.961 11.8184 153.065 11.8184H158.884Z" fill="#58CC02"/><path d="M163.744 16.0522C163.484 15.273 163.328 14.3898 163.328 12.8833C163.328 11.3769 163.458 10.4937 163.718 9.71451C164.419 7.5327 166.237 6.33789 168.601 6.33789C171.068 6.33789 172.835 7.5327 173.51 9.68854C173.796 10.5197 173.926 11.4807 173.926 12.7275C173.926 13.221 173.588 13.5587 173.068 13.5587H165.718C165.614 13.5587 165.562 13.6106 165.562 13.7145C165.562 14.3119 165.614 14.7275 165.77 15.221C166.237 16.6496 167.38 17.4028 168.939 17.4028C170.159 17.4028 171.016 17.0392 171.952 16.3379C172.211 16.1301 172.445 16.0262 172.705 16.0262C173.224 16.0262 173.614 16.4158 173.614 16.9353C173.614 17.247 173.484 17.5067 173.276 17.7145C172.211 18.7015 170.705 19.4288 168.783 19.4288C166.211 19.4548 164.471 18.26 163.744 16.0522ZM171.562 11.8184C171.666 11.8184 171.718 11.7665 171.718 11.6626C171.718 11.0911 171.666 10.6496 171.536 10.26C171.12 9.01321 170.081 8.28594 168.653 8.28594C167.224 8.28594 166.185 8.98724 165.77 10.26C165.64 10.6496 165.588 11.0911 165.588 11.6626C165.588 11.7665 165.64 11.8184 165.744 11.8184H171.562Z" fill="#58CC02"/><path d="M176.755 18.1301V7.68854C176.755 6.96127 177.222 6.51971 177.846 6.51971C178.469 6.51971 178.937 6.96127 178.937 7.68854V8.25997H178.963C179.482 7.14309 180.625 6.33789 182.183 6.33789C183.041 6.33789 183.612 6.54568 184.054 6.77945C184.495 7.01322 184.677 7.35088 184.677 7.71451C184.677 8.33789 184.235 8.80542 183.586 8.80542C183.43 8.80542 183.222 8.75348 183.041 8.67555C182.573 8.49374 182.132 8.36387 181.612 8.36387C179.716 8.36387 178.963 9.92231 178.963 12.0262V18.1041C178.963 18.8314 178.495 19.273 177.872 19.273C177.222 19.2989 176.755 18.8574 176.755 18.1301Z" fill="#58CC02"/><path d="M186.184 18.0781C185.846 17.8443 185.664 17.5326 185.664 17.169C185.664 16.6495 186.08 16.182 186.677 16.182C186.885 16.182 187.093 16.2339 187.404 16.4157C188.417 17.0131 189.508 17.5066 190.911 17.5066C192.703 17.5066 193.664 16.7274 193.664 15.6105C193.664 14.5716 193.197 14.0521 191.197 13.8443L189.898 13.7144C187.43 13.4547 186.158 12.2079 186.158 10.182C186.158 7.79234 187.846 6.36377 190.781 6.36377C192.235 6.36377 193.56 6.72741 194.521 7.27286C194.963 7.50663 195.171 7.79234 195.171 8.18195C195.171 8.70143 194.755 9.11702 194.235 9.11702C194.028 9.11702 193.794 9.06507 193.456 8.90922C192.625 8.51961 191.69 8.25987 190.677 8.25987C189.119 8.25987 188.287 8.96117 188.287 9.97416C188.287 10.9612 188.859 11.4807 190.755 11.6625L192.054 11.7923C194.677 12.0781 195.82 13.2988 195.82 15.3508C195.82 17.8183 194.054 19.4287 190.729 19.4287C188.807 19.4547 187.223 18.8053 186.184 18.0781Z" fill="#58CC02"/></g><defs><clipPath id="clip0"><rect width="195.818" height="26" fill="white"/></clipPath></defs></svg>