<svg width="345" height="344" viewBox="0 0 345 344" fill="none" xmlns="http://www.w3.org/2000/svg"><mask id="mask0" mask-type="alpha" maskUnits="userSpaceOnUse" x="129" y="138" width="187" height="197"><path d="M312.261 184.02L187.887 138.752C185.003 137.702 181.814 139.189 180.764 142.073L129.967 281.637C128.917 284.521 130.404 287.71 133.288 288.76L257.662 334.028C260.546 335.078 263.735 333.591 264.785 330.707L315.582 191.142C316.631 188.258 315.145 185.07 312.261 184.02Z" fill="white"/></mask><g mask="url(#mask0)"><path d="M312.261 184.02L187.887 138.752C185.003 137.702 181.814 139.189 180.764 142.073L129.967 281.637C128.917 284.521 130.404 287.71 133.288 288.76L257.662 334.028C260.546 335.078 263.735 333.591 264.785 330.707L315.582 191.142C316.631 188.258 315.145 185.07 312.261 184.02Z" fill="#F0EAEA"/><path d="M187.402 127.92L55.5499 116.384C52.4926 116.116 49.7973 118.378 49.5298 121.435L36.5854 269.392C36.3179 272.449 38.5795 275.144 41.6368 275.412L173.489 286.947C176.546 287.215 179.242 284.953 179.509 281.896L192.454 133.94C192.721 130.882 190.459 128.187 187.402 127.92Z" fill="#E7DEDE"/></g><mask id="mask1" mask-type="alpha" maskUnits="userSpaceOnUse" x="149" y="150" width="156" height="151"><path d="M300.973 189.589L193.321 150.406C190.437 149.357 187.248 150.844 186.199 153.728L149.809 253.707C148.759 256.591 150.246 259.779 153.13 260.829L260.783 300.011C263.667 301.061 266.855 299.574 267.905 296.69L304.294 196.711C305.344 193.827 303.857 190.638 300.973 189.589Z" fill="white"/></mask><g mask="url(#mask1)"><path d="M300.975 189.589L193.322 150.406C190.438 149.357 187.25 150.844 186.2 153.728L149.811 253.707C148.761 256.591 150.248 259.779 153.132 260.829L260.784 300.011C263.668 301.061 266.857 299.574 267.906 296.69L304.296 196.711C305.346 193.827 303.859 190.638 300.975 189.589Z" fill="#E0B0FF"/><path d="M239.9 184.76C256.793 190.908 266.694 208.445 263.239 226.096L252.873 279.047C252.681 280.03 251.729 280.67 250.748 280.478C250.655 280.46 250.565 280.435 250.476 280.403L173.871 252.521C172.931 252.178 172.446 251.139 172.788 250.198C172.811 250.135 172.838 250.073 172.868 250.012L196.67 202.062C204.58 186.128 223.192 178.679 239.9 184.76Z" fill="#A570FF"/><path d="M260.131 223.511L262.662 224.431C266.247 225.736 268.103 229.682 266.806 233.244C265.51 236.806 261.552 238.636 257.967 237.331L255.436 236.41C251.851 235.105 249.996 231.159 251.292 227.597C252.589 224.035 256.546 222.206 260.131 223.511Z" fill="#FFC6B7"/><path d="M241.788 191.172C256.062 196.367 264.16 211.45 260.601 226.212L254.832 250.138C252.924 258.049 244.963 262.915 237.049 261.006C236.512 260.876 235.983 260.717 235.464 260.528L200.588 247.834C192.938 245.05 188.993 236.594 191.777 228.947C192.016 228.288 192.303 227.648 192.634 227.03L204.137 205.552C211.362 192.064 227.405 185.937 241.788 191.172Z" fill="#FFC6B7"/><path d="M242.396 189.814C255.905 194.73 264.668 210.22 262.529 224.383L241.441 216.708C230.175 212.607 224.367 200.148 228.469 188.88L229.171 186.952C233.29 187.095 237.732 188.116 242.396 189.814Z" fill="#A570FF"/><path d="M249.128 221.48L241.674 218.767C236.956 217.05 231.728 219.517 229.995 224.278L227.811 230.279C226.965 232.602 228.146 235.163 230.447 236.001L234.822 237.593C239.539 239.31 244.768 236.843 246.5 232.082L249.816 222.973C250.036 222.367 249.728 221.699 249.128 221.48Z" fill="white"/><mask id="mask2" mask-type="alpha" maskUnits="userSpaceOnUse" x="227" y="218" width="23" height="21"><path d="M249.128 221.48L241.674 218.767C236.956 217.05 231.728 219.517 229.995 224.278L227.811 230.279C226.965 232.602 228.146 235.163 230.447 236.001L234.822 237.593C239.539 239.31 244.768 236.843 246.5 232.082L249.816 222.973C250.036 222.367 249.728 221.699 249.128 221.48Z" fill="white"/></mask><g mask="url(#mask2)"><path d="M239.248 219.464C241.366 220.235 242.455 222.585 241.68 224.714L239.918 229.555C239.143 231.684 236.798 232.785 234.68 232.014C232.562 231.243 231.473 228.893 232.248 226.764L234.01 221.922C234.785 219.794 237.13 218.693 239.248 219.464Z" fill="#3D3D3D"/></g><mask id="mask3" mask-type="alpha" maskUnits="userSpaceOnUse" x="227" y="218" width="23" height="21"><path d="M249.128 221.48L241.674 218.767C236.956 217.05 231.728 219.517 229.995 224.278L227.811 230.279C226.965 232.602 228.146 235.163 230.447 236.001L234.822 237.593C239.539 239.31 244.768 236.843 246.5 232.082L249.816 222.973C250.036 222.367 249.728 221.699 249.128 221.48Z" fill="white"/></mask><g mask="url(#mask3)"><path d="M233.261 210.967L255.224 218.961L250.022 233.255L228.058 225.261L233.261 210.967Z" fill="#A570FF"/></g><path d="M214.868 209.011L222.323 211.725C227.04 213.441 229.459 218.692 227.727 223.453L225.609 229.272C224.727 231.695 222.065 232.951 219.664 232.077L215.471 230.55C210.753 228.833 208.334 223.582 210.066 218.822L213.382 209.713C213.603 209.107 214.268 208.793 214.868 209.011Z" fill="white"/><mask id="mask4" mask-type="alpha" maskUnits="userSpaceOnUse" x="209" y="208" width="20" height="25"><path d="M214.868 209.011L222.323 211.725C227.04 213.441 229.459 218.692 227.727 223.453L225.609 229.272C224.727 231.695 222.065 232.951 219.664 232.077L215.471 230.55C210.753 228.833 208.334 223.582 210.066 218.822L213.382 209.713C213.603 209.107 214.268 208.793 214.868 209.011Z" fill="white"/></mask><g mask="url(#mask4)"><path d="M223.559 213.753C225.676 214.524 226.765 216.875 225.99 219.004L224.228 223.845C223.454 225.974 221.108 227.075 218.99 226.304C216.873 225.533 215.784 223.182 216.559 221.054L218.321 216.212C219.096 214.083 221.441 212.983 223.559 213.753Z" fill="#3D3D3D"/></g><mask id="mask5" mask-type="alpha" maskUnits="userSpaceOnUse" x="209" y="208" width="20" height="25"><path d="M214.868 209.011L222.323 211.725C227.04 213.441 229.459 218.692 227.727 223.453L225.609 229.272C224.727 231.695 222.065 232.951 219.664 232.077L215.471 230.55C210.753 228.833 208.334 223.582 210.066 218.822L213.382 209.713C213.603 209.107 214.268 208.793 214.868 209.011Z" fill="white"/></mask><g mask="url(#mask5)"><path d="M212.865 203.544L234.828 211.538L229.626 225.832L207.662 217.838L212.865 203.544Z" fill="#A570FF"/></g><path d="M225.778 245.477C229.98 241.616 233.496 240.706 235.98 243.325C236.434 243.803 236.414 244.558 235.936 245.011C235.457 245.464 234.702 245.443 234.249 244.965C232.932 243.576 230.762 244.138 227.393 247.233C226.908 247.678 226.153 247.646 225.707 247.161C225.261 246.676 225.293 245.922 225.778 245.477Z" fill="#EE9583"/><path d="M222.856 239.554C224.782 240.255 226.899 239.294 227.585 237.408C228.272 235.522 226.409 229.793 226.409 229.793L225.789 230.195C224.406 231.112 221.151 233.392 220.613 234.871C219.926 236.757 220.931 238.854 222.856 239.554Z" fill="#EE9583"/><path d="M214.988 187.485L215.552 187.227L226.856 186.705C228.053 186.65 229.066 187.578 229.118 188.778C229.13 189.064 229.086 189.35 228.988 189.62L206.308 251.934C205.965 252.876 204.927 253.362 203.99 253.021L184.716 246.005C183.59 245.596 183.011 244.348 183.422 243.219L196.249 207.978C199.545 198.923 206.291 191.554 214.988 187.485Z" fill="#A570FF"/><path d="M209.73 251.359L223.755 256.464C224.359 256.683 224.67 257.35 224.451 257.952L205.26 310.679C205.041 311.282 204.373 311.592 203.77 311.372L189.744 306.267C189.141 306.048 188.829 305.381 189.049 304.779L208.24 252.052C208.459 251.449 209.126 251.139 209.73 251.359Z" fill="#593F86"/><path d="M194.629 292.845L208.654 297.95C209.257 298.17 209.569 298.836 209.349 299.439L185.908 363.844C185.689 364.447 185.022 364.757 184.418 364.537L170.393 359.433C169.789 359.213 169.478 358.546 169.697 357.943L193.138 293.539C193.358 292.936 194.025 292.625 194.629 292.845Z" fill="#A570FF"/><path d="M213.066 263.036L213.693 263.264C216.527 264.295 218.66 266.67 219.38 269.595L225.985 296.444C226.891 300.128 224.635 303.845 220.946 304.745C219.624 305.067 218.236 304.991 216.956 304.525L184.044 292.546C180.473 291.246 178.63 287.304 179.926 283.741C180.391 282.464 181.225 281.355 182.322 280.552L204.64 264.23C207.071 262.452 210.232 262.004 213.066 263.036Z" fill="#593F86"/><path d="M192.905 280.6C195.922 278.858 199.779 279.892 201.52 282.908C203.262 285.925 202.229 289.782 199.212 291.523C196.195 293.265 192.338 292.232 190.597 289.215C188.855 286.198 189.889 282.341 192.905 280.6Z" fill="#FFC6B7"/><path d="M188.053 281.964L219.291 293.333C222.266 294.416 223.796 297.713 222.71 300.697C221.624 303.682 218.332 305.223 215.358 304.141L184.12 292.771C181.145 291.688 179.614 288.392 180.701 285.407C181.787 282.423 185.079 280.881 188.053 281.964Z" fill="#593F86"/><path d="M223.177 294.089L210.727 283.977C205.901 280.057 198.848 280.735 194.82 285.449L194.611 285.701L215.954 303.035C218.41 305.03 222.017 304.644 224.012 302.173C226.007 299.703 225.633 296.083 223.177 294.089Z" fill="#593F86"/><path d="M218.041 294.139C216.615 295.066 214.709 294.661 213.783 293.235C213.72 293.136 213.662 293.035 213.609 292.93L209.782 285.234L212.529 285.343C215.052 285.443 217.369 286.762 218.743 288.88L219.056 289.363C220.094 290.962 219.639 293.1 218.041 294.139Z" fill="#FFC6B7"/></g><mask id="mask6" mask-type="alpha" maskUnits="userSpaceOnUse" x="85" y="6" width="195" height="202"><path d="M208.606 6.75755L88.6505 62.6935C85.8691 63.9906 84.6657 67.2968 85.9627 70.0783L148.731 204.684C150.028 207.466 153.334 208.669 156.115 207.372L276.07 151.436C278.852 150.139 280.055 146.833 278.758 144.051L215.99 9.44538C214.693 6.66392 211.387 5.46054 208.606 6.75755Z" fill="white"/></mask><g mask="url(#mask6)"><path d="M208.606 6.75755L88.6505 62.6935C85.8691 63.9906 84.6657 67.2968 85.9627 70.0783L148.731 204.684C150.028 207.466 153.334 208.669 156.115 207.372L276.07 151.436C278.852 150.139 280.055 146.833 278.758 144.051L215.99 9.44538C214.693 6.66392 211.387 5.46054 208.606 6.75755Z" fill="#F0EAEA"/><path d="M186.807 128.725L54.9552 117.189C51.8979 116.922 49.2026 119.183 48.9351 122.241L35.9906 270.197C35.7231 273.254 37.9848 275.949 41.0421 276.217L172.894 287.753C175.952 288.02 178.647 285.758 178.914 282.701L191.859 134.745C192.126 131.687 189.865 128.992 186.807 128.725Z" fill="#E7DEDE"/></g><mask id="mask7" mask-type="alpha" maskUnits="userSpaceOnUse" x="97" y="18" width="161" height="157"><path d="M204.562 18.6764L100.735 67.092C97.9531 68.389 96.7497 71.6953 98.0467 74.4767L143.011 170.904C144.308 173.685 147.615 174.889 150.396 173.592L254.224 125.176C257.005 123.879 258.209 120.573 256.912 117.791L211.947 21.3642C210.65 18.5827 207.344 17.3793 204.562 18.6764Z" fill="white"/></mask><g mask="url(#mask7)"><path d="M204.562 18.6764L100.735 67.092C97.9531 68.389 96.7497 71.6953 98.0467 74.4767L143.011 170.904C144.308 173.685 147.615 174.889 150.396 173.592L254.224 125.176C257.005 123.879 258.209 120.573 256.912 117.791L211.947 21.3642C210.65 18.5827 207.344 17.3793 204.562 18.6764Z" fill="#A6EAFC"/><path d="M200.236 157.927C197.622 158.064 195.391 156.056 195.254 153.441L194.296 135.15C194.159 132.536 196.167 130.305 198.782 130.168C201.396 130.031 203.627 132.04 203.764 134.654L204.722 152.945C204.859 155.56 202.851 157.79 200.236 157.927Z" fill="#FF86D0"/><path d="M185.015 81.3205L199.782 70.1594C201.574 68.8051 203.965 68.5413 206.009 69.4724L216.724 74.3521C219.8 75.753 221.158 79.3825 219.757 82.4588C219.452 83.1295 219.028 83.7395 218.506 84.2594L201.737 100.955C199.341 103.34 195.466 103.332 193.081 100.936C192.943 100.798 192.812 100.653 192.688 100.502L184.073 90.0124C181.928 87.4002 182.306 83.5434 184.919 81.3981L185.015 81.3205Z" fill="#1CB0F6"/><path d="M207.733 95.8491C216.967 82.6617 235.106 79.4309 248.248 88.6328C249.562 89.5533 250.777 90.5633 251.89 91.649L251.861 91.6283C252.216 91.8767 252.543 92.1622 252.838 92.4798L299.818 143.134C301.692 145.155 301.902 148.211 300.321 150.469L291.585 162.945C289.731 165.592 286.083 166.235 283.436 164.382C283.096 164.144 282.783 163.872 282.502 163.568L260.04 139.349C260.196 147.124 254.222 153.736 246.378 154.285L225.619 155.736C217.526 156.302 210.507 150.2 209.941 142.108C209.734 139.153 210.416 136.341 211.76 133.934C201.228 124.224 199.261 107.948 207.733 95.8491Z" fill="#FFB7E3"/><mask id="mask8" mask-type="alpha" maskUnits="userSpaceOnUse" x="202" y="83" width="100" height="83"><path d="M207.733 95.8491C216.967 82.6617 235.106 79.4309 248.248 88.6328C249.562 89.5533 250.777 90.5633 251.89 91.649L251.861 91.6283C252.216 91.8767 252.543 92.1622 252.838 92.4798L299.818 143.134C301.692 145.155 301.902 148.211 300.321 150.469L291.585 162.945C289.731 165.592 286.083 166.235 283.436 164.382C283.096 164.144 282.783 163.872 282.502 163.568L260.04 139.349C260.196 147.124 254.222 153.736 246.378 154.285L225.619 155.736C217.526 156.302 210.507 150.2 209.941 142.108C209.734 139.153 210.416 136.341 211.76 133.934C201.228 124.224 199.261 107.948 207.733 95.8491Z" fill="white"/></mask><g mask="url(#mask8)"><path d="M237.615 110.185C237.923 109.583 238.661 109.345 239.262 109.654L240.589 110.342C250.17 115.379 256.396 120.125 259.284 124.661C262.544 129.781 262.776 135.507 262.085 141.516C262.003 142.23 261.322 142.369 260.674 142.175C260.027 141.981 260.175 139.738 260.04 139.349C260.482 134.815 259.922 130.221 257.219 125.976C254.489 121.689 248.125 116.944 238.146 111.833C237.544 111.524 237.307 110.787 237.615 110.185Z" fill="#FFA1DA"/></g><mask id="mask9" mask-type="alpha" maskUnits="userSpaceOnUse" x="202" y="83" width="100" height="83"><path d="M207.733 95.8491C216.967 82.6617 235.106 79.4309 248.248 88.6328C249.562 89.5533 250.777 90.5633 251.89 91.649L251.861 91.6283C252.216 91.8767 252.543 92.1622 252.838 92.4798L299.818 143.134C301.692 145.155 301.902 148.211 300.321 150.469L291.585 162.945C289.731 165.592 286.083 166.235 283.436 164.382C283.096 164.144 282.783 163.872 282.502 163.568L260.04 139.349C260.196 147.124 254.222 153.736 246.378 154.285L225.619 155.736C217.526 156.302 210.507 150.2 209.941 142.108C209.734 139.153 210.416 136.341 211.76 133.934C201.228 124.224 199.261 107.948 207.733 95.8491Z" fill="white"/></mask><g mask="url(#mask9)"><path d="M233.058 114.018C232.647 113.544 232.664 112.843 233.078 112.391L233.18 112.291L239.42 106.879C239.931 106.436 240.704 106.491 241.147 107.001C241.558 107.476 241.54 108.176 241.127 108.628L241.024 108.728L234.785 114.14C234.274 114.583 233.501 114.528 233.058 114.018Z" fill="#FFA1DA"/></g><mask id="mask10" mask-type="alpha" maskUnits="userSpaceOnUse" x="202" y="83" width="100" height="83"><path d="M207.733 95.8491C216.967 82.6617 235.106 79.4309 248.248 88.6328C249.562 89.5533 250.777 90.5633 251.89 91.649L251.861 91.6283C252.216 91.8767 252.543 92.1622 252.838 92.4798L299.818 143.134C301.692 145.155 301.902 148.211 300.321 150.469L291.585 162.945C289.731 165.592 286.083 166.235 283.436 164.382C283.096 164.144 282.783 163.872 282.502 163.568L260.04 139.349C260.196 147.124 254.222 153.736 246.378 154.285L225.619 155.736C217.526 156.302 210.507 150.2 209.941 142.108C209.734 139.153 210.416 136.341 211.76 133.934C201.228 124.224 199.261 107.948 207.733 95.8491Z" fill="white"/></mask><g mask="url(#mask10)"><path d="M210.171 134.517L210.248 134.397C210.643 133.849 211.408 133.725 211.957 134.12C218.337 138.721 224.069 141.094 229.139 141.278C229.815 141.303 230.342 141.871 230.318 142.546C230.293 143.222 229.726 143.75 229.05 143.725C223.435 143.52 217.265 140.967 210.525 136.106C210.016 135.739 209.872 135.053 210.171 134.517Z" fill="#FFA1DA"/></g><path d="M199.293 102.443L221.83 79.9054L225.539 83.6141L203.002 106.152L199.293 102.443Z" fill="#FF86D0"/><mask id="mask11" mask-type="alpha" maskUnits="userSpaceOnUse" x="199" y="79" width="27" height="28"><path d="M199.293 102.443L221.83 79.9054L225.539 83.6141L203.002 106.152L199.293 102.443Z" fill="white"/></mask><g mask="url(#mask11)"><path d="M204.764 94.585L207.76 91.5895L213.608 97.4379L210.613 100.433L204.764 94.585Z" fill="#FFB7E3"/></g><mask id="mask12" mask-type="alpha" maskUnits="userSpaceOnUse" x="199" y="79" width="27" height="28"><path d="M199.293 102.443L221.83 79.9054L225.539 83.6141L203.002 106.152L199.293 102.443Z" fill="white"/></mask><g mask="url(#mask12)"><path d="M215.092 84.1028L218.088 81.1073L223.936 86.9557L220.941 89.9512L215.092 84.1028Z" fill="#FFB7E3"/></g><path d="M196.204 61.7396L223.933 41.5935C227.762 38.8119 233.12 39.6606 235.902 43.4892C238.683 47.3177 237.835 52.6763 234.006 55.4579L206.277 75.604C202.449 78.3856 197.09 77.5368 194.309 73.7083C191.527 69.8798 192.376 64.5212 196.204 61.7396Z" fill="#1CB0F6"/><path d="M189.998 66.5817L195.615 58.5599C197.166 56.3448 200.219 55.8064 202.434 57.3575L211.459 63.6765C213.674 65.2275 214.212 68.2807 212.661 70.4958L207.044 78.5175C205.493 80.7327 202.44 81.271 200.225 79.72L191.2 73.401C188.985 71.8499 188.447 68.7968 189.998 66.5817Z" fill="#FFB7E3"/><path d="M202.756 56.5889L199.247 60.9211C198.055 62.393 198.282 64.5525 199.754 65.7444C199.891 65.8551 200.036 65.9551 200.188 66.0436L216.951 75.7949C218.413 76.6453 220.276 76.303 221.341 74.9888L226.719 68.3475C227.911 66.8756 227.684 64.7162 226.212 63.5242C225.944 63.3075 225.645 63.1324 225.326 63.0046L206.693 55.5623C205.297 55.0049 203.701 55.421 202.756 56.5889Z" fill="#FFB7E3"/><path d="M113.911 34.391C128.161 14.0395 156.211 9.0935 176.563 23.3438L180.529 26.1207C200.88 40.371 205.826 68.4213 191.576 88.7728C177.326 109.124 149.275 114.07 128.924 99.8201L124.958 97.0431C104.607 82.7929 99.6605 54.7426 113.911 34.391Z" fill="#FFB7E3"/><mask id="mask13" mask-type="alpha" maskUnits="userSpaceOnUse" x="105" y="15" width="95" height="93"><path d="M113.911 34.391C128.161 14.0395 156.211 9.0935 176.563 23.3438L180.529 26.1207C200.88 40.371 205.826 68.4213 191.576 88.7728C177.326 109.124 149.275 114.07 128.924 99.8201L124.958 97.0431C104.607 82.7929 99.6605 54.7426 113.911 34.391Z" fill="white"/></mask><g mask="url(#mask13)"><path d="M169.336 107.801C168.43 107.061 168.296 105.727 169.036 104.821C187.48 82.2472 188.587 61.6081 178.377 43.4386C177.804 42.4188 178.166 41.1275 179.186 40.5544C180.206 39.9814 181.497 40.3435 182.07 41.3634C193.108 61.0062 191.899 83.5331 172.316 107.501C171.576 108.407 170.242 108.542 169.336 107.801Z" fill="#FF9BD8"/></g><path d="M117.868 49.225C124.306 30.527 144.683 20.5885 163.381 27.0267C182.079 33.465 192.018 53.8419 185.579 72.54C179.141 91.238 158.764 101.177 140.066 94.7383C121.368 88.3 111.429 67.923 117.868 49.225Z" fill="#E18E70"/><mask id="mask14" mask-type="alpha" maskUnits="userSpaceOnUse" x="115" y="25" width="73" height="72"><path d="M117.868 49.225C124.306 30.527 144.683 20.5885 163.381 27.0267C182.079 33.465 192.018 53.8419 185.579 72.54C179.141 91.238 158.764 101.177 140.066 94.7383C121.368 88.3 111.429 67.923 117.868 49.225Z" fill="white"/></mask><g mask="url(#mask14)"><path d="M124.273 22.7868L124.237 22.92C122.623 27.8882 145.388 49.5828 132.739 84.4263C131.833 86.9211 129.505 89.8985 128.379 90.6217C124.053 93.3992 127.608 85.6245 118.121 82.1103L117.7 81.9602C114.345 80.8088 110.91 78.4067 107.395 74.7538L107.436 73.2051C107.803 60.2025 108.722 51.3207 110.195 46.5596L110.282 46.2843C116.403 27.4457 124.678 20.7867 124.273 22.7868Z" fill="#3D3D3D"/></g><path d="M151.275 71.8083C153.291 65.9547 150.179 59.5755 144.326 57.5599C138.472 55.5444 132.093 58.6557 130.077 64.5093C128.062 70.363 131.173 76.7422 137.027 78.7577C142.88 80.7733 149.259 77.6619 151.275 71.8083Z" fill="white"/><path d="M158.09 52.0166C160.105 46.163 156.994 39.7837 151.14 37.7682C145.287 35.7526 138.908 38.864 136.892 44.7176C134.877 50.5712 137.988 56.9504 143.841 58.966C149.695 60.9816 156.074 57.8702 158.09 52.0166Z" fill="white"/><path d="M156.372 51.425C158.061 46.5206 155.454 41.1759 150.55 39.4871C145.645 37.7984 140.3 40.4052 138.612 45.3096C136.923 50.214 139.53 55.5588 144.434 57.2475C149.339 58.9362 154.683 56.3294 156.372 51.425Z" fill="#3D3D3D"/><path d="M147.492 48.7623L147.479 47.9578C147.447 44.7575 147.553 42.2839 144.792 42.3321C141.877 42.383 139.562 45.2271 139.623 48.6845C139.683 52.142 142.095 54.9035 145.01 54.8527C147.85 54.8031 147.564 52.0992 147.492 48.7623Z" fill="white"/><path d="M154.15 46.7081C154.586 45.4425 153.913 44.0632 152.647 43.6274C151.382 43.1916 150.003 43.8643 149.567 45.13C149.131 46.3956 149.804 47.7749 151.069 48.2107C152.335 48.6465 153.714 47.9738 154.15 46.7081Z" fill="white"/><path d="M149.557 71.2165C151.245 66.3121 148.639 60.9674 143.734 59.2786C138.83 57.5899 133.485 60.1967 131.796 65.1011C130.108 70.0055 132.714 75.3503 137.619 77.039C142.523 78.7277 147.868 76.1209 149.557 71.2165Z" fill="#3D3D3D"/><path d="M140.683 68.8161L140.665 67.7495C140.632 64.5492 140.739 62.0756 137.977 62.1239C135.062 62.1747 132.748 65.0188 132.808 68.4763C132.869 71.9337 135.281 74.6953 138.196 74.6444C140.961 74.5961 140.763 72.0314 140.683 68.8161Z" fill="white"/><path d="M147.337 66.4999C147.772 65.2342 147.1 63.8549 145.834 63.4191C144.568 62.9833 143.189 63.6561 142.753 64.9217C142.317 66.1874 142.99 67.5667 144.256 68.0025C145.521 68.4383 146.901 67.7655 147.337 66.4999Z" fill="white"/><path d="M153.616 37.1834C151.357 44.7806 152.437 52.1675 156.789 59.0604C157.899 60.8182 160.224 61.3436 161.981 60.2338C163.739 59.124 164.265 56.7994 163.155 55.0415C159.951 49.9662 159.199 44.8232 160.832 39.3288C161.425 37.3361 160.29 35.2405 158.297 34.6481C156.304 34.0556 154.209 35.1907 153.616 37.1834Z" fill="#E18E70"/><path d="M156.83 62.5777C157.391 60.9477 156.514 59.1676 154.87 58.6016C153.227 58.0357 148.323 59.6486 148.323 59.6486L148.583 60.0259C149.327 61.0854 151.493 64.0414 152.838 64.5044C154.482 65.0703 156.269 64.2077 156.83 62.5777Z" fill="#9E4D31"/><path d="M157.093 67.0703C158.356 66.2773 159.246 65.1312 159.762 63.6318C160.288 62.105 160.288 60.6142 159.763 59.1593C159.556 58.587 159.852 57.9556 160.425 57.749C160.661 57.6636 160.92 57.6616 161.157 57.7435L170.321 60.8987C173.437 61.9717 175.093 65.3676 174.02 68.4838C172.947 71.6 169.551 73.2563 166.435 72.1833L157.321 69.045C156.745 68.847 156.44 68.22 156.638 67.6447C156.72 67.4068 156.88 67.2041 157.093 67.0703Z" fill="#881B1B"/><mask id="mask15" mask-type="alpha" maskUnits="userSpaceOnUse" x="156" y="57" width="19" height="16"><path d="M157.093 67.0703C158.356 66.2773 159.246 65.1312 159.762 63.6318C160.288 62.105 160.288 60.6142 159.763 59.1593C159.556 58.587 159.852 57.9556 160.425 57.749C160.661 57.6636 160.92 57.6616 161.157 57.7435L170.321 60.8987C173.437 61.9717 175.093 65.3676 174.02 68.4838C172.947 71.6 169.551 73.2563 166.435 72.1833L157.321 69.045C156.745 68.847 156.44 68.22 156.638 67.6447C156.72 67.4068 156.88 67.2041 157.093 67.0703Z" fill="white"/></mask><g mask="url(#mask15)"><path d="M178.36 69.9782C179.4 66.9579 177.795 63.6664 174.774 62.6264C171.754 61.5864 168.463 63.1918 167.423 66.2121C166.383 69.2324 167.988 72.5239 171.008 73.5639C174.029 74.6038 177.32 72.9985 178.36 69.9782Z" fill="#B12E2E"/></g><path d="M116.311 87.0611L116.602 86.6622C121.264 80.3836 118.802 75.6371 117.544 71.2967C116.706 68.4031 119.373 66.5015 125.546 65.5921L128.243 76.6955L121.135 87.354L120.264 87.8748C115.054 90.9369 113.737 90.6656 116.311 87.0611Z" fill="#3D3D3D"/><path d="M112.539 90.8595L128.544 74.5475C129.403 73.6908 130.85 73.9195 131.402 74.9993C134.054 80.187 133.059 86.5896 128.825 90.8125C124.592 95.0354 118.174 96.0284 112.974 93.3826C111.892 92.8319 111.68 91.7162 112.539 90.8595Z" fill="#3D3D3D"/><path d="M185.369 80.444L211.546 67.1065C215.762 64.9581 220.922 66.6346 223.07 70.8512C225.219 75.0677 223.542 80.2275 219.326 82.376L193.149 95.7134C188.933 97.8618 183.773 96.1853 181.625 91.9688C179.476 87.7522 181.153 82.5924 185.369 80.444Z" fill="#1CB0F6"/><path d="M208.293 78.1065L197.946 55.9184C195.946 51.6295 197.802 46.5313 202.091 44.5313C206.38 42.5314 211.478 44.387 213.478 48.6759L223.825 70.864C225.825 75.1529 223.969 80.2511 219.68 82.2511C215.391 84.2511 210.293 82.3955 208.293 78.1065Z" fill="#1CB0F6"/><path d="M226.841 56.5743L203.308 49.8262C198.759 48.5218 196.128 43.7767 197.433 39.2277C198.737 34.6787 203.482 32.0484 208.031 33.3528L231.565 40.1009C236.114 41.4053 238.744 46.1505 237.44 50.6995C236.135 55.2485 231.39 57.8788 226.841 56.5743Z" fill="#1CB0F6"/><path d="M182.33 30.5796C186.401 24.7649 194.416 23.3517 200.23 27.4232C206.045 31.4948 207.458 39.5092 203.387 45.3239C199.315 51.1387 191.301 52.5518 185.486 48.4803C179.671 44.4088 178.258 36.3944 182.33 30.5796Z" fill="#E18E70"/><path d="M189.551 26.6695C193.623 20.8547 201.637 19.4416 207.452 23.5131C213.267 27.5846 214.68 35.599 210.608 41.4138C206.537 47.2285 198.522 48.6417 192.708 44.5702C186.893 40.4986 185.48 32.4842 189.551 26.6695Z" fill="#E18E70"/></g><path d="M173.405 120.209L41.5524 108.673C38.4951 108.406 35.7998 110.667 35.5323 113.725L22.5878 261.681C22.3203 264.738 24.5819 267.434 27.6392 267.701L159.491 279.237C162.549 279.504 165.244 277.243 165.511 274.185L178.456 126.229C178.723 123.172 176.462 120.476 173.405 120.209Z" fill="#F0EAEA"/><mask id="mask16" mask-type="alpha" maskUnits="userSpaceOnUse" x="34" y="118" width="136" height="128"><path d="M163.944 128.509L49.819 118.524C46.7617 118.257 44.0664 120.518 43.7989 123.576L34.5259 229.566C34.2584 232.624 36.52 235.319 39.5774 235.586L153.703 245.571C156.76 245.839 159.455 243.577 159.723 240.52L168.996 134.529C169.263 131.472 167.001 128.776 163.944 128.509Z" fill="white"/></mask><g mask="url(#mask16)"><path d="M163.944 128.509L49.819 118.524C46.7617 118.257 44.0664 120.518 43.7989 123.576L34.5259 229.566C34.2584 232.624 36.52 235.319 39.5774 235.586L153.703 245.571C156.76 245.839 159.455 243.577 159.723 240.52L168.996 134.529C169.263 131.472 167.001 128.776 163.944 128.509Z" fill="#58CC02"/><path d="M135.403 161.897C144.454 164.154 149.962 173.321 147.706 182.373L126.815 266.16C124.558 275.212 115.391 280.72 106.339 278.463C97.2877 276.206 91.7795 267.039 94.0363 257.987L114.927 174.2C117.184 165.148 126.351 159.64 135.403 161.897Z" fill="#3D3D3D"/><path d="M89.7339 198.527C98.9307 200.82 104.527 210.135 102.234 219.332L95.2854 247.202C92.9923 256.399 83.678 261.996 74.4811 259.703C65.2843 257.41 59.6877 248.095 61.9807 238.899L68.9297 211.028C71.2227 201.831 80.537 196.234 89.7339 198.527Z" fill="#3D3D3D"/><path d="M108.559 119.683L125.036 123.791C140.138 127.556 149.328 142.851 145.563 157.953L129.829 221.057C126.064 236.159 110.769 245.349 95.6666 241.584L79.1896 237.476C64.0874 233.71 54.8972 218.415 58.6625 203.313L74.396 140.21C78.1614 125.107 93.4566 115.917 108.559 119.683Z" fill="#3D3D3D"/><path d="M145.408 146.744L152.069 148.405C163.298 151.205 170.132 162.578 167.332 173.808L149.108 246.903C146.308 258.133 134.934 264.966 123.705 262.166L117.044 260.506C105.814 257.706 98.98 246.332 101.78 235.103L120.005 162.008C122.804 150.778 134.178 143.944 145.408 146.744Z" fill="#3D3D3D"/><path d="M93.2916 215.977C96.2468 218.733 96.4085 223.363 93.6527 226.318L77.8416 243.273C75.0858 246.228 70.456 246.39 67.5008 243.634C64.5456 240.878 64.3839 236.249 67.1397 233.293L82.9508 216.338C85.7066 213.383 90.3364 213.221 93.2916 215.977Z" fill="#FFB100"/><path d="M76.9568 242.237C74.253 245.24 69.6268 245.483 66.6239 242.779L49.3952 227.266C46.3923 224.562 46.1499 219.936 48.8537 216.933L51.5166 213.975C52.7497 212.606 54.8596 212.495 56.229 213.729L76.4153 231.904C79.4182 234.608 79.6606 239.234 76.9568 242.237Z" fill="#FFB000"/><path d="M91.7721 207.121L109.128 213.097C111.014 213.746 112.017 215.802 111.368 217.689L100.684 248.716C100.035 250.603 97.9784 251.606 96.0916 250.956L78.7361 244.98C76.8493 244.33 75.8465 242.274 76.4961 240.388L87.1796 209.361C87.8293 207.474 89.8854 206.471 91.7721 207.121Z" fill="#FFB100"/><path d="M104.98 226.724C108.48 224.704 112.955 225.903 114.975 229.402L121.005 239.848C123.026 243.347 121.827 247.822 118.327 249.842C114.828 251.862 110.353 250.663 108.333 247.164L102.302 236.719C100.282 233.219 101.481 228.745 104.98 226.724Z" fill="#FFB100"/><path d="M93.7812 221.546L104.139 222.452C105.868 222.603 107.147 224.128 106.996 225.857C106.845 227.587 105.32 228.866 103.591 228.715L93.2333 227.809C91.5039 227.657 90.2245 226.133 90.3758 224.403C90.5271 222.674 92.0518 221.395 93.7812 221.546Z" fill="#A56644"/><path d="M106.978 222.562L107.226 222.624C111.593 223.712 114.25 228.135 113.161 232.501C112.072 236.868 107.65 239.525 103.283 238.436L103.035 238.375C98.6685 237.286 96.0113 232.863 97.1 228.497C98.1887 224.13 102.611 221.473 106.978 222.562Z" fill="#A56644"/><path d="M105.688 225.36L106.965 220.242C107.385 218.557 109.091 217.532 110.775 217.952C112.46 218.372 113.485 220.078 113.065 221.763L111.788 226.881C111.369 228.565 109.663 229.59 107.978 229.171C106.294 228.751 105.268 227.045 105.688 225.36Z" fill="#A56644"/><path d="M76.9433 239.249L101.169 247.12L96.786 260.609C96.1694 262.507 94.131 263.545 92.2332 262.929L74.8802 257.29C72.9824 256.674 71.9439 254.635 72.5605 252.738L76.9433 239.249Z" fill="#1CB0F6"/><path d="M83.867 245.995C87.0906 247.782 88.2553 251.844 86.4684 255.068L72.4485 280.36C70.6616 283.584 66.5999 284.748 63.3763 282.962C60.1528 281.175 58.9881 277.113 60.7749 273.889L74.7949 248.597C76.5817 245.373 80.6435 244.209 83.867 245.995Z" fill="#1CB0F6"/><path d="M111.799 147.051L141.175 160.131C148.74 163.499 152.143 172.362 148.774 179.927L135.034 210.789C131.666 218.354 122.802 221.756 115.237 218.388L85.861 205.309C78.2958 201.941 74.8935 193.077 78.2618 185.512L92.0023 154.651C95.3705 147.086 104.234 143.683 111.799 147.051Z" fill="#A56644"/><mask id="mask17" mask-type="alpha" maskUnits="userSpaceOnUse" x="76" y="145" width="75" height="75"><path d="M111.799 147.051L141.175 160.131C148.74 163.499 152.143 172.362 148.774 179.927L135.034 210.789C131.666 218.354 122.802 221.756 115.237 218.388L85.861 205.309C78.2958 201.941 74.8935 193.077 78.2618 185.512L92.0023 154.651C95.3705 147.086 104.234 143.683 111.799 147.051Z" fill="white"/></mask><g mask="url(#mask17)"><path d="M95.0009 135.572L155.899 162.685L151.564 172.422L90.6657 145.309L95.0009 135.572Z" fill="#FFB100"/></g><path d="M102.723 185.329C106.168 184.815 109.382 187.123 110.023 190.516L110.065 190.766C110.386 192.917 111.065 193.757 112.799 194.235L113.012 194.29C116.475 195.147 118.589 198.649 117.732 202.113C116.875 205.576 113.373 207.689 109.91 206.832C102.851 205.086 98.3803 200.007 97.2864 192.671C96.7602 189.143 99.1942 185.855 102.723 185.329Z" fill="white"/><path d="M134.361 174.716C138.658 176.629 140.591 181.664 138.677 185.962L136.57 190.695C134.657 194.993 129.622 196.925 125.324 195.012C121.027 193.098 119.094 188.063 121.007 183.766L123.115 179.033C125.028 174.735 130.063 172.802 134.361 174.716Z" fill="white"/><path d="M118.929 186.616L122.395 188.159C124.035 188.889 124.773 190.811 124.043 192.452C123.312 194.093 121.39 194.83 119.749 194.1L116.284 192.557C114.643 191.826 113.905 189.904 114.636 188.264C115.366 186.623 117.288 185.885 118.929 186.616Z" fill="#87401A"/><path d="M120.018 183.145L123.128 191.846L115.536 188.466L120.018 183.145Z" fill="#87401A"/><path d="M130.39 177.716C132.32 178.575 133.187 180.836 132.328 182.765L130.375 187.153C129.516 189.082 127.255 189.95 125.326 189.091C123.397 188.232 122.529 185.972 123.388 184.042L125.362 179.608C125.465 179.668 125.572 179.724 125.684 179.774C127.233 180.464 129.049 179.767 129.739 178.217C129.836 177.999 129.905 177.775 129.949 177.55C130.097 177.596 130.244 177.651 130.39 177.716Z" fill="#3D3D3D"/><path d="M105.769 170.692C106.279 169.924 107.315 169.716 108.082 170.226C112.054 172.866 114.41 176.379 115.057 180.686C115.262 182.055 113.808 183.064 112.598 182.393C109.501 180.676 106.642 179.978 103.997 180.254C103.081 180.349 102.26 179.684 102.165 178.767C102.069 177.851 102.735 177.03 103.651 176.935C105.901 176.7 108.219 177.005 110.6 177.836L110.734 177.884L110.714 177.842C109.835 176.085 108.462 174.555 106.574 173.236L106.235 173.005C105.468 172.495 105.259 171.459 105.769 170.692Z" fill="#87401A"/><path d="M112.276 140.06C117.794 141.436 121.152 147.025 119.776 152.543L117.634 161.132C116.259 166.65 110.67 170.008 105.152 168.632C99.6337 167.257 96.2757 161.668 97.6515 156.15L99.793 147.561C101.169 142.043 106.757 138.685 112.276 140.06Z" fill="#3D3D3D"/><path d="M96.8929 130.493C103.305 132.092 107.207 138.586 105.608 144.998L98.4822 173.58C96.8834 179.992 90.3893 183.894 83.9772 182.296C77.5651 180.697 73.663 174.203 75.2617 167.791L82.388 139.209C83.9867 132.797 90.4808 128.895 96.8929 130.493Z" fill="#3D3D3D"/><path d="M55.1117 213.784L54.8635 213.722C50.4969 212.633 46.0744 215.29 44.9857 219.657C43.897 224.024 46.5543 228.446 50.9209 229.535L51.1691 229.597C55.5357 230.685 59.9581 228.028 61.0468 223.661C62.1356 219.295 59.4783 214.872 55.1117 213.784Z" fill="#A56644"/><path d="M49.091 206.865L56.6949 213.956C57.9645 215.14 58.034 217.129 56.85 218.398C55.666 219.668 53.677 219.738 52.4073 218.554L44.8034 211.463C43.5338 210.279 43.4643 208.29 44.6483 207.02C45.8323 205.75 47.8213 205.681 49.091 206.865Z" fill="#A56644"/><path d="M54.9291 217.064L58.2437 210.83C59.0588 209.297 60.9621 208.715 62.4949 209.53C64.0277 210.345 64.6096 212.249 63.7946 213.781L60.48 220.015C59.665 221.548 57.7617 222.13 56.2289 221.315C54.696 220.5 54.1141 218.597 54.9291 217.064Z" fill="#A56644"/></g></svg>