<svg width="46" height="46" viewBox="0 0 46 46" fill="none" xmlns="http://www.w3.org/2000/svg"><path fill-rule="evenodd" clip-rule="evenodd" d="M37 18.5471C37 23.7625 34.1482 28.3117 29.919 30.7207L25.7185 39.7217C24.6413 42.0301 21.3587 42.0301 20.2815 39.7217L16.081 30.7207C11.8518 28.3117 9 23.7625 9 18.5471C9 10.8151 15.268 4.54712 23 4.54712C30.732 4.54712 37 10.8151 37 18.5471ZM23 24.5471C26.3137 24.5471 29 21.8608 29 18.5471C29 15.2334 26.3137 12.5471 23 12.5471C19.6863 12.5471 17 15.2334 17 18.5471C17 21.8608 19.6863 24.5471 23 24.5471Z" fill="#FF4945"/><path fill-rule="evenodd" clip-rule="evenodd" d="M23 41.453C24.09 41.453 25.1799 40.8759 25.7185 39.7217L29.919 30.7207C34.1482 28.3117 37 23.7625 37 18.5471C37 10.8151 30.732 4.54712 23 4.54712V12.5471C26.3137 12.5471 29 15.2334 29 18.5471C29 21.8608 26.3137 24.5471 23 24.5471V41.453Z" fill="#D90E0E"/></svg>