<svg width="185" height="201" viewBox="0 0 185 201" version="1.1" xmlns="http://www.w3.org/2000/svg"><title>Artboard</title><g stroke="none" stroke-width="1" fill="none" fill-rule="evenodd"><g transform="translate(2 6)"><ellipse fill="#1CB0F6" fill-rule="nonzero" cx="90.5" cy="98.661" rx="90.5" ry="90.476"/><path d="M41.81 156.085l2.529 2.524a1.4 1.4 0 0 1 0 1.984l-2.529 2.524a1.42 1.42 0 0 1-2.004 0l-2.529-2.524a1.4 1.4 0 0 1 0-1.984l2.529-2.524a1.42 1.42 0 0 1 2.004 0z" fill="#FFF" fill-rule="nonzero" opacity=".268"/><path d="M28.18 63.583l5.635 2.626a1.683 1.683 0 0 1 .819 2.237l-2.617 5.61a1.702 1.702 0 0 1-2.26.817l-5.634-2.626a1.683 1.683 0 0 1-.82-2.237l2.617-5.61a1.702 1.702 0 0 1 2.26-.817z" fill="#FFF" fill-rule="nonzero" opacity=".457"/><path d="M12.247 144.14l64.365-95.407 78.547 83.88-34.895 51.518c-9.322 3.244-19.337 5.007-29.764 5.007-33.399 0-62.572-18.088-78.253-44.999z" fill-opacity=".173" fill="#FFF" fill-rule="nonzero"/><path d="M34.304 112.03l46.74-72.347c2.506-3.878 8.027-4.183 10.905-.602 13.825 17.204 15.125 41.849 2.777 60.963-12.349 19.114-35.276 27.943-56.534 22.245-4.424-1.186-6.393-6.38-3.888-10.258z" fill="#3072C6" fill-rule="nonzero"/><path d="M124.263 99.408l39.786 19.418-22.843 36.6c-2.445 3.917-7.969 4.325-10.909.803-13.168-15.773-15.54-38.206-6.034-56.82z" fill="#2763AF" fill-rule="nonzero"/><path d="M59.449 75.103l-1.584-23.357C56.62 33.36 66.65 16.03 83.18 8.012 92.507 3.486 101.966.878 111.555.187c9.59-.691 19.308.535 29.157 3.678 17.45 5.57 29.722 21.293 30.969 39.68L173.407 69l-.193.01.295 4.357c-.041.462-.043 1 0 1.619.955 14.172-1.027 32.407-13.976 51.213-13.94 19.174-38.877 28.37-62.682 21.087-30.061-9.197-46.934-41.19-37.686-71.46l.22-.72.064-.004z" fill="#3072C6"/><path d="M109.27.388c.761-.08 1.523-.146 2.285-.201 6.271-.452 12.597-.084 18.98 1.104 6.273 5.909 3.09 11.277 1.456 15.919-1.462 4.157-4.386 9.935-8.5 13.322-3.852-9.864-4.921-17.35-8.896-23.262a63.222 63.222 0 0 0-5.324-6.882zM128.126 85.439c-.917-12.605 20.712-29.163 18.719.974-1.383 20.904-16.226 41.687-21.314 42.56-3.023.518-15.125 2.106-12.222-1.355 5.981-7.915 15.734-29.574 14.817-42.179z" fill="#FFF"/><path d="M71.241 176.35a7.414 7.414 0 0 1-2.174-10.235l6.395-9.888a7.354 7.354 0 0 1 10.193-2.168 7.414 7.414 0 0 1 2.174 10.234l-6.394 9.889a7.354 7.354 0 0 1-10.194 2.168z" fill="#235390"/><path d="M58.12 176.35a7.414 7.414 0 0 1-2.173-10.235l6.394-9.888a7.354 7.354 0 0 1 10.194-2.168 7.414 7.414 0 0 1 2.174 10.234l-6.394 9.889a7.354 7.354 0 0 1-10.194 2.168z" fill="#235390"/><path d="M101.313 15.032c6.712-4.23 14.582-6.827 23.59-7.795 3.065-.329 6.012-.443 8.84-.34 19.372.698 35.265 15.578 37.248 34.874l2.083 20.266c.435 4.225-.99 8.43-3.902 11.52-9.455 10.032-21.424 15.833-35.839 17.382-14.391 1.546-28.045-1.485-40.913-9.077a14.613 14.613 0 0 1-7.11-11.092l-1.938-18.865a38.886 38.886 0 0 1 17.941-36.873z" stroke="#FFF" stroke-width="3.161" fill="#235390"/><path d="M169.474 42.143l2.028 20.318a13.037 13.037 0 0 1-3.48 10.274c-9.193 9.754-20.812 15.385-34.858 16.895-14.05 1.51-27.364-1.446-39.94-8.867a13.032 13.032 0 0 1-6.341-9.892l-1.94-18.865C83.46 37.864 89.95 24.55 101.354 16.88c13.4 2.543 22.429 3.995 27.349 3.64 3.942-.283 7.932-2.25 11.972-5.901 1.588-1.434 3.454-2.79 5.312-3.6 12.709 4.958 22.024 16.878 23.488 31.123z" fill="#78C800"/><path d="M160.85 22.344a37.194 37.194 0 0 1 8.213 19.785l2.083 20.266a13.037 13.037 0 0 1-3.48 10.275c-3.07 3.257-6.41 6.054-10.021 8.392-7.69-.703-14.121-6.684-15.1-14.666l-.038-.305-12.11 1.488c-.792 9.921-8.457 18.253-18.715 19.514l-1.344.165c-.73.09-1.456.141-2.176.157-5.214-1.539-10.312-3.778-15.295-6.717a13.022 13.022 0 0 1-1.839-1.312 21.309 21.309 0 0 1-4.523-10.762l-1.247-10.162-.502-4.887c-.207-7.504 3.535-14.366 9.487-18.356-.08-2.168.3-4.36 1.17-6.424a1.982 1.982 0 0 1 3.136-.723l4.265 3.73a15.167 15.167 0 0 1 .941-8.553c.527-1.25 1.751-1.572 2.773-.678l17.379 14.875c5.502 4.504 13.17 2.627 16.64-2.308.61-.846 1.18-1.472 1.71-1.88a16.88 16.88 0 0 1 1.568-2.112l9.771-13.658c.629-.903 1.813-.78 2.666.238 1.666 1.986 2.78 4.213 3.308 6.457l1.28-1.839z" fill="#8EE000"/><path d="M106.005 38.569c8.59-1.055 16.407 5.056 17.461 13.651l1.207 9.833c1.055 8.595-5.053 16.418-13.642 17.473-8.589 1.055-16.407-5.057-17.461-13.651l-1.207-9.833c-1.054-8.595 5.054-16.418 13.642-17.473z" fill="#FFF"/><path d="M93.182 79.984l.332-15.275c13.629.297 24.314 2.47 32.14 6.766l-7.342 13.396c-5.337-2.93-13.741-4.64-25.13-4.887z" fill="#8EE000" fill-rule="nonzero"/><path d="M153.86 32.918c6.87-.844 13.123 4.045 13.966 10.92l1.916 15.614c.844 6.875-4.042 13.132-10.912 13.977-6.87.844-13.124-4.045-13.967-10.92l-1.916-15.614c-.844-6.875 4.042-13.133 10.912-13.977z" fill="#FFF"/><path d="M171.153 55.331l-.016 6.869a13.035 13.035 0 0 1-4.534 9.854 56.641 56.641 0 0 1-3.974 3.123c-1.755.954-3.287 1.938-4.594 2.948-.717.41-1.441.802-2.174 1.176l-10.197-10.659c5.727-5.486 14.218-9.85 25.489-13.311z" fill="#8EE000"/><path d="M151.287 39.836a6.287 6.287 0 0 1 7.254-1.856c5.377 2.194 7.08 7.396 5.787 13.33a6.287 6.287 0 0 1-12.356-2.3 5.153 5.153 0 0 0 2.35-3.42 5.195 5.195 0 0 0-3.035-5.754zM106.303 46.23a6.286 6.286 0 0 1 7.686-1.415c5.405 2.875 7.255 8.368 5.334 14.323a6.286 6.286 0 0 1-12.12-3.303 5.387 5.387 0 0 0 2.233-2.898c.883-2.735-.513-5.665-3.133-6.707z" fill="#4B4B4B" fill-rule="nonzero"/><path d="M136.822 61.896h.043c4.433 0 8.026 3.596 8.026 8.032v6.897c0 4.436-3.593 8.032-8.026 8.032h-.043c-4.434 0-8.027-3.596-8.027-8.032v-6.897c0-4.436 3.593-8.032 8.027-8.032z" fill="#F49000"/><path d="M136.15 63.771c3.883 0 7.03 3.15 7.03 7.035v7.219a4.654 4.654 0 0 1-4.652 4.656 5.969 5.969 0 0 1-5.788-4.515l-1.904-7.573a5.484 5.484 0 0 1 5.314-6.822z" fill="#B86D00"/><path d="M127.918 69.55c.878-5.463 5.574-9.53 11.118-9.53 5.544 0 10.24 4.067 11.118 9.53l.06.375h-22.356l.06-.375z" fill="#FFC200" fill-rule="nonzero"/><path d="M137.488 65.448a1.607 1.607 0 0 1-1.055-3.034 8.88 8.88 0 0 1 5.974 0 1.607 1.607 0 0 1-1.055 3.034 5.674 5.674 0 0 0-3.864 0z" fill="#FFDE00" fill-rule="nonzero"/><path d="M150.154 100.346h5.775c2.48 0 4.49 2.012 4.49 4.494v.017a4.492 4.492 0 0 1-4.49 4.493h-5.775a4.492 4.492 0 0 1-4.49-4.493v-.017a4.492 4.492 0 0 1 4.49-4.494z" fill="#235390"/><ellipse stroke="#235390" stroke-width="2.709" fill="#FFF" cx="103.999" cy="106.537" rx="10.297" ry="10.359"/><path d="M101.174 115.619l-.87-3.816-3.692.346a9.006 9.006 0 0 1-1.556-5.066l9.21-3.759a2.655 2.655 0 0 1 3.612 2.951l-1.797 9.557a8.908 8.908 0 0 1-2.082.246 8.878 8.878 0 0 1-2.825-.46z" fill="#235390"/><path d="M103.826 15.298c7.148-3.963 15.694-6.218 25.789-6.858 9.677-.613 18.59.792 26.324 3.913a37.296 37.296 0 0 1 23.308 33.234l.684 18.789a15.285 15.285 0 0 1-3.858 10.719c-8.276 9.297-19.799 14.592-34.567 15.885-17.453 1.528-33.673-1.976-48.66-10.513a12.583 12.583 0 0 1-6.308-9.86l-1.654-19.301c-1.256-14.657 6.082-28.88 18.942-36.008z" fill="#98DDFF" opacity=".493"/><ellipse fill="#FFF" transform="rotate(-5 116.657 26.353)" cx="116.657" cy="26.353" rx="8.688" ry="8.748"/><path d="M54.305 81.157l7.219 4.67a6.255 6.255 0 0 1 1.854 8.652l-.006.008-4.869 7.495a6.258 6.258 0 0 1-8.647 1.845l-7.236-4.681 11.685-17.99z" fill="#235390"/></g></g></svg>