<svg width="111" height="110" viewBox="0 0 111 110" fill="none" xmlns="http://www.w3.org/2000/svg"><g clip-path="url(#clip0)"><path fill-rule="evenodd" clip-rule="evenodd" d="M28.7505 0.000488281H82.8775C98.3298 0.000488281 110.814 12.4846 110.814 27.937V82.064C110.814 97.5164 98.3298 110 82.8775 110H28.7505C13.2981 110 0.813965 97.5164 0.813965 82.064V27.937C0.813965 12.4846 13.2981 0.000488281 28.7505 0.000488281Z" fill="#58CC02"/><path d="M44.5891 33.3481C46.2479 35.0069 45.7241 37.8005 43.6288 38.8481C36.6447 42.2529 28.1764 40.6815 22.6764 35.0068C17.1764 29.3322 15.9542 20.7767 19.5336 13.9672C20.5812 11.8719 23.0256 11.5227 24.5971 13.1815L44.5891 33.3481Z" fill="#89E219"/><path fill-rule="evenodd" clip-rule="evenodd" d="M42.3206 31.0782C49.3048 38.0623 61.527 38.0623 69.2968 31.0782C77.0667 24.094 68.1619 71.9353 68.1619 71.7607C68.1619 71.6734 64.0587 71.6734 55.7651 71.6734C53.5825 71.6734 49.5667 71.6734 43.8048 71.7607C38.1302 39.9829 37.6937 26.4512 42.3206 31.0782Z" fill="#89E219"/><path d="M14.0305 20.6031L32.8003 41.4682C34.3718 43.2142 33.7606 46.0079 31.6654 46.8809C24.594 50.0238 16.213 48.1904 10.8876 42.3412C5.56225 36.492 4.68923 27.9365 8.5305 21.2142C9.66542 19.2063 12.4591 18.8571 14.0305 20.6031Z" fill="#89E219"/><path d="M67.05 33.3401C65.3913 34.9988 65.9151 37.7924 68.0103 38.8401C74.9945 42.2448 83.4627 40.6734 88.9627 34.9988C94.4627 29.3242 95.685 20.7686 92.1056 13.9591C91.058 11.8639 88.6135 11.5147 87.0421 13.1734L67.05 33.3401Z" fill="#89E219"/><path d="M97.6048 20.6815L78.8349 41.4592C77.2635 43.2053 77.8746 45.9989 79.9698 46.8719C87.0413 50.0148 95.4222 48.1815 100.748 42.3323C106.073 36.4831 106.946 27.9275 103.105 21.2053C101.97 19.1973 99.1762 18.9354 97.6048 20.6815Z" fill="#89E219"/><path fill-rule="evenodd" clip-rule="evenodd" d="M24.7692 23.7461H23.6342C13.42 23.7461 4.6025 29.8572 0.76123 38.6747V71.5874C4.6898 80.4048 13.42 86.5159 23.6342 86.5159H24.7692C38.5628 86.5159 49.7374 75.3413 49.7374 61.5477V48.7143C49.7374 34.9207 38.5628 23.7461 24.7692 23.7461Z" fill="#89E219"/><path fill-rule="evenodd" clip-rule="evenodd" d="M110.85 39.2854C107.096 30.206 98.1908 23.833 87.8019 23.833H86.9289C86.8416 23.833 86.7543 23.833 86.7543 23.833C72.9606 23.9203 61.8733 35.1822 62.0479 48.9759L62.1352 61.8092C62.2225 75.5155 73.3971 86.5155 87.1035 86.5155H87.8892C98.2781 86.5155 107.27 80.1425 110.937 71.0632V39.2854H110.85Z" fill="#89E219"/><path fill-rule="evenodd" clip-rule="evenodd" d="M25.2094 32.6492C34.8126 32.6492 42.5825 40.419 42.5825 50.0222V60.3238C42.5825 69.9269 34.8126 77.6968 25.2094 77.6968C15.6063 77.6968 7.83643 69.9269 7.83643 60.3238V50.0222C7.83643 40.419 15.6063 32.6492 25.2094 32.6492Z" fill="white"/><path fill-rule="evenodd" clip-rule="evenodd" d="M86.2275 32.6492C95.8307 32.6492 103.601 40.419 103.601 50.0222V60.3238C103.601 69.9269 95.8307 77.6968 86.2275 77.6968C76.6243 77.6968 68.8545 69.9269 68.8545 60.3238V50.0222C68.8545 40.419 76.6243 32.6492 86.2275 32.6492Z" fill="white"/><path fill-rule="evenodd" clip-rule="evenodd" d="M27.9134 42.6023C32.4531 42.6023 36.1198 46.269 36.1198 50.8086V59.6261C36.1198 64.1658 32.4531 67.8325 27.9134 67.8325C23.3737 67.8325 19.7071 64.1658 19.7071 59.6261V50.8086C19.6198 46.3563 23.3737 42.6023 27.9134 42.6023Z" fill="#4B4B4B"/><path fill-rule="evenodd" clip-rule="evenodd" d="M55.8578 62.6125C61.0959 62.6125 65.2863 66.803 65.2863 72.0411V75.3586C65.2863 80.5967 61.0959 84.7871 55.8578 84.7871C50.6197 84.7871 46.4292 80.5967 46.4292 75.3586V72.0411C46.4292 66.803 50.6197 62.6125 55.8578 62.6125Z" fill="#F48000"/><path d="M42.8442 72.915C43.9792 66.8912 49.5665 62.5261 56.2014 62.5261C62.3125 62.5261 67.7252 66.9785 68.8601 72.915V73.4388C68.8601 73.788 68.6855 73.9626 68.4236 73.9626L56.2014 76.1452C55.8522 76.1452 55.8522 76.1452 55.503 76.1452L43.2807 73.9626C42.9315 74.0499 42.8442 73.8753 42.8442 73.4388V72.915Z" fill="#FFC200"/><path fill-rule="evenodd" clip-rule="evenodd" d="M53.8478 64.621C54.4589 64.4464 55.1573 64.3591 55.7685 64.3591C56.4669 64.3591 57.1653 64.4464 57.8637 64.621C59.2605 64.9702 60.3081 66.2798 60.3081 67.7639C60.3081 68.8988 59.3478 69.8591 58.2129 69.8591H53.5859C52.451 69.8591 51.4907 68.8988 51.4907 67.7639C51.3161 66.2798 52.3637 64.9702 53.8478 64.621Z" fill="#FFDE00"/><path fill-rule="evenodd" clip-rule="evenodd" d="M83.5188 42.6023C88.0585 42.6023 91.7252 46.269 91.7252 50.8086V59.6261C91.7252 64.1658 88.0585 67.8325 83.5188 67.8325C78.9792 67.8325 75.3125 64.1658 75.3125 59.6261V50.8086C75.3125 46.3563 78.9792 42.6023 83.5188 42.6023Z" fill="#4B4B4B"/><path d="M20.925 52.6422C23.8661 52.6422 26.2504 50.258 26.2504 47.3169C26.2504 44.3757 23.8661 41.9915 20.925 41.9915C17.9839 41.9915 15.5996 44.3757 15.5996 47.3169C15.5996 50.258 17.9839 52.6422 20.925 52.6422Z" fill="white"/><path d="M75.7561 52.6422C78.6972 52.6422 81.0815 50.258 81.0815 47.3169C81.0815 44.3757 78.6972 41.9915 75.7561 41.9915C72.8149 41.9915 70.4307 44.3757 70.4307 47.3169C70.4307 50.258 72.8149 52.6422 75.7561 52.6422Z" fill="white"/></g><defs><clipPath id="clip0"><rect width="110" height="110" fill="white" transform="translate(0.818359)"/></clipPath></defs></svg>