<svg width="349" height="369" viewBox="0 22 349 347" fill="none" xmlns="http://www.w3.org/2000/svg"><path fill-rule="evenodd" clip-rule="evenodd" d="M347.897 173.149L347.893 174.245L186.756 173.35L346.934 155.385C347.57 161.219 347.897 167.146 347.897 173.149Z" fill="#AC53E5"/><path d="M241.777 87.6686C241.777 88.8692 242.534 89.6 243.604 89.6C244.648 89.6 245.431 88.8692 245.431 87.6686V73.7573C245.431 72.4262 244.648 71.5388 243.395 71.5388C242.56 71.5388 241.855 71.8781 241.177 72.3479L238.384 74.2793C237.758 74.6969 237.471 75.2711 237.471 75.8192C237.471 76.7066 238.149 77.3591 238.984 77.3591C239.35 77.3591 239.741 77.2547 240.081 77.0198L241.725 75.8975H241.777V87.6686ZM251.712 86.1026C252.469 88.3994 254.218 89.7305 257.089 89.7305C259.96 89.7305 261.709 88.3994 262.466 86.1026C262.727 85.2935 262.831 84.3017 262.831 80.5694C262.831 76.8371 262.727 75.8453 262.466 75.0362C261.709 72.7394 259.96 71.4083 257.089 71.4083C254.218 71.4083 252.469 72.7394 251.712 75.0362C251.451 75.8453 251.347 76.8371 251.347 80.5694C251.347 84.3017 251.451 85.2935 251.712 86.1026ZM255.314 85.4501C255.158 84.9803 255.079 84.4583 255.079 80.5694C255.079 76.6805 255.158 76.1585 255.314 75.6887C255.575 74.9057 256.149 74.5142 257.089 74.5142C258.029 74.5142 258.603 74.9057 258.864 75.6887C259.02 76.1585 259.099 76.6805 259.099 80.5694C259.099 84.4583 259.02 84.9803 258.864 85.4501C258.603 86.2331 258.029 86.6246 257.089 86.6246C256.149 86.6246 255.575 86.2331 255.314 85.4501ZM269.138 88.7387C269.138 89.3912 269.608 89.8871 270.261 89.8871C270.757 89.8871 271.122 89.6522 271.409 89.1563L280.648 73.157C280.779 72.9221 280.857 72.6611 280.857 72.4262C280.857 71.7737 280.387 71.2778 279.735 71.2778C279.239 71.2778 278.874 71.5127 278.587 72.0086L269.347 88.0079C269.217 88.2428 269.138 88.5038 269.138 88.7387ZM269.504 80.8304C271.2 80.8304 272.401 80.0474 272.845 78.6641C273.027 78.0899 273.106 77.3591 273.106 76.1585C273.106 74.9579 273.027 74.2271 272.845 73.6529C272.401 72.2696 271.2 71.4866 269.504 71.4866C267.807 71.4866 266.607 72.2696 266.163 73.6529C265.98 74.2271 265.902 74.9579 265.902 76.1585C265.902 77.3591 265.98 78.0899 266.163 78.6641C266.607 80.0474 267.807 80.8304 269.504 80.8304ZM269.504 78.7946C269.034 78.7946 268.721 78.5597 268.59 78.1421C268.512 77.9072 268.46 77.4374 268.46 76.1585C268.46 74.8796 268.512 74.4098 268.59 74.1749C268.721 73.7573 269.034 73.5224 269.504 73.5224C269.974 73.5224 270.287 73.7573 270.417 74.1749C270.496 74.4098 270.548 74.8796 270.548 76.1585C270.548 77.4374 270.496 77.9072 270.417 78.1421C270.287 78.5597 269.974 78.7946 269.504 78.7946ZM277.151 87.512C277.595 88.8953 278.795 89.6783 280.492 89.6783C282.188 89.6783 283.389 88.8953 283.833 87.512C284.015 86.9378 284.094 86.207 284.094 85.0064C284.094 83.8058 284.015 83.075 283.833 82.5008C283.389 81.1175 282.188 80.3345 280.492 80.3345C278.795 80.3345 277.595 81.1175 277.151 82.5008C276.968 83.075 276.89 83.8058 276.89 85.0064C276.89 86.207 276.968 86.9378 277.151 87.512ZM279.578 86.99C279.5 86.7551 279.448 86.2853 279.448 85.0064C279.448 83.7275 279.5 83.2577 279.578 83.0228C279.709 82.6052 280.022 82.3703 280.492 82.3703C280.962 82.3703 281.275 82.6052 281.405 83.0228C281.484 83.2577 281.536 83.7275 281.536 85.0064C281.536 86.2853 281.484 86.7551 281.405 86.99C281.275 87.4076 280.962 87.6425 280.492 87.6425C280.022 87.6425 279.709 87.4076 279.578 86.99Z" fill="white"/><path d="M93.5488 262.097H104.619C104.835 262.097 104.943 262.205 104.943 262.421V263.879C104.943 266.255 106.509 267.767 108.615 267.767C110.775 267.767 112.287 266.255 112.287 263.879V262.421C112.287 262.205 112.395 262.097 112.611 262.097H112.827C114.933 262.097 116.337 260.747 116.337 258.803C116.337 256.913 114.933 255.563 112.827 255.563H112.611C112.395 255.563 112.287 255.455 112.287 255.239V250.379C112.287 248.003 110.775 246.491 108.615 246.491C106.509 246.491 104.943 248.003 104.943 250.379V255.239C104.943 255.455 104.835 255.563 104.619 255.563H97.9768V255.455L106.887 235.853C107.103 235.367 107.265 234.665 107.265 234.071C107.265 231.857 105.699 230.399 103.647 230.399C102.027 230.399 100.839 231.317 100.191 232.775L90.6328 254.159C89.7688 256.103 89.3908 256.913 89.3908 258.263C89.3908 260.585 90.9568 262.097 93.5488 262.097ZM122.097 262.475C123.069 265.499 127.065 268.037 132.681 268.037C137.865 268.037 142.347 265.607 143.805 261.071C144.291 259.613 144.615 257.831 144.615 255.509C144.615 252.431 144.345 250.649 143.859 249.083C142.509 245.033 139.107 242.981 134.409 242.981C131.655 242.981 129.819 243.845 128.901 244.763H128.739V237.581C128.739 237.365 128.847 237.257 129.063 237.257H140.565C142.671 237.257 144.021 235.907 144.021 233.963C144.021 232.073 142.671 230.723 140.565 230.723H125.391C123.339 230.723 122.097 231.965 122.097 233.963V248.813C122.097 251.243 123.555 252.701 125.769 252.701C127.389 252.701 128.469 252.215 129.495 250.919C130.251 249.947 131.331 249.353 132.843 249.353C134.571 249.353 136.029 250.055 136.677 251.891C136.947 252.755 137.109 253.781 137.109 255.509C137.109 257.183 136.893 258.209 136.623 259.019C136.029 260.693 134.571 261.611 132.627 261.611C130.899 261.611 129.333 260.585 128.523 259.559C127.497 258.317 126.471 257.777 125.229 257.777C123.231 257.777 121.827 259.181 121.827 261.071C121.827 261.503 121.935 261.989 122.097 262.475ZM157.773 265.985C157.773 267.335 158.745 268.361 160.095 268.361C161.121 268.361 161.877 267.875 162.471 266.849L181.587 233.747C181.857 233.261 182.019 232.721 182.019 232.235C182.019 230.885 181.047 229.859 179.697 229.859C178.671 229.859 177.915 230.345 177.321 231.371L158.205 264.473C157.935 264.959 157.773 265.499 157.773 265.985ZM158.529 249.623C162.039 249.623 164.523 248.003 165.441 245.141C165.819 243.953 165.981 242.441 165.981 239.957C165.981 237.473 165.819 235.961 165.441 234.773C164.523 231.911 162.039 230.291 158.529 230.291C155.019 230.291 152.535 231.911 151.617 234.773C151.239 235.961 151.077 237.473 151.077 239.957C151.077 242.441 151.239 243.953 151.617 245.141C152.535 248.003 155.019 249.623 158.529 249.623ZM158.529 245.411C157.557 245.411 156.909 244.925 156.639 244.061C156.477 243.575 156.369 242.603 156.369 239.957C156.369 237.311 156.477 236.339 156.639 235.853C156.909 234.989 157.557 234.503 158.529 234.503C159.501 234.503 160.149 234.989 160.419 235.853C160.581 236.339 160.689 237.311 160.689 239.957C160.689 242.603 160.581 243.575 160.419 244.061C160.149 244.925 159.501 245.411 158.529 245.411ZM174.351 263.447C175.269 266.309 177.753 267.929 181.263 267.929C184.773 267.929 187.257 266.309 188.175 263.447C188.553 262.259 188.715 260.747 188.715 258.263C188.715 255.779 188.553 254.267 188.175 253.079C187.257 250.217 184.773 248.597 181.263 248.597C177.753 248.597 175.269 250.217 174.351 253.079C173.973 254.267 173.811 255.779 173.811 258.263C173.811 260.747 173.973 262.259 174.351 263.447ZM179.373 262.367C179.211 261.881 179.103 260.909 179.103 258.263C179.103 255.617 179.211 254.645 179.373 254.159C179.643 253.295 180.291 252.809 181.263 252.809C182.235 252.809 182.883 253.295 183.153 254.159C183.315 254.645 183.423 255.617 183.423 258.263C183.423 260.909 183.315 261.881 183.153 262.367C182.883 263.231 182.235 263.717 181.263 263.717C180.291 263.717 179.643 263.231 179.373 262.367Z" fill="white"/><path opacity="0.666411" fill-rule="evenodd" clip-rule="evenodd" d="M218.463 41.1269C197.864 34.6026 175.841 33.1817 154.463 37.1178L186.794 181.943L218.463 41.1269Z" fill="#D8D8D8" stroke="#979797" stroke-width="0.87"/><path fill-rule="evenodd" clip-rule="evenodd" d="M186.794 181.943L219.371 35.1947C208.643 32.74 197.473 31.4433 186 31.4433C174.656 31.4433 163.608 32.711 152.991 35.1124L186.794 181.943Z" fill="#E5A259"/><path fill-rule="evenodd" clip-rule="evenodd" d="M186.737 181.684L154.243 34.9171C143.482 37.2264 132.811 40.7718 122.413 45.6204C112.132 50.4145 102.655 56.2324 94.0467 62.8961L186.737 181.684Z" fill="#47D7FF"/><path fill-rule="evenodd" clip-rule="evenodd" d="M186.575 181.473L95.0994 62.19C86.3228 68.8306 78.1497 76.5538 70.7751 85.3424C63.4835 94.0323 57.3532 103.31 52.3678 112.987L186.575 181.473Z" fill="#78C800"/><path fill-rule="evenodd" clip-rule="evenodd" d="M349 181.443C349 142.716 335.494 107.143 312.935 79.1775L186.794 181.943L349 181.443Z" fill="#CE82FF"/><path fill-rule="evenodd" clip-rule="evenodd" d="M186 181.943L304.379 292.989C331.91 263.909 348.794 224.648 348.794 181.443L186 181.943Z" fill="#FF5151"/><path fill-rule="evenodd" clip-rule="evenodd" d="M95.0991 62.1899C90.4746 65.6889 86.0177 69.4885 81.7568 73.5861L186.575 181.473L95.0991 62.1899Z" fill="#6BB200"/><path fill-rule="evenodd" clip-rule="evenodd" d="M347.478 159.077C348.482 166.389 349 173.856 349 181.443L186.794 181.943L347.478 159.077Z" fill="#B75CF1"/><path fill-rule="evenodd" clip-rule="evenodd" d="M21.9074 94.4434C7.92734 120.56 0 150.403 0 182.097C0 284.822 83.275 368.097 186 368.097C239.791 368.097 288.249 345.263 322.209 308.759L186.737 181.684L21.9074 94.4434Z" fill="#FFC800"/><path fill-rule="evenodd" clip-rule="evenodd" d="M304.379 292.989L186 181.943L320.397 273.176C315.576 280.198 310.217 286.822 304.379 292.989Z" fill="#F13B3B"/><path fill-rule="evenodd" clip-rule="evenodd" d="M219.371 35.1947L186.794 181.943L205.796 32.7468C210.39 33.3567 214.919 34.176 219.371 35.1947Z" fill="#DA8C37"/><path fill-rule="evenodd" clip-rule="evenodd" d="M312.537 79.4755C288.165 49.3786 255.282 30.2327 220.151 22.6963L186.794 181.943L312.537 79.4755Z" fill="#FFAADE"/><path fill-rule="evenodd" clip-rule="evenodd" d="M298.955 64.6472C303.722 69.2504 308.261 74.1943 312.537 79.4755L186.794 181.943L298.955 64.6472Z" fill="#FF82CF"/><path fill-rule="evenodd" clip-rule="evenodd" d="M154.243 34.9172L186.737 181.684L140.293 38.6295C144.916 37.1554 149.571 35.9198 154.243 34.9172Z" fill="#1BBEEC"/><path d="M277.777 232.669C277.777 233.869 278.534 234.6 279.604 234.6C280.648 234.6 281.431 233.869 281.431 232.669V218.757C281.431 217.426 280.648 216.539 279.395 216.539C278.56 216.539 277.855 216.878 277.177 217.348L274.384 219.279C273.758 219.697 273.471 220.271 273.471 220.819C273.471 221.707 274.149 222.359 274.984 222.359C275.35 222.359 275.741 222.255 276.081 222.02L277.725 220.897H277.777V232.669ZM292.28 232.669C292.28 233.869 293.037 234.6 294.107 234.6C295.151 234.6 295.934 233.869 295.934 232.669V218.757C295.934 217.426 295.151 216.539 293.898 216.539C293.063 216.539 292.358 216.878 291.68 217.348L288.887 219.279C288.26 219.697 287.973 220.271 287.973 220.819C287.973 221.707 288.652 222.359 289.487 222.359C289.853 222.359 290.244 222.255 290.583 222.02L292.228 220.897H292.28V232.669ZM305.138 233.739C305.138 234.391 305.608 234.887 306.261 234.887C306.757 234.887 307.122 234.652 307.409 234.156L316.648 218.157C316.779 217.922 316.857 217.661 316.857 217.426C316.857 216.774 316.387 216.278 315.735 216.278C315.239 216.278 314.874 216.513 314.587 217.009L305.347 233.008C305.217 233.243 305.138 233.504 305.138 233.739ZM305.504 225.83C307.2 225.83 308.401 225.047 308.845 223.664C309.027 223.09 309.106 222.359 309.106 221.158C309.106 219.958 309.027 219.227 308.845 218.653C308.401 217.27 307.2 216.487 305.504 216.487C303.807 216.487 302.607 217.27 302.163 218.653C301.98 219.227 301.902 219.958 301.902 221.158C301.902 222.359 301.98 223.09 302.163 223.664C302.607 225.047 303.807 225.83 305.504 225.83ZM305.504 223.795C305.034 223.795 304.721 223.56 304.59 223.142C304.512 222.907 304.46 222.437 304.46 221.158C304.46 219.88 304.512 219.41 304.59 219.175C304.721 218.757 305.034 218.522 305.504 218.522C305.974 218.522 306.287 218.757 306.417 219.175C306.496 219.41 306.548 219.88 306.548 221.158C306.548 222.437 306.496 222.907 306.417 223.142C306.287 223.56 305.974 223.795 305.504 223.795ZM313.151 232.512C313.595 233.895 314.795 234.678 316.492 234.678C318.188 234.678 319.389 233.895 319.833 232.512C320.015 231.938 320.094 231.207 320.094 230.006C320.094 228.806 320.015 228.075 319.833 227.501C319.389 226.117 318.188 225.334 316.492 225.334C314.795 225.334 313.595 226.117 313.151 227.501C312.968 228.075 312.89 228.806 312.89 230.006C312.89 231.207 312.968 231.938 313.151 232.512ZM315.578 231.99C315.5 231.755 315.448 231.285 315.448 230.006C315.448 228.727 315.5 228.258 315.578 228.023C315.709 227.605 316.022 227.37 316.492 227.37C316.962 227.37 317.275 227.605 317.405 228.023C317.484 228.258 317.536 228.727 317.536 230.006C317.536 231.285 317.484 231.755 317.405 231.99C317.275 232.408 316.962 232.642 316.492 232.642C316.022 232.642 315.709 232.408 315.578 231.99Z" fill="white"/><path d="M274.777 152.669C274.777 153.869 275.534 154.6 276.604 154.6C277.648 154.6 278.431 153.869 278.431 152.669V138.757C278.431 137.426 277.648 136.539 276.395 136.539C275.56 136.539 274.855 136.878 274.177 137.348L271.384 139.279C270.758 139.697 270.471 140.271 270.471 140.819C270.471 141.707 271.149 142.359 271.984 142.359C272.35 142.359 272.741 142.255 273.081 142.02L274.725 140.897H274.777V152.669ZM284.712 151.103C285.469 153.399 287.218 154.73 290.089 154.73C292.96 154.73 294.709 153.399 295.466 151.103C295.727 150.293 295.831 149.302 295.831 145.569C295.831 141.837 295.727 140.845 295.466 140.036C294.709 137.739 292.96 136.408 290.089 136.408C287.218 136.408 285.469 137.739 284.712 140.036C284.451 140.845 284.347 141.837 284.347 145.569C284.347 149.302 284.451 150.293 284.712 151.103ZM288.314 150.45C288.158 149.98 288.079 149.458 288.079 145.569C288.079 141.68 288.158 141.158 288.314 140.689C288.575 139.906 289.149 139.514 290.089 139.514C291.029 139.514 291.603 139.906 291.864 140.689C292.02 141.158 292.099 141.68 292.099 145.569C292.099 149.458 292.02 149.98 291.864 150.45C291.603 151.233 291.029 151.625 290.089 151.625C289.149 151.625 288.575 151.233 288.314 150.45ZM302.138 153.739C302.138 154.391 302.608 154.887 303.261 154.887C303.757 154.887 304.122 154.652 304.409 154.156L313.648 138.157C313.779 137.922 313.857 137.661 313.857 137.426C313.857 136.774 313.387 136.278 312.735 136.278C312.239 136.278 311.874 136.513 311.587 137.009L302.347 153.008C302.217 153.243 302.138 153.504 302.138 153.739ZM302.504 145.83C304.2 145.83 305.401 145.047 305.845 143.664C306.027 143.09 306.106 142.359 306.106 141.158C306.106 139.958 306.027 139.227 305.845 138.653C305.401 137.27 304.2 136.487 302.504 136.487C300.807 136.487 299.607 137.27 299.163 138.653C298.98 139.227 298.902 139.958 298.902 141.158C298.902 142.359 298.98 143.09 299.163 143.664C299.607 145.047 300.807 145.83 302.504 145.83ZM302.504 143.795C302.034 143.795 301.721 143.56 301.59 143.142C301.512 142.907 301.46 142.437 301.46 141.158C301.46 139.88 301.512 139.41 301.59 139.175C301.721 138.757 302.034 138.522 302.504 138.522C302.974 138.522 303.287 138.757 303.417 139.175C303.496 139.41 303.548 139.88 303.548 141.158C303.548 142.437 303.496 142.907 303.417 143.142C303.287 143.56 302.974 143.795 302.504 143.795ZM310.151 152.512C310.595 153.895 311.795 154.678 313.492 154.678C315.188 154.678 316.389 153.895 316.833 152.512C317.015 151.938 317.094 151.207 317.094 150.006C317.094 148.806 317.015 148.075 316.833 147.501C316.389 146.117 315.188 145.334 313.492 145.334C311.795 145.334 310.595 146.117 310.151 147.501C309.968 148.075 309.89 148.806 309.89 150.006C309.89 151.207 309.968 151.938 310.151 152.512ZM312.578 151.99C312.5 151.755 312.448 151.285 312.448 150.006C312.448 148.727 312.5 148.258 312.578 148.023C312.709 147.605 313.022 147.37 313.492 147.37C313.962 147.37 314.275 147.605 314.405 148.023C314.484 148.258 314.536 148.727 314.536 150.006C314.536 151.285 314.484 151.755 314.405 151.99C314.275 152.408 313.962 152.642 313.492 152.642C313.022 152.642 312.709 152.408 312.578 151.99Z" fill="white"/><path d="M121.23 77.5234C121.23 80.0234 123.19 81.6634 125.83 81.6634C128.47 81.6634 130.43 80.0234 130.43 77.5234C130.43 76.0034 129.67 74.9234 128.81 74.3434V74.3034C129.45 73.8434 130.13 72.8634 130.13 71.5834C130.13 69.4834 128.59 67.6234 125.83 67.6234C123.07 67.6234 121.53 69.4834 121.53 71.5834C121.53 72.8634 122.21 73.8434 122.85 74.3034V74.3434C121.99 74.9234 121.23 76.0034 121.23 77.5234ZM125.83 73.1634C124.89 73.1634 124.27 72.4434 124.27 71.5834C124.27 70.7034 124.89 69.9834 125.83 69.9834C126.77 69.9834 127.39 70.7034 127.39 71.5834C127.39 72.4434 126.77 73.1634 125.83 73.1634ZM123.99 77.4034C123.99 76.3034 124.73 75.5234 125.83 75.5234C126.93 75.5234 127.67 76.3034 127.67 77.4034C127.67 78.5234 126.93 79.3034 125.83 79.3034C124.73 79.3034 123.99 78.5234 123.99 77.4034ZM135.063 80.9034C135.063 81.4034 135.423 81.7834 135.923 81.7834C136.303 81.7834 136.583 81.6034 136.803 81.2234L143.883 68.9634C143.983 68.7834 144.043 68.5834 144.043 68.4034C144.043 67.9034 143.683 67.5234 143.183 67.5234C142.803 67.5234 142.523 67.7034 142.303 68.0834L135.223 80.3434C135.123 80.5234 135.063 80.7234 135.063 80.9034ZM135.343 74.8434C136.643 74.8434 137.563 74.2434 137.903 73.1834C138.043 72.7434 138.103 72.1834 138.103 71.2634C138.103 70.3434 138.043 69.7834 137.903 69.3434C137.563 68.2834 136.643 67.6834 135.343 67.6834C134.043 67.6834 133.123 68.2834 132.783 69.3434C132.643 69.7834 132.583 70.3434 132.583 71.2634C132.583 72.1834 132.643 72.7434 132.783 73.1834C133.123 74.2434 134.043 74.8434 135.343 74.8434ZM135.343 73.2834C134.983 73.2834 134.743 73.1034 134.643 72.7834C134.583 72.6034 134.543 72.2434 134.543 71.2634C134.543 70.2834 134.583 69.9234 134.643 69.7434C134.743 69.4234 134.983 69.2434 135.343 69.2434C135.703 69.2434 135.943 69.4234 136.043 69.7434C136.103 69.9234 136.143 70.2834 136.143 71.2634C136.143 72.2434 136.103 72.6034 136.043 72.7834C135.943 73.1034 135.703 73.2834 135.343 73.2834ZM141.203 79.9634C141.543 81.0234 142.463 81.6234 143.763 81.6234C145.063 81.6234 145.983 81.0234 146.323 79.9634C146.463 79.5234 146.523 78.9634 146.523 78.0434C146.523 77.1234 146.463 76.5634 146.323 76.1234C145.983 75.0634 145.063 74.4634 143.763 74.4634C142.463 74.4634 141.543 75.0634 141.203 76.1234C141.063 76.5634 141.003 77.1234 141.003 78.0434C141.003 78.9634 141.063 79.5234 141.203 79.9634ZM143.063 79.5634C143.003 79.3834 142.963 79.0234 142.963 78.0434C142.963 77.0634 143.003 76.7034 143.063 76.5234C143.163 76.2034 143.403 76.0234 143.763 76.0234C144.123 76.0234 144.363 76.2034 144.463 76.5234C144.523 76.7034 144.563 77.0634 144.563 78.0434C144.563 79.0234 144.523 79.3834 144.463 79.5634C144.363 79.8834 144.123 80.0634 143.763 80.0634C143.403 80.0634 143.163 79.8834 143.063 79.5634Z" fill="white"/><path d="M173.23 63.5234C173.23 66.0234 175.19 67.6634 177.83 67.6634C180.47 67.6634 182.43 66.0234 182.43 63.5234C182.43 62.0034 181.67 60.9234 180.81 60.3434V60.3034C181.45 59.8434 182.13 58.8634 182.13 57.5834C182.13 55.4834 180.59 53.6234 177.83 53.6234C175.07 53.6234 173.53 55.4834 173.53 57.5834C173.53 58.8634 174.21 59.8434 174.85 60.3034V60.3434C173.99 60.9234 173.23 62.0034 173.23 63.5234ZM177.83 59.1634C176.89 59.1634 176.27 58.4434 176.27 57.5834C176.27 56.7034 176.89 55.9834 177.83 55.9834C178.77 55.9834 179.39 56.7034 179.39 57.5834C179.39 58.4434 178.77 59.1634 177.83 59.1634ZM175.99 63.4034C175.99 62.3034 176.73 61.5234 177.83 61.5234C178.93 61.5234 179.67 62.3034 179.67 63.4034C179.67 64.5234 178.93 65.3034 177.83 65.3034C176.73 65.3034 175.99 64.5234 175.99 63.4034ZM187.063 66.9034C187.063 67.4034 187.423 67.7834 187.923 67.7834C188.303 67.7834 188.583 67.6034 188.803 67.2234L195.883 54.9634C195.983 54.7834 196.043 54.5834 196.043 54.4034C196.043 53.9034 195.683 53.5234 195.183 53.5234C194.803 53.5234 194.523 53.7034 194.303 54.0834L187.223 66.3434C187.123 66.5234 187.063 66.7234 187.063 66.9034ZM187.343 60.8434C188.643 60.8434 189.563 60.2434 189.903 59.1834C190.043 58.7434 190.103 58.1834 190.103 57.2634C190.103 56.3434 190.043 55.7834 189.903 55.3434C189.563 54.2834 188.643 53.6834 187.343 53.6834C186.043 53.6834 185.123 54.2834 184.783 55.3434C184.643 55.7834 184.583 56.3434 184.583 57.2634C184.583 58.1834 184.643 58.7434 184.783 59.1834C185.123 60.2434 186.043 60.8434 187.343 60.8434ZM187.343 59.2834C186.983 59.2834 186.743 59.1034 186.643 58.7834C186.583 58.6034 186.543 58.2434 186.543 57.2634C186.543 56.2834 186.583 55.9234 186.643 55.7434C186.743 55.4234 186.983 55.2434 187.343 55.2434C187.703 55.2434 187.943 55.4234 188.043 55.7434C188.103 55.9234 188.143 56.2834 188.143 57.2634C188.143 58.2434 188.103 58.6034 188.043 58.7834C187.943 59.1034 187.703 59.2834 187.343 59.2834ZM193.203 65.9634C193.543 67.0234 194.463 67.6234 195.763 67.6234C197.063 67.6234 197.983 67.0234 198.323 65.9634C198.463 65.5234 198.523 64.9634 198.523 64.0434C198.523 63.1234 198.463 62.5634 198.323 62.1234C197.983 61.0634 197.063 60.4634 195.763 60.4634C194.463 60.4634 193.543 61.0634 193.203 62.1234C193.063 62.5634 193.003 63.1234 193.003 64.0434C193.003 64.9634 193.063 65.5234 193.203 65.9634ZM195.063 65.5634C195.003 65.3834 194.963 65.0234 194.963 64.0434C194.963 63.0634 195.003 62.7034 195.063 62.5234C195.163 62.2034 195.403 62.0234 195.763 62.0234C196.123 62.0234 196.363 62.2034 196.463 62.5234C196.523 62.7034 196.563 63.0634 196.563 64.0434C196.563 65.0234 196.523 65.3834 196.463 65.5634C196.363 65.8834 196.123 66.0634 195.763 66.0634C195.403 66.0634 195.163 65.8834 195.063 65.5634Z" fill="white"/><path d="M79.2295 108.523C79.2295 111.023 81.1895 112.663 83.8295 112.663C86.4695 112.663 88.4295 111.023 88.4295 108.523C88.4295 107.003 87.6695 105.923 86.8095 105.343V105.303C87.4495 104.843 88.1295 103.863 88.1295 102.583C88.1295 100.483 86.5895 98.6234 83.8295 98.6234C81.0695 98.6234 79.5295 100.483 79.5295 102.583C79.5295 103.863 80.2095 104.843 80.8495 105.303V105.343C79.9895 105.923 79.2295 107.003 79.2295 108.523ZM83.8295 104.163C82.8895 104.163 82.2695 103.443 82.2695 102.583C82.2695 101.703 82.8895 100.983 83.8295 100.983C84.7695 100.983 85.3895 101.703 85.3895 102.583C85.3895 103.443 84.7695 104.163 83.8295 104.163ZM81.9895 108.403C81.9895 107.303 82.7295 106.523 83.8295 106.523C84.9295 106.523 85.6695 107.303 85.6695 108.403C85.6695 109.523 84.9295 110.303 83.8295 110.303C82.7295 110.303 81.9895 109.523 81.9895 108.403ZM93.0628 111.903C93.0628 112.403 93.4228 112.783 93.9228 112.783C94.3028 112.783 94.5828 112.603 94.8028 112.223L101.883 99.9634C101.983 99.7834 102.043 99.5834 102.043 99.4034C102.043 98.9034 101.683 98.5234 101.183 98.5234C100.803 98.5234 100.523 98.7034 100.303 99.0834L93.2228 111.343C93.1228 111.523 93.0628 111.723 93.0628 111.903ZM93.3428 105.843C94.6428 105.843 95.5628 105.243 95.9028 104.183C96.0428 103.743 96.1028 103.183 96.1028 102.263C96.1028 101.343 96.0428 100.783 95.9028 100.343C95.5628 99.2834 94.6428 98.6834 93.3428 98.6834C92.0428 98.6834 91.1228 99.2834 90.7828 100.343C90.6428 100.783 90.5828 101.343 90.5828 102.263C90.5828 103.183 90.6428 103.743 90.7828 104.183C91.1228 105.243 92.0428 105.843 93.3428 105.843ZM93.3428 104.283C92.9828 104.283 92.7428 104.103 92.6428 103.783C92.5828 103.603 92.5428 103.243 92.5428 102.263C92.5428 101.283 92.5828 100.923 92.6428 100.743C92.7428 100.423 92.9828 100.243 93.3428 100.243C93.7028 100.243 93.9428 100.423 94.0428 100.743C94.1028 100.923 94.1428 101.283 94.1428 102.263C94.1428 103.243 94.1028 103.603 94.0428 103.783C93.9428 104.103 93.7028 104.283 93.3428 104.283ZM99.2028 110.963C99.5428 112.023 100.463 112.623 101.763 112.623C103.063 112.623 103.983 112.023 104.323 110.963C104.463 110.523 104.523 109.963 104.523 109.043C104.523 108.123 104.463 107.563 104.323 107.123C103.983 106.063 103.063 105.463 101.763 105.463C100.463 105.463 99.5428 106.063 99.2028 107.123C99.0628 107.563 99.0028 108.123 99.0028 109.043C99.0028 109.963 99.0628 110.523 99.2028 110.963ZM101.063 110.563C101.003 110.383 100.963 110.023 100.963 109.043C100.963 108.063 101.003 107.703 101.063 107.523C101.163 107.203 101.403 107.023 101.763 107.023C102.123 107.023 102.363 107.203 102.463 107.523C102.523 107.703 102.563 108.063 102.563 109.043C102.563 110.023 102.523 110.383 102.463 110.563C102.363 110.883 102.123 111.063 101.763 111.063C101.403 111.063 101.163 110.883 101.063 110.563Z" fill="white"/><path d="M89.5488 272.097H100.619C100.835 272.097 100.943 272.205 100.943 272.421V273.879C100.943 276.255 102.509 277.767 104.615 277.767C106.775 277.767 108.287 276.255 108.287 273.879V272.421C108.287 272.205 108.395 272.097 108.611 272.097H108.827C110.933 272.097 112.337 270.747 112.337 268.803C112.337 266.913 110.933 265.563 108.827 265.563H108.611C108.395 265.563 108.287 265.455 108.287 265.239V260.379C108.287 258.003 106.775 256.491 104.615 256.491C102.509 256.491 100.943 258.003 100.943 260.379V265.239C100.943 265.455 100.835 265.563 100.619 265.563H93.9768V265.455L102.887 245.853C103.103 245.367 103.265 244.665 103.265 244.071C103.265 241.857 101.699 240.399 99.6468 240.399C98.0268 240.399 96.8388 241.317 96.1908 242.775L86.6328 264.159C85.7688 266.103 85.3908 266.913 85.3908 268.263C85.3908 270.585 86.9568 272.097 89.5488 272.097ZM118.097 272.475C119.069 275.499 123.065 278.037 128.681 278.037C133.865 278.037 138.347 275.607 139.805 271.071C140.291 269.613 140.615 267.831 140.615 265.509C140.615 262.431 140.345 260.649 139.859 259.083C138.509 255.033 135.107 252.981 130.409 252.981C127.655 252.981 125.819 253.845 124.901 254.763H124.739V247.581C124.739 247.365 124.847 247.257 125.063 247.257H136.565C138.671 247.257 140.021 245.907 140.021 243.963C140.021 242.073 138.671 240.723 136.565 240.723H121.391C119.339 240.723 118.097 241.965 118.097 243.963V258.813C118.097 261.243 119.555 262.701 121.769 262.701C123.389 262.701 124.469 262.215 125.495 260.919C126.251 259.947 127.331 259.353 128.843 259.353C130.571 259.353 132.029 260.055 132.677 261.891C132.947 262.755 133.109 263.781 133.109 265.509C133.109 267.183 132.893 268.209 132.623 269.019C132.029 270.693 130.571 271.611 128.627 271.611C126.899 271.611 125.333 270.585 124.523 269.559C123.497 268.317 122.471 267.777 121.229 267.777C119.231 267.777 117.827 269.181 117.827 271.071C117.827 271.503 117.935 271.989 118.097 272.475ZM153.773 275.985C153.773 277.335 154.745 278.361 156.095 278.361C157.121 278.361 157.877 277.875 158.471 276.849L177.587 243.747C177.857 243.261 178.019 242.721 178.019 242.235C178.019 240.885 177.047 239.859 175.697 239.859C174.671 239.859 173.915 240.345 173.321 241.371L154.205 274.473C153.935 274.959 153.773 275.499 153.773 275.985ZM154.529 259.623C158.039 259.623 160.523 258.003 161.441 255.141C161.819 253.953 161.981 252.441 161.981 249.957C161.981 247.473 161.819 245.961 161.441 244.773C160.523 241.911 158.039 240.291 154.529 240.291C151.019 240.291 148.535 241.911 147.617 244.773C147.239 245.961 147.077 247.473 147.077 249.957C147.077 252.441 147.239 253.953 147.617 255.141C148.535 258.003 151.019 259.623 154.529 259.623ZM154.529 255.411C153.557 255.411 152.909 254.925 152.639 254.061C152.477 253.575 152.369 252.603 152.369 249.957C152.369 247.311 152.477 246.339 152.639 245.853C152.909 244.989 153.557 244.503 154.529 244.503C155.501 244.503 156.149 244.989 156.419 245.853C156.581 246.339 156.689 247.311 156.689 249.957C156.689 252.603 156.581 253.575 156.419 254.061C156.149 254.925 155.501 255.411 154.529 255.411ZM170.351 273.447C171.269 276.309 173.753 277.929 177.263 277.929C180.773 277.929 183.257 276.309 184.175 273.447C184.553 272.259 184.715 270.747 184.715 268.263C184.715 265.779 184.553 264.267 184.175 263.079C183.257 260.217 180.773 258.597 177.263 258.597C173.753 258.597 171.269 260.217 170.351 263.079C169.973 264.267 169.811 265.779 169.811 268.263C169.811 270.747 169.973 272.259 170.351 273.447ZM175.373 272.367C175.211 271.881 175.103 270.909 175.103 268.263C175.103 265.617 175.211 264.645 175.373 264.159C175.643 263.295 176.291 262.809 177.263 262.809C178.235 262.809 178.883 263.295 179.153 264.159C179.315 264.645 179.423 265.617 179.423 268.263C179.423 270.909 179.315 271.881 179.153 272.367C178.883 273.231 178.235 273.717 177.263 273.717C176.291 273.717 175.643 273.231 175.373 272.367Z" fill="white"/><path d="M231.777 90.6686C231.777 91.8692 232.534 92.6 233.604 92.6C234.648 92.6 235.431 91.8692 235.431 90.6686V76.7573C235.431 75.4262 234.648 74.5388 233.395 74.5388C232.56 74.5388 231.855 74.8781 231.177 75.3479L228.384 77.2793C227.758 77.6969 227.471 78.2711 227.471 78.8192C227.471 79.7066 228.149 80.3591 228.984 80.3591C229.35 80.3591 229.741 80.2547 230.081 80.0198L231.725 78.8975H231.777V90.6686ZM241.712 89.1026C242.469 91.3994 244.218 92.7305 247.089 92.7305C249.96 92.7305 251.709 91.3994 252.466 89.1026C252.727 88.2935 252.831 87.3017 252.831 83.5694C252.831 79.8371 252.727 78.8453 252.466 78.0362C251.709 75.7394 249.96 74.4083 247.089 74.4083C244.218 74.4083 242.469 75.7394 241.712 78.0362C241.451 78.8453 241.347 79.8371 241.347 83.5694C241.347 87.3017 241.451 88.2935 241.712 89.1026ZM245.314 88.4501C245.158 87.9803 245.079 87.4583 245.079 83.5694C245.079 79.6805 245.158 79.1585 245.314 78.6887C245.575 77.9057 246.149 77.5142 247.089 77.5142C248.029 77.5142 248.603 77.9057 248.864 78.6887C249.02 79.1585 249.099 79.6805 249.099 83.5694C249.099 87.4583 249.02 87.9803 248.864 88.4501C248.603 89.2331 248.029 89.6246 247.089 89.6246C246.149 89.6246 245.575 89.2331 245.314 88.4501ZM259.138 91.7387C259.138 92.3912 259.608 92.8871 260.261 92.8871C260.757 92.8871 261.122 92.6522 261.409 92.1563L270.648 76.157C270.779 75.9221 270.857 75.6611 270.857 75.4262C270.857 74.7737 270.387 74.2778 269.735 74.2778C269.239 74.2778 268.874 74.5127 268.587 75.0086L259.347 91.0079C259.217 91.2428 259.138 91.5038 259.138 91.7387ZM259.504 83.8304C261.2 83.8304 262.401 83.0474 262.845 81.6641C263.027 81.0899 263.106 80.3591 263.106 79.1585C263.106 77.9579 263.027 77.2271 262.845 76.6529C262.401 75.2696 261.2 74.4866 259.504 74.4866C257.807 74.4866 256.607 75.2696 256.163 76.6529C255.98 77.2271 255.902 77.9579 255.902 79.1585C255.902 80.3591 255.98 81.0899 256.163 81.6641C256.607 83.0474 257.807 83.8304 259.504 83.8304ZM259.504 81.7946C259.034 81.7946 258.721 81.5597 258.59 81.1421C258.512 80.9072 258.46 80.4374 258.46 79.1585C258.46 77.8796 258.512 77.4098 258.59 77.1749C258.721 76.7573 259.034 76.5224 259.504 76.5224C259.974 76.5224 260.287 76.7573 260.417 77.1749C260.496 77.4098 260.548 77.8796 260.548 79.1585C260.548 80.4374 260.496 80.9072 260.417 81.1421C260.287 81.5597 259.974 81.7946 259.504 81.7946ZM267.151 90.512C267.595 91.8953 268.795 92.6783 270.492 92.6783C272.188 92.6783 273.389 91.8953 273.833 90.512C274.015 89.9378 274.094 89.207 274.094 88.0064C274.094 86.8058 274.015 86.075 273.833 85.5008C273.389 84.1175 272.188 83.3345 270.492 83.3345C268.795 83.3345 267.595 84.1175 267.151 85.5008C266.968 86.075 266.89 86.8058 266.89 88.0064C266.89 89.207 266.968 89.9378 267.151 90.512ZM269.578 89.99C269.5 89.7551 269.448 89.2853 269.448 88.0064C269.448 86.7275 269.5 86.2577 269.578 86.0228C269.709 85.6052 270.022 85.3703 270.492 85.3703C270.962 85.3703 271.275 85.6052 271.405 86.0228C271.484 86.2577 271.536 86.7275 271.536 88.0064C271.536 89.2853 271.484 89.7551 271.405 89.99C271.275 90.4076 270.962 90.6425 270.492 90.6425C270.022 90.6425 269.709 90.4076 269.578 89.99Z" fill="white"/></svg>