<svg width="555" height="234" viewBox="0 0 555 234" fill="none" xmlns="http://www.w3.org/2000/svg"><path d="M86.3535 207.517L68.5837 203.739C67.1298 203.43 65.7006 204.358 65.3916 205.812L64.2725 211.078C63.9634 212.531 64.8915 213.961 66.3455 214.27L84.1152 218.047C85.5691 218.356 86.9983 217.428 87.3073 215.974L88.4265 210.709C88.7355 209.255 87.8074 207.826 86.3535 207.517Z" fill="#9069CD"/><path d="M43.9077 115.949L144.603 137.353C147.511 137.971 149.367 140.829 148.749 143.737L132.522 220.081C131.903 222.989 129.045 224.845 126.137 224.227L25.442 202.824C22.5341 202.205 20.6779 199.347 21.296 196.439L37.5234 120.095C38.1415 117.187 40.9998 115.331 43.9077 115.949Z" fill="#9069CD"/><path d="M85.6383 201.173L71.8174 198.236C70.3634 197.927 68.9343 198.855 68.6252 200.309L67.9258 203.599C67.6167 205.053 68.5449 206.482 69.9988 206.792L83.8197 209.729C85.2736 210.038 86.7028 209.11 87.0118 207.656L87.7113 204.366C88.0203 202.912 87.0922 201.482 85.6383 201.173Z" fill="#D2E4E8"/><path d="M32.8723 177.576L130.277 198.28L127.199 212.759C126.89 214.213 125.461 215.141 124.007 214.832L77.9387 205.04L62.7989 201.822L31.8677 195.247C30.4138 194.938 29.4857 193.509 29.7947 192.055L32.8723 177.576Z" fill="#D2E4E8"/><path d="M76.049 213.925L77.9375 205.04C79.0191 199.951 75.7708 194.949 70.682 193.867L31.1937 185.474L28.6057 197.649L44.6233 122.292C44.9323 120.839 46.3615 119.91 47.8154 120.219L84.6712 128.053C89.7599 129.135 93.0083 134.137 91.9267 139.226C93.0083 134.137 98.0104 130.889 103.099 131.97L139.955 139.804C141.409 140.113 142.337 141.543 142.028 142.996L123.422 230.529L128.598 206.178L89.1099 197.784C84.0212 196.703 79.0191 199.951 77.9375 205.04L76.049 213.925Z" fill="white"/><path d="M83.9304 134.774L51.0235 127.78C49.933 127.548 48.8612 128.244 48.6294 129.335L48.2097 131.309C47.9779 132.399 48.674 133.471 49.7645 133.703L82.6714 140.698C83.7619 140.929 84.8337 140.233 85.0655 139.143L85.4852 137.168C85.717 136.078 85.0209 135.006 83.9304 134.774Z" fill="#D2E4E8"/><path d="M78.1948 161.758L45.2879 154.764C44.1975 154.532 43.1256 155.228 42.8938 156.319L42.4741 158.293C42.2423 159.383 42.9384 160.455 44.0289 160.687L76.9358 167.682C78.0263 167.913 79.0981 167.217 79.3299 166.127L79.7496 164.152C79.9814 163.062 79.2853 161.99 78.1948 161.758Z" fill="#D2E4E8"/><path d="M73.7529 147.057L48.0855 141.601C46.9951 141.369 45.9232 142.065 45.6914 143.156L45.2717 145.13C45.04 146.221 45.736 147.292 46.8265 147.524L72.4939 152.98C73.5843 153.212 74.6562 152.516 74.888 151.425L75.3077 149.451C75.5394 148.36 74.8434 147.289 73.7529 147.057Z" fill="#D2E4E8"/><path d="M68.1575 173.382L42.49 167.926C41.3996 167.695 40.3277 168.391 40.0959 169.481L39.6763 171.455C39.4445 172.546 40.1406 173.618 41.231 173.85L66.8984 179.305C67.9889 179.537 69.0608 178.841 69.2925 177.751L69.7122 175.776C69.944 174.686 69.2479 173.614 68.1575 173.382Z" fill="#D2E4E8"/><path d="M62.2374 117.094L77.3746 120.312C78.465 120.543 79.1611 121.615 78.9293 122.706L68.8661 170.049C68.6344 171.139 67.5625 171.836 66.472 171.604C66.1142 171.528 65.7838 171.356 65.5161 171.107L60.4304 166.37C59.8685 165.847 59.0584 165.688 58.3404 165.96L52.4963 168.171C51.4536 168.566 50.2885 168.04 49.894 166.997C49.7571 166.636 49.727 166.242 49.8075 165.863L59.8433 118.649C60.075 117.558 61.1469 116.862 62.2374 117.094Z" fill="#FF4B4B"/><path d="M134.607 145.546L101.7 138.552C100.61 138.32 99.5379 139.016 99.3062 140.106L98.8865 142.081C98.6547 143.171 99.3508 144.243 100.441 144.475L133.348 151.47C134.439 151.701 135.51 151.005 135.742 149.915L136.162 147.94C136.394 146.85 135.698 145.778 134.607 145.546Z" fill="#D2E4E8"/><path d="M128.872 172.53L95.9647 165.535C94.8742 165.304 93.8023 166 93.5706 167.09L93.1509 169.065C92.9191 170.155 93.6152 171.227 94.7056 171.459L127.613 178.453C128.703 178.685 129.775 177.989 130.007 176.898L130.426 174.924C130.658 173.834 129.962 172.762 128.872 172.53Z" fill="#D2E4E8"/><path d="M124.43 157.828L98.7625 152.373C97.6721 152.141 96.6002 152.837 96.3684 153.927L95.9487 155.902C95.717 156.992 96.413 158.064 97.5035 158.296L123.171 163.752C124.261 163.983 125.333 163.287 125.565 162.197L125.985 160.222C126.216 159.132 125.52 158.06 124.43 157.828Z" fill="#D2E4E8"/><path d="M118.834 184.154L93.1668 178.698C92.0764 178.466 91.0045 179.162 90.7727 180.253L90.353 182.227C90.1213 183.318 90.8173 184.39 91.9078 184.621L117.575 190.077C118.666 190.309 119.738 189.613 119.969 188.522L120.389 186.548C120.621 185.458 119.925 184.386 118.834 184.154Z" fill="#D2E4E8"/><mask id="mask0" mask-type="alpha" maskUnits="userSpaceOnUse" x="153" y="159" width="50" height="44"><path d="M166.703 160.197L198.325 169.265C201.236 170.099 202.919 173.136 202.084 176.046L195.661 198.446C194.827 201.356 191.791 203.039 188.88 202.205L157.257 193.137C154.347 192.302 152.664 189.266 153.498 186.355L159.921 163.956C160.756 161.045 163.792 159.362 166.703 160.197Z" fill="white"/></mask><g mask="url(#mask0)"><path d="M166.703 160.197L198.325 169.265C201.236 170.099 202.919 173.136 202.084 176.046L195.661 198.446C194.827 201.356 191.791 203.039 188.88 202.205L157.257 193.137C154.347 192.302 152.664 189.266 153.498 186.355L159.921 163.956C160.756 161.045 163.792 159.362 166.703 160.197Z" fill="#FF4B4B"/><path fill-rule="evenodd" clip-rule="evenodd" d="M157.944 170.544L200.239 182.672L195.516 199.142L153.221 187.014L157.944 170.544Z" fill="#FAF3F3"/></g><path d="M163.827 182.007C164.655 186.101 167.21 185.943 171.491 181.533C175.822 177.071 176.968 185.364 179.151 188.155C180.593 189.997 183.271 192.348 189.637 189.408" stroke="#E7DBDB" stroke-width="2.7414" stroke-linecap="round"/><path d="M171.936 168.647L188.603 173.426" stroke="white" stroke-width="2.7414" stroke-linecap="round"/><path d="M429.751 148.731L422.158 188.03C421.236 192.801 424.356 197.415 429.127 198.337C431.159 198.73 433.264 198.393 435.073 197.387C437.651 195.953 440.905 196.88 442.339 199.459C443.241 201.08 443.237 203.053 442.329 204.671L435.056 217.629" stroke="#303030" stroke-width="4.1121" stroke-linecap="round"/><path d="M430.063 223.171L432.887 218.471C433.277 217.822 434.119 217.612 434.768 218.002C435.417 218.392 435.627 219.234 435.237 219.883L432.413 224.583C432.023 225.232 431.181 225.442 430.532 225.052C429.883 224.662 429.673 223.82 430.063 223.171Z" fill="#777777"/><path d="M431.478 216.825L431.831 216.237C432.416 215.264 433.679 214.949 434.652 215.534L437.002 216.946C437.975 217.53 438.29 218.794 437.705 219.767L437.352 220.354C436.767 221.328 435.504 221.643 434.531 221.058L432.181 219.646C431.208 219.061 430.893 217.798 431.478 216.825Z" fill="#303030"/><path d="M377.653 47.5469C354.702 61.8883 347.722 92.1198 362.064 115.071C376.405 138.022 406.637 145.001 429.588 130.66C452.539 116.319 459.518 86.0871 445.177 63.1361C430.835 40.185 400.604 33.2056 377.653 47.5469Z" stroke="#303030" stroke-width="13.707" stroke-linecap="round"/><path d="M450.408 141.251C456.695 131.569 453.943 118.624 444.261 112.336C434.579 106.048 421.633 108.8 415.346 118.482L409.747 127.104C403.459 136.786 406.211 149.732 415.893 156.019C425.575 162.307 438.521 159.555 444.809 149.873L450.408 141.251Z" fill="#303030"/><path d="M446.295 131.226C452.582 121.544 449.83 108.598 440.148 102.31C430.466 96.0226 417.52 98.7743 411.233 108.456L398.915 127.424C392.627 137.106 395.379 150.052 405.061 156.34C414.743 162.627 427.689 159.876 433.977 150.194L446.295 131.226Z" fill="#4B4B4B"/><path d="M435.374 124.133C438.569 119.213 437.171 112.634 432.25 109.439C427.33 106.243 420.751 107.642 417.555 112.562L405.238 131.53C402.042 136.45 403.441 143.029 408.361 146.225C413.281 149.42 419.86 148.022 423.056 143.101L435.374 124.133Z" fill="#303030"/><mask id="mask1" mask-type="alpha" maskUnits="userSpaceOnUse" x="446" y="98" width="105" height="113"><path d="M547.499 130.793L509.875 101.398C508.162 100.059 505.687 100.363 504.348 102.077L448.589 173.445C447.25 175.159 447.554 177.634 449.267 178.973L486.891 208.367C488.605 209.706 491.08 209.403 492.419 207.689L548.178 136.32C549.517 134.606 549.213 132.132 547.499 130.793Z" fill="white"/></mask><g mask="url(#mask1)"><path d="M547.499 130.793L509.875 101.398C508.162 100.059 505.687 100.363 504.348 102.077L448.589 173.445C447.25 175.159 447.554 177.634 449.267 178.973L486.891 208.367C488.605 209.706 491.08 209.403 492.419 207.689L548.178 136.32C549.517 134.606 549.213 132.132 547.499 130.793Z" fill="white"/><path d="M532.317 145.232L527.84 141.733C527.197 141.231 526.269 141.345 525.767 141.988L524.75 143.29C524.247 143.932 524.361 144.86 525.004 145.363L529.482 148.861C530.124 149.363 531.052 149.249 531.554 148.606L532.572 147.304C533.074 146.662 532.96 145.734 532.317 145.232Z" fill="#2B70C9"/><path d="M514.026 148.053C516.787 144.518 516.161 139.414 512.626 136.653C509.092 133.891 503.988 134.518 501.226 138.052C498.465 141.587 499.091 146.691 502.626 149.453C506.16 152.214 511.264 151.587 514.026 148.053Z" fill="#FFD900"/><path d="M489.783 179.083C492.544 175.548 491.918 170.444 488.383 167.682C484.848 164.921 479.744 165.548 476.983 169.082C474.221 172.617 474.848 177.721 478.383 180.482C481.917 183.244 487.021 182.617 489.783 179.083Z" fill="#DEDEDE"/><path d="M497.08 200.924L454.026 167.286C453.383 166.784 452.455 166.898 451.953 167.541L445.589 175.686C445.087 176.329 445.201 177.257 445.844 177.759L488.898 211.396C489.54 211.898 490.468 211.784 490.97 211.142L497.334 202.996C497.836 202.354 497.722 201.426 497.08 200.924Z" fill="white" stroke="#DEDEDE" stroke-width="1.47665"/><path d="M550.82 132.138L507.766 98.5011C507.124 97.999 506.196 98.1129 505.694 98.7556L496.299 110.78C495.797 111.422 495.911 112.35 496.554 112.852L539.608 146.49C540.251 146.992 541.179 146.878 541.681 146.235L551.075 134.211C551.577 133.569 551.463 132.641 550.82 132.138Z" fill="white" stroke="#DEDEDE" stroke-width="1.47665"/><path d="M493.371 156.901C496.132 153.366 495.506 148.262 491.971 145.501C488.437 142.739 483.333 143.366 480.571 146.901C477.809 150.435 478.436 155.539 481.971 158.301C485.505 161.062 490.609 160.435 493.371 156.901Z" fill="#FF4B4B"/><path d="M510.437 170.234C513.199 166.7 512.572 161.596 509.038 158.834C505.503 156.073 500.399 156.7 497.638 160.234C494.876 163.769 495.503 168.873 499.037 171.634C502.572 174.396 507.676 173.769 510.437 170.234Z" fill="#1CB0F6"/><path d="M537.414 122.914L519.96 109.277C519.317 108.775 518.389 108.889 517.887 109.532L515.766 112.247C515.264 112.889 515.378 113.817 516.02 114.319L533.475 127.956C534.117 128.458 535.045 128.344 535.548 127.702L537.669 124.987C538.171 124.344 538.057 123.416 537.414 122.914Z" fill="#4B4B4B"/></g><path d="M547.499 130.793L509.875 101.398C508.162 100.059 505.687 100.363 504.348 102.077L448.589 173.445C447.25 175.159 447.554 177.634 449.267 178.973L486.891 208.367C488.605 209.706 491.08 209.403 492.419 207.689L548.178 136.32C549.517 134.606 549.213 132.132 547.499 130.793Z" stroke="#4B4B4B" stroke-width="4.92218"/><path d="M512.699 112.974L507.269 108.731C506.626 108.229 505.698 108.343 505.196 108.986L502.772 112.089C502.27 112.731 502.384 113.659 503.027 114.161L508.457 118.404C509.099 118.906 510.027 118.792 510.529 118.15L512.954 115.047C513.456 114.404 513.342 113.476 512.699 112.974Z" fill="#DEDEDE"/><path d="M521.826 124.477C522.496 123.62 522.344 122.383 521.487 121.713C520.63 121.044 519.393 121.196 518.723 122.053C518.054 122.91 518.206 124.147 519.063 124.816C519.919 125.486 521.157 125.334 521.826 124.477Z" fill="#FFD900"/><path d="M509.415 114.78C510.084 113.923 509.932 112.685 509.075 112.016C508.218 111.347 506.981 111.498 506.312 112.355C505.642 113.212 505.794 114.45 506.651 115.119C507.508 115.788 508.745 115.637 509.415 114.78Z" fill="#FF4B4B"/><path d="M529.584 130.538C530.253 129.681 530.101 128.444 529.244 127.774C528.387 127.105 527.15 127.257 526.481 128.114C525.811 128.971 525.963 130.208 526.82 130.877C527.677 131.547 528.914 131.395 529.584 130.538Z" fill="#FF9600"/><path d="M537.341 136.599C538.011 135.742 537.859 134.504 537.002 133.835C536.145 133.166 534.908 133.317 534.238 134.174C533.569 135.031 533.721 136.269 534.578 136.938C535.435 137.607 536.672 137.456 537.341 136.599Z" fill="#1CB0F6"/><path d="M238.409 43.1823L98.096 78.1664C96.2596 78.6242 95.1422 80.484 95.6 82.3204L117.817 171.429C118.275 173.266 120.135 174.383 121.971 173.925L262.285 138.941C264.121 138.483 265.238 136.624 264.781 134.787L242.563 45.6783C242.105 43.842 240.246 42.7245 238.409 43.1823Z" fill="white"/><path fill-rule="evenodd" clip-rule="evenodd" d="M146.293 88.7519C148.681 88.1567 151.098 89.6094 151.694 91.9966L152.771 96.319C153.138 97.7881 152.244 99.2759 150.774 99.6422L147.45 100.471C145.98 100.837 144.493 99.9435 144.126 98.4745L143.049 94.152C142.453 91.7648 143.906 89.3471 146.293 88.7519Z" fill="#A66640"/><path fill-rule="evenodd" clip-rule="evenodd" d="M155.603 87.8435L196.5 77.6467C199.621 76.8684 202.783 78.7681 203.561 81.8899C204.34 85.0116 202.44 88.1733 199.318 88.9516L163.741 97.822C160.803 98.5545 157.827 96.7666 157.095 93.8284L155.603 87.8435Z" stroke="#D8D8D8" stroke-width="1.3707"/><path fill-rule="evenodd" clip-rule="evenodd" d="M165.179 89.4244L166.134 93.2574C166.226 93.6247 166.002 93.9966 165.635 94.0882C165.532 94.1139 165.424 94.1153 165.32 94.0921L162.347 93.4295C161.608 93.2648 161.143 92.5323 161.308 91.7935C161.372 91.504 161.529 91.2432 161.754 91.0504L164.068 89.0696C164.356 88.8235 164.788 88.857 165.034 89.1446C165.104 89.2254 165.153 89.3212 165.179 89.4244Z" fill="#47D7FF"/><path fill-rule="evenodd" clip-rule="evenodd" d="M168.992 104.719L169.948 108.552C170.039 108.919 169.816 109.291 169.449 109.383C169.345 109.408 169.238 109.41 169.134 109.387L166.161 108.724C165.422 108.559 164.956 107.827 165.121 107.088C165.186 106.799 165.342 106.538 165.568 106.345L167.882 104.364C168.169 104.118 168.602 104.152 168.848 104.439C168.917 104.52 168.966 104.616 168.992 104.719Z" fill="#47D7FF"/><path fill-rule="evenodd" clip-rule="evenodd" d="M159.416 103.139L188.343 95.9262C191.465 95.1479 194.626 97.0476 195.405 100.169C196.183 103.291 194.283 106.453 191.162 107.231L167.554 113.117C164.616 113.85 161.641 112.062 160.908 109.123L159.416 103.139Z" stroke="#D8D8D8" stroke-width="1.3707"/><path d="M208.613 110.649L152.753 124.577C151.651 124.851 150.981 125.967 151.256 127.069L152.085 130.394C152.359 131.496 153.475 132.166 154.577 131.892L210.436 117.964C211.538 117.69 212.209 116.574 211.934 115.472L211.105 112.147C210.83 111.045 209.714 110.375 208.613 110.649Z" fill="#BBF2FF" stroke="#47D7FF" stroke-width="1.3707"/><path d="M211.1 120.625L155.241 134.552C154.139 134.827 153.468 135.942 153.743 137.044L154.572 140.369C154.847 141.471 155.963 142.141 157.064 141.867L212.924 127.939C214.026 127.665 214.696 126.549 214.421 125.447L213.592 122.122C213.318 121.02 212.202 120.35 211.1 120.625Z" stroke="#D8D8D8" stroke-width="1.3707"/><path d="M213.587 130.599L157.727 144.527C156.626 144.801 155.955 145.917 156.23 147.019L157.059 150.344C157.334 151.446 158.449 152.116 159.551 151.842L215.411 137.914C216.512 137.64 217.183 136.524 216.908 135.422L216.079 132.097C215.804 130.995 214.689 130.325 213.587 130.599Z" stroke="#D8D8D8" stroke-width="1.3707"/><path fill-rule="evenodd" clip-rule="evenodd" d="M149.109 104.295L153.099 103.301C153.834 103.117 154.578 103.564 154.761 104.299L155.839 108.621C155.976 109.172 155.641 109.73 155.09 109.868L148.44 111.526C147.889 111.663 147.331 111.328 147.194 110.777L146.613 108.449C146.156 106.613 147.273 104.753 149.109 104.295Z" fill="#FFCE8E"/><path fill-rule="evenodd" clip-rule="evenodd" d="M148.277 106.622L152.932 105.462C154.033 105.187 155.149 105.857 155.424 106.959L156.17 109.952C156.765 112.339 155.313 114.757 152.925 115.352C150.538 115.947 148.12 114.494 147.525 112.107L146.779 109.115C146.504 108.013 147.175 106.897 148.277 106.622Z" fill="#E79B7E"/><path d="M156.254 108.871L146.944 111.192C146.393 111.33 146.058 111.888 146.195 112.439C146.332 112.99 146.89 113.325 147.441 113.187L156.751 110.866C157.302 110.729 157.637 110.171 157.5 109.62C157.363 109.069 156.805 108.734 156.254 108.871Z" fill="#E79B7E"/><path d="M152.441 93.5761L143.131 95.8974C142.58 96.0347 142.245 96.5926 142.382 97.1435C142.519 97.6944 143.077 98.0297 143.628 97.8923L152.938 95.5711C153.489 95.4338 153.824 94.8758 153.687 94.3249C153.55 93.774 152.992 93.4388 152.441 93.5761Z" fill="#A66640"/><path d="M147.704 92.9914C147.475 92.0732 146.545 91.5145 145.627 91.7434C144.708 91.9723 144.15 92.9022 144.379 93.8204C144.608 94.7386 145.537 95.2973 146.456 95.0684C147.374 94.8395 147.932 93.9096 147.704 92.9914Z" fill="white"/><path d="M150.363 92.3281C150.135 91.4099 149.205 90.8512 148.287 91.0801C147.368 91.309 146.81 92.2389 147.039 93.1571C147.267 94.0752 148.197 94.634 149.116 94.4051C150.034 94.1761 150.592 93.2462 150.363 92.3281Z" fill="white"/><path d="M148.951 92.3275C148.859 91.9602 148.487 91.7367 148.12 91.8283C147.753 91.9198 147.529 92.2918 147.621 92.6591C147.712 93.0263 148.084 93.2498 148.452 93.1583C148.819 93.0667 149.042 92.6947 148.951 92.3275Z" fill="#4B4B4B"/><path d="M146.291 92.9908C146.199 92.6235 145.827 92.4 145.46 92.4916C145.093 92.5832 144.869 92.9551 144.961 93.3224C145.052 93.6897 145.424 93.9132 145.792 93.8216C146.159 93.73 146.382 93.3581 146.291 92.9908Z" fill="#4B4B4B"/><path d="M238.243 42.5174L97.9299 77.5014C96.0936 77.9593 94.9761 79.8191 95.434 81.6554L117.983 172.094C118.441 173.931 120.301 175.048 122.137 174.59L262.45 139.606C264.287 139.148 265.404 137.289 264.946 135.452L242.397 45.0133C241.939 43.177 240.08 42.0595 238.243 42.5174Z" stroke="#4B4B4B" stroke-width="6.8535"/><path d="M116.46 83.8297L224.345 56.931" stroke="#D8D8D8" stroke-width="3.42675" stroke-linecap="round"/><path d="M116.46 83.8297L204.395 61.905" stroke="#58CC02" stroke-width="3.42675" stroke-linecap="round"/><path d="M150.133 111.457C151.324 111.989 152.725 111.64 153.527 110.611" stroke="white" stroke-width="2.05605" stroke-linecap="round"/><path d="M146.32 96.1618C146.895 97.0139 148.052 97.2382 148.904 96.6627C149.36 96.3551 149.656 95.862 149.714 95.3155" stroke="#774426" stroke-width="0.68535" stroke-linecap="round"/><path d="M148.971 109.628C148.955 109.026 149.43 108.526 150.031 108.51C150.455 108.499 150.846 108.734 151.035 109.113" stroke="#BB6C4E" stroke-width="0.68535" stroke-linecap="round"/><path d="M151.63 108.965C151.615 108.363 152.09 107.862 152.691 107.847C153.114 107.836 153.506 108.071 153.695 108.45" stroke="#BB6C4E" stroke-width="0.68535" stroke-linecap="round"/><path fill-rule="evenodd" clip-rule="evenodd" d="M242.952 103.071H403.851C408.204 103.071 411.733 106.6 411.733 110.953C411.733 111.495 411.677 112.036 411.566 112.566L387.631 227.02C386.867 230.672 383.648 233.288 379.917 233.288H219.018C214.665 233.288 211.136 229.759 211.136 225.406C211.136 224.864 211.192 224.324 211.303 223.793L235.238 109.34C236.001 105.688 239.221 103.071 242.952 103.071Z" fill="white"/><path fill-rule="evenodd" clip-rule="evenodd" d="M226.27 184.585H388.533C390.047 184.585 391.274 185.812 391.274 187.326C391.274 187.548 391.247 187.769 391.194 187.985L381.855 225.722C381.552 226.946 380.454 227.805 379.194 227.805H216.932C215.418 227.805 214.19 226.578 214.19 225.064C214.19 224.842 214.217 224.621 214.27 224.405L223.609 186.667C223.912 185.444 225.01 184.585 226.27 184.585Z" fill="#BDFD6C"/><path fill-rule="evenodd" clip-rule="evenodd" d="M403.852 108.897H242.953C242.466 108.897 242.013 109.068 241.656 109.357C241.299 109.647 241.04 110.056 240.94 110.532L217.005 224.986C216.976 225.124 216.962 225.265 216.962 225.406C216.962 225.974 217.192 226.488 217.564 226.86C217.936 227.232 218.45 227.462 219.018 227.462H379.917C380.403 227.462 380.857 227.292 381.213 227.002C381.57 226.712 381.83 226.304 381.929 225.827L405.864 111.374C405.893 111.235 405.908 111.094 405.908 110.953C405.908 110.385 405.677 109.871 405.305 109.499C404.933 109.127 404.419 108.897 403.852 108.897Z" stroke="#777777" stroke-width="11.6509"/><path fill-rule="evenodd" clip-rule="evenodd" d="M326.627 195.594H365.543C367.057 195.594 368.284 196.821 368.284 198.335C368.284 198.546 368.259 198.757 368.211 198.963L366.76 205.131C366.468 206.369 365.363 207.245 364.091 207.245H325.176C323.662 207.245 322.435 206.017 322.435 204.503C322.435 204.292 322.459 204.081 322.507 203.875L323.959 197.707C324.25 196.469 325.355 195.594 326.627 195.594Z" fill="#89E219"/><path fill-rule="evenodd" clip-rule="evenodd" d="M317.042 140.08H355.963C357.477 140.08 358.704 141.307 358.704 142.821C358.704 143.029 358.681 143.236 358.634 143.438L357.843 146.865C357.556 148.108 356.449 148.99 355.172 148.99H316.251C314.737 148.99 313.51 147.762 313.51 146.248C313.51 146.041 313.533 145.834 313.58 145.632L314.371 142.205C314.658 140.961 315.765 140.08 317.042 140.08Z" stroke="#D8D8D8" stroke-width="2.05605"/><path fill-rule="evenodd" clip-rule="evenodd" d="M310.874 166.124H349.795C351.309 166.124 352.536 167.351 352.536 168.865C352.536 169.072 352.513 169.279 352.466 169.481L351.675 172.908C351.388 174.152 350.28 175.033 349.004 175.033H310.083C308.569 175.033 307.342 173.806 307.342 172.292C307.342 172.084 307.365 171.877 307.412 171.675L308.203 168.249C308.49 167.005 309.597 166.124 310.874 166.124Z" stroke="#D8D8D8" stroke-width="2.05605"/><path fill-rule="evenodd" clip-rule="evenodd" d="M313.615 153.102H352.536C354.05 153.102 355.278 154.329 355.278 155.843C355.278 156.051 355.254 156.258 355.207 156.46L354.417 159.887C354.13 161.13 353.022 162.011 351.745 162.011H312.825C311.31 162.011 310.083 160.784 310.083 159.27C310.083 159.063 310.107 158.856 310.153 158.654L310.944 155.227C311.231 153.983 312.339 153.102 313.615 153.102Z" fill="#BBF2FF" stroke="#47D7FF" stroke-width="2.05605"/><path fill-rule="evenodd" clip-rule="evenodd" d="M272.552 140.765H304.65C306.164 140.765 307.392 141.993 307.392 143.507C307.392 143.691 307.373 143.875 307.336 144.055L301.602 172.154C301.341 173.431 300.218 174.348 298.916 174.348H266.817C265.303 174.348 264.076 173.12 264.076 171.606C264.076 171.422 264.094 171.238 264.131 171.058L269.866 142.959C270.126 141.682 271.249 140.765 272.552 140.765Z" stroke="#D8D8D8" stroke-width="2.05605"/><path d="M266.202 201.419C266.202 194.795 260.832 189.425 254.208 189.425C247.584 189.425 242.214 194.795 242.214 201.419C242.214 208.043 247.584 213.412 254.208 213.412C260.832 213.412 266.202 208.043 266.202 201.419Z" fill="white"/><path fill-rule="evenodd" clip-rule="evenodd" d="M404.544 104.442H242.455C241.075 104.442 239.79 104.926 238.779 105.748C237.769 106.569 237.033 107.729 236.752 109.079L212.621 224.904C212.54 225.294 212.499 225.693 212.499 226.092C212.499 227.7 213.151 229.157 214.205 230.211C215.259 231.265 216.716 231.917 218.324 231.917H380.414C381.794 231.917 383.079 231.433 384.089 230.612C385.1 229.79 385.836 228.631 386.117 227.28L410.247 111.456C410.328 111.065 410.369 110.667 410.369 110.268C410.369 108.659 409.717 107.203 408.663 106.148C407.609 105.094 406.153 104.442 404.544 104.442Z" stroke="#AFAFAF" stroke-width="4.1121"/><path fill-rule="evenodd" clip-rule="evenodd" d="M157.573 218.21H386.823V226.091C386.823 230.444 383.294 233.973 378.941 233.973H157.573C153.221 233.973 149.692 230.444 149.692 226.091C149.692 221.739 153.221 218.21 157.573 218.21Z" fill="#AFAFAF"/><path d="M248.394 201.617L251.873 205.637L259.469 199.207" stroke="#89E219" stroke-width="3.42675" stroke-linecap="round" stroke-linejoin="round"/><path d="M271.684 195.594H298.009" stroke="#89E219" stroke-width="3.42675" stroke-linecap="round"/><path d="M271.684 202.447H285.391" stroke="#89E219" stroke-width="3.42675" stroke-linecap="round"/><path d="M262.775 122.386H382.025" stroke="#D8D8D8" stroke-width="3.42675" stroke-linecap="round"/><path d="M262.775 122.386H299.783" stroke="#58CC02" stroke-width="3.42675" stroke-linecap="round"/><path d="M287.884 148.99L285.049 163.039" stroke="#979797" stroke-width="2.05605" stroke-linecap="round"/><path d="M287.198 153.787H292.23" stroke="#979797" stroke-width="2.05605" stroke-linecap="round"/><path fill-rule="evenodd" clip-rule="evenodd" d="M282.225 159.361L285.634 160.595L285.38 162.512C285.131 164.388 283.409 165.708 281.532 165.459C281.524 165.458 281.515 165.457 281.506 165.455L280.185 165.27C278.6 165.047 277.496 163.582 277.719 161.997C277.743 161.821 277.784 161.648 277.84 161.48C278.437 159.698 280.366 158.737 282.148 159.334C282.173 159.343 282.199 159.352 282.225 159.361Z" fill="white" stroke="#979797" stroke-width="2.05605"/><path d="M290.448 162.911C288.56 161.814 286.581 160.913 284.512 160.208" stroke="#979797" stroke-width="2.05605" stroke-linecap="round"/><path d="M382.849 102.618C385.052 91.2857 377.651 80.3132 366.318 78.1104C354.986 75.9076 344.014 83.3086 341.811 94.641L337.495 116.842C335.293 128.174 342.694 139.147 354.026 141.35C365.358 143.552 376.331 136.151 378.534 124.819L382.849 102.618Z" fill="#4B4B4B"/><path d="M372.253 106.842C374.456 95.5096 367.055 84.5372 355.723 82.3344C344.39 80.1316 333.418 87.5326 331.215 98.865L329.254 108.956C327.051 120.289 334.452 131.261 345.784 133.464C357.117 135.667 368.089 128.266 370.292 116.933L372.253 106.842Z" fill="#303030"/><path d="M362.058 114.989C347.716 92.0378 354.696 61.8063 377.647 47.465" stroke="#303030" stroke-width="13.707" stroke-linecap="round"/><path d="M324.308 48.9399C320.97 35.5531 307.412 27.4067 294.025 30.7444C280.638 34.0821 272.492 47.64 275.83 61.0268C279.167 74.4136 292.725 82.56 306.112 79.2223C319.499 75.8846 327.645 62.3267 324.308 48.9399Z" fill="#FF4B4B"/><path d="M310.077 52.4882C308.698 46.9608 303.1 43.5972 297.573 44.9753C292.046 46.3535 288.682 51.9514 290.06 57.4788C291.438 63.0061 297.036 66.3697 302.564 64.9916C308.091 63.6135 311.455 58.0155 310.077 52.4882Z" fill="white"/><path fill-rule="evenodd" clip-rule="evenodd" d="M311.665 89.9082L318.984 68.3847L289.06 75.8457L305.627 91.4137C307.116 92.8134 309.459 92.7405 310.858 91.251C311.22 90.8661 311.495 90.4082 311.665 89.9082Z" fill="#FF4B4B"/><path d="M488.509 44.8411C488.883 45.0751 489.175 45.4181 489.347 45.8238L504.404 81.2955C504.869 82.3897 504.358 83.6532 503.264 84.1177C502.858 84.2899 502.41 84.3334 501.978 84.2424L485.22 80.7052L482.024 82.0616C479.369 83.1886 476.303 81.9499 475.176 79.2948L470.571 68.447C469.444 65.7919 470.683 62.7259 473.338 61.5988L476.235 60.3692L485.542 45.5216C486.174 44.5144 487.502 44.2097 488.509 44.8411ZM503.761 37.9512C512.486 38.4574 520.225 43.7437 523.657 51.8292C527.098 59.9369 525.507 69.2029 519.775 75.8332C518.831 76.9242 517.182 77.044 516.091 76.1007C515 75.1575 514.881 73.5084 515.824 72.4174C520.272 67.2723 521.501 60.1168 518.849 53.8699C516.205 47.6401 510.229 43.5579 503.458 43.1651C502.019 43.0816 500.919 41.8467 501.003 40.4069C501.086 38.9671 502.321 37.8677 503.761 37.9512ZM502.403 49.7274C506.745 49.9793 510.604 52.6152 512.317 56.651C514.035 60.6978 513.241 65.3182 510.389 68.6172C509.446 69.7082 507.796 69.828 506.705 68.8848C505.614 67.9416 505.495 66.2925 506.438 65.2015C508.006 63.3876 508.437 60.8777 507.509 58.6917C506.584 56.5116 504.488 55.0798 502.101 54.9413C500.661 54.8578 499.562 53.6229 499.645 52.1831C499.729 50.7433 500.964 49.6439 502.403 49.7274Z" fill="#1CB0F6"/><path d="M86.2419 37.6889L93.6823 46.2481C95.731 48.6048 95.4812 52.1761 93.1245 54.2247L32.5879 106.848C32.2925 107.105 31.9391 107.286 31.5581 107.376L10.6916 112.292C10.0429 112.445 9.39326 112.043 9.24044 111.395C9.18446 111.157 9.20187 110.908 9.29038 110.68L17.0628 90.7011C17.2047 90.3363 17.4333 90.0115 17.7286 89.7548L78.2652 37.1311C80.622 35.0824 84.1932 35.3322 86.2419 37.6889Z" fill="#FFD300"/><mask id="mask2" mask-type="alpha" maskUnits="userSpaceOnUse" x="2" y="33" width="96" height="88"><path d="M86.2419 37.6889L93.6823 46.2481C95.731 48.6048 95.4812 52.1761 93.1245 54.2247L32.5879 106.848C32.2925 107.105 31.9391 107.286 31.5581 107.376L10.6916 112.292C10.0429 112.445 9.39326 112.043 9.24044 111.395C9.18446 111.157 9.20187 110.908 9.29038 110.68L17.0628 90.7011C17.2047 90.3363 17.4333 90.0115 17.7286 89.7548L78.2652 37.1311C80.622 35.0824 84.1932 35.3322 86.2419 37.6889Z" fill="white"/></mask><g mask="url(#mask2)"><path d="M101.102 51.2779L82.2938 29.6412C81.8566 29.1383 81.0945 29.085 80.5916 29.5221L63.8734 44.055C63.3705 44.4922 63.3172 45.2543 63.7544 45.7572L82.5629 67.394C83.0001 67.8969 83.7622 67.9502 84.2651 67.513L100.983 52.9801C101.486 52.543 101.54 51.7809 101.102 51.2779Z" fill="#F5A4A4"/></g><mask id="mask3" mask-type="alpha" maskUnits="userSpaceOnUse" x="2" y="33" width="96" height="88"><path d="M86.2419 37.6889L93.6823 46.2481C95.731 48.6048 95.4812 52.1761 93.1245 54.2247L32.5879 106.848C32.2925 107.105 31.9391 107.286 31.5581 107.376L10.6916 112.292C10.0429 112.445 9.39326 112.043 9.24044 111.395C9.18446 111.157 9.20187 110.908 9.29038 110.68L17.0628 90.7011C17.2047 90.3363 17.4333 90.0115 17.7286 89.7548L78.2652 37.1311C80.622 35.0824 84.1932 35.3322 86.2419 37.6889Z" fill="white"/></mask><g mask="url(#mask3)"><path d="M88.0439 35.9553L95.6499 44.705C96.9634 46.216 96.8033 48.5055 95.2923 49.819L94.8173 50.2319C93.3063 51.5454 91.0167 51.3853 89.7033 49.8743L82.0973 41.1247C80.7839 39.6137 80.944 37.3241 82.4549 36.0107L82.93 35.5977C84.4409 34.2843 86.7305 34.4444 88.0439 35.9553Z" fill="#F39393"/></g><mask id="mask4" mask-type="alpha" maskUnits="userSpaceOnUse" x="2" y="33" width="96" height="88"><path d="M86.2419 37.6889L93.6823 46.2481C95.731 48.6048 95.4812 52.1761 93.1245 54.2247L32.5879 106.848C32.2925 107.105 31.9391 107.286 31.5581 107.376L10.6916 112.292C10.0429 112.445 9.39326 112.043 9.24044 111.395C9.18446 111.157 9.20187 110.908 9.29038 110.68L17.0628 90.7011C17.2047 90.3363 17.4333 90.0115 17.7286 89.7548L78.2652 37.1311C80.622 35.0824 84.1932 35.3322 86.2419 37.6889Z" fill="white"/></mask><g mask="url(#mask4)"><path d="M34.1328 109.494L15.3243 87.8568C14.8871 87.3539 14.125 87.3006 13.6221 87.7378L4.19336 95.934C3.69044 96.3712 3.63715 97.1333 4.07433 97.6362L22.8829 119.273C23.3201 119.776 24.0822 119.829 24.5851 119.392L34.0138 111.196C34.5167 110.759 34.57 109.996 34.1328 109.494Z" fill="#FFD7B2"/></g><mask id="mask5" mask-type="alpha" maskUnits="userSpaceOnUse" x="2" y="33" width="96" height="88"><path d="M86.2419 37.6889L93.6823 46.2481C95.731 48.6048 95.4812 52.1761 93.1245 54.2247L32.5879 106.848C32.2925 107.105 31.9391 107.286 31.5581 107.376L10.6916 112.292C10.0429 112.445 9.39326 112.043 9.24044 111.395C9.18446 111.157 9.20187 110.908 9.29038 110.68L17.0628 90.7011C17.2047 90.3363 17.4333 90.0115 17.7286 89.7548L78.2652 37.1311C80.622 35.0824 84.1932 35.3322 86.2419 37.6889Z" fill="white"/></mask><g mask="url(#mask5)"><path d="M23.8819 118.405L5.07333 96.7678C4.63614 96.2649 3.87404 96.2116 3.37111 96.6488L-2.57951 101.822C-3.08243 102.259 -3.13572 103.021 -2.69854 103.524L16.11 125.161C16.5472 125.663 17.3093 125.717 17.8122 125.28L23.7628 120.107C24.2658 119.67 24.3191 118.907 23.8819 118.405Z" fill="#606060"/></g><mask id="mask6" mask-type="alpha" maskUnits="userSpaceOnUse" x="2" y="33" width="96" height="88"><path d="M86.2419 37.6889L93.6823 46.2481C95.731 48.6048 95.4812 52.1761 93.1245 54.2247L32.5879 106.848C32.2925 107.105 31.9391 107.286 31.5581 107.376L10.6916 112.292C10.0429 112.445 9.39326 112.043 9.24044 111.395C9.18446 111.157 9.20187 110.908 9.29038 110.68L17.0628 90.7011C17.2047 90.3363 17.4333 90.0115 17.7286 89.7548L78.2652 37.1311C80.622 35.0824 84.1932 35.3322 86.2419 37.6889Z" fill="white"/></mask><g mask="url(#mask6)"><path d="M60.1499 67.8839L34.3077 90.3482" stroke="#FFC000" stroke-width="3.01646" stroke-linecap="round"/></g><path d="M72.0394 43.7112L85.7423 59.4746C86.5213 60.3707 86.2633 61.8704 85.166 62.8243C84.0687 63.7782 82.5477 63.825 81.7687 62.9288L68.0657 47.1654C67.2867 46.2693 67.5448 44.7696 68.6421 43.8157C69.7394 42.8619 71.2604 42.815 72.0394 43.7112Z" fill="#C4C4C4"/><path d="M65.0057 49.8255L78.7086 65.5889C79.4876 66.485 79.2296 67.9847 78.1323 68.9386C77.035 69.8925 75.514 69.9393 74.735 69.0432L61.032 53.2797C60.253 52.3836 60.5111 50.8839 61.6084 49.93C62.7057 48.9762 64.2267 48.9294 65.0057 49.8255Z" fill="#C4C4C4"/><path d="M68.5225 46.7682L82.2255 62.5316C83.0045 63.4277 82.7464 64.9274 81.6491 65.8813C80.5518 66.8352 79.0308 66.882 78.2518 65.9859L64.5489 50.2224C63.7699 49.3263 64.0279 47.8266 65.1252 46.8727C66.2225 45.9189 67.7436 45.8721 68.5225 46.7682Z" fill="#C4C4C4"/><path d="M73.5588 48.6883L75.9301 51.4162" stroke="#DFDFDF" stroke-width="3.01646" stroke-linecap="round"/><path d="M70.042 51.7454L72.4133 54.4732" stroke="#DFDFDF" stroke-width="3.01646" stroke-linecap="round"/><path d="M66.5249 54.8024L68.8962 57.5302" stroke="#DFDFDF" stroke-width="3.01646" stroke-linecap="round"/></svg>