<svg width="690" height="268" viewBox="0 0 690 268" fill="none" xmlns="http://www.w3.org/2000/svg">
    <mask id="path-1-inside-1" fill="white">
        <path fill-rule="evenodd" clip-rule="evenodd" d="M541.313 0C533.615 0 527.374 6.24087 527.374 13.9394V64.7601L509.02 78.5253C506.341 80.5346 507.762 84.798 511.111 84.798H527.374V115C527.374 122.699 533.615 128.939 541.313 128.939H676.061C683.759 128.939 690 122.699 690 115V13.9394C690 6.24088 683.759 0 676.061 0H541.313Z" />
    </mask>
    <path fill-rule="evenodd" clip-rule="evenodd" d="M541.313 0C533.615 0 527.374 6.24087 527.374 13.9394V64.7601L509.02 78.5253C506.341 80.5346 507.762 84.798 511.111 84.798H527.374V115C527.374 122.699 533.615 128.939 541.313 128.939H676.061C683.759 128.939 690 122.699 690 115V13.9394C690 6.24088 683.759 0 676.061 0H541.313Z" fill="white" />
    <path d="M527.374 64.7601L528.768 66.6187L529.697 65.9217V64.7601H527.374ZM509.02 78.5253L510.414 80.3838H510.414L509.02 78.5253ZM527.374 84.798H529.697V82.4747H527.374V84.798ZM529.697 13.9394C529.697 7.52396 534.898 2.32323 541.313 2.32323V-2.32323C532.332 -2.32323 525.051 4.95778 525.051 13.9394H529.697ZM529.697 64.7601V13.9394H525.051V64.7601H529.697ZM510.414 80.3838L528.768 66.6187L525.98 62.9015L507.626 76.6667L510.414 80.3838ZM511.111 82.4747C509.995 82.4747 509.521 81.0536 510.414 80.3838L507.626 76.6667C503.161 80.0156 505.53 87.1212 511.111 87.1212V82.4747ZM527.374 82.4747H511.111V87.1212H527.374V82.4747ZM529.697 115V84.798H525.051V115H529.697ZM541.313 126.616C534.898 126.616 529.697 121.415 529.697 115H525.051C525.051 123.982 532.332 131.263 541.313 131.263V126.616ZM676.061 126.616H541.313V131.263H676.061V126.616ZM687.677 115C687.677 121.415 682.476 126.616 676.061 126.616V131.263C685.042 131.263 692.323 123.982 692.323 115H687.677ZM687.677 13.9394V115H692.323V13.9394H687.677ZM676.061 2.32323C682.476 2.32323 687.677 7.52396 687.677 13.9394H692.323C692.323 4.9578 685.042 -2.32323 676.061 -2.32323V2.32323ZM541.313 2.32323H676.061V-2.32323H541.313V2.32323Z" fill="#DEDEDE" mask="url(#path-1-inside-1)" />
    <mask id="path-3-inside-2" fill="white">
        <path fill-rule="evenodd" clip-rule="evenodd" d="M148.687 0.198975C156.385 0.198975 162.626 6.43985 162.626 14.1384V64.7601L180.98 78.5253C183.659 80.5347 182.238 84.798 178.889 84.798H162.626V115.199C162.626 122.897 156.385 129.138 148.687 129.138H13.9393C6.24075 129.138 -0.000137329 122.897 -0.000137329 115.199V14.1384C-0.000137329 6.43985 6.24072 0.198975 13.9392 0.198975H148.687Z" />
    </mask>
    <path fill-rule="evenodd" clip-rule="evenodd" d="M148.687 0.198975C156.385 0.198975 162.626 6.43985 162.626 14.1384V64.7601L180.98 78.5253C183.659 80.5347 182.238 84.798 178.889 84.798H162.626V115.199C162.626 122.897 156.385 129.138 148.687 129.138H13.9393C6.24075 129.138 -0.000137329 122.897 -0.000137329 115.199V14.1384C-0.000137329 6.43985 6.24072 0.198975 13.9392 0.198975H148.687Z" fill="white" />
    <path d="M162.626 64.7601L161.232 66.6187L160.303 65.9218V64.7601H162.626ZM180.98 78.5253L179.586 80.3839H179.586L180.98 78.5253ZM162.626 84.798H160.303V82.4748H162.626V84.798ZM160.303 14.1384C160.303 7.72293 155.102 2.52221 148.687 2.52221V-2.12426C157.668 -2.12426 164.949 5.15676 164.949 14.1384H160.303ZM160.303 64.7601V14.1384H164.949V64.7601H160.303ZM179.586 80.3839L161.232 66.6187L164.02 62.9016L182.374 76.6667L179.586 80.3839ZM178.889 82.4748C180.005 82.4748 180.479 81.0537 179.586 80.3839L182.374 76.6667C186.839 80.0157 184.47 87.1213 178.889 87.1213V82.4748ZM162.626 82.4748H178.889V87.1213H162.626V82.4748ZM160.303 115.199V84.798H164.949V115.199H160.303ZM148.687 126.815C155.102 126.815 160.303 121.614 160.303 115.199H164.949C164.949 124.181 157.668 131.462 148.687 131.462V126.815ZM13.9393 126.815H148.687V131.462H13.9393V126.815ZM2.32309 115.199C2.32309 121.614 7.52383 126.815 13.9393 126.815V131.462C4.95767 131.462 -2.32336 124.181 -2.32336 115.199H2.32309ZM2.32309 14.1384V115.199H-2.32336V14.1384H2.32309ZM13.9392 2.52221C7.52382 2.52221 2.32309 7.72294 2.32309 14.1384H-2.32336C-2.32336 5.15677 4.95763 -2.12426 13.9392 -2.12426V2.52221ZM148.687 2.52221H13.9392V-2.12426H148.687V2.52221Z" fill="#DEDEDE" mask="url(#path-3-inside-2)" />
    <rect x="403.081" y="254.394" width="23.2323" height="12.7778" rx="3.48485" fill="#9B5E2C" />
    <path d="M393.788 266.01C393.788 259.595 398.989 254.394 405.404 254.394C411.82 254.394 417.02 259.595 417.02 266.01V267.172H393.788V266.01Z" fill="#AB6832" />
    <rect x="391.465" y="263.687" width="27.8788" height="3.48485" rx="1.74242" fill="#9B5E2C" />
    <rect width="23.2323" height="12.7778" rx="3.48485" transform="matrix(-1 0 0 1 450.707 254.394)" fill="#9B5E2C" />
    <path d="M460 266.01C460 259.595 454.799 254.394 448.384 254.394C441.969 254.394 436.768 259.595 436.768 266.01V267.172H460V266.01Z" fill="#AB6832" />
    <rect width="27.8788" height="3.48485" rx="1.74242" transform="matrix(-1 0 0 1 462.323 263.687)" fill="#9B5E2C" />
    <path fill-rule="evenodd" clip-rule="evenodd" d="M443.008 38.3185H430.148C418.736 38.3185 409.485 47.5696 409.485 58.9813V77.7009C409.485 89.1126 418.736 98.3637 430.148 98.3637H439.83C451.241 98.3637 460.492 89.1126 460.492 77.7009V55.8024C460.492 46.1463 452.664 38.3185 443.008 38.3185Z" fill="#3C2A18" />
    <path fill-rule="evenodd" clip-rule="evenodd" d="M426.362 44.6818H413.502C403.845 44.6818 396.018 52.5097 396.018 62.1657V77.3741C396.018 88.7859 405.269 98.0369 416.68 98.0369H426.362C437.774 98.0369 447.025 88.7859 447.025 77.3741V65.3447C447.025 53.9329 437.774 44.6818 426.362 44.6818Z" fill="#3C2A18" />
    <path fill-rule="evenodd" clip-rule="evenodd" d="M429.129 56.5424C428.654 55.3137 428.058 54.1143 427.336 52.9593C422.377 45.023 412.939 41.4931 403.914 43.3724L409.28 51.9601L429.129 56.5424Z" fill="#3C2A18" />
    <path fill-rule="evenodd" clip-rule="evenodd" d="M429.129 56.5426C428.654 55.3138 428.058 54.1144 427.336 52.9594C422.377 45.0232 412.939 41.4932 403.914 43.3725L409.28 51.9602L429.129 56.5426Z" stroke="#3C2A18" stroke-width="1.7854" stroke-linecap="round" stroke-linejoin="round" />
    <path fill-rule="evenodd" clip-rule="evenodd" d="M409.386 48.4115C409.86 47.1827 410.457 45.9833 411.178 44.8283C416.137 36.8921 425.575 33.3621 434.6 35.2414L429.234 43.8291L409.386 48.4115Z" fill="#3C2A18" />
    <path fill-rule="evenodd" clip-rule="evenodd" d="M409.386 48.4115C409.86 47.1827 410.457 45.9833 411.178 44.8283C416.137 36.8921 425.575 33.3621 434.6 35.2414L429.234 43.8291L409.386 48.4115Z" stroke="#3C2A18" stroke-width="1.7854" stroke-linecap="round" stroke-linejoin="round" />
    <path fill-rule="evenodd" clip-rule="evenodd" d="M473.625 183.084L473.624 183.084C471.529 184.152 470.695 186.716 471.763 188.812L478.174 201.394C479.242 203.49 481.806 204.323 483.902 203.255L483.903 203.255C485.999 202.187 486.832 199.623 485.764 197.527L479.353 184.945C478.285 182.849 475.721 182.016 473.625 183.084Z" fill="#CE7354" />
    <path fill-rule="evenodd" clip-rule="evenodd" d="M476.013 192.515L481.066 198.126C482.639 199.874 485.333 200.015 487.081 198.441C488.829 196.867 488.97 194.174 487.396 192.426L477.984 181.973L472.226 174.96C472.102 174.809 471.971 174.666 471.834 174.53L453.326 130.928L439.387 136.845L443.222 145.88L443.219 145.881L458.546 181.99L459.648 190.354L460.245 196.035C460.491 198.374 462.587 200.071 464.926 199.825C467.266 199.579 468.963 197.484 468.717 195.144L468.704 195.019C468.639 193.067 469.384 191.718 470.94 190.972C472.463 190.242 474.154 190.756 476.013 192.515Z" fill="#D98F76" />
    <path fill-rule="evenodd" clip-rule="evenodd" d="M455.234 170.824L466.511 165.804C467.689 165.279 469.069 165.809 469.593 166.987L472.596 173.732C473.121 174.91 472.591 176.29 471.413 176.815L460.137 181.835C458.959 182.36 457.579 181.83 457.054 180.652L454.051 173.907C453.527 172.729 454.056 171.349 455.234 170.824Z" fill="#D33131" />
    <path fill-rule="evenodd" clip-rule="evenodd" d="M444.468 129.896C449.498 127.761 455.306 130.108 457.441 135.137L472.518 170.657C473.022 171.844 472.468 173.215 471.281 173.718L457.365 179.625C456.178 180.129 454.808 179.575 454.304 178.389L439.227 142.869C437.092 137.839 439.438 132.031 444.468 129.896Z" fill="#F43D3D" />
    <path fill-rule="evenodd" clip-rule="evenodd" d="M420.571 122.83L420.572 122.831C424.03 127.101 423.371 133.365 419.102 136.823L395.054 156.296C390.785 159.754 384.52 159.095 381.063 154.825L381.062 154.825C377.604 150.555 378.263 144.29 382.532 140.833L406.58 121.36C410.85 117.902 417.114 118.561 420.571 122.83Z" fill="#F43D3D" />
    <path fill-rule="evenodd" clip-rule="evenodd" d="M363.732 119.864C360.879 122.524 360.587 126.944 363.065 129.957L383.561 154.876C385.848 157.657 389.958 158.058 392.74 155.77C392.844 155.684 392.946 155.595 393.045 155.503C395.897 152.842 396.19 148.422 393.712 145.41L373.216 120.491C370.928 117.709 366.818 117.309 364.037 119.597C363.932 119.683 363.831 119.772 363.732 119.864Z" fill="#D98F76" />
    <path fill-rule="evenodd" clip-rule="evenodd" d="M382.973 132.006L374.714 141.179C373.952 142.025 372.648 142.094 371.802 141.332L369.754 139.488C368.908 138.726 368.839 137.422 369.601 136.576L377.861 127.403C378.623 126.557 379.926 126.489 380.773 127.251L382.82 129.094C383.666 129.856 383.735 131.16 382.973 132.006Z" fill="#D33131" />
    <path fill-rule="evenodd" clip-rule="evenodd" d="M381.314 128.249L370.864 139.855C370.18 140.616 370.156 141.763 370.809 142.551L381.331 155.245C384.343 158.879 389.732 159.384 393.366 156.371C393.686 156.106 393.986 155.818 394.263 155.51L394.313 155.455C398.086 151.264 398.216 144.94 394.617 140.598L384.434 128.313C383.707 127.436 382.408 127.315 381.531 128.042C381.454 128.105 381.381 128.175 381.314 128.249Z" fill="#F43D3D" />
    <path fill-rule="evenodd" clip-rule="evenodd" d="M371.791 112.91C371.914 113.063 372.03 113.225 372.137 113.396L373.883 116.19L375.148 112.318C375.834 110.218 378.091 109.07 380.192 109.752C382.059 110.359 383.08 112.364 382.474 114.23C382.431 114.363 382.38 114.493 382.322 114.619L378.028 123.934C377.946 124.113 377.85 124.281 377.742 124.438C377.615 125.437 377.179 126.399 376.449 127.171L372.339 131.518C369.332 134.699 364.316 134.84 361.136 131.833C360.741 131.46 360.385 131.047 360.075 130.601L356.302 125.178C356.264 125.164 356.227 125.148 356.19 125.132L347.99 121.583C346.087 120.76 345.212 118.549 346.035 116.646C346.067 116.574 346.1 116.503 346.136 116.432C347.077 114.585 349.338 113.85 351.186 114.791C351.256 114.827 351.325 114.865 351.393 114.905L356.179 117.735C356.352 117.572 356.54 117.42 356.741 117.28C356.807 117.234 356.873 117.19 356.942 117.147L357.455 116.826L348.086 109.119C346.455 107.778 346.22 105.368 347.562 103.737C347.598 103.693 347.635 103.65 347.673 103.607C349.086 102.038 351.504 101.911 353.073 103.324C353.116 103.363 353.157 103.402 353.198 103.442L363.166 113.258L364.116 112.664L357.657 103.825C356.446 102.167 356.808 99.8401 358.466 98.6284C358.539 98.5754 358.613 98.525 358.689 98.4774C360.511 97.3393 362.909 97.8932 364.047 99.7144C364.067 99.7451 364.085 99.776 364.104 99.8073L371.791 112.91Z" fill="#D98F76" />
    <path fill-rule="evenodd" clip-rule="evenodd" d="M444.022 184.308H431.133C430.353 184.308 429.721 184.92 429.721 185.675V253.628C429.721 254.383 430.353 254.995 431.133 254.995H444.022C444.802 254.995 445.434 254.383 445.434 253.628V185.675C445.434 184.92 444.802 184.308 444.022 184.308Z" fill="#777777" />
    <path fill-rule="evenodd" clip-rule="evenodd" d="M410.256 184.454H423.144C423.924 184.454 424.556 185.066 424.556 185.821V253.521C424.556 254.276 423.924 254.889 423.144 254.889H410.256C409.476 254.889 408.843 254.276 408.843 253.521V185.821C408.843 185.066 409.476 184.454 410.256 184.454Z" fill="#777777" />
    <path fill-rule="evenodd" clip-rule="evenodd" d="M443.528 164.358H411.551C407.846 164.358 404.843 167.362 404.843 171.067V181.013C404.843 184.718 407.846 187.722 411.551 187.722H443.528C447.233 187.722 450.236 184.718 450.236 181.013V171.067C450.236 167.362 447.233 164.358 443.528 164.358Z" fill="#777777" />
    <path fill-rule="evenodd" clip-rule="evenodd" d="M427.574 112.765C410.51 112.765 396.678 126.598 396.678 143.661V171.405C396.678 173.213 398.143 174.678 399.951 174.678H455.197C457.005 174.678 458.47 173.213 458.47 171.405V143.661C458.47 126.598 444.637 112.765 427.574 112.765Z" fill="#F0F0F0" />
    <path fill-rule="evenodd" clip-rule="evenodd" d="M401.324 174.677H446.854V167.11H401.324V174.677Z" fill="#AFAFAF" />
    <path fill-rule="evenodd" clip-rule="evenodd" d="M459.156 141.594C459.156 128.332 448.405 117.581 435.143 117.581V171.929C435.143 173.447 436.373 174.678 437.892 174.678H454.51C457.076 174.678 459.156 172.598 459.156 170.031V141.594ZM420.048 117.581C406.786 117.581 396.034 128.332 396.034 141.594V170.031C396.034 172.598 398.115 174.678 400.681 174.678H417.299C418.817 174.678 420.048 173.447 420.048 171.929V117.581Z" fill="#F43D3D" />
    <path fill-rule="evenodd" clip-rule="evenodd" d="M443.319 106.549C435.208 108.944 429.862 110.062 427.279 109.904C424.481 110.06 419.349 108.977 411.883 106.655C409.944 106.051 407.882 107.134 407.279 109.074C407.169 109.428 407.113 109.796 407.113 110.166V115.817C407.113 117.848 408.76 119.495 410.791 119.495H444.36C446.391 119.495 448.038 117.848 448.038 115.817V110.076C448.038 108.045 446.391 106.398 444.36 106.398C444.008 106.398 443.657 106.449 443.319 106.549Z" fill="#D33131" />
    <path fill-rule="evenodd" clip-rule="evenodd" d="M427.576 104.607C423.809 104.607 420.755 107.661 420.755 111.428V118.034C420.755 121.801 423.809 124.854 427.576 124.854C431.342 124.854 434.396 121.801 434.396 118.034V111.428C434.396 107.661 431.342 104.607 427.576 104.607Z" fill="#D98F76" />
    <path fill-rule="evenodd" clip-rule="evenodd" d="M400.293 91.6971C395.215 91.6971 391.099 87.5645 391.099 82.4666C391.099 77.3688 395.215 73.2362 400.293 73.2362C405.37 73.2362 409.486 77.3688 409.486 82.4666C409.486 87.5645 405.37 91.6971 400.293 91.6971Z" fill="#CE7354" />
    <path fill-rule="evenodd" clip-rule="evenodd" d="M446.258 82.4667C446.258 87.5644 450.374 91.6969 455.451 91.6969C460.528 91.6969 464.644 87.5644 464.644 82.4667C464.644 77.3689 460.528 73.2365 455.451 73.2365C450.374 73.2365 446.258 77.3689 446.258 82.4667Z" fill="#CE7354" />
    <path fill-rule="evenodd" clip-rule="evenodd" d="M409.812 104.19C412.96 109.712 418.901 113.436 425.712 113.436H429.537C436.246 113.436 442.11 109.824 445.293 104.439C451.393 102.218 455.748 96.3672 455.748 89.4995V71.2654C455.748 62.487 448.632 55.3708 439.854 55.3708H415.891C407.112 55.3708 399.996 62.487 399.996 71.2654V89.4995C399.996 96.1249 404.05 101.804 409.812 104.19Z" fill="#D98F76" />
    <path fill-rule="evenodd" clip-rule="evenodd" d="M425.712 113.435C418.901 113.435 412.96 109.712 409.812 104.19C404.422 101.958 400.527 96.8455 400.046 90.7722H455.698C455.198 97.083 451.012 102.356 445.293 104.439C442.11 109.824 436.246 113.435 429.537 113.435H425.712Z" fill="#C07F67" />
    <rect x="409.716" y="62.8934" width="13.9394" height="18.5859" rx="6.9697" fill="white" />
    <rect x="431.787" y="62.8934" width="13.9394" height="18.5859" rx="6.9697" fill="white" />
    <path fill-rule="evenodd" clip-rule="evenodd" d="M437.41 66.2122C435.772 66.2122 434.445 67.5399 434.445 69.1776V75.4658C434.445 77.1036 435.772 78.4313 437.41 78.4313C439.048 78.4313 440.376 77.1036 440.376 75.4658V69.1776C440.376 67.5399 439.048 66.2122 437.41 66.2122Z" fill="#4B4B4B" />
    <path fill-rule="evenodd" clip-rule="evenodd" d="M417.663 66.2122C416.025 66.2122 414.697 67.5399 414.697 69.1776V75.4658C414.697 77.1036 416.025 78.4313 417.663 78.4313C419.301 78.4313 420.628 77.1036 420.628 75.4658V69.1776C420.628 67.5399 419.301 66.2122 417.663 66.2122Z" fill="#4B4B4B" />
    <path fill-rule="evenodd" clip-rule="evenodd" d="M422.586 79.3217L413.484 76.8828C410.499 76.083 407.625 77.1293 407.065 79.2198C406.505 81.3102 408.471 83.6533 411.456 84.4531L420.558 86.892C423.543 87.6919 426.417 86.6455 426.977 84.5551C427.537 82.4646 425.571 80.1215 422.586 79.3217Z" fill="#D98F76" />
    <path fill-rule="evenodd" clip-rule="evenodd" d="M443.195 76.1953L433.45 78.8065C430.254 79.6628 428.118 82.0518 428.678 84.1422C429.238 86.2327 432.283 87.2332 435.479 86.3769L445.224 83.7656C448.42 82.9093 450.556 80.5203 449.996 78.4299C449.436 76.3395 446.391 75.339 443.195 76.1953Z" fill="#D98F76" />
    <path fill-rule="evenodd" clip-rule="evenodd" d="M434.677 64.7959H441.489C443.281 64.7959 444.748 63.3221 444.748 61.521C444.748 59.7198 443.281 58.2461 441.489 58.2461H434.677C432.884 58.2461 431.417 59.7198 431.417 61.521C431.417 63.3221 432.884 64.7959 434.677 64.7959Z" fill="#6C4935" />
    <path fill-rule="evenodd" clip-rule="evenodd" d="M427.419 69.4366C426.027 69.4366 424.845 70.4558 424.641 71.8324L423.371 80.3788C423.004 82.8513 424.919 85.0726 427.419 85.0726C429.919 85.0726 431.834 82.8513 431.467 80.3788L430.197 71.8324C429.993 70.4558 428.811 69.4366 427.419 69.4366Z" fill="#CE7354" />
    <path fill-rule="evenodd" clip-rule="evenodd" d="M434.131 117.389L446.981 109.764C448.436 108.9 450.316 109.38 451.18 110.836C451.461 111.309 451.609 111.849 451.609 112.4V119.957C451.609 121.65 450.237 123.022 448.545 123.022H435.001C433.691 123.022 432.63 121.96 432.63 120.651V120.025C432.63 118.943 433.2 117.941 434.131 117.389Z" fill="#F43D3D" />
    <path fill-rule="evenodd" clip-rule="evenodd" d="M440.975 118.955C440.027 118.955 439.26 119.723 439.26 120.671V136.502C439.26 137.449 440.027 138.217 440.975 138.217C441.922 138.217 442.69 137.449 442.69 136.502V120.671C442.69 119.723 441.922 118.955 440.975 118.955Z" fill="white" />
    <path fill-rule="evenodd" clip-rule="evenodd" d="M421.291 117.389L408.441 109.764C406.986 108.9 405.106 109.38 404.242 110.836C403.961 111.309 403.813 111.849 403.813 112.4V119.957C403.813 121.65 405.185 123.022 406.877 123.022H420.421C421.731 123.022 422.792 121.96 422.792 120.651V120.025C422.792 118.943 422.222 117.941 421.291 117.389Z" fill="#F43D3D" />
    <path fill-rule="evenodd" clip-rule="evenodd" d="M414.215 118.955C413.268 118.955 412.5 119.723 412.5 120.671V136.502C412.5 137.449 413.268 138.217 414.215 138.217C415.163 138.217 415.931 137.449 415.931 136.502V120.671C415.931 119.723 415.163 118.955 414.215 118.955Z" fill="white" />
    <path fill-rule="evenodd" clip-rule="evenodd" d="M412.093 55.0575C413.092 56.5321 414.242 57.9308 415.544 59.2328C424.491 68.18 437.999 69.9599 449.317 64.7391L439.635 55.0575H412.093Z" fill="#3C2A18" />
    <path fill-rule="evenodd" clip-rule="evenodd" d="M412.093 55.0576C413.092 56.5321 414.242 57.9308 415.544 59.2329C424.491 68.1801 437.999 69.9599 449.317 64.7392L439.635 55.0576H412.093Z" stroke="#3C2A18" stroke-width="1.7854" stroke-linecap="round" stroke-linejoin="round" />
    <path d="M436.654 88.507C437.943 86.5575 440.513 86.0448 442.393 87.3617C444.274 88.6786 444.754 91.3265 443.465 93.2759C440.142 98.3019 435.434 100.72 429.867 100.135C427.601 99.8967 425.963 97.8063 426.209 95.4658C426.455 93.1254 428.492 91.4212 430.758 91.6594C433.217 91.9179 435.007 90.9988 436.654 88.507Z" fill="white" stroke="#C07F67" stroke-width="3.48485" />
    <path fill-rule="evenodd" clip-rule="evenodd" d="M262.703 250.806V253.525C262.703 255.315 261.635 256.934 259.987 257.641L251.532 261.267L253.601 266.072L262.703 262.169V263.475H269.942V250.806H262.703Z" fill="#FFB5A1" />
    <path fill-rule="evenodd" clip-rule="evenodd" d="M252.188 257.12C256.791 257.12 260.523 260.844 260.523 265.438V266.553H243.852V265.438C243.852 260.844 247.584 257.12 252.188 257.12Z" fill="#4C4C4C" />
    <path fill-rule="evenodd" clip-rule="evenodd" d="M268.726 261.11H254.224C252.725 261.11 251.497 262.335 251.497 263.831C251.497 265.329 252.725 266.553 254.224 266.553H268.726C270.226 266.553 271.453 265.329 271.453 263.831C271.453 262.335 270.226 261.11 268.726 261.11Z" fill="#4C4C4C" />
    <path d="M254.122 262.763C254.122 259.76 256.562 257.326 259.571 257.326C262.58 257.326 265.019 259.76 265.019 262.763" stroke="#4C4C4C" stroke-width="2.04909" stroke-linecap="round" />
    <path fill-rule="evenodd" clip-rule="evenodd" d="M271.344 264.078H244.018C243.336 264.078 242.778 264.635 242.778 265.316C242.778 265.996 243.336 266.553 244.018 266.553H271.344C272.026 266.553 272.584 265.996 272.584 265.316C272.584 264.635 272.026 264.078 271.344 264.078Z" fill="#5A6468" />
    <path fill-rule="evenodd" clip-rule="evenodd" d="M283.257 250.806V253.525C283.257 255.315 284.325 256.934 285.973 257.641L294.428 261.267L292.359 266.072L283.257 262.169V263.475H276.017V250.806H283.257Z" fill="#FFB5A1" />
    <path fill-rule="evenodd" clip-rule="evenodd" d="M293.772 257.12C289.168 257.12 285.436 260.844 285.436 265.438V266.553H302.107V265.438C302.107 260.844 298.375 257.12 293.772 257.12Z" fill="#4C4C4C" />
    <path fill-rule="evenodd" clip-rule="evenodd" d="M277.234 261.11H291.735C293.235 261.11 294.462 262.335 294.462 263.831C294.462 265.329 293.235 266.553 291.735 266.553H277.234C275.734 266.553 274.507 265.329 274.507 263.831C274.507 262.335 275.734 261.11 277.234 261.11Z" fill="#4C4C4C" />
    <path d="M291.837 262.763C291.837 259.76 289.398 257.326 286.389 257.326C283.38 257.326 280.941 259.76 280.941 262.763" stroke="#4C4C4C" stroke-width="2.04909" stroke-linecap="round" />
    <path fill-rule="evenodd" clip-rule="evenodd" d="M274.616 264.078H301.941C302.623 264.078 303.182 264.635 303.182 265.316C303.182 265.996 302.623 266.553 301.941 266.553H274.616C273.934 266.553 273.375 265.996 273.375 265.316C273.375 264.635 273.934 264.078 274.616 264.078Z" fill="#5A6468" />
    <path fill-rule="evenodd" clip-rule="evenodd" d="M272.464 48.788C290.058 48.788 305.431 60.6736 309.86 77.7012L321.839 123.759C293.197 146.313 252.834 146.313 224.192 123.759L235.469 77.8025C239.649 60.7667 254.923 48.788 272.464 48.788Z" fill="#FFE07A" />
    <path fill-rule="evenodd" clip-rule="evenodd" d="M252.442 178.844H270.376C271.132 178.844 271.745 179.456 271.745 180.212V252.741C271.745 253.497 271.132 254.109 270.376 254.109H261.676C260.987 254.109 260.406 253.597 260.319 252.914L251.084 180.385C250.989 179.635 251.519 178.95 252.269 178.854C252.326 178.847 252.384 178.844 252.442 178.844Z" fill="#FFAD09" />
    <path fill-rule="evenodd" clip-rule="evenodd" d="M292.924 178.844H274.99C274.234 178.844 273.621 179.456 273.621 180.212V252.741C273.621 253.497 274.234 254.109 274.99 254.109H283.69C284.379 254.109 284.96 253.597 285.047 252.914L294.282 180.385C294.377 179.635 293.847 178.95 293.097 178.854C293.04 178.847 292.982 178.844 292.924 178.844Z" fill="#FFAD09" />
    <path fill-rule="evenodd" clip-rule="evenodd" d="M262.954 162.998H282.034C289.529 162.998 295.605 169.074 295.605 176.57V201.701C295.605 204.532 293.31 206.827 290.479 206.827H254.509C251.678 206.827 249.383 204.532 249.383 201.701V176.57C249.383 169.074 255.459 162.998 262.954 162.998Z" fill="#FFA000" />
    <path fill-rule="evenodd" clip-rule="evenodd" d="M285.774 160.273L295.016 167.236C296.832 168.604 299.414 168.241 300.783 166.425C302.151 164.61 301.789 162.029 299.972 160.661L290.73 153.697C288.914 152.33 286.333 152.692 284.964 154.508C283.595 156.324 283.958 158.905 285.774 160.273Z" fill="#FAAC97" />
    <path fill-rule="evenodd" clip-rule="evenodd" d="M259.053 160.273L249.811 167.236C247.995 168.604 245.414 168.241 244.045 166.425C242.676 164.61 243.039 162.029 244.855 160.661L254.098 153.697C255.914 152.33 258.495 152.692 259.864 154.508C261.232 156.324 260.87 158.905 259.053 160.273Z" fill="#FAAC97" />
    <path fill-rule="evenodd" clip-rule="evenodd" d="M268.943 126.214H276.044C286.847 126.214 295.605 134.972 295.605 145.775V157.917C295.605 165.412 289.53 171.487 282.035 171.487H262.952C255.458 171.487 249.382 165.412 249.382 157.917V145.775C249.382 134.972 258.14 126.214 268.943 126.214Z" fill="#BCE9FF" />
    <path fill-rule="evenodd" clip-rule="evenodd" d="M226.367 161.374C228.746 163.837 232.672 163.906 235.135 161.527L257.582 139.85C260.045 137.472 260.114 133.546 257.735 131.083C255.356 128.619 251.431 128.551 248.967 130.93L226.521 152.606C224.057 154.985 223.989 158.91 226.367 161.374Z" fill="#FFB5A1" />
    <path fill-rule="evenodd" clip-rule="evenodd" d="M235.499 145.713L243.211 153.699C244.195 154.717 245.817 154.745 246.836 153.762L269.872 131.516C270.891 130.533 270.919 128.91 269.936 127.892L266.079 123.899C262.966 120.675 257.83 120.585 254.606 123.698L235.562 142.088C234.544 143.072 234.516 144.694 235.499 145.713Z" fill="#BCE9FF" />
    <path fill-rule="evenodd" clip-rule="evenodd" d="M237.919 140.452L247.637 150.515C248.866 151.788 248.831 153.816 247.558 155.045C246.285 156.274 244.257 156.239 243.028 154.966L233.31 144.903C232.081 143.63 232.117 141.602 233.389 140.373V140.373C234.662 139.144 236.69 139.179 237.919 140.452Z" fill="#82D9FF" />
    <path fill-rule="evenodd" clip-rule="evenodd" d="M253.799 176.748H242.119C240.243 176.748 238.722 175.229 238.722 173.353V172.832C238.722 170.956 240.243 169.436 242.119 169.436H253.799C255.675 169.436 257.195 170.956 257.195 172.832V173.353C257.195 175.229 255.675 176.748 253.799 176.748Z" fill="#FFB5A1" />
    <path fill-rule="evenodd" clip-rule="evenodd" d="M257.768 172.083H243.664C241.644 172.083 240.007 170.446 240.007 168.426C240.007 166.408 241.644 164.771 243.664 164.771H257.768C259.788 164.771 261.425 166.408 261.425 168.426C261.425 170.446 259.788 172.083 257.768 172.083Z" fill="#FFB5A1" />
    <path fill-rule="evenodd" clip-rule="evenodd" d="M256.91 166.968H246.384C244.364 166.968 242.727 165.331 242.727 163.312C242.727 161.293 244.364 159.656 246.384 159.656H256.91C258.931 159.656 260.568 161.293 260.568 163.312C260.568 165.331 258.931 166.968 256.91 166.968Z" fill="#FFB5A1" />
    <path fill-rule="evenodd" clip-rule="evenodd" d="M247.353 174.296C244.89 176.675 240.964 176.606 238.585 174.143L226.567 161.697C224.188 159.234 224.257 155.308 226.72 152.93C229.183 150.551 233.109 150.619 235.488 153.083L247.506 165.528C249.885 167.991 249.817 171.917 247.353 174.296Z" fill="#FFB5A1" />
    <path fill-rule="evenodd" clip-rule="evenodd" d="M317.94 161.374C315.561 163.837 311.636 163.906 309.172 161.527L286.726 139.85C284.262 137.472 284.194 133.546 286.573 131.083C288.952 128.619 292.877 128.551 295.34 130.93L317.787 152.606C320.25 154.985 320.319 158.91 317.94 161.374Z" fill="#FFB5A1" />
    <path fill-rule="evenodd" clip-rule="evenodd" d="M308.809 145.713L301.096 153.699C300.113 154.717 298.49 154.745 297.472 153.762L274.435 131.516C273.417 130.533 273.389 128.91 274.372 127.892L278.228 123.899C281.341 120.675 286.478 120.585 289.702 123.698L308.745 142.088C309.764 143.072 309.792 144.694 308.809 145.713Z" fill="#BCE9FF" />
    <path fill-rule="evenodd" clip-rule="evenodd" d="M306.388 140.452L296.671 150.515C295.442 151.788 295.477 153.816 296.75 155.045C298.022 156.274 300.051 156.239 301.28 154.966L310.998 144.903C312.227 143.63 312.191 141.602 310.918 140.373V140.373C309.646 139.144 307.618 139.179 306.388 140.452Z" fill="#82D9FF" />
    <path fill-rule="evenodd" clip-rule="evenodd" d="M290.509 176.748H302.189C304.065 176.748 305.586 175.229 305.586 173.353V172.832C305.586 170.956 304.065 169.436 302.189 169.436H290.509C288.633 169.436 287.113 170.956 287.113 172.832V173.353C287.113 175.229 288.633 176.748 290.509 176.748Z" fill="#FFB5A1" />
    <path fill-rule="evenodd" clip-rule="evenodd" d="M286.54 172.083H300.644C302.664 172.083 304.301 170.446 304.301 168.426C304.301 166.408 302.664 164.771 300.644 164.771H286.54C284.52 164.771 282.883 166.408 282.883 168.426C282.883 170.446 284.52 172.083 286.54 172.083Z" fill="#FFB5A1" />
    <path fill-rule="evenodd" clip-rule="evenodd" d="M287.398 166.968H297.924C299.943 166.968 301.581 165.331 301.581 163.312C301.581 161.293 299.943 159.656 297.924 159.656H287.398C285.377 159.656 283.74 161.293 283.74 163.312C283.74 165.331 285.377 166.968 287.398 166.968Z" fill="#FFB5A1" />
    <path fill-rule="evenodd" clip-rule="evenodd" d="M296.955 174.296C299.418 176.675 303.344 176.606 305.722 174.143L317.741 161.697C320.12 159.234 320.051 155.308 317.588 152.93C315.124 150.551 311.199 150.619 308.82 153.083L296.802 165.528C294.423 167.991 294.491 171.917 296.955 174.296Z" fill="#FFB5A1" />
    <path fill-rule="evenodd" clip-rule="evenodd" d="M272.204 115.604H272.609C279.541 115.604 285.161 121.224 285.161 128.156V137.21C285.161 138.464 284.145 139.48 282.892 139.48C282.573 139.48 282.258 139.412 281.966 139.282L272.11 134.881L262.882 139.198C261.747 139.729 260.396 139.239 259.865 138.104C259.724 137.803 259.651 137.474 259.651 137.142V128.156C259.651 121.224 265.271 115.604 272.204 115.604Z" fill="#82D9FF" />
    <path fill-rule="evenodd" clip-rule="evenodd" d="M273.493 145.492L278.358 129.249H266.454L271.319 145.492C271.499 146.092 272.131 146.433 272.732 146.253C273.097 146.144 273.383 145.857 273.493 145.492Z" fill="#82D9FF" />
    <path fill-rule="evenodd" clip-rule="evenodd" d="M272.406 113.33C276.006 113.33 278.925 116.249 278.925 119.849V126.141C278.925 129.741 276.006 132.66 272.406 132.66C268.806 132.66 265.887 129.741 265.887 126.141V119.849C265.887 116.249 268.806 113.33 272.406 113.33Z" fill="#FF9D8A" />
    <path fill-rule="evenodd" clip-rule="evenodd" d="M300.158 100.828C305.415 100.828 309.678 96.5395 309.678 91.2491C309.678 85.9586 305.415 81.6699 300.158 81.6699C294.9 81.6699 290.638 85.9586 290.638 91.2491C290.638 96.5395 294.9 100.828 300.158 100.828Z" fill="#FF9D8A" />
    <path fill-rule="evenodd" clip-rule="evenodd" d="M254.476 91.2497C254.476 96.5398 250.214 100.828 244.956 100.828C239.699 100.828 235.437 96.5398 235.437 91.2497C235.437 85.9596 239.699 81.671 244.956 81.671C250.214 81.671 254.476 85.9596 254.476 91.2497Z" fill="#FF9D8A" />
    <path fill-rule="evenodd" clip-rule="evenodd" d="M272.593 54.9213C288.584 54.9213 301.547 67.8841 301.547 83.8745V90.4818C301.547 106.472 288.584 119.435 272.593 119.435C256.603 119.435 243.64 106.472 243.64 90.4818V83.8745C243.64 67.8841 256.603 54.9213 272.593 54.9213Z" fill="#FFB5A1" />
    <rect x="276.465" y="73.1819" width="13.9394" height="19.7475" rx="6.38889" fill="white" />
    <rect x="255.556" y="73.1819" width="13.9394" height="19.7475" rx="6.38889" fill="white" />
    <path fill-rule="evenodd" clip-rule="evenodd" d="M263.066 80.7046C264.759 80.7046 266.132 82.0772 266.132 83.7702V90.002C266.132 91.6951 264.759 93.0677 263.066 93.0677C261.373 93.0677 260 91.6951 260 90.002V83.7702C260 82.0772 261.373 80.7046 263.066 80.7046Z" fill="#4B4B4B" />
    <path fill-rule="evenodd" clip-rule="evenodd" d="M282.948 80.7046C284.641 80.7046 286.014 82.0772 286.014 83.7702V90.002C286.014 91.6951 284.641 93.0677 282.948 93.0677C281.255 93.0677 279.883 91.6951 279.883 90.002V83.7702C279.883 82.0772 281.255 80.7046 282.948 80.7046Z" fill="#4B4B4B" />
    <path d="M254.184 92.4791C260.904 92.1165 264.856 93.5066 266.041 96.6493" stroke="#FFB5A1" stroke-width="10.1595" />
    <path d="M291.732 92.4791C285.013 92.1165 281.061 93.5066 279.876 96.6493" stroke="#FFB5A1" stroke-width="10.1595" />
    <path fill-rule="evenodd" clip-rule="evenodd" d="M271.104 74.8624H274.876C275.839 74.8624 276.619 75.6428 276.619 76.6054V89.6035C276.619 90.5661 275.839 91.3465 274.876 91.3465H271.104C270.141 91.3465 269.361 90.5661 269.361 89.6035V76.6054C269.361 75.6428 270.141 74.8624 271.104 74.8624Z" fill="#FF9D8A" />
    <path d="M262.346 96.0716C265.189 98.4842 268.865 99.9386 272.879 99.9386C276.952 99.9386 280.676 98.4413 283.536 95.9651" stroke="#E58D7F" stroke-width="3.48485" stroke-linecap="round" stroke-linejoin="round" />
    <path fill-rule="evenodd" clip-rule="evenodd" d="M266.754 53.7106H279.28C293.634 53.7106 305.27 65.3466 305.27 79.7005H240.764C240.764 65.3466 252.401 53.7106 266.754 53.7106Z" fill="#FFE07A" />
</svg>