<svg width="46" height="46" viewBox="0 0 46 46" fill="none" xmlns="http://www.w3.org/2000/svg"><rect x="14.3356" width="29.533" height="29.533" rx="14.7665" transform="rotate(26.843 14.3356 0)" fill="#84D8FF"/><path d="M35.815 27.4202C39.9852 19.1801 36.7117 9.1259 28.5059 4.91498L28.42 4.87151C27.7585 4.53674 27.4936 3.7291 27.8284 3.06759C28.1631 2.40611 28.9707 2.14124 29.6322 2.47595L29.7521 2.53661C39.2561 7.42736 43.0445 19.0807 38.2105 28.6326C35.4596 34.0683 30.5066 37.657 24.9852 38.863V42.1031H27.4216C28.0945 42.1031 28.6399 42.6485 28.6399 43.3214C28.6399 43.9942 28.0945 44.5397 27.4216 44.5397H18.8936C18.2207 44.5397 17.6753 43.9942 17.6753 43.3214C17.6753 42.6485 18.2207 42.1031 18.8936 42.1031H21.3303V39.3058C18.2548 39.3855 15.1166 38.7355 12.1737 37.271L12.0537 37.2108C11.3922 36.8761 11.1273 36.0684 11.4621 35.4069C11.7968 34.7454 12.6045 34.4806 13.266 34.8153C21.5348 39 31.6303 35.6891 35.815 27.4202Z" fill="#FF9600"/><path fill-rule="evenodd" clip-rule="evenodd" d="M21.939 34.5711C19.3448 34.7666 16.6659 34.279 14.1754 33.0185C12.9784 32.4128 11.8994 31.6662 10.9485 30.8092C10.8494 30.0944 10.9605 29.343 11.313 28.6512C12.2294 26.8527 14.4303 26.1376 16.2288 27.054L20.5708 29.2664C22.3693 30.1828 23.0844 32.3836 22.168 34.1822C22.0988 34.3181 22.0222 34.4478 21.939 34.5711ZM35.367 17.1728C35.9334 20.2408 35.536 23.5124 34.0185 26.5109C33.112 28.3022 31.8902 29.8291 30.4548 31.0583L29.1899 30.4138C25.5928 28.581 24.1626 24.1792 25.9954 20.5822C27.7507 17.1371 31.8625 15.6797 35.367 17.1728ZM24.321 5.48865C26.3883 6.57048 27.2043 9.11783 26.1424 11.202C25.0733 13.3003 22.5056 14.1346 20.4073 13.0655L20.2654 12.9932C20.2119 14.0587 19.938 15.1304 19.4223 16.1425C17.4641 19.9856 12.7613 21.5136 8.91819 19.5555C7.85295 19.0127 6.96557 18.2591 6.28101 17.3713C6.52338 15.9462 6.9808 14.5328 7.66777 13.1754C10.8254 6.93606 17.8073 3.90455 24.321 5.48865Z" fill="#58CC02"/></svg>