<?xml version="1.0" encoding="utf-8"?>
<!-- Generator: Adobe Illustrator 25.0.1, SVG Export Plug-In . SVG Version: 6.00 Build 0)  -->
<svg version="1.1" id="katman_1" xmlns="http://www.w3.org/2000/svg" xmlns:xlink="http://www.w3.org/1999/xlink" x="0px" y="0px"
	 viewBox="0 0 78 62" style="enable-background:new 0 0 78 62;" xml:space="preserve">
<style type="text/css">
	.st0{fill-rule:evenodd;clip-rule:evenodd;fill:#EEEEEE;stroke:#FFFFFF;stroke-width:4;}
	.st1{fill-rule:evenodd;clip-rule:evenodd;fill:#FF4B4B;}
	.st2{fill-rule:evenodd;clip-rule:evenodd;fill:#1CB0F6;}
	.st3{fill:#FFFFFF;}
	.st4{fill-rule:evenodd;clip-rule:evenodd;fill:#FF4B4B;stroke:#FFFFFF;stroke-width:4;}
	.st5{fill-rule:evenodd;clip-rule:evenodd;fill:#FFC800;}
	.st6{fill-rule:evenodd;clip-rule:evenodd;fill:#FFFFFF;}
	.st7{fill:#EEEEEE;stroke:#FFFFFF;stroke-width:4;}
	.st8{fill:#1CB0F6;}
	.st9{fill:#FF4B4B;}
	.st10{fill:#FF4B4B;stroke:#FFFFFF;stroke-width:4;}
	.st11{fill:#FFC800;}
	.st12{fill:#4C4C4C;}
	.st13{fill:#78C800;}
	.st14{fill:#FFC300;}
	.st15{fill:#1CB0F6;stroke:#FFFFFF;stroke-width:4;}
	.st16{fill:#EEEEEE;}
	.st17{fill:#78C800;stroke:#FFFFFF;stroke-width:4;}
	.st18{fill:#FF9600;}
	.st19{fill-rule:evenodd;clip-rule:evenodd;fill:#EEEEEE;}
	.st20{fill:#4B4B4B;stroke:#FFFFFF;stroke-width:4;}
	.st21{fill:#FFC300;stroke:#FFFFFF;stroke-width:4;}
	.st22{fill:#7AC70C;}
	.st23{fill:#4B4B4B;}
	.st24{fill:#7AC70C;stroke:#FFFFFF;stroke-width:4;}
	.st25{fill-rule:evenodd;clip-rule:evenodd;fill:#1899D6;}
	.st26{fill:#1899D6;}
	.st27{fill:#FFCE8E;stroke:#FFFFFF;stroke-width:4;}
	.st28{fill:none;stroke:#FFFFFF;stroke-width:3.2;}
	.st29{fill:none;stroke:#7AC70C;stroke-width:6.4;stroke-linecap:round;stroke-linejoin:round;}
	.st30{fill:none;stroke:#FFFFFF;}
	.st31{fill-rule:evenodd;clip-rule:evenodd;fill:#7AC70C;}
	
		.st32{fill-rule:evenodd;clip-rule:evenodd;fill:#FFFFFF;stroke:#FFFFFF;stroke-width:0.7587;stroke-linecap:round;stroke-linejoin:round;}
	.st33{fill-rule:evenodd;clip-rule:evenodd;fill:#FFD300;}
	.st34{fill:#FFC800;stroke:#FFFFFF;stroke-width:4;}
	.st35{fill-rule:evenodd;clip-rule:evenodd;fill:#FF9600;}
	.st36{fill:#8EE000;}
	.st37{fill-rule:evenodd;clip-rule:evenodd;fill:#8EE000;}
	.st38{fill-rule:evenodd;clip-rule:evenodd;fill:#4B4B4B;}
	.st39{fill-rule:evenodd;clip-rule:evenodd;fill:#F48000;}
	.st40{fill:#FFC200;}
	.st41{fill-rule:evenodd;clip-rule:evenodd;fill:#FFE747;}
	.st42{fill:#C7C7C7;}
	.st43{fill:#F34848;}
	.st44{fill:#D73A3A;}
	.st45{fill:#D8D8D8;}
	.st46{fill-rule:evenodd;clip-rule:evenodd;fill:#A560E8;}
	.st47{fill-rule:evenodd;clip-rule:evenodd;fill:#8F50D8;}
	.st48{fill-rule:evenodd;clip-rule:evenodd;fill:#FFD836;}
	.st49{fill-rule:evenodd;clip-rule:evenodd;fill:#FFC715;}
	.st50{fill-rule:evenodd;clip-rule:evenodd;fill:#2788E0;}
	.st51{fill-rule:evenodd;clip-rule:evenodd;fill:#4495FF;}
	.st52{fill-rule:evenodd;clip-rule:evenodd;fill:#723A0F;}
	.st53{fill-rule:evenodd;clip-rule:evenodd;fill:#97501A;}
	.st54{fill-rule:evenodd;clip-rule:evenodd;fill:#FD937E;}
	.st55{fill:none;stroke:#97501A;stroke-width:2.3306;stroke-linecap:round;stroke-linejoin:round;}
	.st56{fill:none;stroke:#97501A;stroke-width:1.4568;stroke-linecap:round;stroke-linejoin:round;}
	.st57{fill-rule:evenodd;clip-rule:evenodd;fill:#FFB5A1;}
	.st58{fill-rule:evenodd;clip-rule:evenodd;fill:#E58D7F;}
	.st59{fill-rule:evenodd;clip-rule:evenodd;fill:#FF9D8A;}
	.st60{fill:none;stroke:#97501A;stroke-width:2;}
	.st61{fill-rule:evenodd;clip-rule:evenodd;fill:#FFB5A1;stroke:#97501A;stroke-width:3;}
	.st62{fill-rule:evenodd;clip-rule:evenodd;fill:#FFCBBD;}
	.st63{fill:#F9F9F9;}
	.st64{fill:#039CE5;}
	.st65{fill:none;stroke:#FFD300;stroke-width:2.6452;stroke-linecap:round;stroke-linejoin:round;}
	.st66{fill:none;stroke:#FFFFFF;stroke-width:4;}
	.st67{filter:url(#Adobe_OpacityMaskFilter);}
	.st68{mask:url(#mask-2_1_);fill:#EEEEEE;}
	.st69{fill:#1254A9;stroke:#FFFFFF;stroke-width:4;}
</style>
<g id="en">
	<g id="Group" transform="translate(6.000000, 6.000000)">
		<path id="Rectangle-3" class="st0" d="M55.4-400H10.6c-4.9,0-6.7,0.6-8.5,1.5c-2,1-3.5,2.6-4.5,4.5c-1,1.8-1.5,3.6-1.5,8.5v28.9
			c0,4.9,0.6,6.7,1.5,8.5c1,2,2.6,3.5,4.5,4.5c1.8,1,3.6,1.5,8.5,1.5h44.9c4.9,0,6.7-0.6,8.5-1.5c2-1,3.5-2.6,4.5-4.5
			c1-1.8,1.5-3.6,1.5-8.5v-28.9c0-4.9-0.6-6.7-1.5-8.5c-1-2-2.6-3.5-4.5-4.5C62.1-399.4,60.4-400,55.4-400z"/>
		<path id="Path" class="st1" d="M10.6-398h44.9c4.4,0,6,0.5,7.5,1.3c1.6,0.9,2.9,2.1,3.7,3.7c0.2,0.3,0.3,0.6,0.5,1H-1.2
			c0.1-0.3,0.3-0.7,0.5-1c0.9-1.6,2.1-2.9,3.7-3.7C4.6-397.5,6.2-398,10.6-398z"/>
		<path id="Path_1_" class="st1" d="M68-386c0,0.2,0,0.4,0,0.6v5.4H-2v-5.4c0-0.2,0-0.4,0-0.6H68z"/>
		<polygon id="Path_2_" class="st1" points="68,-374 68,-368 -2,-368 -2,-374 		"/>
		<path id="Path_3_" class="st1" d="M68-356.5c0,0.2,0,0.4,0,0.6H-2c0-0.2,0-0.4,0-0.6v-5.4h70V-356.5z"/>
		<path id="Path_4_" class="st1" d="M67.2-350c-0.1,0.3-0.3,0.7-0.5,1c-0.9,1.6-2.1,2.9-3.7,3.7c-1.6,0.9-3.2,1.3-7.5,1.3H10.6
			c-4.4,0-6-0.5-7.5-1.3s-2.9-2.1-3.7-3.7c-0.2-0.3-0.3-0.6-0.5-1H67.2z"/>
		<path id="Path_5_" class="st2" d="M10.6-398H33v24H-2v-11.4c0-4.4,0.5-6,1.3-7.5c0.9-1.6,2.1-2.9,3.7-3.7
			C4.6-397.5,6.2-398,10.6-398z"/>
		<path id="Star-Copy" class="st3" d="M25.8-388.4l-1.3,0.7c-0.4,0.2-0.9,0.1-1.1-0.3c-0.1-0.2-0.1-0.3-0.1-0.5l0.2-1.4
			c0-0.1,0-0.3-0.1-0.4l-1-1c-0.3-0.3-0.3-0.8,0-1.2c0.1-0.1,0.3-0.2,0.5-0.2l1.4-0.2c0.1,0,0.3-0.1,0.3-0.2l0.6-1.3
			c0.2-0.4,0.7-0.6,1.1-0.4c0.2,0.1,0.3,0.2,0.4,0.4l0.6,1.3c0.1,0.1,0.2,0.2,0.3,0.2l1.4,0.2c0.4,0.1,0.8,0.5,0.7,0.9
			c0,0.2-0.1,0.3-0.2,0.5l-1,1c-0.1,0.1-0.1,0.2-0.1,0.4l0.2,1.4c0.1,0.4-0.2,0.9-0.7,0.9c-0.2,0-0.4,0-0.5-0.1l-1.3-0.7
			C26.1-388.4,25.9-388.4,25.8-388.4z"/>
		<path id="Star-Copy-4" class="st3" d="M25.8-378.4l-1.3,0.7c-0.4,0.2-0.9,0.1-1.1-0.3c-0.1-0.2-0.1-0.3-0.1-0.5l0.2-1.4
			c0-0.1,0-0.3-0.1-0.4l-1-1c-0.3-0.3-0.3-0.8,0-1.2c0.1-0.1,0.3-0.2,0.5-0.2l1.4-0.2c0.1,0,0.3-0.1,0.3-0.2l0.6-1.3
			c0.2-0.4,0.7-0.6,1.1-0.4c0.2,0.1,0.3,0.2,0.4,0.4l0.6,1.3c0.1,0.1,0.2,0.2,0.3,0.2l1.4,0.2c0.4,0.1,0.8,0.5,0.7,0.9
			c0,0.2-0.1,0.3-0.2,0.5l-1,1c-0.1,0.1-0.1,0.2-0.1,0.4l0.2,1.4c0.1,0.4-0.2,0.9-0.7,0.9c-0.2,0-0.4,0-0.5-0.1l-1.3-0.7
			C26.1-378.4,25.9-378.4,25.8-378.4z"/>
		<path id="Star-Copy-2" class="st3" d="M15.8-388.4l-1.3,0.7c-0.4,0.2-0.9,0.1-1.1-0.3c-0.1-0.2-0.1-0.3-0.1-0.5l0.2-1.4
			c0-0.1,0-0.3-0.1-0.4l-1-1c-0.3-0.3-0.3-0.8,0-1.2c0.1-0.1,0.3-0.2,0.5-0.2l1.4-0.2c0.1,0,0.3-0.1,0.3-0.2l0.6-1.3
			c0.2-0.4,0.7-0.6,1.1-0.4c0.2,0.1,0.3,0.2,0.4,0.4l0.6,1.3c0.1,0.1,0.2,0.2,0.3,0.2l1.4,0.2c0.4,0.1,0.8,0.5,0.7,0.9
			c0,0.2-0.1,0.3-0.2,0.5l-1,1c-0.1,0.1-0.1,0.2-0.1,0.4l0.2,1.4c0.1,0.4-0.2,0.9-0.7,0.9c-0.2,0-0.4,0-0.5-0.1l-1.3-0.7
			C16.1-388.4,15.9-388.4,15.8-388.4z"/>
		<path id="Star-Copy-5" class="st3" d="M15.8-378.4l-1.3,0.7c-0.4,0.2-0.9,0.1-1.1-0.3c-0.1-0.2-0.1-0.3-0.1-0.5l0.2-1.4
			c0-0.1,0-0.3-0.1-0.4l-1-1c-0.3-0.3-0.3-0.8,0-1.2c0.1-0.1,0.3-0.2,0.5-0.2l1.4-0.2c0.1,0,0.3-0.1,0.3-0.2l0.6-1.3
			c0.2-0.4,0.7-0.6,1.1-0.4c0.2,0.1,0.3,0.2,0.4,0.4l0.6,1.3c0.1,0.1,0.2,0.2,0.3,0.2l1.4,0.2c0.4,0.1,0.8,0.5,0.7,0.9
			c0,0.2-0.1,0.3-0.2,0.5l-1,1c-0.1,0.1-0.1,0.2-0.1,0.4l0.2,1.4c0.1,0.4-0.2,0.9-0.7,0.9c-0.2,0-0.4,0-0.5-0.1l-1.3-0.7
			C16.1-378.4,15.9-378.4,15.8-378.4z"/>
		<path id="Star-Copy-3" class="st3" d="M5.8-388.4l-1.3,0.7c-0.4,0.2-0.9,0.1-1.1-0.3c-0.1-0.2-0.1-0.3-0.1-0.5l0.2-1.4
			c0-0.1,0-0.3-0.1-0.4l-1-1c-0.3-0.3-0.3-0.8,0-1.2c0.1-0.1,0.3-0.2,0.5-0.2l1.4-0.2c0.1,0,0.3-0.1,0.3-0.2l0.6-1.3
			c0.2-0.4,0.7-0.6,1.1-0.4c0.2,0.1,0.3,0.2,0.4,0.4l0.6,1.3c0.1,0.1,0.2,0.2,0.3,0.2l1.4,0.2c0.4,0.1,0.8,0.5,0.7,0.9
			c0,0.2-0.1,0.3-0.2,0.5l-1,1c-0.1,0.1-0.1,0.2-0.1,0.4l0.2,1.4c0.1,0.4-0.2,0.9-0.7,0.9c-0.2,0-0.4,0-0.5-0.1l-1.3-0.7
			C6.1-388.4,5.9-388.4,5.8-388.4z"/>
		<path id="Star-Copy-6" class="st3" d="M5.8-378.4l-1.3,0.7c-0.4,0.2-0.9,0.1-1.1-0.3c-0.1-0.2-0.1-0.3-0.1-0.5l0.2-1.4
			c0-0.1,0-0.3-0.1-0.4l-1-1c-0.3-0.3-0.3-0.8,0-1.2c0.1-0.1,0.3-0.2,0.5-0.2l1.4-0.2c0.1,0,0.3-0.1,0.3-0.2l0.6-1.3
			c0.2-0.4,0.7-0.6,1.1-0.4c0.2,0.1,0.3,0.2,0.4,0.4l0.6,1.3c0.1,0.1,0.2,0.2,0.3,0.2l1.4,0.2c0.4,0.1,0.8,0.5,0.7,0.9
			c0,0.2-0.1,0.3-0.2,0.5l-1,1c-0.1,0.1-0.1,0.2-0.1,0.4l0.2,1.4c0.1,0.4-0.2,0.9-0.7,0.9c-0.2,0-0.4,0-0.5-0.1l-1.3-0.7
			C6.1-378.4,5.9-378.4,5.8-378.4z"/>
	</g>
</g>
<g id="es">
	<g id="Group_1_" transform="translate(6.000000, 6.000000)">
		<path id="Rectangle-3_1_" class="st4" d="M55.4-334H10.6c-4.9,0-6.7,0.6-8.5,1.5c-2,1-3.5,2.6-4.5,4.5c-1,1.8-1.5,3.6-1.5,8.5
			v28.9c0,4.9,0.6,6.7,1.5,8.5c1,2,2.6,3.5,4.5,4.5c1.8,1,3.6,1.5,8.5,1.5h44.9c4.9,0,6.7-0.6,8.5-1.5c2-1,3.5-2.6,4.5-4.5
			c1-1.8,1.5-3.6,1.5-8.5v-28.9c0-4.9-0.6-6.7-1.5-8.5c-1-2-2.6-3.5-4.5-4.5C62.1-333.4,60.4-334,55.4-334z"/>
		<polygon id="Rectangle-4" class="st5" points="-2,-316.6 68,-316.6 68,-293.4 -2,-293.4 		"/>
		<path id="Rectangle-14" class="st6" d="M25.2-310.8c1.1,0,1.9,0.9,1.9,1.9v7.7c0,1.1-0.9,1.9-1.9,1.9c-1.1,0-1.9-0.9-1.9-1.9v-7.7
			C23.3-309.9,24.1-310.8,25.2-310.8z"/>
		<path id="Rectangle-14-Copy" class="st6" d="M5.8-310.8c1.1,0,1.9,0.9,1.9,1.9v7.7c0,1.1-0.9,1.9-1.9,1.9s-1.9-0.9-1.9-1.9v-7.7
			C3.8-309.9,4.7-310.8,5.8-310.8z"/>
		<path id="Rectangle-15" class="st1" d="M11.4-312.7h8.2c1,0,1.8,0.8,1.8,1.8v7.8c0,3.2-2.6,5.8-5.8,5.8s-5.8-2.6-5.8-5.8v-7.8
			C9.7-311.9,10.4-312.7,11.4-312.7z"/>
	</g>
</g>
<g id="fr">
	<g id="Group_2_" transform="translate(6.000000, 6.000000)">
		<path id="Rectangle-3_2_" class="st7" d="M55.4-268H10.6c-4.9,0-6.7,0.6-8.5,1.5c-2,1-3.5,2.6-4.5,4.5c-1,1.8-1.5,3.6-1.5,8.5
			v28.9c0,4.9,0.6,6.7,1.5,8.5c1,2,2.6,3.5,4.5,4.5c1.8,1,3.6,1.5,8.5,1.5h44.9c4.9,0,6.7-0.6,8.5-1.5c2-1,3.5-2.6,4.5-4.5
			c1-1.8,1.5-3.6,1.5-8.5v-28.9c0-4.9-0.6-6.7-1.5-8.5c-1-2-2.6-3.5-4.5-4.5C62.1-267.4,60.4-268,55.4-268z"/>
		<path id="Path_6_" class="st8" d="M21.6-266v54H10.6c-4.4,0-6-0.5-7.5-1.3s-2.9-2.1-3.7-3.7c-0.9-1.6-1.3-3.2-1.3-7.5v-28.9
			c0-4.4,0.5-6,1.3-7.5c0.9-1.6,2.1-2.9,3.7-3.7c1.6-0.9,3.2-1.3,7.5-1.3H21.6z"/>
		<path id="Path_7_" class="st9" d="M44.4-266h11.1c4.4,0,6,0.5,7.5,1.3c1.6,0.9,2.9,2.1,3.7,3.7c0.9,1.6,1.3,3.2,1.3,7.5v28.9
			c0,4.4-0.5,6-1.3,7.5c-0.9,1.6-2.1,2.9-3.7,3.7c-1.6,0.9-3.2,1.3-7.5,1.3H44.4V-266z"/>
	</g>
</g>
<g id="de">
	<g id="Group_3_" transform="translate(6.000000, 6.000000)">
		<path id="Rectangle-3_3_" class="st10" d="M55.4-202H10.6c-4.9,0-6.7,0.6-8.5,1.5c-2,1-3.5,2.6-4.5,4.5c-1,1.8-1.5,3.6-1.5,8.5
			v28.9c0,4.9,0.6,6.7,1.5,8.5c1,2,2.6,3.5,4.5,4.5c1.8,1,3.6,1.5,8.5,1.5h44.9c4.9,0,6.7-0.6,8.5-1.5c2-1,3.5-2.6,4.5-4.5
			c1-1.8,1.5-3.6,1.5-8.5v-28.9c0-4.9-0.6-6.7-1.5-8.5c-1-2-2.6-3.5-4.5-4.5C62.1-201.4,60.4-202,55.4-202z"/>
		<path id="Path_8_" class="st11" d="M68-164v5.4c0,4.4-0.5,6-1.3,7.5c-0.9,1.6-2.1,2.9-3.7,3.7c-1.6,0.9-3.2,1.3-7.5,1.3H10.6
			c-4.4,0-6-0.5-7.5-1.3s-2.9-2.1-3.7-3.7c-0.9-1.6-1.3-3.2-1.3-7.5v-5.4H68z"/>
		<path id="Path_9_" class="st12" d="M10.6-200h44.9c4.4,0,6,0.5,7.5,1.3c1.6,0.9,2.9,2.1,3.7,3.7c0.9,1.6,1.3,3.2,1.3,7.5v5.4H-2
			v-5.4c0-4.4,0.5-6,1.3-7.5c0.9-1.6,2.1-2.9,3.7-3.7C4.6-199.5,6.2-200,10.6-200z"/>
	</g>
</g>
<g id="ja">
	<g id="Group_4_" transform="translate(6.000000, 6.000000)">
		<path id="Rectangle-3_4_" class="st0" d="M55.4-136H10.6c-4.9,0-6.7,0.6-8.5,1.5c-2,1-3.5,2.6-4.5,4.5c-1,1.8-1.5,3.6-1.5,8.5
			v28.9c0,4.9,0.6,6.7,1.5,8.5c1,2,2.6,3.5,4.5,4.5c1.8,1,3.6,1.5,8.5,1.5h44.9c4.9,0,6.7-0.6,8.5-1.5c2-1,3.5-2.6,4.5-4.5
			c1-1.8,1.5-3.6,1.5-8.5v-28.9c0-4.9-0.6-6.7-1.5-8.5c-1-2-2.6-3.5-4.5-4.5C62.1-135.4,60.4-136,55.4-136z"/>
		<circle id="Oval-19" class="st9" cx="33" cy="-107" r="14"/>
	</g>
</g>
<g id="it">
	<g id="Group_5_" transform="translate(6.000000, 6.000000)">
		<path id="Rectangle-3_5_" class="st7" d="M55.4-70H10.6c-4.9,0-6.7,0.6-8.5,1.5c-2,1-3.5,2.6-4.5,4.5c-1,1.8-1.5,3.6-1.5,8.5v28.9
			c0,4.9,0.6,6.7,1.5,8.5c1,2,2.6,3.5,4.5,4.5c1.8,1,3.6,1.5,8.5,1.5h44.9c4.9,0,6.7-0.6,8.5-1.5c2-1,3.5-2.6,4.5-4.5
			c1-1.8,1.5-3.6,1.5-8.5v-28.9c0-4.9-0.6-6.7-1.5-8.5c-1-2-2.6-3.5-4.5-4.5C62.1-69.4,60.4-70,55.4-70z"/>
		<path id="Path_10_" class="st13" d="M21.6-68v54H10.6c-4.4,0-6-0.5-7.5-1.3c-1.6-0.9-2.9-2.1-3.7-3.7C-1.5-20.6-2-22.2-2-26.5
			v-28.9c0-4.4,0.5-6,1.3-7.5s2.1-2.9,3.7-3.7S6.2-68,10.6-68H21.6z"/>
		<path id="Path_11_" class="st9" d="M44.4-68h11.1c4.4,0,6,0.5,7.5,1.3c1.6,0.9,2.9,2.1,3.7,3.7s1.3,3.2,1.3,7.5v28.9
			c0,4.4-0.5,6-1.3,7.5c-0.9,1.6-2.1,2.9-3.7,3.7c-1.6,0.9-3.2,1.3-7.5,1.3H44.4V-68z"/>
	</g>
</g>
<g id="ko">
	<g id="Group_6_" transform="translate(6.000000, 6.000000)">
		<path id="Rectangle-3_6_" class="st0" d="M55.4-4H10.6C5.6-4,3.9-3.4,2.1-2.4c-2,1-3.5,2.6-4.5,4.5C-3.4,3.9-4,5.6-4,10.6v28.9
			c0,4.9,0.6,6.7,1.5,8.5c1,2,2.6,3.5,4.5,4.5c1.8,1,3.6,1.5,8.5,1.5h44.9c4.9,0,6.7-0.6,8.5-1.5c2-1,3.5-2.6,4.5-4.5
			c1-1.8,1.5-3.6,1.5-8.5V10.6c0-4.9-0.6-6.7-1.5-8.5c-1-2-2.6-3.5-4.5-4.5C62.1-3.4,60.4-4,55.4-4z"/>
		<circle id="Oval-19_1_" class="st9" cx="33" cy="25" r="13"/>
		<path id="Path_12_" class="st8" d="M20,25.5c2.2,2.3,4.4,3.5,6.6,3.5c2.2,0,4.3-1.2,6.4-3.5c2-2.3,4.1-3.5,6.3-3.5
			c2.2,0,4.4,1.1,6.6,3.2C45.9,32.3,40.1,38,33,38C26,38,20.3,32.5,20,25.5z"/>
		<path id="Path_13_" class="st12" d="M15.1,45.6l-8.8-8.8c-0.5-0.5-0.5-1.3,0-1.9c0.5-0.5,1.3-0.5,1.9,0l8.8,8.8
			c0.5,0.5,0.5,1.3,0,1.9C16.4,46.2,15.6,46.2,15.1,45.6z"/>
		<path id="Path_14_" class="st12" d="M54.5,18.5l-3.2-3.2c-0.5-0.5-0.5-1.3,0-1.9c0.5-0.5,1.3-0.5,1.9,0l3.2,3.2
			c0.5,0.5,0.5,1.3,0,1.9C55.9,19,55,19,54.5,18.5z"/>
		<path id="Path_15_" class="st12" d="M7.2,15.1c-0.5,0.5-1.3,0.5-1.9,0c-0.5-0.5-0.5-1.3,0-1.9l8.8-8.8C14.7,4,15.5,4,16,4.5
			c0.5,0.5,0.5,1.3,0,1.9L7.2,15.1z"/>
		<path id="Path_16_" class="st12" d="M48.7,12.7l-3-3c-0.5-0.5-0.5-1.3,0-1.9s1.3-0.5,1.9,0l3,3c0.5,0.5,0.5,1.3,0,1.9
			C50,13.2,49.2,13.2,48.7,12.7z"/>
		<path id="Path_17_" class="st12" d="M12.7,36.4l-3-3c-0.5-0.5-0.5-1.3,0-1.9s1.3-0.5,1.9,0l3,3c0.5,0.5,0.5,1.3,0,1.9
			C14,36.9,13.2,36.9,12.7,36.4z"/>
		<path id="Path_18_" class="st12" d="M47.5,42.2c-0.5,0.5-1.3,0.5-1.9,0c-0.5-0.5-0.5-1.3,0-1.9l8.8-8.8c0.5-0.5,1.3-0.5,1.9,0
			c0.5,0.5,0.5,1.3,0,1.9L47.5,42.2z"/>
		<path id="Path_19_" class="st12" d="M58,15l-3.2-3.2c-0.5-0.5-0.5-1.3,0-1.9c0.5-0.5,1.3-0.5,1.9,0l3.2,3.2c0.5,0.5,0.5,1.3,0,1.9
			C59.4,15.5,58.5,15.5,58,15z"/>
		<path id="Path_20_" class="st12" d="M10.7,18.6c-0.5,0.5-1.3,0.5-1.9,0c-0.5-0.5-0.5-1.3,0-1.9L17.7,8c0.5-0.5,1.3-0.5,1.9,0
			c0.5,0.5,0.5,1.3,0,1.9L10.7,18.6z"/>
		<path id="Path_21_" class="st12" d="M51,45.6c-0.5,0.5-1.3,0.5-1.9,0s-0.5-1.3,0-1.9l8.8-8.8c0.5-0.5,1.3-0.5,1.9,0
			c0.5,0.5,0.5,1.3,0,1.9L51,45.6z"/>
		<path id="Path_22_" class="st12" d="M52.2,9.2l-3-3c-0.5-0.5-0.5-1.3,0-1.9s1.3-0.5,1.9,0l3,3c0.5,0.5,0.5,1.3,0,1.9
			C53.5,9.7,52.7,9.7,52.2,9.2z"/>
		<path id="Path_23_" class="st12" d="M18.5,42.2L15.3,39c-0.5-0.5-0.5-1.3,0-1.9c0.5-0.5,1.3-0.5,1.9,0l3.2,3.2
			c0.5,0.5,0.5,1.3,0,1.9S19,42.7,18.5,42.2z"/>
	</g>
</g>
<g id="zh">
	<g id="Group-3" transform="translate(6.000000, 6.000000)">
		<path id="Rectangle-3_7_" class="st4" d="M55.4,62H10.6c-4.9,0-6.7,0.6-8.5,1.5c-2,1-3.5,2.6-4.5,4.5c-1,1.8-1.5,3.6-1.5,8.5v28.9
			c0,4.9,0.6,6.7,1.5,8.5c1,2,2.6,3.5,4.5,4.5c1.8,1,3.6,1.5,8.5,1.5h44.9c4.9,0,6.7-0.6,8.5-1.5c2-1,3.5-2.6,4.5-4.5
			c1-1.8,1.5-3.6,1.5-8.5V76.6c0-4.9-0.6-6.7-1.5-8.5c-1-2-2.6-3.5-4.5-4.5C62.1,62.6,60.4,62,55.4,62z"/>
		<g id="Group-2" transform="translate(8.000000, 4.000000)">
			<g id="Group_7_" transform="translate(14.000000, 0.000000)">
				<path id="Star-Copy_1_" class="st14" d="M1.6,71l-1.3,0.2c-0.4,0.1-0.8-0.2-0.8-0.6c0-0.2,0-0.3,0.1-0.5L0.2,69
					c0.1-0.1,0.1-0.2,0-0.3l-0.6-1.2c-0.2-0.4,0-0.8,0.3-1c0.1-0.1,0.3-0.1,0.5-0.1l1.3,0.2c0.1,0,0.2,0,0.3-0.1l0.9-0.9
					c0.3-0.3,0.8-0.3,1,0c0.1,0.1,0.2,0.3,0.2,0.4l0.2,1.3c0,0.1,0.1,0.2,0.2,0.3l1.2,0.6c0.4,0.2,0.5,0.6,0.3,1
					c-0.1,0.1-0.2,0.3-0.3,0.3l-1.2,0.6c-0.1,0.1-0.2,0.2-0.2,0.3l-0.2,1.3c-0.1,0.4-0.4,0.7-0.8,0.6c-0.2,0-0.3-0.1-0.4-0.2
					l-0.9-0.9C1.8,71,1.7,71,1.6,71z"/>
				<path id="Star-Copy_2_" class="st14" d="M10.7,77.7l-0.9,0.9c-0.3,0.3-0.7,0.3-1,0c-0.1-0.1-0.2-0.3-0.2-0.4L8.3,77
					c0-0.1-0.1-0.2-0.2-0.3l-1.2-0.6c-0.4-0.2-0.5-0.6-0.4-1c0.1-0.1,0.2-0.3,0.3-0.3l1.2-0.6c0.1-0.1,0.2-0.2,0.2-0.3l0.2-1.3
					C8.5,72.3,8.9,72,9.3,72c0.2,0,0.3,0.1,0.4,0.2l0.9,0.9c0.1,0.1,0.2,0.1,0.3,0.1l1.3-0.2c0.4-0.1,0.8,0.2,0.9,0.6
					c0,0.2,0,0.3-0.1,0.5l-0.6,1.2c-0.1,0.1-0.1,0.2,0,0.3l0.6,1.1c0.2,0.4,0.1,0.8-0.3,1c-0.1,0.1-0.3,0.1-0.5,0.1L11,77.6
					C10.9,77.6,10.8,77.6,10.7,77.7z"/>
				<path id="Star-Copy_3_" class="st14" d="M1.6,93.7l-1.3,0.2c-0.4,0.1-0.8-0.2-0.8-0.6c0-0.2,0-0.3,0.1-0.5l0.6-1.1
					c0.1-0.1,0.1-0.2,0-0.3l-0.6-1.2c-0.2-0.4,0-0.8,0.3-1c0.1-0.1,0.3-0.1,0.5-0.1l1.3,0.2c0.1,0,0.2,0,0.3-0.1l0.9-0.9
					c0.3-0.3,0.8-0.3,1,0c0.1,0.1,0.2,0.3,0.2,0.4L4.3,90c0,0.1,0.1,0.2,0.2,0.3l1.2,0.6c0.4,0.2,0.5,0.6,0.3,1
					c-0.1,0.1-0.2,0.3-0.3,0.3l-1.2,0.6c-0.1,0.1-0.2,0.2-0.2,0.3l-0.2,1.3C4,94.7,3.6,95,3.2,94.9c-0.2,0-0.3-0.1-0.4-0.2l-0.9-0.9
					C1.8,93.7,1.7,93.6,1.6,93.7z"/>
				<path id="Star-Copy_4_" class="st14" d="M9.8,87.4L8.7,88c-0.4,0.2-0.8,0.1-1-0.3c-0.1-0.1-0.1-0.3-0.1-0.5l0.2-1.3
					c0-0.1,0-0.2-0.1-0.3l-0.9-0.9c-0.3-0.3-0.3-0.8,0-1c0.1-0.1,0.3-0.2,0.4-0.2l1.3-0.2c0.1,0,0.2-0.1,0.3-0.2l0.6-1.2
					c0.2-0.4,0.6-0.5,1-0.3c0.1,0.1,0.3,0.2,0.3,0.3l0.6,1.2c0.1,0.1,0.2,0.2,0.3,0.2l1.3,0.2c0.4,0.1,0.7,0.4,0.6,0.8
					c0,0.2-0.1,0.3-0.2,0.4l-0.9,0.9c-0.1,0.1-0.1,0.2-0.1,0.3l0.2,1.3c0.1,0.4-0.2,0.8-0.6,0.9c-0.2,0-0.3,0-0.5-0.1l-1.1-0.6
					C10.1,87.3,9.9,87.3,9.8,87.4z"/>
			</g>
			<path id="Star" class="st14" d="M5.6,85.2l-2.6,1.3c-0.8,0.4-1.8,0.1-2.2-0.7c-0.2-0.3-0.2-0.7-0.2-1L1.2,82c0-0.3,0-0.5-0.2-0.7
				l-2.1-2c-0.6-0.6-0.7-1.7,0-2.3c0.3-0.3,0.6-0.4,0.9-0.5L2.6,76c0.3,0,0.5-0.2,0.6-0.5L4.5,73c0.4-0.8,1.4-1.1,2.2-0.7
				C7,72.4,7.3,72.7,7.5,73l1.3,2.6C8.9,75.8,9.1,76,9.4,76l2.9,0.4c0.9,0.1,1.5,1,1.4,1.9c-0.1,0.4-0.2,0.7-0.5,0.9l-2.1,2
				c-0.2,0.2-0.3,0.5-0.2,0.7l0.5,2.8c0.2,0.9-0.4,1.7-1.3,1.9c-0.4,0.1-0.7,0-1-0.2l-2.6-1.3C6.1,85.1,5.9,85.1,5.6,85.2z"/>
		</g>
	</g>
</g>
<g id="ru">
	<g id="Group_8_" transform="translate(6.000000, 6.000000)">
		<path id="Rectangle-3_8_" class="st15" d="M55.4,128H10.6c-4.9,0-6.7,0.6-8.5,1.5c-2,1-3.5,2.6-4.5,4.5c-1,1.8-1.5,3.6-1.5,8.5
			v28.9c0,4.9,0.6,6.7,1.5,8.5c1,2,2.6,3.5,4.5,4.5c1.8,1,3.6,1.5,8.5,1.5h44.9c4.9,0,6.7-0.6,8.5-1.5c2-1,3.5-2.6,4.5-4.5
			c1-1.8,1.5-3.6,1.5-8.5v-28.9c0-4.9-0.6-6.7-1.5-8.5c-1-2-2.6-3.5-4.5-4.5C62.1,128.6,60.4,128,55.4,128z"/>
		<path id="Path_24_" class="st9" d="M68,166v5.4c0,4.4-0.5,6-1.3,7.5c-0.9,1.6-2.1,2.9-3.7,3.7c-1.6,0.9-3.2,1.3-7.5,1.3H10.6
			c-4.4,0-6-0.5-7.5-1.3s-2.9-2.1-3.7-3.7c-0.9-1.6-1.3-3.2-1.3-7.5V166H68z"/>
		<path id="Path_25_" class="st16" d="M10.6,130h44.9c4.4,0,6,0.5,7.5,1.3c1.6,0.9,2.9,2.1,3.7,3.7c0.9,1.6,1.3,3.2,1.3,7.5v5.4H-2
			v-5.4c0-4.4,0.5-6,1.3-7.5c0.9-1.6,2.1-2.9,3.7-3.7C4.6,130.5,6.2,130,10.6,130z"/>
	</g>
</g>
<g id="pt-copy">
	<g id="Group_9_" transform="translate(6.000000, 2.000000)">
		<path id="Rectangle-3_9_" class="st17" d="M55.4,198H10.6c-4.9,0-6.7,0.6-8.5,1.5c-2,1-3.5,2.6-4.5,4.5c-1,1.8-1.5,3.6-1.5,8.5
			v28.9c0,4.9,0.6,6.7,1.5,8.5c1,2,2.6,3.5,4.5,4.5c1.8,1,3.6,1.5,8.5,1.5h44.9c4.9,0,6.7-0.6,8.5-1.5c2-1,3.5-2.6,4.5-4.5
			c1-1.8,1.5-3.6,1.5-8.5v-28.9c0-4.9-0.6-6.7-1.5-8.5c-1-2-2.6-3.5-4.5-4.5C62.1,198.6,60.4,198,55.4,198z"/>
		<path id="Rectangle" class="st5" d="M4.1,226.4l27.7-20.2c0.7-0.5,1.7-0.5,2.4,0l27.7,20.2c0.9,0.7,1.1,1.9,0.4,2.8
			c-0.1,0.2-0.3,0.3-0.4,0.4l-27.7,20.1c-0.7,0.5-1.6,0.5-2.3,0L4.1,229.6c-0.9-0.6-1.1-1.9-0.4-2.8C3.8,226.7,3.9,226.5,4.1,226.4z
			"/>
		<circle id="Mask" class="st2" cx="33" cy="228" r="12"/>
		<path id="Path_26_" class="st6" d="M21,227.2c0.1-1.5,0.5-3,1.1-4.3l22.8,5.7c-0.1,1.5-0.4,3-1,4.4L21,227.2z"/>
	</g>
</g>
<g id="tr">
	<g id="Group_10_" transform="translate(6.000000, 6.000000)">
		<path id="Rectangle-3_10_" class="st4" d="M55.4,260H10.6c-4.9,0-6.7,0.6-8.5,1.5c-2,1-3.5,2.6-4.5,4.5c-1,1.8-1.5,3.6-1.5,8.5
			v28.7c0,4.9,0.6,6.7,1.5,8.5c1,2,2.6,3.5,4.5,4.5c1.8,1,3.6,1.5,8.5,1.5h44.9c4.9,0,6.7-0.6,8.5-1.5c2-1,3.5-2.6,4.5-4.5
			c1-1.8,1.5-3.6,1.5-8.5v-28.7c0-4.9-0.6-6.7-1.5-8.5c-1-2-2.6-3.5-4.5-4.5C62.1,260.6,60.4,260,55.4,260z"/>
		<path id="Path_27_" class="st3" d="M40.3,277.3c-0.9-0.2-1.6-0.3-2.3-0.3c-6.6,0-12,5.4-12,12c0,6.6,5.4,12,12,12
			c0.7,0,1.4-0.1,2.3-0.3l0,0c0.5-0.1,1.1,0.2,1.2,0.7c0.1,0.4-0.1,0.8-0.4,1.1c-2.4,1.7-5.5,2.5-9.1,2.5c-8.8,0-16-7.2-16-16
			c0-8.8,7.2-16,16-16c3.7,0,6.7,0.8,9.1,2.5l0,0c0.5,0.3,0.6,0.9,0.2,1.4C41.1,277.3,40.7,277.5,40.3,277.3z"/>
		<path id="Star-2" class="st3" d="M45.8,293.9l-1.7,1.6c-0.6,0.5-1.4,0.5-2-0.1c-0.2-0.2-0.3-0.5-0.4-0.8l-0.2-2.3
			c0-0.3-0.2-0.6-0.5-0.8l-2-1.1c-0.7-0.4-0.9-1.2-0.5-1.9c0.2-0.3,0.4-0.5,0.7-0.6l2.1-0.9c0.3-0.1,0.5-0.4,0.6-0.7l0.4-2.3
			c0.1-0.8,0.9-1.2,1.6-1.1c0.3,0.1,0.6,0.2,0.8,0.5l1.5,1.7c0.2,0.2,0.5,0.4,0.9,0.3l2.3-0.3c0.8-0.1,1.5,0.5,1.6,1.2
			c0,0.3,0,0.6-0.2,0.9l-1.2,2c-0.2,0.3-0.2,0.6,0,0.9l1,2.1c0.3,0.7,0,1.5-0.7,1.8c-0.3,0.1-0.6,0.2-0.9,0.1l-2.2-0.5
			C46.3,293.6,46,293.7,45.8,293.9z"/>
	</g>
</g>
<g id="nl">
	<g id="Group_11_" transform="translate(6.000000, 6.000000)">
		<path id="Rectangle-3_11_" class="st7" d="M55.4,326H10.6c-4.9,0-6.7,0.6-8.5,1.5c-2,1-3.5,2.6-4.5,4.5c-1,1.8-1.5,3.6-1.5,8.5
			v28.9c0,4.9,0.6,6.7,1.5,8.5c1,2,2.6,3.5,4.5,4.5c1.8,1,3.6,1.5,8.5,1.5h44.9c4.9,0,6.7-0.6,8.5-1.5c2-1,3.5-2.6,4.5-4.5
			c1-1.8,1.5-3.6,1.5-8.5v-28.9c0-4.9-0.6-6.7-1.5-8.5c-1-2-2.6-3.5-4.5-4.5C62.1,326.6,60.4,326,55.4,326z"/>
		<path id="Path_28_" class="st8" d="M68,364v5.4c0,4.4-0.5,6-1.3,7.5c-0.9,1.6-2.1,2.9-3.7,3.7c-1.6,0.9-3.2,1.3-7.5,1.3H10.6
			c-4.4,0-6-0.5-7.5-1.3s-2.9-2.1-3.7-3.7c-0.9-1.6-1.3-3.2-1.3-7.5V364H68z"/>
		<path id="Path_29_" class="st9" d="M10.6,328h44.9c4.4,0,6,0.5,7.5,1.3c1.6,0.9,2.9,2.1,3.7,3.7c0.9,1.6,1.3,3.2,1.3,7.5v5.4H-2
			v-5.4c0-4.4,0.5-6,1.3-7.5c0.9-1.6,2.1-2.9,3.7-3.7C4.6,328.5,6.2,328,10.6,328z"/>
	</g>
</g>
<g id="sv">
	<g id="Group-10" transform="translate(6.000000, 6.000000)">
		<path id="Rectangle-3_12_" class="st15" d="M55.4,392H10.6c-4.9,0-6.7,0.6-8.5,1.5c-2,1-3.5,2.6-4.5,4.5c-1,1.8-1.5,3.6-1.5,8.5
			v28.9c0,4.9,0.6,6.7,1.5,8.5c1,2,2.6,3.5,4.5,4.5c1.8,1,3.6,1.5,8.5,1.5h44.9c4.9,0,6.7-0.6,8.5-1.5c2-1,3.5-2.6,4.5-4.5
			c1-1.8,1.5-3.6,1.5-8.5v-28.9c0-4.9-0.6-6.7-1.5-8.5c-1-2-2.6-3.5-4.5-4.5C62.1,392.6,60.4,392,55.4,392z"/>
		<path id="Combined-Shape" class="st11" d="M27,394v20l41,0v14l-41,0v20H13v-20l-15,0v-14l15,0v-20H27z"/>
	</g>
</g>
<g id="ga">
	<g id="Group_12_" transform="translate(6.000000, 6.000000)">
		<path id="Rectangle-3_13_" class="st7" d="M55.4,458H10.6c-4.9,0-6.7,0.6-8.5,1.5c-2,1-3.5,2.6-4.5,4.5c-1,1.8-1.5,3.6-1.5,8.5
			v28.9c0,4.9,0.6,6.7,1.5,8.5c1,2,2.6,3.5,4.5,4.5c1.8,1,3.6,1.5,8.5,1.5h44.9c4.9,0,6.7-0.6,8.5-1.5c2-1,3.5-2.6,4.5-4.5
			c1-1.8,1.5-3.6,1.5-8.5v-28.9c0-4.9-0.6-6.7-1.5-8.5c-1-2-2.6-3.5-4.5-4.5C62.1,458.6,60.4,458,55.4,458z"/>
		<path id="Path_30_" class="st13" d="M21.6,460v54H10.6c-4.4,0-6-0.5-7.5-1.3c-1.6-0.9-2.9-2.1-3.7-3.7c-0.9-1.6-1.3-3.2-1.3-7.5
			v-28.9c0-4.4,0.5-6,1.3-7.5c0.9-1.6,2.1-2.9,3.7-3.7c1.6-0.9,3.2-1.3,7.5-1.3H21.6z"/>
		<path id="Path_31_" class="st18" d="M44.4,460h11.1c4.4,0,6,0.5,7.5,1.3c1.6,0.9,2.9,2.1,3.7,3.7c0.9,1.6,1.3,3.2,1.3,7.5v28.9
			c0,4.4-0.5,6-1.3,7.5c-0.9,1.6-2.1,2.9-3.7,3.7c-1.6,0.9-3.2,1.3-7.5,1.3H44.4V460z"/>
	</g>
</g>
<g id="el">
	<g id="Group_13_" transform="translate(6.000000, 6.000000)">
		<path id="Rectangle-3_14_" class="st7" d="M55.4,524H10.6c-4.9,0-6.7,0.6-8.5,1.5c-2,1-3.5,2.6-4.5,4.5c-1,1.8-1.5,3.6-1.5,8.5
			v28.9c0,4.9,0.6,6.7,1.5,8.5c1,2,2.6,3.5,4.5,4.5c1.8,1,3.6,1.5,8.5,1.5h44.9c4.9,0,6.7-0.6,8.5-1.5c2-1,3.5-2.6,4.5-4.5
			c1-1.8,1.5-3.6,1.5-8.5v-28.9c0-4.9-0.6-6.7-1.5-8.5c-1-2-2.6-3.5-4.5-4.5C62.1,524.6,60.4,524,55.4,524z"/>
		<path id="Path_32_" class="st8" d="M10.6,526H33v30H-2v-17.4c0-4.4,0.5-6,1.3-7.5s2.1-2.9,3.7-3.7C4.6,526.5,6.2,526,10.6,526z"/>
		<path id="Path_33_" class="st8" d="M55.4,526c4.4,0,6,0.5,7.5,1.3c1.6,0.9,2.9,2.1,3.7,3.7c0.2,0.3,0.3,0.6,0.5,1H25v-6H55.4z"/>
		<path id="Path_34_" class="st8" d="M68,538c0,0.2,0,0.4,0,0.6v5.4H23v-6H68L68,538z"/>
		<polygon id="Path_35_" class="st8" points="68,550 68,556 -2,556 -2,550 		"/>
		<path id="Path_36_" class="st8" d="M68,562v5.4c0,0.2,0,0.4,0,0.6H-2c0-0.2,0-0.4,0-0.6V562H68z"/>
		<path id="Path_37_" class="st8" d="M67.2,574c-0.1,0.3-0.3,0.7-0.5,1c-0.9,1.6-2.1,2.9-3.7,3.7c-1.6,0.9-3.2,1.3-7.5,1.3H10.6
			c-4.4,0-6-0.5-7.5-1.3c-1.6-0.9-2.9-2.1-3.7-3.7c-0.2-0.3-0.3-0.6-0.5-1H67.2L67.2,574z"/>
		<polygon id="Rectangle-Copy-4" class="st16" points="-2,538 33,538 33,544 -2,544 		"/>
		<polygon id="Rectangle-5" class="st16" points="12,526 18,526 18,558 12,558 		"/>
	</g>
</g>
<g id="he">
	<g id="Group_14_" transform="translate(6.000000, 6.000000)">
		<path id="Rectangle-3_15_" class="st7" d="M55.4,590H10.6c-4.9,0-6.7,0.6-8.5,1.5c-2,1-3.5,2.6-4.5,4.5c-1,1.8-1.5,3.6-1.5,8.5
			v28.9c0,4.9,0.6,6.7,1.5,8.5c1,2,2.6,3.5,4.5,4.5c1.8,1,3.6,1.5,8.5,1.5h44.9c4.9,0,6.7-0.6,8.5-1.5c2-1,3.5-2.6,4.5-4.5
			c1-1.8,1.5-3.6,1.5-8.5v-28.9c0-4.9-0.6-6.7-1.5-8.5c-1-2-2.6-3.5-4.5-4.5C62.1,590.6,60.4,590,55.4,590z"/>
		<path id="Path_38_" class="st8" d="M68,634c0,3.9-0.5,5.5-1.3,7c-0.2,0.4-0.4,0.7-0.6,1H-0.1c-0.2-0.3-0.4-0.7-0.6-1
			c-0.8-1.5-1.3-3-1.3-7H68L68,634z"/>
		<path id="Path_39_" class="st8" d="M66.1,596c0.2,0.3,0.4,0.7,0.6,1c0.8,1.5,1.3,3,1.3,7H-2c0-3.9,0.5-5.5,1.3-7
			c0.2-0.4,0.4-0.7,0.6-1H66.1L66.1,596z"/>
		<path id="Triangle" class="st8" d="M33.5,609C33.5,609,33.5,609,33.5,609C33.5,609,33.5,609,33.5,609l-9.2,14.8c0,0,0,0,0,0
			c0,0,0,0,0,0h18.4c0,0,0,0,0,0c0,0,0,0,0,0L33.5,609z M35.7,607.7l9.2,14.8c0.8,1.2,0.4,2.9-0.8,3.6c-0.4,0.3-0.9,0.4-1.4,0.4
			H24.3c-1.5,0-2.6-1.2-2.6-2.6c0-0.5,0.1-1,0.4-1.4l9.2-14.8c0.8-1.2,2.4-1.6,3.6-0.8C35.2,607,35.5,607.3,35.7,607.7z"/>
		<path id="Shape" class="st8" d="M33.5,628.7C33.5,628.7,33.5,628.7,33.5,628.7C33.5,628.7,33.5,628.7,33.5,628.7l9.2-14.8
			c0,0,0,0,0,0c0,0,0,0,0,0H24.3c0,0,0,0,0,0c0,0,0,0,0,0L33.5,628.7z M31.3,630.1l-9.2-14.8c-0.8-1.2-0.4-2.9,0.8-3.6
			c0.4-0.3,0.9-0.4,1.4-0.4h18.4c1.5,0,2.6,1.2,2.6,2.6c0,0.5-0.1,1-0.4,1.4l-9.2,14.8c-0.8,1.2-2.4,1.6-3.6,0.8
			C31.8,630.7,31.5,630.4,31.3,630.1z"/>
	</g>
</g>
<g id="pl">
	<g id="Group_15_" transform="translate(6.000000, 6.000000)">
		<path id="Rectangle-3_16_" class="st7" d="M55.4,656H10.6c-4.9,0-6.7,0.6-8.5,1.5c-2,1-3.5,2.6-4.5,4.5c-1,1.8-1.5,3.6-1.5,8.5
			v28.9c0,4.9,0.6,6.7,1.5,8.5c1,2,2.6,3.5,4.5,4.5c1.8,1,3.6,1.5,8.5,1.5h44.9c4.9,0,6.7-0.6,8.5-1.5c2-1,3.5-2.6,4.5-4.5
			c1-1.8,1.5-3.6,1.5-8.5v-28.9c0-4.9-0.6-6.7-1.5-8.5c-1-2-2.6-3.5-4.5-4.5C62.1,656.6,60.4,656,55.4,656z"/>
		<path id="Path_40_" class="st9" d="M68,685v14.4c0,4.4-0.5,6-1.3,7.5s-2.1,2.9-3.7,3.7c-1.6,0.9-3.2,1.3-7.5,1.3H10.6
			c-4.4,0-6-0.5-7.5-1.3c-1.6-0.9-2.9-2.1-3.7-3.7s-1.3-3.2-1.3-7.5V685H68z"/>
	</g>
</g>
<g id="no-copy">
	<g id="Group_16_" transform="translate(6.000000, 6.000000)">
		<path id="Rectangle-3_17_" class="st10" d="M55.4,722H10.6c-4.9,0-6.7,0.6-8.5,1.5c-2,1-3.5,2.6-4.5,4.5c-1,1.8-1.5,3.6-1.5,8.5
			v28.9c0,4.9,0.6,6.7,1.5,8.5c1,2,2.6,3.5,4.5,4.5c1.8,1,3.6,1.5,8.5,1.5h44.9c4.9,0,6.7-0.6,8.5-1.5c2-1,3.5-2.6,4.5-4.5
			c1-1.8,1.5-3.6,1.5-8.5v-28.9c0-4.9-0.6-6.7-1.5-8.5c-1-2-2.6-3.5-4.5-4.5C62.1,722.6,60.4,722,55.4,722z"/>
		<polygon id="Path_41_" class="st3" points="13,724 27,724 27,744 68,744 68,758 27,758 27,778 13,778 13,758 -2,758 -2,744 
			13,744 		"/>
		<polygon id="Path_42_" class="st2" points="24,747 68,747 68,755 24,755 24,778 16,778 16,755 -2,755 -2,747 16,747 16,724 
			24,724 		"/>
	</g>
</g>
<g id="vi">
	<g id="Group_17_" transform="translate(6.000000, 6.000000)">
		<path id="Rectangle-3_18_" class="st10" d="M55.4,788H10.6c-4.9,0-6.7,0.6-8.5,1.5c-2,1-3.5,2.6-4.5,4.5c-1,1.8-1.5,3.6-1.5,8.5
			v28.9c0,4.9,0.6,6.7,1.5,8.5c1,2,2.6,3.5,4.5,4.5c1.8,1,3.6,1.5,8.5,1.5h44.9c4.9,0,6.7-0.6,8.5-1.5c2-1,3.5-2.6,4.5-4.5
			c1-1.8,1.5-3.6,1.5-8.5v-28.9c0-4.9-0.6-6.7-1.5-8.5c-1-2-2.6-3.5-4.5-4.5C62.1,788.6,60.4,788,55.4,788z"/>
		<path id="Star_1_" class="st14" d="M32.5,824.8l-3.9,2.1c-1.2,0.6-2.7,0.2-3.3-1c-0.3-0.5-0.3-1-0.2-1.6l0.8-4.4
			c0.1-0.3-0.1-0.7-0.3-0.9l-3.2-3.1c-1-0.9-1-2.5,0-3.5c0.4-0.4,0.9-0.6,1.4-0.7l4.4-0.6c0.3,0,0.6-0.3,0.8-0.5l2-4
			c0.6-1.2,2.1-1.7,3.3-1.1c0.5,0.2,0.9,0.6,1.1,1.1l2,4c0.1,0.3,0.4,0.5,0.8,0.5l4.4,0.6c1.3,0.2,2.3,1.4,2.1,2.8
			c-0.1,0.5-0.3,1-0.7,1.4l-3.2,3.1c-0.2,0.2-0.3,0.6-0.3,0.9l0.8,4.4c0.2,1.3-0.7,2.6-2,2.8c-0.5,0.1-1.1,0-1.6-0.2l-3.9-2.1
			C33.2,824.6,32.8,824.6,32.5,824.8z"/>
	</g>
</g>
<g id="da">
	<g id="Group_18_" transform="translate(6.000000, 6.000000)">
		<path id="Rectangle-3_19_" class="st10" d="M55.4,854H10.6c-4.9,0-6.7,0.6-8.5,1.5c-2,1-3.5,2.6-4.5,4.5c-1,1.8-1.5,3.6-1.5,8.5
			v28.9c0,4.9,0.6,6.7,1.5,8.5c1,2,2.6,3.5,4.5,4.5c1.8,1,3.6,1.5,8.5,1.5h44.9c4.9,0,6.7-0.6,8.5-1.5c2-1,3.5-2.6,4.5-4.5
			c1-1.8,1.5-3.6,1.5-8.5v-28.9c0-4.9-0.6-6.7-1.5-8.5c-1-2-2.6-3.5-4.5-4.5C62.1,854.6,60.4,854,55.4,854z"/>
		<rect id="Rectangle_1_" x="17" y="856" class="st19" width="12" height="54"/>
		<rect id="Rectangle_2_" x="-2" y="877" class="st19" width="70" height="12"/>
	</g>
</g>
<g id="hv">
	<g id="Group_19_" transform="translate(6.000000, 6.000000)">
		<path id="Rectangle-3_20_" class="st20" d="M55.4,920H10.6c-4.9,0-6.7,0.6-8.5,1.5c-2,1-3.5,2.6-4.5,4.5c-1,1.8-1.5,3.6-1.5,8.5
			v28.9c0,4.9,0.6,6.7,1.5,8.5c1,2,2.6,3.5,4.5,4.5c1.8,1,3.6,1.5,8.5,1.5h44.9c4.9,0,6.7-0.6,8.5-1.5c2-1,3.5-2.6,4.5-4.5
			c1-1.8,1.5-3.6,1.5-8.5v-28.9c0-4.9-0.6-6.7-1.5-8.5c-1-2-2.6-3.5-4.5-4.5C62.1,920.6,60.4,920,55.4,920z"/>
		<path id="Path_43_" class="st9" d="M33.1,932l5.7-2.8c0.6-0.3,1.4,0.2,1.3,0.9l-0.4,2.9H45c9.9,0,18,8.1,18,18c0,9.9-8.1,18-18,18
			h-6.5c-1.9,0-3.5,1.6-3.5,3.5c0,1.9,1.6,3.5,3.5,3.5H48H21.3c-0.2-1.1-0.3-2.3-0.3-3.5c0-9.7,7.8-17.5,17.5-17.5H45
			c2.2,0,4-1.8,4-4c0-2.2-1.8-4-4-4h-8.7l0.6,2.1c0.1,0.6-0.3,1.1-0.8,1.1l-7.1,0.3l1.3,2c0.4,0.6,0,1.4-0.7,1.4l-10.6,0.6
			c-1.4,0.1-2.7-0.2-3.9-0.9l-2.8,1.4c-0.5,0.2-1,0-1.2-0.4c-2.4-5.1-0.8-11.1,3.8-14.3l16.8-11.9c0.6-0.4,1.4,0,1.4,0.7L33.1,932z"
			/>
		<path id="Rectangle-Copy-4_1_" class="st18" d="M11.5,960.8l-5.2,3c-0.5,0.3-1.1,0.1-1.4-0.4c-1.1-1.9-0.4-4.4,1.5-5.5
			c1.9-1.1,4.4-0.4,5.5,1.5C12.1,959.9,12,960.6,11.5,960.8z"/>
		<path id="Rectangle_3_" class="st14" d="M8.5,960l6.1-3.5c0.5-0.3,1.1-0.1,1.4,0.4c1.1,1.9,0.4,4.4-1.5,5.5l-0.9,0.5
			c-1.9,1.1-4.4,0.4-5.5-1.5C7.8,960.9,8,960.3,8.5,960z"/>
		<path id="Rectangle-Copy-5" class="st14" d="M5.5,967.1l3.5-2c0.5-0.3,1.1-0.1,1.4,0.4c0.8,1.4,0.3,3.3-1.1,4.1s-3.3,0.3-4.1-1.1
			C4.9,968,5,967.4,5.5,967.1z"/>
		<path id="Rectangle_4_" class="st14" d="M17.9,943.8l3.8-3.8c0.4-0.4,0.9-0.4,1.3,0c1.1,1.1,1.1,2.8,0,3.8l-1.3,1.3
			c-1.1,1.1-2.8,1.1-3.8,0l0,0C17.6,944.7,17.6,944.2,17.9,943.8z"/>
	</g>
</g>
<g id="ro">
	<g id="Group_20_" transform="translate(6.000000, 6.000000)">
		<path id="Rectangle-3_21_" class="st21" d="M55.4,986H10.6c-4.9,0-6.7,0.6-8.5,1.5c-2,1-3.5,2.6-4.5,4.5c-1,1.8-1.5,3.6-1.5,8.5
			v28.9c0,4.9,0.6,6.7,1.5,8.5c1,2,2.6,3.5,4.5,4.5c1.8,1,3.6,1.5,8.5,1.5h44.9c4.9,0,6.7-0.6,8.5-1.5c2-1,3.5-2.6,4.5-4.5
			c1-1.8,1.5-3.6,1.5-8.5v-28.9c0-4.9-0.6-6.7-1.5-8.5c-1-2-2.6-3.5-4.5-4.5C62.1,986.6,60.4,986,55.4,986z"/>
		<path id="Path_44_" class="st8" d="M21.6,988v54H10.6c-4.4,0-6-0.5-7.5-1.3s-2.9-2.1-3.7-3.7s-1.3-3.2-1.3-7.5v-28.9
			c0-4.4,0.5-6,1.3-7.5s2.1-2.9,3.7-3.7c1.6-0.9,3.2-1.3,7.5-1.3H21.6z"/>
		<path id="Path_45_" class="st9" d="M44.4,988h11.1c4.4,0,6,0.5,7.5,1.3c1.6,0.9,2.9,2.1,3.7,3.7s1.3,3.2,1.3,7.5v28.9
			c0,4.4-0.5,6-1.3,7.5s-2.1,2.9-3.7,3.7c-1.6,0.9-3.2,1.3-7.5,1.3H44.4V988z"/>
	</g>
</g>
<g id="sw">
	<g id="Group_21_" transform="translate(6.000000, 6.000000)">
		<path id="Rectangle-3_22_" class="st15" d="M55.4,1052H10.6c-4.9,0-6.7,0.6-8.5,1.5c-2,1-3.5,2.6-4.5,4.5c-1,1.8-1.5,3.6-1.5,8.5
			v28.9c0,4.9,0.6,6.7,1.5,8.5c1,2,2.6,3.5,4.5,4.5c1.8,1,3.6,1.5,8.5,1.5h44.9c4.9,0,6.7-0.6,8.5-1.5c2-1,3.5-2.6,4.5-4.5
			c1-1.8,1.5-3.6,1.5-8.5v-28.9c0-4.9-0.6-6.7-1.5-8.5c-1-2-2.6-3.5-4.5-4.5C62.1,1052.6,60.4,1052,55.4,1052z"/>
		<path id="Path_46_" class="st22" d="M63.4,1055.6L-1.5,1101c-0.3-1.2-0.5-2.9-0.5-5.6v-28.9c0-4.4,0.5-6,1.3-7.5s2.1-2.9,3.7-3.7
			s3.2-1.3,7.5-1.3h44.9c4.4,0,6,0.5,7.5,1.3C63.1,1055.4,63.3,1055.5,63.4,1055.6z"/>
		<path id="Path_47_" class="st14" d="M54.2,1054h1.2c4.4,0,6,0.5,7.5,1.3c1.6,0.9,2.9,2.1,3.7,3.7s1.3,3.2,1.3,7.5v2.5L12.4,1108
			h-1.9c-4.4,0-6-0.5-7.5-1.3s-2.9-2.1-3.7-3.7s-1.3-3.2-1.3-7.5v-2.1L54.2,1054L54.2,1054z"/>
		<path id="Path_48_" class="st23" d="M60.5,1054.4c1,0.2,1.7,0.5,2.5,0.9c1.6,0.9,2.9,2.1,3.7,3.7c0.7,1.3,1.1,2.5,1.2,5.2
			l-62.1,43.5c-1.2-0.2-2-0.6-2.8-1c-1.6-0.9-2.9-2.1-3.7-3.7c-0.7-1.2-1.1-2.4-1.2-4.9L60.5,1054.4L60.5,1054.4z"/>
	</g>
</g>
<g id="eo">
	<g id="Group_22_" transform="translate(6.000000, 6.000000)">
		<path id="Rectangle-3_23_" class="st24" d="M55.4,1118H10.6c-4.9,0-6.7,0.6-8.5,1.5c-2,1-3.5,2.6-4.5,4.5c-1,1.8-1.5,3.6-1.5,8.5
			v28.9c0,4.9,0.6,6.7,1.5,8.5c1,2,2.6,3.5,4.5,4.5c1.8,1,3.6,1.5,8.5,1.5h44.9c4.9,0,6.7-0.6,8.5-1.5c2-1,3.5-2.6,4.5-4.5
			c1-1.8,1.5-3.6,1.5-8.5v-28.9c0-4.9-0.6-6.7-1.5-8.5c-1-2-2.6-3.5-4.5-4.5C62.1,1118.6,60.4,1118,55.4,1118z"/>
		<path id="Path_49_" class="st16" d="M10.6,1120H33v27c0,2.2-1.8,4-4,4H-2v-18.4c0-4.4,0.5-6,1.3-7.5s2.1-2.9,3.7-3.7
			S6.2,1120,10.6,1120z"/>
		<path id="Star_2_" class="st22" d="M14.6,1142.7l-3.4,1.8c-1,0.5-2.3,0.1-2.9-0.9c-0.2-0.4-0.3-0.9-0.2-1.4l0.7-3.8
			c0-0.3,0-0.6-0.2-0.8l-2.8-2.7c-0.8-0.8-0.9-2.2,0-3c0.3-0.3,0.8-0.6,1.2-0.6l3.8-0.6c0.3,0,0.5-0.2,0.7-0.5l1.7-3.5
			c0.5-1.1,1.8-1.5,2.9-1c0.4,0.2,0.8,0.5,1,1l1.7,3.5c0.1,0.3,0.4,0.4,0.7,0.5l3.8,0.6c1.2,0.2,2,1.3,1.8,2.4
			c-0.1,0.5-0.3,0.9-0.6,1.2l-2.8,2.7c-0.2,0.2-0.3,0.5-0.2,0.8l0.7,3.8c0.2,1.2-0.6,2.3-1.7,2.5c-0.5,0.1-0.9,0-1.4-0.2l-3.4-1.8
			C15.1,1142.6,14.8,1142.6,14.6,1142.7z"/>
	</g>
</g>
<g id="hu">
	<g id="Group_23_" transform="translate(6.000000, 6.000000)">
		<path id="Rectangle-3_24_" class="st7" d="M55.4,1184H10.6c-4.9,0-6.7,0.6-8.5,1.5c-2,1-3.5,2.6-4.5,4.5c-1,1.8-1.5,3.6-1.5,8.5
			v28.9c0,4.9,0.6,6.7,1.5,8.5c1,2,2.6,3.5,4.5,4.5c1.8,1,3.6,1.5,8.5,1.5h44.9c4.9,0,6.7-0.6,8.5-1.5c2-1,3.5-2.6,4.5-4.5
			c1-1.8,1.5-3.6,1.5-8.5v-28.9c0-4.9-0.6-6.7-1.5-8.5c-1-2-2.6-3.5-4.5-4.5C62.1,1184.6,60.4,1184,55.4,1184z"/>
		<path id="Path_50_" class="st22" d="M68,1222v5.4c0,4.4-0.5,6-1.3,7.5s-2.1,2.9-3.7,3.7c-1.6,0.9-3.2,1.3-7.5,1.3H10.6
			c-4.4,0-6-0.5-7.5-1.3s-2.9-2.1-3.7-3.7s-1.3-3.2-1.3-7.5v-5.4H68z"/>
		<path id="Path_51_" class="st9" d="M10.6,1186h44.9c4.4,0,6,0.5,7.5,1.3c1.6,0.9,2.9,2.1,3.7,3.7s1.3,3.2,1.3,7.5v5.4H-2v-5.4
			c0-4.4,0.5-6,1.3-7.5s2.1-2.9,3.7-3.7S6.2,1186,10.6,1186z"/>
	</g>
</g>
<g id="cy">
	<g id="Group_24_" transform="translate(6.000000, 6.000000)">
		<path id="Rectangle-3_25_" class="st7" d="M55.4,1250H10.6c-4.9,0-6.7,0.6-8.5,1.5c-2,1-3.5,2.6-4.5,4.5c-1,1.8-1.5,3.6-1.5,8.5
			v28.9c0,4.9,0.6,6.7,1.5,8.5c1,2,2.6,3.5,4.5,4.5c1.8,1,3.6,1.5,8.5,1.5h44.9c4.9,0,6.7-0.6,8.5-1.5c2-1,3.5-2.6,4.5-4.5
			c1-1.8,1.5-3.6,1.5-8.5v-28.9c0-4.9-0.6-6.7-1.5-8.5c-1-2-2.6-3.5-4.5-4.5C62.1,1250.6,60.4,1250,55.4,1250z"/>
		<path id="Combined-Shape_1_" class="st22" d="M68,1279v14.4c0,4.4-0.5,6-1.3,7.5s-2.1,2.9-3.7,3.7c-1.6,0.9-3.2,1.3-7.5,1.3H10.6
			c-4.4,0-6-0.5-7.5-1.3s-2.9-2.1-3.7-3.7s-1.3-3.2-1.3-7.5V1279H68z"/>
		<path id="Rectangle_5_" class="st9" d="M35.2,1266h13.8c1.1,0,2,0.9,2,2c0,0.3-0.1,0.5-0.2,0.8l-3.6,8.2c-2.9,6.7-9.5,11-16.8,11
			H25c-3.9,0-7-3.1-7-7v-5l0,0l10-4v0.4c0,0.9,0.7,1.6,1.6,1.6c0.9,0,1.6-0.7,1.6-1.6v-2.4C31.2,1267.8,33,1266,35.2,1266z"/>
		<path id="Rectangle-Copy" class="st9" d="M21,1264h4c1.7,0,3,1.3,3,3v9l0,0H18v-9C18,1265.4,19.3,1264,21,1264z"/>
		<path id="Rectangle-Copy-2" class="st9" d="M16,1267h5l0,0v5H11C11,1269.3,13.2,1267,16,1267z"/>
		<path id="Rectangle-Copy-4_2_" class="st9" d="M21,1264h10c0,2.2-1.8,4-4,4h-6l0,0V1264z"/>
		<path id="Rectangle-Copy-3" class="st9" d="M17,1274c-1.7,0-3-1.8-3-4h10v4H17z"/>
		<path id="Path_52_" class="st9" d="M29,1287.9v-5h19.5c1.4,0,2.5-1.1,2.5-2.5v-3.4h5v3.4c0,4.1-3.4,7.5-7.5,7.5H29z"/>
		<path id="Triangle_1_" class="st9" d="M54.3,1273.1l4,5.7c0.3,0.5,0.2,1.1-0.3,1.4c-0.3,0.2-0.6,0.2-0.9,0.1l-3.7-1.2l0,0
			l-3.7,1.2c-0.5,0.2-1.1-0.1-1.3-0.6c-0.1-0.3,0-0.6,0.1-0.9l4-5.7c0.3-0.5,0.9-0.6,1.4-0.3C54.2,1272.9,54.3,1273,54.3,1273.1z"/>
		<path id="Path_53_" class="st9" d="M24,1290h3c2.2,0,4,1.8,4,4c0,0.6-0.4,1-1,1h-9c-0.6,0-1-0.4-1-1C20,1291.8,21.8,1290,24,1290z
			"/>
		<rect id="Rectangle_6_" x="26" y="1284" class="st9" width="5" height="10"/>
		<path id="Path_54_" class="st9" d="M16,1283.9v2c0,2.2-1.8,4-4,4c-0.6,0-1-0.4-1-1v-8c0-0.6,0.4-1,1-1
			C14.2,1279.9,16,1281.7,16,1283.9z"/>
		
			<rect id="Rectangle_7_" x="11.5" y="1282.9" transform="matrix(0.9659 -0.2588 0.2588 0.9659 -332.05 48.7224)" class="st9" width="15" height="5"/>
		<path id="Path_55_" class="st9" d="M40,1290h4c2.2,0,4,1.8,4,4c0,0.6-0.4,1-1,1H37c-0.6,0-1-0.4-1-1C36,1291.8,37.8,1290,40,1290z
			"/>
		
			<rect id="Rectangle-Copy-7" x="40.2" y="1283.6" transform="matrix(0.866 -0.5 0.5 0.866 -638.5814 193.971)" class="st9" width="5" height="10"/>
	</g>
</g>
<g id="uk">
	<g id="Group_25_" transform="translate(6.000000, 6.000000)">
		<path id="Rectangle-3_26_" class="st15" d="M55.4,1316H10.6c-4.9,0-6.7,0.6-8.5,1.5c-2,1-3.5,2.6-4.5,4.5c-1,1.8-1.5,3.6-1.5,8.5
			v28.9c0,4.9,0.6,6.7,1.5,8.5c1,2,2.6,3.5,4.5,4.5c1.8,1,3.6,1.5,8.5,1.5h44.9c4.9,0,6.7-0.6,8.5-1.5c2-1,3.5-2.6,4.5-4.5
			c1-1.8,1.5-3.6,1.5-8.5v-28.9c0-4.9-0.6-6.7-1.5-8.5c-1-2-2.6-3.5-4.5-4.5C62.1,1316.6,60.4,1316,55.4,1316z"/>
		<path id="Path_56_" class="st14" d="M68,1345v14.4c0,4.4-0.5,6-1.3,7.5s-2.1,2.9-3.7,3.7c-1.6,0.9-3.2,1.3-7.5,1.3H10.6
			c-4.4,0-6-0.5-7.5-1.3s-2.9-2.1-3.7-3.7s-1.3-3.2-1.3-7.5V1345H68z"/>
	</g>
</g>
<g id="kl">
	<g id="Group_26_" transform="translate(6.000000, 6.000000)">
		<path id="Rectangle-3_27_" class="st10" d="M55.4,1382H10.6c-4.9,0-6.7,0.6-8.5,1.5c-2,1-3.5,2.6-4.5,4.5c-1,1.8-1.5,3.6-1.5,8.5
			v28.9c0,4.9,0.6,6.7,1.5,8.5c1,2,2.6,3.5,4.5,4.5c1.8,1,3.6,1.5,8.5,1.5h44.9c4.9,0,6.7-0.6,8.5-1.5c2-1,3.5-2.6,4.5-4.5
			c1-1.8,1.5-3.6,1.5-8.5v-28.9c0-4.9-0.6-6.7-1.5-8.5c-1-2-2.6-3.5-4.5-4.5C62.1,1382.6,60.4,1382,55.4,1382z"/>
		<circle id="Oval" class="st16" cx="33" cy="1411" r="16"/>
		<path id="Triangle_2_" class="st23" d="M34.8,1393.4l4.9,16.8c0.3,0.9,0,2-0.7,2.7L35,1417c-1,1.1-2.8,1.1-3.8,0c0,0,0,0,0,0
			l-4.1-4.1c-0.7-0.7-0.9-1.7-0.7-2.7l4.9-16.8c0.3-1,1.3-1.5,2.2-1.2C34.2,1392.4,34.7,1392.8,34.8,1393.4z"/>
		<path id="Path-3" class="st23" d="M24.9,1414.1c0.5,0.6,4.4,4.5,5,5.1c0.9,0.8,0.3,2.4-1,2.4c-2.8-0.1-5.3,0.8-7.3,2.5
			c-0.7,0.6-1.3,1.1-1.8,1.7c-0.3,0.3-0.5,0.6-0.6,0.7c-0.4,0.7-1.3,0.8-2,0.3c-4-3.2-1-11.1,6.2-13.1
			C24,1413.6,24.6,1413.7,24.9,1414.1z"/>
		<path id="Shape_1_" class="st23" d="M36.1,1420.7c-0.1-0.1-0.2-0.3-0.3-0.4c-0.1-0.5,0.1-1,0.5-1.3c0,0,0.1-0.1,0.1-0.1
			c0.1-0.1,0.3-0.3,0.6-0.6c0.2-0.2,0.5-0.5,0.9-0.9c0.2-0.2,0.5-0.5,1-1l0,0c1.6-1.7,2.4-2.4,2.7-2.7c0.6-0.6,1.7-0.3,2,0.5
			c0.8,2.1,2.2,3.6,4.1,4.6c0.7,0.4,1.3,0.6,2,0.8c0.4,0.1,0.6,0.2,0.8,0.2c0.8,0.1,1.2,1,0.9,1.7c-0.8,1.9-3.2,3.4-5.9,3.6
			C42.1,1425.3,38.9,1423.9,36.1,1420.7L36.1,1420.7L36.1,1420.7z M37.2,1418.7c0.1,0,0.1,0,0.2,0.1
			C37.4,1418.8,37.3,1418.7,37.2,1418.7L37.2,1418.7z"/>
	</g>
</g>
<g id="cs">
	<g id="Group_27_" transform="translate(6.000000, 6.000000)">
		<path id="Rectangle-3_28_" class="st7" d="M55.4,1448H10.6c-4.9,0-6.7,0.6-8.5,1.5c-2,1-3.5,2.6-4.5,4.5c-1,1.8-1.5,3.6-1.5,8.5
			v28.9c0,4.9,0.6,6.7,1.5,8.5c1,2,2.6,3.5,4.5,4.5c1.8,1,3.6,1.5,8.5,1.5h44.9c4.9,0,6.7-0.6,8.5-1.5c2-1,3.5-2.6,4.5-4.5
			c1-1.8,1.5-3.6,1.5-8.5v-28.9c0-4.9-0.6-6.7-1.5-8.5c-1-2-2.6-3.5-4.5-4.5C62.1,1448.6,60.4,1448,55.4,1448z"/>
		<path id="Path_57_" class="st9" d="M68,1477v14.4c0,4.4-0.5,6-1.3,7.5s-2.1,2.9-3.7,3.7c-1.6,0.9-3.2,1.3-7.5,1.3H10.6
			c-4.4,0-6-0.5-7.5-1.3s-2.9-2.1-3.7-3.7s-1.3-3.2-1.3-7.5V1477H68z"/>
		<path id="Path_58_" class="st8" d="M1.3,1501.5c-0.8-0.7-1.4-1.5-2-2.5c-0.9-1.6-1.3-3.2-1.3-7.5v-28.9c0-4.4,0.5-6,1.3-7.5
			c0.5-1,1.2-1.8,2-2.5L33,1477L1.3,1501.5L1.3,1501.5z"/>
	</g>
</g>
<g id="hi">
	<g id="Group_28_" transform="translate(6.000000, 6.000000)">
		<path id="Rectangle-3_29_" class="st7" d="M55.4,1514H10.6c-4.9,0-6.7,0.6-8.5,1.5c-2,1-3.5,2.6-4.5,4.5c-1,1.8-1.5,3.6-1.5,8.5
			v28.9c0,4.9,0.6,6.7,1.5,8.5c1,2,2.6,3.5,4.5,4.5c1.8,1,3.6,1.5,8.5,1.5h44.9c4.9,0,6.7-0.6,8.5-1.5c2-1,3.5-2.6,4.5-4.5
			c1-1.8,1.5-3.6,1.5-8.5v-28.9c0-4.9-0.6-6.7-1.5-8.5c-1-2-2.6-3.5-4.5-4.5C62.1,1514.6,60.4,1514,55.4,1514z"/>
		<path id="Path_59_" class="st18" d="M10.6,1516h44.9c4.4,0,6,0.5,7.5,1.3c1.6,0.9,2.9,2.1,3.7,3.7s1.3,3.2,1.3,7.5v3.4H-2v-3.4
			c0-4.4,0.5-6,1.3-7.5s2.1-2.9,3.7-3.7S6.2,1516,10.6,1516z"/>
		<path id="Path_60_" class="st22" d="M68,1554v3.4c0,4.4-0.5,6-1.3,7.5s-2.1,2.9-3.7,3.7c-1.6,0.9-3.2,1.3-7.5,1.3H10.6
			c-4.4,0-6-0.5-7.5-1.3s-2.9-2.1-3.7-3.7s-1.3-3.2-1.3-7.5v-3.4H68z"/>
		<path id="Oval_1_" class="st8" d="M33,1551c-4.4,0-8-3.6-8-8c0-4.4,3.6-8,8-8s8,3.6,8,8C41,1547.4,37.4,1551,33,1551z M33,1547
			c2.2,0,4-1.8,4-4s-1.8-4-4-4s-4,1.8-4,4S30.8,1547,33,1547z"/>
	</g>
</g>
<g id="id">
	<g id="Group_29_" transform="translate(6.000000, 6.000000)">
		<path id="Rectangle-3_30_" class="st10" d="M55.4,1580H10.6c-4.9,0-6.7,0.6-8.5,1.5c-2,1-3.5,2.6-4.5,4.5c-1,1.8-1.5,3.6-1.5,8.5
			v28.9c0,4.9,0.6,6.7,1.5,8.5c1,2,2.6,3.5,4.5,4.5c1.8,1,3.6,1.5,8.5,1.5h44.9c4.9,0,6.7-0.6,8.5-1.5c2-1,3.5-2.6,4.5-4.5
			c1-1.8,1.5-3.6,1.5-8.5v-28.9c0-4.9-0.6-6.7-1.5-8.5c-1-2-2.6-3.5-4.5-4.5C62.1,1580.6,60.4,1580,55.4,1580z"/>
		<path id="Path_61_" class="st16" d="M68,1609v14.4c0,4.4-0.5,6-1.3,7.5s-2.1,2.9-3.7,3.7c-1.6,0.9-3.2,1.3-7.5,1.3H10.6
			c-4.4,0-6-0.5-7.5-1.3s-2.9-2.1-3.7-3.7s-1.3-3.2-1.3-7.5V1609H68z"/>
	</g>
</g>
<g id="ha">
	<g id="Group_30_" transform="translate(6.000000, 6.000000)">
		<path id="Rectangle-3_31_" class="st7" d="M55.4,1646H10.6c-4.9,0-6.7,0.6-8.5,1.5c-2,1-3.5,2.6-4.5,4.5c-1,1.8-1.5,3.6-1.5,8.5
			v28.9c0,4.9,0.6,6.7,1.5,8.5c1,2,2.6,3.5,4.5,4.5c1.8,1,3.6,1.5,8.5,1.5h44.9c4.9,0,6.7-0.6,8.5-1.5c2-1,3.5-2.6,4.5-4.5
			c1-1.8,1.5-3.6,1.5-8.5v-28.9c0-4.9-0.6-6.7-1.5-8.5c-1-2-2.6-3.5-4.5-4.5C62.1,1646.6,60.4,1646,55.4,1646z"/>
		<rect id="Rectangle-4-Copy-5" x="-2" y="1657" class="st1" width="70" height="9"/>
		<rect id="Rectangle-4-Copy" x="-2" y="1666" class="st25" width="70" height="9"/>
		<path id="Path_62_" class="st26" d="M37,1648v27H-2v-14.4c0-4.4,0.5-6,1.3-7.5s2.1-2.9,3.7-3.7l0.4-0.2c1.5-0.7,3.1-1.1,7.1-1.1
			H37z"/>
		<path id="Path_63_" class="st16" d="M15,1648v8.9l2.5,1.8l2.5-1.8v-8.9h3v6.7l9.3-6.7H37v2.7l-7.2,5.3H37v3H25.6l-3.9,2.8l3,2.2
			H37v3h-8.2l8.2,5.9v2.1h-5.7l-8.3-6.1v6.1h-3v-8.2l-2.5-1.8l-2.5,1.8v8.3h-3v-6.1l-8.4,6.1H-2v-2.1l8.1-5.9H-2v-3h12.2l3-2.2
			l-3.9-2.8l-11.3,0c0-1.2,0.1-2.2,0.3-3l6.9,0l-5.3-3.9c0.8-1.2,1.9-2.1,3.2-2.8c0.3-0.2,0.6-0.3,0.9-0.4l8.1,5.9v-6.8H15z"/>
		<path id="Path_64_" class="st26" d="M67.8,1693c-0.2,1.9-0.6,2.9-1.2,4c-0.9,1.6-2.1,2.9-3.7,3.7c-1.6,0.9-3.2,1.3-7.5,1.3H10.6
			c-4.4,0-6-0.5-7.5-1.3s-2.9-2.1-3.7-3.7c-0.6-1.1-1-2.1-1.2-4H67.8z"/>
		<path id="Path_65_" class="st9" d="M68,1689.5c0,1.5-0.1,2.6-0.2,3.6H-1.8c-0.1-0.9-0.2-2.1-0.2-3.6v-5.4h70V1689.5z"/>
		<polygon id="Path_66_" class="st9" points="20,1659 37,1659 37,1664 20,1664 20,1675 15,1675 15,1664 -2,1664 -2,1659 15,1659 
			15,1648 20,1648 		"/>
	</g>
</g>
<g id="nv">
	<g id="Group_31_" transform="translate(6.000000, 6.000000)">
		<path id="Rectangle-3_32_" class="st27" d="M55.4,1712H10.6c-4.9,0-6.7,0.6-8.5,1.5c-2,1-3.5,2.6-4.5,4.5c-1,1.8-1.5,3.6-1.5,8.5
			v28.9c0,4.9,0.6,6.7,1.5,8.5c1,2,2.6,3.5,4.5,4.5c1.8,1,3.6,1.5,8.5,1.5h44.9c4.9,0,6.7-0.6,8.5-1.5c2-1,3.5-2.6,4.5-4.5
			c1-1.8,1.5-3.6,1.5-8.5v-28.9c0-4.9-0.6-6.7-1.5-8.5c-1-2-2.6-3.5-4.5-4.5C62.1,1712.6,60.4,1712,55.4,1712z"/>
		<path id="Star_3_" class="st23" d="M32,1727l-0.6,8.7c0,0.6-0.6,1.1-1.2,1c0,0,0,0,0,0l-1.9-0.2c-0.6,0-1.1,0.4-1.2,1
			c0,0.3,0.1,0.6,0.2,0.8l1.2,1.5c0.3,0.4,0.3,1.1-0.1,1.5l-1.4,1.4c-0.4,0.4-0.4,1.1,0,1.6c0.2,0.2,0.5,0.3,0.8,0.3l2.1,0.1
			c0.4,0,0.8,0.3,1,0.6l1.2,2.5c0.3,0.6,0.9,0.8,1.5,0.5c0.2-0.1,0.4-0.3,0.5-0.5l1.3-2.5c0.2-0.4,0.6-0.6,1-0.6H38
			c0.6,0,1.1-0.5,1.1-1.1c0-0.3-0.1-0.5-0.3-0.7l-1.4-1.6c-0.3-0.4-0.3-0.9-0.1-1.3l1.1-1.7c0.3-0.5,0.2-1.2-0.4-1.5
			c-0.2-0.1-0.4-0.2-0.7-0.2l-1.6,0.1c-0.6,0.1-1.2-0.4-1.2-1l0,0l-0.8-8.7c0-0.3,0.1-0.7,0.3-0.9l3.1-3c0.7-0.6,1.7-0.6,2.4,0
			c0.2,0.2,0.3,0.4,0.4,0.6l1.3,3.6c0.2,0.6,0.8,1.1,1.5,1.1l4.2,0.2c0.9,0,1.6,0.8,1.6,1.7c0,0.1,0,0.3-0.1,0.4l-1.1,4.1
			c-0.2,0.6,0,1.3,0.6,1.7l3.3,2.7c0.7,0.6,0.8,1.6,0.3,2.3c-0.1,0.1-0.2,0.2-0.3,0.3l-3.3,2.7c-0.5,0.4-0.7,1.1-0.6,1.7l1.1,4.1
			c0.2,0.9-0.3,1.8-1.2,2.1c-0.1,0-0.2,0.1-0.4,0.1l-4.2,0.2c-0.7,0-1.3,0.5-1.5,1.1l-1.5,4c-0.3,0.9-1.3,1.3-2.1,1
			c-0.1,0-0.2-0.1-0.4-0.2l-3.5-2.3c-0.6-0.4-1.3-0.4-1.9,0l-3.5,2.3c-0.8,0.5-1.8,0.3-2.3-0.5c-0.1-0.1-0.1-0.2-0.2-0.4l-1.5-4
			c-0.2-0.6-0.8-1.1-1.5-1.1l-4.2-0.2c-0.9,0-1.6-0.8-1.6-1.7c0-0.1,0-0.3,0.1-0.4l1.1-4.1c0.2-0.6,0-1.3-0.6-1.7l-3.3-2.7
			c-0.7-0.6-0.8-1.6-0.3-2.3c0.1-0.1,0.2-0.2,0.3-0.3l3.3-2.7c0.5-0.4,0.7-1.1,0.6-1.7l-1.1-4.1c-0.2-0.9,0.3-1.8,1.2-2.1
			c0.1,0,0.2-0.1,0.4-0.1l4.2-0.2c0.7,0,1.3-0.5,1.5-1.1l1.3-3.5c0.3-0.9,1.3-1.3,2.1-1c0.2,0.1,0.4,0.2,0.6,0.4l3,3
			C31.9,1726.4,32,1726.7,32,1727L32,1727z"/>
		<path id="Path_67_" class="st9" d="M19.5,1741.1c0-6.2,4.2-11.6,10.1-13.2c0.5-0.1,0.9,0.2,0.9,0.7l0,3.5c0,0.3-0.2,0.6-0.5,0.7
			c-3.4,1.3-5.7,4.6-5.7,8.3c0,4.9,3.9,8.8,8.7,8.8s8.7-3.9,8.7-8.8c0-3.7-2.3-7-5.7-8.3c-0.3-0.1-0.5-0.4-0.5-0.7l0-3.5
			c0-0.5,0.4-0.8,0.9-0.7c5.9,1.5,10.1,7,10.1,13.2c0,7.5-6,13.6-13.5,13.6S19.5,1748.6,19.5,1741.1z"/>
	</g>
</g>
<g id="ar">
	<g id="Group_32_" transform="translate(6.000000, 6.000000)">
		<path id="Rectangle-3_33_" class="st24" d="M55.4,1778H10.6c-4.9,0-6.7,0.6-8.5,1.5c-2,1-3.5,2.6-4.5,4.5c-1,1.8-1.5,3.6-1.5,8.5
			v28.9c0,4.9,0.6,6.7,1.5,8.5c1,2,2.6,3.5,4.5,4.5c1.8,1,3.6,1.5,8.5,1.5h44.9c4.9,0,6.7-0.6,8.5-1.5c2-1,3.5-2.6,4.5-4.5
			c1-1.8,1.5-3.6,1.5-8.5v-28.9c0-4.9-0.6-6.7-1.5-8.5c-1-2-2.6-3.5-4.5-4.5C62.1,1778.6,60.4,1778,55.4,1778z"/>
	</g>
	<g id="Group-3_1_" transform="translate(27.000000, 12.000000)">
		<g id="Group_33_" transform="translate(0.000000, 5.000000)">
			<path id="Oval_2_" class="st28" d="M12.5,1810.1c8,0,14.5-6.3,14.5-14c0-7.7-6.5-14-14.5-14s-14.5,6.3-14.5,14
				C-2,1803.8,4.5,1810.1,12.5,1810.1z"/>
			<path id="Path-6-Copy" class="st29" d="M13.3,1782.7c2.2,0,4.1,0.1,4.7-2.7"/>
			<path id="Triangle_3_" class="st6" d="M14,1811.4l-9,2.5c-1.1,0.3-2.2-0.3-2.5-1.4c-0.1-0.4-0.1-0.8,0.1-1.2l0.9-2.4
				c0.3-0.8,1.2-1.3,2.1-0.9c0,0,0,0,0.1,0L14,1811.4L14,1811.4z"/>
			<path id="Triangle-Copy" class="st6" d="M11,1811.4l9,2.5c1.1,0.3,2.2-0.3,2.5-1.4c0.1-0.4,0.1-0.8-0.1-1.2l-0.9-2.4
				c-0.3-0.8-1.2-1.3-2.1-0.9c0,0,0,0-0.1,0L11,1811.4L11,1811.4z"/>
			<path id="Path-8" class="st30" d="M13.1,1781.9l-3.9,0.8l-0.4,0.9c1.1-0.2,2.4-0.3,4-0.4c1.4-0.1,2.5-0.6,3.4-1.6L13.1,1781.9z"
				/>
		</g>
		<g id="Group-2_1_" transform="translate(5.000000, 9.000000)">
			<circle id="Oval_3_" class="st6" cx="7.5" cy="1791.5" r="9.5"/>
			<circle id="Oval-Copy" class="st31" cx="7.5" cy="1787.5" r="7.5"/>
		</g>
		<path id="Combined-Shape_2_" class="st32" d="M12.2,1787.8c-0.2-1.6,0.3-3.2,1.5-4.3c1.1-1.1,2.7-1.6,4.2-1.4
			c0.2,1.6-0.3,3.2-1.5,4.3C15.2,1787.6,13.7,1788,12.2,1787.8L12.2,1787.8z"/>
		<path id="Combined-Shape-Copy" class="st32" d="M12.8,1787.8c0.2-1.6-0.3-3.2-1.5-4.3c-1.1-1.1-2.7-1.6-4.2-1.4
			c-0.2,1.6,0.3,3.2,1.5,4.3C9.8,1787.6,11.3,1788,12.8,1787.8L12.8,1787.8z"/>
	</g>
</g>
<g id="ca">
	<g id="Group_34_" transform="translate(6.000000, 6.000000)">
		<path id="Rectangle-3_34_" class="st4" d="M55.4,1844H10.6c-4.9,0-6.7,0.6-8.5,1.5c-2,1-3.5,2.6-4.5,4.5c-1,1.8-1.5,3.6-1.5,8.5
			v28.9c0,4.9,0.6,6.7,1.5,8.5c1,2,2.6,3.5,4.5,4.5c1.8,1,3.6,1.5,8.5,1.5h44.9c4.9,0,6.7-0.6,8.5-1.5c2-1,3.5-2.6,4.5-4.5
			c1-1.8,1.5-3.6,1.5-8.5v-28.9c0-4.9-0.6-6.7-1.5-8.5c-1-2-2.6-3.5-4.5-4.5C62.1,1844.6,60.4,1844,55.4,1844z"/>
		<path id="Path_68_" class="st33" d="M10.6,1846h44.9c4.4,0,6,0.5,7.5,1.3c1.6,0.9,2.9,2.1,3.7,3.7c0.2,0.3,0.3,0.6,0.5,1H-1.2
			c0.1-0.3,0.3-0.7,0.5-1c0.9-1.6,2.1-2.9,3.7-3.7S6.2,1846,10.6,1846z"/>
		<path id="Path_69_" class="st33" d="M68,1858c0,0.2,0,0.4,0,0.6v5.4H-2v-5.4c0-0.2,0-0.4,0-0.6H68z"/>
		<polygon id="Path_70_" class="st33" points="68,1870 68,1876 -2,1876 -2,1870 		"/>
		<path id="Path_71_" class="st33" d="M68,1887.5c0,0.2,0,0.4,0,0.6H-2c0-0.2,0-0.4,0-0.6v-5.4h70V1887.5z"/>
		<path id="Path_72_" class="st33" d="M67.2,1894c-0.1,0.3-0.3,0.7-0.5,1c-0.9,1.6-2.1,2.9-3.7,3.7c-1.6,0.9-3.2,1.3-7.5,1.3H10.6
			c-4.4,0-6-0.5-7.5-1.3s-2.9-2.1-3.7-3.7c-0.2-0.3-0.3-0.6-0.5-1H67.2z"/>
	</g>
</g>
<g id="th">
	<g id="Group_35_" transform="translate(6.000000, 6.000000)">
		<path id="Rectangle-3_35_" class="st16" d="M10.6,1912h44.9c4.4,0,6,0.5,7.5,1.3c1.6,0.9,2.9,2.1,3.7,3.7s1.3,3.2,1.3,7.5v28.9
			c0,4.4-0.5,6-1.3,7.5s-2.1,2.9-3.7,3.7c-1.6,0.9-3.2,1.3-7.5,1.3H10.6c-4.4,0-6-0.5-7.5-1.3s-2.9-2.1-3.7-3.7s-1.3-3.2-1.3-7.5
			v-28.9c0-4.4,0.5-6,1.3-7.5s2.1-2.9,3.7-3.7S6.2,1912,10.6,1912z"/>
		<path id="Rectangle-3_36_" class="st7" d="M55.4,1910H10.6c-4.9,0-6.7,0.6-8.5,1.5c-2,1-3.5,2.6-4.5,4.5c-1,1.8-1.5,3.6-1.5,8.5
			v28.9c0,4.9,0.6,6.7,1.5,8.5c1,2,2.6,3.5,4.5,4.5c1.8,1,3.6,1.5,8.5,1.5h44.9c4.9,0,6.7-0.6,8.5-1.5c2-1,3.5-2.6,4.5-4.5
			c1-1.8,1.5-3.6,1.5-8.5v-28.9c0-4.9-0.6-6.7-1.5-8.5c-1-2-2.6-3.5-4.5-4.5C62.1,1910.6,60.4,1910,55.4,1910z"/>
		<path id="Path_73_" class="st9" d="M67.7,1958c-0.2,1.3-0.6,2.1-1,3c-0.9,1.6-2.1,2.9-3.7,3.7c-1.6,0.9-3.2,1.3-7.5,1.3H10.6
			c-4.4,0-6-0.5-7.5-1.3s-2.9-2.1-3.7-3.7c-0.5-0.9-0.8-1.7-1-3H67.7L67.7,1958z"/>
		<polygon id="Rectangle-4_1_" class="st2" points="68,1928 68,1950 -2,1950 -2,1928 		"/>
		<path id="Path_74_" class="st9" d="M10.6,1912h44.9c4.4,0,6,0.5,7.5,1.3c1.6,0.9,2.9,2.1,3.7,3.7c0.5,0.9,0.8,1.7,1,3H-1.7
			c0.2-1.3,0.6-2.1,1-3c0.9-1.6,2.1-2.9,3.7-3.7S6.2,1912,10.6,1912z"/>
	</g>
</g>
<g id="gn">
	<g id="Group_36_" transform="translate(6.000000, 6.000000)">
		<path id="Rectangle-3_37_" class="st7" d="M55.4,1976H10.6c-4.9,0-6.7,0.6-8.5,1.5c-2,1-3.5,2.6-4.5,4.5c-1,1.8-1.5,3.6-1.5,8.5
			v28.9c0,4.9,0.6,6.7,1.5,8.5c1,2,2.6,3.5,4.5,4.5c1.8,1,3.6,1.5,8.5,1.5h44.9c4.9,0,6.7-0.6,8.5-1.5c2-1,3.5-2.6,4.5-4.5
			c1-1.8,1.5-3.6,1.5-8.5v-28.9c0-4.9-0.6-6.7-1.5-8.5c-1-2-2.6-3.5-4.5-4.5C62.1,1976.6,60.4,1976,55.4,1976z"/>
		<path id="Path_75_" class="st8" d="M68,2016v3.4c0,4.4-0.5,6-1.3,7.5s-2.1,2.9-3.7,3.7c-1.6,0.9-3.2,1.3-7.5,1.3H10.6
			c-4.4,0-6-0.5-7.5-1.3s-2.9-2.1-3.7-3.7s-1.3-3.2-1.3-7.5v-3.4H68z"/>
		<path id="Path_76_" class="st9" d="M10.6,1978h44.9c4.4,0,6,0.5,7.5,1.3c1.6,0.9,2.9,2.1,3.7,3.7s1.3,3.2,1.3,7.5v3.4H-2v-3.4
			c0-4.4,0.5-6,1.3-7.5s2.1-2.9,3.7-3.7S6.2,1978,10.6,1978z"/>
		<path id="Oval_4_" class="st9" d="M33,2014c-5,0-9-4-9-9s4-9,9-9s9,4,9,9S38,2014,33,2014z M33,2010c2.8,0,5-2.2,5-5
			c0-2.8-2.2-5-5-5s-5,2.2-5,5C28,2007.8,30.2,2010,33,2010z"/>
		<circle id="Oval_5_" class="st2" cx="33" cy="2005" r="3"/>
	</g>
</g>
<g id="ambassador">
	<g id="Group-5-Copy" transform="translate(6.000000, 6.000000)">
		<path id="Rectangle-3_38_" class="st34" d="M55.4,2042H10.6c-4.9,0-6.7,0.6-8.5,1.5c-2,1-3.5,2.6-4.5,4.5c-1,1.8-1.5,3.6-1.5,8.5
			v28.9c0,4.9,0.6,6.7,1.5,8.5c1,2,2.6,3.5,4.5,4.5c1.8,1,3.6,1.5,8.5,1.5h44.9c4.9,0,6.7-0.6,8.5-1.5c2-1,3.5-2.6,4.5-4.5
			c1-1.8,1.5-3.6,1.5-8.5v-28.9c0-4.9-0.6-6.7-1.5-8.5c-1-2-2.6-3.5-4.5-4.5C62.1,2042.6,60.4,2042,55.4,2042z"/>
		<path id="Path_77_" class="st18" d="M29.5,2044l6.3,3.4l-6.3,8.2l-2.5,9.5l-7-4.8v7l22.8,9.6L27.4,2098h-3.8l1.5-12.6l-6.3-5.6
			v-8.3l-8.3-8.3L2,2049.5l2.4-4.8c1.3-0.5,3-0.7,6.2-0.7H29.5z"/>
		<path id="Combined-Shape_3_" class="st35" d="M55.4,2044c4.4,0,6,0.5,7.5,1.3c1.6,0.9,2.9,2.1,3.7,3.7c0.9,1.6,1.3,3.2,1.3,7.5
			v28.9c0,3.4-0.3,5.1-0.8,6.5l-5.8-1.9l-1.3-13l-8.7-5.6v-13h8.3l-4.1-6.4h-5.9l3.1-8H55.4z"/>
		<g id="Group-7" transform="translate(4.000000, 0.000000)">
		</g>
	</g>
</g>
<g id="duolingo">
	<g id="Group-5-Copy-2" transform="translate(6.000000, 6.000000)">
		<path id="Rectangle-3_39_" class="st17" d="M55.4,2108H10.6c-4.9,0-6.7,0.6-8.5,1.5c-2,1-3.5,2.6-4.5,4.5c-1,1.8-1.5,3.6-1.5,8.5
			v28.9c0,4.9,0.6,6.7,1.5,8.5c1,2,2.6,3.5,4.5,4.5c1.8,1,3.6,1.5,8.5,1.5h44.9c4.9,0,6.7-0.6,8.5-1.5c2-1,3.5-2.6,4.5-4.5
			c1-1.8,1.5-3.6,1.5-8.5v-28.9c0-4.9-0.6-6.7-1.5-8.5c-1-2-2.6-3.5-4.5-4.5C62.1,2108.6,60.4,2108,55.4,2108z"/>
		<g id="Icon" transform="translate(4.000000, 0.000000)">
			<g id="Glyph-Copy-3" transform="translate(0.867188, 5.550781)">
				<g id="Group_37_" transform="translate(0.035890, 0.000000)">
					<path id="Combined-Shape-Copy-57" class="st36" d="M22.2,2122c0.9,0.9,0.6,2.4-0.5,2.9c-3.7,1.8-8.1,1-11-2
						c-2.9-3-3.5-7.5-1.6-11.1c0.6-1.1,1.8-1.3,2.7-0.4L22.2,2122z"/>
					<path id="Path-12" class="st37" d="M21,2120.9c3.7,3.7,10.1,3.7,14.2,0c4.1-3.7-0.6,21.5-0.6,21.5c0,0-2.2,0-6.5,0
						c-1.2,0-3.3,0-6.3,0C18.8,2125.5,18.5,2118.4,21,2120.9z"/>
					<path id="Combined-Shape-Copy-58" class="st36" d="M6.1,2115.3l9.9,11c0.8,0.9,0.5,2.4-0.6,2.9c-3.7,1.7-8.2,0.7-11-2.4
						c-2.8-3.1-3.3-7.6-1.2-11.1C3.8,2114.6,5.2,2114.4,6.1,2115.3z"/>
					
						<g id="Group-4" transform="translate(47.352758, 11.848706) scale(-1, 1) translate(-47.352758, -11.848706) translate(34.738341, 0.039135)">
						<path id="Combined-Shape-Copy-57_1_" class="st36" d="M25.9,2122c0.9,0.9,0.6,2.4-0.5,2.9c-3.7,1.8-8.1,1-11-2
							c-2.9-3-3.5-7.5-1.6-11.1c0.6-1.1,1.8-1.3,2.7-0.4L25.9,2122z"/>
						<path id="Combined-Shape-Copy-58_1_" class="st36" d="M9.8,2115.3l9.9,11c0.8,0.9,0.5,2.4-0.6,2.9c-3.7,1.7-8.2,0.7-11-2.4
							c-2.8-3.1-3.3-7.6-1.2-11.1C7.5,2114.5,9,2114.4,9.8,2115.3z"/>
					</g>
					<path id="Rectangle-130-Copy-36" class="st37" d="M11.1,2117h0.6c7.3,0,13.1,5.9,13.1,13.1v6.8c0,7.3-5.9,13.1-13.1,13.1h-0.6
						c-7.3,0-13.1-5.9-13.1-13.1v-6.8C-2,2122.9,3.9,2117,11.1,2117z"/>
					<path id="Rectangle-130-Copy-37" class="st37" d="M44.5,2117h0.5c7.3,0,13.1,5.9,13.1,13.1v6.8c0,7.3-5.9,13.1-13.1,13.1h-0.4
						c-7.2,0-13.1-5.8-13.1-13l-0.1-6.8c-0.1-7.3,5.8-13.2,13-13.3C44.4,2117,44.4,2117,44.5,2117z"/>
					<path id="Rectangle-130-Copy-38" class="st6" d="M12,2121.7c5.1,0,9.2,4.1,9.2,9.2v5.4c0,5.1-4.1,9.2-9.2,9.2s-9.2-4.1-9.2-9.2
						v-5.4C2.8,2125.8,6.9,2121.7,12,2121.7z"/>
					<path id="Rectangle-130-Copy-39" class="st6" d="M44.1,2121.7c5.1,0,9.2,4.1,9.2,9.2v5.4c0,5.1-4.1,9.2-9.2,9.2
						s-9.2-4.1-9.2-9.2v-5.4C35,2125.8,39.1,2121.7,44.1,2121.7z"/>
					<path id="Rectangle-130-Copy-40" class="st38" d="M13.4,2126.9c2.4,0,4.3,1.9,4.3,4.3v4.6c0,2.4-1.9,4.3-4.3,4.3
						s-4.3-1.9-4.3-4.3v-4.6C9,2128.9,11,2126.9,13.4,2126.9z"/>
					<g id="Group-3_2_" transform="translate(23.234280, 27.443651)">
						<g id="Group-2_2_">
							<path id="Rectangle-2-Copy-9" class="st39" d="M4.9,2110c2.7,0,5,2.2,5,5v1.7c0,2.7-2.2,5-5,5s-5-2.2-5-5v-1.7
								C-0.1,2112.3,2.1,2110,4.9,2110z"/>
							<path id="Combined-Shape-Copy-61" class="st40" d="M-2,2115.5c0.6-3.2,3.5-5.5,7.1-5.5c3.2,0,6.1,2.3,6.7,5.5l0,0v0.3
								c0,0.2-0.1,0.3-0.3,0.3l-6.4,1.1c-0.2,0-0.2,0-0.4,0l-6.4-1.1c-0.2,0-0.3-0.1-0.3-0.3V2115.5L-2,2115.5z"/>
							<path id="Rectangle_8_" class="st41" d="M3.8,2111.1c0.3-0.1,0.7-0.1,1-0.1c0.4,0,0.7,0,1.1,0.1c0.7,0.2,1.3,0.9,1.3,1.6
								c0,0.6-0.5,1.1-1.1,1.1H3.6c-0.6,0-1.1-0.5-1.1-1.1C2.5,2112,3,2111.3,3.8,2111.1z"/>
						</g>
					</g>
					<path id="Rectangle-130-Copy-41" class="st38" d="M42.7,2126.9c2.4,0,4.3,1.9,4.3,4.3v4.6c0,2.4-1.9,4.3-4.3,4.3
						c-2.4,0-4.3-1.9-4.3-4.3v-4.6C38.4,2128.9,40.3,2126.9,42.7,2126.9z"/>
					<ellipse id="Oval-10-Copy-4" class="st6" cx="9.7" cy="2129.4" rx="2.8" ry="2.8"/>
					<ellipse id="Oval-10-Copy-5" class="st6" cx="38.6" cy="2129.4" rx="2.8" ry="2.8"/>
				</g>
			</g>
		</g>
	</g>
</g>
<g id="troubleshooting">
	<g id="Group-5-Copy-3" transform="translate(6.000000, 6.000000)">
		<path id="Rectangle-3_40_" class="st15" d="M55.4,2174H10.6c-4.9,0-6.7,0.6-8.5,1.5c-2,1-3.5,2.6-4.5,4.5c-1,1.8-1.5,3.6-1.5,8.5
			v28.9c0,4.9,0.6,6.7,1.5,8.5c1,2,2.6,3.5,4.5,4.5c1.8,1,3.6,1.5,8.5,1.5h44.9c4.9,0,6.7-0.6,8.5-1.5c2-1,3.5-2.6,4.5-4.5
			c1-1.8,1.5-3.6,1.5-8.5v-28.9c0-4.9-0.6-6.7-1.5-8.5c-1-2-2.6-3.5-4.5-4.5C62.1,2174.6,60.4,2174,55.4,2174z"/>
		
			<g id="Group_38_" transform="translate(33.627417, 26.627417) scale(-1, 1) rotate(45.000000) translate(-33.627417, -26.627417) translate(26.627417, 1.627417)">
			<path id="Rectangle_9_" class="st42" d="M1546.8,1545L1546.8,1545c1.2,0,2.2,1,2.2,2.2v31.1c0,1.2-1,2.2-2.2,2.2l0,0
				c-1.2,0-2.2-1-2.2-2.2v-31.1C1544.5,1546,1545.5,1545,1546.8,1545z"/>
			<path id="Combined-Shape_4_" class="st43" d="M1552.4,1559.7c0.9,0,1.7,0.7,1.7,1.7v0.8c0,1.3-1.1,2.4-2.4,2.4l-0.3,0
				c1.7,1.2,2.7,3.2,2.7,5.4v10.6c0,3.7-3,6.7-6.7,6.7h-0.6c-3.7,0-6.7-3-6.7-6.7v-10.6c0-2.2,1.1-4.2,2.7-5.4l-0.3,0
				c-1.3,0-2.4-1.1-2.4-2.4v-0.8c0-0.9,0.7-1.7,1.7-1.7H1552.4z"/>
			<path id="Rectangle_10_" class="st42" d="M1545.5,1537.6h2.7c0.4,0,0.7,0.3,0.8,0.6l1.8,6.5c0.1,0.2,0,0.4-0.1,0.6l-1.6,3.3
				c-0.1,0.3-0.4,0.5-0.7,0.5h-2.9c-0.3,0-0.6-0.2-0.7-0.5l-1.6-3.3c-0.1-0.2-0.1-0.4-0.1-0.6l1.8-6.5
				C1544.8,1537.9,1545.2,1537.6,1545.5,1537.6z"/>
			<path id="Rectangle_11_" class="st44" d="M1547.2,1567L1547.2,1567c0.6,0,1.2,0.5,1.2,1.2v14.6c0,0.6-0.5,1.2-1.2,1.2l0,0
				c-0.6,0-1.2-0.5-1.2-1.2v-14.6C1546,1567.5,1546.5,1567,1547.2,1567z"/>
			<path id="Rectangle-Copy-2_1_" class="st44" d="M1551,1568.7L1551,1568.7c0.6,0,1.2,0.5,1.2,1.2v10.9c0,0.6-0.5,1.2-1.2,1.2l0,0
				c-0.6,0-1.2-0.5-1.2-1.2v-10.9C1549.8,1569.2,1550.4,1568.7,1551,1568.7z"/>
			<path id="Rectangle-Copy-3_1_" class="st44" d="M1543,1568.7L1543,1568.7c0.6,0,1.2,0.5,1.2,1.2v10.9c0,0.6-0.5,1.2-1.2,1.2l0,0
				c-0.6,0-1.2-0.5-1.2-1.2v-10.9C1541.8,1569.2,1542.3,1568.7,1543,1568.7z"/>
		</g>
		
			<g id="Group_39_" transform="translate(34.000000, 28.000000) rotate(45.000000) translate(-34.000000, -28.000000) translate(24.000000, 6.000000)">
			<path id="Combined-Shape_5_" class="st45" d="M1550.4,1552.4c1.7,0,3.2,1.4,3.2,3.2v22c0,3.3-2.7,5.9-5.9,5.9s-5.9-2.7-5.9-5.9
				v-22c0-1.7,1.4-3.2,3.2-3.2H1550.4z M1547.9,1574.8h-0.3c-0.1,0-0.2,0-0.3,0c-1.4,0.2-2.4,1.4-2.2,2.8l0,0l0.1,0.4c0,0,0,0,0,0
				c0.2,1.4,1.5,2.3,2.8,2.1c1.4-0.2,2.5-1.4,2.5-2.9l0,0v0C1550.5,1576,1549.3,1574.8,1547.9,1574.8L1547.9,1574.8z"/>
			<path id="Rectangle_12_" class="st42" d="M1547.3,1554.7L1547.3,1554.7c0.9,0,1.6,0.7,1.6,1.6v13.2c0,0.9-0.7,1.6-1.6,1.6l0,0
				c-0.9,0-1.6-0.7-1.6-1.6v-13.2C1545.7,1555.4,1546.4,1554.7,1547.3,1554.7z"/>
			<path id="Combined-Shape_6_" class="st45" d="M1542.2,1540.3c0.5,0,0.9,0.4,0.9,0.9l0,0v8.3c0,0.8,0.6,1.4,1.4,1.4l0,0h5.5
				c0.8,0,1.4-0.6,1.4-1.4l0,0v-8.3c0-0.2,0-0.3,0.1-0.4c0.2-0.4,0.8-0.6,1.2-0.3l0,0l0.8,0.4c2.3,1.7,3.7,4.4,3.7,7.5
				c0,5.2-4.2,9.4-9.4,9.4h-1.2c-5.2,0-9.4-4.2-9.4-9.4c0-3.1,1.5-5.8,3.7-7.5l0.8-0.4C1541.9,1540.3,1542,1540.3,1542.2,1540.3z"/>
		</g>
	</g>
</g>
<g id="teachers">
	<g id="Group-5-Copy-4" transform="translate(1.000000, 6.000000)">
		<path id="Rectangle-3_41_" class="st17" d="M60.4,2240H15.6c-4.9,0-6.7,0.6-8.5,1.5c-2,1-3.5,2.6-4.5,4.5c-1,1.8-1.5,3.6-1.5,8.5
			v28.9c0,4.9,0.6,6.7,1.5,8.5c1,2,2.6,3.5,4.5,4.5c1.8,1,3.6,1.5,8.5,1.5h44.9c4.9,0,6.7-0.6,8.5-1.5c2-1,3.5-2.6,4.5-4.5
			c1-1.8,1.5-3.6,1.5-8.5v-28.9c0-4.9-0.6-6.7-1.5-8.5c-1-2-2.6-3.5-4.5-4.5C67.1,2240.6,65.4,2240,60.4,2240z"/>
		<path id="Rectangle-3-Copy-4" class="st17" d="M60.4,2240H15.6c-4.9,0-6.7,0.6-8.5,1.5c-2,1-3.5,2.6-4.5,4.5
			c-1,1.8-1.5,3.6-1.5,8.5v28.9c0,4.9,0.6,6.7,1.5,8.5c1,2,2.6,3.5,4.5,4.5c1.8,1,3.6,1.5,8.5,1.5h44.9c4.9,0,6.7-0.6,8.5-1.5
			c2-1,3.5-2.6,4.5-4.5c1-1.8,1.5-3.6,1.5-8.5v-28.9c0-4.9-0.6-6.7-1.5-8.5c-1-2-2.6-3.5-4.5-4.5C67.1,2240.6,65.4,2240,60.4,2240z"
			/>
		<g id="Page-1" transform="translate(0.000000, 2.000000)">
			<g id="Group-112" transform="translate(0.000000, 1.148238)">
				<path id="Fill-82" class="st46" d="M50.3,2248.8h-2.2c-0.8,0-1.5,0.7-1.5,1.5c0,0.9,0.7,1.5,1.5,1.5h2.2c0.8,0,1.5-0.7,1.5-1.5
					C51.8,2249.5,51.2,2248.8,50.3,2248.8"/>
				<path id="Fill-83" class="st46" d="M50.3,2253.1h-2.2c-0.5,0-0.9,0.4-0.9,0.9c0,0.5,0.4,0.9,0.9,0.9h2.2c0.5,0,0.9-0.4,0.9-0.9
					C51.2,2253.5,50.8,2253.1,50.3,2253.1"/>
				<path id="Fill-84" class="st47" d="M50.3,2268.2h-2.2c-0.5,0-0.9,0.4-0.9,0.9c0,0.5,0.4,0.9,0.9,0.9h2.2c0.5,0,0.9-0.4,0.9-0.9
					C51.2,2268.6,50.8,2268.2,50.3,2268.2"/>
				<path id="Fill-87" class="st48" d="M32.1,2248.8h-2.2c-0.8,0-1.5,0.7-1.5,1.5c0,0.9,0.7,1.5,1.5,1.5h2.2c0.8,0,1.5-0.7,1.5-1.5
					C33.7,2249.5,33,2248.8,32.1,2248.8"/>
				<path id="Fill-88" class="st48" d="M32.1,2253.1h-2.2c-0.5,0-0.9,0.4-0.9,0.9c0,0.5,0.4,0.9,0.9,0.9h2.2c0.5,0,0.9-0.4,0.9-0.9
					C33,2253.5,32.6,2253.1,32.1,2253.1"/>
				<path id="Fill-89" class="st49" d="M31.5,2264.9h-0.9c-0.8,0-1.5,0.7-1.5,1.5v2.1c0,0.8,0.7,1.5,1.5,1.5h0.9
					c0.8,0,1.5-0.7,1.5-1.5v-2.1C33,2265.6,32.3,2264.9,31.5,2264.9"/>
				<path id="Fill-94" class="st50" d="M23.5,2264.9h-0.9c-0.8,0-1.5,0.7-1.5,1.5v2.1c0,0.8,0.7,1.5,1.5,1.5h0.9
					c0.8,0,1.5-0.7,1.5-1.5v-2.1C24.9,2265.6,24.3,2264.9,23.5,2264.9"/>
				<path id="Fill-105" class="st51" d="M43,2242.6h-5.7c-1.2,0-2.1,1-2.1,2.1v26.2c0,1.2,0.9,2.1,2.1,2.1H43c1.2,0,2.1-1,2.1-2.1
					v-26.2C45.1,2243.6,44.2,2242.6,43,2242.6"/>
				<path id="Fill-106" class="st50" d="M40.3,2249.1H40c-0.8,0-1.5,0.7-1.5,1.5v8.3c0,0.8,0.7,1.5,1.5,1.5h0.3
					c0.8,0,1.5-0.7,1.5-1.5v-8.3C41.8,2249.8,41.1,2249.1,40.3,2249.1"/>
				<polygon id="Fill-107" class="st50" points="35.5,2247.2 45.1,2247.2 45.1,2245.9 35.5,2245.9 				"/>
				<path id="Fill-108" class="st50" d="M41.6,2268.2h-2.9c-0.5,0-0.9,0.4-0.9,0.9c0,0.5,0.4,0.9,0.9,0.9h2.9c0.5,0,0.9-0.4,0.9-0.9
					C42.5,2268.6,42.1,2268.2,41.6,2268.2"/>
			</g>
			<g id="Group-145" transform="translate(11.459259, 0.342475)">
				<path id="Fill-113" class="st52" d="M43,2254.2c0,6.7-5.4,12.2-12,12.2c-6.7,0-12-5.4-12-12.2s5.4-12.2,12-12.2
					C37.6,2242,43,2247.5,43,2254.2"/>
				<path id="Fill-115" class="st53" d="M39.9,2263.8c0,8.9-7.2,16.1-16,16.1s-16-7.2-16-16.1s7.2-16.1,16-16.1
					S39.9,2254.9,39.9,2263.8"/>
				<path id="Fill-117" class="st53" d="M44.7,2266.8c0,9.2-7.4,16.7-16.5,16.7c-9.1,0-16.5-7.5-16.5-16.7c0-9.2,7.4-16.7,16.5-16.7
					C37.4,2250.2,44.7,2257.6,44.7,2266.8"/>
				<path id="Fill-125" class="st54" d="M4.5,2272.9c0,3.4,2.8,6.2,6.2,6.2s6.2-2.8,6.2-6.2s-2.8-6.2-6.2-6.2S4.5,2269.5,4.5,2272.9
					"/>
				<path id="Fill-127" class="st53" d="M31.7,2248.6c2.1,2.2,1.9,5.9-0.6,8.4c-2.5,2.4-6.2,2.7-8.3,0.5L31.7,2248.6z"/>
				<path id="Stroke-129" class="st55" d="M31.7,2248.6c2.1,2.2,1.9,5.9-0.6,8.4c-2.5,2.4-6.2,2.7-8.3,0.5L31.7,2248.6z"/>
				<path id="Fill-135" class="st53" d="M31.4,2262.5c-2.9-0.8-4.6-4.1-3.8-7.5s3.9-5.5,6.9-4.7L31.4,2262.5z"/>
				<path id="Stroke-137" class="st56" d="M31.4,2262.5c-2.9-0.8-4.6-4.1-3.8-7.5s3.9-5.5,6.9-4.7L31.4,2262.5z"/>
				<path id="Fill-141" class="st54" d="M36.2,2272.9c0,3.4,2.8,6.2,6.2,6.2s6.2-2.8,6.2-6.2s-2.8-6.2-6.2-6.2
					S36.2,2269.5,36.2,2272.9"/>
			</g>
			<g id="Group-213" transform="translate(14.437037, 6.589681)">
				<path id="Fill-157" class="st57" d="M23.5,2283.6H23c-8.7,0-15.9-7.2-15.9-16v-5.8c0-8.8,7.1-16,15.9-16h0.6
					c8.7,0,15.9,7.2,15.9,16v5.8C39.4,2276.4,32.3,2283.6,23.5,2283.6"/>
				<path id="Fill-159" class="st58" d="M30,2265.5L30,2265.5c-1.2,0-2.1-1-2.1-2.1v-4c0-1.2,1-2.1,2.1-2.1c1.2,0,2.1,1,2.1,2.1v4
					C32.1,2264.6,31.2,2265.5,30,2265.5"/>
				<path id="Fill-161" class="st57" d="M31.3,2265.9h-2.6c-0.9,0-1.7-0.8-1.7-1.7c0-0.9,0.7-1.7,1.7-1.7h2.6c0.9,0,1.7,0.8,1.7,1.7
					C32.9,2265.1,32.2,2265.9,31.3,2265.9"/>
				<path id="Fill-163" class="st58" d="M16.7,2265.5L16.7,2265.5c-1.2,0-2.1-1-2.1-2.1v-4c0-1.2,1-2.1,2.1-2.1c1.2,0,2.1,1,2.1,2.1
					v4C18.8,2264.6,17.9,2265.5,16.7,2265.5"/>
				<path id="Fill-165" class="st57" d="M18,2265.9h-2.6c-0.9,0-1.7-0.8-1.7-1.7c0-0.9,0.7-1.7,1.7-1.7H18c0.9,0,1.7,0.8,1.7,1.7
					C19.7,2265.1,18.9,2265.9,18,2265.9"/>
				<path id="Fill-167" class="st59" d="M10.6,2268.9c0,0.3,0.2,0.5,0.4,0.5c0.2,0,0.4-0.2,0.4-0.5s-0.2-0.5-0.4-0.5
					C10.8,2268.5,10.6,2268.7,10.6,2268.9"/>
				<path id="Fill-169" class="st59" d="M36.1,2269.2c0.2,0.1,0.5,0.1,0.6-0.1c0.1-0.2,0.1-0.5-0.1-0.6c-0.2-0.1-0.5-0.1-0.6,0.1
					C35.8,2268.7,35.9,2269,36.1,2269.2"/>
				<path id="Fill-171" class="st54" d="M24.8,2272.4h-2.9c-1,0-1.8-0.6-1.8-1.3v-7.3c0-0.7,0.8-1.3,1.8-1.3h2.9
					c1,0,1.8,0.6,1.8,1.3v7.3C26.6,2271.9,25.8,2272.4,24.8,2272.4"/>
				<path id="Fill-173" class="st59" d="M12.3,2267.3c0,0.4,0.3,0.7,0.6,0.7c0.4,0,0.6-0.3,0.6-0.7c0-0.4-0.3-0.7-0.6-0.7
					C12.5,2266.6,12.3,2266.9,12.3,2267.3"/>
				<path id="Fill-175" class="st59" d="M9.8,2265.4c0,0.4,0.3,0.7,0.6,0.7c0.4,0,0.6-0.3,0.6-0.7s-0.3-0.7-0.6-0.7
					C10.1,2264.7,9.8,2265,9.8,2265.4"/>
				<path id="Fill-177" class="st59" d="M33.1,2267.3c0,0.4,0.3,0.7,0.6,0.7c0.4,0,0.6-0.3,0.6-0.7c0-0.4-0.3-0.7-0.6-0.7
					C33.4,2266.6,33.1,2266.9,33.1,2267.3"/>
				<path id="Fill-179" class="st59" d="M35.3,2266c0,0.4,0.3,0.7,0.6,0.7c0.4,0,0.6-0.3,0.6-0.7c0-0.4-0.3-0.7-0.6-0.7
					C35.6,2265.4,35.3,2265.6,35.3,2266"/>
				<line id="Stroke-197" class="st60" x1="20.5" y1="2263.1" x2="26.2" y2="2263.1"/>
				<path id="Fill-199" class="st53" d="M38.1,2260.2c1.1,0.6,2.2,0.2,2.9-0.7c-0.5-8-6.4-14.6-14-16.1
					C27.6,2250.7,31.9,2257,38.1,2260.2"/>
				<path id="Fill-201" class="st53" d="M30.2,2245.7c-2.5-2-5.7-3.2-9.2-3.2c-8.2,0-14.9,6.7-14.9,15c0,0.7,0.1,1.5,0.2,2.2
					C15.9,2258.2,24.3,2253,30.2,2245.7"/>
				<g id="Group-9" transform="translate(11.853553, 15.557367)">
					<path id="Stroke-207" class="st61" d="M3.6,2240.5c-1.9,0-3.7,0.8-4.9,2.1c-1.3,1.3-2,3-2,5c0,1.9,0.8,3.7,2,5
						c1.3,1.3,3,2.1,4.9,2.1s3.7-0.8,4.9-2.1c1.3-1.3,2-3,2-5c0-1.9-0.8-3.7-2-5C7.3,2241.3,5.6,2240.5,3.6,2240.5z"/>
					<path id="Combined-Shape_7_" class="st62" d="M3.6,2242c1.3,0,2.5,0.5,3.4,1.2l-7.7,7.7c-0.7-0.9-1.2-2.1-1.2-3.4
						C-1.8,2244.5,0.6,2242,3.6,2242z"/>
				</g>
				<g id="Group-9-Copy" transform="translate(27.853553, 15.557367)">
					<path id="Stroke-207_1_" class="st61" d="M3.6,2240.5c-1.9,0-3.7,0.8-4.9,2.1c-1.3,1.3-2,3-2,5c0,1.9,0.8,3.7,2,5
						c1.3,1.3,3,2.1,4.9,2.1s3.7-0.8,4.9-2.1c1.3-1.3,2-3,2-5c0-1.9-0.8-3.7-2-5C7.3,2241.3,5.6,2240.5,3.6,2240.5z"/>
					<path id="Combined-Shape_8_" class="st62" d="M3.6,2242c1.3,0,2.5,0.5,3.4,1.2l-7.7,7.7c-0.7-0.9-1.2-2.1-1.2-3.4
						C-1.8,2244.5,0.6,2242,3.6,2242z"/>
				</g>
			</g>
		</g>
		<path id="Combined-Shape-Copy_1_" class="st63" d="M59.1,2278l0.1,4.3l1.4,12.3c-1,0.3-2.3,0.4-4.3,0.4H19.5
			c-2.3,0-3.7-0.2-4.7-0.5l1.9-11.8l-0.1-4.6l19.6,8c1,0.4,2.1,0.4,3,0L59.1,2278z"/>
		<path id="Combined-Shape_9_" class="st3" d="M63.8,2279l0.1,4.3l1.8,12.3c-1.2,0.3-2.8,0.4-5.2,0.4H15.6c-2.8,0-4.5-0.2-5.7-0.5
			l2.3-11.8L12,2279l24.5,8.2c0.8,0.3,1.7,0.3,2.5,0L63.8,2279z"/>
		<path id="Combined-Shape_10_" class="st8" d="M10,2281.4c0.4,0,0.8,0.1,1.2,0.2l25.9,8c0.8,0.2,1.6,0.2,2.4,0l25.3-8
			c2.1-0.7,4.4,0.5,5,2.6c0.1,0.4,0.2,0.8,0.2,1.2l0,7.8c-0.6,0.6-1.3,1.1-2,1.5c-1.6,0.9-3.2,1.3-7.5,1.3H15.6
			c-4.4,0-6-0.5-7.5-1.3c-0.7-0.4-1.4-0.9-2-1.5l0-7.8C6,2283.2,7.8,2281.4,10,2281.4z"/>
		<path id="Combined-Shape_11_" class="st64" d="M69.8,2284.3c0.1,0.4,0.2,0.8,0.2,1.2v7.8c-0.6,0.6-1.3,1.1-2,1.5
			c-1.6,0.9-3.2,1.3-7.5,1.3l-22.4,0l0-6.2c0.5,0,1,0,1.5-0.2l25.3-8C66.9,2281,69.1,2282.2,69.8,2284.3z"/>
	</g>
</g>
<g id="la">
	<g id="Group_40_" transform="translate(6.000000, 6.000000)">
		<path id="Rectangle-3_42_" class="st10" d="M55.4,2306H10.6c-4.9,0-6.7,0.6-8.5,1.5c-2,1-3.5,2.6-4.5,4.5c-1,1.8-1.5,3.6-1.5,8.5
			v28.9c0,4.9,0.6,6.7,1.5,8.5c1,2,2.6,3.5,4.5,4.5c1.8,1,3.6,1.5,8.5,1.5h44.9c4.9,0,6.7-0.6,8.5-1.5c2-1,3.5-2.6,4.5-4.5
			c1-1.8,1.5-3.6,1.5-8.5v-28.9c0-4.9-0.6-6.7-1.5-8.5c-1-2-2.6-3.5-4.5-4.5C62.1,2306.6,60.4,2306,55.4,2306z"/>
	</g>
	<g id="Group-7_1_" transform="translate(19.000000, 15.000000)">
		<g id="Group_42_" transform="translate(0.806452, 0.096774)">
			<g id="Group-5">
				<g id="Group-4_1_">
					<g id="Group-3_3_">
						<g id="Group-2_3_">
							<path id="Shape_2_" class="st65" d="M4.7,2320.2c-0.2,1-0.3,2.1-0.3,3.2c0,1.3,0.2,2.6,0.5,3.9 M10,2334.9
								c2.5,1.9,5.6,3.1,9,3.1c3.9,0.5,7.1,2.5,9.8,5.9"/>
							<path id="Rectangle_13_" class="st33" d="M7,2315l0.1-0.6c0.3-3.5,3.4-6.2,7-5.9l0.6,0.1l0,0l-0.1,0.6
								c-0.3,3.5-3.4,6.2-7,5.9L7,2315L7,2315z"/>
							<path id="Rectangle-Copy_1_" class="st33" d="M3.7,2322.2l-0.6-0.5c-2.8-2.2-3.2-6.3-1-9.1l0.5-0.6l0,0l0.6,0.5
								c2.8,2.2,3.2,6.3,1,9.1L3.7,2322.2L3.7,2322.2z"/>
							<path id="Rectangle-Copy_2_" class="st33" d="M10.1,2335.9l-0.7,0.2c-3.4,1.1-7-0.8-8.1-4.1l-0.2-0.7l0,0l0.7-0.2
								c3.4-1.1,7,0.8,8.1,4.1L10.1,2335.9L10.1,2335.9z"/>
							<path id="Rectangle-Copy_3_" class="st33" d="M11.2,2335.8l0.4-0.7c1.7-3.1,0.5-7.1-2.7-8.7l-0.7-0.4l0,0l-0.4,0.7
								c-1.7,3.1-0.5,7.1,2.7,8.7L11.2,2335.8L11.2,2335.8z"/>
							<path id="Rectangle-Copy_4_" class="st33" d="M3.2,2323.5l0.1-0.8c0.5-3.5,3.8-6,7.3-5.5l0.8,0.1l0,0l-0.1,0.8
								c-0.5,3.5-3.8,6-7.3,5.5L3.2,2323.5L3.2,2323.5z"/>
						</g>
					</g>
				</g>
				
					<g id="Group_41_" transform="translate(27.000000, 17.935484) scale(-1, 1) translate(-27.000000, -17.935484) translate(11.612903, 0.000000)">
					<g id="Group-4_2_">
						<g id="Group-3_4_">
							<g id="Group-2_4_">
								<path id="Shape_3_" class="st65" d="M8.7,2320.2c-0.2,1-0.3,2.1-0.3,3.2c0,1.3,0.2,2.6,0.5,3.9 M14,2334.9
									c2.5,1.9,5.6,3.1,9,3.1c3.9,0.5,7.1,2.5,9.8,5.9"/>
								<path id="Rectangle_14_" class="st33" d="M11,2315l0.1-0.6c0.3-3.5,3.4-6.2,7-5.9l0.6,0.1l0,0l-0.1,0.6
									c-0.3,3.5-3.4,6.2-7,5.9L11,2315L11,2315z"/>
								<path id="Rectangle-Copy_5_" class="st33" d="M7.7,2322.2l-0.6-0.5c-2.8-2.2-3.2-6.3-1-9.1l0.5-0.6l0,0l0.6,0.5
									c2.8,2.2,3.2,6.3,1,9.1L7.7,2322.2L7.7,2322.2z"/>
								<path id="Rectangle-Copy_6_" class="st33" d="M14.1,2335.9l-0.7,0.2c-3.4,1.1-7-0.8-8.1-4.1l-0.2-0.7l0,0l0.7-0.2
									c3.4-1.1,7,0.8,8.1,4.1L14.1,2335.9L14.1,2335.9z"/>
								<path id="Rectangle-Copy_7_" class="st33" d="M15.2,2335.8l0.4-0.7c1.7-3.1,0.5-7.1-2.7-8.7l-0.7-0.4l0,0l-0.4,0.7
									c-1.7,3.1-0.5,7.1,2.7,8.7L15.2,2335.8L15.2,2335.8z"/>
								<path id="Rectangle-Copy_8_" class="st33" d="M7.2,2323.5l0.1-0.8c0.5-3.5,3.8-6,7.3-5.5l0.8,0.1l0,0l-0.1,0.8
									c-0.5,3.5-3.8,6-7.3,5.5L7.2,2323.5L7.2,2323.5z"/>
							</g>
						</g>
					</g>
				</g>
			</g>
		</g>
	</g>
</g>
<g id="gd">
	<g id="Group_43_" transform="translate(6.000000, 6.000000)">
		<path id="Rectangle-3_43_" class="st15" d="M55.4,2372H10.6c-4.9,0-6.7,0.6-8.5,1.5c-2,1-3.5,2.6-4.5,4.5c-1,1.8-1.5,3.6-1.5,8.5
			v28.9c0,4.9,0.6,6.7,1.5,8.5c1,2,2.6,3.5,4.5,4.5c1.8,1,3.6,1.5,8.5,1.5h44.9c4.9,0,6.7-0.6,8.5-1.5c2-1,3.5-2.6,4.5-4.5
			c1-1.8,1.5-3.6,1.5-8.5v-28.9c0-4.9-0.6-6.7-1.5-8.5c-1-2-2.6-3.5-4.5-4.5C62.1,2372.6,60.4,2372,55.4,2372z"/>
	</g>
	<g id="Group-10_1_" transform="translate(6.000000, 6.000000)">
		<g id="Group-6">
			<path class="st66" d="M55.4,2372H10.6c-4.9,0-6.7,0.6-8.5,1.5c-2,1-3.5,2.6-4.5,4.5c-1,1.8-1.5,3.6-1.5,8.5v28.9
				c0,4.9,0.6,6.7,1.5,8.5c1,2,2.6,3.5,4.5,4.5c1.8,1,3.6,1.5,8.5,1.5h44.9c4.9,0,6.7-0.6,8.5-1.5c2-1,3.5-2.6,4.5-4.5
				c1-1.8,1.5-3.6,1.5-8.5v-28.9c0-4.9-0.6-6.7-1.5-8.5c-1-2-2.6-3.5-4.5-4.5C62.1,2372.6,60.4,2372,55.4,2372z"/>
			<defs>
				<filter id="Adobe_OpacityMaskFilter" filterUnits="userSpaceOnUse" x="-1.8" y="2374.5" width="69.7" height="53.1">
					<feColorMatrix  type="matrix" values="1 0 0 0 0  0 1 0 0 0  0 0 1 0 0  0 0 0 1 0"/>
				</filter>
			</defs>
			<mask maskUnits="userSpaceOnUse" x="-1.8" y="2374.5" width="69.7" height="53.1" id="mask-2_1_">
				<g class="st67">
					<path id="path-1_1_" class="st6" d="M10.6,2374h44.9c4.4,0,6,0.5,7.5,1.3c1.6,0.9,2.9,2.1,3.7,3.7c0.9,1.6,1.3,3.2,1.3,7.5
						v28.9c0,4.4-0.5,6-1.3,7.5s-2.1,2.9-3.7,3.7c-1.6,0.9-3.2,1.3-7.5,1.3H10.6c-4.4,0-6-0.5-7.5-1.3c-1.6-0.9-2.9-2.1-3.7-3.7
						s-1.3-3.2-1.3-7.5v-28.9c0-4.4,0.5-6,1.3-7.5c0.9-1.6,2.1-2.9,3.7-3.7C4.6,2374.5,6.2,2374,10.6,2374z"/>
				</g>
			</mask>
			<path id="Path_78_" class="st68" d="M61.5,2374.7c0.5,0.2,1,0.4,1.5,0.6c1.6,0.9,2.9,2.1,3.7,3.7c0.6,1.2,1,2.3,1.2,4.6
				L43.1,2401l24.8,17.4c-0.2,2.3-0.6,3.4-1.2,4.6c-0.9,1.6-2.1,2.9-3.7,3.7c-0.5,0.2-0.9,0.5-1.5,0.6l-28-19.6l-28.3,19.8
				c-0.9-0.2-1.5-0.5-2.2-0.9c-1.6-0.9-2.9-2.1-3.7-3.7c-0.6-1.1-1-2.1-1.2-4l25.8-18l-25.8-18c0.2-1.8,0.6-2.9,1.2-4
				c0.9-1.6,2.1-2.9,3.7-3.7c0.7-0.4,1.3-0.6,2.2-0.9l28.3,19.8L61.5,2374.7z"/>
		</g>
	</g>
</g>
<g id="fi">
	<g id="Group_44_" transform="translate(6.000000, 6.000000)">
		<path id="Rectangle-3_44_" class="st7" d="M55.4,2438H10.6c-4.9,0-6.7,0.6-8.5,1.5c-2,1-3.5,2.6-4.5,4.5c-1,1.8-1.5,3.6-1.5,8.5
			v28.9c0,4.9,0.6,6.7,1.5,8.5c1,2,2.6,3.5,4.5,4.5c1.8,1,3.6,1.5,8.5,1.5h44.9c4.9,0,6.7-0.6,8.5-1.5c2-1,3.5-2.6,4.5-4.5
			c1-1.8,1.5-3.6,1.5-8.5v-28.9c0-4.9-0.6-6.7-1.5-8.5c-1-2-2.6-3.5-4.5-4.5C62.1,2438.6,60.4,2438,55.4,2438z"/>
		<polygon id="Path_79_" class="st25" points="29,2461 68,2461 68,2473 29,2473 29,2494 17,2494 17,2473 -2,2473 -2,2461 17,2461 
			17,2440 29,2440 		"/>
	</g>
</g>
<g id="Yiddish">
	<path id="Rectangle-3_45_" class="st69" d="M63.1,2510c0.3,0,0.5,0,0.8,0l0,0l0.7,0l1,0c0.2,0,0.4,0,0.6,0l0,0l0.6,0.1
		c1.3,0.1,2.3,0.4,3.1,0.7c3.7,1.8,5.1,3.4,6.1,5.2c0.8,1.8,1,2.5,1.2,3.4c0.2,1.3,0.2,1.4,0.2,1.6l0,0l0,0.6l0,0.6l0,1l0,1.2v28.7
		l0,0.8l0,1.1l0,0.7c0,0.5-0.1,1-0.1,1.5c-0.3,2-0.6,2.7-0.8,3.4c-1.6,3.1-3.1,4.5-5,5.6c-2.7,1-3.6,1.2-4.4,1.3l-0.2,0l0,0l-0.1,0
		l-0.6,0.1l-0.6,0l-1,0l-0.7,0l-45.8,0l-0.8,0l-1,0l-0.9-0.1l-0.6-0.1c-1-0.1-1.8-0.3-2.5-0.5c-4.4-2-5.8-3.6-6.8-5.4
		c-1.1-2.5-1.2-3.5-1.4-4.7l0,0l-0.1-0.6l-0.1-0.9c0-0.2,0-0.5,0-0.7l0,0l0-0.7l0-0.8v-28.7c0-0.3,0-0.5,0-0.8l0,0l0-0.7l0-1
		c0-0.2,0-0.4,0-0.6l0,0l0.1-0.6c0.1-1.3,0.4-2.3,0.7-3.1c1.8-3.7,3.4-5.1,5.2-6.1c2.5-1.1,3.5-1.2,4.7-1.4l0,0l0.6-0.1l0.9-0.1
		c0.2,0,0.5,0,0.7,0l0,0l0.7,0L63.1,2510z"/>
	<path id="Path_80_" class="st19" d="M28.3,2519c0.2,0,0.3,0.1,0.5,0.2l23.7,17.1c1.2,0.9,2,2.3,2,3.9v6.3c0,0.4-0.4,0.8-0.8,0.8
		c-0.2,0-0.3-0.1-0.5-0.2l-16.9-12.2c0.1,0.3,0.2,0.7,0.2,1.1v11.2c0,0.4-0.4,0.8-0.8,0.8H32c-2.5,0-4.5-2-4.5-4.5v-5.8
		c0-2.5,2-4.5,4.5-4.5h1.7c0.1,0,0.1,0,0.2,0l-4.4-3.1c-1.2-0.9-2-2.3-2-3.9v-6.3C27.5,2519.4,27.9,2519,28.3,2519z"/>
	<path id="Path_81_" class="st16" d="M47.1,2517.3l-2.7,3.8c-1.6,2.3-1.1,5.5,1.2,7.1l5.4,3.8c0.3,0.2,0.6,0.1,0.8-0.1l2.7-3.8
		c1.6-2.3,1.1-5.5-1.2-7.1l-5.4-3.8C47.6,2516.9,47.3,2517,47.1,2517.3z"/>
	<path id="Path_82_" class="st19" d="M46.6,2553c1.1,0,1.9,0.9,1.9,2c0,1.1-0.9,2-1.9,2l-3,0l0.4,2.5c0.2,1.2-0.6,2.2-1.7,2.4
		c-0.1,0-0.2,0-0.3,0c-1.1,0-2-0.9-2-2.1c0-0.1,0-0.2,0-0.3l0.4-2.5l-2.9,0c-1.1,0-1.9-0.9-1.9-2c0-1.1,0.9-2,1.9-2H46.6z"/>
</g>
</svg>
