<?xml version="1.0" encoding="utf-8"?>
<!-- Generator: Adobe Illustrator 25.0.1, SVG Export Plug-In . SVG Version: 6.00 Build 0)  -->
<svg version="1.1" id="katman_1" xmlns="http://www.w3.org/2000/svg" xmlns:xlink="http://www.w3.org/1999/xlink" x="0px" y="0px"
	 viewBox="0 0 78 61.8" style="enable-background:new 0 0 78 61.8;" xml:space="preserve">
<style type="text/css">
	.st0{fill-rule:evenodd;clip-rule:evenodd;fill:#EEEEEE;stroke:#FFFFFF;stroke-width:4;}
	.st1{fill-rule:evenodd;clip-rule:evenodd;fill:#FF4B4B;}
	.st2{fill-rule:evenodd;clip-rule:evenodd;fill:#1CB0F6;}
	.st3{fill:#FFFFFF;}
	.st4{fill-rule:evenodd;clip-rule:evenodd;fill:#FF4B4B;stroke:#FFFFFF;stroke-width:4;}
	.st5{fill-rule:evenodd;clip-rule:evenodd;fill:#FFC800;}
	.st6{fill-rule:evenodd;clip-rule:evenodd;fill:#FFFFFF;}
	.st7{fill:#EEEEEE;stroke:#FFFFFF;stroke-width:4;}
	.st8{fill:#1CB0F6;}
	.st9{fill:#FF4B4B;}
	.st10{fill:#FF4B4B;stroke:#FFFFFF;stroke-width:4;}
	.st11{fill:#FFC800;}
	.st12{fill:#4C4C4C;}
	.st13{fill:#78C800;}
	.st14{fill:#FFC300;}
	.st15{fill:#1CB0F6;stroke:#FFFFFF;stroke-width:4;}
	.st16{fill:#EEEEEE;}
	.st17{fill:#78C800;stroke:#FFFFFF;stroke-width:4;}
	.st18{fill:#FF9600;}
	.st19{fill-rule:evenodd;clip-rule:evenodd;fill:#EEEEEE;}
	.st20{fill:#4B4B4B;stroke:#FFFFFF;stroke-width:4;}
	.st21{fill:#FFC300;stroke:#FFFFFF;stroke-width:4;}
	.st22{fill:#7AC70C;}
	.st23{fill:#4B4B4B;}
	.st24{fill:#7AC70C;stroke:#FFFFFF;stroke-width:4;}
	.st25{fill-rule:evenodd;clip-rule:evenodd;fill:#1899D6;}
	.st26{fill:#1899D6;}
	.st27{fill:#FFCE8E;stroke:#FFFFFF;stroke-width:4;}
	.st28{fill:none;stroke:#FFFFFF;stroke-width:3.2;}
	.st29{fill:none;stroke:#7AC70C;stroke-width:6.4;stroke-linecap:round;stroke-linejoin:round;}
	.st30{fill:none;stroke:#FFFFFF;}
	.st31{fill-rule:evenodd;clip-rule:evenodd;fill:#7AC70C;}
	
		.st32{fill-rule:evenodd;clip-rule:evenodd;fill:#FFFFFF;stroke:#FFFFFF;stroke-width:0.7587;stroke-linecap:round;stroke-linejoin:round;}
	.st33{fill-rule:evenodd;clip-rule:evenodd;fill:#FFD300;}
	.st34{fill:#FFC800;stroke:#FFFFFF;stroke-width:4;}
	.st35{fill-rule:evenodd;clip-rule:evenodd;fill:#FF9600;}
	.st36{fill:#8EE000;}
	.st37{fill-rule:evenodd;clip-rule:evenodd;fill:#8EE000;}
	.st38{fill-rule:evenodd;clip-rule:evenodd;fill:#4B4B4B;}
	.st39{fill-rule:evenodd;clip-rule:evenodd;fill:#F48000;}
	.st40{fill:#FFC200;}
	.st41{fill-rule:evenodd;clip-rule:evenodd;fill:#FFE747;}
	.st42{fill:#C7C7C7;}
	.st43{fill:#F34848;}
	.st44{fill:#D73A3A;}
	.st45{fill:#D8D8D8;}
	.st46{fill-rule:evenodd;clip-rule:evenodd;fill:#A560E8;}
	.st47{fill-rule:evenodd;clip-rule:evenodd;fill:#8F50D8;}
	.st48{fill-rule:evenodd;clip-rule:evenodd;fill:#FFD836;}
	.st49{fill-rule:evenodd;clip-rule:evenodd;fill:#FFC715;}
	.st50{fill-rule:evenodd;clip-rule:evenodd;fill:#2788E0;}
	.st51{fill-rule:evenodd;clip-rule:evenodd;fill:#4495FF;}
	.st52{fill-rule:evenodd;clip-rule:evenodd;fill:#723A0F;}
	.st53{fill-rule:evenodd;clip-rule:evenodd;fill:#97501A;}
	.st54{fill-rule:evenodd;clip-rule:evenodd;fill:#FD937E;}
	.st55{fill:none;stroke:#97501A;stroke-width:2.3306;stroke-linecap:round;stroke-linejoin:round;}
	.st56{fill:none;stroke:#97501A;stroke-width:1.4568;stroke-linecap:round;stroke-linejoin:round;}
	.st57{fill-rule:evenodd;clip-rule:evenodd;fill:#FFB5A1;}
	.st58{fill-rule:evenodd;clip-rule:evenodd;fill:#E58D7F;}
	.st59{fill-rule:evenodd;clip-rule:evenodd;fill:#FF9D8A;}
	.st60{fill:none;stroke:#97501A;stroke-width:2;}
	.st61{fill-rule:evenodd;clip-rule:evenodd;fill:#FFB5A1;stroke:#97501A;stroke-width:3;}
	.st62{fill-rule:evenodd;clip-rule:evenodd;fill:#FFCBBD;}
	.st63{fill:#F9F9F9;}
	.st64{fill:#039CE5;}
	.st65{fill:none;stroke:#FFD300;stroke-width:2.6452;stroke-linecap:round;stroke-linejoin:round;}
	.st66{fill:none;stroke:#FFFFFF;stroke-width:4;}
	.st67{filter:url(#Adobe_OpacityMaskFilter);}
	.st68{mask:url(#mask-2_1_);fill:#EEEEEE;}
	.st69{fill:#1254A9;stroke:#FFFFFF;stroke-width:4;}
</style>
<g id="en">
	<g id="Group" transform="translate(6.000000, 6.000000)">
		<path id="Rectangle-3" class="st0" d="M55.4-664H10.6c-4.9,0-6.7,0.6-8.5,1.5c-2,1-3.5,2.6-4.5,4.5c-1,1.8-1.5,3.6-1.5,8.5v28.9
			c0,4.9,0.6,6.7,1.5,8.5c1,2,2.6,3.5,4.5,4.5c1.8,1,3.6,1.5,8.5,1.5h44.9c4.9,0,6.7-0.6,8.5-1.5c2-1,3.5-2.6,4.5-4.5
			c1-1.8,1.5-3.6,1.5-8.5v-28.9c0-4.9-0.6-6.7-1.5-8.5c-1-2-2.6-3.5-4.5-4.5C62.1-663.4,60.4-664,55.4-664z"/>
		<path id="Path" class="st1" d="M10.6-662h44.9c4.4,0,6,0.5,7.5,1.3c1.6,0.9,2.9,2.1,3.7,3.7c0.2,0.3,0.3,0.6,0.5,1H-1.2
			c0.1-0.3,0.3-0.7,0.5-1c0.9-1.6,2.1-2.9,3.7-3.7C4.6-661.5,6.2-662,10.6-662z"/>
		<path id="Path_1_" class="st1" d="M68-650c0,0.2,0,0.4,0,0.6v5.4H-2v-5.4c0-0.2,0-0.4,0-0.6H68z"/>
		<polygon id="Path_2_" class="st1" points="68,-638 68,-632 -2,-632 -2,-638 		"/>
		<path id="Path_3_" class="st1" d="M68-620.5c0,0.2,0,0.4,0,0.6H-2c0-0.2,0-0.4,0-0.6v-5.4h70V-620.5z"/>
		<path id="Path_4_" class="st1" d="M67.2-614c-0.1,0.3-0.3,0.7-0.5,1c-0.9,1.6-2.1,2.9-3.7,3.7c-1.6,0.9-3.2,1.3-7.5,1.3H10.6
			c-4.4,0-6-0.5-7.5-1.3c-1.6-0.9-2.9-2.1-3.7-3.7c-0.2-0.3-0.3-0.6-0.5-1H67.2z"/>
		<path id="Path_5_" class="st2" d="M10.6-662H33v24H-2v-11.4c0-4.4,0.5-6,1.3-7.5s2.1-2.9,3.7-3.7C4.6-661.5,6.2-662,10.6-662z"/>
		<path id="Star-Copy" class="st3" d="M25.8-652.4l-1.3,0.7c-0.4,0.2-0.9,0.1-1.1-0.3c-0.1-0.2-0.1-0.3-0.1-0.5l0.2-1.4
			c0-0.1,0-0.3-0.1-0.4l-1-1c-0.3-0.3-0.3-0.8,0-1.2c0.1-0.1,0.3-0.2,0.5-0.2l1.4-0.2c0.1,0,0.3-0.1,0.3-0.2l0.6-1.3
			c0.2-0.4,0.7-0.6,1.1-0.4c0.2,0.1,0.3,0.2,0.4,0.4l0.6,1.3c0.1,0.1,0.2,0.2,0.3,0.2l1.4,0.2c0.4,0.1,0.8,0.5,0.7,0.9
			c0,0.2-0.1,0.3-0.2,0.5l-1,1c-0.1,0.1-0.1,0.2-0.1,0.4l0.2,1.4c0.1,0.4-0.2,0.9-0.7,0.9c-0.2,0-0.4,0-0.5-0.1l-1.3-0.7
			C26.1-652.4,25.9-652.4,25.8-652.4z"/>
		<path id="Star-Copy-4" class="st3" d="M25.8-642.4l-1.3,0.7c-0.4,0.2-0.9,0.1-1.1-0.3c-0.1-0.2-0.1-0.3-0.1-0.5l0.2-1.4
			c0-0.1,0-0.3-0.1-0.4l-1-1c-0.3-0.3-0.3-0.8,0-1.2c0.1-0.1,0.3-0.2,0.5-0.2l1.4-0.2c0.1,0,0.3-0.1,0.3-0.2l0.6-1.3
			c0.2-0.4,0.7-0.6,1.1-0.4c0.2,0.1,0.3,0.2,0.4,0.4l0.6,1.3c0.1,0.1,0.2,0.2,0.3,0.2l1.4,0.2c0.4,0.1,0.8,0.5,0.7,0.9
			c0,0.2-0.1,0.3-0.2,0.5l-1,1c-0.1,0.1-0.1,0.2-0.1,0.4l0.2,1.4c0.1,0.4-0.2,0.9-0.7,0.9c-0.2,0-0.4,0-0.5-0.1l-1.3-0.7
			C26.1-642.4,25.9-642.4,25.8-642.4z"/>
		<path id="Star-Copy-2" class="st3" d="M15.8-652.4l-1.3,0.7c-0.4,0.2-0.9,0.1-1.1-0.3c-0.1-0.2-0.1-0.3-0.1-0.5l0.2-1.4
			c0-0.1,0-0.3-0.1-0.4l-1-1c-0.3-0.3-0.3-0.8,0-1.2c0.1-0.1,0.3-0.2,0.5-0.2l1.4-0.2c0.1,0,0.3-0.1,0.3-0.2l0.6-1.3
			c0.2-0.4,0.7-0.6,1.1-0.4c0.2,0.1,0.3,0.2,0.4,0.4l0.6,1.3c0.1,0.1,0.2,0.2,0.3,0.2l1.4,0.2c0.4,0.1,0.8,0.5,0.7,0.9
			c0,0.2-0.1,0.3-0.2,0.5l-1,1c-0.1,0.1-0.1,0.2-0.1,0.4l0.2,1.4c0.1,0.4-0.2,0.9-0.7,0.9c-0.2,0-0.4,0-0.5-0.1l-1.3-0.7
			C16.1-652.4,15.9-652.4,15.8-652.4z"/>
		<path id="Star-Copy-5" class="st3" d="M15.8-642.4l-1.3,0.7c-0.4,0.2-0.9,0.1-1.1-0.3c-0.1-0.2-0.1-0.3-0.1-0.5l0.2-1.4
			c0-0.1,0-0.3-0.1-0.4l-1-1c-0.3-0.3-0.3-0.8,0-1.2c0.1-0.1,0.3-0.2,0.5-0.2l1.4-0.2c0.1,0,0.3-0.1,0.3-0.2l0.6-1.3
			c0.2-0.4,0.7-0.6,1.1-0.4c0.2,0.1,0.3,0.2,0.4,0.4l0.6,1.3c0.1,0.1,0.2,0.2,0.3,0.2l1.4,0.2c0.4,0.1,0.8,0.5,0.7,0.9
			c0,0.2-0.1,0.3-0.2,0.5l-1,1c-0.1,0.1-0.1,0.2-0.1,0.4l0.2,1.4c0.1,0.4-0.2,0.9-0.7,0.9c-0.2,0-0.4,0-0.5-0.1l-1.3-0.7
			C16.1-642.4,15.9-642.4,15.8-642.4z"/>
		<path id="Star-Copy-3" class="st3" d="M5.8-652.4l-1.3,0.7c-0.4,0.2-0.9,0.1-1.1-0.3c-0.1-0.2-0.1-0.3-0.1-0.5l0.2-1.4
			c0-0.1,0-0.3-0.1-0.4l-1-1c-0.3-0.3-0.3-0.8,0-1.2c0.1-0.1,0.3-0.2,0.5-0.2l1.4-0.2c0.1,0,0.3-0.1,0.3-0.2l0.6-1.3
			c0.2-0.4,0.7-0.6,1.1-0.4c0.2,0.1,0.3,0.2,0.4,0.4l0.6,1.3c0.1,0.1,0.2,0.2,0.3,0.2l1.4,0.2c0.4,0.1,0.8,0.5,0.7,0.9
			c0,0.2-0.1,0.3-0.2,0.5l-1,1c-0.1,0.1-0.1,0.2-0.1,0.4l0.2,1.4c0.1,0.4-0.2,0.9-0.7,0.9c-0.2,0-0.4,0-0.5-0.1l-1.3-0.7
			C6.1-652.4,5.9-652.4,5.8-652.4z"/>
		<path id="Star-Copy-6" class="st3" d="M5.8-642.4l-1.3,0.7c-0.4,0.2-0.9,0.1-1.1-0.3c-0.1-0.2-0.1-0.3-0.1-0.5l0.2-1.4
			c0-0.1,0-0.3-0.1-0.4l-1-1c-0.3-0.3-0.3-0.8,0-1.2c0.1-0.1,0.3-0.2,0.5-0.2l1.4-0.2c0.1,0,0.3-0.1,0.3-0.2l0.6-1.3
			c0.2-0.4,0.7-0.6,1.1-0.4c0.2,0.1,0.3,0.2,0.4,0.4l0.6,1.3c0.1,0.1,0.2,0.2,0.3,0.2l1.4,0.2c0.4,0.1,0.8,0.5,0.7,0.9
			c0,0.2-0.1,0.3-0.2,0.5l-1,1c-0.1,0.1-0.1,0.2-0.1,0.4l0.2,1.4c0.1,0.4-0.2,0.9-0.7,0.9c-0.2,0-0.4,0-0.5-0.1l-1.3-0.7
			C6.1-642.4,5.9-642.4,5.8-642.4z"/>
	</g>
</g>
<g id="es">
	<g id="Group_1_" transform="translate(6.000000, 6.000000)">
		<path id="Rectangle-3_1_" class="st4" d="M55.4-598H10.6c-4.9,0-6.7,0.6-8.5,1.5c-2,1-3.5,2.6-4.5,4.5c-1,1.8-1.5,3.6-1.5,8.5
			v28.9c0,4.9,0.6,6.7,1.5,8.5c1,2,2.6,3.5,4.5,4.5c1.8,1,3.6,1.5,8.5,1.5h44.9c4.9,0,6.7-0.6,8.5-1.5c2-1,3.5-2.6,4.5-4.5
			c1-1.8,1.5-3.6,1.5-8.5v-28.9c0-4.9-0.6-6.7-1.5-8.5c-1-2-2.6-3.5-4.5-4.5C62.1-597.4,60.4-598,55.4-598z"/>
		<polygon id="Rectangle-4" class="st5" points="-2,-580.5 68,-580.5 68,-557.4 -2,-557.4 		"/>
		<path id="Rectangle-14" class="st6" d="M25.2-574.8c1.1,0,1.9,0.9,1.9,1.9v7.7c0,1.1-0.9,1.9-1.9,1.9c-1.1,0-1.9-0.9-1.9-1.9v-7.7
			C23.3-573.9,24.1-574.8,25.2-574.8z"/>
		<path id="Rectangle-14-Copy" class="st6" d="M5.8-574.8c1.1,0,1.9,0.9,1.9,1.9v7.7c0,1.1-0.9,1.9-1.9,1.9s-1.9-0.9-1.9-1.9v-7.7
			C3.8-573.9,4.7-574.8,5.8-574.8z"/>
		<path id="Rectangle-15" class="st1" d="M11.4-576.7h8.2c1,0,1.8,0.8,1.8,1.8v7.8c0,3.2-2.6,5.8-5.8,5.8s-5.8-2.6-5.8-5.8v-7.8
			C9.7-575.9,10.4-576.7,11.4-576.7z"/>
	</g>
</g>
<g id="fr">
	<g id="Group_2_" transform="translate(6.000000, 6.000000)">
		<path id="Rectangle-3_2_" class="st7" d="M55.4-532H10.6c-4.9,0-6.7,0.6-8.5,1.5c-2,1-3.5,2.6-4.5,4.5c-1,1.8-1.5,3.6-1.5,8.5
			v28.9c0,4.9,0.6,6.7,1.5,8.5c1,2,2.6,3.5,4.5,4.5c1.8,1,3.6,1.5,8.5,1.5h44.9c4.9,0,6.7-0.6,8.5-1.5c2-1,3.5-2.6,4.5-4.5
			c1-1.8,1.5-3.6,1.5-8.5v-28.9c0-4.9-0.6-6.7-1.5-8.5c-1-2-2.6-3.5-4.5-4.5C62.1-531.4,60.4-532,55.4-532z"/>
		<path id="Path_6_" class="st8" d="M21.6-530v54H10.6c-4.4,0-6-0.5-7.5-1.3c-1.6-0.9-2.9-2.1-3.7-3.7c-0.9-1.6-1.3-3.2-1.3-7.5
			v-28.9c0-4.4,0.5-6,1.3-7.5s2.1-2.9,3.7-3.7c1.6-0.9,3.2-1.3,7.5-1.3H21.6z"/>
		<path id="Path_7_" class="st9" d="M44.4-530h11.1c4.4,0,6,0.5,7.5,1.3c1.6,0.9,2.9,2.1,3.7,3.7s1.3,3.2,1.3,7.5v28.9
			c0,4.4-0.5,6-1.3,7.5c-0.9,1.6-2.1,2.9-3.7,3.7c-1.6,0.9-3.2,1.3-7.5,1.3H44.4V-530z"/>
	</g>
</g>
<g id="de">
	<g id="Group_3_" transform="translate(6.000000, 6.000000)">
		<path id="Rectangle-3_3_" class="st10" d="M55.4-466H10.6c-4.9,0-6.7,0.6-8.5,1.5c-2,1-3.5,2.6-4.5,4.5c-1,1.8-1.5,3.6-1.5,8.5
			v28.9c0,4.9,0.6,6.7,1.5,8.5c1,2,2.6,3.5,4.5,4.5c1.8,1,3.6,1.5,8.5,1.5h44.9c4.9,0,6.7-0.6,8.5-1.5c2-1,3.5-2.6,4.5-4.5
			c1-1.8,1.5-3.6,1.5-8.5v-28.9c0-4.9-0.6-6.7-1.5-8.5c-1-2-2.6-3.5-4.5-4.5C62.1-465.4,60.4-466,55.4-466z"/>
		<path id="Path_8_" class="st11" d="M68-428v5.4c0,4.4-0.5,6-1.3,7.5c-0.9,1.6-2.1,2.9-3.7,3.7c-1.6,0.9-3.2,1.3-7.5,1.3H10.6
			c-4.4,0-6-0.5-7.5-1.3c-1.6-0.9-2.9-2.1-3.7-3.7c-0.9-1.6-1.3-3.2-1.3-7.5v-5.4H68z"/>
		<path id="Path_9_" class="st12" d="M10.6-464h44.9c4.4,0,6,0.5,7.5,1.3c1.6,0.9,2.9,2.1,3.7,3.7s1.3,3.2,1.3,7.5v5.4H-2v-5.4
			c0-4.4,0.5-6,1.3-7.5s2.1-2.9,3.7-3.7S6.2-464,10.6-464z"/>
	</g>
</g>
<g id="ja">
	<g id="Group_4_" transform="translate(6.000000, 6.000000)">
		<path id="Rectangle-3_4_" class="st0" d="M55.4-400H10.6c-4.9,0-6.7,0.6-8.5,1.5c-2,1-3.5,2.6-4.5,4.5c-1,1.8-1.5,3.6-1.5,8.5
			v28.9c0,4.9,0.6,6.7,1.5,8.5c1,2,2.6,3.5,4.5,4.5c1.8,1,3.6,1.5,8.5,1.5h44.9c4.9,0,6.7-0.6,8.5-1.5c2-1,3.5-2.6,4.5-4.5
			c1-1.8,1.5-3.6,1.5-8.5v-28.9c0-4.9-0.6-6.7-1.5-8.5c-1-2-2.6-3.5-4.5-4.5C62.1-399.4,60.4-400,55.4-400z"/>
		<circle id="Oval-19" class="st9" cx="33" cy="-371" r="14"/>
	</g>
</g>
<g id="it">
	<g id="Group_5_" transform="translate(6.000000, 6.000000)">
		<path id="Rectangle-3_5_" class="st7" d="M55.4-334H10.6c-4.9,0-6.7,0.6-8.5,1.5c-2,1-3.5,2.6-4.5,4.5c-1,1.8-1.5,3.6-1.5,8.5
			v28.9c0,4.9,0.6,6.7,1.5,8.5c1,2,2.6,3.5,4.5,4.5c1.8,1,3.6,1.5,8.5,1.5h44.9c4.9,0,6.7-0.6,8.5-1.5c2-1,3.5-2.6,4.5-4.5
			c1-1.8,1.5-3.6,1.5-8.5v-28.9c0-4.9-0.6-6.7-1.5-8.5c-1-2-2.6-3.5-4.5-4.5C62.1-333.4,60.4-334,55.4-334z"/>
		<path id="Path_10_" class="st13" d="M21.6-332v54H10.6c-4.4,0-6-0.5-7.5-1.3c-1.6-0.9-2.9-2.1-3.7-3.7c-0.9-1.6-1.3-3.2-1.3-7.5
			v-28.9c0-4.4,0.5-6,1.3-7.5s2.1-2.9,3.7-3.7s3.2-1.3,7.5-1.3H21.6z"/>
		<path id="Path_11_" class="st9" d="M44.4-332h11.1c4.4,0,6,0.5,7.5,1.3c1.6,0.9,2.9,2.1,3.7,3.7s1.3,3.2,1.3,7.5v28.9
			c0,4.4-0.5,6-1.3,7.5c-0.9,1.6-2.1,2.9-3.7,3.7c-1.6,0.9-3.2,1.3-7.5,1.3H44.4V-332z"/>
	</g>
</g>
<g id="ko">
	<g id="Group_6_" transform="translate(6.000000, 6.000000)">
		<path id="Rectangle-3_6_" class="st0" d="M55.4-268H10.6c-4.9,0-6.7,0.6-8.5,1.5c-2,1-3.5,2.6-4.5,4.5c-1,1.8-1.5,3.6-1.5,8.5
			v28.9c0,4.9,0.6,6.7,1.5,8.5c1,2,2.6,3.5,4.5,4.5c1.8,1,3.6,1.5,8.5,1.5h44.9c4.9,0,6.7-0.6,8.5-1.5c2-1,3.5-2.6,4.5-4.5
			c1-1.8,1.5-3.6,1.5-8.5v-28.9c0-4.9-0.6-6.7-1.5-8.5c-1-2-2.6-3.5-4.5-4.5C62.1-267.4,60.4-268,55.4-268z"/>
		<circle id="Oval-19_1_" class="st9" cx="33" cy="-239" r="13"/>
		<path id="Path_12_" class="st8" d="M20-238.5c2.2,2.3,4.4,3.5,6.6,3.5c2.2,0,4.3-1.2,6.4-3.5c2-2.3,4.1-3.5,6.3-3.5
			c2.2,0,4.4,1.1,6.6,3.2c-0.1,7.1-5.9,12.8-13,12.8C26-226,20.3-231.5,20-238.5z"/>
		<path id="Path_13_" class="st12" d="M15.1-218.3l-8.8-8.8c-0.5-0.5-0.5-1.3,0-1.9s1.3-0.5,1.9,0l8.8,8.8c0.5,0.5,0.5,1.3,0,1.9
			C16.4-217.8,15.6-217.8,15.1-218.3z"/>
		<path id="Path_14_" class="st12" d="M54.5-245.5l-3.2-3.2c-0.5-0.5-0.5-1.3,0-1.9s1.3-0.5,1.9,0l3.2,3.2c0.5,0.5,0.5,1.3,0,1.9
			C55.9-245,55-245,54.5-245.5z"/>
		<path id="Path_15_" class="st12" d="M7.2-248.9c-0.5,0.5-1.3,0.5-1.9,0c-0.5-0.5-0.5-1.3,0-1.9l8.8-8.8c0.5-0.5,1.3-0.5,1.9,0
			c0.5,0.5,0.5,1.3,0,1.9L7.2-248.9z"/>
		<path id="Path_16_" class="st12" d="M48.7-251.3l-3-3c-0.5-0.5-0.5-1.3,0-1.9c0.5-0.5,1.3-0.5,1.9,0l3,3c0.5,0.5,0.5,1.3,0,1.9
			C50-250.8,49.2-250.8,48.7-251.3z"/>
		<path id="Path_17_" class="st12" d="M12.7-227.6l-3-3c-0.5-0.5-0.5-1.3,0-1.9c0.5-0.5,1.3-0.5,1.9,0l3,3c0.5,0.5,0.5,1.3,0,1.9
			C14-227.1,13.2-227.1,12.7-227.6z"/>
		<path id="Path_18_" class="st12" d="M47.5-221.8c-0.5,0.5-1.3,0.5-1.9,0c-0.5-0.5-0.5-1.3,0-1.9l8.8-8.8c0.5-0.5,1.3-0.5,1.9,0
			c0.5,0.5,0.5,1.3,0,1.9L47.5-221.8z"/>
		<path id="Path_19_" class="st12" d="M58-249l-3.2-3.2c-0.5-0.5-0.5-1.3,0-1.9c0.5-0.5,1.3-0.5,1.9,0l3.2,3.2
			c0.5,0.5,0.5,1.3,0,1.9C59.4-248.5,58.5-248.5,58-249z"/>
		<path id="Path_20_" class="st12" d="M10.7-245.4c-0.5,0.5-1.3,0.5-1.9,0c-0.5-0.5-0.5-1.3,0-1.9l8.8-8.8c0.5-0.5,1.3-0.5,1.9,0
			c0.5,0.5,0.5,1.3,0,1.9L10.7-245.4z"/>
		<path id="Path_21_" class="st12" d="M51-218.3c-0.5,0.5-1.3,0.5-1.9,0c-0.5-0.5-0.5-1.3,0-1.9l8.8-8.8c0.5-0.5,1.3-0.5,1.9,0
			c0.5,0.5,0.5,1.3,0,1.9L51-218.3z"/>
		<path id="Path_22_" class="st12" d="M52.2-254.8l-3-3c-0.5-0.5-0.5-1.3,0-1.9s1.3-0.5,1.9,0l3,3c0.5,0.5,0.5,1.3,0,1.9
			C53.5-254.3,52.7-254.3,52.2-254.8z"/>
		<path id="Path_23_" class="st12" d="M18.5-221.8l-3.2-3.2c-0.5-0.5-0.5-1.3,0-1.9c0.5-0.5,1.3-0.5,1.9,0l3.2,3.2
			c0.5,0.5,0.5,1.3,0,1.9S19-221.3,18.5-221.8z"/>
	</g>
</g>
<g id="zh">
	<g id="Group-3" transform="translate(6.000000, 6.000000)">
		<path id="Rectangle-3_7_" class="st4" d="M55.4-202H10.6c-4.9,0-6.7,0.6-8.5,1.5c-2,1-3.5,2.6-4.5,4.5c-1,1.8-1.5,3.6-1.5,8.5
			v28.9c0,4.9,0.6,6.7,1.5,8.5c1,2,2.6,3.5,4.5,4.5c1.8,1,3.6,1.5,8.5,1.5h44.9c4.9,0,6.7-0.6,8.5-1.5c2-1,3.5-2.6,4.5-4.5
			c1-1.8,1.5-3.6,1.5-8.5v-28.9c0-4.9-0.6-6.7-1.5-8.5c-1-2-2.6-3.5-4.5-4.5C62.1-201.4,60.4-202,55.4-202z"/>
		<g id="Group-2" transform="translate(8.000000, 4.000000)">
			<g id="Group_7_" transform="translate(14.000000, 0.000000)">
				<path id="Star-Copy_1_" class="st14" d="M1.6-193l-1.3,0.2c-0.4,0.1-0.8-0.2-0.8-0.6c0-0.2,0-0.3,0.1-0.5l0.6-1.1
					c0.1-0.1,0.1-0.2,0-0.3l-0.6-1.2c-0.2-0.4,0-0.8,0.3-1c0.1-0.1,0.3-0.1,0.5-0.1l1.3,0.2c0.1,0,0.2,0,0.3-0.1l0.9-0.9
					c0.3-0.3,0.8-0.3,1,0c0.1,0.1,0.2,0.3,0.2,0.4l0.2,1.3c0,0.1,0.1,0.2,0.2,0.3l1.2,0.6c0.4,0.2,0.5,0.6,0.3,1
					c-0.1,0.1-0.2,0.3-0.3,0.3l-1.2,0.6c-0.1,0.1-0.2,0.2-0.2,0.3l-0.2,1.3c-0.1,0.4-0.4,0.7-0.8,0.6c-0.2,0-0.3-0.1-0.4-0.2
					l-0.9-0.9C1.8-193,1.7-193,1.6-193z"/>
				<path id="Star-Copy_2_" class="st14" d="M10.7-186.3l-0.9,0.9c-0.3,0.3-0.7,0.3-1,0c-0.1-0.1-0.2-0.3-0.2-0.4L8.3-187
					c0-0.1-0.1-0.2-0.2-0.3l-1.2-0.6c-0.4-0.2-0.5-0.6-0.4-1c0.1-0.1,0.2-0.3,0.3-0.3l1.2-0.6c0.1-0.1,0.2-0.2,0.2-0.3l0.2-1.3
					c0.1-0.4,0.4-0.7,0.8-0.6c0.2,0,0.3,0.1,0.4,0.2l0.9,0.9c0.1,0.1,0.2,0.1,0.3,0.1l1.3-0.2c0.4-0.1,0.8,0.2,0.9,0.6
					c0,0.2,0,0.3-0.1,0.5l-0.6,1.2c-0.1,0.1-0.1,0.2,0,0.3l0.6,1.1c0.2,0.4,0.1,0.8-0.3,1c-0.1,0.1-0.3,0.1-0.5,0.1l-1.3-0.2
					C10.9-186.4,10.8-186.4,10.7-186.3z"/>
				<path id="Star-Copy_3_" class="st14" d="M1.6-170.3l-1.3,0.2c-0.4,0.1-0.8-0.2-0.8-0.6c0-0.2,0-0.3,0.1-0.5l0.6-1.1
					c0.1-0.1,0.1-0.2,0-0.3l-0.6-1.2c-0.2-0.4,0-0.8,0.3-1c0.1-0.1,0.3-0.1,0.5-0.1l1.3,0.2c0.1,0,0.2,0,0.3-0.1l0.9-0.9
					c0.3-0.3,0.8-0.3,1,0c0.1,0.1,0.2,0.3,0.2,0.4l0.2,1.3c0,0.1,0.1,0.2,0.2,0.3l1.2,0.6c0.4,0.2,0.5,0.6,0.3,1
					c-0.1,0.1-0.2,0.3-0.3,0.3l-1.2,0.6c-0.1,0.1-0.2,0.2-0.2,0.3l-0.2,1.3C4-169.2,3.6-169,3.2-169c-0.2,0-0.3-0.1-0.4-0.2
					l-0.9-0.9C1.8-170.3,1.7-170.3,1.6-170.3z"/>
				<path id="Star-Copy_4_" class="st14" d="M9.8-176.6L8.7-176c-0.4,0.2-0.8,0.1-1-0.3c-0.1-0.1-0.1-0.3-0.1-0.5l0.2-1.3
					c0-0.1,0-0.2-0.1-0.3l-0.9-0.9c-0.3-0.3-0.3-0.8,0-1c0.1-0.1,0.3-0.2,0.4-0.2l1.3-0.2c0.1,0,0.2-0.1,0.3-0.2l0.6-1.2
					c0.2-0.4,0.6-0.5,1-0.3c0.1,0.1,0.3,0.2,0.3,0.3l0.6,1.2c0.1,0.1,0.2,0.2,0.3,0.2l1.3,0.2c0.4,0.1,0.7,0.4,0.6,0.8
					c0,0.2-0.1,0.3-0.2,0.4l-0.9,0.9c-0.1,0.1-0.1,0.2-0.1,0.3l0.2,1.3c0.1,0.4-0.2,0.8-0.6,0.9c-0.2,0-0.3,0-0.5-0.1l-1.1-0.6
					C10.1-176.7,9.9-176.7,9.8-176.6z"/>
			</g>
			<path id="Star" class="st14" d="M5.6-178.8l-2.6,1.3c-0.8,0.4-1.8,0.1-2.2-0.7c-0.2-0.3-0.2-0.7-0.2-1l0.5-2.8
				c0-0.3,0-0.5-0.2-0.7l-2.1-2c-0.6-0.6-0.7-1.7,0-2.3c0.3-0.3,0.6-0.4,0.9-0.5l2.9-0.4c0.3,0,0.5-0.2,0.6-0.5l1.3-2.6
				c0.4-0.8,1.4-1.1,2.2-0.7c0.3,0.2,0.6,0.4,0.7,0.7l1.3,2.6c0.1,0.2,0.4,0.4,0.6,0.5l2.9,0.4c0.9,0.1,1.5,1,1.4,1.9
				c-0.1,0.4-0.2,0.7-0.5,0.9l-2.1,2c-0.2,0.2-0.3,0.5-0.2,0.7l0.5,2.8c0.2,0.9-0.4,1.7-1.3,1.9c-0.4,0.1-0.7,0-1-0.2l-2.6-1.3
				C6.1-178.9,5.9-178.9,5.6-178.8z"/>
		</g>
	</g>
</g>
<g id="ru">
	<g id="Group_8_" transform="translate(6.000000, 6.000000)">
		<path id="Rectangle-3_8_" class="st15" d="M55.4-136H10.6c-4.9,0-6.7,0.6-8.5,1.5c-2,1-3.5,2.6-4.5,4.5c-1,1.8-1.5,3.6-1.5,8.5
			v28.9c0,4.9,0.6,6.7,1.5,8.5c1,2,2.6,3.5,4.5,4.5c1.8,1,3.6,1.5,8.5,1.5h44.9c4.9,0,6.7-0.6,8.5-1.5c2-1,3.5-2.6,4.5-4.5
			c1-1.8,1.5-3.6,1.5-8.5v-28.9c0-4.9-0.6-6.7-1.5-8.5c-1-2-2.6-3.5-4.5-4.5C62.1-135.4,60.4-136,55.4-136z"/>
		<path id="Path_24_" class="st9" d="M68-98v5.4c0,4.4-0.5,6-1.3,7.5s-2.1,2.9-3.7,3.7c-1.6,0.9-3.2,1.3-7.5,1.3H10.6
			c-4.4,0-6-0.5-7.5-1.3S0.2-83.4-0.7-85S-2-88.2-2-92.5V-98H68z"/>
		<path id="Path_25_" class="st16" d="M10.6-134h44.9c4.4,0,6,0.5,7.5,1.3c1.6,0.9,2.9,2.1,3.7,3.7c0.9,1.6,1.3,3.2,1.3,7.5v5.4H-2
			v-5.4c0-4.4,0.5-6,1.3-7.5c0.9-1.6,2.1-2.9,3.7-3.7C4.6-133.5,6.2-134,10.6-134z"/>
	</g>
</g>
<g id="pt-copy">
	<g id="Group_9_" transform="translate(6.000000, 2.000000)">
		<path id="Rectangle-3_9_" class="st17" d="M55.4-66H10.6c-4.9,0-6.7,0.6-8.5,1.5c-2,1-3.5,2.6-4.5,4.5c-1,1.8-1.5,3.6-1.5,8.5
			v28.9c0,4.9,0.6,6.7,1.5,8.5c1,2,2.6,3.5,4.5,4.5C3.9-8.6,5.6-8,10.6-8h44.9c4.9,0,6.7-0.6,8.5-1.5c2-1,3.5-2.6,4.5-4.5
			c1-1.8,1.5-3.6,1.5-8.5v-28.9c0-4.9-0.6-6.7-1.5-8.5c-1-2-2.6-3.5-4.5-4.5C62.1-65.4,60.4-66,55.4-66z"/>
		<path id="Rectangle" class="st5" d="M4.1-37.6l27.7-20.2c0.7-0.5,1.7-0.5,2.4,0l27.7,20.2c0.9,0.7,1.1,1.9,0.4,2.8
			c-0.1,0.2-0.3,0.3-0.4,0.4L34.2-14.3c-0.7,0.5-1.6,0.5-2.3,0L4.1-34.4C3.2-35,3-36.3,3.7-37.2C3.8-37.3,3.9-37.5,4.1-37.6z"/>
		<circle id="Mask" class="st2" cx="33" cy="-36" r="12"/>
		<path id="Path_26_" class="st6" d="M21-36.8c0.1-1.5,0.5-3,1.1-4.3L45-35.4c-0.1,1.5-0.4,3-1,4.4L21-36.8z"/>
	</g>
</g>
<g id="tr">
	<g id="Group_10_" transform="translate(6.000000, 6.000000)">
		<path id="Rectangle-3_10_" class="st4" d="M55.4-4H10.6C5.6-4,3.9-3.4,2.1-2.4c-2,1-3.5,2.6-4.5,4.5C-3.4,3.9-4,5.7-4,10.6v28.7
			c0,4.9,0.6,6.7,1.5,8.5c1,2,2.6,3.5,4.5,4.5c1.8,1,3.6,1.5,8.5,1.5h44.9c4.9,0,6.7-0.6,8.5-1.5c2-1,3.5-2.6,4.5-4.5
			c1-1.8,1.5-3.6,1.5-8.5V10.6c0-4.9-0.6-6.7-1.5-8.5c-1-2-2.6-3.5-4.5-4.5C62.1-3.4,60.4-4,55.4-4z"/>
		<path id="Path_27_" class="st3" d="M40.3,13.4C39.4,13.1,38.7,13,38,13c-6.6,0-12,5.4-12,12s5.4,12,12,12c0.7,0,1.4-0.1,2.3-0.3
			l0,0c0.5-0.1,1.1,0.2,1.2,0.7c0.1,0.4-0.1,0.8-0.4,1.1C38.7,40.2,35.7,41,32,41c-8.8,0-16-7.2-16-16S23.2,9,32,9
			c3.7,0,6.7,0.8,9.1,2.5l0,0c0.5,0.3,0.6,0.9,0.2,1.4C41.1,13.3,40.7,13.5,40.3,13.4z"/>
		<path id="Star-2" class="st3" d="M45.8,29.9l-1.7,1.6c-0.6,0.5-1.4,0.5-2-0.1c-0.2-0.2-0.3-0.5-0.4-0.8l-0.2-2.3
			c0-0.3-0.2-0.6-0.5-0.8l-2-1.1c-0.7-0.4-0.9-1.2-0.5-1.9c0.2-0.3,0.4-0.5,0.7-0.6l2.1-0.9c0.3-0.1,0.5-0.4,0.6-0.7l0.4-2.3
			c0.1-0.8,0.9-1.2,1.6-1.1c0.3,0.1,0.6,0.2,0.8,0.5l1.5,1.7c0.2,0.2,0.5,0.4,0.9,0.3l2.3-0.3c0.8-0.1,1.5,0.5,1.6,1.2
			c0,0.3,0,0.6-0.2,0.9l-1.2,2c-0.2,0.3-0.2,0.6,0,0.9l1,2.1c0.3,0.7,0,1.5-0.7,1.8c-0.3,0.1-0.6,0.2-0.9,0.1l-2.2-0.5
			C46.3,29.6,46,29.7,45.8,29.9z"/>
	</g>
</g>
<g id="nl">
	<g id="Group_11_" transform="translate(6.000000, 6.000000)">
		<path id="Rectangle-3_11_" class="st7" d="M55.4,62H10.6c-4.9,0-6.7,0.6-8.5,1.5c-2,1-3.5,2.6-4.5,4.5c-1,1.8-1.5,3.6-1.5,8.5
			v28.9c0,4.9,0.6,6.7,1.5,8.5c1,2,2.6,3.5,4.5,4.5c1.8,1,3.6,1.5,8.5,1.5h44.9c4.9,0,6.7-0.6,8.5-1.5c2-1,3.5-2.6,4.5-4.5
			c1-1.8,1.5-3.6,1.5-8.5V76.6c0-4.9-0.6-6.7-1.5-8.5c-1-2-2.6-3.5-4.5-4.5C62.1,62.6,60.4,62,55.4,62z"/>
		<path id="Path_28_" class="st8" d="M68,100v5.4c0,4.4-0.5,6-1.3,7.5s-2.1,2.9-3.7,3.7c-1.6,0.9-3.2,1.3-7.5,1.3H10.6
			c-4.4,0-6-0.5-7.5-1.3s-2.9-2.1-3.7-3.7s-1.3-3.2-1.3-7.5V100H68z"/>
		<path id="Path_29_" class="st9" d="M10.6,64h44.9c4.4,0,6,0.5,7.5,1.3c1.6,0.9,2.9,2.1,3.7,3.7c0.9,1.6,1.3,3.2,1.3,7.5V82H-2
			v-5.4c0-4.4,0.5-6,1.3-7.5c0.9-1.6,2.1-2.9,3.7-3.7C4.6,64.5,6.2,64,10.6,64z"/>
	</g>
</g>
<g id="sv">
	<g id="Group-10" transform="translate(6.000000, 6.000000)">
		<path id="Rectangle-3_12_" class="st15" d="M55.4,128H10.6c-4.9,0-6.7,0.6-8.5,1.5c-2,1-3.5,2.6-4.5,4.5c-1,1.8-1.5,3.6-1.5,8.5
			v28.9c0,4.9,0.6,6.7,1.5,8.5c1,2,2.6,3.5,4.5,4.5c1.8,1,3.6,1.5,8.5,1.5h44.9c4.9,0,6.7-0.6,8.5-1.5c2-1,3.5-2.6,4.5-4.5
			c1-1.8,1.5-3.6,1.5-8.5v-28.9c0-4.9-0.6-6.7-1.5-8.5c-1-2-2.6-3.5-4.5-4.5C62.1,128.6,60.4,128,55.4,128z"/>
		<path id="Combined-Shape" class="st11" d="M27,130v20l41,0v14l-41,0v20H13v-20l-15,0v-14l15,0v-20H27z"/>
	</g>
</g>
<g id="ga">
	<g id="Group_12_" transform="translate(6.000000, 6.000000)">
		<path id="Rectangle-3_13_" class="st7" d="M55.4,194H10.6c-4.9,0-6.7,0.6-8.5,1.5c-2,1-3.5,2.6-4.5,4.5c-1,1.8-1.5,3.6-1.5,8.5
			v28.9c0,4.9,0.6,6.7,1.5,8.5c1,2,2.6,3.5,4.5,4.5c1.8,1,3.6,1.5,8.5,1.5h44.9c4.9,0,6.7-0.6,8.5-1.5c2-1,3.5-2.6,4.5-4.5
			c1-1.8,1.5-3.6,1.5-8.5v-28.9c0-4.9-0.6-6.7-1.5-8.5c-1-2-2.6-3.5-4.5-4.5C62.1,194.6,60.4,194,55.4,194z"/>
		<path id="Path_30_" class="st13" d="M21.6,196v54H10.6c-4.4,0-6-0.5-7.5-1.3s-2.9-2.1-3.7-3.7c-0.9-1.6-1.3-3.2-1.3-7.5v-28.9
			c0-4.4,0.5-6,1.3-7.5c0.9-1.6,2.1-2.9,3.7-3.7c1.6-0.9,3.2-1.3,7.5-1.3H21.6z"/>
		<path id="Path_31_" class="st18" d="M44.4,196h11.1c4.4,0,6,0.5,7.5,1.3c1.6,0.9,2.9,2.1,3.7,3.7c0.9,1.6,1.3,3.2,1.3,7.5v28.9
			c0,4.4-0.5,6-1.3,7.5c-0.9,1.6-2.1,2.9-3.7,3.7c-1.6,0.9-3.2,1.3-7.5,1.3H44.4V196z"/>
	</g>
</g>
<g id="el">
	<g id="Group_13_" transform="translate(6.000000, 6.000000)">
		<path id="Rectangle-3_14_" class="st7" d="M55.4,260H10.6c-4.9,0-6.7,0.6-8.5,1.5c-2,1-3.5,2.6-4.5,4.5c-1,1.8-1.5,3.6-1.5,8.5
			v28.9c0,4.9,0.6,6.7,1.5,8.5c1,2,2.6,3.5,4.5,4.5c1.8,1,3.6,1.5,8.5,1.5h44.9c4.9,0,6.7-0.6,8.5-1.5c2-1,3.5-2.6,4.5-4.5
			c1-1.8,1.5-3.6,1.5-8.5v-28.9c0-4.9-0.6-6.7-1.5-8.5c-1-2-2.6-3.5-4.5-4.5C62.1,260.6,60.4,260,55.4,260z"/>
		<path id="Path_32_" class="st8" d="M10.6,262H33v30H-2v-17.4c0-4.4,0.5-6,1.3-7.5s2.1-2.9,3.7-3.7S6.2,262,10.6,262z"/>
		<path id="Path_33_" class="st8" d="M55.4,262c4.4,0,6,0.5,7.5,1.3c1.6,0.9,2.9,2.1,3.7,3.7c0.2,0.3,0.3,0.6,0.5,1H25v-6H55.4z"/>
		<path id="Path_34_" class="st8" d="M68,274c0,0.2,0,0.4,0,0.6v5.4H23v-6H68L68,274z"/>
		<polygon id="Path_35_" class="st8" points="68,286 68,292 -2,292 -2,286 		"/>
		<path id="Path_36_" class="st8" d="M68,298v5.4c0,0.2,0,0.4,0,0.6H-2c0-0.2,0-0.4,0-0.6V298H68z"/>
		<path id="Path_37_" class="st8" d="M67.2,310c-0.1,0.3-0.3,0.7-0.5,1c-0.9,1.6-2.1,2.9-3.7,3.7c-1.6,0.9-3.2,1.3-7.5,1.3H10.6
			c-4.4,0-6-0.5-7.5-1.3c-1.6-0.9-2.9-2.1-3.7-3.7c-0.2-0.3-0.3-0.6-0.5-1H67.2L67.2,310z"/>
		<polygon id="Rectangle-Copy-4" class="st16" points="-2,274 33,274 33,280 -2,280 		"/>
		<polygon id="Rectangle-5" class="st16" points="12,262 18,262 18,294 12,294 		"/>
	</g>
</g>
<g id="he">
	<g id="Group_14_" transform="translate(6.000000, 6.000000)">
		<path id="Rectangle-3_15_" class="st7" d="M55.4,326H10.6c-4.9,0-6.7,0.6-8.5,1.5c-2,1-3.5,2.6-4.5,4.5c-1,1.8-1.5,3.6-1.5,8.5
			v28.9c0,4.9,0.6,6.7,1.5,8.5c1,2,2.6,3.5,4.5,4.5c1.8,1,3.6,1.5,8.5,1.5h44.9c4.9,0,6.7-0.6,8.5-1.5c2-1,3.5-2.6,4.5-4.5
			c1-1.8,1.5-3.6,1.5-8.5v-28.9c0-4.9-0.6-6.7-1.5-8.5c-1-2-2.6-3.5-4.5-4.5C62.1,326.6,60.4,326,55.4,326z"/>
		<path id="Path_38_" class="st8" d="M68,370c0,3.9-0.5,5.5-1.3,7c-0.2,0.4-0.4,0.7-0.6,1H-0.1c-0.2-0.3-0.4-0.7-0.6-1
			c-0.8-1.5-1.3-3-1.3-7H68L68,370z"/>
		<path id="Path_39_" class="st8" d="M66.1,332c0.2,0.3,0.4,0.7,0.6,1c0.8,1.5,1.3,3,1.3,7H-2c0-3.9,0.5-5.5,1.3-7
			c0.2-0.4,0.4-0.7,0.6-1H66.1L66.1,332z"/>
		<path id="Triangle" class="st8" d="M33.5,345C33.5,345,33.5,345,33.5,345C33.5,345,33.5,345,33.5,345l-9.2,14.8c0,0,0,0,0,0
			c0,0,0,0,0,0h18.4c0,0,0,0,0,0c0,0,0,0,0,0L33.5,345z M35.7,343.7l9.2,14.8c0.8,1.2,0.4,2.9-0.8,3.6c-0.4,0.3-0.9,0.4-1.4,0.4
			H24.3c-1.5,0-2.6-1.2-2.6-2.6c0-0.5,0.1-1,0.4-1.4l9.2-14.8c0.8-1.2,2.4-1.6,3.6-0.8C35.2,343,35.5,343.3,35.7,343.7z"/>
		<path id="Shape" class="st8" d="M33.5,364.7C33.5,364.7,33.5,364.7,33.5,364.7C33.5,364.7,33.5,364.7,33.5,364.7l9.2-14.8
			c0,0,0,0,0,0c0,0,0,0,0,0H24.3c0,0,0,0,0,0c0,0,0,0,0,0L33.5,364.7z M31.3,366.1l-9.2-14.8c-0.8-1.2-0.4-2.9,0.8-3.6
			c0.4-0.3,0.9-0.4,1.4-0.4h18.4c1.5,0,2.6,1.2,2.6,2.6c0,0.5-0.1,1-0.4,1.4l-9.2,14.8c-0.8,1.2-2.4,1.6-3.6,0.8
			C31.8,366.7,31.5,366.4,31.3,366.1z"/>
	</g>
</g>
<g id="pl">
	<g id="Group_15_" transform="translate(6.000000, 6.000000)">
		<path id="Rectangle-3_16_" class="st7" d="M55.4,392H10.6c-4.9,0-6.7,0.6-8.5,1.5c-2,1-3.5,2.6-4.5,4.5c-1,1.8-1.5,3.6-1.5,8.5
			v28.9c0,4.9,0.6,6.7,1.5,8.5c1,2,2.6,3.5,4.5,4.5c1.8,1,3.6,1.5,8.5,1.5h44.9c4.9,0,6.7-0.6,8.5-1.5c2-1,3.5-2.6,4.5-4.5
			c1-1.8,1.5-3.6,1.5-8.5v-28.9c0-4.9-0.6-6.7-1.5-8.5c-1-2-2.6-3.5-4.5-4.5C62.1,392.6,60.4,392,55.4,392z"/>
		<path id="Path_40_" class="st9" d="M68,421v14.4c0,4.4-0.5,6-1.3,7.5c-0.9,1.6-2.1,2.9-3.7,3.7c-1.6,0.9-3.2,1.3-7.5,1.3H10.6
			c-4.4,0-6-0.5-7.5-1.3c-1.6-0.9-2.9-2.1-3.7-3.7c-0.9-1.6-1.3-3.2-1.3-7.5V421H68z"/>
	</g>
</g>
<g id="no-copy">
	<g id="Group_16_" transform="translate(6.000000, 6.000000)">
		<path id="Rectangle-3_17_" class="st10" d="M55.4,458H10.6c-4.9,0-6.7,0.6-8.5,1.5c-2,1-3.5,2.6-4.5,4.5c-1,1.8-1.5,3.6-1.5,8.5
			v28.9c0,4.9,0.6,6.7,1.5,8.5c1,2,2.6,3.5,4.5,4.5c1.8,1,3.6,1.5,8.5,1.5h44.9c4.9,0,6.7-0.6,8.5-1.5c2-1,3.5-2.6,4.5-4.5
			c1-1.8,1.5-3.6,1.5-8.5v-28.9c0-4.9-0.6-6.7-1.5-8.5c-1-2-2.6-3.5-4.5-4.5C62.1,458.6,60.4,458,55.4,458z"/>
		<polygon id="Path_41_" class="st3" points="13,460 27,460 27,480 68,480 68,494 27,494 27,514 13,514 13,494 -2,494 -2,480 
			13,480 		"/>
		<polygon id="Path_42_" class="st2" points="24,483 68,483 68,491 24,491 24,514 16,514 16,491 -2,491 -2,483 16,483 16,460 
			24,460 		"/>
	</g>
</g>
<g id="vi">
	<g id="Group_17_" transform="translate(6.000000, 6.000000)">
		<path id="Rectangle-3_18_" class="st10" d="M55.4,524H10.6c-4.9,0-6.7,0.6-8.5,1.5c-2,1-3.5,2.6-4.5,4.5c-1,1.8-1.5,3.6-1.5,8.5
			v28.9c0,4.9,0.6,6.7,1.5,8.5c1,2,2.6,3.5,4.5,4.5c1.8,1,3.6,1.5,8.5,1.5h44.9c4.9,0,6.7-0.6,8.5-1.5c2-1,3.5-2.6,4.5-4.5
			c1-1.8,1.5-3.6,1.5-8.5v-28.9c0-4.9-0.6-6.7-1.5-8.5c-1-2-2.6-3.5-4.5-4.5C62.1,524.6,60.4,524,55.4,524z"/>
		<path id="Star_1_" class="st14" d="M32.5,560.8l-3.9,2.1c-1.2,0.6-2.7,0.2-3.3-1c-0.3-0.5-0.3-1-0.2-1.6l0.8-4.4
			c0.1-0.3-0.1-0.7-0.3-0.9l-3.2-3.1c-1-0.9-1-2.5,0-3.5c0.4-0.4,0.9-0.6,1.4-0.7l4.4-0.6c0.3,0,0.6-0.3,0.8-0.5l2-4
			c0.6-1.2,2.1-1.7,3.3-1.1c0.5,0.2,0.9,0.6,1.1,1.1l2,4c0.1,0.3,0.4,0.5,0.8,0.5l4.4,0.6c1.3,0.2,2.3,1.4,2.1,2.8
			c-0.1,0.5-0.3,1-0.7,1.4l-3.2,3.1c-0.2,0.2-0.3,0.6-0.3,0.9l0.8,4.4c0.2,1.3-0.7,2.6-2,2.8c-0.5,0.1-1.1,0-1.6-0.2l-3.9-2.1
			C33.2,560.6,32.8,560.6,32.5,560.8z"/>
	</g>
</g>
<g id="da">
	<g id="Group_18_" transform="translate(6.000000, 6.000000)">
		<path id="Rectangle-3_19_" class="st10" d="M55.4,590H10.6c-4.9,0-6.7,0.6-8.5,1.5c-2,1-3.5,2.6-4.5,4.5c-1,1.8-1.5,3.6-1.5,8.5
			v28.9c0,4.9,0.6,6.7,1.5,8.5c1,2,2.6,3.5,4.5,4.5c1.8,1,3.6,1.5,8.5,1.5h44.9c4.9,0,6.7-0.6,8.5-1.5c2-1,3.5-2.6,4.5-4.5
			c1-1.8,1.5-3.6,1.5-8.5v-28.9c0-4.9-0.6-6.7-1.5-8.5c-1-2-2.6-3.5-4.5-4.5C62.1,590.6,60.4,590,55.4,590z"/>
		<rect id="Rectangle_1_" x="17" y="592" class="st19" width="12" height="54"/>
		<rect id="Rectangle_2_" x="-2" y="613" class="st19" width="70" height="12"/>
	</g>
</g>
<g id="hv">
	<g id="Group_19_" transform="translate(6.000000, 6.000000)">
		<path id="Rectangle-3_20_" class="st20" d="M55.4,656H10.6c-4.9,0-6.7,0.6-8.5,1.5c-2,1-3.5,2.6-4.5,4.5c-1,1.8-1.5,3.6-1.5,8.5
			v28.9c0,4.9,0.6,6.7,1.5,8.5c1,2,2.6,3.5,4.5,4.5c1.8,1,3.6,1.5,8.5,1.5h44.9c4.9,0,6.7-0.6,8.5-1.5c2-1,3.5-2.6,4.5-4.5
			c1-1.8,1.5-3.6,1.5-8.5v-28.9c0-4.9-0.6-6.7-1.5-8.5c-1-2-2.6-3.5-4.5-4.5C62.1,656.6,60.4,656,55.4,656z"/>
		<path id="Path_43_" class="st9" d="M33.1,668l5.7-2.8c0.6-0.3,1.4,0.2,1.3,0.9l-0.4,2.9H45c9.9,0,18,8.1,18,18c0,9.9-8.1,18-18,18
			h-6.5c-1.9,0-3.5,1.6-3.5,3.5c0,1.9,1.6,3.5,3.5,3.5H48H21.3c-0.2-1.1-0.3-2.3-0.3-3.5c0-9.7,7.8-17.5,17.5-17.5H45
			c2.2,0,4-1.8,4-4c0-2.2-1.8-4-4-4h-8.7l0.6,2.1c0.1,0.6-0.3,1.1-0.8,1.1l-7.1,0.3l1.3,2c0.4,0.6,0,1.4-0.7,1.4l-10.6,0.6
			c-1.4,0.1-2.7-0.2-3.9-0.9l-2.8,1.4c-0.5,0.2-1,0-1.2-0.4c-2.4-5.1-0.8-11.1,3.8-14.3l16.8-11.9c0.6-0.4,1.4,0,1.4,0.7L33.1,668z"
			/>
		<path id="Rectangle-Copy-4_1_" class="st18" d="M11.5,696.8l-5.2,3c-0.5,0.3-1.1,0.1-1.4-0.4c-1.1-1.9-0.4-4.4,1.5-5.5
			s4.4-0.4,5.5,1.5C12.1,696,12,696.6,11.5,696.8z"/>
		<path id="Rectangle_3_" class="st14" d="M8.5,696l6.1-3.5c0.5-0.3,1.1-0.1,1.4,0.4c1.1,1.9,0.4,4.4-1.5,5.5l-0.9,0.5
			c-1.9,1.1-4.4,0.4-5.5-1.5C7.8,696.9,8,696.3,8.5,696z"/>
		<path id="Rectangle-Copy-5" class="st14" d="M5.5,703.2l3.5-2c0.5-0.3,1.1-0.1,1.4,0.4c0.8,1.4,0.3,3.3-1.1,4.1S6,706,5.1,704.5
			C4.9,704,5,703.4,5.5,703.2z"/>
		<path id="Rectangle_4_" class="st14" d="M17.9,679.8l3.8-3.8c0.4-0.4,0.9-0.4,1.3,0c1.1,1.1,1.1,2.8,0,3.8l-1.3,1.3
			c-1.1,1.1-2.8,1.1-3.8,0l0,0C17.6,680.8,17.6,680.2,17.9,679.8z"/>
	</g>
</g>
<g id="ro">
	<g id="Group_20_" transform="translate(6.000000, 6.000000)">
		<path id="Rectangle-3_21_" class="st21" d="M55.4,722H10.6c-4.9,0-6.7,0.6-8.5,1.5c-2,1-3.5,2.6-4.5,4.5c-1,1.8-1.5,3.6-1.5,8.5
			v28.9c0,4.9,0.6,6.7,1.5,8.5c1,2,2.6,3.5,4.5,4.5c1.8,1,3.6,1.5,8.5,1.5h44.9c4.9,0,6.7-0.6,8.5-1.5c2-1,3.5-2.6,4.5-4.5
			c1-1.8,1.5-3.6,1.5-8.5v-28.9c0-4.9-0.6-6.7-1.5-8.5c-1-2-2.6-3.5-4.5-4.5C62.1,722.6,60.4,722,55.4,722z"/>
		<path id="Path_44_" class="st8" d="M21.6,724v54H10.6c-4.4,0-6-0.5-7.5-1.3c-1.6-0.9-2.9-2.1-3.7-3.7s-1.3-3.2-1.3-7.5v-28.9
			c0-4.4,0.5-6,1.3-7.5s2.1-2.9,3.7-3.7c1.6-0.9,3.2-1.3,7.5-1.3H21.6z"/>
		<path id="Path_45_" class="st9" d="M44.4,724h11.1c4.4,0,6,0.5,7.5,1.3c1.6,0.9,2.9,2.1,3.7,3.7s1.3,3.2,1.3,7.5v28.9
			c0,4.4-0.5,6-1.3,7.5s-2.1,2.9-3.7,3.7c-1.6,0.9-3.2,1.3-7.5,1.3H44.4V724z"/>
	</g>
</g>
<g id="sw">
	<g id="Group_21_" transform="translate(6.000000, 6.000000)">
		<path id="Rectangle-3_22_" class="st15" d="M55.4,788H10.6c-4.9,0-6.7,0.6-8.5,1.5c-2,1-3.5,2.6-4.5,4.5c-1,1.8-1.5,3.6-1.5,8.5
			v28.9c0,4.9,0.6,6.7,1.5,8.5c1,2,2.6,3.5,4.5,4.5c1.8,1,3.6,1.5,8.5,1.5h44.9c4.9,0,6.7-0.6,8.5-1.5c2-1,3.5-2.6,4.5-4.5
			c1-1.8,1.5-3.6,1.5-8.5v-28.9c0-4.9-0.6-6.7-1.5-8.5c-1-2-2.6-3.5-4.5-4.5C62.1,788.6,60.4,788,55.4,788z"/>
		<path id="Path_46_" class="st22" d="M63.4,791.6l-64.9,45.5c-0.3-1.2-0.5-2.9-0.5-5.6v-28.9c0-4.4,0.5-6,1.3-7.5s2.1-2.9,3.7-3.7
			c1.6-0.9,3.2-1.3,7.5-1.3h44.9c4.4,0,6,0.5,7.5,1.3C63.1,791.4,63.3,791.5,63.4,791.6z"/>
		<path id="Path_47_" class="st14" d="M54.2,790h1.2c4.4,0,6,0.5,7.5,1.3c1.6,0.9,2.9,2.1,3.7,3.7s1.3,3.2,1.3,7.5v2.5L12.4,844
			h-1.9c-4.4,0-6-0.5-7.5-1.3c-1.6-0.9-2.9-2.1-3.7-3.7s-1.3-3.2-1.3-7.5v-2.1L54.2,790L54.2,790z"/>
		<path id="Path_48_" class="st23" d="M60.5,790.4c1,0.2,1.7,0.5,2.5,0.9c1.6,0.9,2.9,2.1,3.7,3.7c0.7,1.3,1.1,2.5,1.2,5.2
			L5.8,843.7c-1.2-0.2-2-0.6-2.8-1c-1.6-0.9-2.9-2.1-3.7-3.7c-0.7-1.2-1.1-2.4-1.2-4.9L60.5,790.4L60.5,790.4z"/>
	</g>
</g>
<g id="eo">
	<g id="Group_22_" transform="translate(6.000000, 6.000000)">
		<path id="Rectangle-3_23_" class="st24" d="M55.4,854H10.6c-4.9,0-6.7,0.6-8.5,1.5c-2,1-3.5,2.6-4.5,4.5c-1,1.8-1.5,3.6-1.5,8.5
			v28.9c0,4.9,0.6,6.7,1.5,8.5c1,2,2.6,3.5,4.5,4.5c1.8,1,3.6,1.5,8.5,1.5h44.9c4.9,0,6.7-0.6,8.5-1.5c2-1,3.5-2.6,4.5-4.5
			c1-1.8,1.5-3.6,1.5-8.5v-28.9c0-4.9-0.6-6.7-1.5-8.5c-1-2-2.6-3.5-4.5-4.5C62.1,854.6,60.4,854,55.4,854z"/>
		<path id="Path_49_" class="st16" d="M10.6,856H33v27c0,2.2-1.8,4-4,4H-2v-18.4c0-4.4,0.5-6,1.3-7.5s2.1-2.9,3.7-3.7
			C4.6,856.5,6.2,856,10.6,856z"/>
		<path id="Star_2_" class="st22" d="M14.6,878.7l-3.4,1.8c-1,0.5-2.3,0.1-2.9-0.9c-0.2-0.4-0.3-0.9-0.2-1.4l0.7-3.8
			c0-0.3,0-0.6-0.2-0.8L5.7,871c-0.8-0.8-0.9-2.2,0-3c0.3-0.3,0.8-0.6,1.2-0.6l3.8-0.6c0.3,0,0.5-0.2,0.7-0.5l1.7-3.5
			c0.5-1.1,1.8-1.5,2.9-1c0.4,0.2,0.8,0.5,1,1l1.7,3.5c0.1,0.3,0.4,0.4,0.7,0.5l3.8,0.6c1.2,0.2,2,1.3,1.8,2.4
			c-0.1,0.5-0.3,0.9-0.6,1.2l-2.8,2.7c-0.2,0.2-0.3,0.5-0.2,0.8l0.7,3.8c0.2,1.2-0.6,2.3-1.7,2.5c-0.5,0.1-0.9,0-1.4-0.2l-3.4-1.8
			C15.1,878.6,14.8,878.6,14.6,878.7z"/>
	</g>
</g>
<g id="hu">
	<g id="Group_23_" transform="translate(6.000000, 6.000000)">
		<path id="Rectangle-3_24_" class="st7" d="M55.4,920H10.6c-4.9,0-6.7,0.6-8.5,1.5c-2,1-3.5,2.6-4.5,4.5c-1,1.8-1.5,3.6-1.5,8.5
			v28.9c0,4.9,0.6,6.7,1.5,8.5c1,2,2.6,3.5,4.5,4.5c1.8,1,3.6,1.5,8.5,1.5h44.9c4.9,0,6.7-0.6,8.5-1.5c2-1,3.5-2.6,4.5-4.5
			c1-1.8,1.5-3.6,1.5-8.5v-28.9c0-4.9-0.6-6.7-1.5-8.5c-1-2-2.6-3.5-4.5-4.5C62.1,920.6,60.4,920,55.4,920z"/>
		<path id="Path_50_" class="st22" d="M68,958v5.4c0,4.4-0.5,6-1.3,7.5s-2.1,2.9-3.7,3.7c-1.6,0.9-3.2,1.3-7.5,1.3H10.6
			c-4.4,0-6-0.5-7.5-1.3c-1.6-0.9-2.9-2.1-3.7-3.7s-1.3-3.2-1.3-7.5V958H68z"/>
		<path id="Path_51_" class="st9" d="M10.6,922h44.9c4.4,0,6,0.5,7.5,1.3c1.6,0.9,2.9,2.1,3.7,3.7s1.3,3.2,1.3,7.5v5.4H-2v-5.4
			c0-4.4,0.5-6,1.3-7.5s2.1-2.9,3.7-3.7C4.6,922.5,6.2,922,10.6,922z"/>
	</g>
</g>
<g id="cy">
	<g id="Group_24_" transform="translate(6.000000, 6.000000)">
		<path id="Rectangle-3_25_" class="st7" d="M55.4,986H10.6c-4.9,0-6.7,0.6-8.5,1.5c-2,1-3.5,2.6-4.5,4.5c-1,1.8-1.5,3.6-1.5,8.5
			v28.9c0,4.9,0.6,6.7,1.5,8.5c1,2,2.6,3.5,4.5,4.5c1.8,1,3.6,1.5,8.5,1.5h44.9c4.9,0,6.7-0.6,8.5-1.5c2-1,3.5-2.6,4.5-4.5
			c1-1.8,1.5-3.6,1.5-8.5v-28.9c0-4.9-0.6-6.7-1.5-8.5c-1-2-2.6-3.5-4.5-4.5C62.1,986.6,60.4,986,55.4,986z"/>
		<path id="Combined-Shape_1_" class="st22" d="M68,1015v14.4c0,4.4-0.5,6-1.3,7.5s-2.1,2.9-3.7,3.7c-1.6,0.9-3.2,1.3-7.5,1.3H10.6
			c-4.4,0-6-0.5-7.5-1.3c-1.6-0.9-2.9-2.1-3.7-3.7s-1.3-3.2-1.3-7.5V1015H68z"/>
		<path id="Rectangle_5_" class="st9" d="M35.2,1002h13.8c1.1,0,2,0.9,2,2c0,0.3-0.1,0.5-0.2,0.8l-3.6,8.2c-2.9,6.7-9.5,11-16.8,11
			H25c-3.9,0-7-3.1-7-7v-5l0,0l10-4v0.4c0,0.9,0.7,1.6,1.6,1.6c0.9,0,1.6-0.7,1.6-1.6v-2.4C31.2,1003.8,33,1002,35.2,1002z"/>
		<path id="Rectangle-Copy" class="st9" d="M21,1000h4c1.7,0,3,1.3,3,3v9l0,0H18v-9C18,1001.4,19.3,1000,21,1000z"/>
		<path id="Rectangle-Copy-2" class="st9" d="M16,1003h5l0,0v5H11C11,1005.3,13.2,1003,16,1003z"/>
		<path id="Rectangle-Copy-4_2_" class="st9" d="M21,1000h10c0,2.2-1.8,4-4,4h-6l0,0V1000z"/>
		<path id="Rectangle-Copy-3" class="st9" d="M17,1010c-1.7,0-3-1.8-3-4h10v4H17z"/>
		<path id="Path_52_" class="st9" d="M29,1023.9v-5h19.5c1.4,0,2.5-1.1,2.5-2.5v-3.4h5v3.4c0,4.1-3.4,7.5-7.5,7.5H29z"/>
		<path id="Triangle_1_" class="st9" d="M54.3,1009.1l4,5.7c0.3,0.5,0.2,1.1-0.3,1.4c-0.3,0.2-0.6,0.2-0.9,0.1l-3.7-1.2l0,0
			l-3.7,1.2c-0.5,0.2-1.1-0.1-1.3-0.6c-0.1-0.3,0-0.6,0.1-0.9l4-5.7c0.3-0.5,0.9-0.6,1.4-0.3C54.2,1008.9,54.3,1009,54.3,1009.1z"/>
		<path id="Path_53_" class="st9" d="M24,1026h3c2.2,0,4,1.8,4,4c0,0.6-0.4,1-1,1h-9c-0.6,0-1-0.4-1-1C20,1027.8,21.8,1026,24,1026z
			"/>
		<rect id="Rectangle_6_" x="26" y="1020" class="st9" width="5" height="10"/>
		<path id="Path_54_" class="st9" d="M16,1019.9v2c0,2.2-1.8,4-4,4c-0.6,0-1-0.4-1-1v-8c0-0.6,0.4-1,1-1
			C14.2,1015.9,16,1017.7,16,1019.9z"/>
		
			<rect id="Rectangle_7_" x="11.5" y="1019" transform="matrix(0.9659 -0.2588 0.2588 0.9659 -263.7245 39.7272)" class="st9" width="15" height="5"/>
		<path id="Path_55_" class="st9" d="M40,1026h4c2.2,0,4,1.8,4,4c0,0.6-0.4,1-1,1H37c-0.6,0-1-0.4-1-1C36,1027.8,37.8,1026,40,1026z
			"/>
		
			<rect id="Rectangle-Copy-7" x="40.2" y="1019.6" transform="matrix(0.866 -0.5 0.5 0.866 -506.5867 158.6031)" class="st9" width="5" height="10"/>
	</g>
</g>
<g id="uk">
	<g id="Group_25_" transform="translate(6.000000, 6.000000)">
		<path id="Rectangle-3_26_" class="st15" d="M55.4,1052H10.6c-4.9,0-6.7,0.6-8.5,1.5c-2,1-3.5,2.6-4.5,4.5c-1,1.8-1.5,3.6-1.5,8.5
			v28.9c0,4.9,0.6,6.7,1.5,8.5c1,2,2.6,3.5,4.5,4.5c1.8,1,3.6,1.5,8.5,1.5h44.9c4.9,0,6.7-0.6,8.5-1.5c2-1,3.5-2.6,4.5-4.5
			c1-1.8,1.5-3.6,1.5-8.5v-28.9c0-4.9-0.6-6.7-1.5-8.5c-1-2-2.6-3.5-4.5-4.5C62.1,1052.6,60.4,1052,55.4,1052z"/>
		<path id="Path_56_" class="st14" d="M68,1081v14.4c0,4.4-0.5,6-1.3,7.5s-2.1,2.9-3.7,3.7c-1.6,0.9-3.2,1.3-7.5,1.3H10.6
			c-4.4,0-6-0.5-7.5-1.3c-1.6-0.9-2.9-2.1-3.7-3.7s-1.3-3.2-1.3-7.5V1081H68z"/>
	</g>
</g>
<g id="kl">
	<g id="Group_26_" transform="translate(6.000000, 6.000000)">
		<path id="Rectangle-3_27_" class="st10" d="M55.4,1118H10.6c-4.9,0-6.7,0.6-8.5,1.5c-2,1-3.5,2.6-4.5,4.5c-1,1.8-1.5,3.6-1.5,8.5
			v28.9c0,4.9,0.6,6.7,1.5,8.5c1,2,2.6,3.5,4.5,4.5c1.8,1,3.6,1.5,8.5,1.5h44.9c4.9,0,6.7-0.6,8.5-1.5c2-1,3.5-2.6,4.5-4.5
			c1-1.8,1.5-3.6,1.5-8.5v-28.9c0-4.9-0.6-6.7-1.5-8.5c-1-2-2.6-3.5-4.5-4.5C62.1,1118.6,60.4,1118,55.4,1118z"/>
		<circle id="Oval" class="st16" cx="33" cy="1147" r="16"/>
		<path id="Triangle_2_" class="st23" d="M34.8,1129.4l4.9,16.8c0.3,0.9,0,2-0.7,2.7L35,1153c-1,1.1-2.8,1.1-3.8,0c0,0,0,0,0,0
			l-4.1-4.1c-0.7-0.7-0.9-1.7-0.7-2.7l4.9-16.8c0.3-1,1.3-1.5,2.2-1.2C34.2,1128.4,34.7,1128.8,34.8,1129.4z"/>
		<path id="Path-3" class="st23" d="M24.9,1150.1c0.5,0.6,4.4,4.5,5,5.1c0.9,0.8,0.3,2.4-1,2.4c-2.8-0.1-5.3,0.8-7.3,2.5
			c-0.7,0.6-1.3,1.1-1.8,1.7c-0.3,0.3-0.5,0.6-0.6,0.7c-0.4,0.7-1.3,0.8-2,0.3c-4-3.2-1-11.1,6.2-13.1
			C24,1149.6,24.6,1149.7,24.9,1150.1z"/>
		<path id="Shape_1_" class="st23" d="M36.1,1156.7c-0.1-0.1-0.2-0.3-0.3-0.4c-0.1-0.5,0.1-1,0.5-1.3c0,0,0.1-0.1,0.1-0.1
			c0.1-0.1,0.3-0.3,0.6-0.6c0.2-0.2,0.5-0.5,0.9-0.9c0.2-0.2,0.5-0.5,1-1l0,0c1.6-1.7,2.4-2.4,2.7-2.7c0.6-0.6,1.7-0.3,2,0.5
			c0.8,2.1,2.2,3.6,4.1,4.6c0.7,0.4,1.3,0.6,2,0.8c0.4,0.1,0.6,0.2,0.8,0.2c0.8,0.1,1.2,1,0.9,1.7c-0.8,1.9-3.2,3.4-5.9,3.6
			C42.1,1161.3,38.9,1159.9,36.1,1156.7L36.1,1156.7L36.1,1156.7z M37.2,1154.7c0.1,0,0.1,0,0.2,0.1
			C37.4,1154.8,37.3,1154.7,37.2,1154.7L37.2,1154.7z"/>
	</g>
</g>
<g id="cs">
	<g id="Group_27_" transform="translate(6.000000, 6.000000)">
		<path id="Rectangle-3_28_" class="st7" d="M55.4,1184H10.6c-4.9,0-6.7,0.6-8.5,1.5c-2,1-3.5,2.6-4.5,4.5c-1,1.8-1.5,3.6-1.5,8.5
			v28.9c0,4.9,0.6,6.7,1.5,8.5c1,2,2.6,3.5,4.5,4.5c1.8,1,3.6,1.5,8.5,1.5h44.9c4.9,0,6.7-0.6,8.5-1.5c2-1,3.5-2.6,4.5-4.5
			c1-1.8,1.5-3.6,1.5-8.5v-28.9c0-4.9-0.6-6.7-1.5-8.5c-1-2-2.6-3.5-4.5-4.5C62.1,1184.6,60.4,1184,55.4,1184z"/>
		<path id="Path_57_" class="st9" d="M68,1213v14.4c0,4.4-0.5,6-1.3,7.5s-2.1,2.9-3.7,3.7c-1.6,0.9-3.2,1.3-7.5,1.3H10.6
			c-4.4,0-6-0.5-7.5-1.3c-1.6-0.9-2.9-2.1-3.7-3.7s-1.3-3.2-1.3-7.5V1213H68z"/>
		<path id="Path_58_" class="st8" d="M1.3,1237.5c-0.8-0.7-1.4-1.5-2-2.5c-0.9-1.6-1.3-3.2-1.3-7.5v-28.9c0-4.4,0.5-6,1.3-7.5
			c0.5-1,1.2-1.8,2-2.5L33,1213L1.3,1237.5L1.3,1237.5z"/>
	</g>
</g>
<g id="hi">
	<g id="Group_28_" transform="translate(6.000000, 6.000000)">
		<path id="Rectangle-3_29_" class="st7" d="M55.4,1250H10.6c-4.9,0-6.7,0.6-8.5,1.5c-2,1-3.5,2.6-4.5,4.5c-1,1.8-1.5,3.6-1.5,8.5
			v28.9c0,4.9,0.6,6.7,1.5,8.5c1,2,2.6,3.5,4.5,4.5c1.8,1,3.6,1.5,8.5,1.5h44.9c4.9,0,6.7-0.6,8.5-1.5c2-1,3.5-2.6,4.5-4.5
			c1-1.8,1.5-3.6,1.5-8.5v-28.9c0-4.9-0.6-6.7-1.5-8.5c-1-2-2.6-3.5-4.5-4.5C62.1,1250.6,60.4,1250,55.4,1250z"/>
		<path id="Path_59_" class="st18" d="M10.6,1252h44.9c4.4,0,6,0.5,7.5,1.3c1.6,0.9,2.9,2.1,3.7,3.7c0.9,1.6,1.3,3.2,1.3,7.5v3.4H-2
			v-3.4c0-4.4,0.5-6,1.3-7.5c0.9-1.6,2.1-2.9,3.7-3.7S6.2,1252,10.6,1252z"/>
		<path id="Path_60_" class="st22" d="M68,1290v3.4c0,4.4-0.5,6-1.3,7.5s-2.1,2.9-3.7,3.7c-1.6,0.9-3.2,1.3-7.5,1.3H10.6
			c-4.4,0-6-0.5-7.5-1.3c-1.6-0.9-2.9-2.1-3.7-3.7s-1.3-3.2-1.3-7.5v-3.4H68z"/>
		<path id="Oval_1_" class="st8" d="M33,1287c-4.4,0-8-3.6-8-8c0-4.4,3.6-8,8-8s8,3.6,8,8C41,1283.4,37.4,1287,33,1287z M33,1283
			c2.2,0,4-1.8,4-4c0-2.2-1.8-4-4-4s-4,1.8-4,4C29,1281.2,30.8,1283,33,1283z"/>
	</g>
</g>
<g id="id">
	<g id="Group_29_" transform="translate(6.000000, 6.000000)">
		<path id="Rectangle-3_30_" class="st10" d="M55.4,1316H10.6c-4.9,0-6.7,0.6-8.5,1.5c-2,1-3.5,2.6-4.5,4.5c-1,1.8-1.5,3.6-1.5,8.5
			v28.9c0,4.9,0.6,6.7,1.5,8.5c1,2,2.6,3.5,4.5,4.5c1.8,1,3.6,1.5,8.5,1.5h44.9c4.9,0,6.7-0.6,8.5-1.5c2-1,3.5-2.6,4.5-4.5
			c1-1.8,1.5-3.6,1.5-8.5v-28.9c0-4.9-0.6-6.7-1.5-8.5c-1-2-2.6-3.5-4.5-4.5C62.1,1316.6,60.4,1316,55.4,1316z"/>
		<path id="Path_61_" class="st16" d="M68,1345v14.4c0,4.4-0.5,6-1.3,7.5s-2.1,2.9-3.7,3.7c-1.6,0.9-3.2,1.3-7.5,1.3H10.6
			c-4.4,0-6-0.5-7.5-1.3c-1.6-0.9-2.9-2.1-3.7-3.7s-1.3-3.2-1.3-7.5V1345H68z"/>
	</g>
</g>
<g id="ha">
	<g id="Group_30_" transform="translate(6.000000, 6.000000)">
		<path id="Rectangle-3_31_" class="st7" d="M55.4,1382H10.6c-4.9,0-6.7,0.6-8.5,1.5c-2,1-3.5,2.6-4.5,4.5c-1,1.8-1.5,3.6-1.5,8.5
			v28.9c0,4.9,0.6,6.7,1.5,8.5c1,2,2.6,3.5,4.5,4.5c1.8,1,3.6,1.5,8.5,1.5h44.9c4.9,0,6.7-0.6,8.5-1.5c2-1,3.5-2.6,4.5-4.5
			c1-1.8,1.5-3.6,1.5-8.5v-28.9c0-4.9-0.6-6.7-1.5-8.5c-1-2-2.6-3.5-4.5-4.5C62.1,1382.6,60.4,1382,55.4,1382z"/>
		<rect id="Rectangle-4-Copy-5" x="-2" y="1393" class="st1" width="70" height="9"/>
		<rect id="Rectangle-4-Copy" x="-2" y="1402" class="st25" width="70" height="9"/>
		<path id="Path_62_" class="st26" d="M37,1384v27H-2v-14.4c0-4.4,0.5-6,1.3-7.5c0.9-1.6,2.1-2.9,3.7-3.7l0.4-0.2
			c1.5-0.7,3.1-1.1,7.1-1.1H37z"/>
		<path id="Path_63_" class="st16" d="M15,1384v8.9l2.5,1.8l2.5-1.8v-8.9h3v6.7l9.3-6.7H37v2.7l-7.2,5.3H37v3H25.6l-3.9,2.8l3,2.2
			H37v3h-8.2l8.2,5.9v2.1h-5.7L23,1405v6.1h-3v-8.2l-2.5-1.8l-2.5,1.8v8.3h-3v-6.1l-8.4,6.1H-2v-2.1l8.1-5.9H-2v-3h12.2l3-2.2
			l-3.9-2.8l-11.3,0c0-1.2,0.1-2.2,0.3-3l6.9,0l-5.3-3.9c0.8-1.2,1.9-2.1,3.2-2.8c0.3-0.2,0.6-0.3,0.9-0.4l8.1,5.9v-6.8H15z"/>
		<path id="Path_64_" class="st26" d="M67.8,1429c-0.2,1.9-0.6,2.9-1.2,4c-0.9,1.6-2.1,2.9-3.7,3.7c-1.6,0.9-3.2,1.3-7.5,1.3H10.6
			c-4.4,0-6-0.5-7.5-1.3c-1.6-0.9-2.9-2.1-3.7-3.7c-0.6-1.1-1-2.1-1.2-4H67.8z"/>
		<path id="Path_65_" class="st9" d="M68,1425.5c0,1.5-0.1,2.6-0.2,3.6H-1.8c-0.1-0.9-0.2-2.1-0.2-3.6v-5.4h70V1425.5z"/>
		<polygon id="Path_66_" class="st9" points="20,1395 37,1395 37,1400 20,1400 20,1411 15,1411 15,1400 -2,1400 -2,1395 15,1395 
			15,1384 20,1384 		"/>
	</g>
</g>
<g id="nv">
	<g id="Group_31_" transform="translate(6.000000, 6.000000)">
		<path id="Rectangle-3_32_" class="st27" d="M55.4,1448H10.6c-4.9,0-6.7,0.6-8.5,1.5c-2,1-3.5,2.6-4.5,4.5c-1,1.8-1.5,3.6-1.5,8.5
			v28.9c0,4.9,0.6,6.7,1.5,8.5c1,2,2.6,3.5,4.5,4.5c1.8,1,3.6,1.5,8.5,1.5h44.9c4.9,0,6.7-0.6,8.5-1.5c2-1,3.5-2.6,4.5-4.5
			c1-1.8,1.5-3.6,1.5-8.5v-28.9c0-4.9-0.6-6.7-1.5-8.5c-1-2-2.6-3.5-4.5-4.5C62.1,1448.6,60.4,1448,55.4,1448z"/>
		<path id="Star_3_" class="st23" d="M32,1463l-0.6,8.7c0,0.6-0.6,1.1-1.2,1c0,0,0,0,0,0l-1.9-0.2c-0.6,0-1.1,0.4-1.2,1
			c0,0.3,0.1,0.6,0.2,0.8l1.2,1.5c0.3,0.4,0.3,1.1-0.1,1.5l-1.4,1.4c-0.4,0.4-0.4,1.1,0,1.6c0.2,0.2,0.5,0.3,0.8,0.3l2.1,0.1
			c0.4,0,0.8,0.3,1,0.6l1.2,2.5c0.3,0.6,0.9,0.8,1.5,0.5c0.2-0.1,0.4-0.3,0.5-0.5l1.3-2.5c0.2-0.4,0.6-0.6,1-0.6H38
			c0.6,0,1.1-0.5,1.1-1.1c0-0.3-0.1-0.5-0.3-0.7l-1.4-1.6c-0.3-0.4-0.3-0.9-0.1-1.3l1.1-1.7c0.3-0.5,0.2-1.2-0.4-1.5
			c-0.2-0.1-0.4-0.2-0.7-0.2l-1.6,0.1c-0.6,0.1-1.2-0.4-1.2-1l0,0l-0.8-8.7c0-0.3,0.1-0.7,0.3-0.9l3.1-3c0.7-0.6,1.7-0.6,2.4,0
			c0.2,0.2,0.3,0.4,0.4,0.6l1.3,3.6c0.2,0.6,0.8,1.1,1.5,1.1l4.2,0.2c0.9,0,1.6,0.8,1.6,1.7c0,0.1,0,0.3-0.1,0.4l-1.1,4.1
			c-0.2,0.6,0,1.3,0.6,1.7l3.3,2.7c0.7,0.6,0.8,1.6,0.3,2.3c-0.1,0.1-0.2,0.2-0.3,0.3l-3.3,2.7c-0.5,0.4-0.7,1.1-0.6,1.7l1.1,4.1
			c0.2,0.9-0.3,1.8-1.2,2.1c-0.1,0-0.2,0.1-0.4,0.1l-4.2,0.2c-0.7,0-1.3,0.5-1.5,1.1l-1.5,4c-0.3,0.9-1.3,1.3-2.1,1
			c-0.1,0-0.2-0.1-0.4-0.2l-3.5-2.3c-0.6-0.4-1.3-0.4-1.9,0l-3.5,2.3c-0.8,0.5-1.8,0.3-2.3-0.5c-0.1-0.1-0.1-0.2-0.2-0.4l-1.5-4
			c-0.2-0.6-0.8-1.1-1.5-1.1l-4.2-0.2c-0.9,0-1.6-0.8-1.6-1.7c0-0.1,0-0.3,0.1-0.4l1.1-4.1c0.2-0.6,0-1.3-0.6-1.7l-3.3-2.7
			c-0.7-0.6-0.8-1.6-0.3-2.3c0.1-0.1,0.2-0.2,0.3-0.3l3.3-2.7c0.5-0.4,0.7-1.1,0.6-1.7l-1.1-4.1c-0.2-0.9,0.3-1.8,1.2-2.1
			c0.1,0,0.2-0.1,0.4-0.1l4.2-0.2c0.7,0,1.3-0.5,1.5-1.1l1.3-3.5c0.3-0.9,1.3-1.3,2.1-1c0.2,0.1,0.4,0.2,0.6,0.4l3,3
			C31.9,1462.4,32,1462.7,32,1463L32,1463z"/>
		<path id="Path_67_" class="st9" d="M19.5,1477.1c0-6.2,4.2-11.6,10.1-13.2c0.5-0.1,0.9,0.2,0.9,0.7l0,3.5c0,0.3-0.2,0.6-0.5,0.7
			c-3.4,1.3-5.7,4.6-5.7,8.3c0,4.9,3.9,8.8,8.7,8.8s8.7-3.9,8.7-8.8c0-3.7-2.3-7-5.7-8.3c-0.3-0.1-0.5-0.4-0.5-0.7l0-3.5
			c0-0.5,0.4-0.8,0.9-0.7c5.9,1.5,10.1,7,10.1,13.2c0,7.5-6,13.6-13.5,13.6S19.5,1484.6,19.5,1477.1z"/>
	</g>
</g>
<g id="ar">
	<g id="Group_32_" transform="translate(6.000000, 6.000000)">
		<path id="Rectangle-3_33_" class="st24" d="M55.4,1514H10.6c-4.9,0-6.7,0.6-8.5,1.5c-2,1-3.5,2.6-4.5,4.5c-1,1.8-1.5,3.6-1.5,8.5
			v28.9c0,4.9,0.6,6.7,1.5,8.5c1,2,2.6,3.5,4.5,4.5c1.8,1,3.6,1.5,8.5,1.5h44.9c4.9,0,6.7-0.6,8.5-1.5c2-1,3.5-2.6,4.5-4.5
			c1-1.8,1.5-3.6,1.5-8.5v-28.9c0-4.9-0.6-6.7-1.5-8.5c-1-2-2.6-3.5-4.5-4.5C62.1,1514.6,60.4,1514,55.4,1514z"/>
	</g>
	<g id="Group-3_1_" transform="translate(27.000000, 12.000000)">
		<g id="Group_33_" transform="translate(0.000000, 5.000000)">
			<path id="Oval_2_" class="st28" d="M12.5,1546.1c8,0,14.5-6.3,14.5-14c0-7.7-6.5-14-14.5-14s-14.5,6.3-14.5,14
				C-2,1539.8,4.5,1546.1,12.5,1546.1z"/>
			<path id="Path-6-Copy" class="st29" d="M13.3,1518.7c2.2,0,4.1,0.1,4.7-2.7"/>
			<path id="Triangle_3_" class="st6" d="M14,1547.5l-9,2.5c-1.1,0.3-2.2-0.3-2.5-1.4c-0.1-0.4-0.1-0.8,0.1-1.2l0.9-2.4
				c0.3-0.8,1.2-1.3,2.1-0.9c0,0,0,0,0.1,0L14,1547.5L14,1547.5z"/>
			<path id="Triangle-Copy" class="st6" d="M11,1547.5l9,2.5c1.1,0.3,2.2-0.3,2.5-1.4c0.1-0.4,0.1-0.8-0.1-1.2l-0.9-2.4
				c-0.3-0.8-1.2-1.3-2.1-0.9c0,0,0,0-0.1,0L11,1547.5L11,1547.5z"/>
			<path id="Path-8" class="st30" d="M13.1,1517.9l-3.9,0.8l-0.4,0.9c1.1-0.2,2.4-0.3,4-0.4c1.4-0.1,2.5-0.6,3.4-1.6L13.1,1517.9z"
				/>
		</g>
		<g id="Group-2_1_" transform="translate(5.000000, 9.000000)">
			<circle id="Oval_3_" class="st6" cx="7.5" cy="1527.5" r="9.5"/>
			<circle id="Oval-Copy" class="st31" cx="7.5" cy="1523.5" r="7.5"/>
		</g>
		<path id="Combined-Shape_2_" class="st32" d="M12.2,1523.9c-0.2-1.6,0.3-3.2,1.5-4.3c1.1-1.1,2.7-1.6,4.2-1.4
			c0.2,1.6-0.3,3.2-1.5,4.3C15.2,1523.6,13.7,1524,12.2,1523.9L12.2,1523.9z"/>
		<path id="Combined-Shape-Copy" class="st32" d="M12.8,1523.9c0.2-1.6-0.3-3.2-1.5-4.3c-1.1-1.1-2.7-1.6-4.2-1.4
			c-0.2,1.6,0.3,3.2,1.5,4.3C9.8,1523.6,11.3,1524,12.8,1523.9L12.8,1523.9z"/>
	</g>
</g>
<g id="ca">
	<g id="Group_34_" transform="translate(6.000000, 6.000000)">
		<path id="Rectangle-3_34_" class="st4" d="M55.4,1580H10.6c-4.9,0-6.7,0.6-8.5,1.5c-2,1-3.5,2.6-4.5,4.5c-1,1.8-1.5,3.6-1.5,8.5
			v28.9c0,4.9,0.6,6.7,1.5,8.5c1,2,2.6,3.5,4.5,4.5c1.8,1,3.6,1.5,8.5,1.5h44.9c4.9,0,6.7-0.6,8.5-1.5c2-1,3.5-2.6,4.5-4.5
			c1-1.8,1.5-3.6,1.5-8.5v-28.9c0-4.9-0.6-6.7-1.5-8.5c-1-2-2.6-3.5-4.5-4.5C62.1,1580.6,60.4,1580,55.4,1580z"/>
		<path id="Path_68_" class="st33" d="M10.6,1582h44.9c4.4,0,6,0.5,7.5,1.3c1.6,0.9,2.9,2.1,3.7,3.7c0.2,0.3,0.3,0.6,0.5,1H-1.2
			c0.1-0.3,0.3-0.7,0.5-1c0.9-1.6,2.1-2.9,3.7-3.7S6.2,1582,10.6,1582z"/>
		<path id="Path_69_" class="st33" d="M68,1594c0,0.2,0,0.4,0,0.6v5.4H-2v-5.4c0-0.2,0-0.4,0-0.6H68z"/>
		<polygon id="Path_70_" class="st33" points="68,1606 68,1612 -2,1612 -2,1606 		"/>
		<path id="Path_71_" class="st33" d="M68,1623.5c0,0.2,0,0.4,0,0.6H-2c0-0.2,0-0.4,0-0.6v-5.4h70V1623.5z"/>
		<path id="Path_72_" class="st33" d="M67.2,1630c-0.1,0.3-0.3,0.7-0.5,1c-0.9,1.6-2.1,2.9-3.7,3.7c-1.6,0.9-3.2,1.3-7.5,1.3H10.6
			c-4.4,0-6-0.5-7.5-1.3c-1.6-0.9-2.9-2.1-3.7-3.7c-0.2-0.3-0.3-0.6-0.5-1H67.2z"/>
	</g>
</g>
<g id="th">
	<g id="Group_35_" transform="translate(6.000000, 6.000000)">
		<path id="Rectangle-3_35_" class="st16" d="M10.6,1648h44.9c4.4,0,6,0.5,7.5,1.3c1.6,0.9,2.9,2.1,3.7,3.7c0.9,1.6,1.3,3.2,1.3,7.5
			v28.9c0,4.4-0.5,6-1.3,7.5s-2.1,2.9-3.7,3.7c-1.6,0.9-3.2,1.3-7.5,1.3H10.6c-4.4,0-6-0.5-7.5-1.3c-1.6-0.9-2.9-2.1-3.7-3.7
			s-1.3-3.2-1.3-7.5v-28.9c0-4.4,0.5-6,1.3-7.5c0.9-1.6,2.1-2.9,3.7-3.7S6.2,1648,10.6,1648z"/>
		<path id="Rectangle-3_36_" class="st7" d="M55.4,1646H10.6c-4.9,0-6.7,0.6-8.5,1.5c-2,1-3.5,2.6-4.5,4.5c-1,1.8-1.5,3.6-1.5,8.5
			v28.9c0,4.9,0.6,6.7,1.5,8.5c1,2,2.6,3.5,4.5,4.5c1.8,1,3.6,1.5,8.5,1.5h44.9c4.9,0,6.7-0.6,8.5-1.5c2-1,3.5-2.6,4.5-4.5
			c1-1.8,1.5-3.6,1.5-8.5v-28.9c0-4.9-0.6-6.7-1.5-8.5c-1-2-2.6-3.5-4.5-4.5C62.1,1646.6,60.4,1646,55.4,1646z"/>
		<path id="Path_73_" class="st9" d="M67.7,1694c-0.2,1.3-0.6,2.1-1,3c-0.9,1.6-2.1,2.9-3.7,3.7c-1.6,0.9-3.2,1.3-7.5,1.3H10.6
			c-4.4,0-6-0.5-7.5-1.3c-1.6-0.9-2.9-2.1-3.7-3.7c-0.5-0.9-0.8-1.7-1-3H67.7L67.7,1694z"/>
		<polygon id="Rectangle-4_1_" class="st2" points="68,1664 68,1686 -2,1686 -2,1664 		"/>
		<path id="Path_74_" class="st9" d="M10.6,1648h44.9c4.4,0,6,0.5,7.5,1.3c1.6,0.9,2.9,2.1,3.7,3.7c0.5,0.9,0.8,1.7,1,3H-1.7
			c0.2-1.3,0.6-2.1,1-3c0.9-1.6,2.1-2.9,3.7-3.7S6.2,1648,10.6,1648z"/>
	</g>
</g>
<g id="gn">
	<g id="Group_36_" transform="translate(6.000000, 6.000000)">
		<path id="Rectangle-3_37_" class="st7" d="M55.4,1712H10.6c-4.9,0-6.7,0.6-8.5,1.5c-2,1-3.5,2.6-4.5,4.5c-1,1.8-1.5,3.6-1.5,8.5
			v28.9c0,4.9,0.6,6.7,1.5,8.5c1,2,2.6,3.5,4.5,4.5c1.8,1,3.6,1.5,8.5,1.5h44.9c4.9,0,6.7-0.6,8.5-1.5c2-1,3.5-2.6,4.5-4.5
			c1-1.8,1.5-3.6,1.5-8.5v-28.9c0-4.9-0.6-6.7-1.5-8.5c-1-2-2.6-3.5-4.5-4.5C62.1,1712.6,60.4,1712,55.4,1712z"/>
		<path id="Path_75_" class="st8" d="M68,1752v3.4c0,4.4-0.5,6-1.3,7.5s-2.1,2.9-3.7,3.7c-1.6,0.9-3.2,1.3-7.5,1.3H10.6
			c-4.4,0-6-0.5-7.5-1.3c-1.6-0.9-2.9-2.1-3.7-3.7s-1.3-3.2-1.3-7.5v-3.4H68z"/>
		<path id="Path_76_" class="st9" d="M10.6,1714h44.9c4.4,0,6,0.5,7.5,1.3c1.6,0.9,2.9,2.1,3.7,3.7c0.9,1.6,1.3,3.2,1.3,7.5v3.4H-2
			v-3.4c0-4.4,0.5-6,1.3-7.5c0.9-1.6,2.1-2.9,3.7-3.7S6.2,1714,10.6,1714z"/>
		<path id="Oval_4_" class="st9" d="M33,1750c-5,0-9-4-9-9s4-9,9-9s9,4,9,9S38,1750,33,1750z M33,1746c2.8,0,5-2.2,5-5
			c0-2.8-2.2-5-5-5s-5,2.2-5,5C28,1743.8,30.2,1746,33,1746z"/>
		<circle id="Oval_5_" class="st2" cx="33" cy="1741" r="3"/>
	</g>
</g>
<g id="ambassador">
	<g id="Group-5-Copy" transform="translate(6.000000, 6.000000)">
		<path id="Rectangle-3_38_" class="st34" d="M55.4,1778H10.6c-4.9,0-6.7,0.6-8.5,1.5c-2,1-3.5,2.6-4.5,4.5c-1,1.8-1.5,3.6-1.5,8.5
			v28.9c0,4.9,0.6,6.7,1.5,8.5c1,2,2.6,3.5,4.5,4.5c1.8,1,3.6,1.5,8.5,1.5h44.9c4.9,0,6.7-0.6,8.5-1.5c2-1,3.5-2.6,4.5-4.5
			c1-1.8,1.5-3.6,1.5-8.5v-28.9c0-4.9-0.6-6.7-1.5-8.5c-1-2-2.6-3.5-4.5-4.5C62.1,1778.6,60.4,1778,55.4,1778z"/>
		<path id="Path_77_" class="st18" d="M29.5,1780l6.3,3.4l-6.3,8.2l-2.5,9.5l-7-4.8v7l22.8,9.6L27.4,1834h-3.8l1.5-12.6l-6.3-5.6
			v-8.3l-8.3-8.3L2,1785.5l2.4-4.8c1.3-0.5,3-0.7,6.2-0.7H29.5z"/>
		<path id="Combined-Shape_3_" class="st35" d="M55.4,1780c4.4,0,6,0.5,7.5,1.3c1.6,0.9,2.9,2.1,3.7,3.7c0.9,1.6,1.3,3.2,1.3,7.5
			v28.9c0,3.4-0.3,5.1-0.8,6.5l-5.8-1.9l-1.3-13l-8.7-5.6v-13h8.3l-4.1-6.4h-5.9l3.1-8H55.4z"/>
		<g id="Group-7" transform="translate(4.000000, 0.000000)">
		</g>
	</g>
</g>
<g id="duolingo">
	<g id="Group-5-Copy-2" transform="translate(6.000000, 6.000000)">
		<path id="Rectangle-3_39_" class="st17" d="M55.4,1844H10.6c-4.9,0-6.7,0.6-8.5,1.5c-2,1-3.5,2.6-4.5,4.5c-1,1.8-1.5,3.6-1.5,8.5
			v28.9c0,4.9,0.6,6.7,1.5,8.5c1,2,2.6,3.5,4.5,4.5c1.8,1,3.6,1.5,8.5,1.5h44.9c4.9,0,6.7-0.6,8.5-1.5c2-1,3.5-2.6,4.5-4.5
			c1-1.8,1.5-3.6,1.5-8.5v-28.9c0-4.9-0.6-6.7-1.5-8.5c-1-2-2.6-3.5-4.5-4.5C62.1,1844.6,60.4,1844,55.4,1844z"/>
		<g id="Icon" transform="translate(4.000000, 0.000000)">
			<g id="Glyph-Copy-3" transform="translate(0.867188, 5.550781)">
				<g id="Group_37_" transform="translate(0.035890, 0.000000)">
					<path id="Combined-Shape-Copy-57" class="st36" d="M22.2,1858c0.9,0.9,0.6,2.4-0.5,2.9c-3.7,1.8-8.1,1-11-2
						c-2.9-3-3.5-7.5-1.6-11.1c0.6-1.1,1.8-1.3,2.7-0.4L22.2,1858z"/>
					<path id="Path-12" class="st37" d="M21,1856.9c3.7,3.7,10.1,3.7,14.2,0s-0.6,21.5-0.6,21.5c0,0-2.2,0-6.5,0c-1.2,0-3.3,0-6.3,0
						C18.8,1861.6,18.5,1854.4,21,1856.9z"/>
					<path id="Combined-Shape-Copy-58" class="st36" d="M6.1,1851.4l9.9,11c0.8,0.9,0.5,2.4-0.6,2.9c-3.7,1.7-8.2,0.7-11-2.4
						c-2.8-3.1-3.3-7.6-1.2-11.1C3.8,1850.6,5.2,1850.4,6.1,1851.4z"/>
					
						<g id="Group-4" transform="translate(47.352758, 11.848706) scale(-1, 1) translate(-47.352758, -11.848706) translate(34.738341, 0.039135)">
						<path id="Combined-Shape-Copy-57_1_" class="st36" d="M25.9,1858c0.9,0.9,0.6,2.4-0.5,2.9c-3.7,1.8-8.1,1-11-2
							c-2.9-3-3.5-7.5-1.6-11.1c0.6-1.1,1.8-1.3,2.7-0.4L25.9,1858z"/>
						<path id="Combined-Shape-Copy-58_1_" class="st36" d="M9.8,1851.3l9.9,11c0.8,0.9,0.5,2.4-0.6,2.9c-3.7,1.7-8.2,0.7-11-2.4
							c-2.8-3.1-3.3-7.6-1.2-11.1C7.5,1850.6,9,1850.4,9.8,1851.3z"/>
					</g>
					<path id="Rectangle-130-Copy-36" class="st37" d="M11.1,1853h0.6c7.3,0,13.1,5.9,13.1,13.1v6.8c0,7.3-5.9,13.1-13.1,13.1h-0.6
						c-7.3,0-13.1-5.9-13.1-13.1v-6.8C-2,1858.9,3.9,1853,11.1,1853z"/>
					<path id="Rectangle-130-Copy-37" class="st37" d="M44.5,1853h0.5c7.3,0,13.1,5.9,13.1,13.1v6.8c0,7.3-5.9,13.1-13.1,13.1h-0.4
						c-7.2,0-13.1-5.8-13.1-13l-0.1-6.8c-0.1-7.3,5.8-13.2,13-13.3C44.4,1853,44.4,1853,44.5,1853z"/>
					<path id="Rectangle-130-Copy-38" class="st6" d="M12,1857.7c5.1,0,9.2,4.1,9.2,9.2v5.4c0,5.1-4.1,9.2-9.2,9.2s-9.2-4.1-9.2-9.2
						v-5.4C2.8,1861.8,6.9,1857.7,12,1857.7z"/>
					<path id="Rectangle-130-Copy-39" class="st6" d="M44.1,1857.7c5.1,0,9.2,4.1,9.2,9.2v5.4c0,5.1-4.1,9.2-9.2,9.2
						s-9.2-4.1-9.2-9.2v-5.4C35,1861.8,39.1,1857.7,44.1,1857.7z"/>
					<path id="Rectangle-130-Copy-40" class="st38" d="M13.4,1863c2.4,0,4.3,1.9,4.3,4.3v4.6c0,2.4-1.9,4.3-4.3,4.3
						s-4.3-1.9-4.3-4.3v-4.6C9,1864.9,11,1863,13.4,1863z"/>
					<g id="Group-3_2_" transform="translate(23.234280, 27.443651)">
						<g id="Group-2_2_">
							<path id="Rectangle-2-Copy-9" class="st39" d="M4.9,1846c2.7,0,5,2.2,5,5v1.7c0,2.7-2.2,5-5,5s-5-2.2-5-5v-1.7
								C-0.1,1848.3,2.1,1846,4.9,1846z"/>
							<path id="Combined-Shape-Copy-61" class="st40" d="M-2,1851.5c0.6-3.2,3.5-5.5,7.1-5.5c3.2,0,6.1,2.3,6.7,5.5l0,0v0.3
								c0,0.2-0.1,0.3-0.3,0.3l-6.4,1.1c-0.2,0-0.2,0-0.4,0l-6.4-1.1c-0.2,0-0.3-0.1-0.3-0.3V1851.5L-2,1851.5z"/>
							<path id="Rectangle_8_" class="st41" d="M3.8,1847.1c0.3-0.1,0.7-0.1,1-0.1c0.4,0,0.7,0,1.1,0.1c0.7,0.2,1.3,0.9,1.3,1.6
								c0,0.6-0.5,1.1-1.1,1.1H3.6c-0.6,0-1.1-0.5-1.1-1.1C2.5,1848,3,1847.3,3.8,1847.1z"/>
						</g>
					</g>
					<path id="Rectangle-130-Copy-41" class="st38" d="M42.7,1863c2.4,0,4.3,1.9,4.3,4.3v4.6c0,2.4-1.9,4.3-4.3,4.3
						c-2.4,0-4.3-1.9-4.3-4.3v-4.6C38.4,1864.9,40.3,1863,42.7,1863z"/>
					<ellipse id="Oval-10-Copy-4" class="st6" cx="9.7" cy="1865.4" rx="2.8" ry="2.8"/>
					<ellipse id="Oval-10-Copy-5" class="st6" cx="38.6" cy="1865.4" rx="2.8" ry="2.8"/>
				</g>
			</g>
		</g>
	</g>
</g>
<g id="troubleshooting">
	<g id="Group-5-Copy-3" transform="translate(6.000000, 6.000000)">
		<path id="Rectangle-3_40_" class="st15" d="M55.4,1910H10.6c-4.9,0-6.7,0.6-8.5,1.5c-2,1-3.5,2.6-4.5,4.5c-1,1.8-1.5,3.6-1.5,8.5
			v28.9c0,4.9,0.6,6.7,1.5,8.5c1,2,2.6,3.5,4.5,4.5c1.8,1,3.6,1.5,8.5,1.5h44.9c4.9,0,6.7-0.6,8.5-1.5c2-1,3.5-2.6,4.5-4.5
			c1-1.8,1.5-3.6,1.5-8.5v-28.9c0-4.9-0.6-6.7-1.5-8.5c-1-2-2.6-3.5-4.5-4.5C62.1,1910.6,60.4,1910,55.4,1910z"/>
		
			<g id="Group_38_" transform="translate(33.627417, 26.627417) scale(-1, 1) rotate(45.000000) translate(-33.627417, -26.627417) translate(26.627417, 1.627417)">
			<path id="Rectangle_9_" class="st42" d="M1360.1,1358.4L1360.1,1358.4c1.2,0,2.2,1,2.2,2.2v31.1c0,1.2-1,2.2-2.2,2.2l0,0
				c-1.2,0-2.2-1-2.2-2.2v-31.1C1357.9,1359.4,1358.9,1358.4,1360.1,1358.4z"/>
			<path id="Combined-Shape_4_" class="st43" d="M1365.7,1373c0.9,0,1.7,0.7,1.7,1.7v0.8c0,1.3-1.1,2.4-2.4,2.4l-0.3,0
				c1.7,1.2,2.7,3.2,2.7,5.4v10.6c0,3.7-3,6.7-6.7,6.7h-0.6c-3.7,0-6.7-3-6.7-6.7v-10.6c0-2.2,1.1-4.2,2.7-5.4l-0.3,0
				c-1.3,0-2.4-1.1-2.4-2.4v-0.8c0-0.9,0.7-1.7,1.7-1.7H1365.7z"/>
			<path id="Rectangle_10_" class="st42" d="M1358.9,1351h2.7c0.4,0,0.7,0.3,0.8,0.6l1.8,6.5c0.1,0.2,0,0.4-0.1,0.6l-1.6,3.3
				c-0.1,0.3-0.4,0.5-0.7,0.5h-2.9c-0.3,0-0.6-0.2-0.7-0.5l-1.6-3.3c-0.1-0.2-0.1-0.4-0.1-0.6l1.8-6.5
				C1358.2,1351.2,1358.5,1351,1358.9,1351z"/>
			<path id="Rectangle_11_" class="st44" d="M1360.5,1380.3L1360.5,1380.3c0.6,0,1.2,0.5,1.2,1.2v14.6c0,0.6-0.5,1.2-1.2,1.2l0,0
				c-0.6,0-1.2-0.5-1.2-1.2v-14.6C1359.3,1380.9,1359.9,1380.3,1360.5,1380.3z"/>
			<path id="Rectangle-Copy-2_1_" class="st44" d="M1364.3,1382L1364.3,1382c0.6,0,1.2,0.5,1.2,1.2v10.9c0,0.6-0.5,1.2-1.2,1.2l0,0
				c-0.6,0-1.2-0.5-1.2-1.2v-10.9C1363.2,1382.5,1363.7,1382,1364.3,1382z"/>
			<path id="Rectangle-Copy-3_1_" class="st44" d="M1356.3,1382L1356.3,1382c0.6,0,1.2,0.5,1.2,1.2v10.9c0,0.6-0.5,1.2-1.2,1.2l0,0
				c-0.6,0-1.2-0.5-1.2-1.2v-10.9C1355.1,1382.5,1355.6,1382,1356.3,1382z"/>
		</g>
		
			<g id="Group_39_" transform="translate(34.000000, 28.000000) rotate(45.000000) translate(-34.000000, -28.000000) translate(24.000000, 6.000000)">
			<path id="Combined-Shape_5_" class="st45" d="M1363.7,1365.7c1.7,0,3.2,1.4,3.2,3.2v22c0,3.3-2.7,5.9-5.9,5.9
				c-3.3,0-5.9-2.7-5.9-5.9v-22c0-1.7,1.4-3.2,3.2-3.2H1363.7z M1361.2,1388.1h-0.3c-0.1,0-0.2,0-0.3,0c-1.4,0.2-2.4,1.4-2.2,2.8
				l0,0l0.1,0.4c0,0,0,0,0,0c0.2,1.4,1.5,2.3,2.8,2.1c1.4-0.2,2.5-1.4,2.5-2.9l0,0v0C1363.8,1389.3,1362.7,1388.1,1361.2,1388.1
				L1361.2,1388.1z"/>
			<path id="Rectangle_12_" class="st42" d="M1360.6,1368L1360.6,1368c0.9,0,1.6,0.7,1.6,1.6v13.2c0,0.9-0.7,1.6-1.6,1.6l0,0
				c-0.9,0-1.6-0.7-1.6-1.6v-13.2C1359,1368.7,1359.7,1368,1360.6,1368z"/>
			<path id="Combined-Shape_6_" class="st45" d="M1355.5,1353.6c0.5,0,0.9,0.4,0.9,0.9l0,0v8.3c0,0.8,0.6,1.4,1.4,1.4l0,0h5.5
				c0.8,0,1.4-0.6,1.4-1.4l0,0v-8.3c0-0.2,0-0.3,0.1-0.4c0.2-0.4,0.8-0.6,1.2-0.3l0,0l0.8,0.4c2.3,1.7,3.7,4.4,3.7,7.5
				c0,5.2-4.2,9.4-9.4,9.4h-1.2c-5.2,0-9.4-4.2-9.4-9.4c0-3.1,1.5-5.8,3.7-7.5l0.8-0.4C1355.2,1353.6,1355.4,1353.6,1355.5,1353.6z"
				/>
		</g>
	</g>
</g>
<g id="teachers">
	<g id="Group-5-Copy-4" transform="translate(1.000000, 6.000000)">
		<path id="Rectangle-3_41_" class="st17" d="M60.4,1976H15.6c-4.9,0-6.7,0.6-8.5,1.5c-2,1-3.5,2.6-4.5,4.5c-1,1.8-1.5,3.6-1.5,8.5
			v28.9c0,4.9,0.6,6.7,1.5,8.5c1,2,2.6,3.5,4.5,4.5c1.8,1,3.6,1.5,8.5,1.5h44.9c4.9,0,6.7-0.6,8.5-1.5c2-1,3.5-2.6,4.5-4.5
			c1-1.8,1.5-3.6,1.5-8.5v-28.9c0-4.9-0.6-6.7-1.5-8.5c-1-2-2.6-3.5-4.5-4.5C67.1,1976.6,65.4,1976,60.4,1976z"/>
		<path id="Rectangle-3-Copy-4" class="st17" d="M60.4,1976H15.6c-4.9,0-6.7,0.6-8.5,1.5c-2,1-3.5,2.6-4.5,4.5
			c-1,1.8-1.5,3.6-1.5,8.5v28.9c0,4.9,0.6,6.7,1.5,8.5c1,2,2.6,3.5,4.5,4.5c1.8,1,3.6,1.5,8.5,1.5h44.9c4.9,0,6.7-0.6,8.5-1.5
			c2-1,3.5-2.6,4.5-4.5c1-1.8,1.5-3.6,1.5-8.5v-28.9c0-4.9-0.6-6.7-1.5-8.5c-1-2-2.6-3.5-4.5-4.5C67.1,1976.6,65.4,1976,60.4,1976z"
			/>
		<g id="Page-1" transform="translate(0.000000, 2.000000)">
			<g id="Group-112" transform="translate(0.000000, 1.148238)">
				<path id="Fill-82" class="st46" d="M50.3,1984.8h-2.2c-0.8,0-1.5,0.7-1.5,1.5c0,0.8,0.7,1.5,1.5,1.5h2.2c0.8,0,1.5-0.7,1.5-1.5
					C51.8,1985.5,51.2,1984.8,50.3,1984.8"/>
				<path id="Fill-83" class="st46" d="M50.3,1989.1h-2.2c-0.5,0-0.9,0.4-0.9,0.9c0,0.5,0.4,0.9,0.9,0.9h2.2c0.5,0,0.9-0.4,0.9-0.9
					C51.2,1989.5,50.8,1989.1,50.3,1989.1"/>
				<path id="Fill-84" class="st47" d="M50.3,2004.2h-2.2c-0.5,0-0.9,0.4-0.9,0.9c0,0.5,0.4,0.9,0.9,0.9h2.2c0.5,0,0.9-0.4,0.9-0.9
					C51.2,2004.6,50.8,2004.2,50.3,2004.2"/>
				<path id="Fill-87" class="st48" d="M32.1,1984.8h-2.2c-0.8,0-1.5,0.7-1.5,1.5c0,0.8,0.7,1.5,1.5,1.5h2.2c0.8,0,1.5-0.7,1.5-1.5
					C33.7,1985.5,33,1984.8,32.1,1984.8"/>
				<path id="Fill-88" class="st48" d="M32.1,1989.1h-2.2c-0.5,0-0.9,0.4-0.9,0.9c0,0.5,0.4,0.9,0.9,0.9h2.2c0.5,0,0.9-0.4,0.9-0.9
					C33,1989.5,32.6,1989.1,32.1,1989.1"/>
				<path id="Fill-89" class="st49" d="M31.5,2000.9h-0.9c-0.8,0-1.5,0.7-1.5,1.5v2.1c0,0.8,0.7,1.5,1.5,1.5h0.9
					c0.8,0,1.5-0.7,1.5-1.5v-2.1C33,2001.6,32.3,2000.9,31.5,2000.9"/>
				<path id="Fill-94" class="st50" d="M23.5,2000.9h-0.9c-0.8,0-1.5,0.7-1.5,1.5v2.1c0,0.8,0.7,1.5,1.5,1.5h0.9
					c0.8,0,1.5-0.7,1.5-1.5v-2.1C24.9,2001.6,24.3,2000.9,23.5,2000.9"/>
				<path id="Fill-105" class="st51" d="M43,1978.6h-5.7c-1.2,0-2.1,1-2.1,2.1v26.2c0,1.2,0.9,2.1,2.1,2.1H43c1.2,0,2.1-1,2.1-2.1
					v-26.2C45.1,1979.6,44.2,1978.6,43,1978.6"/>
				<path id="Fill-106" class="st50" d="M40.3,1985.1H40c-0.8,0-1.5,0.7-1.5,1.5v8.3c0,0.8,0.7,1.5,1.5,1.5h0.3
					c0.8,0,1.5-0.7,1.5-1.5v-8.3C41.8,1985.8,41.1,1985.1,40.3,1985.1"/>
				<polygon id="Fill-107" class="st50" points="35.5,1983.2 45.1,1983.2 45.1,1981.9 35.5,1981.9 				"/>
				<path id="Fill-108" class="st50" d="M41.6,2004.2h-2.9c-0.5,0-0.9,0.4-0.9,0.9c0,0.5,0.4,0.9,0.9,0.9h2.9c0.5,0,0.9-0.4,0.9-0.9
					C42.5,2004.6,42.1,2004.2,41.6,2004.2"/>
			</g>
			<g id="Group-145" transform="translate(11.459259, 0.342475)">
				<path id="Fill-113" class="st52" d="M43,1990.2c0,6.7-5.4,12.2-12,12.2c-6.7,0-12-5.4-12-12.2c0-6.7,5.4-12.2,12-12.2
					C37.6,1978,43,1983.5,43,1990.2"/>
				<path id="Fill-115" class="st53" d="M39.9,1999.8c0,8.9-7.2,16.1-16,16.1s-16-7.2-16-16.1s7.2-16.1,16-16.1
					S39.9,1990.9,39.9,1999.8"/>
				<path id="Fill-117" class="st53" d="M44.7,2002.8c0,9.2-7.4,16.7-16.5,16.7c-9.1,0-16.5-7.5-16.5-16.7s7.4-16.7,16.5-16.7
					C37.4,1986.2,44.7,1993.6,44.7,2002.8"/>
				<path id="Fill-125" class="st54" d="M4.5,2009c0,3.4,2.8,6.2,6.2,6.2s6.2-2.8,6.2-6.2c0-3.4-2.8-6.2-6.2-6.2
					S4.5,2005.5,4.5,2009"/>
				<path id="Fill-127" class="st53" d="M31.7,1984.6c2.1,2.2,1.9,5.9-0.6,8.4c-2.5,2.4-6.2,2.7-8.3,0.5L31.7,1984.6z"/>
				<path id="Stroke-129" class="st55" d="M31.7,1984.6c2.1,2.2,1.9,5.9-0.6,8.4c-2.5,2.4-6.2,2.7-8.3,0.5L31.7,1984.6z"/>
				<path id="Fill-135" class="st53" d="M31.4,1998.5c-2.9-0.8-4.6-4.1-3.8-7.5c0.9-3.4,3.9-5.5,6.9-4.7L31.4,1998.5z"/>
				<path id="Stroke-137" class="st56" d="M31.4,1998.5c-2.9-0.8-4.6-4.1-3.8-7.5c0.9-3.4,3.9-5.5,6.9-4.7L31.4,1998.5z"/>
				<path id="Fill-141" class="st54" d="M36.2,2009c0,3.4,2.8,6.2,6.2,6.2s6.2-2.8,6.2-6.2c0-3.4-2.8-6.2-6.2-6.2
					S36.2,2005.5,36.2,2009"/>
			</g>
			<g id="Group-213" transform="translate(14.437037, 6.589681)">
				<path id="Fill-157" class="st57" d="M23.5,2019.6H23c-8.7,0-15.9-7.2-15.9-16v-5.8c0-8.8,7.1-16,15.9-16h0.6
					c8.7,0,15.9,7.2,15.9,16v5.8C39.4,2012.4,32.3,2019.6,23.5,2019.6"/>
				<path id="Fill-159" class="st58" d="M30,2001.5L30,2001.5c-1.2,0-2.1-1-2.1-2.1v-4c0-1.2,1-2.1,2.1-2.1c1.2,0,2.1,1,2.1,2.1v4
					C32.1,2000.6,31.2,2001.5,30,2001.5"/>
				<path id="Fill-161" class="st57" d="M31.3,2001.9h-2.6c-0.9,0-1.7-0.8-1.7-1.7s0.7-1.7,1.7-1.7h2.6c0.9,0,1.7,0.8,1.7,1.7
					S32.2,2001.9,31.3,2001.9"/>
				<path id="Fill-163" class="st58" d="M16.7,2001.5L16.7,2001.5c-1.2,0-2.1-1-2.1-2.1v-4c0-1.2,1-2.1,2.1-2.1c1.2,0,2.1,1,2.1,2.1
					v4C18.8,2000.6,17.9,2001.5,16.7,2001.5"/>
				<path id="Fill-165" class="st57" d="M18,2001.9h-2.6c-0.9,0-1.7-0.8-1.7-1.7s0.7-1.7,1.7-1.7H18c0.9,0,1.7,0.8,1.7,1.7
					S18.9,2001.9,18,2001.9"/>
				<path id="Fill-167" class="st59" d="M10.6,2004.9c0,0.3,0.2,0.5,0.4,0.5c0.2,0,0.4-0.2,0.4-0.5c0-0.3-0.2-0.5-0.4-0.5
					C10.8,2004.5,10.6,2004.7,10.6,2004.9"/>
				<path id="Fill-169" class="st59" d="M36.1,2005.2c0.2,0.1,0.5,0.1,0.6-0.1c0.1-0.2,0.1-0.5-0.1-0.6c-0.2-0.1-0.5-0.1-0.6,0.1
					C35.8,2004.7,35.9,2005,36.1,2005.2"/>
				<path id="Fill-171" class="st54" d="M24.8,2008.4h-2.9c-1,0-1.8-0.6-1.8-1.3v-7.3c0-0.7,0.8-1.3,1.8-1.3h2.9
					c1,0,1.8,0.6,1.8,1.3v7.3C26.6,2007.9,25.8,2008.4,24.8,2008.4"/>
				<path id="Fill-173" class="st59" d="M12.3,2003.3c0,0.4,0.3,0.7,0.6,0.7c0.4,0,0.6-0.3,0.6-0.7c0-0.4-0.3-0.7-0.6-0.7
					C12.5,2002.6,12.3,2002.9,12.3,2003.3"/>
				<path id="Fill-175" class="st59" d="M9.8,2001.4c0,0.4,0.3,0.7,0.6,0.7c0.4,0,0.6-0.3,0.6-0.7c0-0.4-0.3-0.7-0.6-0.7
					C10.1,2000.7,9.8,2001,9.8,2001.4"/>
				<path id="Fill-177" class="st59" d="M33.1,2003.3c0,0.4,0.3,0.7,0.6,0.7c0.4,0,0.6-0.3,0.6-0.7c0-0.4-0.3-0.7-0.6-0.7
					C33.4,2002.6,33.1,2002.9,33.1,2003.3"/>
				<path id="Fill-179" class="st59" d="M35.3,2002c0,0.4,0.3,0.7,0.6,0.7c0.4,0,0.6-0.3,0.6-0.7c0-0.4-0.3-0.7-0.6-0.7
					C35.6,2001.4,35.3,2001.7,35.3,2002"/>
				<line id="Stroke-197" class="st60" x1="20.5" y1="1999.1" x2="26.2" y2="1999.1"/>
				<path id="Fill-199" class="st53" d="M38.1,1996.2c1.1,0.6,2.2,0.2,2.9-0.7c-0.5-8-6.4-14.6-14-16.1
					C27.6,1986.7,31.9,1993,38.1,1996.2"/>
				<path id="Fill-201" class="st53" d="M30.2,1981.7c-2.5-2-5.7-3.2-9.2-3.2c-8.2,0-14.9,6.7-14.9,15c0,0.7,0.1,1.5,0.2,2.2
					C15.9,1994.2,24.3,1989,30.2,1981.7"/>
				<g id="Group-9" transform="translate(11.853553, 15.557367)">
					<path id="Stroke-207" class="st61" d="M3.6,1976.5c-1.9,0-3.7,0.8-4.9,2.1c-1.3,1.3-2,3-2,5s0.8,3.7,2,5c1.3,1.3,3,2.1,4.9,2.1
						s3.7-0.8,4.9-2.1c1.3-1.3,2-3,2-5s-0.8-3.7-2-5C7.3,1977.3,5.6,1976.5,3.6,1976.5z"/>
					<path id="Combined-Shape_7_" class="st62" d="M3.6,1978c1.3,0,2.5,0.5,3.4,1.2l-7.7,7.7c-0.7-0.9-1.2-2.1-1.2-3.4
						C-1.8,1980.5,0.6,1978,3.6,1978z"/>
				</g>
				<g id="Group-9-Copy" transform="translate(27.853553, 15.557367)">
					<path id="Stroke-207_1_" class="st61" d="M3.6,1976.5c-1.9,0-3.7,0.8-4.9,2.1c-1.3,1.3-2,3-2,5s0.8,3.7,2,5
						c1.3,1.3,3,2.1,4.9,2.1s3.7-0.8,4.9-2.1c1.3-1.3,2-3,2-5s-0.8-3.7-2-5C7.3,1977.3,5.6,1976.5,3.6,1976.5z"/>
					<path id="Combined-Shape_8_" class="st62" d="M3.6,1978c1.3,0,2.5,0.5,3.4,1.2l-7.7,7.7c-0.7-0.9-1.2-2.1-1.2-3.4
						C-1.8,1980.5,0.6,1978,3.6,1978z"/>
				</g>
			</g>
		</g>
		<path id="Combined-Shape-Copy_1_" class="st63" d="M59.1,2014l0.1,4.3l1.4,12.3c-1,0.3-2.3,0.4-4.3,0.4H19.5
			c-2.3,0-3.7-0.2-4.7-0.5l1.9-11.8l-0.1-4.6l19.6,8c1,0.4,2.1,0.4,3,0L59.1,2014z"/>
		<path id="Combined-Shape_9_" class="st3" d="M63.8,2015l0.1,4.3l1.8,12.3c-1.2,0.3-2.8,0.4-5.2,0.4H15.6c-2.8,0-4.5-0.2-5.7-0.5
			l2.3-11.8L12,2015l24.5,8.2c0.8,0.3,1.7,0.3,2.5,0L63.8,2015z"/>
		<path id="Combined-Shape_10_" class="st8" d="M10,2017.5c0.4,0,0.8,0.1,1.2,0.2l25.9,8c0.8,0.2,1.6,0.2,2.4,0l25.3-8
			c2.1-0.7,4.4,0.5,5,2.6c0.1,0.4,0.2,0.8,0.2,1.2l0,7.8c-0.6,0.6-1.3,1.1-2,1.5c-1.6,0.9-3.2,1.3-7.5,1.3H15.6
			c-4.4,0-6-0.5-7.5-1.3c-0.7-0.4-1.4-0.9-2-1.5l0-7.8C6,2019.2,7.8,2017.5,10,2017.5z"/>
		<path id="Combined-Shape_11_" class="st64" d="M69.8,2020.3c0.1,0.4,0.2,0.8,0.2,1.2v7.8c-0.6,0.6-1.3,1.1-2,1.5
			c-1.6,0.9-3.2,1.3-7.5,1.3l-22.4,0l0-6.2c0.5,0,1,0,1.5-0.2l25.3-8C66.9,2017,69.1,2018.2,69.8,2020.3z"/>
	</g>
</g>
<g id="la">
	<g id="Group_40_" transform="translate(6.000000, 6.000000)">
		<path id="Rectangle-3_42_" class="st10" d="M55.4,2042H10.6c-4.9,0-6.7,0.6-8.5,1.5c-2,1-3.5,2.6-4.5,4.5c-1,1.8-1.5,3.6-1.5,8.5
			v28.9c0,4.9,0.6,6.7,1.5,8.5c1,2,2.6,3.5,4.5,4.5c1.8,1,3.6,1.5,8.5,1.5h44.9c4.9,0,6.7-0.6,8.5-1.5c2-1,3.5-2.6,4.5-4.5
			c1-1.8,1.5-3.6,1.5-8.5v-28.9c0-4.9-0.6-6.7-1.5-8.5c-1-2-2.6-3.5-4.5-4.5C62.1,2042.6,60.4,2042,55.4,2042z"/>
	</g>
	<g id="Group-7_1_" transform="translate(19.000000, 15.000000)">
		<g id="Group_42_" transform="translate(0.806452, 0.096774)">
			<g id="Group-5">
				<g id="Group-4_1_">
					<g id="Group-3_3_">
						<g id="Group-2_3_">
							<path id="Shape_2_" class="st65" d="M4.7,2056.2c-0.2,1-0.3,2.1-0.3,3.2c0,1.3,0.2,2.6,0.5,3.9 M10,2070.9
								c2.5,1.9,5.6,3.1,9,3.1c3.9,0.5,7.1,2.5,9.8,5.9"/>
							<path id="Rectangle_13_" class="st33" d="M7,2051l0.1-0.6c0.3-3.5,3.4-6.2,7-5.9l0.6,0.1l0,0l-0.1,0.6
								c-0.3,3.5-3.4,6.2-7,5.9L7,2051L7,2051z"/>
							<path id="Rectangle-Copy_1_" class="st33" d="M3.7,2058.2l-0.6-0.5c-2.8-2.2-3.2-6.3-1-9.1l0.5-0.6l0,0l0.6,0.5
								c2.8,2.2,3.2,6.3,1,9.1L3.7,2058.2L3.7,2058.2z"/>
							<path id="Rectangle-Copy_2_" class="st33" d="M10.1,2071.9l-0.7,0.2c-3.4,1.1-7-0.8-8.1-4.1l-0.2-0.7l0,0l0.7-0.2
								c3.4-1.1,7,0.8,8.1,4.1L10.1,2071.9L10.1,2071.9z"/>
							<path id="Rectangle-Copy_3_" class="st33" d="M11.2,2071.8l0.4-0.7c1.7-3.1,0.5-7.1-2.7-8.7l-0.7-0.4l0,0l-0.4,0.7
								c-1.7,3.1-0.5,7.1,2.7,8.7L11.2,2071.8L11.2,2071.8z"/>
							<path id="Rectangle-Copy_4_" class="st33" d="M3.2,2059.5l0.1-0.8c0.5-3.5,3.8-6,7.3-5.5l0.8,0.1l0,0l-0.1,0.8
								c-0.5,3.5-3.8,6-7.3,5.5L3.2,2059.5L3.2,2059.5z"/>
						</g>
					</g>
				</g>
				
					<g id="Group_41_" transform="translate(27.000000, 17.935484) scale(-1, 1) translate(-27.000000, -17.935484) translate(11.612903, 0.000000)">
					<g id="Group-4_2_">
						<g id="Group-3_4_">
							<g id="Group-2_4_">
								<path id="Shape_3_" class="st65" d="M8.7,2056.2c-0.2,1-0.3,2.1-0.3,3.2c0,1.3,0.2,2.6,0.5,3.9 M14,2070.9
									c2.5,1.9,5.6,3.1,9,3.1c3.9,0.5,7.1,2.5,9.8,5.9"/>
								<path id="Rectangle_14_" class="st33" d="M11,2051l0.1-0.6c0.3-3.5,3.4-6.2,7-5.9l0.6,0.1l0,0l-0.1,0.6
									c-0.3,3.5-3.4,6.2-7,5.9L11,2051L11,2051z"/>
								<path id="Rectangle-Copy_5_" class="st33" d="M7.7,2058.2l-0.6-0.5c-2.8-2.2-3.2-6.3-1-9.1l0.5-0.6l0,0l0.6,0.5
									c2.8,2.2,3.2,6.3,1,9.1L7.7,2058.2L7.7,2058.2z"/>
								<path id="Rectangle-Copy_6_" class="st33" d="M14.1,2071.9l-0.7,0.2c-3.4,1.1-7-0.8-8.1-4.1l-0.2-0.7l0,0l0.7-0.2
									c3.4-1.1,7,0.8,8.1,4.1L14.1,2071.9L14.1,2071.9z"/>
								<path id="Rectangle-Copy_7_" class="st33" d="M15.2,2071.8l0.4-0.7c1.7-3.1,0.5-7.1-2.7-8.7l-0.7-0.4l0,0l-0.4,0.7
									c-1.7,3.1-0.5,7.1,2.7,8.7L15.2,2071.8L15.2,2071.8z"/>
								<path id="Rectangle-Copy_8_" class="st33" d="M7.2,2059.5l0.1-0.8c0.5-3.5,3.8-6,7.3-5.5l0.8,0.1l0,0l-0.1,0.8
									c-0.5,3.5-3.8,6-7.3,5.5L7.2,2059.5L7.2,2059.5z"/>
							</g>
						</g>
					</g>
				</g>
			</g>
		</g>
	</g>
</g>
<g id="gd">
	<g id="Group_43_" transform="translate(6.000000, 6.000000)">
		<path id="Rectangle-3_43_" class="st15" d="M55.4,2108H10.6c-4.9,0-6.7,0.6-8.5,1.5c-2,1-3.5,2.6-4.5,4.5c-1,1.8-1.5,3.6-1.5,8.5
			v28.9c0,4.9,0.6,6.7,1.5,8.5c1,2,2.6,3.5,4.5,4.5c1.8,1,3.6,1.5,8.5,1.5h44.9c4.9,0,6.7-0.6,8.5-1.5c2-1,3.5-2.6,4.5-4.5
			c1-1.8,1.5-3.6,1.5-8.5v-28.9c0-4.9-0.6-6.7-1.5-8.5c-1-2-2.6-3.5-4.5-4.5C62.1,2108.6,60.4,2108,55.4,2108z"/>
	</g>
	<g id="Group-10_1_" transform="translate(6.000000, 6.000000)">
		<g id="Group-6">
			<path class="st66" d="M55.4,2108H10.6c-4.9,0-6.7,0.6-8.5,1.5c-2,1-3.5,2.6-4.5,4.5c-1,1.8-1.5,3.6-1.5,8.5v28.9
				c0,4.9,0.6,6.7,1.5,8.5c1,2,2.6,3.5,4.5,4.5c1.8,1,3.6,1.5,8.5,1.5h44.9c4.9,0,6.7-0.6,8.5-1.5c2-1,3.5-2.6,4.5-4.5
				c1-1.8,1.5-3.6,1.5-8.5v-28.9c0-4.9-0.6-6.7-1.5-8.5c-1-2-2.6-3.5-4.5-4.5C62.1,2108.6,60.4,2108,55.4,2108z"/>
			<defs>
				<filter id="Adobe_OpacityMaskFilter" filterUnits="userSpaceOnUse" x="-1.8" y="2110.5" width="69.7" height="53.1">
					<feColorMatrix  type="matrix" values="1 0 0 0 0  0 1 0 0 0  0 0 1 0 0  0 0 0 1 0"/>
				</filter>
			</defs>
			<mask maskUnits="userSpaceOnUse" x="-1.8" y="2110.5" width="69.7" height="53.1" id="mask-2_1_">
				<g class="st67">
					<path id="path-1_1_" class="st6" d="M10.6,2110h44.9c4.4,0,6,0.5,7.5,1.3c1.6,0.9,2.9,2.1,3.7,3.7c0.9,1.6,1.3,3.2,1.3,7.5
						v28.9c0,4.4-0.5,6-1.3,7.5c-0.9,1.6-2.1,2.9-3.7,3.7c-1.6,0.9-3.2,1.3-7.5,1.3H10.6c-4.4,0-6-0.5-7.5-1.3
						c-1.6-0.9-2.9-2.1-3.7-3.7c-0.9-1.6-1.3-3.2-1.3-7.5v-28.9c0-4.4,0.5-6,1.3-7.5c0.9-1.6,2.1-2.9,3.7-3.7
						C4.6,2110.5,6.2,2110,10.6,2110z"/>
				</g>
			</mask>
			<path id="Path_78_" class="st68" d="M61.5,2110.7c0.5,0.2,1,0.4,1.5,0.6c1.6,0.9,2.9,2.1,3.7,3.7c0.6,1.2,1,2.3,1.2,4.6
				L43.1,2137l24.8,17.4c-0.2,2.3-0.6,3.4-1.2,4.6c-0.9,1.6-2.1,2.9-3.7,3.7c-0.5,0.2-0.9,0.5-1.5,0.6l-28-19.6l-28.3,19.8
				c-0.9-0.2-1.5-0.5-2.2-0.9c-1.6-0.9-2.9-2.1-3.7-3.7c-0.6-1.1-1-2.1-1.2-4l25.8-18l-25.8-18c0.2-1.8,0.6-2.9,1.2-4
				c0.9-1.6,2.1-2.9,3.7-3.7c0.7-0.4,1.3-0.6,2.2-0.9l28.3,19.8L61.5,2110.7z"/>
		</g>
	</g>
</g>
<g id="fi">
	<g id="Group_44_" transform="translate(6.000000, 6.000000)">
		<path id="Rectangle-3_44_" class="st7" d="M55.4,2174H10.6c-4.9,0-6.7,0.6-8.5,1.5c-2,1-3.5,2.6-4.5,4.5c-1,1.8-1.5,3.6-1.5,8.5
			v28.9c0,4.9,0.6,6.7,1.5,8.5c1,2,2.6,3.5,4.5,4.5c1.8,1,3.6,1.5,8.5,1.5h44.9c4.9,0,6.7-0.6,8.5-1.5c2-1,3.5-2.6,4.5-4.5
			c1-1.8,1.5-3.6,1.5-8.5v-28.9c0-4.9-0.6-6.7-1.5-8.5c-1-2-2.6-3.5-4.5-4.5C62.1,2174.6,60.4,2174,55.4,2174z"/>
		<polygon id="Path_79_" class="st25" points="29,2197 68,2197 68,2209 29,2209 29,2230 17,2230 17,2209 -2,2209 -2,2197 17,2197 
			17,2176 29,2176 		"/>
	</g>
</g>
<g id="Yiddish">
	<path id="Rectangle-3_45_" class="st69" d="M63.1,2246c0.3,0,0.5,0,0.8,0l0,0l0.7,0l1,0c0.2,0,0.4,0,0.6,0l0,0l0.6,0.1
		c1.3,0.1,2.3,0.4,3.1,0.7c3.7,1.8,5.1,3.4,6.1,5.2c0.8,1.8,1,2.5,1.2,3.4c0.2,1.3,0.2,1.4,0.2,1.6l0,0l0,0.6l0,0.6l0,1l0,1.2v28.7
		l0,0.8l0,1.1l0,0.7c0,0.5-0.1,1-0.1,1.5c-0.3,2-0.6,2.7-0.8,3.4c-1.6,3.1-3.1,4.5-5,5.6c-2.7,1-3.6,1.2-4.4,1.3l-0.2,0l0,0l-0.1,0
		l-0.6,0.1l-0.6,0l-1,0l-0.7,0l-45.8,0l-0.8,0l-1,0l-0.9-0.1l-0.6-0.1c-1-0.1-1.8-0.3-2.5-0.5c-4.4-2-5.8-3.6-6.8-5.4
		c-1.1-2.5-1.2-3.5-1.4-4.7l0,0l-0.1-0.6l-0.1-0.9c0-0.2,0-0.5,0-0.7l0,0l0-0.7l0-0.8v-28.7c0-0.3,0-0.5,0-0.8l0,0l0-0.7l0-1
		c0-0.2,0-0.4,0-0.6l0,0l0.1-0.6c0.1-1.3,0.4-2.3,0.7-3.1c1.8-3.7,3.4-5.1,5.2-6.1c2.5-1.1,3.5-1.2,4.7-1.4l0,0l0.6-0.1l0.9-0.1
		c0.2,0,0.5,0,0.7,0l0,0l0.7,0L63.1,2246z"/>
	<path id="Path_80_" class="st19" d="M28.3,2255c0.2,0,0.3,0.1,0.5,0.2l23.7,17.1c1.2,0.9,2,2.3,2,3.9v6.3c0,0.4-0.4,0.8-0.8,0.8
		c-0.2,0-0.3-0.1-0.5-0.2l-16.9-12.2c0.1,0.3,0.2,0.7,0.2,1.1v11.2c0,0.4-0.4,0.8-0.8,0.8H32c-2.5,0-4.5-2-4.5-4.5v-5.8
		c0-2.5,2-4.5,4.5-4.5h1.7c0.1,0,0.1,0,0.2,0l-4.4-3.1c-1.2-0.9-2-2.3-2-3.9v-6.3C27.5,2255.4,27.9,2255,28.3,2255z"/>
	<path id="Path_81_" class="st16" d="M47.1,2253.3l-2.7,3.8c-1.6,2.3-1.1,5.5,1.2,7.1l5.4,3.8c0.3,0.2,0.6,0.1,0.8-0.1l2.7-3.8
		c1.6-2.3,1.1-5.5-1.2-7.1l-5.4-3.8C47.6,2252.9,47.3,2253,47.1,2253.3z"/>
	<path id="Path_82_" class="st19" d="M46.6,2289c1.1,0,1.9,0.9,1.9,2s-0.9,2-1.9,2l-3,0l0.4,2.5c0.2,1.2-0.6,2.2-1.7,2.4
		c-0.1,0-0.2,0-0.3,0c-1.1,0-2-0.9-2-2.1c0-0.1,0-0.2,0-0.3l0.4-2.5l-2.9,0c-1.1,0-1.9-0.9-1.9-2s0.9-2,1.9-2H46.6z"/>
</g>
</svg>
